<svg id="call" xmlns="http://www.w3.org/2000/svg" width="25" height="25" viewBox="0 0 25 25">
  <g id="Group_944" data-name="Group 944">
    <path id="Path_7877" data-name="Path 7877" d="M22.994,16.41a14.194,14.194,0,0,1-4.458-.71,2.037,2.037,0,0,0-1.982.418l-2.811,2.122a15.535,15.535,0,0,1-6.984-6.983l2.06-2.738a2.021,2.021,0,0,0,.5-2.047A14.216,14.216,0,0,1,8.6,2.006,2.008,2.008,0,0,0,6.6,0H2.006A2.008,2.008,0,0,0,0,2.006,23.02,23.02,0,0,0,22.994,25,2.008,2.008,0,0,0,25,22.994V18.416A2.008,2.008,0,0,0,22.994,16.41Z" fill="#fff"/>
  </g>
</svg>
