<svg xmlns="http://www.w3.org/2000/svg" width="833.383" height="556.71" viewBox="0 0 833.383 556.71"><g id="Group_604" data-name="Group 604" transform="translate(-2057.552 -1442.364)"><path id="Path_7070" data-name="Path 7070" d="M2585.06,1422.289c-144.783,57.267-254.886-16.813-350.3,7.292-9.392,14.267-19.8,36.248-15.327,59.262,7.64,39.292,47.678,12.657,86.225,67.67s-2.318,109.237-2.318,109.237l-3.658.1s34.862-65.517-56.275-91.876c-82.807-23.948-86.57-47.455-54.636-123.5-35.909,24.677-70.049,70.459-103.642,151.4q-.565,1.358-1.129,2.731-.5,1.221-1,2.45-1.706,4.2-3.283,8.326-3.93,10.28-7.1,20.158c-8.187,25.453-12.692,48.932-14.086,70.588q-.531,8.27-.467,16.176c.792,105.421,78.358,164.735,158.587,197.9,9.01,3.728,18.055,7.124,27.028,10.217q3.824,1.318,7.633,2.564,4.094,1.347,8.159,2.6c.483.149.963.3,1.443.449q4.034,1.234,8.026,2.4c.626.186,1.255.368,1.882.549.483.139.963.272,1.443.411.57.166,1.14.325,1.709.484.367.1.735.208,1.106.31a654.058,654.058,0,0,0,102.37,19.761c2.6.279,4.906.51,6.88.7,5.286.5,8.2.675,8.2.675,45.5.719,87.444-.433,126.074-3.4q3.463-.263,6.881-.552c40.446-3.372,76.189-8.645,107.9-15.808,33.1-7.472,61.8-17,86.874-28.561,83.039-38.286,126.226-98.861,157.237-180.927C2935.828,1577.708,2798.061,1338.04,2585.06,1422.289Z" transform="translate(0 37.544)" fill="#feeed3"></path><g id="Group_574" data-name="Group 574" transform="translate(2377.446 1928.734)"><path id="Path_7071" data-name="Path 7071" d="M2281.173,1734.112v69.458c-1.97-.186-4.274-.417-6.878-.7v-68.762Z" transform="translate(-2274.295 -1734.112)" fill="#fcaa23"></path><path id="Path_7072" data-name="Path 7072" d="M2281.173,1734.112v69.458c-1.97-.186-4.274-.417-6.878-.7v-68.762Z" transform="translate(-2274.295 -1734.112)" fill="none" stroke="#000" stroke-linecap="round" stroke-miterlimit="10" stroke-width="1"></path></g><g id="Group_575" data-name="Group 575" transform="translate(2518.602 1928.734)"><path id="Path_7073" data-name="Path 7073" d="M2376.741,1734.112v66.176q-3.418.288-6.878.552v-66.729Z" transform="translate(-2369.863 -1734.112)" fill="#fcaa23"></path><path id="Path_7074" data-name="Path 7074" d="M2376.741,1734.112v66.176q-3.418.288-6.878.552v-66.729Z" transform="translate(-2369.863 -1734.112)" fill="none" stroke="#000" stroke-linecap="round" stroke-miterlimit="10" stroke-width="1"></path></g><g id="Group_576" data-name="Group 576" transform="translate(2352.454 1894.34)"><rect id="Rectangle_145" data-name="Rectangle 145" width="199.477" height="27.241" rx="6.308" fill="#4052f2"></rect><rect id="Rectangle_146" data-name="Rectangle 146" width="199.477" height="27.241" rx="6.308" fill="none" stroke="#000" stroke-linecap="round" stroke-miterlimit="10" stroke-width="1"></rect></g><rect id="Rectangle_147" data-name="Rectangle 147" width="177.116" height="10.181" transform="translate(2361.849 1921.581)" fill="#0b065a"></rect><g id="Group_577" data-name="Group 577" transform="translate(2386.659 1622.644)"><rect id="Rectangle_148" data-name="Rectangle 148" width="152.792" height="215.288" rx="17.181" fill="#4052f2"></rect><rect id="Rectangle_149" data-name="Rectangle 149" width="152.792" height="215.288" rx="17.181" fill="none" stroke="#000" stroke-linecap="round" stroke-miterlimit="10" stroke-width="1"></rect></g><path id="Path_7075" data-name="Path 7075" d="M2339.115,1466.994s-16.922-.549-23.937,8.255-5.778,27.516-7.292,35.358-5.915,11.144.963,27.928,12.244,22.563,29.3,23.526v23.114s20.362,7.567,26.278.688,5.64-9.493,5.64-9.493v-18.3A47.552,47.552,0,0,0,2383,1546.79c6.053-7.567,15.408-24.9,8.53-41.136s-19.811-39.346-27.653-40.723S2339.115,1466.994,2339.115,1466.994Z" transform="translate(117.846 66.063)" fill="#fff" stroke="#000" stroke-linecap="round" stroke-linejoin="round" stroke-width="1"></path><path id="Path_7076" data-name="Path 7076" d="M2311.38,1487.749s29.976-9.7,40.628,6.487c6.422,9.759,8.751,21.771,9.209,37.165.267,9,1.956,29.62-2.009,38.758s-18.123,16.745-18.123,16.745l24.977-7,1.013-22.312,6.329-3.209s26.9-38.934,20.7-50.16-33.9-38.333-52.962-38.6S2311.38,1487.749,2311.38,1487.749Z" transform="translate(120.842 66.544)" fill="#fcaa23"></path><path id="Path_7077" data-name="Path 7077" d="M2314.527,1675.431l-10.179,54.7-.827,4.456h-77.043l-5.437,14.277-12.794,33.6-8.16,21.432q-3.807-1.245-7.632-2.564c-8.973-3.093-18.018-6.488-27.028-10.215,10.813-24.038,39.123-87.47,41.788-98.355a3.946,3.946,0,0,1,1.032-1.752c1.436-1.527,4.211-2.913,7.958-4.177,1.47-.495,3.09-.972,4.836-1.427,9.865-2.577,23.808-4.558,37.927-6.042q.306-.036.612-.066c14.352-1.5,28.824-2.49,39.309-3.1,5.688-.326,10.2-.542,12.89-.663C2313.55,1675.468,2314.527,1675.431,2314.527,1675.431Z" transform="translate(51.22 166.63)" fill="#fff" stroke="#000" stroke-linecap="round" stroke-linejoin="round" stroke-width="1"></path><path id="Path_7078" data-name="Path 7078" d="M2269.677,1680.71s2.567,36.6-1.651,41.457-39.622,3.944-39.622,3.944l-10.869,7.155s57.211-1.721,60.168-.826,0-53.656,0-53.656Z" transform="translate(76.075 168.229)" fill="#fcaa23"></path><path id="Path_7079" data-name="Path 7079" d="M2303.05,1682.3c0,.1,0,.162,0,.162-2.817,1.62-7.548,3.258-13.023,4.8-15.918,4.478-38.157,8.132-38.157,8.132-1.485,13.728-5.189,29.8-9.812,45.952-8.617,30.113-20.416,60.506-26.929,76.517-.935-.261-1.874-.524-2.814-.795q-6.337-1.805-12.794-3.808-4.065-1.258-8.16-2.6-3.807-1.245-7.632-2.564c3.6-18.975,9.794-51.046,15.792-79.28,2.789-13.138,5.535-25.443,7.958-35.218,1.842-7.428,3.5-13.394,4.836-17.15a20.405,20.405,0,0,1,1.585-3.613c7.427-11.832,67.688-11.556,67.688-11.556.48.1.951.207,1.409.322C2302.595,1666.352,2303.064,1680.614,2303.05,1682.3Z" transform="translate(59.949 159.876)" fill="#fff" stroke="#000" stroke-linecap="round" stroke-linejoin="round" stroke-width="1"></path><path id="Path_7080" data-name="Path 7080" d="M2283.95,1685.722c-3.028,1.787-37.811,8.642-39.164,8.691a1.869,1.869,0,0,0-1.719.8l-1.353,10.824c-1.353,11.373-11.28,44.553-11.28,44.553-5.091,18.643-23.6,66.3-23.6,66.3l-.978.486c-.567-.163-1.137-.321-1.707-.486-.48-.139-.96-.273-1.443-.411q-.94-.27-1.88-.549c5.772-21.609,30.314-113.178,34.4-123.282,4.635-11.465,43.07-4.6,42.505-15.59s-10.64-15.411-10.64-15.411h13.826S2286.977,1683.934,2283.95,1685.722Z" transform="translate(68.107 160.053)" fill="#fcaa23"></path><path id="Path_7081" data-name="Path 7081" d="M2230.505,1688.037a16.982,16.982,0,0,0-2-11.349" transform="translate(81.311 167.229)" fill="none" stroke="#000" stroke-linecap="round" stroke-linejoin="round" stroke-width="1"></path><path id="Path_7082" data-name="Path 7082" d="M2310.491,1640.731s-3.027,26.966-4.678,28.066-56.362,3.256-56.362,3.256,10.549,2.316,9.517,19.033,0,64.386,0,64.386H2373.5s27.5,1.165,42.512-8.255c21.049-13.207,17.38-71.678-2.063-95.341S2310.491,1640.731,2310.491,1640.731Z" transform="translate(91.301 148.499)" fill="#0b065a"></path><path id="Path_7083" data-name="Path 7083" d="M2387.783,1544.724s12.565,4.586,25.956,7.98,21.279,7.613,23.848,16.417,19.077,74.521,16.463,89.38-10.456,25.452-36.182,13.9c0,0-2.654,27.057-9.258,27.516s-9.912-.917-9.912-.917-23.449-2.04-37.636.23-66.19-8.255-66.19-8.255-4.769-.046-7.614-5.549-2.75-21.188-2.75-21.188,10.868-110.033,16.395-113.74,34.829-6.87,42.4-7.144l14.377,5.3Z" transform="translate(108.023 103.625)" fill="#fff" stroke="#000" stroke-linecap="round" stroke-linejoin="round" stroke-width="1"></path><path id="Path_7084" data-name="Path 7084" d="M2324.316,1556.687s1.263,9.346,2.388,8.459,9.2-16.26,12.416-16.1,12.063,9.675,14.655,17.906c0,0,.455,1.956,3.092-1.818s15.281-18.737,15.281-18.737l-6.64-2.728-26.821,4.823-4.922-1.731Z" transform="translate(127.012 103.778)" fill="#fcaa23"></path><path id="Path_7085" data-name="Path 7085" d="M2357.265,1489.395s5.063,1.092,8.162,7.246c3.211,6.375,5.549,33.317,6.146,30.979,0,0,4.756,2.538,5.589-1.659,1.015-5.106,5.417-15.021,7.343-16.64,3.027-2.545,7.716-2.152,8.713-1.021,6.205,7.041.274,21.542-10.824,19.319l-7.8,34.05.647,10.307s10.046,1.786,23.237-2.235c7.521-2.294,8.173-57.187,2.12-74.109s-19.262-22.013-19.262-22.013.688-19.26-29.442-16.234-43.062,22.288-48.152,44.3-16.785,51.18,2.752,64.8,36.183,10.044,36.183,10.044v-10.869s-16.647,2.065-25.178-18.16-5.364-22.838-4.264-29.716.446-22.334,7.156-27.38S2341.581,1476.187,2357.265,1489.395Z" transform="translate(113.318 62.465)" fill="#0b065a"></path><path id="Path_7086" data-name="Path 7086" d="M2327.478,1534.126s15.684-.5,24.765-10.959" transform="translate(128.521 93.997)" fill="#fff" stroke="#000" stroke-linecap="round" stroke-linejoin="round" stroke-width="1"></path><path id="Path_7087" data-name="Path 7087" d="M2361.936,1536.856s-6.534,9.974-22.219,14.928a33.665,33.665,0,0,1-9.7-12.853s-.321-.241-.78,1.319-5.364,6.192-6.741,5.5,1.812,22.127,1.812,22.127,7.085-17.336,15.408-16.1c0,0,6.878-.9,9.355,8.8s2.063,9.906,2.063,9.906l19.949-22.358a14.827,14.827,0,0,1-2.957-3.371C2366.407,1542.291,2363.381,1535.962,2361.936,1536.856Z" transform="translate(125.98 100.486)" fill="#fff" stroke="#000" stroke-linecap="round" stroke-linejoin="round" stroke-width="1"></path><path id="Path_7088" data-name="Path 7088" d="M2406.875,1617.619a132.876,132.876,0,0,0-22.149-6.58c-2.8-.608-5.136-1.093-7.094-1.449-7.788-1.411-9.612-.858-10.38,1.449,0,0,4.335,2.063,5.159,5.915.724,3.375.768,10.372-1.374,15.478-.3.722-3.063.759-3.453,1.083,0,0,6.819,5.526,10.113,7.311q.387.206.7.341" transform="translate(147.493 134.855)" fill="none" stroke="#000" stroke-linecap="round" stroke-linejoin="round" stroke-width="1"></path><path id="Path_7089" data-name="Path 7089" d="M2370.745,1576.648s4.15,33.514,6,48.434" transform="translate(149.16 119.509)" fill="#fff" stroke="#000" stroke-linecap="round" stroke-linejoin="round" stroke-width="1"></path><g id="Group_581" data-name="Group 581" transform="translate(2060.956 1637.065)"><g id="Group_578" data-name="Group 578" transform="translate(154.836 99.005)"><rect id="Rectangle_150" data-name="Rectangle 150" width="78.33" height="8.182" fill="#fff"></rect><rect id="Rectangle_151" data-name="Rectangle 151" width="78.33" height="8.182" fill="none" stroke="#000" stroke-linecap="round" stroke-miterlimit="10" stroke-width="1"></rect></g><g id="Group_579" data-name="Group 579"><path id="Path_7090" data-name="Path 7090" d="M2242.467,1643.828,2201.7,1537.3l-137.054-.658-4.625,5.086,177.729,102.1Z" transform="translate(-2060.018 -1536.641)" fill="#fff"></path><path id="Path_7091" data-name="Path 7091" d="M2242.467,1643.828,2201.7,1537.3l-137.054-.658-4.625,5.086,177.729,102.1Z" transform="translate(-2060.018 -1536.641)" fill="none" stroke="#000" stroke-linecap="round" stroke-miterlimit="10" stroke-width="1"></path></g><g id="Group_580" data-name="Group 580" transform="translate(0 5.086)"><path id="Path_7092" data-name="Path 7092" d="M2060.018,1540.084h139.246l38.483,102.1H2098.5Z" transform="translate(-2060.018 -1540.084)" fill="#fff"></path><path id="Path_7093" data-name="Path 7093" d="M2060.018,1540.084h139.246l38.483,102.1H2098.5Z" transform="translate(-2060.018 -1540.084)" fill="none" stroke="#000" stroke-linecap="round" stroke-miterlimit="10" stroke-width="1"></path></g></g><g id="Group_582" data-name="Group 582" transform="translate(2135.833 1686.307)"><ellipse id="Ellipse_10" data-name="Ellipse 10" cx="9.598" cy="5.542" rx="9.598" ry="5.542" fill="#0502ab"></ellipse><ellipse id="Ellipse_11" data-name="Ellipse 11" cx="9.598" cy="5.542" rx="9.598" ry="5.542" fill="none" stroke="#000" stroke-miterlimit="10" stroke-width="1"></ellipse></g><path id="Path_7094" data-name="Path 7094" d="M2205.3,1614.295v224.768q-4.918-1.418-9.908-2.95V1614.295Z" transform="translate(65.515 137.467)" fill="#0b065a"></path><g id="Group_583" data-name="Group 583" transform="translate(2328.188 1648.279)"><path id="Path_7095" data-name="Path 7095" d="M2240.945,1578.7s11.221-13.414,34.812-18.987a177.964,177.964,0,0,0,41.339-15.478l32.6,67.277-27.034,54.743-26.208,12.946s-37.968-56.846-41.272-64.021S2240.945,1578.7,2240.945,1578.7Z" transform="translate(-2240.945 -1544.233)" fill="#fcaa23"></path><path id="Path_7096" data-name="Path 7096" d="M2240.945,1578.7s11.221-13.414,34.812-18.987a177.964,177.964,0,0,0,41.339-15.478l32.6,67.277-27.034,54.743-26.208,12.946s-37.968-56.846-41.272-64.021S2240.945,1578.7,2240.945,1578.7Z" transform="translate(-2240.945 -1544.233)" fill="none" stroke="#000" stroke-linecap="round" stroke-miterlimit="10" stroke-width="1"></path></g><g id="Group_588" data-name="Group 588" transform="translate(2337.748 1718.615)"><g id="Group_584" data-name="Group 584"><path id="Path_7097" data-name="Path 7097" d="M2247.551,1597.44s-1.05,4.844,2.744,4.926c0,0-.943,1.292,0,4.091s2.665,2.854,2.665,2.854-1.022,2.26.323,3.66,1.83.969,1.83.969-.484,2.746,1.024,2.961,8.5-2.585,9.366-4.792,0-2.854,0-2.854a21.343,21.343,0,0,0,3.77-4.845c1.077-2.261-1.185-4.144-2.423-3.607,0,0,1.507-1.4,1.183-2.422a3.162,3.162,0,0,0-4.091-1.777s1.292-4.145-1.453-4.684-9.474,2.261-9.474,2.261l-.916-1.722S2248.6,1594.56,2247.551,1597.44Z" transform="translate(-2247.418 -1591.854)" fill="#fff"></path><path id="Path_7098" data-name="Path 7098" d="M2247.551,1597.44s-1.05,4.844,2.744,4.926c0,0-.943,1.292,0,4.091s2.665,2.854,2.665,2.854-1.022,2.26.323,3.66,1.83.969,1.83.969-.484,2.746,1.024,2.961,8.5-2.585,9.366-4.792,0-2.854,0-2.854a21.343,21.343,0,0,0,3.77-4.845c1.077-2.261-1.185-4.144-2.423-3.607,0,0,1.507-1.4,1.183-2.422a3.162,3.162,0,0,0-4.091-1.777s1.292-4.145-1.453-4.684-9.474,2.261-9.474,2.261l-.916-1.722S2248.6,1594.56,2247.551,1597.44Z" transform="translate(-2247.418 -1591.854)" fill="none" stroke="#000" stroke-linecap="round" stroke-linejoin="round" stroke-width="1"></path></g><g id="Group_585" data-name="Group 585" transform="translate(2.878 4.752)"><path id="Path_7099" data-name="Path 7099" d="M2249.366,1600.831a30.625,30.625,0,0,0,8.19-2.625,29.445,29.445,0,0,0,5.456-3.136" transform="translate(-2249.366 -1595.071)" fill="#fff"></path><path id="Path_7100" data-name="Path 7100" d="M2249.366,1600.831a30.625,30.625,0,0,0,8.19-2.625,29.445,29.445,0,0,0,5.456-3.136" transform="translate(-2249.366 -1595.071)" fill="none" stroke="#000" stroke-linecap="round" stroke-linejoin="round" stroke-width="1"></path></g><g id="Group_586" data-name="Group 586" transform="translate(5.542 8.951)"><path id="Path_7101" data-name="Path 7101" d="M2251.17,1606.42s3.957-1.574,7.591-3.512a25.184,25.184,0,0,0,6.3-4.994" transform="translate(-2251.17 -1597.914)" fill="#fff"></path><path id="Path_7102" data-name="Path 7102" d="M2251.17,1606.42s3.957-1.574,7.591-3.512a25.184,25.184,0,0,0,6.3-4.994" transform="translate(-2251.17 -1597.914)" fill="none" stroke="#000" stroke-linecap="round" stroke-linejoin="round" stroke-width="1"></path></g><g id="Group_587" data-name="Group 587" transform="translate(7.696 17.403)"><path id="Path_7103" data-name="Path 7103" d="M2252.628,1608.32a48.385,48.385,0,0,0,6.326-2.449c2.1-1.131,4.063-2.235,4.063-2.235" transform="translate(-2252.628 -1603.636)" fill="#fff"></path><path id="Path_7104" data-name="Path 7104" d="M2252.628,1608.32a48.385,48.385,0,0,0,6.326-2.449c2.1-1.131,4.063-2.235,4.063-2.235" transform="translate(-2252.628 -1603.636)" fill="none" stroke="#000" stroke-linecap="round" stroke-linejoin="round" stroke-width="1"></path></g></g><path id="Path_7105" data-name="Path 7105" d="M2273.255,1571.575s15.342-7.155,42.616-8.53,38.567-3.026,38.567-3.026l16.776,55.674s11.554,36.778,20.635,50.261c0,0-35.5,3.576-45.4,9.079s-43.475,1.1-43.475,1.1S2287.013,1605.419,2273.255,1571.575Z" transform="translate(102.655 111.576)" fill="#fff" stroke="#000" stroke-linecap="round" stroke-linejoin="round" stroke-width="1"></path><path id="Path_7106" data-name="Path 7106" d="M2276.248,1573.348s15.34-7.155,42.615-8.53,38.566-3.026,38.566-3.026l16.776,55.675s11.555,36.778,20.635,50.26c0,0-35.5,3.577-45.4,9.081s-43.476,1.1-43.476,1.1S2290,1607.193,2276.248,1573.348Z" transform="translate(104.083 112.422)" fill="#fff" stroke="#000" stroke-linecap="round" stroke-linejoin="round" stroke-width="1"></path><path id="Path_7107" data-name="Path 7107" d="M2323.933,1608.82s.305,3.25,3.728,7.583,36,13.2,36,13.2l-3.85-8.863Z" transform="translate(126.83 134.855)" fill="#fcaa23"></path><path id="Path_7108" data-name="Path 7108" d="M2388.85,1615.479c11.771,10.466,1.269,15.746.408,22.488-7.614-3.192-17.781-7.116-21.839-7.666-10.183-1.374-21.28-4.839-23-5.663s-13-3.784-13.619-4.954.687-2.063.687-2.063-4.335-1.443-5.708-3.715.09-3.14.09-3.14-4.4-2.568-4.035-4.311,3.576-1.467,3.576-1.467c-.455-.736.276-2.569,4.954-2.479s24.489,4.038,24.489,4.038l-2.382-7.062c3.3.366,14.03,7.887,15.684,10.454C2369.743,1612.416,2387.546,1615.272,2388.85,1615.479Z" transform="translate(125.818 130.403)" fill="#fff" stroke="#000" stroke-linecap="round" stroke-linejoin="round" stroke-width="1"></path><path id="Path_7109" data-name="Path 7109" d="M2372.654,1632.75c-.753.836-1.458,1.679-2.49,1.23q-1.274-.558-2.57-1.114l-.01-.006c.39-.323,3.15-.36,3.453-1.083,2.142-5.106,2.1-12.1,1.374-15.478-.824-3.852-5.159-5.915-5.159-5.915s4.149-1.17,6.192,2.2C2375.857,1616.568,2376.764,1628.169,2372.654,1632.75Z" transform="translate(147.493 135.508)" fill="none" stroke="#000" stroke-linecap="round" stroke-linejoin="round" stroke-width="1"></path><path id="Path_7110" data-name="Path 7110" d="M2324.248,1603.211s6.49,2.246,8.83,2.865,13.207,3.3,13.207,3.3" transform="translate(126.98 132.18)" fill="#fff" stroke="#000" stroke-linecap="round" stroke-linejoin="round" stroke-width="1"></path><path id="Path_7111" data-name="Path 7111" d="M2324.559,1607.123s4.793,1.56,10.159,3.347,9.493,2.821,9.493,2.821" transform="translate(127.128 134.046)" fill="#fff" stroke="#000" stroke-linecap="round" stroke-linejoin="round" stroke-width="1"></path><line id="Line_3" data-name="Line 3" x2="11.778" y2="3.234" transform="translate(2457.306 1748.023)" fill="none" stroke="#000" stroke-linecap="round" stroke-linejoin="round" stroke-width="1"></line><ellipse id="Ellipse_12" data-name="Ellipse 12" cx="1.758" cy="2.638" rx="1.758" ry="2.638" transform="matrix(0.992, -0.125, 0.125, 0.992, 2432.294, 1579.52)"></ellipse><ellipse id="Ellipse_13" data-name="Ellipse 13" cx="2.638" cy="1.758" rx="2.638" ry="1.758" transform="translate(2460.027 1584.373) rotate(-85.435)"></ellipse><g id="Group_589" data-name="Group 589" transform="translate(2441.009 1581.333)"><path id="Path_7112" data-name="Path 7112" d="M2319.267,1498.908s-.929,8.353-1.722,12.831.322,5.276,8.048,4.3" transform="translate(-2317.329 -1498.908)" fill="#fff"></path><path id="Path_7113" data-name="Path 7113" d="M2319.267,1498.908s-.929,8.353-1.722,12.831.322,5.276,8.048,4.3" transform="translate(-2317.329 -1498.908)" fill="none" stroke="#000" stroke-linecap="round" stroke-linejoin="round" stroke-width="1"></path></g><path id="Path_7114" data-name="Path 7114" d="M2317.606,1519.82s7.431,3.548,17.714-3.375" transform="translate(123.811 90.791)" fill="#fff" stroke="#000" stroke-linecap="round" stroke-linejoin="round" stroke-width="1"></path><g id="Group_590" data-name="Group 590" transform="translate(2427.95 1568.259)"><path id="Path_7115" data-name="Path 7115" d="M2308.488,1494.9s3.434-8.109,11.525-3.349" transform="translate(-2308.488 -1490.056)" fill="#fff"></path><path id="Path_7116" data-name="Path 7116" d="M2308.488,1494.9s3.434-8.109,11.525-3.349" transform="translate(-2308.488 -1490.056)" fill="none" stroke="#000" stroke-linecap="round" stroke-linejoin="round" stroke-width="1"></path></g><g id="Group_591" data-name="Group 591" transform="translate(2456 1569.391)"><path id="Path_7117" data-name="Path 7117" d="M2327.479,1492.724s9.8-5.5,15.847,2.21" transform="translate(-2327.479 -1490.822)" fill="#fff"></path><path id="Path_7118" data-name="Path 7118" d="M2327.479,1492.724s9.8-5.5,15.847,2.21" transform="translate(-2327.479 -1490.822)" fill="none" stroke="#000" stroke-linecap="round" stroke-linejoin="round" stroke-width="1"></path></g><path id="Path_7119" data-name="Path 7119" d="M2356.68,1496.356s1.856-4.171,4.952-2.947,3.577,5.392,2.82,8.228" transform="translate(142.45 79.695)" fill="none" stroke="#000" stroke-linecap="round" stroke-linejoin="round" stroke-width="1"></path><g id="Group_592" data-name="Group 592" transform="translate(2486.422 1590.668)"><circle id="Ellipse_14" data-name="Ellipse 14" cx="10.644" cy="10.644" r="10.644" fill="#feeed3"></circle><circle id="Ellipse_15" data-name="Ellipse 15" cx="10.644" cy="10.644" r="10.644" fill="none" stroke="#000" stroke-miterlimit="10" stroke-width="1"></circle></g><path id="Path_7120" data-name="Path 7120" d="M2232.7,1570.456s11.7-10.318,31.437-16.3" transform="translate(83.311 108.779)" fill="none" stroke="#000" stroke-linecap="round" stroke-linejoin="round" stroke-width="1"></path><path id="Path_7121" data-name="Path 7121" d="M2227.625,1565.9a27.121,27.121,0,0,1,8.667-11.419" transform="translate(80.889 108.934)" fill="none" stroke="#000" stroke-linecap="round" stroke-linejoin="round" stroke-width="1"></path><path id="Path_7122" data-name="Path 7122" d="M2375.83,1524.722s13.331,5.109,16.015,19.956" transform="translate(151.585 94.739)" fill="none" stroke="#000" stroke-linecap="round" stroke-miterlimit="10" stroke-width="1"></path><path id="Path_7123" data-name="Path 7123" d="M2390.1,1634.04v36.989s.418,13.414-8.456,17.129" transform="translate(154.358 146.886)" fill="none" stroke="#000" stroke-linecap="round" stroke-miterlimit="10" stroke-width="1"></path><g id="Group_593" data-name="Group 593" transform="translate(2058.052 1743.674)"><path id="Path_7124" data-name="Path 7124" d="M2335.48,1608.819V1625H2058.059q-.064-7.912.469-16.176Z" transform="translate(-2058.052 -1608.819)" fill="#feeed3"></path><path id="Path_7125" data-name="Path 7125" d="M2335.48,1608.819V1625H2058.059q-.064-7.912.469-16.176Z" transform="translate(-2058.052 -1608.819)" fill="none" stroke="#000" stroke-miterlimit="10" stroke-width="1"></path></g><path id="Path_7126" data-name="Path 7126" d="M2372.057,1610.6s5.308,1.947,5.48,7.706c.07,2.316-.55,9.149-3.784,9.355-6.8.433-20.132-2.937-20.132-2.937a136.176,136.176,0,0,1,17.29,5.917c8.85,3.76,6.421,2.706,6.421,2.706s3.806-.917,4.081-9.86-1.914-12.714-5.527-12.887A18.6,18.6,0,0,1,2372.057,1610.6Z" transform="translate(140.991 135.704)" fill="#fcaa23"></path><path id="Path_7127" data-name="Path 7127" d="M2387.664,1633.65a101.715,101.715,0,0,1-1.592,11.385c-2.3,11.694-4.932,14.307-6.1,14.927s-7.19.585-8.979,0-6.326-.653-7.943-.861-16.695-.629-16.695-.629a59.744,59.744,0,0,0,17.25-9.156c5.217-4.075,11.818-7.984,11.248-24.087.873.366,1.5.623,2.366.993C2377.219,1626.221,2384.44,1631.9,2387.664,1633.65Z" transform="translate(137.525 142.682)" fill="#fcaa23"></path><path id="Path_7128" data-name="Path 7128" d="M2377.9,1624.317c-9.975-2.453-10.838,1.524-10.914,1.216,1.824-21.5,2.966-41.525,3.188-43.084a18.967,18.967,0,0,1,1.65-5.505s3.71,27.081,5.458,42.65C2377.466,1621.223,2377.732,1622.6,2377.9,1624.317Z" transform="translate(147.368 119.649)" fill="#fcaa23"></path><path id="Path_7129" data-name="Path 7129" d="M2353.635,1478.545s-5.8-11.421-23.827-6.743-22.151,14.584-23.94,23.665" transform="translate(118.212 68.959)" fill="none" stroke="#fff" stroke-linecap="round" stroke-miterlimit="10" stroke-width="1"></path><path id="Path_7130" data-name="Path 7130" d="M2345.253,1476.691s-3.21-10.937-16-9.837" transform="translate(129.365 67.098)" fill="none" stroke="#fff" stroke-linecap="round" stroke-miterlimit="10" stroke-width="1"></path><path id="Path_7131" data-name="Path 7131" d="M2350.83,1472.464s9.534.137,14.349,13.621" transform="translate(139.66 69.811)" fill="none" stroke="#fff" stroke-linecap="round" stroke-miterlimit="10" stroke-width="1"></path><path id="Path_7132" data-name="Path 7132" d="M2361.337,1483.316a23.111,23.111,0,0,1,1.209,6.534" transform="translate(144.672 74.988)" fill="none" stroke="#fff" stroke-linecap="round" stroke-miterlimit="10" stroke-width="1"></path><path id="Path_7133" data-name="Path 7133" d="M2337.468,1463.276s-8.846-2.576-16.138,2.289" transform="translate(125.588 65.103)" fill="none" stroke="#fff" stroke-linecap="round" stroke-miterlimit="10" stroke-width="1"></path><g id="Group_602" data-name="Group 602" transform="translate(2598.942 1674.833)"><path id="Path_7134" data-name="Path 7134" d="M2526.869,1582.225a122.22,122.22,0,0,1,3.415,26.923,186.081,186.081,0,0,1-.912,26.047c-1.314,17.222-8.425,33.271-13.023,49.829q-6.864,24.845-14.433,49.544c-5.3,16.416-10.192,32.914-15.846,49.257l-2.822-.572c1.144-17.256,3.054-34.357,4.554-51.542q2.63-25.7,5.967-51.257c2.2-17.042,1.889-34.593,7.376-50.97a186.1,186.1,0,0,1,9.287-24.353,122.2,122.2,0,0,1,13.615-23.477Z" transform="translate(-2396.116 -1552.937)" fill="#fff"></path><path id="Path_7135" data-name="Path 7135" d="M2429.654,1671.064a33.867,33.867,0,0,1,10.955,2.811,39.812,39.812,0,0,1,8.653,4.929c5.408,3.617,7.688,10.113,11.34,15.345s7.186,10.574,10.59,16.034c3.27,5.585,6.757,10.968,9.838,16.726l-1.5,1.382c-5.481-3.549-10.556-7.472-15.85-11.2q-7.737-5.769-15.1-11.887c-4.908-4.075-11.193-6.888-14.346-12.578a39.778,39.778,0,0,1-4.193-9.031,33.9,33.9,0,0,1-1.888-11.152Z" transform="translate(-2422.397 -1510.286)" fill="#fff"></path><path id="Path_7136" data-name="Path 7136" d="M2549.519,1644.629a51.783,51.783,0,0,1,.353,16.764,63.191,63.191,0,0,1-3.471,14.554c-2.908,9.36-11.011,15.721-16.833,23.4s-11.846,15.238-18.082,22.678c-6.459,7.31-12.558,14.829-19.33,21.959l-2.493-1.44c2.789-9.431,6.25-18.47,9.351-27.719q4.988-13.679,10.6-27c3.737-8.881,5.195-19.079,11.846-26.277a63.251,63.251,0,0,1,10.87-10.283,51.811,51.811,0,0,1,14.695-8.076Z" transform="translate(-2393.056 -1523.583)" fill="#fff"></path><path id="Path_7137" data-name="Path 7137" d="M2564.042,1680.37a35.9,35.9,0,0,1-4.772,11.206,41.086,41.086,0,0,1-6.657,8.288c-4.729,5.069-12.014,6.175-18.178,9.021s-12.426,5.54-18.792,8.07c-6.477,2.36-12.776,5-19.405,7.118l-1.228-1.9c4.669-5.162,9.672-9.81,14.5-14.733q7.4-7.13,15.11-13.782c5.137-4.438,9.153-10.617,15.724-12.831a41.076,41.076,0,0,1,10.3-2.639,35.894,35.894,0,0,1,12.177.282Z" transform="translate(-2390.505 -1507.075)" fill="#fff"></path><path id="Path_7138" data-name="Path 7138" d="M2477.178,1562.211c8.793,19.743,12.723,39.693,15.515,59.693,2.966,19.992.083,40.233-.312,60.367q-.515,30.2-1.749,60.429c-1.083,20.163-1.748,40.309-3.189,60.49l-2.877.123c-3.153-19.984-5.529-40-8.322-60q-3.8-30.016-6.882-60.061c-2.1-20.028-6.7-39.95-5.444-60.122,1.081-20.165,3.3-40.377,10.382-60.8Z" transform="translate(-2405.438 -1562.211)" fill="#fff"></path><path id="Path_7139" data-name="Path 7139" d="M2441.25,1614.363a76.86,76.86,0,0,1,14.172,15.625,107.278,107.278,0,0,1,9.967,16.982c5.963,11.542,6.293,24.9,9.065,37.472q4.191,18.847,7.694,37.915c2.092,12.791,4.579,25.455,6.324,38.357l-2.741.885c-6.124-11.49-11.506-23.219-17.287-34.819q-8.3-17.52-15.917-35.262c-5.1-11.82-12.637-22.854-14.545-35.7a107.514,107.514,0,0,1-1.837-19.6,76.918,76.918,0,0,1,2.366-20.962Z" transform="translate(-2418.588 -1537.334)" fill="#fff"></path><g id="Group_594" data-name="Group 594" transform="translate(80.657 30.514)"><path id="Path_7140" data-name="Path 7140" d="M2522.486,1583.441a122.264,122.264,0,0,1,3.416,26.923,186.258,186.258,0,0,1-.912,26.049c-1.313,17.222-8.427,33.27-13.025,49.829q-6.861,24.842-14.433,49.542c-5.3,16.416-10.191,32.914-15.845,49.257l-2.823-.572c1.145-17.256,3.054-34.357,4.554-51.542q2.629-25.7,5.967-51.257c2.2-17.042,1.889-34.593,7.376-50.97a186.28,186.28,0,0,1,9.288-24.353,122.3,122.3,0,0,1,13.615-23.477Z" transform="translate(-2478.864 -1582.87)" fill="none" stroke="#000" stroke-linecap="round" stroke-miterlimit="10" stroke-width="1"></path></g><g id="Group_595" data-name="Group 595" transform="translate(0 162.577)"><path id="Path_7141" data-name="Path 7141" d="M2425.758,1672.282a33.872,33.872,0,0,1,10.957,2.809,39.744,39.744,0,0,1,8.651,4.93c5.409,3.616,7.688,10.112,11.342,15.343s7.185,10.574,10.589,16.034c3.27,5.585,6.757,10.97,9.838,16.727l-1.5,1.383c-5.483-3.549-10.556-7.472-15.85-11.2q-7.739-5.771-15.1-11.887c-4.908-4.077-11.193-6.887-14.346-12.578a39.805,39.805,0,0,1-4.193-9.032,33.874,33.874,0,0,1-1.887-11.151Z" transform="translate(-2424.256 -1672.282)" fill="none" stroke="#000" stroke-linecap="round" stroke-miterlimit="10" stroke-width="1"></path></g><g id="Group_596" data-name="Group 596" transform="translate(85.098 122.123)"><path id="Path_7142" data-name="Path 7142" d="M2541.729,1646.334a51.821,51.821,0,0,1,.353,16.763,63.341,63.341,0,0,1-3.471,14.555c-2.91,9.36-11.012,15.721-16.835,23.4s-11.845,15.24-18.08,22.678c-6.46,7.31-12.557,14.829-19.33,21.959l-2.494-1.44c2.788-9.429,6.252-18.47,9.352-27.718q4.987-13.681,10.6-27c3.737-8.881,5.195-19.08,11.844-26.279a63.332,63.332,0,0,1,10.871-10.283,51.8,51.8,0,0,1,14.7-8.076Z" transform="translate(-2481.871 -1644.893)" fill="none" stroke="#000" stroke-linecap="round" stroke-miterlimit="10" stroke-width="1"></path></g><g id="Group_597" data-name="Group 597" transform="translate(94.795 172.52)"><path id="Path_7143" data-name="Path 7143" d="M2557.469,1681.587a35.869,35.869,0,0,1-4.774,11.207,40.987,40.987,0,0,1-6.655,8.286c-4.729,5.071-12.014,6.176-18.178,9.023s-12.426,5.539-18.792,8.069c-6.477,2.36-12.776,5-19.4,7.119l-1.229-1.9c4.67-5.164,9.673-9.81,14.5-14.735q7.4-7.13,15.11-13.782c5.137-4.437,9.153-10.617,15.724-12.829a41,41,0,0,1,10.295-2.64,35.9,35.9,0,0,1,12.178.281Z" transform="translate(-2488.436 -1679.014)" fill="none" stroke="#000" stroke-linecap="round" stroke-miterlimit="10" stroke-width="1"></path></g><g id="Group_598" data-name="Group 598" transform="translate(51.793 1.797)"><path id="Path_7144" data-name="Path 7144" d="M2472.8,1563.428c8.794,19.743,12.723,39.695,15.515,59.694,2.966,19.991.083,40.233-.31,60.367q-.514,30.2-1.75,60.429c-1.083,20.164-1.746,40.311-3.189,60.49l-2.877.122c-3.154-19.984-5.529-40-8.322-60q-3.8-30.016-6.881-60.061c-2.1-20.028-6.7-39.951-5.444-60.122,1.081-20.164,3.3-40.377,10.383-60.8Z" transform="translate(-2459.323 -1563.428)" fill="none" stroke="#000" stroke-linecap="round" stroke-miterlimit="10" stroke-width="1"></path></g><g id="Group_599" data-name="Group 599" transform="translate(11.796 78.827)"><path id="Path_7145" data-name="Path 7145" d="M2437.355,1615.58a76.894,76.894,0,0,1,14.17,15.627,107.391,107.391,0,0,1,9.969,16.981c5.961,11.543,6.292,24.9,9.064,37.473q4.189,18.846,7.694,37.914c2.09,12.792,4.577,25.455,6.323,38.357l-2.741.885c-6.123-11.49-11.506-23.219-17.286-34.819q-8.3-17.52-15.916-35.261c-5.1-11.821-12.639-22.854-14.547-35.7a107.506,107.506,0,0,1-1.838-19.606,76.92,76.92,0,0,1,2.366-20.962Z" transform="translate(-2432.242 -1615.58)" fill="none" stroke="#000" stroke-linecap="round" stroke-miterlimit="10" stroke-width="1"></path></g><g id="Group_600" data-name="Group 600" transform="translate(26.439 213.66)"><rect id="Rectangle_152" data-name="Rectangle 152" width="102.873" height="25.6" fill="#fcaa23"></rect><rect id="Rectangle_153" data-name="Rectangle 153" width="102.873" height="25.6" fill="none" stroke="#000" stroke-linecap="round" stroke-miterlimit="10" stroke-width="1"></rect></g><g id="Group_601" data-name="Group 601" transform="translate(34.439 239.26)"><path id="Path_7146" data-name="Path 7146" d="M2534.446,1724.2v36.447c-25.069,11.559-53.775,21.089-86.874,28.561V1724.2Z" transform="translate(-2447.573 -1724.2)" fill="#fcaa23"></path><path id="Path_7147" data-name="Path 7147" d="M2534.446,1724.2v36.447c-25.069,11.559-53.775,21.089-86.874,28.561V1724.2Z" transform="translate(-2447.573 -1724.2)" fill="none" stroke="#000" stroke-linecap="round" stroke-miterlimit="10" stroke-width="1"></path></g></g><path id="Path_7148" data-name="Path 7148" d="M2244.33,1586.543l-2.975-7.886s7.233-9.759,24.288-15.566a58.99,58.99,0,0,1,8.007-2.567c3.821-.857,20.018-5.136,25.572-7.946,0,0,15.77-6.155,17.4-7.826l1.3,2.731s-23.823,15.99-33.458,18.175c-24.981,5.664-37.654,27.2-37.654,27.2Z" transform="translate(87.438 104.294)" fill="#fff"></path><line id="Line_4" data-name="Line 4" x2="74.538" transform="translate(2077.642 1633.398)" fill="#fff" stroke="#000" stroke-linecap="round" stroke-miterlimit="10" stroke-width="1"></line><line id="Line_5" data-name="Line 5" x2="25.673" transform="translate(2158.574 1633.398)" fill="#fff" stroke="#000" stroke-linecap="round" stroke-miterlimit="10" stroke-width="1"></line><path id="Path_7149" data-name="Path 7149" d="M2301.709,1660.828s50.349-5.685,74.88,12.1" transform="translate(116.228 159.252)" fill="none" stroke="#fff" stroke-linecap="round" stroke-miterlimit="10" stroke-width="1"></path><path id="Path_7151" data-name="Path 7151" d="M2153.886,1534.157h6.185l7.367,20.689" transform="translate(45.715 99.24)" fill="none" stroke="#000" stroke-linecap="round" stroke-miterlimit="10" stroke-width="1"></path><g id="Group_603" data-name="Group 603" transform="translate(2281.505 1705.931)"><path id="Path_7152" data-name="Path 7152" d="M2209.339,1583.266h34.507l-5.651,37.743h-22.58Z" transform="translate(-2209.339 -1583.266)" fill="#fff"></path><path id="Path_7153" data-name="Path 7153" d="M2209.339,1583.266h34.507l-5.651,37.743h-22.58Z" transform="translate(-2209.339 -1583.266)" fill="none" stroke="#000" stroke-linecap="round" stroke-miterlimit="10" stroke-width="1"></path></g><path id="Path_7154" data-name="Path 7154" d="M2207.461,1581.48h40.384l-1.728,9.368h-37.382Z" transform="translate(71.27 121.814)" fill="#fff" stroke="#000" stroke-linecap="round" stroke-miterlimit="10" stroke-width="1"></path><path id="Path_7155" data-name="Path 7155" d="M2171.19,1524.149c4.931,1.13,9.8,2.511,14.643,3.984,4.833,1.5,9.635,3.12,14.37,4.926q7.116,2.676,14,5.96c2.292,1.093,4.548,2.273,6.772,3.51s4.408,2.56,6.532,3.983a59.66,59.66,0,0,1,6.092,4.688,32.85,32.85,0,0,1,5.224,5.743c.377.535.717,1.1,1.049,1.665l.913,1.7c.285.577.555,1.162.833,1.743s.5,1.185.754,1.775a45.46,45.46,0,0,1,2.24,7.357,57.33,57.33,0,0,1,1.166,15.221,67.753,67.753,0,0,1-.825,7.57,55.021,55.021,0,0,1-1.727,7.394c.3-1.227.526-2.471.727-3.716s.372-2.493.51-3.746.239-2.506.321-3.76.123-2.511.119-3.766a62.317,62.317,0,0,0-.362-7.506,55.915,55.915,0,0,0-1.285-7.375,48.959,48.959,0,0,0-2.331-7.078c-.254-.566-.487-1.142-.756-1.7s-.545-1.114-.829-1.663l-.9-1.623c-.32-.519-.638-1.031-1-1.523a28.505,28.505,0,0,0-2.33-2.834q-1.268-1.343-2.665-2.572a58.249,58.249,0,0,0-5.936-4.518,111.252,111.252,0,0,0-13.045-7.456c-4.5-2.245-9.115-4.257-13.77-6.183-2.329-.962-4.681-1.87-7.033-2.774s-4.725-1.77-7.1-2.615Q2178.429,1526.409,2171.19,1524.149Z" transform="translate(53.969 94.466)" fill="#fff"></path></g></svg>