<svg xmlns="http://www.w3.org/2000/svg" xmlns:xlink="http://www.w3.org/1999/xlink" width="1920" height="1075.747" viewBox="0 0 1920 1075.747"><defs><linearGradient id="linear-gradient" x1="0.991" y1="0.111" x2="-0.013" y2="0.259" gradientUnits="objectBoundingBox"><stop offset="0" stop-color="#fff"></stop><stop offset="0.498" stop-color="#363636"></stop><stop offset="1" stop-color="#fff"></stop></linearGradient></defs><g id="Group_553" data-name="Group 553" transform="translate(8.237 8.073)" opacity="0.06" style="isolation: isolate"><g id="Group_552" data-name="Group 552" transform="translate(-8.237 -8.073)"><path id="Path_164" data-name="Path 164" d="M271,152.568a64.559,64.559,0,0,0,35.17,2.677c10.84-2.266,21.037-7.584,28.312-16.692,4.9-6.126,8.026-13.344,11.053-20.324a108.863,108.863,0,0,1,7.886-15.785c15.556-24.079,46.061-30.648,75.563-37,6.005-1.3,11.957-2.578,17.73-3.991,17.653-4.328,27.287-13.067,37.49-22.319,5.709-5.178,11.613-10.534,19.149-15.149,21.778-13.338,32.611-13.427,58.014-10.289,33.124,4.09,76.377,5.073,107.019-21.768h-5.974c-22.57,17.8-55.1,23.36-100.545,17.746-25.909-3.2-37.85-3.093-60.63,10.856-7.861,4.812-13.911,10.3-19.757,15.6-9.809,8.9-19.076,17.3-35.73,21.387-5.738,1.407-11.651,2.68-17.618,3.962-30.307,6.527-61.646,13.274-78.115,38.763a111.9,111.9,0,0,0-8.2,16.374c-3.058,7.046-5.945,13.7-10.5,19.407-14.1,17.644-40.3,19.773-58.886,12.752-17.781-6.715-33.862-21.291-47.8-43.327C204.8,74.1,193.23,36.552,189.669-8.073H185.6c3.584,45.434,15.359,83.7,35.6,115.688C235.628,130.408,252.381,145.535,271,152.568Z" transform="translate(1251.613 14.604)" fill="#5a5a5a"></path><path id="Path_165" data-name="Path 165" d="M1880.987,118.945c4.4-11.082,11.488-20.478,19.872-29.3V82.269c-10.359,10.284-19.5,21.5-24.823,34.91-11.268,28.408-2.8,58.781,5.391,88.148,7.645,27.409,15.547,55.754,7.08,82.02-12.169,37.745-53.772,58.2-88.568,64.706-27.442,5.146-56.116,4.431-83.849,3.739-11.729-.295-23.852-.6-35.768-.46-73.643.861-137.624,24.1-199.489,46.567-40.362,14.656-82.1,29.811-126.547,38.885-44.151,9.042-83.654,2.367-125.2-4.729-19.162-3.275-38.984-6.66-59.632-8.468-91.6-8.02-154.413,17.463-216.838,87.979-25.9,29.257-51.335,43.123-75.623,41.216-28.326-2.229-56.855-26.143-84.8-71.086-26.736-43.009-73.8-85.876-118.483-65.1-44.736,20.789-36.884,83.671-33.406,102.451.668,3.633,1.382,7.312,2.1,11.016,6.587,33.955,13.4,69.062-5.794,96.22-10.5,14.849-27.807,25.164-44.545,35.142-22.15,13.2-45.052,26.851-51.485,51.072-4.32,16.28.432,32.65,5.03,48.477,3.428,11.8,6.973,24,6.67,35.976-.515,20.254-12.189,38.02-32.875,50.026-29.534,17.141-71.618,19.378-102.335,5.429-43.126-19.59-72.78-57.7-101.455-94.556-6.885-8.85-14.007-18-21.179-26.721-8.226-9.993-75.071-89-124.58-79.189a40.961,40.961,0,0,0-15.9,6.872c-13.555,9.628-16.045,26.871-18.452,43.544-3.98,27.563-7.736,53.6-58.113,48.914-34.693-3.235-66.467-29.961-79.08-66.514C-23.266,626.209,5.736,566.4,33.788,508.564c5.86-12.089,11.924-24.587,17.261-36.668,20.822-47.117,48.758-136.315,1.905-204.382-14.036-20.392-33.539-36.758-52.4-52.582-6.558-5.5-13.219-11.118-19.7-16.913v6.841c5.375,4.706,10.816,9.309,16.19,13.823,18.6,15.6,37.83,31.738,51.476,51.563,45.521,66.133,18.066,153.515-2.353,199.716-5.3,12-11.077,23.91-17.186,36.51C.507,565.187-28.936,625.9-6.707,690.306c13.252,38.409,46.845,66.514,83.592,69.939,55.428,5.158,59.914-25.852,63.865-53.218,2.362-16.374,4.6-31.84,16.385-40.21C194.194,640.484,258.262,699.3,290.278,738.2c7.13,8.665,14.231,17.789,21.1,26.615,29.061,37.348,59.109,75.969,103.426,96.1,32.24,14.648,76.4,12.317,107.377-5.673,22.266-12.926,34.838-32.166,35.4-54.17.324-12.714-3.324-25.278-6.856-37.426-4.619-15.906-8.981-30.932-5-45.93,5.914-22.279,26.923-34.8,49.169-48.057,17.207-10.257,35-20.86,46.122-36.593,20.39-28.848,13.381-64.973,6.6-99.911-.718-3.692-1.428-7.355-2.1-10.976-3.308-17.907-10.895-77.84,30.534-97.092,41.449-19.232,86.015,21.992,111.6,63.149,29.268,47.078,58.353,71.134,88.917,73.536,26.089,2.06,53.041-12.415,80.105-42.989,61.964-69.994,121.488-94.163,212.3-86.21,20.424,1.789,40.13,5.158,59.184,8.413,42.072,7.186,81.77,13.846,127.249,4.7,44.848-9.16,86.779-24.386,127.328-39.109,64.263-23.34,124.97-45.379,197.663-46.233,11.812-.138,23.885.161,35.56.456,28.023.7,57,1.423,85.015-3.829,36.381-6.86,79.748-28.3,92.6-68.158,8.9-27.629.8-56.674-7.031-84.76C1878.19,174.121,1870.309,145.855,1880.987,118.945Z" transform="translate(19.141 205.246)" fill="url(#linear-gradient)"></path><path id="Path_166" data-name="Path 166" d="M25.382,243.085c-15.257,1.254-30.769,2.549-44.523,6.693v4.182c13.373-4.214,28.869-5.519,44.854-6.836,29.034-2.384,59.045-4.857,76.743-26.666,21.912-27.016,10.168-60.226-2.266-95.39C89.771,95.6,79,65.138,89.5,38.4,99.8,12.184,126.844-3.372,170.05-8.073H146.111C114.843-.585,94.561,14.421,85.729,36.915c-11.056,28.149-.029,59.338,10.639,89.5,12.043,34.066,23.42,66.235,2.937,91.485C82.7,238.372,53.564,240.772,25.382,243.085Z" transform="translate(19.141 8.073)" fill="#5a5a5a"></path></g></g></svg>