<svg xmlns="http://www.w3.org/2000/svg" xmlns:xlink="http://www.w3.org/1999/xlink" width="1920.239" height="632.523" viewBox="0 0 1920.239 632.523">
  <defs>
    <linearGradient id="linear-gradient" x1="-0.011" y1="1.247" x2="0.992" y2="0.624" gradientUnits="objectBoundingBox">
      <stop offset="0" stop-color="#fff"/>
      <stop offset="0.519"/>
      <stop offset="1" stop-color="#fff"/>
    </linearGradient>
  </defs>
  <path id="Path_7054" data-name="Path 7054" d="M-19.141,784.922a197.423,197.423,0,0,0,39.653-29.135c3.827-3.665,7.451-7.3,11.025-10.875,11.9-11.925,23.149-23.187,39.616-33.526,1.079-.677,2.175-1.349,3.3-2.013,18.529-10.859,42.106-17.761,64.911-24.432l8.011-2.354c67.845-19.9,152.282-44.659,213.017-80.813,11.4-6.782,21.862-14.677,31.978-22.311,23.689-17.882,46.07-34.742,79.688-38.661,46.668-5.409,87.666,5.67,131.075,17.392,12.98,3.508,26.4,7.131,39.981,10.282,13.781,3.175,24.785,5.342,34.626,6.824,68.149,10.265,121.445-2.495,172.8-41.371,4.483-3.391,9.041-6.625,13.544-9.617,67.385-44.692,86.943-43.634,128.929-15.715,49.233,32.729,86.1,38.848,112.724,18.72,29.633-22.4,35.062-68.248,36.569-100.782l.029-.594c.76-16.412,1.544-33.389,5.155-49.038,4.636-20.111,12.216-34.722,23.842-45.979,14.138-13.681,34.315-21.393,53.828-28.852,4.977-1.9,9.9-3.785,14.661-5.741,11.714-4.819,24.781-10.987,32.854-20.256,8.048-9.236,9.983-17.824,12.228-27.765a114.288,114.288,0,0,1,6.94-22.568,80.011,80.011,0,0,1,9-15.532c25.976-35.133,71.569-66.961,121.632-50.873,33.692,10.825,61.258,33.721,87.919,55.866,16.74,13.9,32.555,27.039,49.594,37.179,26.474,15.752,61.167,34.946,94.747,43.592,17.645,4.574,31.044,5.267,42.073,2.217,12.627-3.5,18.338-11.328,23.859-18.895,9.1-12.469,17.7-24.253,58.435-13.785,59.627,15.325,93.074,67.347,107.71,97a278.963,278.963,0,0,1,14.283,34.825v-7.907a278.541,278.541,0,0,0-11.913-28.089c-14.831-30.052-48.772-82.8-109.424-98.383-42.459-10.921-52,2.154-61.225,14.785-5.255,7.2-10.693,14.648-22.435,17.9-10.618,2.922-23.527,2.229-40.7-2.225-33.257-8.567-67.733-27.645-94.058-43.306-16.861-10.037-32.6-23.108-49.254-36.942-26.856-22.3-54.621-45.365-88.8-56.348-51.387-16.508-98.039,15.948-124.567,51.815a82.3,82.3,0,0,0-9.289,16.039,116.421,116.421,0,0,0-7.106,23.054c-2.163,9.593-4.03,17.873-11.639,26.611-7.712,8.854-20.439,14.848-31.87,19.546-4.736,1.947-9.638,3.819-14.6,5.716-19.758,7.554-40.193,15.362-54.72,29.421-12.013,11.626-19.824,26.652-24.581,47.286-3.661,15.881-4.454,32.978-5.222,49.511l-.025.589c-1.482,32.007-6.778,77.069-35.523,98.8-25.607,19.372-61.491,13.212-109.665-18.812-44.925-29.87-67.1-27.225-131.855,15.715-4.549,3.018-9.153,6.284-13.681,9.709-50.74,38.416-103.414,51.014-170.807,40.865-9.775-1.469-20.713-3.628-34.427-6.787-13.528-3.134-26.926-6.753-39.881-10.257-43.663-11.793-84.9-22.929-132.071-17.467-34.369,3.989-57,21.078-80.979,39.18-10.057,7.592-20.46,15.437-31.733,22.149C298.6,635.483,214.339,660.2,146.635,680.051l-8.011,2.354c-22.954,6.716-46.7,13.664-65.5,24.689-1.15.672-2.275,1.361-3.375,2.055-16.72,10.5-28.064,21.862-40.076,33.9-3.565,3.566-7.168,7.181-10.983,10.834a194.156,194.156,0,0,1-37.826,28Z" transform="translate(19.141 -152.398)" opacity="0.06" fill="url(#linear-gradient)"/>
</svg>
