<svg xmlns="http://www.w3.org/2000/svg" width="24.998" height="25" viewBox="0 0 24.998 25">
  <g id="pie-chart" transform="translate(-0.016)">
    <path id="Path_7051" data-name="Path 7051" d="M168.158,87.106h-.732V97.245l-6.012,8.15.589.435a10.374,10.374,0,1,0,6.155-18.724Z" transform="translate(-153.518 -82.853)" fill="#fff"/>
    <path id="Path_7052" data-name="Path 7052" d="M3.007,118.691a13.892,13.892,0,0,0-1.666,2.25,10.373,10.373,0,0,0,1.005,11.627A13.191,13.191,0,0,0,4.821,134.8l6.558-8.89Z" transform="translate(0 -112.896)" fill="#fff"/>
    <path id="Path_7053" data-name="Path 7053" d="M88.318,0a10.093,10.093,0,0,0-4.332.785,10.105,10.105,0,0,0-3.424,2.77l7.755,6.689Z" transform="translate(-76.614)" fill="#fff"/>
  </g>
</svg>
