<svg xmlns="http://www.w3.org/2000/svg" width="18.956" height="25" viewBox="0 0 18.956 25">
  <g id="worker" transform="translate(0 0)">
    <path id="Path_7062" data-name="Path 7062" d="M161.646,342.254,159.98,343.5l.546,1.637h2.241l.546-1.637Zm0,0" transform="translate(-152.168 -325.543)" fill="#fff"/>
    <path id="Path_7063" data-name="Path 7063" d="M159.894,435.245l-.8-3.94h-2.1l-.8,3.94Zm0,0" transform="translate(-148.565 -410.245)" fill="#fff"/>
    <path id="Path_7064" data-name="Path 7064" d="M7.073,312.7l-.5-1.49-3.037,2.272v-6.149A4.617,4.617,0,0,0,0,311.815v5.51H6.132Zm0,0" transform="translate(0 -292.326)" fill="#fff"/>
    <path id="Path_7065" data-name="Path 7065" d="M246.9,307.332v6.149l-3.037-2.272-.5,1.49.941,4.626h6.132v-5.51a4.617,4.617,0,0,0-3.539-4.483Zm0,0" transform="translate(-231.48 -292.326)" fill="#fff"/>
    <path id="Path_7066" data-name="Path 7066" d="M102.477,307.328v3.224l2.6-1.944A7.327,7.327,0,0,1,102.477,307.328Zm0,0" transform="translate(-97.473 -292.322)" fill="#fff"/>
    <path id="Path_7067" data-name="Path 7067" d="M235.129,307.328a7.327,7.327,0,0,1-2.6,1.28l2.6,1.944Zm0,0" transform="translate(-221.177 -292.322)" fill="#fff"/>
    <path id="Path_7068" data-name="Path 7068" d="M84.073,3.714l.554-.641.554.641a5.749,5.749,0,0,0,2.8,1.782,5.884,5.884,0,0,0-11.62-.865,5.765,5.765,0,0,0,3.353,1.077,5.754,5.754,0,0,0,4.357-1.994Zm0,0" transform="translate(-72.635)" fill="#fff"/>
    <path id="Path_7069" data-name="Path 7069" d="M79.489,117.259a5.89,5.89,0,0,0,5.884-5.884V109.2A7.2,7.2,0,0,1,82,107.441a7.218,7.218,0,0,1-8.4,1.029v2.906a5.89,5.89,0,0,0,5.884,5.884Zm0,0" transform="translate(-70.011 -102.195)" fill="#fff"/>
  </g>
</svg>
