<svg xmlns="http://www.w3.org/2000/svg" width="131.139" height="54.269" viewBox="0 0 131.139 54.269">
  <g id="Group_5920" data-name="Group 5920" transform="translate(-160 -63.584)">
    <path id="Path_7895" data-name="Path 7895" d="M15.806,32l-1.553-5.1H6.445L4.893,32H0L7.559,10.5H13.11L20.7,32Zm-2.637-8.906q-2.153-6.929-2.424-7.837t-.388-1.436Q9.873,15.7,7.588,23.094Zm18.354-3.12h8.5v11.1a23.953,23.953,0,0,1-3.889.945,25.332,25.332,0,0,1-3.728.271q-4.849,0-7.4-2.849t-2.556-8.181q0-5.186,2.966-8.086t8.225-2.9a15.914,15.914,0,0,1,6.357,1.318l-1.509,3.633A10.776,10.776,0,0,0,33.6,14.056a6.024,6.024,0,0,0-4.717,1.978,7.671,7.671,0,0,0-1.772,5.317,8.54,8.54,0,0,0,1.428,5.325A4.941,4.941,0,0,0,32.7,28.514a14.689,14.689,0,0,0,2.886-.293V23.753H31.523ZM57.451,32H45.117V10.584H57.451V14.3H49.658v4.7h7.251v3.721H49.658V28.25h7.793Zm23.467,0H75.146L65.83,15.8H65.7q.278,4.292.278,6.123V32H61.919V10.584h5.728l9.3,16.04h.1q-.22-4.175-.22-5.9V10.584h4.087ZM95.405,14.056a4.627,4.627,0,0,0-3.97,1.926,8.962,8.962,0,0,0-1.406,5.369q0,7.163,5.376,7.163a16.994,16.994,0,0,0,5.464-1.128v3.809a15.174,15.174,0,0,1-5.889,1.1q-4.673,0-7.148-2.834t-2.476-8.137a13.288,13.288,0,0,1,1.216-5.852,8.787,8.787,0,0,1,3.494-3.853,10.335,10.335,0,0,1,5.339-1.34,14.411,14.411,0,0,1,6.27,1.509l-1.465,3.691a24.248,24.248,0,0,0-2.417-1A7.21,7.21,0,0,0,95.405,14.056ZM112.09,19.4l4.468-8.818h4.893l-7.1,13.081V32h-4.512V23.812l-7.1-13.228h4.922Z" transform="translate(160 85)" fill="#fcaa23"/>
    <path id="Path_7896" data-name="Path 7896" d="M20.244,0H15.718V-9.243H7.236V0H2.7V-21.416H7.236v8.394h8.481v-8.394h4.526ZM30.19-11.909h1.465a5.6,5.6,0,0,0,3.179-.718,2.562,2.562,0,0,0,1.025-2.256,2.343,2.343,0,0,0-1.047-2.168,6.356,6.356,0,0,0-3.245-.645H30.19Zm0,3.691V0H25.649V-21.416h6.24q4.365,0,6.46,1.589A5.673,5.673,0,0,1,40.444-15a5.682,5.682,0,0,1-1.04,3.362A6.882,6.882,0,0,1,36.46-9.331Q41.294-2.109,42.759,0H37.72L32.607-8.218Z" transform="translate(160 85)"/>
    <g id="Group_4" data-name="Group 4" transform="translate(283.073 109.788)">
      <circle id="Ellipse_7" data-name="Ellipse 7" cx="3.533" cy="3.533" r="3.533" transform="translate(0)" fill="#fff"/>
      <circle id="Ellipse_8" data-name="Ellipse 8" cx="3.533" cy="3.533" r="3.533" transform="translate(0)" fill="none" stroke="#000" stroke-linecap="round" stroke-miterlimit="10" stroke-width="2"/>
    </g>
  </g>
</svg>
