<svg xmlns="http://www.w3.org/2000/svg" width="125.342" height="15.336" viewBox="0 0 125.342 15.336">
  <g id="Group_554" data-name="Group 554" transform="translate(-161.797 -70.518)">
    <path id="Path_7894" data-name="Path 7894" d="M13.5,0H10.479V-6.162H4.824V0H1.8V-14.277H4.824v5.6h5.654v-5.6H13.5Zm6.631-7.939H21.1a3.736,3.736,0,0,0,2.119-.479,1.708,1.708,0,0,0,.684-1.5,1.562,1.562,0,0,0-.7-1.445,4.237,4.237,0,0,0-2.163-.43h-.918Zm0,2.461V0H17.1V-14.277h4.16a7.12,7.12,0,0,1,4.307,1.06A3.782,3.782,0,0,1,26.963-10a3.788,3.788,0,0,1-.693,2.241,4.588,4.588,0,0,1-1.963,1.538Q27.529-1.406,28.506,0H25.146L21.738-5.479ZM44.238,0,43.2-3.4H38L36.963,0H33.7L38.74-14.336h3.7L47.5,0ZM42.48-5.937q-1.436-4.619-1.616-5.225t-.259-.957q-.322,1.25-1.846,6.182Zm12.236-2.08h5.664v7.4a15.969,15.969,0,0,1-2.593.63A16.888,16.888,0,0,1,55.3.2a6.289,6.289,0,0,1-4.937-1.9,7.9,7.9,0,0,1-1.7-5.454,7.193,7.193,0,0,1,1.978-5.391,7.509,7.509,0,0,1,5.483-1.934,10.61,10.61,0,0,1,4.238.879l-1.006,2.422a7.184,7.184,0,0,0-3.252-.781,4.016,4.016,0,0,0-3.145,1.318A5.114,5.114,0,0,0,51.777-7.1a5.694,5.694,0,0,0,.952,3.55A3.294,3.294,0,0,0,55.5-2.324a9.793,9.793,0,0,0,1.924-.2V-5.5H54.717ZM72,0H63.779V-14.277H72v2.48h-5.2v3.135h4.834v2.48H66.807V-2.5H72ZM87.646,0H83.8L77.588-10.8H77.5q.186,2.861.186,4.082V0H74.98V-14.277H78.8L85-3.584h.068q-.146-2.783-.146-3.936v-6.758h2.725ZM97.3-11.963a3.085,3.085,0,0,0-2.646,1.284A5.974,5.974,0,0,0,93.721-7.1q0,4.775,3.584,4.775a11.329,11.329,0,0,0,3.643-.752V-.537A10.116,10.116,0,0,1,97.021.2a5.987,5.987,0,0,1-4.766-1.89,8,8,0,0,1-1.65-5.425,8.858,8.858,0,0,1,.811-3.9,5.858,5.858,0,0,1,2.329-2.568,6.89,6.89,0,0,1,3.56-.894,9.607,9.607,0,0,1,4.18,1.006l-.977,2.461A16.165,16.165,0,0,0,98.9-11.68,4.807,4.807,0,0,0,97.3-11.963ZM108.428-8.4l2.979-5.879h3.262l-4.736,8.721V0h-3.008V-5.459l-4.736-8.818h3.281Z" transform="translate(160 85)" fill="#fcaa23"/>
    <g id="Group_4" data-name="Group 4" transform="translate(279.073 77.788)">
      <circle id="Ellipse_7" data-name="Ellipse 7" cx="3.533" cy="3.533" r="3.533" transform="translate(0)" fill="#fff"/>
      <circle id="Ellipse_8" data-name="Ellipse 8" cx="3.533" cy="3.533" r="3.533" transform="translate(0)" fill="none" stroke="#000" stroke-linecap="round" stroke-miterlimit="10" stroke-width="2"/>
    </g>
  </g>
</svg>
