<svg xmlns="http://www.w3.org/2000/svg" width="149.706" height="25.038" viewBox="0 0 149.706 25.038">
  <g id="Group_2" transform="translate(1 1.153)">
    <path id="Path_2456" data-name="Path 2456" d="M.026,0,.138,1.269H9.816a4.535,4.535,0,0,1,4.2,2.557,5.683,5.683,0,0,1,.575,2.557h-.018A5.723,5.723,0,0,1,14,8.958a4.569,4.569,0,0,1-1.64,1.848,4.627,4.627,0,0,1-2.54.709H0V11.42L.138,12.8v10.03H1.55V12.783H9.913a6.5,6.5,0,0,0,3.285-.877,6.1,6.1,0,0,0,2.139-2.314,7.2,7.2,0,0,0,.771-3.209,7,7,0,0,0-.765-3.191A6.1,6.1,0,0,0,13.2.876a5.658,5.658,0,0,0-2.234-.8C10.739.041.275.017.026,0Z" transform="translate(0 0.058)" fill="#00276a" stroke="#00276a" stroke-linecap="round" stroke-linejoin="round" stroke-width="2"/>
    <path id="Path_2457" data-name="Path 2457" d="M202.871,22.889a11.534,11.534,0,0,1-11.628-11.406,11.629,11.629,0,1,1,23.259,0,11.534,11.534,0,0,1-11.631,11.406Zm0-21.441a10.151,10.151,0,0,0-10.246,10.035,10.248,10.248,0,0,0,20.492,0A10.151,10.151,0,0,0,202.871,1.448Z" transform="translate(-99.786 -0.005)" fill="#00276a" stroke="#00276a" stroke-linecap="round" stroke-linejoin="round" stroke-width="2"/>
    <path id="Path_2458" data-name="Path 2458" d="M274.678,13.489l-9.756,9.579-.987-.964,9.756-9.577-9.756-9.577.987-.964,9.756,9.577,9.756-9.577.987.964-9.756,9.577,9.756,9.577-.987.964Z" transform="translate(-137.715 -0.972)" fill="#00276a" stroke="#00276a" stroke-linecap="round" stroke-linejoin="round" stroke-width="2"/>
    <path id="Path_2459" data-name="Path 2459" d="M139.791,22.831h-1.4V.006h1.4V21.461h14.574v1.37Z" transform="translate(-72.211 0.054)" fill="#00276a" stroke="#00276a" stroke-linecap="round" stroke-linejoin="round" stroke-width="2"/>
    <path id="Path_2460" data-name="Path 2460" d="M77.274,22.831V.006h1.55V22.831Zm-14.42,0V.006h1.4V22.831Zm1.4-10.043V11.425H77.274v1.363Z" transform="translate(-32.796 0.054)" fill="#00276a" stroke="#00276a" stroke-linecap="round" stroke-linejoin="round" stroke-width="2"/>
  </g>
</svg>
