<svg xmlns="http://www.w3.org/2000/svg" width="77" height="71.941" viewBox="0 0 77 71.941">
  <g id="Group_760" data-name="Group 760" transform="translate(-750 -1119)">
    <circle id="Ellipse_27" data-name="Ellipse 27" cx="16" cy="16" r="16" transform="translate(795 1119)" fill="#ffca1a"/>
    <g id="_24-hours" data-name="24-hours" transform="translate(750 1125)">
      <g id="Group_181" data-name="Group 181" transform="translate(0 7.733)">
        <g id="Group_180" data-name="Group 180">
          <path id="Path_59" data-name="Path 59" d="M58.163,114.167a4.483,4.483,0,0,0-2.254-3.327l-11.815-6.646a4.662,4.662,0,0,0-5.564.764l-4.149,4.149a2.443,2.443,0,0,1-3.165.246A77.338,77.338,0,0,1,15.672,93.809a2.443,2.443,0,0,1,.246-3.165l4.149-4.149a4.662,4.662,0,0,0,.764-5.564L14.185,69.116a4.483,4.483,0,0,0-3.327-2.254,4.76,4.76,0,0,0-4.039,1.38L2.443,72.617C-.649,75.709-.811,81.243,1.985,88.2c2.675,6.656,7.765,13.939,14.332,20.506s13.85,11.657,20.506,14.332a24.2,24.2,0,0,0,8.821,1.985,9.22,9.22,0,0,0,6.763-2.443l4.376-4.376A4.761,4.761,0,0,0,58.163,114.167Zm-2.945,2.475-.765.765-10.073-5.494a1.106,1.106,0,1,0-1.059,1.943l9.5,5.182-1.98,1.98c-2.39,2.39-7.2,2.378-13.195-.031-6.386-2.566-13.406-7.482-19.767-13.843S6.6,93.762,4.038,87.376c-2.409-6-2.42-10.8-.031-13.195l1.98-1.98,1.059,1.942a1.106,1.106,0,1,0,1.942-1.06l-1.37-2.513.765-.765a2.585,2.585,0,0,1,1.831-.776,2.535,2.535,0,0,1,.343.023,2.287,2.287,0,0,1,1.7,1.147L18.9,82.016a2.442,2.442,0,0,1-.4,2.914L16.528,86.9l-5.181-9.5A1.106,1.106,0,0,0,9.4,78.465L14.9,88.535l-.544.544a4.669,4.669,0,0,0-.458,6.05,79.538,79.538,0,0,0,16,16,4.669,4.669,0,0,0,6.05-.458l.544-.544L39,111.5a1.106,1.106,0,0,0,1.059-1.943L38.12,108.5l1.974-1.974a2.443,2.443,0,0,1,2.915-.4l11.815,6.646a2.287,2.287,0,0,1,1.147,1.7A2.566,2.566,0,0,1,55.219,116.641Z" transform="translate(0 -66.817)" fill="#fff"/>
        </g>
      </g>
      <g id="Group_183" data-name="Group 183" transform="translate(41.306 17.702)">
        <g id="Group_182" data-name="Group 182">
          <path id="Path_60" data-name="Path 60" d="M321.362,152.164h-1.254v-9.515a1.106,1.106,0,0,0-2.213,0v9.515H312.12l2.061-9.275a1.106,1.106,0,0,0-2.16-.48l-2.36,10.621a1.106,1.106,0,0,0,1.08,1.346H317.9v3.614a1.106,1.106,0,1,0,2.213,0v-3.614h1.254a1.106,1.106,0,0,0,0-2.213Z" transform="translate(-309.634 -141.542)" fill="#fff"/>
        </g>
      </g>
      <g id="Group_185" data-name="Group 185" transform="translate(28.324 17.702)">
        <g id="Group_184" data-name="Group 184" transform="translate(0 0)">
          <path id="Path_61" data-name="Path 61" d="M222.871,156.886h-8.143c.481-1.267,1.843-2.073,3.808-3.145,2.424-1.323,5.441-2.969,5.441-6.707a5.837,5.837,0,0,0-11.654,0,1.106,1.106,0,0,0,2.213,0,3.631,3.631,0,0,1,7.228,0c0,2.261-1.62,3.308-4.289,4.764-2.415,1.318-5.153,2.812-5.153,6.194a1.106,1.106,0,0,0,1.106,1.106h9.441a1.106,1.106,0,1,0,0-2.213Z" transform="translate(-212.323 -141.544)" fill="#fff"/>
        </g>
      </g>
      <g id="Group_187" data-name="Group 187" transform="translate(18.883)">
        <g id="Group_186" data-name="Group 186">
          <path id="Path_62" data-name="Path 62" d="M184.924,54.893l-2.155.431a27.071,27.071,0,1,0-41.018-34.976,1.106,1.106,0,1,0,1.809,1.274A24.857,24.857,0,1,1,181.013,53.94l.493-2.466a1.106,1.106,0,0,0-2.17-.434l-1.18,5.9a1.106,1.106,0,0,0,1.3,1.3l5.9-1.18a1.106,1.106,0,1,0-.434-2.17Z" transform="translate(-141.55 -8.846)" fill="#fff"/>
        </g>
      </g>
      <g id="Group_189" data-name="Group 189" transform="translate(40.126 4.721)">
        <g id="Group_188" data-name="Group 188" transform="translate(0 0)">
          <path id="Path_63" data-name="Path 63" d="M301.9,44.232a1.106,1.106,0,0,0-1.106,1.106V47.7a1.106,1.106,0,1,0,2.213,0v-2.36A1.107,1.107,0,0,0,301.9,44.232Z" transform="translate(-300.789 -44.232)" fill="#fff"/>
        </g>
      </g>
      <g id="Group_191" data-name="Group 191" transform="translate(59.008 25.963)">
        <g id="Group_190" data-name="Group 190">
          <path id="Path_64" data-name="Path 64" d="M445.8,203.47h-2.36a1.106,1.106,0,1,0,0,2.213h2.36a1.106,1.106,0,0,0,0-2.213Z" transform="translate(-442.333 -203.47)" fill="#fff"/>
        </g>
      </g>
      <g id="Group_193" data-name="Group 193" transform="translate(21.729 15.342)">
        <g id="Group_192" data-name="Group 192" transform="translate(0 0)">
          <path id="Path_65" data-name="Path 65" d="M166.589,125.179,164.545,124a1.106,1.106,0,0,0-1.106,1.916l2.044,1.18a1.106,1.106,0,0,0,1.106-1.916Z" transform="translate(-162.886 -123.85)" fill="#fff"/>
        </g>
      </g>
      <g id="Group_195" data-name="Group 195" transform="translate(56.478 35.404)">
        <g id="Group_194" data-name="Group 194">
          <path id="Path_66" data-name="Path 66" d="M427.073,275.569l-2.044-1.18a1.106,1.106,0,1,0-1.106,1.916l2.044,1.18a1.106,1.106,0,0,0,1.106-1.916Z" transform="translate(-423.369 -274.24)" fill="#fff"/>
        </g>
      </g>
      <g id="Group_197" data-name="Group 197" transform="translate(49.567 7.566)">
        <g id="Group_196" data-name="Group 196">
          <path id="Path_67" data-name="Path 67" d="M374.4,65.714a1.106,1.106,0,0,0-1.511.4l-1.18,2.044a1.106,1.106,0,1,0,1.916,1.106l1.18-2.044A1.106,1.106,0,0,0,374.4,65.714Z" transform="translate(-371.562 -65.565)" fill="#fff"/>
        </g>
      </g>
      <g id="Group_199" data-name="Group 199" transform="translate(29.504 42.315)">
        <g id="Group_198" data-name="Group 198">
          <path id="Path_68" data-name="Path 68" d="M224.009,326.2a1.106,1.106,0,0,0-1.511.4l-1.18,2.044a1.106,1.106,0,1,0,1.916,1.106l1.18-2.044A1.106,1.106,0,0,0,224.009,326.2Z" transform="translate(-221.17 -326.049)" fill="#fff"/>
        </g>
      </g>
      <g id="Group_201" data-name="Group 201" transform="translate(56.478 15.342)">
        <g id="Group_200" data-name="Group 200">
          <path id="Path_69" data-name="Path 69" d="M427.479,124.4a1.106,1.106,0,0,0-1.511-.4l-2.044,1.18a1.106,1.106,0,1,0,1.106,1.916l2.044-1.18A1.107,1.107,0,0,0,427.479,124.4Z" transform="translate(-423.37 -123.85)" fill="#fff"/>
        </g>
      </g>
      <g id="Group_203" data-name="Group 203" transform="translate(21.729 35.404)">
        <g id="Group_202" data-name="Group 202">
          <path id="Path_70" data-name="Path 70" d="M166.994,274.794a1.106,1.106,0,0,0-1.511-.4l-2.044,1.18a1.106,1.106,0,1,0,1.106,1.916l2.044-1.18A1.107,1.107,0,0,0,166.994,274.794Z" transform="translate(-162.885 -274.24)" fill="#fff"/>
        </g>
      </g>
      <g id="Group_205" data-name="Group 205" transform="translate(29.504 7.566)">
        <g id="Group_204" data-name="Group 204">
          <path id="Path_71" data-name="Path 71" d="M224.415,68.163l-1.18-2.044a1.106,1.106,0,1,0-1.916,1.106l1.18,2.044a1.106,1.106,0,1,0,1.916-1.106Z" transform="translate(-221.17 -65.565)" fill="#fff"/>
        </g>
      </g>
      <g id="Group_207" data-name="Group 207" transform="translate(49.567 42.315)">
        <g id="Group_206" data-name="Group 206">
          <path id="Path_72" data-name="Path 72" d="M374.806,328.646l-1.18-2.044a1.106,1.106,0,0,0-1.916,1.106l1.18,2.044a1.106,1.106,0,1,0,1.916-1.106Z" transform="translate(-371.561 -326.049)" fill="#fff"/>
        </g>
      </g>
    </g>
  </g>
</svg>
