<svg xmlns="http://www.w3.org/2000/svg" width="54" height="71.941" viewBox="0 0 54 71.941">
  <g id="Group_758" data-name="Group 758" transform="translate(-160 -1119)">
    <circle id="Ellipse_26" data-name="Ellipse 26" cx="16" cy="16" r="16" transform="translate(182 1119)" fill="#ffca1a"/>
    <g id="placeholder" transform="translate(160 1125)">
      <path id="Path_47" data-name="Path 47" d="M28.987,12a8.43,8.43,0,1,0,8.43,8.43A8.441,8.441,0,0,0,28.987,12Zm0,14.451a6.021,6.021,0,1,1,6.021-6.021A6.028,6.028,0,0,1,28.987,26.451Z" transform="translate(-5.679 2.451)" fill="#fff"/>
      <path id="Path_48" data-name="Path 48" d="M47.627,6.764a23.093,23.093,0,0,0-32.659,0C6.9,14.835,5.892,30.021,12.795,39.221l18.5,26.72L49.771,39.259C56.7,30.021,55.7,14.835,47.627,6.764Zm.191,31.087L31.3,61.709l-16.548-23.9C8.488,29.466,9.386,15.752,16.671,8.467a20.684,20.684,0,0,1,29.252,0C53.21,15.752,54.107,29.466,47.818,37.851Z" transform="translate(-8.203 0)" fill="#fff"/>
    </g>
  </g>
</svg>
