<svg xmlns="http://www.w3.org/2000/svg" width="78" height="70.885" viewBox="0 0 78 70.885">
  <g id="Group_759" data-name="Group 759" transform="translate(-1351 -1119)">
    <circle id="Ellipse_28" data-name="Ellipse 28" cx="16" cy="16" r="16" transform="translate(1397 1119)" fill="#ffca1a"/>
    <g id="clock" transform="translate(1351 1124)">
      <path id="Path_49" data-name="Path 49" d="M32.942,0A32.942,32.942,0,1,0,65.885,32.942,32.98,32.98,0,0,0,32.942,0Zm0,63.689A30.746,30.746,0,1,1,63.689,32.942,30.781,30.781,0,0,1,32.942,63.689Z" fill="#fff"/>
      <path id="Path_50" data-name="Path 50" d="M32.275,27.114V15.977a1.1,1.1,0,0,0-2.2,0V27.114a4.387,4.387,0,0,0-3.138,3.138H19.1a1.1,1.1,0,0,0,0,2.2h7.842a4.383,4.383,0,1,0,5.334-5.334Zm-1.1,6.433a2.2,2.2,0,1,1,2.2-2.2A2.2,2.2,0,0,1,31.177,33.546Z" transform="translate(1.765 1.459)" fill="#fff"/>
      <path id="Path_51" data-name="Path 51" d="M30.1,10.173a1.1,1.1,0,0,0,1.1-1.1v-1.1a1.1,1.1,0,0,0-2.2,0v1.1A1.1,1.1,0,0,0,30.1,10.173Z" transform="translate(2.844 0.675)" fill="#fff"/>
      <path id="Path_52" data-name="Path 52" d="M30.1,49.879a1.1,1.1,0,0,0-1.1,1.1v1.1a1.1,1.1,0,1,0,2.2,0v-1.1A1.1,1.1,0,0,0,30.1,49.879Z" transform="translate(2.844 4.892)" fill="#fff"/>
      <path id="Path_53" data-name="Path 53" d="M52.2,28.879H51.1a1.1,1.1,0,0,0,0,2.2h1.1a1.1,1.1,0,0,0,0-2.2Z" transform="translate(4.904 2.832)" fill="#fff"/>
      <path id="Path_54" data-name="Path 54" d="M9.2,28.879H8.1a1.1,1.1,0,0,0,0,2.2H9.2a1.1,1.1,0,0,0,0-2.2Z" transform="translate(0.687 2.832)" fill="#fff"/>
      <path id="Path_55" data-name="Path 55" d="M44.947,13.644l-.776.776a1.1,1.1,0,1,0,1.553,1.553L46.5,15.2a1.1,1.1,0,1,0-1.553-1.553Z" transform="translate(4.301 1.307)" fill="#fff"/>
      <path id="Path_56" data-name="Path 56" d="M14.542,44.05l-.776.776a1.1,1.1,0,1,0,1.553,1.553l.776-.776a1.1,1.1,0,0,0-1.553-1.553Z" transform="translate(1.319 4.289)" fill="#fff"/>
      <path id="Path_57" data-name="Path 57" d="M45.723,44.05A1.1,1.1,0,0,0,44.171,45.6l.776.776A1.1,1.1,0,1,0,46.5,44.826Z" transform="translate(4.301 4.289)" fill="#fff"/>
      <path id="Path_58" data-name="Path 58" d="M15.318,13.644A1.1,1.1,0,1,0,13.766,15.2l.776.776a1.1,1.1,0,1,0,1.553-1.553Z" transform="translate(1.319 1.307)" fill="#fff"/>
    </g>
  </g>
</svg>
