<svg xmlns="http://www.w3.org/2000/svg" width="102.999" height="102.999" viewBox="0 0 102.999 102.999">
  <g id="hr" transform="translate(0 0)">
    <g id="Group_10" data-name="Group 10" transform="translate(16.613 0)">
      <path id="Path_83" data-name="Path 83" d="M80,344h46.516v11.629H80Zm0,0" transform="translate(-80 -272.565)" fill="#ffca1a"/>
      <path id="Path_84" data-name="Path 84" d="M137.226,448h-29.9L104,456.306h36.548Zm0,0" transform="translate(-99.016 -354.968)" fill="#ffca1a"/>
      <path id="Path_85" data-name="Path 85" d="M203.629,26.8V16.613h-8.306A3.322,3.322,0,0,1,192,13.29V3.322A3.322,3.322,0,0,1,195.323,0h33.226a3.322,3.322,0,0,1,3.323,3.323V13.29a3.322,3.322,0,0,1-3.323,3.323H215.859Zm0,0" transform="translate(-168.742 0)" fill="#ffca1a"/>
    </g>
    <path id="Path_86" data-name="Path 86" d="M224,32h3.323v3.323H224Zm0,0" transform="translate(-177.484 -25.355)" fill="#fff"/>
    <path id="Path_87" data-name="Path 87" d="M256,32h13.29v3.323H256Zm0,0" transform="translate(-202.839 -25.355)" fill="#fff"/>
    <path id="Path_88" data-name="Path 88" d="M336,32h3.323v3.323H336Zm0,0" transform="translate(-266.226 -25.355)" fill="#fff"/>
    <path id="Path_89" data-name="Path 89" d="M84.567,194.758l-1.343-13.448a11.636,11.636,0,0,0,9.808-11.471v-21.6H86.386v-2.3a5.976,5.976,0,0,0-3.237-5.326,9.928,9.928,0,0,0,3.237-7.33v-3.323a9.968,9.968,0,0,0-19.935,0v3.323a9.975,9.975,0,0,0,6.567,9.358L64.1,151.564H54.785A6.662,6.662,0,0,0,50,145.61l-6.81-1.944V140.7a9.934,9.934,0,0,0,3.323-7.409v-3.323a9.968,9.968,0,0,0-19.935,0v3.323A9.939,9.939,0,0,0,29.9,140.7v2.969l-6.81,1.944A6.67,6.67,0,0,0,18.274,152v6.208H11.629v9.968h3.323v26.58H0v3.323H103v-3.323Zm-14.793-26.58v-7.619l11.772-11.772a5.2,5.2,0,0,0,1.471-3.186,2.705,2.705,0,0,1,.048.346v20.57A4.99,4.99,0,0,1,78.08,171.5H64.79v-3.323Zm-4.984,13.29h8.465l1.329,13.29H64.79Zm11.8,0H79.9l1.329,13.29H77.922Zm9.793-14.952V151.564h3.323v18.274a8.316,8.316,0,0,1-8.306,8.306H64.79v-3.323H78.08A8.316,8.316,0,0,0,86.386,166.516ZM69.773,133.29v-3.323a6.645,6.645,0,1,1,13.29,0v3.323a6.645,6.645,0,1,1-13.29,0Zm-4.3,21.6L76.561,143.8a1.863,1.863,0,0,1,2.635,2.635L67.424,158.209H49.838a1.661,1.661,0,1,1,0-3.323ZM29.9,129.968a6.645,6.645,0,1,1,13.29,0v3.323a6.645,6.645,0,1,1-13.29,0Zm6.645,13.29a9.919,9.919,0,0,0,3.323-.582v1.785a4.248,4.248,0,0,1-3.323,2.12,4.248,4.248,0,0,1-3.323-2.12v-1.785A9.919,9.919,0,0,0,36.548,143.258ZM21.6,152a3.338,3.338,0,0,1,2.409-3.2l6.844-1.955a7.235,7.235,0,0,0,5.7,3.052,7.232,7.232,0,0,0,5.7-3.053L49.09,148.8a3.311,3.311,0,0,1,2.338,2.758h-1.59a4.99,4.99,0,0,0-4.984,4.984,4.915,4.915,0,0,0,.306,1.661H21.6Zm-6.645,9.53h51.5v3.323h-51.5Zm3.323,13.29h4.984V171.5H18.274v-3.323H61.467V171.5H26.58v3.323H61.467v19.935H18.274Zm0,0" transform="translate(0 -95.081)" fill="#fff"/>
  </g>
</svg>
