<svg xmlns="http://www.w3.org/2000/svg" width="89.709" height="102.999" viewBox="0 0 89.709 102.999">
  <g id="man" transform="translate(-5 -1)">
    <path id="Path_90" data-name="Path 90" d="M16.661,34.226h6.645V25.919a72.427,72.427,0,0,0,19.935,3.323,72.427,72.427,0,0,0,19.935-3.323v8.306h6.645a3.3,3.3,0,0,1,1.661.46V29.242a28.242,28.242,0,0,0-56.484,0v5.444A3.3,3.3,0,0,1,16.661,34.226Z" transform="translate(6.613)" fill="#ffca1a"/>
    <circle id="Ellipse_10" data-name="Ellipse 10" cx="2" cy="2" r="2" transform="translate(57.709 33.999)" fill="#fff"/>
    <ellipse id="Ellipse_11" data-name="Ellipse 11" cx="1.5" cy="2" rx="1.5" ry="2" transform="translate(38.709 33.999)" fill="#fff"/>
    <path id="Path_91" data-name="Path 91" d="M78.3,68.9,61.258,61.923a4.966,4.966,0,0,1-3.1-4.613V56.117A30.754,30.754,0,0,0,69.988,40.175h6.447a4.99,4.99,0,0,0,4.984-4.984V28.546a4.99,4.99,0,0,0-4.984-4.984H71.451V14.615l-2.185.728a71.4,71.4,0,0,1-19.412,3.236,71.256,71.256,0,0,1-19.41-3.238l-2.186-.728v8.949H23.274a4.99,4.99,0,0,0-4.984,4.984V40.175A8.316,8.316,0,0,0,26.6,48.482h7.25a30.724,30.724,0,0,0,7.7,7.635V57.31a4.964,4.964,0,0,1-3.1,4.612L21.408,68.894A26.317,26.317,0,0,0,5,93.336V95H94.709V93.336A26.314,26.314,0,0,0,78.3,68.9Zm-43.4-1.93.1-.043,5.378,14.785H36.564A1.663,1.663,0,0,1,34.9,80.046Zm14.952,5.708,7.527,9.034H42.326Zm14.952-5.708V80.046a1.663,1.663,0,0,1-1.661,1.661H59.324L64.7,66.922Zm-3.183-1.3-4.035,11.1-5.338-6.4,7.388-5.54c.123.058.236.13.362.181ZM76.435,26.885A1.664,1.664,0,0,1,78.1,28.546v6.645a1.664,1.664,0,0,1-1.661,1.661H70.83a30.891,30.891,0,0,0,.621-6.062V26.885ZM21.613,28.546a1.664,1.664,0,0,1,1.661-1.661h4.984v3.906a30.89,30.89,0,0,0,.621,6.062H23.274a1.664,1.664,0,0,1-1.661-1.661V28.546ZM26.6,45.159a4.99,4.99,0,0,1-4.984-4.984v-.306a4.928,4.928,0,0,0,1.661.306h6.447a30.6,30.6,0,0,0,2.1,4.984Zm11.431,3.323h3.828A4.977,4.977,0,0,0,46.534,51.8h6.645a4.984,4.984,0,0,0,0-9.968H46.534a4.977,4.977,0,0,0-4.678,3.323h-6.22A27.447,27.447,0,0,1,31.58,30.791V19.152A71.712,71.712,0,0,0,49.855,21.9a71.712,71.712,0,0,0,18.274-2.749V30.791a27.454,27.454,0,0,1-18.274,25.9A27.424,27.424,0,0,1,38.028,48.482Zm6.843-1.661a1.663,1.663,0,0,1,1.661-1.661h6.645a1.661,1.661,0,1,1,0,3.323H46.532A1.663,1.663,0,0,1,44.871,46.82Zm4.459,13.2.525.176.525-.174A31.048,31.048,0,0,0,54.9,58.112a8.246,8.246,0,0,0,1.97,4.632L49.855,68l-7.014-5.26a8.246,8.246,0,0,0,1.97-4.632,30.887,30.887,0,0,0,4.519,1.914ZM39.711,65c.126-.051.239-.123.362-.181l7.388,5.54-5.338,6.4-4.035-11.1ZM8.381,91.675A22.973,22.973,0,0,1,21.613,72.445V91.675Zm16.555,0V71.043l6.645-2.718v11.72a4.99,4.99,0,0,0,4.984,4.984h26.58a4.99,4.99,0,0,0,4.984-4.984V68.324l6.645,2.718V91.675Zm53.161,0V72.445A22.973,22.973,0,0,1,91.328,91.675Z" transform="translate(0 9.002)" fill="#fff"/>
    <path id="Path_92" data-name="Path 92" d="M45.729,14.016a21.429,21.429,0,0,0-2.095-3.6l-2.7,1.94A18.067,18.067,0,0,1,42.707,15.4Z" transform="translate(23.764 6.227)" fill="#fff"/>
    <path id="Path_93" data-name="Path 93" d="M46.285,10.4A21.573,21.573,0,0,0,32,5V8.323a18.247,18.247,0,0,1,12.086,4.569Z" transform="translate(17.855 2.645)" fill="#fff"/>
  </g>
</svg>
