<svg id="research" xmlns="http://www.w3.org/2000/svg" width="103.344" height="103.344" viewBox="0 0 103.344 103.344">
  <path id="Path_56" data-name="Path 56" d="M8,8H108.01V21.335H8ZM8,8" transform="translate(-6.333 -6.333)" fill="#ffca1a"/>
  <path id="Path_59" data-name="Path 59" d="M220.336,168.673a28.336,28.336,0,1,1,28.336-28.336A28.368,28.368,0,0,1,220.336,168.673Zm0-48.338a20,20,0,1,0,20,20A20.024,20.024,0,0,0,220.336,120.334Zm0,0" transform="translate(-151.996 -88.664)" fill="#ffca1a"/>
  <g id="Group_4" data-name="Group 4">
    <path id="Path_57" data-name="Path 57" d="M115.334,449.667A1.667,1.667,0,1,1,113.667,448,1.667,1.667,0,0,1,115.334,449.667Zm0,0" transform="translate(-88.664 -354.657)" fill="#fff"/>
    <path id="Path_58" data-name="Path 58" d="M0,0V66.674H44.315L40,70.984l-1.667-1.667-19.11,19.11a8.738,8.738,0,0,0,12.358,12.358L50.7,81.675l-1.667-1.667,5.26-5.26-2.357-2.357-5.26,5.26-4.31-4.31,5.26-5.26-2.357-2.357-.02.02v-2.4H3.334V3.334h96.677V63.34H91.433v3.334h11.911V0ZM29.228,98.428a5.405,5.405,0,0,1-7.644-7.644L33.337,79.032l7.644,7.644Zm14.11-14.11-7.644-7.644,2.644-2.644,7.644,7.644Zm0,0" fill="#fff"/>
    <path id="Path_60" data-name="Path 60" d="M245.669,187.338a21.669,21.669,0,1,1,21.669-21.669A21.694,21.694,0,0,1,245.669,187.338Zm0-40A18.335,18.335,0,1,0,264,165.669,18.357,18.357,0,0,0,245.669,147.334Zm0,0" transform="translate(-177.328 -113.997)" fill="#fff"/>
    <path id="Path_61" data-name="Path 61" d="M272,272h23.336v3.334H272Zm0,0" transform="translate(-215.327 -215.327)" fill="#fff"/>
    <path id="Path_62" data-name="Path 62" d="M272,240h3.334v3.334H272Zm0,0" transform="translate(-215.327 -189.995)" fill="#fff"/>
    <path id="Path_63" data-name="Path 63" d="M304,240h3.334v3.334H304Zm0,0" transform="translate(-240.66 -189.995)" fill="#fff"/>
    <path id="Path_64" data-name="Path 64" d="M336,240h3.334v3.334H336Zm0,0" transform="translate(-265.993 -189.995)" fill="#fff"/>
    <path id="Path_65" data-name="Path 65" d="M368,240h3.334v3.334H368Zm0,0" transform="translate(-291.325 -189.995)" fill="#fff"/>
    <path id="Path_66" data-name="Path 66" d="M272,208h23.336v3.334H272Zm0,0" transform="translate(-215.327 -164.662)" fill="#fff"/>
    <path id="Path_67" data-name="Path 67" d="M32,32h3.334v3.334H32Zm0,0" transform="translate(-25.333 -25.333)" fill="#fff"/>
    <path id="Path_68" data-name="Path 68" d="M64,32h3.334v3.334H64Zm0,0" transform="translate(-50.665 -25.333)" fill="#fff"/>
    <path id="Path_69" data-name="Path 69" d="M96,32h3.334v3.334H96Zm0,0" transform="translate(-75.998 -25.333)" fill="#fff"/>
    <path id="Path_70" data-name="Path 70" d="M62,119.336v-20H58.669v20H55.336V102.667H52v16.668H48.668V106H45.335v13.335H42v-10H38.667v10H35.334V96H32v26.669H65.337v-3.334Zm0,0" transform="translate(-25.333 -75.998)" fill="#fff"/>
  </g>
</svg>
