<svg xmlns="http://www.w3.org/2000/svg" width="103" height="103" viewBox="0 0 103 103">
  <g id="success" transform="translate(-1 -1)">
    <g id="Group_9" data-name="Group 9" transform="translate(4.323 10.968)">
      <path id="Path_71" data-name="Path 71" d="M66.29,64.6V7H53V54.712C59.3,57.392,63.966,60.789,66.29,64.6Z" transform="translate(30.065 -7)" fill="#ffca1a"/>
      <path id="Path_72" data-name="Path 72" d="M26.29,43.423V17H13V46.809A80.447,80.447,0,0,1,26.29,43.423Z" transform="translate(3.613 -0.387)" fill="#ffca1a"/>
      <path id="Path_73" data-name="Path 73" d="M16.29,44.132V23H3V54.02C5.324,50.209,9.987,46.811,16.29,44.132Z" transform="translate(-3 3.581)" fill="#ffca1a"/>
      <path id="Path_74" data-name="Path 74" d="M56.29,49.454V13H43V46.068A80.447,80.447,0,0,1,56.29,49.454Z" transform="translate(23.452 -3.032)" fill="#ffca1a"/>
      <path id="Path_75" data-name="Path 75" d="M35.552,12.083l1.093,9.832L33.323,26.9,30,21.914l1.093-9.833Z" transform="translate(14.855 -3.64)" fill="#ffca1a"/>
      <path id="Path_76" data-name="Path 76" d="M51.377,35.2H51.21v8.665c5.868,1.283,9.968,4.21,9.968,7.615,0,4.587-7.438,8.306-16.613,8.306s-16.613-3.72-16.613-8.306c0-3.406,4.1-6.333,9.968-7.615V35.195l-.168.008C22.717,36.718,13,43.109,13,51.484,13,61.266,25.98,68.1,44.565,68.1s31.565-6.831,31.565-16.613c0-8.375-9.717-14.766-24.752-16.281Z" transform="translate(3.613 11.645)" fill="#ffca1a"/>
    </g>
    <path id="Path_77" data-name="Path 77" d="M10.731,55.142l1.827-2.776c-3.123-2.057-4.236-3.853-4.236-4.848,0-.47.262-1.774,2.7-3.736l-2.083-2.59C6.362,43.267,5,45.453,5,47.518,5,50.037,6.982,52.673,10.731,55.142Z" transform="translate(2.645 26.579)" fill="#fff"/>
    <path id="Path_78" data-name="Path 78" d="M15.238,50.429c-1.136-.457-2.213-.937-3.2-1.43l-1.484,2.972c1.068.533,2.226,1.052,3.444,1.542Z" transform="translate(6.317 31.741)" fill="#fff"/>
    <path id="Path_79" data-name="Path 79" d="M57.2,46.264h3.323a6,6,0,0,0-1.007-3.176L56.7,44.852A2.813,2.813,0,0,1,57.2,46.264Z" transform="translate(36.833 27.832)" fill="#fff"/>
    <path id="Path_80" data-name="Path 80" d="M58.7,42.207a24.049,24.049,0,0,0-2.9-2.077l-1.743,2.829a20.713,20.713,0,0,1,2.5,1.784Z" transform="translate(35.087 25.876)" fill="#fff"/>
    <path id="Path_81" data-name="Path 81" d="M55.014,39.678c-.988-.483-2.045-.952-3.148-1.394l-1.239,3.082c1.027.414,2.012.849,2.927,1.3Z" transform="translate(32.818 24.656)" fill="#fff"/>
    <path id="Path_82" data-name="Path 82" d="M60.806,51.138v-.3a6.652,6.652,0,0,0,6.645-6.645V32.565A14.965,14.965,0,0,0,58.524,18.89a9.968,9.968,0,1,0-12.048,0,14.965,14.965,0,0,0-8.928,13.674V44.194a6.652,6.652,0,0,0,6.645,6.645v.3C19.073,52.929,1,62.469,1,74.1v6.645C1,93.785,23.622,104,52.5,104S104,93.785,104,80.742V74.1C104,62.469,85.927,52.929,60.806,51.138ZM49.177,77.419a4.952,4.952,0,0,0,3.323-1.3,4.963,4.963,0,0,0,8.306-3.688V68.646c3.994,1.259,6.645,3.371,6.645,5.451,0,3.143-6.14,6.645-14.952,6.645S37.548,77.24,37.548,74.1c0-2.08,2.651-4.191,6.645-5.451v3.789A4.99,4.99,0,0,0,49.177,77.419ZM45.855,10.968A6.645,6.645,0,1,1,52.5,17.613,6.652,6.652,0,0,1,45.855,10.968ZM40.871,44.194V32.565a11.629,11.629,0,1,1,23.258,0V44.194a3.326,3.326,0,0,1-3.323,3.323V32.565H57.484V72.435a1.661,1.661,0,1,1-3.323,0V47.516H50.839V72.435a1.661,1.661,0,1,1-3.323,0V32.565H44.194V47.516A3.326,3.326,0,0,1,40.871,44.194Zm3.323,10.275V65.176c-6.183,1.66-9.968,5.01-9.968,8.921,0,5.589,8.027,9.968,18.274,9.968S70.774,79.685,70.774,74.1c0-3.911-3.784-7.261-9.968-8.921V54.469c22.5,1.67,39.871,10.147,39.871,19.628,0,10.807-22.062,19.935-48.177,19.935S4.323,84.9,4.323,74.1C4.323,64.616,21.7,56.138,44.194,54.469ZM52.5,100.677c-24.471,0-45.381-8.016-47.918-17.915C12.044,91.389,30.44,97.355,52.5,97.355s40.456-5.966,47.918-14.593C97.881,92.662,76.971,100.677,52.5,100.677Z" transform="translate(0 0)" fill="#fff"/>
  </g>
</svg>
