<svg xmlns="http://www.w3.org/2000/svg" viewBox="0 0 86.141 86.141"><path d="M28.832,107.617a55.291,55.291,0,0,1-8.655,7.538,54.106,54.106,0,0,1-11.37-10.714C4.844,99.361,2.749,94.379,2.749,90.033A17.366,17.366,0,0,1,17.264,72.849a1.375,1.375,0,1,0-.456-2.711A20.182,20.182,0,0,0,0,90.033c0,4.965,2.3,10.532,6.64,16.1a57.006,57.006,0,0,0,11.686,11.08l-1.944,3.179a1.375,1.375,0,0,0,1.173,2.092H18.8v19.551a1.375,1.375,0,0,0,2.749,0V122.482H22.8a1.375,1.375,0,1,0,0-2.749H20.006l1.189-1.945a57.777,57.777,0,0,0,9.65-8.3,1.375,1.375,0,0,0-2.013-1.873Z" transform="translate(0 -57.267)"/><path d="M39.648,103.158A14.738,14.738,0,0,0,30,116.949a1.375,1.375,0,0,0,2.749,0,11.98,11.98,0,0,1,7.843-11.209,1.375,1.375,0,1,0-.945-2.582Z" transform="translate(-24.502 -84.183)"/><path d="M326.082,76.939a20.2,20.2,0,0,0-11.981-6.8,1.375,1.375,0,1,0-.456,2.711,17.366,17.366,0,0,1,14.514,17.184c0,4.346-2.095,9.328-6.058,14.408a54.1,54.1,0,0,1-11.37,10.714,55.274,55.274,0,0,1-8.655-7.538,1.375,1.375,0,0,0-2.013,1.873,58.284,58.284,0,0,0,8.815,7.723l-1.944,3.179a1.374,1.374,0,0,0,1.173,2.092h1.249v19.551a1.375,1.375,0,0,0,2.749,0V122.482h1.249a1.375,1.375,0,1,0,0-2.749H310.56l1.19-1.946a56.887,56.887,0,0,0,12.519-11.655c4.344-5.567,6.64-11.134,6.64-16.1A20.18,20.18,0,0,0,326.082,76.939Z" transform="translate(-244.768 -57.267)"/><path d="M145.94,42.331c5.082-6.513,7.769-13.018,7.769-18.811a23.52,23.52,0,0,0-47.041,0c0,5.793,2.686,12.3,7.769,18.811a66.878,66.878,0,0,0,13.9,13.133L125.927,59.4a1.375,1.375,0,0,0,1.173,2.092h1.715V84.766a1.375,1.375,0,0,0,2.749,0V61.495h1.715a1.375,1.375,0,1,0,0-2.749h-3.727l1.656-2.709A66.731,66.731,0,0,0,145.94,42.331ZM116.6,40.64c-4.7-6.026-7.187-11.945-7.187-17.12a20.771,20.771,0,0,1,41.543,0c0,5.174-2.485,11.094-7.187,17.12a63.965,63.965,0,0,1-13.584,12.766A63.96,63.96,0,0,1,116.6,40.64Z" transform="translate(-87.118)"/><path d="M138.043,49.394a1.375,1.375,0,0,0,1.375-1.374A15.291,15.291,0,0,1,154.69,32.749a1.375,1.375,0,0,0,0-2.749,18.043,18.043,0,0,0-18.022,18.019,1.374,1.374,0,0,0,1.375,1.375Z" transform="translate(-111.62 -24.502)"/><path d="M144.9,151.214a1.375,1.375,0,0,0-2.592.917,34.771,34.771,0,0,0,5.507,9.569,1.375,1.375,0,1,0,2.167-1.691A32.055,32.055,0,0,1,144.9,151.214Z" transform="translate(-116.16 -122.752)"/></svg>