<svg xmlns="http://www.w3.org/2000/svg" viewBox="0 0 73.047 86.14"><g transform="translate(-35.718)"><path d="M136.831,36.327a1.375,1.375,0,0,0,2.192-1.659L125.809,17.2a8.937,8.937,0,0,1-1.822-5.435,8.974,8.974,0,1,1,17.947-.089,1.375,1.375,0,1,0,2.749,0,11.606,11.606,0,0,0-1.057-4.846,9.017,9.017,0,1,1,14.74,10.37L145.152,34.669a1.375,1.375,0,1,0,2.192,1.659l13.215-17.467A11.765,11.765,0,0,0,142.065,4.32,11.66,11.66,0,0,0,133.005,0a11.767,11.767,0,0,0-9.388,18.861Z" transform="translate(-69.846 0)"/><path d="M108.583,229.637l-7.331-12.758a1.375,1.375,0,0,0-1.192-.69H44.424a1.375,1.375,0,0,0-1.192.69L35.9,229.637a1.375,1.375,0,0,0,1.192,2.059H64.911a1.375,1.375,0,0,0,1.192-.69l4.765-8.292v37.243H45.8V235.82a1.375,1.375,0,0,0-2.749,0v25.512a1.375,1.375,0,0,0,1.375,1.375H100.06a1.375,1.375,0,0,0,1.375-1.375V231.7h5.956a1.375,1.375,0,0,0,1.192-2.059Zm-44.467-.69H39.468l5.751-10.009H69.867Zm34.57,31.01H73.616V222.715l4.765,8.292a1.375,1.375,0,0,0,1.192.69H98.685v28.261Zm-18.317-31.01-5.751-10.009H99.264l5.751,10.009Z" transform="translate(0 -176.567)"/></g></svg>