<svg xmlns="http://www.w3.org/2000/svg" viewBox="0 0 86.141 86.138"><g transform="translate(0)"><g transform="translate(0 0)"><g transform="translate(0 0)"><path d="M367.343,203.2a1.436,1.436,0,0,0,2.011-.273,8.535,8.535,0,0,0,1.756-5.213,1.436,1.436,0,1,0-2.871,0,5.688,5.688,0,0,1-1.169,3.474A1.435,1.435,0,0,0,367.343,203.2Z" transform="translate(-305.071 -163.254)"/><path d="M270.356,105.6a14.373,14.373,0,0,0,14.356-14.356c0-10.572-12.855-22.122-13.4-22.608a1.437,1.437,0,0,0-1.906,0c-.548.487-13.4,12.036-13.4,22.608A14.373,14.373,0,0,0,270.356,105.6Zm0-33.92c2.913,2.827,11.485,11.807,11.485,19.563a11.485,11.485,0,0,1-22.97,0C258.871,83.5,267.445,74.511,270.356,71.681Z" transform="translate(-212.931 -56.789)"/><path d="M453.7,81a1.471,1.471,0,0,0,.333-.039,3.727,3.727,0,0,0,2.507-2.521,1.456,1.456,0,0,0-1.084-1.736,1.42,1.42,0,0,0-1.707,1.067,1.164,1.164,0,0,1-.414.4A1.436,1.436,0,0,0,453.7,81Z" transform="translate(-376.176 -63.776)"/><path d="M418.214,22.977a8.622,8.622,0,0,0,8.614-8.614c0-7.778-7.4-13.789-7.717-14.042a1.437,1.437,0,0,0-1.795,0C417,.574,409.6,6.585,409.6,14.363A8.622,8.622,0,0,0,418.214,22.977Zm0-19.608c1.815,1.733,5.742,6.057,5.742,10.994a5.742,5.742,0,0,1-11.485,0C412.471,9.426,416.4,5.1,418.214,3.369Z" transform="translate(-340.69 -0.007)"/><path d="M214.764,81a1.471,1.471,0,0,0,.333-.039,3.727,3.727,0,0,0,2.507-2.521,1.456,1.456,0,0,0-1.084-1.736,1.421,1.421,0,0,0-1.707,1.067,1.165,1.165,0,0,1-.414.4A1.436,1.436,0,0,0,214.764,81Z" transform="translate(-177.439 -63.776)"/><path d="M179.28,22.977a8.622,8.622,0,0,0,8.614-8.614c0-7.778-7.4-13.789-7.717-14.042a1.437,1.437,0,0,0-1.795,0c-.314.253-7.717,6.264-7.717,14.042A8.623,8.623,0,0,0,179.28,22.977Zm0-19.608c1.815,1.733,5.742,6.057,5.742,10.994a5.742,5.742,0,1,1-11.485,0C173.537,9.426,177.465,5.1,179.28,3.369Z" transform="translate(-141.953 -0.007)"/><path d="M170.543,344.15A5.724,5.724,0,0,0,162.787,342l-16.523,8.042c-2.568,1.285-5.161,1.285-10.843,1.285a110.42,110.42,0,0,1-14.121-1.416,1.435,1.435,0,1,0-.471,2.831,110.5,110.5,0,0,0,14.592,1.456c5.961,0,8.953,0,12.112-1.581l16.6-8.084a2.872,2.872,0,1,1,2.831,5l-19.411,12.081c-.04.027-4.182,2.636-13.568,2.636-8.139,0-20.712-6.928-20.893-7.027-.131-.063-3.244-1.586-9.255-1.586a1.436,1.436,0,1,0,0,2.871,20.366,20.366,0,0,1,7.917,1.256v0c.543.3,13.347,7.359,22.231,7.359,10.365,0,14.962-2.986,15.114-3.088l19.341-12.038a5.743,5.743,0,0,0,2.1-7.844Z" transform="translate(-85.174 -283.853)"/><path d="M21.374,445.894a2.153,2.153,0,1,0-2.153,2.153A2.156,2.156,0,0,0,21.374,445.894Z" transform="translate(-14.196 -369.088)"/><path d="M10.049,273.074H1.436a1.436,1.436,0,1,0,0,2.871h8.614a1.437,1.437,0,0,1,1.436,1.436v31.584a1.437,1.437,0,0,1-1.436,1.436H1.436a1.436,1.436,0,1,0,0,2.871h8.614a4.312,4.312,0,0,0,4.307-4.307V277.381A4.312,4.312,0,0,0,10.049,273.074Z" transform="translate(0 -227.134)"/><path d="M103.836,310.078h11.485c1.675,0,4.522,2.136,7.035,4.02,3.15,2.363,6.126,4.594,8.757,4.594h8.614a4.993,4.993,0,0,1,3.292,1.015,1.435,1.435,0,0,0,2.03-2.03,7.624,7.624,0,0,0-5.322-1.856h-8.614c-1.675,0-4.522-2.136-7.035-4.02-3.15-2.363-6.126-4.594-8.757-4.594H103.836a1.436,1.436,0,0,0,0,2.871Z" transform="translate(-85.172 -255.524)"/></g></g></g></svg>