<svg xmlns="http://www.w3.org/2000/svg" viewBox="0 0 24.512 35"><defs><style>.a{fill:#fbb034;}</style></defs><g transform="translate(0 0)"><path class="a" d="M75.913.007H61.179A4.8,4.8,0,0,0,57.658,1.28a4.951,4.951,0,0,0-1.3,3.671V30.056C56.355,33.7,58.908,35,61.3,35H75.913c3.641,0,4.944-2.554,4.944-4.944V4.943C80.857,1.3,78.3.007,75.913.007Zm3.819,30.049a3.5,3.5,0,0,1-3.819,3.827H61.3a3.511,3.511,0,0,1-3.827-3.827V27.078H79.733Zm0-4.08H57.471V6.5H79.733ZM79.74,5.39H57.471V4.951a3.894,3.894,0,0,1,.975-2.874,3.767,3.767,0,0,1,2.785-.953H75.913A3.511,3.511,0,0,1,79.74,4.951Z" transform="translate(-56.345 0)"/></g><g transform="translate(9.964 2.732)"><g transform="translate(0)"><path class="a" d="M167.469,29.356h-3.5a.558.558,0,0,0,0,1.117h3.5a.558.558,0,0,0,0-1.117Z" transform="translate(-163.411 -29.356)"/></g></g><g transform="translate(9.815 28.135)"><g transform="translate(0)"><path class="a" d="M164.253,302.316a2.45,2.45,0,1,0,2.457,2.457A2.45,2.45,0,0,0,164.253,302.316Zm0,3.782h0v.007a1.329,1.329,0,1,0,0-.007Z" transform="translate(-161.811 -302.316)"/></g></g></svg>