<svg xmlns="http://www.w3.org/2000/svg" viewBox="0 0 86.141 86.141"><g transform="translate(0)"><path d="M184.825,21.815a1.375,1.375,0,0,0,2.192,0l8.6-11.367a6.517,6.517,0,0,0-9.7-8.648,6.517,6.517,0,0,0-9.7,8.648Zm-3.4-19.065a3.775,3.775,0,0,1,3.294,1.94,1.375,1.375,0,0,0,2.4,0,3.768,3.768,0,0,1,7.063,1.829,3.734,3.734,0,0,1-.761,2.271l-7.5,9.918-7.5-9.918a3.734,3.734,0,0,1-.761-2.271A3.773,3.773,0,0,1,181.426,2.749Z" transform="translate(-142.851 0)"/><path d="M124.057,135.638a10.307,10.307,0,1,0-10.307-10.307A10.319,10.319,0,0,0,124.057,135.638Zm0-17.865a7.558,7.558,0,1,1-7.558,7.558A7.567,7.567,0,0,1,124.057,117.773Z" transform="translate(-92.902 -93.943)"/><path d="M151.213,178.5a4.807,4.807,0,0,0,3.986-2.12,1.375,1.375,0,1,0-2.277-1.54,2.057,2.057,0,0,1-3.4.018,1.375,1.375,0,1,0-2.261,1.564A4.813,4.813,0,0,0,151.213,178.5Z" transform="translate(-120.068 -142.298)"/><path d="M178.762,240.354a10.307,10.307,0,1,0,10.307-10.307A10.319,10.319,0,0,0,178.762,240.354Zm17.865,0a7.558,7.558,0,1,1-7.558-7.558A7.567,7.567,0,0,1,196.627,240.354Z" transform="translate(-145.999 -187.884)"/><path d="M214.528,289.878a1.375,1.375,0,1,0-2.261,1.564,4.806,4.806,0,0,0,7.942-.043,1.375,1.375,0,1,0-2.277-1.54,2.057,2.057,0,0,1-3.4.019Z" transform="translate(-173.164 -236.241)"/><path d="M59.046,250.662a10.307,10.307,0,1,0-10.307-10.307A10.319,10.319,0,0,0,59.046,250.662Zm0-17.865a7.558,7.558,0,1,1-7.558,7.558A7.567,7.567,0,0,1,59.046,232.8Z" transform="translate(-39.806 -187.885)"/><path d="M86.259,293.52a4.806,4.806,0,0,0,3.986-2.12,1.375,1.375,0,1,0-2.277-1.54,2.057,2.057,0,0,1-3.4.019,1.375,1.375,0,1,0-2.261,1.564A4.813,4.813,0,0,0,86.259,293.52Z" transform="translate(-67.019 -236.241)"/><path d="M27.673,360.951a1.375,1.375,0,0,0-.706-1.811A19.248,19.248,0,0,0,0,376.764a1.375,1.375,0,0,0,2.749,0,16.5,16.5,0,0,1,23.112-15.107A1.375,1.375,0,0,0,27.673,360.951Z" transform="translate(0 -291.998)"/><path d="M308.785,240.355a10.307,10.307,0,1,0,10.307-10.307A10.319,10.319,0,0,0,308.785,240.355Zm10.307-7.558a7.558,7.558,0,1,1-7.558,7.558A7.567,7.567,0,0,1,319.092,232.8Z" transform="translate(-252.191 -187.885)"/><path d="M346.248,293.52a4.806,4.806,0,0,0,3.986-2.12,1.375,1.375,0,1,0-2.277-1.54,2.057,2.057,0,0,1-3.4.019,1.375,1.375,0,1,0-2.261,1.564A4.813,4.813,0,0,0,346.248,293.52Z" transform="translate(-279.357 -236.241)"/><path d="M326.928,357.523a19.1,19.1,0,0,0-7.726,1.615,1.375,1.375,0,1,0,1.105,2.517,16.5,16.5,0,0,1,23.112,15.107,1.375,1.375,0,1,0,2.749,0A19.262,19.262,0,0,0,326.928,357.523Z" transform="translate(-260.027 -291.997)"/><path d="M149.263,357.524a19.262,19.262,0,0,0-19.24,19.24,1.375,1.375,0,0,0,2.749,0,16.491,16.491,0,0,1,32.982,0,1.375,1.375,0,1,0,2.749,0A19.262,19.262,0,0,0,149.263,357.524Z" transform="translate(-106.193 -291.998)"/><path d="M243.773,125.331a10.307,10.307,0,1,0,10.307-10.307A10.319,10.319,0,0,0,243.773,125.331Zm10.307-7.558a7.558,7.558,0,1,1-7.558,7.558A7.566,7.566,0,0,1,254.08,117.773Z" transform="translate(-199.095 -93.943)"/><path d="M281.236,178.5a4.807,4.807,0,0,0,3.986-2.12,1.375,1.375,0,1,0-2.277-1.54,2.057,2.057,0,0,1-3.4.018,1.375,1.375,0,1,0-2.261,1.564A4.814,4.814,0,0,0,281.236,178.5Z" transform="translate(-226.261 -142.298)"/></g></svg>