<svg xmlns="http://www.w3.org/2000/svg" viewBox="0 0 28.291 35"><defs><style>.a{fill:#fbb034;}</style></defs><g transform="translate(0)"><path class="a" d="M149.37,97.4a7.322,7.322,0,1,0,7.318,7.325A7.327,7.327,0,0,0,149.37,97.4Zm0,12.889a5.564,5.564,0,1,1,5.564-5.564A5.569,5.569,0,0,1,149.37,110.289Z" transform="translate(-135.235 -90.426)"/><path class="a" d="M60.983,0c-.165,0-.337,0-.5.007A14.132,14.132,0,0,0,47.1,16.791a4.479,4.479,0,0,0,.1.473,13.516,13.516,0,0,0,.945,2.778c1.454,3.444,4.64,8.75,11.557,14.493a2.037,2.037,0,0,0,2.592,0C69.2,28.8,72.39,23.486,73.836,20.071a13.884,13.884,0,0,0,.952-2.8c.043-.172.072-.315.093-.451A14.133,14.133,0,0,0,60.983,0ZM73.142,16.519c0,.014-.021.136-.072.358a12.879,12.879,0,0,1-.845,2.485c-1.382,3.265-4.418,8.313-11.056,13.82a.289.289,0,0,1-.179.064.3.3,0,0,1-.179-.064c-6.638-5.514-9.681-10.562-11.07-13.848A12.334,12.334,0,0,1,48.9,16.87c-.043-.186-.064-.3-.072-.337,0-.014-.007-.029-.007-.043a12.61,12.61,0,0,1-.165-3.559,12.385,12.385,0,0,1,24.711,1.21A12.848,12.848,0,0,1,73.142,16.519Z" transform="translate(-46.848 0)"/></g></svg>