<svg xmlns="http://www.w3.org/2000/svg" width="25" height="24" viewBox="0 0 25 24" fill="none"><path fill-rule="evenodd" clip-rule="evenodd" d="M13.4977 2.54291L20.4547 7.35291C21.5363 8.10138 22.1804 9.32124 22.1813 10.6229V17.7529C22.1786 18.8854 21.7191 19.9704 20.9039 20.7693C20.0887 21.5682 18.9845 22.0156 17.8344 22.0129H6.37813C5.22796 22.0156 4.12382 21.5682 3.30862 20.7693C2.49343 19.9704 2.03394 18.8854 2.03125 17.7529V10.6229C2.03211 9.32124 2.6762 8.10138 3.75781 7.35291L10.7148 2.54291C11.4968 1.81903 12.7157 1.81903 13.4977 2.54291ZM19.8266 19.7087C20.3561 19.1911 20.6551 18.4876 20.6578 17.7529V10.6229C20.6436 9.82531 20.2436 9.08228 19.5813 8.62291L12.6242 3.81291L12.5125 3.73291C12.4055 3.62541 12.2591 3.56483 12.1063 3.56483C11.9534 3.56483 11.807 3.62541 11.7 3.73291L11.5883 3.81291L4.63125 8.62291C3.96887 9.08228 3.56891 9.82531 3.55469 10.6229V17.7529C3.55738 18.4876 3.85636 19.1911 4.38585 19.7087C4.91535 20.2263 5.63199 20.5156 6.37813 20.5129H17.8344C18.5805 20.5156 19.2971 20.2263 19.8266 19.7087Z" fill="#0B1C3F"></path><path d="M18.2713 11.0128L12.6448 14.8828C12.4782 15.0469 12.2495 15.1348 12.0141 15.1253C11.7787 15.1158 11.5581 15.0097 11.4057 14.8328L5.94165 11.0128C5.72216 10.8259 5.41388 10.778 5.14662 10.8893C4.87936 11.0007 4.69955 11.2518 4.6829 11.5371C4.66625 11.8223 4.81566 12.0921 5.06821 12.2328L10.451 16.0128C10.8924 16.4174 11.473 16.6425 12.076 16.6428C12.6432 16.6287 13.1839 16.4036 13.5893 16.0128L19.1448 12.1928C19.4641 11.9601 19.5482 11.5247 19.3377 11.1928C19.0916 10.8565 18.6172 10.7764 18.2713 11.0128Z" fill="#0B1C3F"></path></svg>