<svg xmlns="http://www.w3.org/2000/svg" xmlns:xlink="http://www.w3.org/1999/xlink" width="842" height="418" viewBox="0 0 842 418"><defs><clipPath id="clip-path"><rect id="Rectangle_74" data-name="Rectangle 74" width="842" height="418" rx="48" transform="translate(478 6670)" fill="#7bd378"></rect></clipPath></defs><g id="Group_128" data-name="Group 128" transform="translate(-478 -6670)"><g id="Mask_Group" data-name="Mask Group" opacity="0.5"><g id="Rectangle_74-2" data-name="Rectangle 74" clip-path="url(#clip-path)"><g id="Group_127" data-name="Group 127"><path id="Vector_1" data-name="Vector 1" d="M102.5,19.5C81,90.333,90.9,232.6,302.5,235c264.5,3,294-98.5,392.5,0,78.8,78.8,225.5,32.833,289,0M947.5,394c-37,43.667-137.2,104.8-242,0-131-131-295,91.5-386.5,0S61,252.5,61,136C61,42.8,55.333,6.5,52.5,0M770,57.5c-33,13.871-99,53.09-99,99,0,57.387-12,164-164,164s-507,164-507,0V104" transform="translate(503 6568)" fill="none" stroke="#fff" stroke-width="1"></path></g></g></g></g></svg>