<?xml version="1.0" encoding="UTF-8"?> <svg xmlns="http://www.w3.org/2000/svg" id="coin-stack" width="37.143" height="33.004" viewBox="0 0 37.143 33.004"><g id="Group_552" data-name="Group 552" style=" fill: #2be6ff;"><path id="Path_45" data-name="Path 45" d="M10.793,122.86a23.135,23.135,0,0,0,3.008-.193V112.2a23.151,23.151,0,0,0-3.008-.193C4.833,112.009,0,114.2,0,116.9v1.061C0,120.668,4.833,122.86,10.793,122.86Z" transform="translate(-0.001 -103.719)"></path><path id="Path_46" data-name="Path 46" d="M10.793,220.133a23.16,23.16,0,0,0,3.008-.193v-3.067a23.142,23.142,0,0,1-3.008.194c-5.2,0-9.545-1.67-10.565-3.892a2.387,2.387,0,0,0-.227,1v1.061C0,217.941,4.833,220.133,10.793,220.133Z" transform="translate(-0.001 -195.528)"></path><path id="Path_47" data-name="Path 47" d="M13.8,276.195v-.238a23.155,23.155,0,0,1-3.008.194c-5.2,0-9.545-1.67-10.565-3.892a2.387,2.387,0,0,0-.227,1v1.061c0,2.7,4.832,4.895,10.792,4.895a22.929,22.929,0,0,0,3.41-.25,3.861,3.861,0,0,1-.4-1.711Z" transform="translate(0 -249.147)"></path><path id="Path_48" data-name="Path 48" d="M179.031,22.379c-5.96,0-10.792,2.191-10.792,4.895v1.061c0,2.7,4.832,4.895,10.792,4.895s10.792-2.191,10.792-4.895V27.274C189.822,24.57,184.991,22.379,179.031,22.379Z" transform="translate(-152.679 -22.379)"></path><path id="Path_49" data-name="Path 49" d="M179.031,127.436c-5.2,0-9.545-1.67-10.565-3.892a2.386,2.386,0,0,0-.227,1v1.062c0,2.7,4.832,4.895,10.792,4.895s10.792-2.191,10.792-4.895v-1.062a2.386,2.386,0,0,0-.227-1C188.575,125.766,184.233,127.436,179.031,127.436Z" transform="translate(-152.679 -114.187)"></path><path id="Path_50" data-name="Path 50" d="M179.031,186.52c-5.2,0-9.545-1.67-10.565-3.892a2.387,2.387,0,0,0-.227,1v1.061c0,2.7,4.832,4.895,10.792,4.895s10.792-2.191,10.792-4.895v-1.061a2.386,2.386,0,0,0-.227-1C188.575,184.85,184.233,186.52,179.031,186.52Z" transform="translate(-152.679 -167.807)"></path><path id="Path_51" data-name="Path 51" d="M179.031,248.793c-5.2,0-9.545-1.67-10.565-3.892a2.387,2.387,0,0,0-.227,1v1.062c0,2.7,4.832,4.895,10.792,4.895s10.792-2.191,10.792-4.895V245.9a2.386,2.386,0,0,0-.227-1C188.575,247.123,184.233,248.793,179.031,248.793Z" transform="translate(-152.679 -224.32)"></path><path id="Path_52" data-name="Path 52" d="M179.031,307.876c-5.2,0-9.545-1.67-10.565-3.892a2.387,2.387,0,0,0-.227,1v1.061c0,2.7,4.832,4.895,10.792,4.895s10.792-2.191,10.792-4.895v-1.062a2.386,2.386,0,0,0-.227-1C188.575,306.206,184.233,307.876,179.031,307.876Z" transform="translate(-152.679 -277.939)"></path></g></svg> 