<?xml version="1.0" encoding="UTF-8"?> <svg xmlns="http://www.w3.org/2000/svg" id="pie-chart" width="33.999" height="33.915" viewBox="0 0 33.999 33.915" style="fill: #FF3939;"><path id="Path_43" data-name="Path 43" d="M27.817,74.409H15.788V62.38a1.231,1.231,0,0,0-1.253-1.253A14.334,14.334,0,0,0,4.26,65.387,14.531,14.531,0,0,0,14.535,90.2a14.334,14.334,0,0,0,10.275-4.26,14.549,14.549,0,0,0,4.26-10.275A1.231,1.231,0,0,0,27.817,74.409Z" transform="translate(0 -56.282)" style="fill: #FF3939;"></path><path id="Path_44" data-name="Path 44" d="M239.317,4.782A14.549,14.549,0,0,0,229.042.522a1.231,1.231,0,0,0-1.253,1.253V15.057a1.231,1.231,0,0,0,1.253,1.253h13.282a1.231,1.231,0,0,0,1.253-1.253A14.549,14.549,0,0,0,239.317,4.782Z" transform="translate(-209.578 -0.522)" style="fill: #FF3939;"></path></svg> 