<?xml version="1.0" encoding="UTF-8"?> <svg xmlns="http://www.w3.org/2000/svg" id="presentation_1_" data-name="presentation (1)" width="31.013" height="33.004" viewBox="0 0 31.013 33.004" style=" fill: #ffd834;"><path id="Path_53" data-name="Path 53" d="M54.324,1.577H75.349a.789.789,0,1,0,0-1.577H54.324a.789.789,0,1,0,0,1.577Zm0,0" transform="translate(-49.33 0)"></path><path id="Path_54" data-name="Path 54" d="M27.292,49.984H4.167A3.948,3.948,0,0,0,.223,53.928V69.345a3.948,3.948,0,0,0,3.944,3.944h.689l-1.732,1.5A.789.789,0,1,0,4.155,75.98l3.111-2.692H14.94v4.969a.789.789,0,1,0,1.577,0V73.288H24.3l3,2.651a.789.789,0,1,0,1.045-1.182l-1.662-1.47h.612a3.948,3.948,0,0,0,3.944-3.944V53.928a3.948,3.948,0,0,0-3.944-3.944ZM6.343,55.919h8.518a.789.789,0,0,1,0,1.577H6.343a.789.789,0,0,1,0-1.577ZM25.115,66.961H6.343a.789.789,0,0,1,0-1.577H25.115a.789.789,0,0,1,0,1.577Zm0-4.732H6.343a.789.789,0,0,1,0-1.577H25.115a.789.789,0,0,1,0,1.577Zm0,0" transform="translate(-0.223 -46.042)"></path></svg> 