<svg xmlns="http://www.w3.org/2000/svg" xmlns:xlink="http://www.w3.org/1999/xlink" width="1920" height="654" viewBox="0 0 1920 654">
  <defs>
    <clipPath id="clip-path">
      <rect id="Rectangle_185" data-name="Rectangle 185" width="1920" height="654" transform="translate(0 6417)" fill="#fff" stroke="#707070" stroke-width="1"/>
    </clipPath>
  </defs>
  <g id="Mask_Group_5" data-name="Mask Group 5" transform="translate(0 -6417)" clip-path="url(#clip-path)">
    <path id="Path_131" data-name="Path 131" d="M687.292,166.912c-30.2-6.39-67.395-10.456-86.546,13.754-6.109,7.726-9.28,17.316-12.189,26.728-83.661,270.52-46.734,561.292-21.784,843.352,28.816,325.76-174.475,811.187-23.247,1101.15,51.49,98.729,162.269,112.644,259.272,72.723,234.752-96.613,234.649-387.827,184.627-587.275-27.732-110.573-70.234-242.765-33.841-355.586,31.983-99.136,164.925-158.254,251.236-213.312,137.463-87.693,157.773-232.773,150.334-362.928-4.744-82.956,16.4-179.786,62.978-227.232,132.725-135.208,355.271-53.061,357.886-272.567,1.52-127.327-81.843-188.585-196.724-208.029-60.328-10.21-105.119,17.178-162.3,21.515-61.286,4.652-81.259-42.547-186.554-.39" transform="translate(34.886 8105.107) rotate(-104)" fill="#0300df"/>
    <path id="Path_132" data-name="Path 132" d="M642.686,128.722c-23.473-4.967-52.386-8.128-67.272,10.691-4.748,6.005-7.214,13.46-9.474,20.776-65.03,210.275-36.327,436.292-16.933,655.536,22.4,253.213-135.619,630.534-18.07,855.922,40.023,76.742,126.132,87.558,201.531,56.528,182.472-75.1,182.392-301.457,143.51-456.488-21.556-85.948-54.593-188.7-26.3-276.4,24.86-77.058,128.2-123.011,195.286-165.807,106.849-68.164,122.636-180.934,116.854-282.1-3.687-64.481,12.746-139.748,48.953-176.627,103.167-105.1,276.152-41.244,278.185-211.866,1.181-98.971-63.616-146.587-152.913-161.7-46.893-7.936-81.709,13.353-126.154,16.723-47.638,3.616-96.461-4.98-145.008-.3" transform="translate(-75.739 8131.223) rotate(-104)" fill="rgba(3,0,223,0)" stroke="#ffca1a" stroke-width="2"/>
  </g>
</svg>
