<svg xmlns="http://www.w3.org/2000/svg" xmlns:xlink="http://www.w3.org/1999/xlink" width="1200" height="300" viewBox="0 0 1200 300"><defs><linearGradient id="a" y1="0.034" x2="1" y2="1" gradientUnits="objectBoundingBox"><stop offset="0" stop-color="#5a79ed"></stop><stop offset="1" stop-color="#5351fb"></stop></linearGradient><clipPath id="b"><rect width="1200" height="300" rx="20" transform="translate(360 4380)" fill="url(#a)"></rect></clipPath></defs><g transform="translate(-360 -4380)" clip-path="url(#b)"><circle cx="4.291" cy="4.291" r="4.291" transform="translate(1087.496 4674.594) rotate(25)" fill="#fff" opacity="0.07"></circle><circle cx="2.269" cy="2.269" r="2.269" transform="translate(1172.64 4400.423) rotate(74)" fill="#fff" opacity="0.07"></circle><circle cx="4.076" cy="4.076" r="4.076" transform="translate(1331.28 4516.667) rotate(-161)" fill="#fff" opacity="0.07"></circle><circle cx="2.212" cy="2.212" r="2.212" transform="translate(1244.171 4562.613) rotate(-141)" fill="#fff" opacity="0.07"></circle><circle cx="3.687" cy="3.687" r="3.687" transform="translate(953.091 4480.055) rotate(138)" fill="#fff" opacity="0.07"></circle><circle cx="2.672" cy="2.672" r="2.672" transform="translate(408.246 4661.35) rotate(110)" fill="#fff" opacity="0.07"></circle><circle cx="3.408" cy="3.408" r="3.408" transform="matrix(-0.616, 0.788, -0.788, -0.616, 740.035, 4507.127)" fill="#fff" opacity="0.07"></circle><circle cx="4.139" cy="4.139" r="4.139" transform="matrix(0.035, 0.999, -0.999, 0.035, 509.691, 4470.717)" fill="#fff" opacity="0.07"></circle><ellipse cx="193.461" cy="193.461" rx="193.461" ry="193.461" transform="translate(140.664 4517.958)" fill="#fff" opacity="0.04"></ellipse><circle cx="185.513" cy="185.513" r="185.513" transform="translate(1333.146 4507.021)" fill="#fff" opacity="0.04"></circle><circle cx="231.92" cy="231.92" r="231.92" transform="translate(651.499 4152.205)" fill="#fff" opacity="0.04"></circle><circle cx="140.384" cy="140.384" r="140.384" transform="translate(736.716 4250.062)" fill="#fff" opacity="0.04"></circle><circle cx="164.384" cy="164.384" r="164.384" transform="translate(1260.716 4130.062)" fill="#fff" opacity="0.04"></circle><path d="M1.5,0C7.468,0,13.071.011,18.511.033,98.964.355,93.361,3,1.5,3a1.5,1.5,0,1,1,0-3Z" transform="translate(1257.48 4396.6) rotate(135)" fill="rgba(255,255,255,0.9)" opacity="0.07"></path><path d="M1.5,0C7.468,0,13.071.011,18.511.033,98.964.355,93.361,3,1.5,3a1.5,1.5,0,1,1,0-3Z" transform="translate(1550.48 4385.6) rotate(135)" fill="rgba(255,255,255,0.9)" opacity="0.07"></path><path d="M1.5,0C7.468,0,13.071.011,18.511.033,98.964.355,93.361,3,1.5,3a1.5,1.5,0,1,1,0-3Z" transform="translate(378.48 4570.6) rotate(135)" fill="rgba(255,255,255,0.9)" opacity="0.07"></path><path d="M1.5,0C7.468,0,13.071.011,18.511.033,98.964.355,93.361,3,1.5,3a1.5,1.5,0,1,1,0-3Z" transform="translate(671.48 4559.6) rotate(135)" fill="rgba(255,255,255,0.9)" opacity="0.07"></path><path d="M1.3,0C6.464,0,11.315.01,16.025.029,85.67.307,80.82,2.6,1.3,2.6A1.3,1.3,0,0,1,1.3,0Z" transform="translate(568.096 4362.237) rotate(135)" fill="rgba(255,255,255,0.9)" opacity="0.07"></path><path d="M1.5,0C7.468,0,13.071.011,18.511.033,98.964.355,93.361,3,1.5,3a1.5,1.5,0,1,1,0-3Z" transform="translate(706.48 4424.6) rotate(135)" fill="rgba(255,255,255,0.9)" opacity="0.07"></path><path d="M1.3,0C6.464,0,11.315.01,16.025.029,85.67.307,80.82,2.6,1.3,2.6A1.3,1.3,0,0,1,1.3,0Z" transform="translate(1449.25 4668.209) rotate(135)" fill="rgba(255,255,255,0.9)" opacity="0.07"></path><path d="M1.5,0C7.468,0,13.071.011,18.511.033,98.964.355,93.361,3,1.5,3a1.5,1.5,0,1,1,0-3Z" transform="translate(935.48 4368.6) rotate(135)" fill="rgba(255,255,255,0.9)" opacity="0.07"></path><path d="M1.3,0C6.464,0,11.315.01,16.025.029,85.67.307,80.82,2.6,1.3,2.6A1.3,1.3,0,0,1,1.3,0Z" transform="translate(1143.429 4347.687) rotate(135)" fill="rgba(255,255,255,0.9)" opacity="0.07"></path><path d="M1.5,0C7.468,0,13.071.011,18.511.033,98.964.355,93.361,3,1.5,3a1.5,1.5,0,1,1,0-3Z" transform="translate(857.48 4604.6) rotate(135)" fill="rgba(255,255,255,0.9)" opacity="0.07"></path><path d="M1.5,0C7.468,0,13.071.011,18.511.033,98.964.355,93.361,3,1.5,3a1.5,1.5,0,1,1,0-3Z" transform="translate(547.48 4410.6) rotate(135)" fill="rgba(255,255,255,0.9)" opacity="0.07"></path><path d="M1.5,0C7.468,0,13.071.011,18.511.033,98.964.355,93.361,3,1.5,3a1.5,1.5,0,1,1,0-3Z" transform="translate(456.48 4549.6) rotate(135)" fill="rgba(255,255,255,0.9)" opacity="0.07"></path><path d="M1.3,0C6.464,0,11.315.01,16.025.029,85.67.307,80.82,2.6,1.3,2.6A1.3,1.3,0,0,1,1.3,0Z" transform="translate(1044.025 4511.192) rotate(135)" fill="rgba(255,255,255,0.9)" opacity="0.07"></path><path d="M1.5,0C7.468,0,13.071.011,18.511.033,98.964.355,93.361,3,1.5,3a1.5,1.5,0,1,1,0-3Z" transform="translate(1150.48 4593.6) rotate(135)" fill="rgba(255,255,255,0.9)" opacity="0.07"></path><path d="M1.3,0C6.464,0,11.315.01,16.025.029,85.67.307,80.82,2.6,1.3,2.6A1.3,1.3,0,0,1,1.3,0Z" transform="translate(1410.951 4501.67) rotate(135)" fill="rgba(255,255,255,0.9)" opacity="0.07"></path><path d="M1.5,0C7.468,0,13.071.011,18.511.033,98.964.355,93.361,3,1.5,3a1.5,1.5,0,1,1,0-3Z" transform="translate(504.48 4637.6) rotate(135)" fill="rgba(255,255,255,0.9)" opacity="0.07"></path><path d="M1.3,0C6.464,0,11.315.01,16.025.029,85.67.307,80.82,2.6,1.3,2.6A1.3,1.3,0,0,1,1.3,0Z" transform="translate(-2.904 3778.836) rotate(135)" fill="rgba(255,255,255,0.9)" opacity="0.07"></path><path d="M1.5,0C7.468,0,13.071.011,18.511.033,98.964.355,93.361,3,1.5,3a1.5,1.5,0,1,1,0-3Z" transform="translate(387.48 4424.6) rotate(135)" fill="rgba(255,255,255,0.9)" opacity="0.07"></path></g></svg>