<svg xmlns="http://www.w3.org/2000/svg" xmlns:xlink="http://www.w3.org/1999/xlink" width="1920" height="686.876" viewBox="0 0 1920 686.876"><defs><clipPath id="a"><path d="M1920,686.876H0V50.4S96.625-5.845,273.73.5,489.566,99.015,715.38,108.03s299.707-76.743,514.8-67.924,242.763,89.437,389.111,94.083S1920,50.4,1920,50.4Z" transform="translate(-0.011 308)" fill="rgba(255,255,255,0.06)"></path></clipPath></defs><g transform="translate(0.011 -308)"><g clip-path="url(#a)"><path d="M1920,990.71H0V74.1S183.8,14.308,464.622,1.236s697.823,81.836,697.823,81.836,210.008,47.385,399.4,26.926S1920,1.236,1920,1.236Z" transform="translate(0 0)" fill="none"></path><ellipse cx="439.488" cy="439.488" rx="439.488" ry="439.488" transform="translate(1360.835 650.898)" fill="rgba(255,255,255,0.06)" opacity="0.25"></ellipse><ellipse cx="319.607" cy="319.607" rx="319.607" ry="319.607" transform="translate(-149.607 47.103)" fill="rgba(255,255,255,0.06)" opacity="0.36"></ellipse><ellipse cx="317.607" cy="317.607" rx="317.607" ry="317.607" transform="translate(832.231 -34.735)" fill="rgba(255,255,255,0.06)" opacity="0.36"></ellipse><ellipse cx="317.607" cy="317.607" rx="317.607" ry="317.607" transform="translate(23.231 863.265)" fill="rgba(255,255,255,0.06)" opacity="0.36"></ellipse><ellipse cx="16.458" cy="16.458" rx="16.458" ry="16.458" transform="translate(58.796 214.037)" fill="rgba(255,255,255,0.06)" opacity="0.815"></ellipse><ellipse cx="3.276" cy="3.276" rx="3.276" ry="3.276" transform="translate(34.476 718.042)" fill="rgba(255,255,255,0.06)" opacity="0.874"></ellipse><ellipse cx="6.618" cy="6.618" rx="6.618" ry="6.618" transform="translate(938.709 63.277)" fill="rgba(255,255,255,0.06)" opacity="0.916"></ellipse><ellipse cx="10.694" cy="10.694" rx="10.694" ry="10.694" transform="translate(1249.117 525.898)" fill="rgba(255,255,255,0.06)" opacity="0.904"></ellipse><ellipse cx="3.858" cy="3.858" rx="3.858" ry="3.858" transform="translate(1128.973 978.258)" fill="rgba(255,255,255,0.06)" opacity="0.909"></ellipse><ellipse cx="6.775" cy="6.775" rx="6.775" ry="6.775" transform="translate(1572.958 153.179)" fill="rgba(255,255,255,0.06)" opacity="0.954"></ellipse><ellipse cx="11.903" cy="11.903" rx="11.903" ry="11.903" transform="translate(1667.107 721.667)" fill="rgba(255,255,255,0.06)" opacity="0.915"></ellipse><ellipse cx="11.903" cy="11.903" rx="11.903" ry="11.903" transform="translate(75.107 863.667)" fill="rgba(255,255,255,0.06)" opacity="0.915"></ellipse><ellipse cx="13.379" cy="13.379" rx="13.379" ry="13.379" transform="translate(1814.326 939.991)" fill="rgba(255,255,255,0.06)" opacity="0.837"></ellipse><ellipse cx="258.969" cy="258.969" rx="258.969" ry="258.969" transform="translate(1541.354 831.418)" fill="rgba(255,255,255,0.06)" opacity="0.2"></ellipse><ellipse cx="193.461" cy="193.461" rx="193.461" ry="193.461" transform="translate(-32.171 181.958)" fill="rgba(255,255,255,0.06)" opacity="0.53"></ellipse><ellipse cx="187.15" cy="187.15" rx="187.15" ry="187.15" transform="translate(962.688 95.721)" fill="rgba(255,255,255,0.06)" opacity="0.53"></ellipse><path d="M1.5,0C7.468,0,13.071.011,18.511.033,98.964.355,93.361,3,1.5,3a1.5,1.5,0,1,1,0-3Z" transform="translate(1167.646 698.6) rotate(135)" fill="rgba(255,255,255,0.06)"></path><path d="M1.5,0C7.468,0,13.071.011,18.511.033,98.964.355,93.361,3,1.5,3a1.5,1.5,0,1,1,0-3Z" transform="translate(1460.646 687.6) rotate(135)" fill="rgba(255,255,255,0.06)"></path><path d="M1.5,0C7.468,0,13.071.011,18.511.033,98.964.355,93.361,3,1.5,3a1.5,1.5,0,1,1,0-3Z" transform="translate(288.646 872.6) rotate(135)" fill="rgba(255,255,255,0.06)"></path><path d="M1.5,0C7.468,0,13.071.011,18.511.033,98.964.355,93.361,3,1.5,3a1.5,1.5,0,1,1,0-3Z" transform="translate(581.646 861.6) rotate(135)" fill="rgba(255,255,255,0.06)"></path><path d="M1.3,0C6.464,0,11.315.01,16.025.029,85.67.307,80.82,2.6,1.3,2.6A1.3,1.3,0,0,1,1.3,0Z" transform="translate(478.261 664.237) rotate(135)" fill="rgba(255,255,255,0.06)"></path><path d="M1.5,0C7.468,0,13.071.011,18.511.033,98.964.355,93.361,3,1.5,3a1.5,1.5,0,1,1,0-3Z" transform="translate(756.646 422.6) rotate(135)" fill="rgba(255,255,255,0.06)"></path><path d="M1.3,0C6.464,0,11.315.01,16.025.029,85.67.307,80.82,2.6,1.3,2.6A1.3,1.3,0,0,1,1.3,0Z" transform="translate(1725.415 537.209) rotate(135)" fill="rgba(255,255,255,0.06)"></path><path d="M1.5,0C7.468,0,13.071.011,18.511.033,98.964.355,93.361,3,1.5,3a1.5,1.5,0,1,1,0-3Z" transform="translate(977.646 457.6) rotate(135)" fill="rgba(255,255,255,0.06)"></path><path d="M1.3,0C6.464,0,11.315.01,16.025.029,85.67.307,80.82,2.6,1.3,2.6A1.3,1.3,0,0,1,1.3,0Z" transform="translate(1311.594 384.687) rotate(135)" fill="rgba(255,255,255,0.06)"></path><path d="M1.5,0C7.468,0,13.071.011,18.511.033,98.964.355,93.361,3,1.5,3a1.5,1.5,0,1,1,0-3Z" transform="translate(767.646 906.6) rotate(135)" fill="rgba(255,255,255,0.06)"></path><path d="M1.3,0C6.464,0,11.315.01,16.025.029,85.67.307,80.82,2.6,1.3,2.6A1.3,1.3,0,0,1,1.3,0Z" transform="translate(954.19 813.192) rotate(135)" fill="rgba(255,255,255,0.06)"></path><path d="M1.5,0C7.468,0,13.071.011,18.511.033,98.964.355,93.361,3,1.5,3a1.5,1.5,0,1,1,0-3Z" transform="translate(1060.646 895.6) rotate(135)" fill="rgba(255,255,255,0.06)"></path><path d="M1.3,0C6.464,0,11.315.01,16.025.029,85.67.307,80.82,2.6,1.3,2.6A1.3,1.3,0,0,1,1.3,0Z" transform="translate(1321.116 803.67) rotate(135)" fill="rgba(255,255,255,0.06)"></path><path d="M1.5,0C7.468,0,13.071.011,18.511.033,98.964.355,93.361,3,1.5,3a1.5,1.5,0,1,1,0-3Z" transform="translate(169.646 667.6) rotate(135)" fill="rgba(255,255,255,0.06)"></path><path d="M1.3,0C6.464,0,11.315.01,16.025.029,85.67.307,80.82,2.6,1.3,2.6A1.3,1.3,0,0,1,1.3,0Z" transform="translate(-92.739 80.836) rotate(135)" fill="rgba(255,255,255,0.06)"></path><path d="M1.5,0C7.468,0,13.071.011,18.511.033,98.964.355,93.361,3,1.5,3a1.5,1.5,0,1,1,0-3Z" transform="translate(535.646 393.6) rotate(135)" fill="rgba(255,255,255,0.06)"></path></g></g></svg>