<svg xmlns="http://www.w3.org/2000/svg" xmlns:xlink="http://www.w3.org/1999/xlink" width="1920" height="1039.876" viewBox="0 0 1920 1039.876"><defs><clipPath id="a"><path d="M0,0H1920V989.474s-96.625,56.248-273.73,49.9-215.836-98.516-441.65-107.531-299.707,76.743-514.8,67.924S447.06,910.333,300.712,905.687,0,989.474,0,989.474Z" transform="translate(0 -2)" fill="#fff" opacity="0.07"></path></clipPath></defs><g transform="translate(0 2)" clip-path="url(#a)"><ellipse cx="439.488" cy="439.488" rx="439.488" ry="439.488" transform="translate(504.188 -416.164)" fill="#fff" opacity="0.04"></ellipse><ellipse cx="422" cy="422" rx="422" ry="422" transform="translate(1360 603)" fill="#fff" opacity="0.04"></ellipse><ellipse cx="207.731" cy="207.731" rx="207.731" ry="207.731" transform="translate(-164.231 -184.231)" fill="#fff" opacity="0.04"></ellipse><ellipse cx="317.607" cy="317.607" rx="317.607" ry="317.607" transform="translate(330.555 654.232)" fill="#fff" opacity="0.04"></ellipse><ellipse cx="398.315" cy="398.315" rx="398.315" ry="398.315" transform="translate(-543.815 416.185)" fill="#fff" opacity="0.05"></ellipse><circle cx="16.458" cy="16.458" r="16.458" transform="translate(1828.287 743.756)" fill="#fff" opacity="0.07"></circle><circle cx="12.679" cy="12.679" r="12.679" transform="translate(1399.714 444.881)" fill="#fff" opacity="0.07"></circle><circle cx="14.276" cy="14.276" r="14.276" transform="translate(1867.972 255.116)" fill="#fff" opacity="0.07"></circle><circle cx="6.618" cy="6.618" r="6.618" transform="translate(968.055 914.197)" fill="#fff" opacity="0.07"></circle><circle cx="10.694" cy="10.694" r="10.694" transform="translate(649.495 443.423)" fill="#fff" opacity="0.07"></circle><circle cx="3.858" cy="3.858" r="3.858" transform="translate(783.312 4.736)" fill="#fff" opacity="0.07"></circle><circle cx="6.775" cy="6.775" r="6.775" transform="translate(333.492 823.98)" fill="#fff" opacity="0.07"></circle><circle cx="11.903" cy="11.903" r="11.903" transform="translate(229.086 245.237)" fill="#fff" opacity="0.07"></circle><circle cx="11.903" cy="11.903" r="11.903" transform="translate(1821.086 103.237)" fill="#fff" opacity="0.07"></circle><circle cx="13.379" cy="13.379" r="13.379" transform="translate(78.916 23.961)" fill="#fff" opacity="0.07"></circle><ellipse cx="258.969" cy="258.969" rx="258.969" ry="258.969" transform="translate(684.708 -235.645)" fill="#fff" opacity="0.05"></ellipse><ellipse cx="255.441" cy="255.441" rx="255.441" ry="255.441" transform="translate(1538.06 758.059)" fill="#fff" opacity="0.05"></ellipse><ellipse cx="122.406" cy="122.406" rx="122.406" ry="122.406" transform="translate(-78.906 -98.906)" fill="#fff" opacity="0.07"></ellipse><ellipse cx="187.15" cy="187.15" rx="187.15" ry="187.15" transform="translate(461.011 784.688)" fill="#fff" opacity="0.07"></ellipse><ellipse cx="234.708" cy="234.708" rx="234.708" ry="234.708" transform="translate(-380.208 579.792)" fill="#fff" opacity="0.03"></ellipse><path d="M1.5,0C7.468,0,13.071.011,18.511.033,98.964.355,93.361,3,1.5,3a1.5,1.5,0,0,1,0-3Z" transform="translate(354.354 287.11) rotate(-45)" fill="#fff" opacity="0.07"></path><path d="M1.5,0C7.468,0,13.071.011,18.511.033,98.964.355,93.361,3,1.5,3a1.5,1.5,0,0,1,0-3Z" transform="translate(61.354 298.11) rotate(-45)" fill="#fff" opacity="0.07"></path><path d="M1.5,0C7.468,0,13.071.011,18.511.033,98.964.355,93.361,3,1.5,3a1.5,1.5,0,0,1,0-3Z" transform="translate(1233.354 113.11) rotate(-45)" fill="#fff" opacity="0.07"></path><path d="M1.5,0C7.468,0,13.071.011,18.511.033,98.964.355,93.361,3,1.5,3a1.5,1.5,0,0,1,0-3Z" transform="translate(940.354 124.11) rotate(-45)" fill="#fff" opacity="0.07"></path><path d="M1.3,0C6.464,0,11.315.01,16.025.029,85.67.307,80.82,2.6,1.3,2.6A1.3,1.3,0,0,1,1.3,0Z" transform="translate(800.739 211.472) rotate(-45)" fill="#fff" opacity="0.07"></path><path d="M1.5,0C7.468,0,13.071.011,18.511.033,98.964.355,93.361,3,1.5,3a1.5,1.5,0,0,1,0-3Z" transform="translate(765.354 563.11) rotate(-45)" fill="#fff" opacity="0.07"></path><path d="M1.5,0C7.468,0,13.071.011,18.511.033,98.964.355,93.361,3,1.5,3a1.5,1.5,0,0,1,0-3Z" transform="translate(807.354 780.11) rotate(-45)" fill="#fff" opacity="0.07"></path><path d="M1.3,0C6.464,0,11.315.01,16.025.029,85.67.307,80.82,2.6,1.3,2.6A1.3,1.3,0,0,1,1.3,0Z" transform="translate(535.585 756.501) rotate(-45)" fill="#fff" opacity="0.07"></path><path d="M1.5,0C7.468,0,13.071.011,18.511.033,98.964.355,93.361,3,1.5,3a1.5,1.5,0,0,1,0-3Z" transform="translate(472.354 574.11) rotate(-45)" fill="#fff" opacity="0.07"></path><path d="M1.3,0C6.464,0,11.315.01,16.025.029,85.67.307,80.82,2.6,1.3,2.6A1.3,1.3,0,0,1,1.3,0Z" transform="translate(210.406 601.023) rotate(-45)" fill="#fff" opacity="0.07"></path><path d="M1.5,0C7.468,0,13.071.011,18.511.033,98.964.355,93.361,3,1.5,3a1.5,1.5,0,0,1,0-3Z" transform="translate(754.354 79.11) rotate(-45)" fill="#fff" opacity="0.07"></path><path d="M1.3,0C6.464,0,11.315.01,16.025.029,85.67.307,80.82,2.6,1.3,2.6A1.3,1.3,0,0,1,1.3,0Z" transform="translate(567.81 172.517) rotate(-45)" fill="#fff" opacity="0.07"></path><path d="M1.5,0C7.468,0,13.071.011,18.511.033,98.964.355,93.361,3,1.5,3a1.5,1.5,0,0,1,0-3Z" transform="translate(461.354 90.11) rotate(-45)" fill="#fff" opacity="0.07"></path><path d="M1.3,0C6.464,0,11.315.01,16.025.029,85.67.307,80.82,2.6,1.3,2.6A1.3,1.3,0,0,1,1.3,0Z" transform="translate(200.884 182.04) rotate(-45)" fill="#fff" opacity="0.07"></path><path d="M1.5,0C7.468,0,13.071.011,18.511.033,98.964.355,93.361,3,1.5,3a1.5,1.5,0,0,1,0-3Z" transform="translate(1590.354 925.11) rotate(-45)" fill="#fff" opacity="0.07"></path><path d="M1.3,0C6.464,0,11.315.01,16.025.029,85.67.307,80.82,2.6,1.3,2.6A1.3,1.3,0,0,1,1.3,0Z" transform="translate(1810.739 936.873) rotate(-45)" fill="#fff" opacity="0.07"></path><path d="M1.5,0C7.468,0,13.071.011,18.511.033,98.964.355,93.361,3,1.5,3a1.5,1.5,0,0,1,0-3Z" transform="translate(1297.354 936.11) rotate(-45)" fill="#fff" opacity="0.07"></path></g></svg>