<?xml version="1.0" encoding="UTF-8"?> <svg xmlns="http://www.w3.org/2000/svg" width="40" height="40" viewBox="0 0 40 40"><defs><style>.a{fill:#fff;}</style></defs><g transform="translate(0)"><g transform="translate(21.016 30)"><path class="a" d="M270.333,384.229a.781.781,0,1,0,.229.552A.787.787,0,0,0,270.333,384.229Z" transform="translate(-268.999 -384)"></path></g><g transform="translate(25.068 8.541)"><path class="a" d="M321.658,109.327h-.01a.781.781,0,1,0,0,1.563h.01a.781.781,0,0,0,0-1.562Z" transform="translate(-320.866 -109.327)"></path></g><g transform="translate(28.145 8.541)"><path class="a" d="M367.274,109.326h-6.24a.781.781,0,0,0,0,1.563h6.24a.781.781,0,0,0,0-1.563Z" transform="translate(-360.253 -109.326)"></path></g><g transform="translate(4.844)"><path class="a" d="M96.374,5h-9.45V1.811A1.814,1.814,0,0,0,85.113,0H74.042A1.814,1.814,0,0,0,72.23,1.811V5H62.78A.781.781,0,0,0,62,5.781V13.14a3.894,3.894,0,0,0,1.172,2.786v3.526a.781.781,0,1,0,1.563,0V16.867a3.893,3.893,0,0,0,1.172.18h2.969v0a3.2,3.2,0,0,0,6.406,0v-.01h8.594v.01a3.2,3.2,0,1,0,6.406,0v-.01l2.966.005h0a3.915,3.915,0,0,0,1.172-.179V29.219A.782.782,0,0,1,93.64,30H82.286a.781.781,0,0,0,0,1.563H93.64a2.346,2.346,0,0,0,2.344-2.344V15.927l.027-.026a3.88,3.88,0,0,0,1.145-2.763V5.781A.781.781,0,0,0,96.374,5ZM73.793,1.811a.249.249,0,0,1,.249-.249H85.113a.249.249,0,0,1,.249.249V5H73.793Zm-.075,15.237a1.641,1.641,0,1,1-3.281,0V14.467h3.281Zm15,0a1.641,1.641,0,1,1-3.281,0V14.467h3.281Zm6.875-3.91a2.344,2.344,0,0,1-2.343,2.344h0l-2.968-.005V13.92A1.017,1.017,0,0,0,89.265,12.9H84.89a1.017,1.017,0,0,0-1.016,1.016v1.557H75.28V13.92A1.017,1.017,0,0,0,74.265,12.9H69.89a1.017,1.017,0,0,0-1.016,1.016v1.564H65.905a2.346,2.346,0,0,1-2.344-2.344V6.563H95.593Z" transform="translate(-61.999 0)"></path></g><g transform="translate(19.934 18.671)"><path class="a" d="M257.639,242.794a.781.781,0,1,1,.926-.768.781.781,0,0,0,1.563,0,2.354,2.354,0,0,0-1.707-2.212v-.041a.781.781,0,0,0-1.562,0v.041a2.354,2.354,0,0,0-1.707,2.212,2.416,2.416,0,0,0,2.488,2.33.781.781,0,1,1-.926.768.781.781,0,1,0-1.562,0,2.354,2.354,0,0,0,1.708,2.212.781.781,0,0,0,1.561,0,2.354,2.354,0,0,0,1.708-2.212A2.416,2.416,0,0,0,257.639,242.794Z" transform="translate(-255.151 -238.992)"></path></g><g transform="translate(5 25.938)"><path class="a" d="M68.53,332a4.531,4.531,0,1,0,4.531,4.531A4.536,4.536,0,0,0,68.53,332Zm0,7.5a2.969,2.969,0,1,1,2.969-2.969A2.972,2.972,0,0,1,68.53,339.5Z" transform="translate(-63.999 -332)"></path></g><g transform="translate(0 20.938)"><path class="a" d="M19.061,275.969a.781.781,0,0,0-.659-.771l-1.078-.171-.514-1.24.641-.883a.781.781,0,0,0-.08-1.011l-2.206-2.2a.781.781,0,0,0-1.011-.079l-.882.641-1.241-.513-.171-1.077a.781.781,0,0,0-.771-.658H7.968a.781.781,0,0,0-.771.659l-.171,1.078-1.24.514-.883-.641a.781.781,0,0,0-1.011.08l-2.2,2.206a.781.781,0,0,0-.079,1.011l.641.882-.513,1.241L.658,275.2a.781.781,0,0,0-.658.772V279.1a.781.781,0,0,0,.659.771l1.078.171.514,1.24-.641.883a.781.781,0,0,0,.08,1.011l2.206,2.2a.781.781,0,0,0,1.011.079l.882-.641,1.241.513L7.2,286.4a.781.781,0,0,0,.771.658h3.119a.781.781,0,0,0,.771-.659l.171-1.078,1.24-.514.883.641a.781.781,0,0,0,1.011-.08l2.2-2.206a.781.781,0,0,0,.079-1.011l-.641-.882.513-1.241,1.077-.171a.781.781,0,0,0,.658-.772Zm-2.411,2.588a.781.781,0,0,0-.6.473l-.848,2.049a.781.781,0,0,0,.09.758l.506.7L14.537,283.8l-.7-.506a.782.782,0,0,0-.758-.089l-2.048.849a.781.781,0,0,0-.472.6l-.135.851H8.642l-.135-.85a.781.781,0,0,0-.473-.6L5.985,283.2a.781.781,0,0,0-.758.09l-.7.506-1.263-1.262.506-.7a.781.781,0,0,0,.089-.758l-.849-2.048a.781.781,0,0,0-.6-.472l-.851-.135v-1.785l.85-.135a.781.781,0,0,0,.6-.473l.848-2.049a.781.781,0,0,0-.09-.758l-.506-.7,1.262-1.263.7.506a.781.781,0,0,0,.758.089l2.048-.849a.781.781,0,0,0,.472-.6l.135-.851h1.785l.135.85a.781.781,0,0,0,.473.6l2.049.848a.781.781,0,0,0,.758-.09l.7-.506,1.263,1.262-.506.7a.781.781,0,0,0-.089.758l.849,2.048a.781.781,0,0,0,.6.472l.851.135v1.785Z" transform="translate(0 -268.001)"></path></g></g></svg> 