<?xml version="1.0" encoding="UTF-8"?> <svg xmlns="http://www.w3.org/2000/svg" width="24.394" height="42.562" viewBox="0 0 24.394 42.562"><defs><style>.a{fill:#fff;}.b,.c,.e{fill:none;}.b,.c{stroke:#fff;stroke-width:1.5px;}.c{stroke-linecap:round;stroke-dasharray:14 5;}.d{stroke:none;}</style></defs><g transform="translate(-748.856 -732.688)"><g transform="translate(1 161)"><ellipse class="a" cx="3.308" cy="3.308" rx="3.308" ry="3.308" transform="translate(756.692 577.688)"></ellipse><g class="b" transform="translate(750.692 571.688)"><ellipse class="d" cx="9.308" cy="9.308" rx="9.308" ry="9.308"></ellipse><ellipse class="e" cx="9.308" cy="9.308" rx="8.558" ry="8.558"></ellipse></g><path class="a" d="M0,0H1.5a0,0,0,0,1,0,0V11.25A.75.75,0,0,1,.75,12h0A.75.75,0,0,1,0,11.25V0A0,0,0,0,1,0,0Z" transform="translate(759 592.941)"></path></g><path class="c" d="M5.106,0H28" transform="translate(744.5 774.5)"></path></g></svg> 