<?xml version="1.0" encoding="UTF-8"?> <svg xmlns="http://www.w3.org/2000/svg" width="86.909" height="83.515" viewBox="0 0 86.909 83.515"><defs><style>.a,.c,.d,.g{fill:none;}.a{stroke:#5351fb;}.a,.c,.d{stroke-width:3px;}.b{fill:#d2f2f5;}.b,.c{stroke-linecap:round;}.c,.d{stroke:#21bdca;}.c{stroke-dasharray:20 10;}.e{fill:#5351fb;}.f,.h{stroke:none;}.h{fill:#21bdca;}</style></defs><g transform="translate(-1119.643 -1919.961)"><g class="a" transform="translate(1126.766 1919.961)"><rect class="f" width="74.128" height="70.294" rx="10"></rect><rect class="g" x="1.5" y="1.5" width="71.128" height="67.294" rx="8.5"></rect></g><g transform="translate(1119.643 1950.436)"><g class="b" transform="translate(0 0)"><path class="f" d="M 80.51857757568359 51.54000473022461 L 6.390367984771729 51.54000473022461 C 3.693817853927612 51.54000473022461 1.50000524520874 49.3462028503418 1.50000524520874 46.64965438842773 L 1.50000524520874 6.390366554260254 C 1.50000524520874 3.832561492919922 3.473675727844238 1.727107048034668 5.978162288665771 1.517214417457581 L 42.4830436706543 24.89181709289551 L 43.28836822509766 25.40747833251953 L 44.09574127197266 24.89502906799316 L 80.92772674560547 1.516959071159363 C 83.43359375 1.725468277931213 85.40894317626953 3.831573963165283 85.40894317626953 6.390366554260254 L 85.40894317626953 46.64965438842773 C 85.40894317626953 49.3462028503418 83.21513366699219 51.54000473022461 80.51857757568359 51.54000473022461 Z"></path><path class="h" d="M 81.26120758056641 3.081935882568359 L 44.89956665039063 26.16146087646484 L 43.28482437133789 27.18636131286621 L 41.67416763305664 26.1550464630127 L 5.642120361328125 3.083202362060547 C 4.13153076171875 3.424850463867188 3 4.777988433837891 3 6.390361785888672 L 3 46.6496467590332 C 3 48.51908874511719 4.520912170410156 50.04000473022461 6.390365600585938 50.04000473022461 L 80.51858520507813 50.04000473022461 C 82.38802337646484 50.04000473022461 83.908935546875 48.51908874511719 83.908935546875 46.6496467590332 L 83.908935546875 6.390361785888672 C 83.908935546875 4.775936126708984 82.77468109130859 3.421440124511719 81.26120758056641 3.081935882568359 M 6.390365600585938 3.814697265625e-06 L 43.29189682006836 23.62858963012695 L 80.51858520507813 3.814697265625e-06 C 84.04786682128906 3.814697265625e-06 86.908935546875 2.861061096191406 86.908935546875 6.390361785888672 L 86.908935546875 46.6496467590332 C 86.908935546875 50.17894744873047 84.04786682128906 53.04000473022461 80.51858520507813 53.04000473022461 L 6.390365600585938 53.04000473022461 C 2.861053466796875 53.04000473022461 0 50.17894744873047 0 46.6496467590332 L 0 6.390361785888672 C 0 2.861061096191406 2.861053466796875 3.814697265625e-06 6.390365600585938 3.814697265625e-06 Z"></path></g><path class="c" d="M40.171,4.838-.749,29.448" transform="translate(3.785 20.306)"></path><path class="d" d="M40.171,29.448-.749,4.838" transform="translate(44.044 20.945)"></path></g><g transform="translate(1145.563 1936.121)"><path class="e" d="M10.292,26.041H43.778a1.288,1.288,0,1,0,0-2.576H10.292a1.288,1.288,0,1,0,0,2.576Z" transform="translate(-9 -23.465)"></path><path class="e" d="M43.781,29.465H10.288a1.288,1.288,0,1,0,0,2.576H43.781a1.288,1.288,0,1,0,0-2.576Z" transform="translate(-9 -21.736)"></path><path class="e" d="M43.781,35.465H10.288a1.288,1.288,0,1,0,0,2.576H43.781a1.288,1.288,0,1,0,0-2.576Z" transform="translate(-9 -20.007)"></path></g></g></svg> 