<?xml version="1.0" encoding="UTF-8"?> <svg xmlns="http://www.w3.org/2000/svg" width="99.498" height="90.898" viewBox="0 0 99.498 90.898"><defs><style>.a{fill:#d2f2f5;}.b{fill:#21bdca;}.c{fill:#fff;}.d{fill:#5351fb;}</style></defs><g transform="translate(-3184.502 -1525.558)"><g transform="translate(3184.502 1525.558)"><g transform="translate(0 0)"><g transform="translate(0 0)"><path class="a" d="M72.865,31.5H11.744A11.763,11.763,0,0,0,0,43.244v37.3A11.763,11.763,0,0,0,11.744,92.286H16.4l38.475-.028H72.865A11.739,11.739,0,0,0,84.609,80.541v-37.3A11.763,11.763,0,0,0,72.865,31.5Z" transform="translate(0 -31.5)"></path><path class="b" d="M72.865,31.5H11.744A11.763,11.763,0,0,0,0,43.244v37.3A11.763,11.763,0,0,0,11.744,92.286H16.4l38.475-.028H72.865A11.739,11.739,0,0,0,84.609,80.541v-37.3A11.763,11.763,0,0,0,72.865,31.5Zm8.4,49.041a8.4,8.4,0,0,1-8.4,8.4H54.935c-17.108-.028-34.85-.028-38.543-.028H11.744a8.4,8.4,0,0,1-8.4-8.4V43.244a8.4,8.4,0,0,1,8.4-8.4h61.12a8.4,8.4,0,0,1,8.4,8.4v37.3Z" transform="translate(0 -31.5)"></path><g transform="translate(20.054 17.112)"><path class="c" d="M11.027,31.5H68.417A11.045,11.045,0,0,1,79.444,42.527v35.02A11.045,11.045,0,0,1,68.417,88.575H62.575v15.14a1.548,1.548,0,0,1-.943,1.441,1.8,1.8,0,0,1-.629.131,1.638,1.638,0,0,1-1.1-.445l-17-16.292H11.027A11.022,11.022,0,0,1,0,77.548V42.527A11.045,11.045,0,0,1,11.027,31.5Z" transform="translate(0 -31.5)"></path><path class="b" d="M61,73.786a1.632,1.632,0,0,1-1.1-.445l-17-16.292H11.028A11.027,11.027,0,0,1,0,46.047V11.027A11.04,11.04,0,0,1,11.028,0H64.544V3.143H11.028a7.893,7.893,0,0,0-7.885,7.884v35.02a7.894,7.894,0,0,0,7.885,7.885H43.534v-.027a1.529,1.529,0,0,1,1.073.445l14.8,14.17V55.477a1.47,1.47,0,0,1,.472-1.1,1.62,1.62,0,0,1,1.1-.472h7.439A7.893,7.893,0,0,0,76.3,46.021V19.809h3.143V46.047A11.04,11.04,0,0,1,68.417,57.075H62.576V72.214a1.54,1.54,0,0,1-.943,1.441A1.793,1.793,0,0,1,61,73.786Z" transform="translate(0 0)"></path></g></g></g></g><g transform="translate(3223.625 1561.86)"><path class="d" d="M10.618,26.7H31.653a1.618,1.618,0,1,0,0-3.236H10.618a1.618,1.618,0,0,0,0,3.236Z" transform="translate(-9 -23.465)"></path><path class="d" d="M52.688,29.465H10.618a1.618,1.618,0,1,0,0,3.236h42.07a1.618,1.618,0,1,0,0-3.236Z" transform="translate(-9 -19.756)"></path><path class="d" d="M52.688,35.465H10.618a1.618,1.618,0,1,0,0,3.236h42.07a1.618,1.618,0,1,0,0-3.236Z" transform="translate(-9 -16.048)"></path></g></g></svg> 