<?xml version="1.0" encoding="UTF-8"?> <svg xmlns="http://www.w3.org/2000/svg" width="96.06" height="83.392" viewBox="0 0 96.06 83.392"><defs><style>.a{fill:#d2f2f5;}.a,.b{stroke:#21bdca;stroke-width:3px;}.b,.d,.i{fill:#fff;}.c,.e,.h{fill:#5351fb;}.f,.h,.i{stroke:none;}.g{fill:none;}</style></defs><g transform="translate(-1207 -1950)"><g class="a" transform="translate(1207 1950)"><rect class="f" width="96.06" height="57.002" rx="10"></rect><rect class="g" x="1.5" y="1.5" width="93.06" height="54.002" rx="8.5"></rect></g><g class="b" transform="translate(1222.834 1969.001)"><rect class="f" width="64.392" height="64.392" rx="10"></rect><rect class="g" x="1.5" y="1.5" width="61.392" height="61.392" rx="8.5"></rect></g><g transform="translate(1242.89 2003.883)"><rect class="c" width="3.167" height="20.634" transform="translate(21.64 5.873)"></rect><rect class="c" width="3.167" height="26.508"></rect></g><g transform="matrix(0.985, 0.174, -0.174, 0.985, 1225.313, 1972.687)"><g class="d" transform="translate(56.877 0)"><path class="f" d="M 5.433383941650391 11.36676216125488 C 2.161703824996948 11.36676216125488 -0.4999960660934448 8.705061912536621 -0.4999960660934448 5.433382034301758 C -0.4999960660934448 2.161701917648315 2.161703824996948 -0.4999979734420776 5.433383941650391 -0.4999979734420776 C 8.705063819885254 -0.4999979734420776 11.36676406860352 2.161701917648315 11.36676406860352 5.433382034301758 C 11.36676406860352 8.705061912536621 8.705063819885254 11.36676216125488 5.433383941650391 11.36676216125488 Z"></path><path class="h" d="M 5.433383941650391 10.86676216125488 C 8.421733856201172 10.86676216125488 10.86676406860352 8.42174243927002 10.86676406860352 5.433382034301758 C 10.86676406860352 2.445022106170654 8.421733856201172 2.034301815001527e-06 5.433383941650391 2.034301815001527e-06 C 2.445013999938965 2.034301815001527e-06 3.941650447814027e-06 2.445022106170654 3.941650447814027e-06 5.433382034301758 C 3.941650447814027e-06 8.42174243927002 2.445013999938965 10.86676216125488 5.433383941650391 10.86676216125488 M 5.433383941650391 11.86676216125488 C 1.886003971099854 11.86676216125488 -0.9999960660934448 8.980762481689453 -0.9999960660934448 5.433382034301758 C -0.9999960660934448 1.886002063751221 1.886003971099854 -0.9999979734420776 5.433383941650391 -0.9999979734420776 C 8.980764389038086 -0.9999979734420776 11.86676406860352 1.886002063751221 11.86676406860352 5.433382034301758 C 11.86676406860352 8.980762481689453 8.980764389038086 11.86676216125488 5.433383941650391 11.86676216125488 Z"></path></g><g class="d" transform="translate(53.643 -3.234)"><path class="f" d="M 8.66752815246582 17.83503723144531 C 6.228368759155273 17.83503723144531 3.928828716278076 16.87880706787109 2.19252872467041 15.14250755310059 C 0.4562286138534546 13.4061975479126 -0.49999138712883 11.1066780090332 -0.49999138712883 8.66751766204834 C -0.49999138712883 6.228357791900635 0.4562286138534546 3.928837776184082 2.19252872467041 2.192527770996094 C 3.928828716278076 0.4562276601791382 6.228368759155273 -0.5000023245811462 8.66752815246582 -0.5000023245811462 C 11.10667896270752 -0.5000023245811462 13.40619850158691 0.4562276601791382 15.14249897003174 2.192527770996094 C 16.87880897521973 3.928837776184082 17.83502769470215 6.228367805480957 17.83502769470215 8.66751766204834 C 17.83502769470215 11.10666751861572 16.87880897521973 13.4061975479126 15.14249897003174 15.14250755310059 C 13.40619850158691 16.87880706787109 11.10667896270752 17.83503723144531 8.66752815246582 17.83503723144531 Z M 8.66752815246582 3.389187574386597 C 5.757038593292236 3.389187574386597 3.389178514480591 5.75703763961792 3.389178514480591 8.66751766204834 C 3.389178514480591 11.57800769805908 5.757038593292236 13.94586753845215 8.66752815246582 13.94586753845215 C 11.57801818847656 13.94586753845215 13.94586849212646 11.57800769805908 13.94586849212646 8.66751766204834 C 13.94586849212646 5.75703763961792 11.57801818847656 3.389187574386597 8.66752815246582 3.389187574386597 Z"></path><path class="i" d="M 8.66752815246582 17.33503723144531 C 13.43464851379395 17.33503723144531 17.33502769470215 13.43464756011963 17.33502769470215 8.66751766204834 C 17.33502769470215 3.900387763977051 13.43464851379395 -2.337951627850998e-06 8.66752815246582 -2.337951627850998e-06 C 3.900368690490723 -2.337951627850998e-06 8.615722435934003e-06 3.900387763977051 8.615722435934003e-06 8.66751766204834 C 8.615722435934003e-06 13.43464756011963 3.900368690490723 17.33503723144531 8.66752815246582 17.33503723144531 M 8.66752815246582 2.889187574386597 C 11.8455982208252 2.889187574386597 14.44586849212646 5.489437580108643 14.44586849212646 8.66751766204834 C 14.44586849212646 11.84560775756836 11.8455982208252 14.44586753845215 8.66752815246582 14.44586753845215 C 5.489418506622314 14.44586753845215 2.889178514480591 11.84560775756836 2.889178514480591 8.66751766204834 C 2.889178514480591 5.489437580108643 5.489418506622314 2.889187574386597 8.66752815246582 2.889187574386597 M 8.66752815246582 18.33503723144531 C 6.094808578491211 18.33503723144531 3.669718503952026 17.32679748535156 1.83897864818573 15.49605751037598 C 0.008238615468144417 13.66531753540039 -0.9999913573265076 11.24022769927979 -0.9999913573265076 8.66751766204834 C -0.9999913573265076 6.094807624816895 0.008238615468144417 3.66971755027771 1.83897864818573 1.838977694511414 C 3.669718503952026 0.008237661793828011 6.094808578491211 -1.000002384185791 8.66752815246582 -1.000002384185791 C 11.2402286529541 -1.000002384185791 13.66531848907471 0.008237661793828011 15.49605846405029 1.838977694511414 C 17.3267993927002 3.66971755027771 18.33502769470215 6.094807624816895 18.33502769470215 8.66751766204834 C 18.33502769470215 11.24022769927979 17.3267993927002 13.66531753540039 15.49605846405029 15.49605751037598 C 13.66531848907471 17.32679748535156 11.2402286529541 18.33503723144531 8.66752815246582 18.33503723144531 Z M 8.66752815246582 3.889187574386597 C 6.03273868560791 3.889187574386597 3.889178514480591 6.032737731933594 3.889178514480591 8.66751766204834 C 3.889178514480591 11.30230808258057 6.03273868560791 13.44586753845215 8.66752815246582 13.44586753845215 C 11.30231857299805 13.44586753845215 13.44586849212646 11.30230808258057 13.44586849212646 8.66751766204834 C 13.44586849212646 6.032737731933594 11.30231857299805 3.889187574386597 8.66752815246582 3.889187574386597 Z"></path></g><g class="d" transform="translate(-3.595 29.198)"><path class="f" d="M 8.66752815246582 17.83503723144531 C 6.228368759155273 17.83503723144531 3.928828716278076 16.87880706787109 2.19252872467041 15.14250755310059 C 0.4562286138534546 13.4061975479126 -0.49999138712883 11.1066780090332 -0.49999138712883 8.66751766204834 C -0.49999138712883 6.228357791900635 0.4562286138534546 3.928837776184082 2.19252872467041 2.192527770996094 C 3.928828716278076 0.4562276601791382 6.228368759155273 -0.5000023245811462 8.66752815246582 -0.5000023245811462 C 11.10667896270752 -0.5000023245811462 13.40619850158691 0.4562276601791382 15.14249897003174 2.192527770996094 C 16.87880897521973 3.928837776184082 17.83502769470215 6.228367805480957 17.83502769470215 8.66751766204834 C 17.83502769470215 11.10666751861572 16.87880897521973 13.4061975479126 15.14249897003174 15.14250755310059 C 13.40619850158691 16.87880706787109 11.10667896270752 17.83503723144531 8.66752815246582 17.83503723144531 Z M 8.66752815246582 3.389187574386597 C 5.757038593292236 3.389187574386597 3.389178514480591 5.75703763961792 3.389178514480591 8.66751766204834 C 3.389178514480591 11.57800769805908 5.757038593292236 13.94586753845215 8.66752815246582 13.94586753845215 C 11.57801818847656 13.94586753845215 13.94586849212646 11.57800769805908 13.94586849212646 8.66751766204834 C 13.94586849212646 5.75703763961792 11.57801818847656 3.389187574386597 8.66752815246582 3.389187574386597 Z"></path><path class="i" d="M 8.66752815246582 17.33503723144531 C 13.43464851379395 17.33503723144531 17.33502769470215 13.43464756011963 17.33502769470215 8.66751766204834 C 17.33502769470215 3.900387763977051 13.43464851379395 -2.337951627850998e-06 8.66752815246582 -2.337951627850998e-06 C 3.900368690490723 -2.337951627850998e-06 8.615722435934003e-06 3.900387763977051 8.615722435934003e-06 8.66751766204834 C 8.615722435934003e-06 13.43464756011963 3.900368690490723 17.33503723144531 8.66752815246582 17.33503723144531 M 8.66752815246582 2.889187574386597 C 11.8455982208252 2.889187574386597 14.44586849212646 5.489437580108643 14.44586849212646 8.66751766204834 C 14.44586849212646 11.84560775756836 11.8455982208252 14.44586753845215 8.66752815246582 14.44586753845215 C 5.489418506622314 14.44586753845215 2.889178514480591 11.84560775756836 2.889178514480591 8.66751766204834 C 2.889178514480591 5.489437580108643 5.489418506622314 2.889187574386597 8.66752815246582 2.889187574386597 M 8.66752815246582 18.33503723144531 C 6.094808578491211 18.33503723144531 3.669718503952026 17.32679748535156 1.83897864818573 15.49605751037598 C 0.008238615468144417 13.66531753540039 -0.9999913573265076 11.24022769927979 -0.9999913573265076 8.66751766204834 C -0.9999913573265076 6.094807624816895 0.008238615468144417 3.66971755027771 1.83897864818573 1.838977694511414 C 3.669718503952026 0.008237661793828011 6.094808578491211 -1.000002384185791 8.66752815246582 -1.000002384185791 C 11.2402286529541 -1.000002384185791 13.66531848907471 0.008237661793828011 15.49605846405029 1.838977694511414 C 17.3267993927002 3.66971755027771 18.33502769470215 6.094807624816895 18.33502769470215 8.66751766204834 C 18.33502769470215 11.24022769927979 17.3267993927002 13.66531753540039 15.49605846405029 15.49605751037598 C 13.66531848907471 17.32679748535156 11.2402286529541 18.33503723144531 8.66752815246582 18.33503723144531 Z M 8.66752815246582 3.889187574386597 C 6.03273868560791 3.889187574386597 3.889178514480591 6.032737731933594 3.889178514480591 8.66751766204834 C 3.889178514480591 11.30230808258057 6.03273868560791 13.44586753845215 8.66752815246582 13.44586753845215 C 11.30231857299805 13.44586753845215 13.44586849212646 11.30230808258057 13.44586849212646 8.66751766204834 C 13.44586849212646 6.032737731933594 11.30231857299805 3.889187574386597 8.66752815246582 3.889187574386597 Z"></path></g><g class="e" transform="translate(56.877 0)"><path class="f" d="M 5.433383941650391 11.36676216125488 C 2.161703824996948 11.36676216125488 -0.4999960660934448 8.705061912536621 -0.4999960660934448 5.433382034301758 C -0.4999960660934448 2.161701917648315 2.161703824996948 -0.4999979734420776 5.433383941650391 -0.4999979734420776 C 8.705063819885254 -0.4999979734420776 11.36676406860352 2.161701917648315 11.36676406860352 5.433382034301758 C 11.36676406860352 8.705061912536621 8.705063819885254 11.36676216125488 5.433383941650391 11.36676216125488 Z M 5.433383941650391 2.311131954193115 C 3.711773872375488 2.311131954193115 2.311133861541748 3.711771965026855 2.311133861541748 5.433382034301758 C 2.311133861541748 7.155002117156982 3.711773872375488 8.555642127990723 5.433383941650391 8.555642127990723 C 7.155004024505615 8.555642127990723 8.555644035339355 7.155002117156982 8.555644035339355 5.433382034301758 C 8.555644035339355 3.711771965026855 7.155004024505615 2.311131954193115 5.433383941650391 2.311131954193115 Z"></path><path class="h" d="M 5.433383941650391 10.86676216125488 C 8.421733856201172 10.86676216125488 10.86676406860352 8.42174243927002 10.86676406860352 5.433382034301758 C 10.86676406860352 2.445022106170654 8.421733856201172 2.034301815001527e-06 5.433383941650391 2.034301815001527e-06 C 2.445013999938965 2.034301815001527e-06 3.941650447814027e-06 2.445022106170654 3.941650447814027e-06 5.433382034301758 C 3.941650447814027e-06 8.42174243927002 2.445013999938965 10.86676216125488 5.433383941650391 10.86676216125488 M 5.433383941650391 1.811132073402405 C 7.425623893737793 1.811132073402405 9.055644035339355 3.441152095794678 9.055644035339355 5.433382034301758 C 9.055644035339355 7.42562198638916 7.425623893737793 9.055642127990723 5.433383941650391 9.055642127990723 C 3.441143989562988 9.055642127990723 1.811133980751038 7.42562198638916 1.811133980751038 5.433382034301758 C 1.811133980751038 3.441152095794678 3.441143989562988 1.811132073402405 5.433383941650391 1.811132073402405 M 5.433383941650391 11.86676216125488 C 1.886003971099854 11.86676216125488 -0.9999960660934448 8.980762481689453 -0.9999960660934448 5.433382034301758 C -0.9999960660934448 1.886002063751221 1.886003971099854 -0.9999979734420776 5.433383941650391 -0.9999979734420776 C 8.980764389038086 -0.9999979734420776 11.86676406860352 1.886002063751221 11.86676406860352 5.433382034301758 C 11.86676406860352 8.980762481689453 8.980764389038086 11.86676216125488 5.433383941650391 11.86676216125488 Z M 5.433383941650391 2.811131954193115 C 3.987473964691162 2.811131954193115 2.811133861541748 3.987472057342529 2.811133861541748 5.433382034301758 C 2.811133861541748 6.879302024841309 3.987473964691162 8.055642127990723 5.433383941650391 8.055642127990723 C 6.879303932189941 8.055642127990723 8.055644035339355 6.879302024841309 8.055644035339355 5.433382034301758 C 8.055644035339355 3.987472057342529 6.879303932189941 2.811131954193115 5.433383941650391 2.811131954193115 Z"></path></g><g class="e" transform="translate(40.394 20.552)"><path class="f" d="M 5.433380126953125 11.36676025390625 C 2.161710023880005 11.36676025390625 -0.4999898672103882 8.705060005187988 -0.4999898672103882 5.433380126953125 C -0.4999898672103882 2.161700010299683 2.161710023880005 -0.4999998807907104 5.433380126953125 -0.4999998807907104 C 8.705050468444824 -0.4999998807907104 11.36674976348877 2.161700010299683 11.36674976348877 5.433380126953125 C 11.36674976348877 8.705060005187988 8.705050468444824 11.36676025390625 5.433380126953125 11.36676025390625 Z M 5.433380126953125 2.311130046844482 C 3.711770057678223 2.311130046844482 2.311130046844482 3.711770057678223 2.311130046844482 5.433380126953125 C 2.311130046844482 7.154990196228027 3.711770057678223 8.555629730224609 5.433380126953125 8.555629730224609 C 7.15500020980835 8.555629730224609 8.55564022064209 7.154990196228027 8.55564022064209 5.433380126953125 C 8.55564022064209 3.711770057678223 7.15500020980835 2.311130046844482 5.433380126953125 2.311130046844482 Z"></path><path class="h" d="M 5.433380126953125 10.86676025390625 C 8.421740531921387 10.86676025390625 10.86674976348877 8.421740531921387 10.86674976348877 5.433380126953125 C 10.86674976348877 2.445020198822021 8.421740531921387 1.26953125345608e-07 5.433380126953125 1.26953125345608e-07 C 2.445010185241699 1.26953125345608e-07 1.012695338431513e-05 2.445020198822021 1.012695338431513e-05 5.433380126953125 C 1.012695338431513e-05 8.421740531921387 2.445010185241699 10.86676025390625 5.433380126953125 10.86676025390625 M 5.433380126953125 1.811130166053772 C 7.425610065460205 1.811130166053772 9.05564022064209 3.441140174865723 9.05564022064209 5.433380126953125 C 9.05564022064209 7.425610065460205 7.425610065460205 9.055629730224609 5.433380126953125 9.055629730224609 C 3.4411301612854 9.055629730224609 1.811130166053772 7.425610065460205 1.811130166053772 5.433380126953125 C 1.811130166053772 3.441140174865723 3.4411301612854 1.811130166053772 5.433380126953125 1.811130166053772 M 5.433380126953125 11.86676025390625 C 1.88601016998291 11.86676025390625 -0.9999898672103882 8.98076057434082 -0.9999898672103882 5.433380126953125 C -0.9999898672103882 1.886000156402588 1.88601016998291 -0.9999998807907104 5.433380126953125 -0.9999998807907104 C 8.98075008392334 -0.9999998807907104 11.86674976348877 1.886000156402588 11.86674976348877 5.433380126953125 C 11.86674976348877 8.98076057434082 8.98075008392334 11.86676025390625 5.433380126953125 11.86676025390625 Z M 5.433380126953125 2.811130046844482 C 3.987470149993896 2.811130046844482 2.811130046844482 3.987470149993896 2.811130046844482 5.433380126953125 C 2.811130046844482 6.879290103912354 3.987470149993896 8.055629730224609 5.433380126953125 8.055629730224609 C 6.879300117492676 8.055629730224609 8.05564022064209 6.879290103912354 8.05564022064209 5.433380126953125 C 8.05564022064209 3.987470149993896 6.879300117492676 2.811130046844482 5.433380126953125 2.811130046844482 Z"></path></g><g class="e" transform="translate(17.862 18.078)"><path class="f" d="M 5.433383941650391 11.36675643920898 C 2.161703824996948 11.36675643920898 -0.4999960660934448 8.705056190490723 -0.4999960660934448 5.433376312255859 C -0.4999960660934448 2.161696195602417 2.161703824996948 -0.5000036954879761 5.433383941650391 -0.5000036954879761 C 8.705063819885254 -0.5000036954879761 11.36676406860352 2.161696195602417 11.36676406860352 5.433376312255859 C 11.36676406860352 8.705056190490723 8.705063819885254 11.36675643920898 5.433383941650391 11.36675643920898 Z M 5.433383941650391 2.311126232147217 C 3.711773872375488 2.311126232147217 2.31114387512207 3.711766242980957 2.31114387512207 5.433376312255859 C 2.31114387512207 7.154986381530762 3.711773872375488 8.555625915527344 5.433383941650391 8.555625915527344 C 7.155014038085938 8.555625915527344 8.55565357208252 7.154986381530762 8.55565357208252 5.433376312255859 C 8.55565357208252 3.711766242980957 7.155014038085938 2.311126232147217 5.433383941650391 2.311126232147217 Z"></path><path class="h" d="M 5.433383941650391 10.86675643920898 C 8.421733856201172 10.86675643920898 10.86676406860352 8.421746253967285 10.86676406860352 5.433376312255859 C 10.86676406860352 2.445026397705078 8.421733856201172 -3.687744083435973e-06 5.433383941650391 -3.687744083435973e-06 C 2.445013999938965 -3.687744083435973e-06 3.941650447814027e-06 2.445026397705078 3.941650447814027e-06 5.433376312255859 C 3.941650447814027e-06 8.421746253967285 2.445013999938965 10.86675643920898 5.433383941650391 10.86675643920898 M 5.433383941650391 1.811126351356506 C 7.425623893737793 1.811126351356506 9.05565357208252 3.441136360168457 9.05565357208252 5.433376312255859 C 9.05565357208252 7.425616264343262 7.425623893737793 9.055625915527344 5.433383941650391 9.055625915527344 C 3.441143989562988 9.055625915527344 1.81114399433136 7.425616264343262 1.81114399433136 5.433376312255859 C 1.81114399433136 3.441136360168457 3.441143989562988 1.811126351356506 5.433383941650391 1.811126351356506 M 5.433383941650391 11.86675643920898 C 1.886003971099854 11.86675643920898 -0.9999960660934448 8.980756759643555 -0.9999960660934448 5.433376312255859 C -0.9999960660934448 1.885996341705322 1.886003971099854 -1.000003695487976 5.433383941650391 -1.000003695487976 C 8.980764389038086 -1.000003695487976 11.86676406860352 1.885996341705322 11.86676406860352 5.433376312255859 C 11.86676406860352 8.980756759643555 8.980764389038086 11.86675643920898 5.433383941650391 11.86675643920898 Z M 5.433383941650391 2.811126232147217 C 3.987473964691162 2.811126232147217 2.81114387512207 3.987466335296631 2.81114387512207 5.433376312255859 C 2.81114387512207 6.879286289215088 3.987473964691162 8.055625915527344 5.433383941650391 8.055625915527344 C 6.879303932189941 8.055625915527344 8.05565357208252 6.879286289215088 8.05565357208252 5.433376312255859 C 8.05565357208252 3.987466335296631 6.879303932189941 2.811126232147217 5.433383941650391 2.811126232147217 Z"></path></g><g class="d" transform="translate(0 32.106)"><path class="f" d="M 5.433383941650391 11.36675834655762 C 2.161703824996948 11.36675834655762 -0.4999960660934448 8.705058097839355 -0.4999960660934448 5.433378219604492 C -0.4999960660934448 2.16169810295105 2.161703824996948 -0.5000017881393433 5.433383941650391 -0.5000017881393433 C 8.705063819885254 -0.5000017881393433 11.36676406860352 2.16169810295105 11.36676406860352 5.433378219604492 C 11.36676406860352 8.705058097839355 8.705063819885254 11.36675834655762 5.433383941650391 11.36675834655762 Z"></path><path class="h" d="M 5.433383941650391 10.86675834655762 C 8.421744346618652 10.86675834655762 10.86676406860352 8.421738624572754 10.86676406860352 5.433378219604492 C 10.86676406860352 2.445018291473389 8.421744346618652 -1.780395564310311e-06 5.433383941650391 -1.780395564310311e-06 C 2.445013999938965 -1.780395564310311e-06 3.941650447814027e-06 2.445018291473389 3.941650447814027e-06 5.433378219604492 C 3.941650447814027e-06 8.421738624572754 2.445013999938965 10.86675834655762 5.433383941650391 10.86675834655762 M 5.433383941650391 11.86675834655762 C 1.886003971099854 11.86675834655762 -0.9999960660934448 8.980758666992188 -0.9999960660934448 5.433378219604492 C -0.9999960660934448 1.885998249053955 1.886003971099854 -1.000001788139343 5.433383941650391 -1.000001788139343 C 8.980764389038086 -1.000001788139343 11.86676406860352 1.885998249053955 11.86676406860352 5.433378219604492 C 11.86676406860352 8.980758666992188 8.980764389038086 11.86675834655762 5.433383941650391 11.86675834655762 Z"></path></g><g class="e" transform="translate(0 32.106)"><path class="f" d="M 5.433383941650391 11.36675834655762 C 2.161703824996948 11.36675834655762 -0.4999960660934448 8.705058097839355 -0.4999960660934448 5.433378219604492 C -0.4999960660934448 2.16169810295105 2.161703824996948 -0.5000017881393433 5.433383941650391 -0.5000017881393433 C 8.705063819885254 -0.5000017881393433 11.36676406860352 2.16169810295105 11.36676406860352 5.433378219604492 C 11.36676406860352 8.705058097839355 8.705063819885254 11.36675834655762 5.433383941650391 11.36675834655762 Z M 5.433383941650391 2.31112813949585 C 3.711773872375488 2.31112813949585 2.311133861541748 3.71176815032959 2.311133861541748 5.433378219604492 C 2.311133861541748 7.154988288879395 3.711773872375488 8.555627822875977 5.433383941650391 8.555627822875977 C 7.155014038085938 8.555627822875977 8.55565357208252 7.154988288879395 8.55565357208252 5.433378219604492 C 8.55565357208252 3.71176815032959 7.155014038085938 2.31112813949585 5.433383941650391 2.31112813949585 Z"></path><path class="h" d="M 5.433383941650391 10.86675834655762 C 8.421744346618652 10.86675834655762 10.86676406860352 8.421738624572754 10.86676406860352 5.433378219604492 C 10.86676406860352 2.445018291473389 8.421744346618652 -1.780395564310311e-06 5.433383941650391 -1.780395564310311e-06 C 2.445013999938965 -1.780395564310311e-06 3.941650447814027e-06 2.445018291473389 3.941650447814027e-06 5.433378219604492 C 3.941650447814027e-06 8.421738624572754 2.445013999938965 10.86675834655762 5.433383941650391 10.86675834655762 M 5.433383941650391 1.811128258705139 C 7.425623893737793 1.811128258705139 9.05565357208252 3.44113826751709 9.05565357208252 5.433378219604492 C 9.05565357208252 7.425618171691895 7.425623893737793 9.055627822875977 5.433383941650391 9.055627822875977 C 3.441143989562988 9.055627822875977 1.811133980751038 7.425618171691895 1.811133980751038 5.433378219604492 C 1.811133980751038 3.44113826751709 3.441143989562988 1.811128258705139 5.433383941650391 1.811128258705139 M 5.433383941650391 11.86675834655762 C 1.886003971099854 11.86675834655762 -0.9999960660934448 8.980758666992188 -0.9999960660934448 5.433378219604492 C -0.9999960660934448 1.885998249053955 1.886003971099854 -1.000001788139343 5.433383941650391 -1.000001788139343 C 8.980764389038086 -1.000001788139343 11.86676406860352 1.885998249053955 11.86676406860352 5.433378219604492 C 11.86676406860352 8.980758666992188 8.980764389038086 11.86675834655762 5.433383941650391 11.86675834655762 Z M 5.433383941650391 2.81112813949585 C 3.987473964691162 2.81112813949585 2.811133861541748 3.987468242645264 2.811133861541748 5.433378219604492 C 2.811133861541748 6.879288196563721 3.987473964691162 8.055627822875977 5.433383941650391 8.055627822875977 C 6.879303932189941 8.055627822875977 8.05565357208252 6.879288196563721 8.05565357208252 5.433378219604492 C 8.05565357208252 3.987468242645264 6.879303932189941 2.81112813949585 5.433383941650391 2.81112813949585 Z"></path></g><path class="c" d="M0,0H3.622V19.517H0Z" transform="translate(58.802 6.83) rotate(36.561)"></path><path class="c" d="M0,0H3.622V16.8H0Z" transform="matrix(0.688, 0.726, -0.726, 0.688, 19.242, 23.561)"></path><path class="c" d="M0,0H15.32V3.622H0Z" transform="translate(27.35 21.537) rotate(10.596)"></path></g></g></svg> 