<?xml version="1.0" encoding="UTF-8"?> <svg xmlns="http://www.w3.org/2000/svg" width="40" height="36.852" viewBox="0 0 40 36.852"><defs><style>.a{fill:#fff;}</style></defs><g transform="translate(9.605)"><path class="a" d="M141.367,20.148H125.282a2.345,2.345,0,0,0-2.343,2.343V34.36a2.345,2.345,0,0,0,2.343,2.343h16.086a2.345,2.345,0,0,0,2.343-2.343V22.491A2.345,2.345,0,0,0,141.367,20.148Zm.781,14.212a.782.782,0,0,1-.781.781H125.282a.782.782,0,0,1-.781-.781V22.491a.782.782,0,0,1,.781-.781h16.086a.782.782,0,0,1,.781.781Z" transform="translate(-122.939 -20.148)"></path></g><g transform="translate(12.843 10.62)"><path class="a" d="M174.43,156.081h-9.255a.781.781,0,1,0,0,1.562h9.255a.781.781,0,0,0,0-1.562Z" transform="translate(-164.394 -156.081)"></path></g><g transform="translate(25.402 10.62)"><path class="a" d="M326.482,156.308a.78.78,0,1,0,.229.552A.787.787,0,0,0,326.482,156.308Z" transform="translate(-325.149 -156.079)"></path></g><g transform="translate(12.843 3.123)"><path class="a" d="M177.734,60.128H165.175a.781.781,0,1,0,0,1.562h12.559a.781.781,0,0,0,0-1.562Z" transform="translate(-164.394 -60.128)"></path></g><g transform="translate(12.843 6.872)"><path class="a" d="M177.734,108.1H165.175a.781.781,0,1,0,0,1.562h12.559a.781.781,0,0,0,0-1.562Z" transform="translate(-164.394 -108.104)"></path></g><g transform="translate(0 25.295)"><path class="a" d="M9.214,343.925H2.343A2.345,2.345,0,0,0,0,346.268v6.872a2.345,2.345,0,0,0,2.343,2.343H9.214a2.345,2.345,0,0,0,2.343-2.343v-6.872A2.345,2.345,0,0,0,9.214,343.925ZM10,353.139a.782.782,0,0,1-.781.781H2.343a.782.782,0,0,1-.781-.781v-6.872a.782.782,0,0,1,.781-.781H9.214a.782.782,0,0,1,.781.781v6.872Z" transform="translate(0 -343.925)"></path></g><g transform="translate(14.222 25.295)"><path class="a" d="M191.251,343.925H184.38a2.345,2.345,0,0,0-2.343,2.343v6.872a2.345,2.345,0,0,0,2.343,2.343h6.872a2.345,2.345,0,0,0,2.343-2.343v-6.872A2.345,2.345,0,0,0,191.251,343.925Zm.781,9.214a.782.782,0,0,1-.781.781H184.38a.782.782,0,0,1-.781-.781v-6.872a.782.782,0,0,1,.781-.781h6.872a.782.782,0,0,1,.781.781Z" transform="translate(-182.037 -343.925)"></path></g><g transform="translate(28.443 25.295)"><path class="a" d="M373.288,343.925h-6.872a2.345,2.345,0,0,0-2.343,2.343v6.872a2.345,2.345,0,0,0,2.343,2.343h6.872a2.345,2.345,0,0,0,2.343-2.343v-6.872A2.345,2.345,0,0,0,373.288,343.925Zm.781,9.214a.782.782,0,0,1-.781.781h-6.872a.782.782,0,0,1-.781-.781v-6.872a.782.782,0,0,1,.781-.781h6.872a.782.782,0,0,1,.781.781Z" transform="translate(-364.074 -343.925)"></path></g><g transform="translate(14.993 17.491)"><path class="a" d="M210.353,245.765h-12.66v-.947a.781.781,0,0,0-1.562,0v.947h-3.446a.781.781,0,0,0,0,1.562h3.446v2.129a.781.781,0,1,0,1.562,0v-2.129h12.66v2.437a.781.781,0,0,0,1.562,0v-2.437A1.564,1.564,0,0,0,210.353,245.765Z" transform="translate(-191.905 -244.037)"></path></g><g transform="translate(4.998 19.219)"><path class="a" d="M68.966,266.153H65.53a1.563,1.563,0,0,0-1.562,1.562v2.437a.781.781,0,0,0,1.562,0v-2.437h3.436a.781.781,0,0,0,0-1.562Z" transform="translate(-63.968 -266.153)"></path></g><g transform="translate(12.063 19.219)"><path class="a" d="M155.736,266.383a.78.78,0,1,0,.229.552A.787.787,0,0,0,155.736,266.383Z" transform="translate(-154.403 -266.154)"></path></g></svg> 