<?xml version="1.0" encoding="UTF-8"?> <svg xmlns="http://www.w3.org/2000/svg" width="40" height="40" viewBox="0 0 40 40"><defs><style>.a{fill:#fff;}</style></defs><g transform="translate(0 22.432)"><path class="a" d="M35.791,293.537a3.607,3.607,0,0,0,.65-2.069v-.712a3.628,3.628,0,1,0-7.257,0v.712a3.608,3.608,0,0,0,.65,2.069,4.338,4.338,0,0,0-3.428,1.857,4.338,4.338,0,0,0-3.428-1.857,3.607,3.607,0,0,0,.65-2.069v-.712a3.628,3.628,0,1,0-7.257,0v.712a3.608,3.608,0,0,0,.65,2.069,4.338,4.338,0,0,0-3.428,1.857,4.338,4.338,0,0,0-3.428-1.857,3.607,3.607,0,0,0,.65-2.069v-.712a3.628,3.628,0,1,0-7.257,0v.712a3.608,3.608,0,0,0,.65,2.069A4.345,4.345,0,0,0,0,297.874v6.04a.781.781,0,0,0,.781.781H39.219a.781.781,0,0,0,.781-.781v-6.04A4.345,4.345,0,0,0,35.791,293.537ZM5.122,290.755a2.066,2.066,0,1,1,4.132,0v.712a2.066,2.066,0,1,1-4.132,0Zm7.691,12.377H1.563v-5.259A2.781,2.781,0,0,1,4.34,295.1H6.406v2.152a.781.781,0,0,0,1.563,0V295.1h2.066a2.781,2.781,0,0,1,2.778,2.778Zm5.122-12.377a2.066,2.066,0,1,1,4.132,0v.712a2.066,2.066,0,1,1-4.132,0Zm7.691,12.377H14.375v-5.259a2.781,2.781,0,0,1,2.778-2.778h2.076v3.747a.781.781,0,0,0,1.563,0V295.1h2.056a2.781,2.781,0,0,1,2.778,2.778Zm5.122-12.377a2.066,2.066,0,1,1,4.132,0v.712a2.066,2.066,0,1,1-4.132,0Zm7.691,12.377H27.188v-5.259a2.781,2.781,0,0,1,2.778-2.778h2.086v3.747a.781.781,0,0,0,1.563,0V295.1H35.66a2.781,2.781,0,0,1,2.778,2.778Z" transform="translate(0 -287.127)"></path></g><g transform="translate(6.406 34.453)"><path class="a" d="M83.334,441.229a.781.781,0,1,0,.229.552A.787.787,0,0,0,83.334,441.229Z" transform="translate(-82 -441)"></path></g><g transform="translate(29.911)"><path class="a" d="M387.946,0H385.1a.781.781,0,0,0,0,1.563h.961l-2.975,2.975a.781.781,0,1,0,1.1,1.1l2.974-2.974v.959a.781.781,0,0,0,1.563,0V.781A.781.781,0,0,0,387.946,0Z" transform="translate(-382.856)"></path></g><g transform="translate(27.938 6.282)"><path class="a" d="M358.944,80.638a.782.782,0,1,0,.229.553A.786.786,0,0,0,358.944,80.638Z" transform="translate(-357.61 -80.41)"></path></g><g transform="translate(2.93 6.889)"><path class="a" d="M61.97,89.676a.781.781,0,0,0-1.1,0l-4.6,4.6L50.4,88.4a.781.781,0,0,0-1.1,0L37.737,99.962a.781.781,0,1,0,1.1,1.1L49.849,90.06l5.868,5.868a.781.781,0,0,0,1.1,0l5.148-5.148A.781.781,0,0,0,61.97,89.676Z" transform="translate(-37.508 -88.174)"></path></g><g transform="translate(3.434 3.125)"><path class="a" d="M47.234,40a3.281,3.281,0,1,0,3.281,3.281A3.285,3.285,0,0,0,47.234,40Zm0,5a1.719,1.719,0,1,1,1.719-1.719A1.721,1.721,0,0,1,47.234,45Z" transform="translate(-43.953 -40)"></path></g><g transform="translate(29.844 12.784)"><path class="a" d="M386.073,166.608l1.635-1.635a.781.781,0,1,0-1.1-1.1l-1.635,1.635-1.635-1.635a.781.781,0,0,0-1.1,1.1l1.635,1.635-1.635,1.635a.781.781,0,0,0,1.1,1.1l1.635-1.635,1.635,1.635a.781.781,0,0,0,1.1-1.1Z" transform="translate(-381.999 -163.639)"></path></g></svg> 