<?xml version="1.0" encoding="UTF-8"?> <svg xmlns="http://www.w3.org/2000/svg" width="89.982" height="91.381" viewBox="0 0 89.982 91.381"><defs><style>.a{fill:#5351fb;}.b,.d{fill:#21bdca;}.b{stroke:#21bdca;}.c{fill:#d2f2f5;}.e{fill:#fff;}</style></defs><g transform="translate(94.982 111.187) rotate(180)"><g transform="translate(5 19.806)"><path class="a" d="M134.261,2.5l-3.82,1.575A4,4,0,0,0,128.275,9.3l.982,2.37a24.32,24.32,0,0,0-5.02,5.02l-2.37-.982a4,4,0,0,0-5.223,2.167l-1.59,3.82a4,4,0,0,0,2.167,5.223l3.508,1.45a1.542,1.542,0,1,0,1.169-2.853l-3.508-1.45a.924.924,0,0,1-.5-1.2l1.59-3.82a.919.919,0,0,1,1.2-.5L124.19,20a1.539,1.539,0,0,0,1.871-.561,21.129,21.129,0,0,1,5.94-5.94,1.552,1.552,0,0,0,.577-1.871l-1.45-3.508a.93.93,0,0,1,.5-1.2l3.82-1.575a.919.919,0,0,1,1.2.5l1.45,3.508a1.519,1.519,0,0,0,1.73.92,21.392,21.392,0,0,1,8.387,0,1.563,1.563,0,0,0,1.73-.92l1.45-3.508a.924.924,0,0,1,1.2-.5l3.82,1.59a.919.919,0,0,1,.5,1.2l-1.45,3.508a1.539,1.539,0,0,0,.561,1.871,21.129,21.129,0,0,1,5.94,5.94,1.552,1.552,0,0,0,1.871.577l3.508-1.45a.919.919,0,0,1,1.2.5l1.575,3.82a.919.919,0,0,1-.5,1.2l-3.508,1.45a1.536,1.536,0,0,0-.92,1.73,21.392,21.392,0,0,1,0,8.387,1.563,1.563,0,0,0,.92,1.73l3.508,1.45a.924.924,0,0,1,.5,1.2l-1.59,3.82a.924.924,0,0,1-1.2.5l-3.508-1.45a1.539,1.539,0,0,0-1.871.561,21.128,21.128,0,0,1-5.94,5.94,1.552,1.552,0,0,0-.577,1.871l1.45,3.508a.919.919,0,0,1-.5,1.2l-3.82,1.575a.919.919,0,0,1-1.2-.5l-1.45-3.508a1.542,1.542,0,0,0-2.853,1.169l1.45,3.508a3.991,3.991,0,0,0,2.167,2.167,4.056,4.056,0,0,0,1.528.312,4,4,0,0,0,1.528-.312l3.82-1.575a4,4,0,0,0,2.167-5.223l-.982-2.37a24.321,24.321,0,0,0,5.02-5.02l2.37.982a4,4,0,0,0,5.223-2.167l1.59-3.82a4,4,0,0,0-2.167-5.223l-2.37-.982a24.579,24.579,0,0,0,0-7.093l2.37-.982a4,4,0,0,0,2.167-5.223l-1.575-3.82a4,4,0,0,0-5.223-2.167l-2.37.982a24.246,24.246,0,0,0-5-5.02l.982-2.37a4,4,0,0,0-2.167-5.223L153.764,2.5a4,4,0,0,0-5.223,2.167l-.982,2.37a24.579,24.579,0,0,0-7.093,0l-.982-2.37A4,4,0,0,0,134.261,2.5Z" transform="translate(-83.261 -2.2)"></path><path class="b" d="M244.024,120.372a11.116,11.116,0,0,0-11.105-11.022h-.083A11.116,11.116,0,0,0,221.8,120.538a1.366,1.366,0,0,0,1.366,1.352h.014a1.352,1.352,0,0,0,1.352-1.38,8.384,8.384,0,0,1,8.319-8.443h.055a8.381,8.381,0,0,1,.055,16.761,1.352,1.352,0,0,0-1.352,1.38,1.366,1.366,0,0,0,1.366,1.352h.014A11.119,11.119,0,0,0,244.024,120.372Z" transform="translate(-172.175 -91.202)"></path><path class="c" d="M28.482,258.876h4.063a4.51,4.51,0,0,0,4.5-4.5v-2.084a23.871,23.871,0,0,0,5.768-2.4l1.474,1.474a4.494,4.494,0,0,0,3.179,1.326,4.407,4.407,0,0,0,3.179-1.326l2.863-2.863a4.494,4.494,0,0,0,1.326-3.179,4.407,4.407,0,0,0-1.326-3.179l-1.474-1.474a23.871,23.871,0,0,0,2.4-5.768h2.084a4.51,4.51,0,0,0,4.5-4.5v-4.063a4.51,4.51,0,0,0-4.5-4.5H54.437a23.872,23.872,0,0,0-2.4-5.768l1.474-1.474a4.494,4.494,0,0,0,1.326-3.179,4.407,4.407,0,0,0-1.326-3.179l-2.863-2.863a4.493,4.493,0,0,0-3.179-1.326,4.407,4.407,0,0,0-3.179,1.326l-1.474,1.474a23.871,23.871,0,0,0-5.768-2.4v-2.084a4.51,4.51,0,0,0-4.5-4.5H28.482a4.51,4.51,0,0,0-4.5,4.5v2.084a23.871,23.871,0,0,0-5.768,2.4l-1.474-1.474a4.493,4.493,0,0,0-3.179-1.326,4.407,4.407,0,0,0-3.179,1.326l-2.863,2.863a4.51,4.51,0,0,0,0,6.357l1.474,1.474a23.872,23.872,0,0,0-2.4,5.768H4.5a4.51,4.51,0,0,0-4.5,4.5v4.063a4.51,4.51,0,0,0,4.5,4.5H6.589a23.871,23.871,0,0,0,2.4,5.768l-1.474,1.474a4.51,4.51,0,0,0,0,6.357l2.863,2.863a4.494,4.494,0,0,0,3.179,1.326,4.407,4.407,0,0,0,3.179-1.326l1.474-1.474a23.871,23.871,0,0,0,5.768,2.4v2.084A4.537,4.537,0,0,0,28.482,258.876Z" transform="translate(0 -167.495)"></path><path class="d" d="M28.482,258.876h4.063a4.51,4.51,0,0,0,4.5-4.5v-2.084a23.871,23.871,0,0,0,5.768-2.4l1.474,1.474a4.494,4.494,0,0,0,3.179,1.326,4.407,4.407,0,0,0,3.179-1.326l2.863-2.863a4.494,4.494,0,0,0,1.326-3.179,4.407,4.407,0,0,0-1.326-3.179l-1.474-1.474a23.871,23.871,0,0,0,2.4-5.768h2.084a4.51,4.51,0,0,0,4.5-4.5v-4.063a4.51,4.51,0,0,0-4.5-4.5H54.437a23.872,23.872,0,0,0-2.4-5.768l1.474-1.474a4.494,4.494,0,0,0,1.326-3.179,4.407,4.407,0,0,0-1.326-3.179l-2.863-2.863a4.493,4.493,0,0,0-3.179-1.326,4.407,4.407,0,0,0-3.179,1.326l-1.474,1.474a23.871,23.871,0,0,0-5.768-2.4v-2.084a4.51,4.51,0,0,0-4.5-4.5H28.482a4.51,4.51,0,0,0-4.5,4.5v2.084a23.871,23.871,0,0,0-5.768,2.4l-1.474-1.474a4.493,4.493,0,0,0-3.179-1.326,4.407,4.407,0,0,0-3.179,1.326l-2.863,2.863a4.51,4.51,0,0,0,0,6.357l1.474,1.474a23.872,23.872,0,0,0-2.4,5.768H4.5a4.51,4.51,0,0,0-4.5,4.5v4.063a4.51,4.51,0,0,0,4.5,4.5H6.589a23.871,23.871,0,0,0,2.4,5.768l-1.474,1.474a4.51,4.51,0,0,0,0,6.357l2.863,2.863a4.494,4.494,0,0,0,3.179,1.326,4.407,4.407,0,0,0,3.179-1.326l1.474-1.474a23.871,23.871,0,0,0,5.768,2.4v2.084A4.537,4.537,0,0,0,28.482,258.876Zm-9.41-13.346a2.138,2.138,0,0,0-1.158-.358,2.071,2.071,0,0,0-1.474.61l-2.631,2.631a.307.307,0,0,1-.463,0l-2.863-2.863a.33.33,0,0,1,0-.463l2.631-2.631a2.073,2.073,0,0,0,.253-2.631,20.3,20.3,0,0,1-3.073-7.41,2.1,2.1,0,0,0-2.042-1.684H4.526a.333.333,0,0,1-.337-.337v-4.063a.333.333,0,0,1,.337-.337H8.252a2.074,2.074,0,0,0,2.042-1.684,20.3,20.3,0,0,1,3.073-7.41,2.1,2.1,0,0,0-.253-2.631l-2.631-2.631a.33.33,0,0,1,0-.463l2.863-2.863a.307.307,0,0,1,.463,0l2.631,2.673a2.073,2.073,0,0,0,2.631.253,20.3,20.3,0,0,1,7.41-3.073,2.1,2.1,0,0,0,1.684-2.042V202.4a.333.333,0,0,1,.337-.337h4.063a.333.333,0,0,1,.337.337v3.726a2.074,2.074,0,0,0,1.684,2.042A20.3,20.3,0,0,1,42,211.238a2.1,2.1,0,0,0,2.631-.253l2.631-2.631a.307.307,0,0,1,.463,0l2.863,2.863a.307.307,0,0,1,0,.463l-2.631,2.631a2.073,2.073,0,0,0-.253,2.631,20.3,20.3,0,0,1,3.073,7.41,2.1,2.1,0,0,0,2.042,1.684h3.726a.332.332,0,0,1,.337.337v4.063a.333.333,0,0,1-.337.337H52.816a2.074,2.074,0,0,0-2.042,1.684,20.3,20.3,0,0,1-3.073,7.41,2.1,2.1,0,0,0,.253,2.631l2.631,2.631a.307.307,0,0,1,0,.463l-2.863,2.863a.307.307,0,0,1-.463,0l-2.631-2.631A2.073,2.073,0,0,0,42,245.572a20.3,20.3,0,0,1-7.41,3.073,2.1,2.1,0,0,0-1.684,2.042v3.726a.333.333,0,0,1-.337.337H28.5a.333.333,0,0,1-.337-.337v-3.726a2.074,2.074,0,0,0-1.684-2.042A21.138,21.138,0,0,1,19.072,245.53Z" transform="translate(0 -167.495)"></path><path class="e" d="M110.935,296.528a12.367,12.367,0,1,0-12.357,12.378A12.4,12.4,0,0,0,110.935,296.528Z" transform="translate(-68.054 -235.628)"></path><path class="d" d="M110.935,296.528a12.367,12.367,0,1,0-12.357,12.378A12.4,12.4,0,0,0,110.935,296.528Zm-20.566,0a8.21,8.21,0,1,1,8.21,8.21A8.22,8.22,0,0,1,90.368,296.528Z" transform="translate(-68.054 -235.628)"></path></g></g></svg> 