<?xml version="1.0" encoding="UTF-8"?> <svg xmlns="http://www.w3.org/2000/svg" width="40" height="35.94" viewBox="0 0 40 35.94"><defs><style>.a{fill:#fff;}</style></defs><g transform="translate(29.999 30.002)"><path class="a" d="M391.021,410.012a2.974,2.974,0,0,0-2.864,2.188h-2.605v-.026a.781.781,0,0,0-1.563,0v.807a.781.781,0,0,0,.781.781h3.387a2.969,2.969,0,1,0,2.864-3.75Zm0,4.375a1.406,1.406,0,1,1,1.406-1.406A1.408,1.408,0,0,1,391.021,414.387Z" transform="translate(-383.989 -410.012)"></path></g><g transform="translate(0 0)"><path class="a" d="M9.219,28.17H5.833a2.969,2.969,0,1,0,0,1.563H8.438a.781.781,0,0,0,1.563,0v-.781A.782.782,0,0,0,9.219,28.17Zm-6.25,2.188a1.406,1.406,0,1,1,1.406-1.406A1.408,1.408,0,0,1,2.969,30.357Z" transform="translate(0 -25.982)"></path></g><g transform="translate(4.216 2.188)"><g transform="translate(0 0)"><path class="a" d="M84.139,66.3H82.469a13.1,13.1,0,0,0-1.276-3.082l1.18-1.18a1.391,1.391,0,0,0,0-1.967l-2.932-2.932a1.391,1.391,0,0,0-1.967,0l-1.18,1.18a13.1,13.1,0,0,0-3.082-1.276V55.376a1.393,1.393,0,0,0-1.391-1.391H67.674a1.393,1.393,0,0,0-1.391,1.391V57.05a13.1,13.1,0,0,0-3.077,1.277l-1.185-1.185a1.391,1.391,0,0,0-1.967,0l-2.932,2.932a1.391,1.391,0,0,0,0,1.967l1.19,1.19a13.1,13.1,0,0,0-1.27,3.072H55.356a1.393,1.393,0,0,0-1.391,1.391v4.147a1.393,1.393,0,0,0,1.391,1.391h1.689A13.1,13.1,0,0,0,58.317,76.3l-1.2,1.2a1.391,1.391,0,0,0,0,1.967l2.932,2.932a1.391,1.391,0,0,0,1.967,0l1.2-1.2a13.1,13.1,0,0,0,3.067,1.272v1.689a1.393,1.393,0,0,0,1.391,1.391h4.147a1.393,1.393,0,0,0,1.391-1.391V82.474a13.1,13.1,0,0,0,3.072-1.27l1.19,1.19a1.391,1.391,0,0,0,1.967,0l2.932-2.932a1.391,1.391,0,0,0,0-1.968l-1.185-1.185a13.1,13.1,0,0,0,1.277-3.077h1.673a1.393,1.393,0,0,0,1.391-1.391V67.694A1.393,1.393,0,0,0,84.139,66.3Zm-.171,5.366H82.333A1.389,1.389,0,0,0,80.989,72.7a11.545,11.545,0,0,1-1.216,2.93,1.389,1.389,0,0,0,.217,1.685l1.158,1.158-2.69,2.69L77.3,80.005a1.389,1.389,0,0,0-1.683-.218A11.541,11.541,0,0,1,72.686,81a1.388,1.388,0,0,0-1.037,1.345v1.645h-3.8V82.338a1.389,1.389,0,0,0-1.035-1.345,11.545,11.545,0,0,1-2.921-1.211A1.389,1.389,0,0,0,62.2,80l-1.167,1.167-2.69-2.69,1.167-1.167a1.389,1.389,0,0,0,.218-1.685A11.541,11.541,0,0,1,58.521,72.7a1.389,1.389,0,0,0-1.345-1.035H55.527v-3.8h1.645a1.389,1.389,0,0,0,1.345-1.037,11.54,11.54,0,0,1,1.21-2.926,1.389,1.389,0,0,0-.218-1.684l-1.162-1.162,2.69-2.69,1.158,1.158a1.389,1.389,0,0,0,1.685.217,11.537,11.537,0,0,1,2.93-1.216,1.389,1.389,0,0,0,1.035-1.345V55.548h3.8v1.63a1.389,1.389,0,0,0,1.037,1.345,11.539,11.539,0,0,1,2.935,1.215,1.389,1.389,0,0,0,1.684-.218l1.152-1.152,2.69,2.69L80,62.209a1.389,1.389,0,0,0-.218,1.684,11.539,11.539,0,0,1,1.215,2.935,1.388,1.388,0,0,0,1.345,1.037h1.63Z" transform="translate(-53.965 -53.985)"></path></g></g><g transform="translate(10.779 9.26)"><path class="a" d="M150.352,144.561a.781.781,0,0,0-.536,1.468,7.657,7.657,0,1,1-5.447.073.781.781,0,1,0-.576-1.453,9.219,9.219,0,1,0,6.559-.088Z" transform="translate(-137.969 -144.513)"></path></g><g transform="translate(19.217 8.751)"><g transform="translate(0 0)"><path class="a" d="M246.8,137.991h-.044a.781.781,0,0,0,0,1.563h.039a.781.781,0,0,0,0-1.563Z" transform="translate(-245.979 -137.991)"></path></g></g><g transform="translate(16.351 14.551)"><path class="a" d="M217.487,212.23h-1.655a.781.781,0,0,0-.2,1.535l-1.929,1.929-1.609-1.609a.782.782,0,0,0-1.1,0l-1.467,1.467a.781.781,0,0,0,1.105,1.1l.914-.914,1.609,1.609a.781.781,0,0,0,1.1,0l2.482-2.482a.781.781,0,0,0,1.535-.2v-1.655A.782.782,0,0,0,217.487,212.23Z" transform="translate(-209.289 -212.23)"></path></g><g transform="translate(14.553 19.44)"><path class="a" d="M187.617,275.04a.781.781,0,1,0,.229.552A.786.786,0,0,0,187.617,275.04Z" transform="translate(-186.283 -274.811)"></path></g><g transform="translate(29.999)"><g transform="translate(0 0)"><path class="a" d="M391.022,25.982a2.974,2.974,0,0,0-2.864,2.188h-3.387a.781.781,0,0,0-.781.781v.781a.781.781,0,1,0,1.563,0h2.605a2.969,2.969,0,1,0,2.864-3.75Zm0,4.375a1.406,1.406,0,1,1,1.406-1.406A1.408,1.408,0,0,1,391.022,30.357Z" transform="translate(-383.99 -25.982)"></path></g></g><g transform="translate(0 30.002)"><path class="a" d="M9.219,411.392a.781.781,0,0,0-.781.781v.026H5.833a2.969,2.969,0,1,0,0,1.563H9.219a.781.781,0,0,0,.781-.781v-.807A.781.781,0,0,0,9.219,411.392Zm-6.25,2.995a1.406,1.406,0,1,1,1.406-1.406A1.408,1.408,0,0,1,2.969,414.387Z" transform="translate(0 -410.012)"></path></g></svg> 