<?xml version="1.0" encoding="UTF-8"?> <svg xmlns="http://www.w3.org/2000/svg" width="173.43" height="194.878" viewBox="0 0 173.43 194.878"><g id="fingerprints" transform="translate(-48.642 -20.499)"><g id="Group_141" data-name="Group 141" transform="translate(48.642 20.499)"><g id="Group_116" data-name="Group 116" transform="translate(160.049 124.768)"><path id="Path_54" data-name="Path 54" d="M438.049,332.233a2.082,2.082,0,0,1-1.478-.613l-4.6-4.6a2.09,2.09,0,0,1,0-2.957l4.6-4.6a2.09,2.09,0,0,1,2.957,0l4.6,4.6a2.09,2.09,0,0,1,0,2.957l-4.6,4.6A2.084,2.084,0,0,1,438.049,332.233Zm-1.643-6.691,1.643,1.643,1.643-1.643L438.05,323.9Z" transform="translate(-431.358 -318.851)" fill="#002aa7"></path></g><g id="Group_117" data-name="Group 117" transform="translate(151.305 12.114)"><path id="Path_55" data-name="Path 55" d="M417.142,62.848a2.082,2.082,0,0,1-1.478-.613l-4.6-4.6a2.09,2.09,0,0,1,0-2.957l4.6-4.6a2.09,2.09,0,0,1,2.957,0l4.6,4.6a2.09,2.09,0,0,1,0,2.957l-4.6,4.6A2.082,2.082,0,0,1,417.142,62.848ZM415.5,56.157l1.643,1.643,1.643-1.643-1.643-1.643Z" transform="translate(-410.451 -49.466)" fill="#002aa7"></path></g><g id="Group_118" data-name="Group 118" transform="translate(0 54.434)"><path id="Path_56" data-name="Path 56" d="M55.456,164.292a2.085,2.085,0,0,1-1.478-.612l-4.723-4.722a2.09,2.09,0,0,1,0-2.957l4.723-4.723a2.09,2.09,0,0,1,2.957,0L61.657,156a2.091,2.091,0,0,1,0,2.957l-4.722,4.722A2.083,2.083,0,0,1,55.456,164.292Zm-1.766-6.813,1.766,1.765,1.765-1.765-1.765-1.766Z" transform="translate(-48.642 -150.665)" fill="#f6b900"></path></g><g id="Group_119" data-name="Group 119" transform="translate(152.555 105.54)"><path id="Path_57" data-name="Path 57" d="M418.88,283.754a5.441,5.441,0,1,1,5.441-5.441A5.448,5.448,0,0,1,418.88,283.754Zm0-6.7a1.26,1.26,0,1,0,1.26,1.26A1.261,1.261,0,0,0,418.88,277.053Z" transform="translate(-413.439 -272.871)" fill="#f64000"></path></g><g id="Group_120" data-name="Group 120" transform="translate(12.362 85.15)"><path id="Path_58" data-name="Path 58" d="M83.645,235a5.442,5.442,0,1,1,5.441-5.441A5.448,5.448,0,0,1,83.645,235Zm0-6.7a1.26,1.26,0,1,0,1.26,1.26A1.261,1.261,0,0,0,83.645,228.3Z" transform="translate(-78.203 -224.114)" fill="#f64000"></path></g><g id="Group_126" data-name="Group 126" transform="translate(34.776)"><g id="Group_122" data-name="Group 122"><g id="Group_121" data-name="Group 121"><path id="Path_59" data-name="Path 59" d="M136.8,225.285A8.714,8.714,0,0,0,145.513,234h86.2a8.714,8.714,0,0,0,8.715-8.711V61.212a8.714,8.714,0,0,0-8.715-8.711h-86.2a8.714,8.714,0,0,0-8.715,8.711Z" transform="translate(-134.708 -39.118)" fill="#36f" opacity="0.1"></path><path id="Path_60" data-name="Path 60" d="M240.427,34.211V198.284a8.714,8.714,0,0,1-8.715,8.711h-86.2a8.714,8.714,0,0,1-8.715-8.711V34.211a8.714,8.714,0,0,1,8.715-8.711h86.2a8.714,8.714,0,0,1,8.715,8.711Z" transform="translate(-134.708 -23.409)" fill="#b6c8fc"></path><path id="Path_61" data-name="Path 61" d="M136.8,218v92.282a8.714,8.714,0,0,0,8.715,8.711h86.2a8.714,8.714,0,0,0,8.715-8.711V218Z" transform="translate(-134.708 -135.407)" fill="#fff"></path><path id="Path_62" data-name="Path 62" d="M244.728,37.211,248.263,25.5H184.7l3.535,11.712a4.182,4.182,0,0,0,4,2.973h48.488A4.182,4.182,0,0,0,244.728,37.211Z" transform="translate(-162.577 -23.408)" fill="#b6c8fc"></path><path id="Path_63" data-name="Path 63" d="M237.518,131.111a2.091,2.091,0,0,0,2.091-2.091V31.3a10.817,10.817,0,0,0-10.8-10.8H217.487a2.091,2.091,0,0,0-2,1.487L211.95,33.7a2.078,2.078,0,0,1-2,1.487H161.461a2.078,2.078,0,0,1-2-1.487l-2.722-9.017h46.64a2.091,2.091,0,1,0,0-4.182H142.6a10.817,10.817,0,0,0-10.8,10.8v164.07a10.816,10.816,0,0,0,10.8,10.8h86.2a10.817,10.817,0,0,0,10.8-10.8V143.239a2.091,2.091,0,1,0-4.182,0v52.135A6.63,6.63,0,0,1,228.8,202H142.6a6.63,6.63,0,0,1-6.622-6.622V31.3a6.63,6.63,0,0,1,6.622-6.622h9.764l3.087,10.225a6.235,6.235,0,0,0,6.005,4.46h48.488a6.236,6.236,0,0,0,6.005-4.46l3.086-10.225H228.8a6.63,6.63,0,0,1,6.622,6.622V129.02a2.091,2.091,0,0,0,2.091,2.091Z" transform="translate(-131.8 -20.499)" fill="#36f"></path></g></g><g id="Group_123" data-name="Group 123" transform="translate(33.477 7.404)"><circle id="Ellipse_15" data-name="Ellipse 15" cx="2.03" cy="2.03" r="2.03" fill="#36f"></circle></g><g id="Group_124" data-name="Group 124" transform="translate(40.304 7.404)"><circle id="Ellipse_16" data-name="Ellipse 16" cx="2.03" cy="2.03" r="2.03" fill="#36f"></circle></g><g id="Group_125" data-name="Group 125" transform="translate(53.377 7.567)"><path id="Path_64" data-name="Path 64" d="M276.944,42.49H261.386a1.948,1.948,0,0,1,0-3.9h15.558a1.948,1.948,0,1,1,0,3.9Z" transform="translate(-259.438 -38.593)" fill="#f6b900"></path></g></g><g id="Group_130" data-name="Group 130" transform="translate(63.898 27.811)"><g id="Group_127" data-name="Group 127" transform="translate(0 32.858)"><path id="Path_65" data-name="Path 65" d="M203.386,165.573h45.667a1.948,1.948,0,1,1,0,3.9H203.386a1.948,1.948,0,1,1,0-3.9Z" transform="translate(-201.438 -165.573)" fill="#fff"></path></g><g id="Group_128" data-name="Group 128" transform="translate(4.391 40.723)"><path id="Path_66" data-name="Path 66" d="M213.886,184.382h36.885a1.948,1.948,0,1,1,0,3.9H213.886a1.948,1.948,0,0,1,0-3.9Z" transform="translate(-211.938 -184.382)" fill="#fff"></path></g><g id="Group_129" data-name="Group 129" transform="translate(12.546)"><path id="Path_67" data-name="Path 67" d="M233.386,87h20.576a1.948,1.948,0,0,1,0,3.9H233.386a1.948,1.948,0,1,1,0-3.9Z" transform="translate(-231.438 -87.002)" fill="#fff"></path></g></g><g id="Group_140" data-name="Group 140" transform="translate(55.601 90.855)"><g id="Group_131" data-name="Group 131" transform="translate(0)"><path id="Path_68" data-name="Path 68" d="M183.691,251.723a2.091,2.091,0,0,1-1.342-3.7,44.429,44.429,0,0,1,54.914-1.5,2.091,2.091,0,0,1-2.5,3.356,40.236,40.236,0,0,0-49.736,1.351A2.083,2.083,0,0,1,183.691,251.723Z" transform="translate(-181.599 -237.755)" fill="#36f"></path></g><g id="Group_132" data-name="Group 132" transform="translate(60.108 15.912)"><path id="Path_69" data-name="Path 69" d="M330.639,282.006l.032-.028a2.066,2.066,0,0,0,.363-2.7q-.9-1.336-1.9-2.606a2.162,2.162,0,0,0-2.853-.541,2.091,2.091,0,0,0-.493,3.053q.945,1.187,1.792,2.441a2.058,2.058,0,0,0,3.06.384Z" transform="translate(-325.332 -275.803)" fill="#36f"></path></g><g id="Group_133" data-name="Group 133" transform="translate(0 8.364)"><path id="Path_70" data-name="Path 70" d="M240.854,311.455A2.091,2.091,0,0,1,239,308.4a31.809,31.809,0,0,0-28.233-46.464A31.463,31.463,0,0,0,185.362,274.6a2.091,2.091,0,0,1-3.346-2.508,35.61,35.61,0,0,1,28.751-14.336,35.991,35.991,0,0,1,31.945,52.572A2.089,2.089,0,0,1,240.854,311.455Z" transform="translate(-181.598 -257.755)" fill="#36f"></path></g><g id="Group_134" data-name="Group 134" transform="translate(0 16.727)"><path id="Path_71" data-name="Path 71" d="M236.3,333.3a2.083,2.083,0,0,1-1.4-.535c-7.109-6.385-3.579-15.956-3.425-16.36a2.035,2.035,0,0,1,.1-.22,23.444,23.444,0,0,0-41.616-21.6,32.952,32.952,0,0,1-4.713,6.715,2.091,2.091,0,1,1-3.119-2.786,28.813,28.813,0,0,0,4.12-5.855,27.626,27.626,0,0,1,49.1,25.328c-.311.9-2.361,7.443,2.344,11.668a2.091,2.091,0,0,1-1.4,3.647Z" transform="translate(-181.598 -277.754)" fill="#f64000"></path></g><g id="Group_135" data-name="Group 135" transform="translate(12.541 25.091)"><path id="Path_72" data-name="Path 72" d="M245.387,352.118a2.084,2.084,0,0,1-1.444-.579c-9.29-8.869-5.593-21.912-2.321-27.613a15.082,15.082,0,0,0-26.173-14.94,2.091,2.091,0,0,1-3.543-2.222,19.14,19.14,0,0,1,16.313-9.01,19.263,19.263,0,0,1,17.1,28.138c-.015.028-.03.056-.045.082a27.159,27.159,0,0,0-2.773,8.177c-.955,5.873.5,10.706,4.335,14.364a2.091,2.091,0,0,1-1.444,3.6Z" transform="translate(-211.587 -297.754)" fill="#36f"></path></g><g id="Group_136" data-name="Group 136" transform="translate(0 41.404)"><path id="Path_73" data-name="Path 73" d="M183.691,347.8a2.091,2.091,0,0,1-1.314-3.719,49.459,49.459,0,0,0,6.776-6.58,2.091,2.091,0,1,1,3.2,2.7A53.649,53.649,0,0,1,185,347.34a2.082,2.082,0,0,1-1.311.463Z" transform="translate(-181.598 -336.761)" fill="#36f"></path></g><g id="Group_137" data-name="Group 137" transform="translate(23.732 67.063)"><path id="Path_74" data-name="Path 74" d="M251.731,412.081a2.089,2.089,0,0,1-1.764-.966,31.32,31.32,0,0,1-3-6.918c-1.67,1.592-3.415,3.128-5.213,4.591a2.091,2.091,0,1,1-2.639-3.243,84.242,84.242,0,0,0,7.4-6.787,2.091,2.091,0,0,1,3.54.974c.014.059,1.418,5.971,3.438,9.132a2.091,2.091,0,0,1-1.761,3.217Z" transform="translate(-238.346 -398.119)" fill="#36f"></path></g><g id="Group_138" data-name="Group 138" transform="translate(0 32.723)"><path id="Path_75" data-name="Path 75" d="M197.577,358.8a2.091,2.091,0,0,1-1.232-3.781,70.5,70.5,0,0,0,21.035-23.951,7.448,7.448,0,0,0-13.22-6.865c-5.7,10.978-15.417,18.082-19.331,20.626a2.091,2.091,0,0,1-2.28-3.506c3.635-2.364,12.657-8.952,17.9-19.046a11.63,11.63,0,0,1,20.645,10.717A74.71,74.71,0,0,1,198.807,358.4,2.081,2.081,0,0,1,197.577,358.8Z" transform="translate(-181.598 -316.005)" fill="#36f"></path></g><g id="Group_139" data-name="Group 139" transform="translate(2.091 41.079)"><path id="Path_76" data-name="Path 76" d="M188.691,367.177a2.091,2.091,0,0,1-1.007-3.925c.235-.13,16.512-9.248,25.281-26.137a2.091,2.091,0,1,1,3.711,1.927c-9.39,18.089-26.268,27.487-26.982,27.878A2.074,2.074,0,0,1,188.691,367.177Z" transform="translate(-186.598 -335.986)" fill="#f64000"></path></g></g><path id="Path_77" data-name="Path 77" d="M251.091,129.381H210.9a1.254,1.254,0,0,1-1.255-1.255V116.761a1.254,1.254,0,0,1,1.255-1.255h40.191a1.254,1.254,0,0,1,1.255,1.255v11.366A1.254,1.254,0,0,1,251.091,129.381Z" transform="translate(-142.315 -75.775)" fill="#f6b900"></path><circle id="Ellipse_17" data-name="Ellipse 17" cx="6.814" cy="6.814" r="6.814" transform="translate(116.699 75.78)" fill="#f64000"></circle></g></g></svg> 