<?xml version="1.0" encoding="UTF-8"?> <svg xmlns="http://www.w3.org/2000/svg" width="175.154" height="196.559" viewBox="0 0 175.154 196.559"><g id="switch" transform="translate(-21.937 -23.095)"><g id="Group_112" data-name="Group 112" transform="translate(21.937 23.095)"><g id="Group_90" data-name="Group 90" transform="translate(69.674 22.183)" opacity="0.1"><g id="Group_87" data-name="Group 87" transform="translate(5.481 8.74)"><path id="Path_25" data-name="Path 25" d="M249.294,103.478a2.1,2.1,0,0,1-1.092-.306,17.79,17.79,0,0,0-18.436,0,2.11,2.11,0,1,1-2.188-3.608,22.009,22.009,0,0,1,22.813,0,2.11,2.11,0,0,1-1.1,3.914Z" transform="translate(-226.561 -96.377)" fill="#00c"></path></g><g id="Group_88" data-name="Group 88" transform="translate(11.407 17.246)"><path id="Path_26" data-name="Path 26" d="M251.486,121.982a2.1,2.1,0,0,1-1.092-.306,6.459,6.459,0,0,0-6.585,0,2.11,2.11,0,0,1-2.188-3.608,10.576,10.576,0,0,1,10.963,0,2.11,2.11,0,0,1-1.1,3.914Z" transform="translate(-240.604 -116.536)" fill="#00c"></path></g><g id="Group_89" data-name="Group 89"><path id="Path_27" data-name="Path 27" d="M247.267,84.3a2.1,2.1,0,0,1-1.092-.306,28.368,28.368,0,0,0-29.4,0,2.11,2.11,0,0,1-2.188-3.608,32.588,32.588,0,0,1,33.776,0,2.11,2.11,0,0,1-1.1,3.914Z" transform="translate(-213.571 -75.665)" fill="#00c"></path></g></g><g id="Group_91" data-name="Group 91" transform="translate(10.294 13.5)" opacity="0.1"><path id="Path_28" data-name="Path 28" d="M235.973,157.344H190.189a8.439,8.439,0,0,0-8.439,8.439v86.333a8.439,8.439,0,0,0,8.439,8.439h45.784a8.439,8.439,0,0,0,8.439-8.439V165.783A8.44,8.44,0,0,0,235.973,157.344Z" transform="translate(-135.798 -114.194)" fill="#36f"></path><path id="Path_29" data-name="Path 29" d="M124.677,133.733H92.326V88.76l15.253-5.849V61.745L90.216,55.087,72.853,61.745V82.911L88.106,88.76v47.083a2.11,2.11,0,0,0,2.11,2.11h34.461Z" transform="translate(-72.853 -55.087)" fill="#36f"></path><path id="Path_30" data-name="Path 30" d="M352.519,341.721V294.638a2.11,2.11,0,0,0-2.11-2.11H315.667v4.22H348.3v44.973l-15.253,5.849v21.166l17.363,6.658,17.363-6.658V347.57Z" transform="translate(-213.206 -192.334)" fill="#36f"></path></g><g id="Group_111" data-name="Group 111"><g id="Group_105" data-name="Group 105" transform="translate(8.184)"><g id="Group_94" data-name="Group 94" transform="translate(48.061 45.256)"><g id="Group_92" data-name="Group 92" transform="translate(0 0)"><path id="Path_31" data-name="Path 31" d="M235.973,233.556H190.189a8.439,8.439,0,0,1-8.439-8.439V138.783a8.439,8.439,0,0,1,8.439-8.439h45.784a8.439,8.439,0,0,1,8.439,8.439v86.333A8.44,8.44,0,0,1,235.973,233.556Z" transform="translate(-181.75 -130.344)" fill="#b6c8fc"></path></g><g id="Group_93" data-name="Group 93" transform="translate(9.952 77.793)"><path id="Path_32" data-name="Path 32" d="M215.18,340.119h-9.846v-23.31a2.11,2.11,0,0,1,2.11-2.11h5.626a2.11,2.11,0,0,1,2.11,2.11Z" transform="translate(-205.334 -314.699)" fill="#8fabff"></path><path id="Path_33" data-name="Path 33" d="M293.18,340.119h-9.846v-23.31a2.11,2.11,0,0,1,2.11-2.11h5.626a2.11,2.11,0,0,1,2.11,2.11Z" transform="translate(-250.42 -314.699)" fill="#8fabff"></path></g><path id="Path_34" data-name="Path 34" d="M252.671,130.344v2.517a9,9,0,0,1-18,0v-2.517Z" transform="translate(-212.337 -130.344)" fill="#f64000"></path></g><g id="Group_104" data-name="Group 104"><g id="Group_98" data-name="Group 98" transform="translate(2.11 2.106)"><g id="Group_95" data-name="Group 95" transform="translate(64.375 66.164)"><path id="Path_35" data-name="Path 35" d="M250.923,203.923l-10.8-18.013a2.11,2.11,0,0,0-3.619,0l-10.8,18.013a2.11,2.11,0,0,0,1.81,3.194h21.591A2.11,2.11,0,0,0,250.923,203.923Z" transform="translate(-225.41 -184.885)" fill="#fff"></path></g><g id="Group_97" data-name="Group 97"><g id="Group_96" data-name="Group 96"><path id="Path_36" data-name="Path 36" d="M72.853,55.911V34.745l17.363-6.658,17.363,6.658V55.911Z" transform="translate(-72.853 -28.087)" fill="#f64000"></path><path id="Path_37" data-name="Path 37" d="M90.216,55.911H72.853V34.745l17.363-6.658Z" transform="translate(-72.853 -28.087)" fill="#ffb3b3"></path><path id="Path_38" data-name="Path 38" d="M90.216,91.562,107.579,84.9,90.216,78.246,72.853,84.9Z" transform="translate(-72.853 -57.08)" fill="#ff8d8d"></path></g></g></g><g id="Group_103" data-name="Group 103"><g id="Group_99" data-name="Group 99" transform="translate(66.484 96.769)"><path id="Path_39" data-name="Path 39" d="M225.713,255.615l10.8,18.013a2.11,2.11,0,0,0,3.619,0l10.8-18.013a2.11,2.11,0,0,0-1.81-3.194H227.522A2.11,2.11,0,0,0,225.713,255.615Z" transform="translate(-225.409 -252.421)" fill="#fff"></path></g><g id="Group_101" data-name="Group 101" transform="translate(121.95 150.684)"><g id="Group_100" data-name="Group 100"><path id="Path_40" data-name="Path 40" d="M391.579,395.968v21.166l-17.363,6.658-17.363-6.658V395.968Z" transform="translate(-356.853 -389.31)" fill="#f6b900"></path><path id="Path_41" data-name="Path 41" d="M398,395.968h17.363v21.166L398,423.792Z" transform="translate(-380.637 -389.31)" fill="#ffe8dc"></path><path id="Path_42" data-name="Path 42" d="M374.216,380.189l-17.363,6.658,17.363,6.658,17.363-6.658Z" transform="translate(-356.853 -380.189)" fill="#ffebae"></path></g></g><g id="Group_102" data-name="Group 102"><path id="Path_43" data-name="Path 43" d="M207.238,299.723H187.3a6.337,6.337,0,0,1-6.33-6.33v-42.82a2.11,2.11,0,0,0-4.22,0v42.819A10.561,10.561,0,0,0,187.3,303.942h19.938a2.11,2.11,0,1,0,0-4.219Z" transform="translate(-130.798 -153.364)" fill="#36f"></path><path id="Path_44" data-name="Path 44" d="M249.294,76.478a2.11,2.11,0,0,0,1.1-3.914,22.009,22.009,0,0,0-22.813,0,2.11,2.11,0,0,0,2.188,3.608,17.79,17.79,0,0,1,18.436,0,2.1,2.1,0,0,0,1.092.306Z" transform="translate(-159.591 -49.847)" fill="#36f"></path><path id="Path_45" data-name="Path 45" d="M247.1,89.536a10.568,10.568,0,0,0-5.481,1.531,2.11,2.11,0,0,0,2.188,3.608,6.459,6.459,0,0,1,6.585,0,2.11,2.11,0,1,0,2.188-3.608,10.563,10.563,0,0,0-5.481-1.531Z" transform="translate(-167.707 -61.5)" fill="#36f"></path><path id="Path_46" data-name="Path 46" d="M216.776,56.99a28.369,28.369,0,0,1,29.4,0,2.11,2.11,0,0,0,2.188-3.608,32.588,32.588,0,0,0-33.776,0,2.11,2.11,0,0,0,2.188,3.608Z" transform="translate(-152.082 -37.875)" fill="#36f"></path><path id="Path_47" data-name="Path 47" d="M226.6,180.055a2.135,2.135,0,0,0-1.316-1.588l-16.008-6.139V127.5a2.11,2.11,0,0,0-2.11-2.11H180.687v-48.6a10.561,10.561,0,0,0-10.549-10.549H124.354A10.561,10.561,0,0,0,113.8,76.791v27.057H89.436V61.134L105.444,55a2.146,2.146,0,0,0,1.355-1.97V31.86a2.109,2.109,0,0,0-1.355-1.97L88.081,23.232a2.155,2.155,0,0,0-1.511,0L69.208,29.89a2.109,2.109,0,0,0-1.355,1.97V53.025a2.147,2.147,0,0,0,1.355,1.97l16.008,6.139v44.823a2.11,2.11,0,0,0,2.11,2.11h59.92a2.11,2.11,0,0,0,0-4.22H118.024V76.791a6.337,6.337,0,0,1,6.33-6.33h45.784a6.337,6.337,0,0,1,6.33,6.33v48.6H147.246a2.11,2.11,0,0,0,0,4.22h29.222v33.509a6.337,6.337,0,0,1-6.33,6.33h-11.5a2.11,2.11,0,0,0,0,4.22h11.5a10.561,10.561,0,0,0,10.549-10.549V129.615h24.369v42.713l-16.009,6.139a2.146,2.146,0,0,0-1.355,1.97V201.6a2.109,2.109,0,0,0,1.355,1.97l17.363,6.658a2.129,2.129,0,0,0,1.511,0l17.363-6.658a2.109,2.109,0,0,0,1.355-1.97V180.437A2.049,2.049,0,0,0,226.6,180.055ZM102.579,49.956l-13.143-5.04V28.27l13.143,5.04ZM85.216,28.27V44.916l-13.143,5.04V33.31ZM75.855,53.026l11.47-4.4,11.47,4.4-9.361,3.589v-1.8a2.11,2.11,0,1,0-4.22,0v1.8Zm129.2,123.822v1.8a2.11,2.11,0,1,0,4.22,0v-1.8l9.361,3.589-11.471,4.4-11.47-4.4Zm-13.143,6.658,13.143,5.04v16.646l-13.143-5.04Zm17.363,21.686V188.546l13.143-5.04v16.646Z" transform="translate(-67.853 -23.095)" fill="#36f"></path></g></g></g></g><g id="Group_106" data-name="Group 106" transform="translate(18.184 125.131)"><path id="Path_48" data-name="Path 48" d="M98.3,333.137a2.1,2.1,0,0,1-1.492-.618l-4.642-4.642a2.11,2.11,0,0,1,0-2.984l4.642-4.642a2.11,2.11,0,0,1,2.984,0l4.642,4.642a2.11,2.11,0,0,1,0,2.984l-4.642,4.642a2.1,2.1,0,0,1-1.492.618Zm-1.658-6.752,1.658,1.658,1.658-1.658L98.3,324.727Z" transform="translate(-91.549 -319.634)" fill="#002aa7"></path></g><g id="Group_107" data-name="Group 107" transform="translate(0 40.825)"><path id="Path_49" data-name="Path 49" d="M55.209,133.347a2.1,2.1,0,0,1-1.492-.618l-4.642-4.642a2.11,2.11,0,0,1,0-2.984l4.642-4.642a2.11,2.11,0,0,1,2.984,0l4.642,4.642a2.11,2.11,0,0,1,0,2.984L56.7,132.729A2.1,2.1,0,0,1,55.209,133.347ZM53.551,126.6l1.658,1.658,1.658-1.658-1.658-1.658Z" transform="translate(-48.457 -119.844)" fill="#f64000"></path></g><g id="Group_108" data-name="Group 108" transform="translate(161.651 129.354)"><path id="Path_50" data-name="Path 50" d="M438.293,343.145a2.1,2.1,0,0,1-1.492-.618l-4.642-4.642a2.109,2.109,0,0,1,0-2.984l4.642-4.642a2.11,2.11,0,0,1,2.984,0l4.642,4.642a2.109,2.109,0,0,1,0,2.984l-4.642,4.642A2.1,2.1,0,0,1,438.293,343.145Zm-1.658-6.752,1.658,1.658,1.658-1.658-1.658-1.658Z" transform="translate(-431.541 -329.642)" fill="#f6b900"></path></g><g id="Group_109" data-name="Group 109" transform="translate(27.467 98.919)"><path id="Path_51" data-name="Path 51" d="M119.041,268.5a5.491,5.491,0,1,1,5.491-5.491,5.5,5.5,0,0,1-5.491,5.491Zm0-6.761a1.271,1.271,0,1,0,1.271,1.271,1.272,1.272,0,0,0-1.271-1.271Z" transform="translate(-113.55 -257.516)" fill="#f6b900"></path></g><g id="Group_110" data-name="Group 110" transform="translate(134.455 70.516)"><path id="Path_52" data-name="Path 52" d="M372.583,201.186a5.491,5.491,0,1,1,5.491-5.491A5.5,5.5,0,0,1,372.583,201.186Zm0-6.762a1.271,1.271,0,1,0,1.271,1.271A1.272,1.272,0,0,0,372.583,194.425Z" transform="translate(-367.092 -190.205)" fill="#002aa7"></path></g></g></g></g></svg> 