<?xml version="1.0" encoding="UTF-8"?> <svg xmlns="http://www.w3.org/2000/svg" width="164.089" height="195.133" viewBox="0 0 164.089 195.133"><g id="touch" transform="translate(-48.837 178.307)"><g id="Group_156" data-name="Group 156" transform="translate(48.837 -178.307)"><path id="Path_79" data-name="Path 79" d="M239.206,82.693H135.023a4.51,4.51,0,0,0-4.511,4.511v82.579a4.51,4.51,0,0,0,4.511,4.511h35.086v38.28l-8.656-8.656a12.62,12.62,0,0,0-17.838-.01l-.149.149a8.294,8.294,0,0,0-.008,11.736l13.213,13.213a51.314,51.314,0,0,1,11.9,18.637,23.9,23.9,0,0,0,22.412,15.75H211.2a23.823,23.823,0,0,0,23.823-23.823V197.987a8.115,8.115,0,1,0-16.229,0v-3.8a8.115,8.115,0,1,0-16.229,0v-3.746a8.115,8.115,0,0,0-16.229,0v-16.15h52.868a4.51,4.51,0,0,0,4.511-4.511V87.2a4.51,4.51,0,0,0-4.511-4.511Z" transform="translate(-105.399 -68.259)" fill="#00c" opacity="0.1"></path><g id="Group_150" data-name="Group 150" transform="translate(22.857)"><path id="Path_80" data-name="Path 80" d="M239.206,147.293H135.023a4.511,4.511,0,0,1-4.511-4.511V60.2a4.51,4.51,0,0,1,4.511-4.511H239.206a4.51,4.51,0,0,1,4.511,4.511v82.579A4.511,4.511,0,0,1,239.206,147.293Z" transform="translate(-128.257 -53.438)" fill="#c0cdf6"></path><g id="Group_145" data-name="Group 145"><g id="Group_142" data-name="Group 142" transform="translate(11.378 35.256)"><path id="Path_81" data-name="Path 81" d="M225.659,180.906a2.255,2.255,0,0,1-2.255-2.255V167.444a34.078,34.078,0,1,0-68.156,0v11.206a2.255,2.255,0,1,1-4.511,0V167.444a38.588,38.588,0,0,1,77.177,0v11.206A2.256,2.256,0,0,1,225.659,180.906Z" transform="translate(-150.737 -128.856)" fill="#ff6c6c"></path></g><g id="Group_143" data-name="Group 143" transform="translate(20.579 44.233)"><path id="Path_82" data-name="Path 82" d="M227.656,191.83a2.255,2.255,0,0,1-2.255-2.255V178.144a24.877,24.877,0,0,0-49.754,0v11.431a2.255,2.255,0,1,1-4.511,0V178.144a29.388,29.388,0,0,1,58.775,0v11.431a2.256,2.256,0,0,1-2.255,2.255Z" transform="translate(-171.136 -148.757)" fill="#ff4d4d"></path></g><g id="Group_144" data-name="Group 144" transform="translate(30.035 53.084)"><path id="Path_83" data-name="Path 83" d="M229.707,202.6a2.255,2.255,0,0,1-2.255-2.255V188.312a15.421,15.421,0,0,0-30.842,0v12.035a2.255,2.255,0,1,1-4.511,0V188.312a19.932,19.932,0,1,1,39.864,0v12.035A2.256,2.256,0,0,1,229.707,202.6Z" transform="translate(-192.099 -168.38)" fill="#ff2c2c"></path></g><path id="Path_84" data-name="Path 84" d="M239.709,238.43a8.114,8.114,0,0,0-8.115,8.115v-3.8a8.115,8.115,0,0,0-16.229,0V239a8.115,8.115,0,0,0-16.229,0V201.449a8.115,8.115,0,0,0-16.229,0v59.682l-8.656-8.656a12.621,12.621,0,0,0-17.838-.01l-.149.149a8.294,8.294,0,0,0-.008,11.736l13.213,13.213a51.314,51.314,0,0,1,11.9,18.637,23.9,23.9,0,0,0,22.412,15.75H224a23.823,23.823,0,0,0,23.823-23.823V246.545a8.114,8.114,0,0,0-8.115-8.115Z" transform="translate(-141.056 -128.995)" fill="#ffab66"></path><path id="Path_85" data-name="Path 85" d="M240.972,102.478a2.255,2.255,0,0,0,2.255-2.255V57.459a6.774,6.774,0,0,0-6.766-6.766H132.278a6.774,6.774,0,0,0-6.766,6.766v82.579a6.774,6.774,0,0,0,6.766,6.766h32.831v30.58l-4.806-4.806a14.9,14.9,0,0,0-21.028-.009l-.148.147a10.549,10.549,0,0,0-.009,14.927l13.213,13.213a48.732,48.732,0,0,1,11.377,17.819A26.259,26.259,0,0,0,188.237,235.9h20.22a26.108,26.108,0,0,0,26.078-26.078V168.243a10.365,10.365,0,0,0-17.077-7.9,10.363,10.363,0,0,0-16.246-3.784,10.364,10.364,0,0,0-15.365-4.41V146.8H236.46a6.774,6.774,0,0,0,6.766-6.766v-24.48a2.255,2.255,0,1,0-4.511,0v24.479a2.258,2.258,0,0,1-2.255,2.255H185.847V123.147a10.37,10.37,0,0,0-20.74,0v6.065a2.255,2.255,0,1,0,4.511,0v-6.065a5.859,5.859,0,1,1,11.718,0V160.7a2.255,2.255,0,0,0,4.511,0,5.859,5.859,0,0,1,11.718,0v3.746a2.255,2.255,0,1,0,4.511,0,5.859,5.859,0,0,1,11.718,0v3.8a2.255,2.255,0,1,0,4.511,0,5.859,5.859,0,1,1,11.718,0v41.582a21.592,21.592,0,0,1-21.568,21.568h-20.22a21.733,21.733,0,0,1-20.294-14.27,53.2,53.2,0,0,0-12.423-19.456l-13.213-13.213a6.039,6.039,0,0,1,0-8.54l.155-.154a10.379,10.379,0,0,1,14.65.008l8.656,8.656a2.255,2.255,0,0,0,3.85-1.594v-38.28a2.255,2.255,0,0,0-2.255-2.255H132.277a2.258,2.258,0,0,1-2.255-2.255V57.459a2.258,2.258,0,0,1,2.255-2.255H236.46a2.258,2.258,0,0,1,2.255,2.255v42.763a2.257,2.257,0,0,0,2.257,2.255Z" transform="translate(-125.512 -50.693)" fill="#36f"></path></g><g id="Group_146" data-name="Group 146" transform="translate(15.252 11.143)"><path id="Path_86" data-name="Path 86" d="M161.129,96.4h85.428a1.8,1.8,0,0,0,1.8-1.8V85.112a1.8,1.8,0,0,0-1.8-1.8H161.129a1.8,1.8,0,0,0-1.8,1.8v9.481A1.8,1.8,0,0,0,161.129,96.4Z" transform="translate(-159.325 -79.74)" fill="#002aa7"></path><path id="Path_87" data-name="Path 87" d="M330.175,82.891a7.493,7.493,0,1,0-12.842,5.238,7.467,7.467,0,0,0-2.145,5.238,2.255,2.255,0,1,0,4.511,0,2.983,2.983,0,0,1,5.966,0,2.255,2.255,0,1,0,4.511,0,7.464,7.464,0,0,0-2.145-5.238A7.464,7.464,0,0,0,330.175,82.891Zm-7.493-2.983a2.983,2.983,0,1,1-2.983,2.983A2.986,2.986,0,0,1,322.681,79.908Z" transform="translate(-244.885 -75.398)" fill="#36f"></path></g><g id="Group_148" data-name="Group 148" transform="translate(91.905 35.923)"><g id="Group_147" data-name="Group 147"><path id="Path_88" data-name="Path 88" d="M331.582,136.585a2.315,2.315,0,0,1-2.315-2.315v-1.621a2.315,2.315,0,0,1,4.631,0v1.621A2.315,2.315,0,0,1,331.582,136.585Z" transform="translate(-329.267 -130.334)" fill="#ffe8dc"></path></g><path id="Path_89" data-name="Path 89" d="M348.167,130.334a2.315,2.315,0,0,1,2.315,2.315v1.621a2.315,2.315,0,1,1-4.631,0v-1.621a2.315,2.315,0,0,1,2.315-2.315" transform="translate(-338.371 -130.334)" fill="#ffe8dc"></path></g><g id="Group_149" data-name="Group 149" transform="translate(24.276 19)"><path id="Path_90" data-name="Path 90" d="M216.1,97.328H181.587a2.255,2.255,0,0,1,0-4.511H216.1a2.255,2.255,0,1,1,0,4.511Z" transform="translate(-179.332 -92.817)" fill="#36f"></path></g></g><g id="Group_151" data-name="Group 151" transform="translate(23.538 109.193)"><path id="Path_91" data-name="Path 91" d="M132.89,304.513a5.869,5.869,0,1,1,5.869-5.869A5.876,5.876,0,0,1,132.89,304.513Zm0-7.228a1.359,1.359,0,1,0,1.359,1.359A1.36,1.36,0,0,0,132.89,297.286Z" transform="translate(-127.021 -292.775)" fill="#f64000"></path></g><g id="Group_152" data-name="Group 152" transform="translate(137.371 104.617)"><path id="Path_92" data-name="Path 92" d="M385.259,294.369a5.869,5.869,0,1,1,5.869-5.869A5.876,5.876,0,0,1,385.259,294.369Zm0-7.227a1.359,1.359,0,1,0,1.359,1.359A1.36,1.36,0,0,0,385.259,287.142Z" transform="translate(-379.39 -282.631)" fill="#f6b900"></path></g><g id="Group_153" data-name="Group 153" transform="translate(1.348 99.87)"><path id="Path_93" data-name="Path 93" d="M85.175,286.8a2.254,2.254,0,0,1-1.595-.661l-5.093-5.093a2.255,2.255,0,0,1,0-3.189l5.093-5.093a2.255,2.255,0,0,1,3.189,0l5.093,5.093a2.255,2.255,0,0,1,0,3.189l-5.093,5.094a2.253,2.253,0,0,1-1.594.66Zm-1.9-7.349,1.9,1.9,1.9-1.9-1.9-1.9Z" transform="translate(-77.826 -272.106)" fill="#002aa7"></path></g><g id="Group_154" data-name="Group 154" transform="translate(149.392 137.833)"><path id="Path_94" data-name="Path 94" d="M413.39,370.968a2.254,2.254,0,0,1-1.595-.661l-5.093-5.094a2.255,2.255,0,0,1,0-3.189l5.093-5.093a2.255,2.255,0,0,1,3.189,0l5.093,5.093a2.254,2.254,0,0,1,0,3.189l-5.093,5.094A2.252,2.252,0,0,1,413.39,370.968Zm-1.9-7.349,1.9,1.9,1.9-1.9-1.9-1.9Z" transform="translate(-406.041 -356.271)" fill="#002aa7"></path></g><g id="Group_155" data-name="Group 155" transform="translate(0 17.21)"><path id="Path_95" data-name="Path 95" d="M82.186,103.545a2.254,2.254,0,0,1-1.595-.661L75.5,97.791a2.255,2.255,0,0,1,0-3.189l5.093-5.093a2.256,2.256,0,0,1,3.189,0L88.873,94.6a2.254,2.254,0,0,1,0,3.189l-5.093,5.094a2.254,2.254,0,0,1-1.594.661Zm-1.9-7.349,1.9,1.9,1.9-1.9-1.9-1.9Z" transform="translate(-74.837 -88.848)" fill="#f6b900"></path></g></g></g></svg> 