<svg xmlns="http://www.w3.org/2000/svg" width="204.202" height="65.364" viewBox="0 0 204.202 65.364">
  <g id="logo" transform="translate(-858.161 -29.08)">
    <g id="Group_117" data-name="Group 117" transform="translate(-3284.591 269)">
      <path id="Path_6356" data-name="Path 6356" d="M-98.494-1.074h5.225q1.428,0,2.643-.122t2.118-.281q1.05-.171,1.917-.4L-87.19.1q-.146-.012-.439-.024l-.653-.024q-.36-.012-.757-.018L-89.79.018l-.629-.012Q-90.694,0-90.816,0h-11.023V-.305l11.89-16.125h-4.59a25.406,25.406,0,0,0-2.655.128q-1.215.128-2.118.275-1.05.183-1.9.4l.842-1.978q.146.012.446.024l.659.024q.36.012.751.018l.745.012.629.012q.275.006.4.006h10.156v.33ZM-76.238-17.8a10.392,10.392,0,0,1,3.766.665,8.882,8.882,0,0,1,2.985,1.868,8.5,8.5,0,0,1,1.965,2.887,9.516,9.516,0,0,1,.708,3.723,9.781,9.781,0,0,1-.269,2.283,9.3,9.3,0,0,1-.787,2.124A8.966,8.966,0,0,1-69.146-2.4,8.18,8.18,0,0,1-70.873-.934a8.464,8.464,0,0,1-2.142.964,8.841,8.841,0,0,1-2.527.348,10.565,10.565,0,0,1-3.766-.653,8.777,8.777,0,0,1-2.985-1.849A8.446,8.446,0,0,1-84.258-5a9.5,9.5,0,0,1-.708-3.729,9.781,9.781,0,0,1,.269-2.283,9.535,9.535,0,0,1,.787-2.136,8.959,8.959,0,0,1,1.27-1.862,8.191,8.191,0,0,1,1.721-1.471,8.317,8.317,0,0,1,2.148-.97A8.9,8.9,0,0,1-76.238-17.8Zm.7,17.078a6.149,6.149,0,0,0,2.478-.488A5.405,5.405,0,0,0-71.13-2.625a6.6,6.6,0,0,0,1.263-2.264,9.452,9.452,0,0,0,.452-3.033,13.338,13.338,0,0,0-.433-3.485,8.433,8.433,0,0,0-1.288-2.783,6.065,6.065,0,0,0-2.13-1.843,6.34,6.34,0,0,0-2.972-.665,6.217,6.217,0,0,0-2.478.482,5.405,5.405,0,0,0-1.935,1.4,6.475,6.475,0,0,0-1.263,2.246,9.4,9.4,0,0,0-.452,3.027,13.608,13.608,0,0,0,.427,3.485,8.4,8.4,0,0,0,1.282,2.8A6.141,6.141,0,0,0-78.521-1.4,6.282,6.282,0,0,0-75.542-.72ZM-55.984-17.8a10.392,10.392,0,0,1,3.766.665,8.882,8.882,0,0,1,2.985,1.868,8.5,8.5,0,0,1,1.965,2.887,9.516,9.516,0,0,1,.708,3.723,9.781,9.781,0,0,1-.269,2.283,9.294,9.294,0,0,1-.787,2.124A8.966,8.966,0,0,1-48.892-2.4,8.18,8.18,0,0,1-50.619-.934a8.464,8.464,0,0,1-2.142.964,8.841,8.841,0,0,1-2.527.348,10.565,10.565,0,0,1-3.766-.653,8.777,8.777,0,0,1-2.985-1.849A8.446,8.446,0,0,1-64-5a9.5,9.5,0,0,1-.708-3.729,9.781,9.781,0,0,1,.269-2.283,9.535,9.535,0,0,1,.787-2.136,8.96,8.96,0,0,1,1.27-1.862,8.191,8.191,0,0,1,1.721-1.471,8.317,8.317,0,0,1,2.148-.97A8.9,8.9,0,0,1-55.984-17.8Zm.7,17.078a6.149,6.149,0,0,0,2.478-.488,5.405,5.405,0,0,0,1.935-1.416,6.6,6.6,0,0,0,1.263-2.264,9.452,9.452,0,0,0,.452-3.033,13.338,13.338,0,0,0-.433-3.485,8.433,8.433,0,0,0-1.288-2.783,6.065,6.065,0,0,0-2.13-1.843,6.34,6.34,0,0,0-2.972-.665,6.217,6.217,0,0,0-2.478.482,5.405,5.405,0,0,0-1.935,1.4,6.475,6.475,0,0,0-1.263,2.246,9.4,9.4,0,0,0-.452,3.027,13.608,13.608,0,0,0,.427,3.485,8.4,8.4,0,0,0,1.282,2.8A6.141,6.141,0,0,0-58.267-1.4,6.282,6.282,0,0,0-55.289-.72Zm92.128-15.71a23.841,23.841,0,0,0-2.6.128q-1.16.128-2,.275-.977.183-1.746.4l.354-1.978q.146.012.439.024l.653.024q.36.012.757.018l.751.012.629.012q.275.006.4.006h6.97q.122,0,.4-.006l.629-.012.751-.012q.4-.006.757-.018l.653-.024q.293-.012.439-.024l.354,1.978q-.781-.22-1.758-.4-.842-.146-2-.275a23.841,23.841,0,0,0-2.6-.128V-4.773q0,1.038.031,1.813t.073,1.337q.043.562.11.94a6.488,6.488,0,0,0,.14.635V0H36.5V-.049a5.616,5.616,0,0,0,.134-.635q.061-.378.11-.94t.073-1.337q.024-.775.024-1.813ZM55.006-17.8a10.392,10.392,0,0,1,3.766.665,8.882,8.882,0,0,1,2.985,1.868,8.5,8.5,0,0,1,1.965,2.887,9.516,9.516,0,0,1,.708,3.723,9.781,9.781,0,0,1-.269,2.283,9.294,9.294,0,0,1-.787,2.124A8.966,8.966,0,0,1,62.1-2.4,8.18,8.18,0,0,1,60.371-.934a8.464,8.464,0,0,1-2.142.964A8.841,8.841,0,0,1,55.7.378a10.565,10.565,0,0,1-3.766-.653,8.777,8.777,0,0,1-2.985-1.849A8.446,8.446,0,0,1,46.986-5a9.5,9.5,0,0,1-.708-3.729,9.781,9.781,0,0,1,.269-2.283,9.534,9.534,0,0,1,.787-2.136,8.96,8.96,0,0,1,1.27-1.862,8.191,8.191,0,0,1,1.721-1.471,8.317,8.317,0,0,1,2.148-.97A8.9,8.9,0,0,1,55.006-17.8ZM55.7-.72a6.149,6.149,0,0,0,2.478-.488,5.405,5.405,0,0,0,1.935-1.416,6.6,6.6,0,0,0,1.263-2.264,9.452,9.452,0,0,0,.452-3.033,13.338,13.338,0,0,0-.433-3.485,8.433,8.433,0,0,0-1.288-2.783,6.065,6.065,0,0,0-2.13-1.843,6.34,6.34,0,0,0-2.972-.665,6.217,6.217,0,0,0-2.478.482,5.405,5.405,0,0,0-1.935,1.4,6.475,6.475,0,0,0-1.263,2.246,9.4,9.4,0,0,0-.452,3.027A13.608,13.608,0,0,0,49.3-6.061a8.4,8.4,0,0,0,1.282,2.8A6.141,6.141,0,0,0,52.723-1.4,6.282,6.282,0,0,0,55.7-.72Zm14.15-7.031a6.15,6.15,0,0,0,2.191.043,3.682,3.682,0,0,0,1.709-.757,3.786,3.786,0,0,0,1.111-1.569,6.5,6.5,0,0,0,.4-2.417,7.27,7.27,0,0,0-.208-1.8,4.053,4.053,0,0,0-.616-1.379A2.794,2.794,0,0,0,73.4-16.51a3.209,3.209,0,0,0-1.453-.311,8.544,8.544,0,0,0-.916.043q-.391.043-.659.092a3.729,3.729,0,0,0-.525.134ZM67.276-17.5l.513.049q.232.024.519.031t.592.006a9.627,9.627,0,0,0,1.288-.116,15.107,15.107,0,0,1,2.069-.116,6.628,6.628,0,0,1,2.167.342,4.955,4.955,0,0,1,1.727,1A4.565,4.565,0,0,1,77.292-14.7a5.383,5.383,0,0,1,.409,2.155,5.77,5.77,0,0,1-.647,2.808A5.387,5.387,0,0,1,75.32-7.825a6.558,6.558,0,0,1-2.5.995,8.933,8.933,0,0,1-2.966.031v2.026q0,1.038.031,1.813t.073,1.337q.043.562.11.94a6.49,6.49,0,0,0,.14.635V0h-2.93V-.049a6.49,6.49,0,0,0,.14-.635q.067-.378.116-.94t.073-1.337q.024-.775.024-1.813V-12.72q0-1.038-.024-1.813t-.073-1.343q-.049-.568-.116-.946a6.49,6.49,0,0,0-.14-.635ZM80.291-.049a5.615,5.615,0,0,0,.134-.635q.061-.378.11-.94t.073-1.337q.024-.775.024-1.813V-12.72q0-1.038-.024-1.813t-.073-1.343q-.049-.568-.11-.946a5.615,5.615,0,0,0-.134-.635V-17.5h2.917v.049a6.49,6.49,0,0,0-.14.635q-.067.378-.11.946t-.073,1.343q-.031.775-.031,1.813v7.947q0,1.038.031,1.813t.073,1.337q.043.562.11.94a6.49,6.49,0,0,0,.14.635V0H80.291ZM99.019,0V-.049a.714.714,0,0,0,.037-.183q.012-.122.012-.22a3.809,3.809,0,0,0-.1-.836,6.9,6.9,0,0,0-.4-1.141L97.09-5.75q-.684-.024-1.819-.024H90.956q-.9,0-1.617.024l-1.4,3.223q-.183.452-.391.989a2.993,2.993,0,0,0-.208,1.086,1.174,1.174,0,0,0,.024.262.481.481,0,0,0,.049.14V0H84.92V-.049a4.39,4.39,0,0,0,.549-.824q.33-.592.72-1.483l6.995-15.515h.977l6.628,14.917q.232.525.482,1.019t.47.885q.22.391.391.659t.232.342V0Zm-7.91-6.824q.708,0,1.453-.006l1.459-.012,1.373-.012q.659-.006,1.2-.018l-3.43-7.751-3.369,7.8Z" transform="translate(4244.591 -199)" fill="#ffbc00"/>
      <line id="Line_9" data-name="Line 9" x2="50" transform="translate(4143.091 -223.151)" fill="none" stroke="#ffbc00" stroke-linecap="round" stroke-width="0.5"/>
      <path id="Path_4696" data-name="Path 4696" d="M137.572,0H207.9" transform="translate(4138.695 -192.465)" fill="#ffbc00" stroke="#ffbc00" stroke-linecap="round" stroke-width="0.5"/>
    </g>
    <g id="Group_161" data-name="Group 161" transform="translate(912.5 29.08)">
      <path id="Path_4693" data-name="Path 4693" d="M311.258,313.39c.12-.9.36-11.64.14-13.5-.11-.93-.26-1.89-.43-2.85a47.648,47.648,0,0,0,5.16,5.66,80.894,80.894,0,0,1,.26,11.084c-.1,1.13-4.217,3.719-4.02,5.266-.45.09-.91.16-1.35.21a5.17,5.17,0,0,1-3.31-.36C306.708,318.31,311.2,314.314,311.258,313.39Z" transform="translate(-294.778 -254.466)" fill="#ffbc00"/>
      <path id="Path_4694" data-name="Path 4694" d="M247.464,314.29a1.87,1.87,0,0,0,.3-.33c.555-1.013.32-5.11.25-6.01a69.16,69.16,0,0,1-.25-7.48h0a18.18,18.18,0,0,1,3.86-8.35,53.7,53.7,0,0,1,5.48-5.9,50.213,50.213,0,0,0,7.48-8.31c6,.42,13.39.84,17.51,1.26,2.53.26,5.19.56,7.26,2a7.78,7.78,0,0,1,1.68,1.61,8.28,8.28,0,0,1,7,4.28,15.351,15.351,0,0,1,1.57,6.31c.17,2.2-.08,4.39.15,6.57a12.53,12.53,0,0,0,2.59,7l.09-.06a3,3,0,0,1,2.17-.07,7.33,7.33,0,0,1,4.2,3.82,25.169,25.169,0,0,1,1.79,5.53c-2.75-.87-5.61-1.79-7.72-3.77a5,5,0,0,1-1.66-2.73,2.8,2.8,0,0,1,0-1,12.25,12.25,0,0,1-3.25-6.42c-.67-3.33-.4-6.83-1.13-10.14-.59-2.62-2.11-5.25-4.28-6.31a14.449,14.449,0,0,1,.72,4c.13,3.26-.6,6.49-.91,9.73-.15,1.66-.13,3.53,1,4.75.52.55,1.21.91,1.7,1.48a5.87,5.87,0,0,1,1,3.83c0,2.94-.07,6.24-2.19,8.28-1.95,1.88-4.95,2-7.66,1.95a4.87,4.87,0,0,1-3.55-1.1,2.848,2.848,0,0,1-.25-.33,9.18,9.18,0,0,1-6.14.07c-.75-.27,5.451-5.7,6.27-6.88a4.35,4.35,0,0,0,.67-3,1.56,1.56,0,0,0-1.16-1.27,16.53,16.53,0,0,1-8.63-5.61c-.16-.2-.33-.42-.5-.62a16,16,0,0,0,5.21-1.35c1.79,4,5.69,6.81,10,8.26a9.32,9.32,0,0,1-1.76,7.56,3.38,3.38,0,0,0,1.37-.23c1.28-.54,1.83-2.08,1.92-3.48,0-.55.1-1.32.16-2a3,3,0,0,0-1.58-2.88l-.5-.26c-4.27-2.2-7.41-4.52-8.8-9.21-1.49.9-4.33,1.51-7.4,1.85-4.1.45-8.61.41-10.87-.14a8.484,8.484,0,0,1-1.08-.35,5.181,5.181,0,0,1-.57,1c-.95,1.32-2.45,2.14-3.51,3.37-2.18,2.54-2.11,6.24-2.09,9.59,0,2.07-.15,4.42-1.74,5.75-1.36,1.12-3.3,1.12-5.07,1.05a7.551,7.551,0,0,1-2.56-.41,2.58,2.58,0,0,1-.51-.23C242.582,318.447,246.074,315.5,247.464,314.29Z" transform="translate(-224.564 -254.466)" fill="#ffbc00"/>
      <path id="Path_4695" data-name="Path 4695" d="M287.582,271a1.87,1.87,0,0,1,1.65-.75,3.723,3.723,0,0,1,.57.08,10.663,10.663,0,0,1,1.75-1.6l9-7,.43-.33a10.217,10.217,0,0,0,1.05.16c7.59.38,10.57,10.25,6.67,15.94-1.39,2-2.92,3.9-4.21,5.91l.91,2.83c1.49-4.5,6.1-7.6,7-12.25a9.48,9.48,0,0,0,0-3.36h.08a3,3,0,0,0,2.14-.87,3.85,3.85,0,0,0,1.12-3.86,3.07,3.07,0,0,0-3.27-2.1,5,5,0,0,0-2.25,1.27h0c-.26-.44-.53-.87-.82-1.28-1.38-2-3.45-4.14-5.87-3.71a5.8,5.8,0,0,0-1.18.28,13.73,13.73,0,0,1,4.18-3.91,14.56,14.56,0,0,1,21.51,15.91,17.409,17.409,0,0,1-2.49,5.6,50.209,50.209,0,0,1-7.48,8.31,53.706,53.706,0,0,0-5.48,5.9,18.18,18.18,0,0,0-3.86,8.35h0a78.513,78.513,0,0,1-6.3-9.39c-.4-.74-.78-1.49-1.13-2.25a23.81,23.81,0,0,1-2.26-9.92,7.36,7.36,0,0,0-2.56-.39c-1.52,0-3.77.94-5.08-.31a9.77,9.77,0,0,1-2.51-5.26C288.322,272.74,287.072,271.87,287.582,271Zm13.16-5h-2.85a1.44,1.44,0,0,0,2.87,0Z" transform="translate(-287.463 -254.466)" fill="#ffbc00"/>
    </g>
  </g>
</svg>
