<svg xmlns="http://www.w3.org/2000/svg" width="22" height="22" viewBox="0 0 22 22">
  <g id="behance" transform="translate(-1025 -7634)">
    <g id="Group_32" data-name="Group 32" transform="translate(1026.668 7639.238)">
      <g id="surface1" transform="translate(0)">
        <path id="Path_17" data-name="Path 17" d="M-507-131.25v11.592h5.6c.519,0,4.093-.105,4.093-3.368a2.855,2.855,0,0,0-2.115-2.937,2.5,2.5,0,0,0,1.567-2.409c0-.877-.125-2.879-3.7-2.879Zm12.767,1.077v1.057h4.327v-1.057Zm-10.222.9h2.389c.225,0,1.743-.12,1.743,1.332a1.366,1.366,0,0,1-1.547,1.371h-2.585Zm12.494,1.117a3.875,3.875,0,0,0-3.956,4.073,3.779,3.779,0,0,0,3.956,4.073,3.447,3.447,0,0,0,3.622-2.6h-1.88a1.808,1.808,0,0,1-1.664,1.018,1.761,1.761,0,0,1-1.9-1.978h5.561C-488.109-125.689-489.034-128.156-491.961-128.156Zm-.059,1.586a1.573,1.573,0,0,1,1.194.431,2.114,2.114,0,0,1,.49,1.234h-3.446a2.452,2.452,0,0,1,.1-.509,1.5,1.5,0,0,1,.274-.548,1.75,1.75,0,0,1,.548-.431A1.809,1.809,0,0,1-492.02-126.57Zm-12.435,1.743h2.761a1.59,1.59,0,0,1,1.84,1.664c0,1.53-1.627,1.528-1.88,1.528h-2.722Z" transform="translate(507 131.25)" fill="#fff"/>
      </g>
    </g>
    <rect id="Rectangle_90" data-name="Rectangle 90" width="22" height="22" transform="translate(1025 7634)" fill="none"/>
  </g>
</svg>
