<?xml version="1.0" encoding="UTF-8"?> <svg xmlns="http://www.w3.org/2000/svg" width="2164" height="2163.999" viewBox="0 0 2164 2163.999"><g id="Group_196" data-name="Group 196" transform="translate(-198.499 575.5)"><path id="Subtraction_1" data-name="Subtraction 1" d="M-4191.5,4348a494.4,494.4,0,0,1-49.742-2.512,487.723,487.723,0,0,1-48.3-7.372c-15.674-3.208-31.361-7.241-46.624-11.988-15.093-4.694-30.132-10.2-44.7-16.359-14.432-6.1-28.74-13-42.527-20.486-13.689-7.437-27.185-15.636-40.112-24.369a489.948,489.948,0,0,1-72-59.406,489.981,489.981,0,0,1-59.406-72c-8.732-12.926-16.931-26.421-24.369-40.112-7.49-13.787-14.382-28.1-20.486-42.527-6.16-14.563-11.664-29.6-16.359-44.7-4.747-15.261-8.78-30.948-11.988-46.623a487.927,487.927,0,0,1-7.372-48.3A494.424,494.424,0,0,1-4678,3861.5a494.407,494.407,0,0,1,2.512-49.741,487.831,487.831,0,0,1,7.372-48.305c3.208-15.675,7.241-31.362,11.988-46.623,4.695-15.094,10.2-30.133,16.359-44.7,6.1-14.432,13-28.74,20.486-42.527,7.436-13.688,15.635-27.184,24.369-40.112a490.012,490.012,0,0,1,59.406-72,490.033,490.033,0,0,1,72-59.406c12.925-8.732,26.421-16.931,40.112-24.369,13.787-7.49,28.1-14.382,42.527-20.487,14.567-6.161,29.605-11.666,44.7-16.36,15.265-4.748,30.952-8.781,46.624-11.988a487.707,487.707,0,0,1,48.3-7.372A494.323,494.323,0,0,1-4191.5,3375h0a494.319,494.319,0,0,1,49.742,2.512,487.739,487.739,0,0,1,48.305,7.372c15.672,3.207,31.359,7.24,46.624,11.988,15.094,4.695,30.133,10.2,44.7,16.36,14.433,6.1,28.741,13,42.527,20.487,13.692,7.438,27.187,15.636,40.112,24.369a490,490,0,0,1,72,59.406,490.008,490.008,0,0,1,59.406,72c8.735,12.93,16.934,26.425,24.369,40.112,7.49,13.787,14.382,28.095,20.486,42.527,6.161,14.567,11.665,29.605,16.359,44.7,4.748,15.265,8.781,30.952,11.988,46.623a487.716,487.716,0,0,1,7.372,48.305A494.335,494.335,0,0,1-3705,3861.5a494.352,494.352,0,0,1-2.512,49.742,487.75,487.75,0,0,1-7.372,48.3c-3.207,15.672-7.24,31.358-11.988,46.623-4.694,15.093-10.2,30.132-16.359,44.7-6.1,14.432-13,28.74-20.486,42.527-7.436,13.689-15.635,27.185-24.369,40.112a489.92,489.92,0,0,1-59.406,72,489.968,489.968,0,0,1-72,59.406c-12.926,8.732-26.422,16.932-40.112,24.369-13.786,7.489-28.094,14.382-42.527,20.486-14.564,6.16-29.6,11.664-44.7,16.359-15.262,4.747-30.949,8.781-46.624,11.988a487.776,487.776,0,0,1-48.305,7.372A494.4,494.4,0,0,1-4191.5,4348Zm0-744c-141.986,0-257.5,115.514-257.5,257.5s115.514,257.5,257.5,257.5,257.5-115.514,257.5-257.5S-4049.514,3604-4191.5,3604Z" transform="translate(5472 -3355)" fill="#161616" opacity="0.57"></path><path id="Subtraction_2" data-name="Subtraction 2" d="M-3596,5539a1099.371,1099.371,0,0,1-110.627-5.586,1084.778,1084.778,0,0,1-107.433-16.4c-34.861-7.134-69.748-16.1-103.694-26.662-33.567-10.441-67.014-22.683-99.41-36.384-32.1-13.576-63.918-28.905-94.582-45.563-30.446-16.541-60.461-34.774-89.21-54.2a1089.6,1089.6,0,0,1-160.133-132.122,1089.784,1089.784,0,0,1-132.122-160.132c-19.422-28.748-37.656-58.763-54.2-89.211-16.658-30.663-31.987-62.485-45.563-94.583-13.7-32.39-25.941-65.836-36.384-99.409-10.558-33.942-19.527-68.83-26.663-103.692a1085.486,1085.486,0,0,1-16.4-107.433A1099.587,1099.587,0,0,1-4678,4457a1099.527,1099.527,0,0,1,5.586-110.627,1085.3,1085.3,0,0,1,16.4-107.433c7.136-34.862,16.1-69.75,26.663-103.692,10.442-33.571,22.684-67.018,36.384-99.41,13.576-32.1,28.9-63.919,45.563-94.582,16.538-30.443,34.773-60.458,54.2-89.211a1089.794,1089.794,0,0,1,132.122-160.133,1089.837,1089.837,0,0,1,160.133-132.121c28.746-19.421,58.761-37.656,89.21-54.2,30.664-16.657,62.485-31.987,94.582-45.563,32.4-13.7,65.844-25.945,99.41-36.384,33.951-10.56,68.838-19.53,103.694-26.662a1084.605,1084.605,0,0,1,107.433-16.4,1099.4,1099.4,0,0,1,110.62-5.586h.008a1099.431,1099.431,0,0,1,110.628,5.586,1084.637,1084.637,0,0,1,107.433,16.4c34.856,7.132,69.744,16.1,103.693,26.662,33.57,10.441,67.016,22.683,99.409,36.384,32.1,13.577,63.921,28.906,94.583,45.563,30.45,16.542,60.465,34.776,89.211,54.2a1089.75,1089.75,0,0,1,160.132,132.121,1089.79,1089.79,0,0,1,132.122,160.133c19.427,28.756,37.662,58.771,54.2,89.211,16.658,30.663,31.987,62.484,45.563,94.582,13.7,32.4,25.944,65.844,36.384,99.41,10.56,33.95,19.53,68.838,26.662,103.692a1084.779,1084.779,0,0,1,16.4,107.433A1099.527,1099.527,0,0,1-2514,4457a1099.587,1099.587,0,0,1-5.586,110.629,1084.7,1084.7,0,0,1-16.4,107.433c-7.131,34.854-16.1,69.742-26.662,103.692-10.44,33.568-22.682,67.014-36.384,99.409-13.576,32.1-28.905,63.919-45.563,94.583-16.539,30.445-34.773,60.459-54.2,89.211a1089.6,1089.6,0,0,1-132.122,160.132,1089.673,1089.673,0,0,1-160.132,132.122c-28.749,19.422-58.763,37.657-89.211,54.2-30.661,16.657-62.484,31.986-94.583,45.563-32.391,13.7-65.837,25.941-99.409,36.384-33.944,10.557-68.833,19.528-103.693,26.662a1084.875,1084.875,0,0,1-107.433,16.4A1099.4,1099.4,0,0,1-3596,5539Zm0-1654.691c-315.784,0-572.691,256.909-572.691,572.691s256.908,572.695,572.691,572.695,572.692-256.91,572.692-572.695S-3280.218,3884.308-3596,3884.308Z" transform="translate(4876.5 -3950.5)" fill="#161616" opacity="0.57"></path></g></svg> 