<svg xmlns="http://www.w3.org/2000/svg" width="18" height="18" viewBox="0 0 18 18">
  <g id="twitter" transform="translate(767.2 -18.8)">
    <g id="Group_22" data-name="Group 22" transform="translate(-767.2 18.8)">
      <g id="Group_21" data-name="Group 21">
        <path id="Path_11" data-name="Path 11" d="M-767.2,36.8v-18h18v18Z" transform="translate(767.2 -18.8)" fill="none"/>
        <g id="Group_20" data-name="Group 20" transform="translate(1.889 3.222)">
          <path id="Path_12" data-name="Path 12" d="M-744.023,40.041a5.823,5.823,0,0,1-1.676.459,2.923,2.923,0,0,0,1.283-1.614,5.85,5.85,0,0,1-1.853.708,2.913,2.913,0,0,0-2.129-.922,2.918,2.918,0,0,0-2.917,2.918,2.949,2.949,0,0,0,.076.665,8.283,8.283,0,0,1-6.014-3.049,2.911,2.911,0,0,0-.394,1.468,2.915,2.915,0,0,0,1.3,2.428,2.914,2.914,0,0,1-1.322-.365v.037a2.918,2.918,0,0,0,2.341,2.861,2.917,2.917,0,0,1-.769.1,2.962,2.962,0,0,1-.548-.052,2.921,2.921,0,0,0,2.725,2.027,5.851,5.851,0,0,1-3.624,1.249,5.859,5.859,0,0,1-.7-.041,8.26,8.26,0,0,0,4.472,1.311,8.244,8.244,0,0,0,8.3-8.3q0-.19-.008-.377a5.934,5.934,0,0,0,1.456-1.51Z" transform="translate(758.244 -38.673)" fill="#fff"/>
        </g>
      </g>
    </g>
  </g>
</svg>
