<svg xmlns="http://www.w3.org/2000/svg" width="270.345" height="203.531" viewBox="0 0 270.345 203.531"><defs><style>.a{fill:#f95b5b;}</style></defs><g transform="translate(-1326.648 -2906.168)"><g transform="translate(1326.648 2988.791) rotate(-50)"><path class="a" d="M40.534,93.532c3.521-4.2,6.748-8.057,9.98-11.909a32.941,32.941,0,0,1,2.876-3.347c2.442-2.218,2.857-5.276,3.655-8.189a1.79,1.79,0,0,0-.5-2.014c-3.891-3.246-3.7-7.414-2.759-11.813a64.424,64.424,0,0,1,3.806-11.014c.487-1.184.681-2.421,1.073-3.614a.972.972,0,0,1,.928-.719.69.69,0,0,1,.72.824c-1.052,5.607,1.876,10.69,2.1,16.154.165,4.017.12,7.747-3.03,10.773a6.3,6.3,0,0,0-1.4,3.585c1,.181,1.358-.546,1.788-1.039A182.837,182.837,0,0,1,72.819,57.5c3.033-2.824,3.134-6.457,3.622-10.062.1-.707-.345-1.1-.908-1.5a8.2,8.2,0,0,1-2.941-6.309c-.707-5.739,1.593-10.717,3.768-15.72a10.388,10.388,0,0,1,2.592-4.633,69.482,69.482,0,0,0,1.982,9.19,21.187,21.187,0,0,1,.821,9.962,7.008,7.008,0,0,1-1.467,4.111c-2.514,2.642-2.106,6.006-2.9,9.244a4.183,4.183,0,0,0,2.475-2.087c4.163-5.683,8.828-10.992,12.58-16.985a4.932,4.932,0,0,0,.941-4.953,6.565,6.565,0,0,1-.227-3.745A27.341,27.341,0,0,1,98.619,11.1c2.459-3,4.553-6.305,6.819-9.468A10.126,10.126,0,0,1,106.629.189a.941.941,0,0,1,.848-.146.872.872,0,0,1,.379.739,10.988,10.988,0,0,1-.576,2.115,37.725,37.725,0,0,0-2.447,10.409,35.231,35.231,0,0,1-1.552,8.039c-1.209,3.622-2.618,7.154-6.88,8.267-.579.151-.806.639-1.071,1.085A202.483,202.483,0,0,1,79.339,52.59a10.634,10.634,0,0,0-.616,1.064c2.731-.184,4.821-.347,6.187-3.228a10.309,10.309,0,0,1,7.384-5.369c4.358-1.039,8.951-1.433,12.845-4.008a1.131,1.131,0,0,1,1.456-.081c.6.585.109,1.206-.229,1.673A72.335,72.335,0,0,1,94.9,54.321a12.573,12.573,0,0,1-4.11,2.291c-2.491.9-4.931,1.215-6.873-1.165a1.924,1.924,0,0,0-2.015-.575c-2.77.555-5.576.982-7.724,3.173C69.249,63.079,64.307,68.1,59.657,73.4c-.124.141-.132.383-.263.791a6.905,6.905,0,0,0,5.5-2.08,10.39,10.39,0,0,1,8.523-3.326,143.952,143.952,0,0,0,14.789-.1c.515-.005,1.1-.094,1.273.593.124.487-.257.738-.56,1.029A47.189,47.189,0,0,1,73.862,79.3a8.551,8.551,0,0,1-10.135-2.79A2.542,2.542,0,0,0,60.35,75.9a18.42,18.42,0,0,0-6.618,4.17A179,179,0,0,0,41.353,95.2a8.4,8.4,0,0,0-.542,1.205c3.053-1.018,6.1-1.136,8.1-3.9a6.4,6.4,0,0,1,5.858-2.449,20.1,20.1,0,0,1,7.057,1.525,20.548,20.548,0,0,0,6.549,2.1,2.809,2.809,0,0,1,2.7,1.31c-.277.258-.484.625-.722.646-3.912.339-7.085,2.474-10.448,4.178a19.207,19.207,0,0,1-5.667,1.859,6.009,6.009,0,0,1-7.066-3.43c-.793-1.694-1.7-1.69-3.21-1.142a16.492,16.492,0,0,0-8.68,6.39,152.774,152.774,0,0,0-11.674,20.1,42.282,42.282,0,0,1,7.237-2.6c.532-.117.736-.7,1.028-1.138.7-1.05,1.437-2.072,2.171-3.1a10.284,10.284,0,0,1,8-4.413c4.087-.3,8.218.248,12.278-.639.47-.1,1.111-.175,1.289.525.153.6-.277,1-.688,1.3a8.855,8.855,0,0,1-1.635.946,24.419,24.419,0,0,0-6.431,4.5,25.463,25.463,0,0,1-9.234,5.9c-2.26.729-4.564,1.144-5.948-1.615a1.171,1.171,0,0,0-1.358-.56c-3.889.772-7.411,2.468-8.944,6.232a95.468,95.468,0,0,0-5.678,18.687,5.606,5.606,0,0,0,.048,1.1c1.88-.877,3.652-1.711,5.431-2.531a2.216,2.216,0,0,0,1.305-2.289,9.723,9.723,0,0,1,4.142-7.788,39.789,39.789,0,0,1,18.08-7.749c.427-.08.871-.122,1.138.275.363.54.049,1-.328,1.381a4.962,4.962,0,0,1-1.209,1c-3.78,1.867-5.867,5.3-8.107,8.614-2.252,3.328-4.562,6.594-8.741,7.792-1.018.292-2.1.9-3.045.362-2.786-1.58-4.528.759-6.561,1.689a5.734,5.734,0,0,0-3.145,4.774,41.137,41.137,0,0,0-.161,9.127,17.406,17.406,0,0,1,.093,2.2c-.012.226-.335.508-.582.63-.331.163-.561-.136-.741-.382A2.8,2.8,0,0,1,12.94,164c.075-3.363-.069-6.731.331-10.087.513-4.3-1.3-8-3.145-11.682-.472-.943-1.449-1.144-2.34-1.458a8.952,8.952,0,0,1-5.352-5.014,22.568,22.568,0,0,1-2.249-9.742c.027-3.682-.069-7.364-.119-11.046-.01-.707-.345-1.668.571-1.884,1.066-.252,1.022.883,1.169,1.5A43.791,43.791,0,0,0,8.1,127.927c.676,1.056,1.428,2.064,2.12,3.1a10.4,10.4,0,0,1,1.467,7.571,7.052,7.052,0,0,0,.944,5.027c.5.859.552,1.991,1.7,2.742,1.63-6.63,3.907-12.927,6.034-19.275a28.516,28.516,0,0,0,.566-7.826c.046-1.032-.57-1.429-1.457-1.747-3.544-1.273-4.837-3.978-4.939-7.59a31.112,31.112,0,0,1,2.218-12.638c.664-1.655,1.165-3.374,1.735-5.066.18-.534.5-1.022,1.09-.884.575.134.686.73.7,1.278a2.361,2.361,0,0,1-.037.628,16.772,16.772,0,0,0,1.839,11.6,23.928,23.928,0,0,1,1.58,7.35,2.864,2.864,0,0,1-.379,2.134c-1.534,2.094-.644,4.36-.341,6.7,1.533-2.574,3.146-5.105,4.583-7.732a155.078,155.078,0,0,1,8.451-13.317A15.882,15.882,0,0,0,38.54,93.3c.447-2.742.435-2.746-2.231-3.773a6.266,6.266,0,0,1-3.77-5.75A22.539,22.539,0,0,1,32.6,77.8a98.322,98.322,0,0,1,3.61-15.02c.164-.519.357-1.061,1.012-.949s.717.751.643,1.25c-.884,5.967,1.679,11.071,3.913,16.3,1.45,3.4,1.961,6.853-.777,10.054A4.313,4.313,0,0,0,40.534,93.532ZM85.2,70.47c-4.321,0-8.519.018-12.716-.007a9.077,9.077,0,0,0-6.29,2.511c-1.705,1.538-1.5,3.3.526,4.257a7.314,7.314,0,0,0,5.186.888A41.715,41.715,0,0,0,85.19,71.262C85.236,71.228,85.2,71.079,85.2,70.47ZM40.447,131.137a28.084,28.084,0,0,0-13.526,6.731,11.148,11.148,0,0,0-2.353,3.689,3.629,3.629,0,0,0,.464,3.835c.556.779.889.934,1.728.6a12.156,12.156,0,0,0,5.613-3.872C35.063,138.525,37.427,134.677,40.447,131.137ZM65.529,95.144c-2.285-1.068-3.939-1.968-5.684-2.632-5.247-2-8-1.137-11.185,2.993a1.947,1.947,0,0,0,0,2.724c1.527,2.249,4.251,2.885,7.607,1.451C59.213,98.421,62.037,96.87,65.529,95.144Zm38.758-88.1-.609-.325c-2.1,2.972-4.329,5.859-6.249,8.941A16.057,16.057,0,0,0,95,26.48c.255,1.9.841,2.144,2.466,1.077a11.208,11.208,0,0,0,4.192-6.061C103.316,16.806,103.025,11.792,104.287,7.041ZM50.076,113.978a32.74,32.74,0,0,0-9.507.161A11.35,11.35,0,0,0,33.2,121.2c-.339,1.62.192,2.31,1.925,2.44a7.027,7.027,0,0,0,3.924-.874C43.265,120.534,46.368,116.923,50.076,113.978ZM102.8,44.343c-3.551,1.13-7.251,1.254-10.745,2.341a8.633,8.633,0,0,0-6.539,6.529c-.38,1.681.058,2.269,1.813,2.4a7.557,7.557,0,0,0,4.51-1.148C96.192,51.869,99.356,47.986,102.8,44.343Zm-66.547,25.5c-1.325,4.4-2.841,8.669-2.264,13.262a6.563,6.563,0,0,0,1.726,4.246,3.655,3.655,0,0,0,3.786.8c1.448-.4,1.78-1.62,1.82-2.963a9.6,9.6,0,0,0-.369-4.04,94.928,94.928,0,0,1-4.7-11.3Zm41.651-45.31a25.169,25.169,0,0,0-3.7,16.018,5.023,5.023,0,0,0,1.312,3.117c.707.7,1.419.83,2.152.012A10.68,10.68,0,0,0,80,39.292C81.407,34.243,79.971,29.607,77.906,24.534ZM58.581,47.125a35.705,35.705,0,0,0-3.827,12.1,7.973,7.973,0,0,0,1.5,6.257c1.549,1.893,2.594,1.825,3.754-.265a7.387,7.387,0,0,0,.834-2.678C61.526,57.417,60.058,52.635,58.581,47.125ZM1.688,120.848a26.021,26.021,0,0,0,2.23,14.777A7.4,7.4,0,0,0,6.98,138.69c2.133,1.179,3,.661,3.152-1.848a9.639,9.639,0,0,0-2.1-6.111c-1.244-1.813-2.36-3.7-3.506-5.57C3.694,123.8,3.459,122.018,1.688,120.848ZM18.116,99.1c-2.423,4.021-2.082,8.023-2.038,11.966a5.313,5.313,0,0,0,1.264,3.155c.64.832,1.323,1.851,2.484,1.618a3.221,3.221,0,0,0,2.256-2.747,7.8,7.8,0,0,0-.106-1.847c-.057-4.324-2.392-7.913-3.861-12.145Z" transform="translate(0 0)"/></g><g transform="translate(1557.234 2939.762) rotate(70)"><path class="a" d="M37.795,63.526c-3.231,6.441,1.5,9.221,7.541,9.577-.64,4.881,2.52,7.009,8.1,5.547a75.136,75.136,0,0,0,11.483-3.217c.74-.323,1.172-.2,1.513.32,1.637,2.488,4.638,3.587,7.055,5.3,5.99,4.234,12.97,7.326,18.431,12.21a77.9,77.9,0,0,1,18.265,23.084,47.549,47.549,0,0,1,3.976,10.018,5.23,5.23,0,0,0,.333,1c.243.514.271,1.416,1.294.97.758-.331.381-.977.3-1.485a34.125,34.125,0,0,0-3.107-8.389A75.229,75.229,0,0,0,87.254,87.618a25.582,25.582,0,0,0-3.314-1.965c-4.335-2.162-7.792-5.354-12.352-7.25a1.352,1.352,0,0,1-.482-.271c-2.367-2.616-3.937-2.464.221-6.147a15.447,15.447,0,0,0,4.34-8.121A3.722,3.722,0,0,0,73.945,59.4a2.112,2.112,0,0,1-1.05-2.45c.554-4.424-1.363-5.972-6.748-5.473a23.07,23.07,0,0,0,.265-5.927c-.289-4.445-1.767-8.028-7.425-8.41-1.187-.08-.712-.782-.7-1.36a10.115,10.115,0,0,0-3.6-7.954,4.564,4.564,0,0,0-4.611-1.064A2.54,2.54,0,0,1,46.7,25.575a12.329,12.329,0,0,0-6.53-5.078,2.312,2.312,0,0,1-1.743-2.361c-.215-4.7-4.89-8.557-10.334-8.7-.724-.018-1.378.053-1.822-.549C23.31,4.872,18.281,3.645,13.009,2.857A6.774,6.774,0,0,1,9.341,1.569,6.526,6.526,0,0,0,7.677.593a5.236,5.236,0,0,0-5.822.662A5.157,5.157,0,0,0,.324,7.014a9.872,9.872,0,0,0,1.184,1.74c.456.561.976,1.172.778,1.912-.9,3.391,1.166,5.52,2.91,7.666a2.407,2.407,0,0,1-.139,3.827,2.85,2.85,0,0,0-.189,4.063c1.863,2.62,5.035,3.762,7.991,5.154.668.315,1.392.552,2.238.882-.387,1.2-2.174,1.957-1.752,3.322a8.484,8.484,0,0,0,3.234,4.393,20.2,20.2,0,0,0,5.26,2.34c-.52,1.244-1.454,2.346-1.392,3.577a4.827,4.827,0,0,0,4.359,4.8,15.352,15.352,0,0,1,3.7.874c1.073.536,1.671.952.386,2.267a5.3,5.3,0,0,0-1.464,5.813,4.377,4.377,0,0,0,3.323,2.9,47.511,47.511,0,0,0,7.04.99ZM51.219,42.849c.072.159.232.316.2.478-.519,2.976.977,5.373,1.329,8.1a1.759,1.759,0,0,1-1.21,2.08,8.639,8.639,0,0,0-3.457,2.838c-.767,1.176-1.464,1.008-2.244.466a27.1,27.1,0,0,1-6.4-5.289,7.91,7.91,0,0,1-.856-8.446,4.129,4.129,0,0,1,1.757-2.139C44.121,38.819,49.673,39.812,51.219,42.849ZM64.134,41.8a14.947,14.947,0,0,1,.616,8.286A5.188,5.188,0,0,1,62.476,53.6c-1.187.8-2.133,1.6-2.948.1a2.037,2.037,0,0,0-1.577-.989c-3.1.052-3.708-1.789-3.957-3.993a4.157,4.157,0,0,0-.346-.995,5.959,5.959,0,0,1,.363-4.81,7.073,7.073,0,0,1,4.453-4.192c2.376-.718,3.764.634,5.028,1.922a7.039,7.039,0,0,1,.641,1.153ZM36.846,51.237c-1.883-.4-4.09.714-5.57.091-2.282-.96-4.791-1.441-7.112-2.27-2.547-.91-2.711-3.51-.543-5.633.681-.667,1.436-1.3,2.158-1.893a7.405,7.405,0,0,1,6.193-1.984c2.05.464,3.014,2.258,4.781,3.121.406.2.125.676.016,1.011A13.686,13.686,0,0,0,36.846,51.237Zm23.67,16.647a9.618,9.618,0,0,1-7.906-1.613c-1.056-.823-1.765-1.986-2.834-2.794A4.272,4.272,0,0,1,48.534,58.8c.475-2.456,4.4-5.308,6.916-5.288,2.241.017,2.974,1.719,4.342,2.681.886.623.234,1.888-.084,2.89a8.852,8.852,0,0,0,0,5.4C60.035,65.572,60.242,66.709,60.516,67.884ZM32.347,29.622a14.239,14.239,0,0,1-1.9-3.443,2.113,2.113,0,0,1,.962-2.782,11.983,11.983,0,0,1,6.034-1.884,9.135,9.135,0,0,1,7.992,5.471c1.459,2.643-.164,4.456-3.681,4.5a11.809,11.809,0,0,0-4.331.287c-.988.36-1.874,1.468-2.922,1.093-.93-.333-.875-1.465-1.432-2.14a11.2,11.2,0,0,1-.719-1.1ZM29.24,59.712a4.536,4.536,0,0,1,1.724-5.779c2.756-1.058,5.69-1.8,8.011-.416a71.832,71.832,0,0,1,7.3,5.161c1.1.858.411,2.036-1.294,2.621a22.059,22.059,0,0,1-13.536-.078,3.276,3.276,0,0,1-2.2-1.509ZM21.872,14.755c-1.8-.358-3.6-1.217-5.409-.288-2.083,1.069-2.832.461-3.559-.836-.294-.524-.921-.863-1.221-1.386-.823-1.431-2.436-2.316-2.8-4.093-.5-2.469.866-4.086,3.791-3.927A16.714,16.714,0,0,1,23.42,8.319c1.543,1.423,1.463,1.806-.052,4.031C22.857,13.1,22.414,13.879,21.872,14.755Zm26.734,13.8a4.962,4.962,0,0,1,4.647.143,7.46,7.46,0,0,1,3.285,5.8,8.317,8.317,0,0,1-4.337,6.16c-1.427.618-1.826-.938-2.85-1.288-.72-.246-1.494-.4-2.246-.593-.971-.247-2.35.03-2.406-1.359-.04-.988-.834-2.246-.13-2.875,1.5-1.345,1.122-3.1,2.529-4.378a15.113,15.113,0,0,1,1.508-1.606ZM62.88,75.085c-2.922.739-6.54,1.737-10.173,2.545-2.633.586-5.655-.668-5.976-2.236-.324-1.586,1.947-4.217,4.631-5.36a3.856,3.856,0,0,1,.912-.338c4.9-.662,9.277-.347,11.905,3.295C64.705,73.72,64.634,74.276,62.88,75.085ZM25.723,19.332a8.068,8.068,0,0,1-1.465-3.149,3.3,3.3,0,0,1,1.118-3.89,5.222,5.222,0,0,1,4.689-1.315,8.733,8.733,0,0,1,6.7,6.653c.421,1.345-.177,1.972-1.942,2.453a12.98,12.98,0,0,0-4.219,1.529c-2.112,1.448-2.287,1.438-3.495-.167-.473-.628-.865-1.311-1.389-2.115Zm-4.4,13.573a3.822,3.822,0,0,1,1.258-5.453c1.795-1.114,3.423-.308,5.158-.648.946-.186,1.168.957,1.557,1.617A21.919,21.919,0,0,0,32.131,33.1c1.244,1.237.811,2.51.392,3.964-.115.4-.31.886-.712.84-1.244-.143-2.8.878-3.785-.178A7.032,7.032,0,0,0,25.555,36.5a8.915,8.915,0,0,1-4.235-3.593ZM6.11,25.518c-.942-1.873.677-3.172,1.752-4.5A3.736,3.736,0,0,1,11.8,19.587c.7.162,1.213.339,1.4,1.055a11.547,11.547,0,0,0,4.976,6.914,2.309,2.309,0,0,1,.786,2.889c-.38,1.226-1.03,1.4-2.015,1.028-1.849-.7-3.737-1.351-5.489-2.186A14.8,14.8,0,0,1,6.11,25.518Zm46.5,42.643a12.658,12.658,0,0,0-4.66,2.49,4.415,4.415,0,0,1-3.279,1.123A9.818,9.818,0,0,1,39.4,69.763c-2.075-1.749-1.642-5.441,2.444-6.225.833-.16,1.658-.5,2.492-.686a3.376,3.376,0,0,1,3.706.927A55.589,55.589,0,0,0,52.61,68.161ZM27.121,24.2c-1.611.548-2.761.863-3.858,1.325-3.776,1.589-3.75,1.594-6.077-.861a10.409,10.409,0,0,1-2.01-3.069,4.819,4.819,0,0,1,.485-4.319c.9-1.638,1.583-1.915,3.3-1.435a11.6,11.6,0,0,1,1.564.65C24,18.031,24.846,21.438,27.121,24.2ZM67.588,73.035a9.254,9.254,0,0,1-2.953-2.543,2.809,2.809,0,0,1-.354-3.334,19.218,19.218,0,0,1,4.714-6.131,2.81,2.81,0,0,1,4.1-.121,3.224,3.224,0,0,1,.945,3.688C72.764,67.8,71.548,71.062,67.588,73.035Zm-5.1-6.741a4.069,4.069,0,0,1-1.565-3.071,12.2,12.2,0,0,1,.769-5.492,6.492,6.492,0,0,1,6.019-4.923A2.935,2.935,0,0,1,71.2,54.884a3.167,3.167,0,0,1-1.838,4.1,10.232,10.232,0,0,0-3.28,2.986,22.087,22.087,0,0,1-3.594,4.32ZM4.611,14.882C3.035,13.55,3.644,11.33,5.031,9c.636-1.067,1.544-1.259,2.042-.329a56.712,56.712,0,0,0,4.939,6.42c.533.725,1.46,1.583.864,2.581-.667,1.116-1.9.257-2.879.544a4.865,4.865,0,0,0-.621.1,2.157,2.157,0,0,1-3.131-.991C5.822,16.672,5.375,16.027,4.611,14.882Zm29.878,23.81c-1.035-1.76-.2-3.641,2.222-4.983,1.834-1.018,5.451-1.072,6-.09A9.3,9.3,0,0,1,42.034,39C37.574,41.333,36,41.268,34.489,38.692Zm-8.1.584c-1.516.591-2.6,2.046-4.182,1.686-3.138-.713-5.743-2.052-6.869-4.871-.461-1.154-.05-1.917,1.294-2.547a2.584,2.584,0,0,1,3.569.685,8.068,8.068,0,0,0,4.135,3.319,3.033,3.033,0,0,1,2.053,1.728ZM5.016,6.972c-2.239,1.25-3.264.854-3.244-1.291a6.57,6.57,0,0,1,.238-1.663,2.971,2.971,0,0,1,4-2.274c1.1.313,2.723.562,2.639,1.649C8.569,4.42,7.263,5.5,6.159,6.338a8.813,8.813,0,0,1-1.144.634Z" transform="translate(0 0)"/></g><g transform="translate(1453.174 2927.084) rotate(14)"><path class="a" d="M20.586,44.558a7.577,7.577,0,0,0-6.277,5.247,7.046,7.046,0,0,1-9.025,4.271A8.365,8.365,0,0,1,.221,44.4a6.643,6.643,0,0,1,8.24-5.479c2.673.425,5.43.86,6.452,4.037.227.707.892,1.389,1.6,1.044,2.67-1.3,5.827-1.374,8.217-3.372,1.265-1.057,1.538-2.016.03-3.009-1.067-.7-2.2-1.3-3.272-2-1.271-.826-2.178-.556-3.368.43a10.488,10.488,0,0,1-12.589.223,6.574,6.574,0,0,1-2.158-3.12A9.307,9.307,0,0,1,12.144,20.82h1.607c.886-1.181.3-2.3.16-3.385A11.261,11.261,0,0,1,15.9,9.358c2.377-3.464,5.689-5.232,8.549-4.108,4.894,1.923,6.923,4.293,6.826,8.658a11.232,11.232,0,0,1-2.255,7.6,2.883,2.883,0,0,0-.07,4.159c1.085,1.494,2.109,3.038,3.081,4.608.707,1.143,1.389.653,2.026.047a4.128,4.128,0,0,0,1.036-3.943,21.261,21.261,0,0,1,.293-8.056,5.241,5.241,0,0,0-1.46-5.414c-3.5-3.328-1.719-9.055,1.483-11.692,3.524-2.9,10.818-.276,11.707,4.263a11.5,11.5,0,0,1-.524,6.729c-1.055,2.5-2.609,4.242-5.795,4.027-3.052-.206-3.093.012-3.612,3.2a8.222,8.222,0,0,0-.044,4.971,52.148,52.148,0,0,1,7.463-3.685c1.094-.313,1.226-1.476,1.563-2.4a6.415,6.415,0,0,1,6.367-4.784,8.933,8.933,0,0,1,7.559,4.841c1.939,3.475-1.411,9.7-5.438,10.5a13.68,13.68,0,0,1-5.906-.466c-2.158-.521-2.794-2.179-3.315-4.024-.183-.647-.439-1.327-1.328-1.464-2.746-.423-6.77,3.893-5.935,6.557a14.287,14.287,0,0,1,.291,9.205,4.23,4.23,0,0,0,.874,4.358C51.545,58.093,54.818,75.566,53.294,94.335c-.541,6.66-1.419,13.3-1.7,19.97a96.1,96.1,0,0,0,1.289,23.353,47.322,47.322,0,0,0,3.97,12.12c.607,1.194,1.529,2.433.46,4.089a7.155,7.155,0,0,1-2.87-4.116A68.278,68.278,0,0,1,49.88,129.9a178.32,178.32,0,0,1,1.3-32.344c.284-2.684.237-5.4.512-8.088,1.006-9.851-1.149-19.235-4.177-28.476A58.134,58.134,0,0,0,37.57,43.724c-.463-.6-1.069-1.158-1.781-.923-3.446,1.14-7.059.541-10.555,1.114A2.559,2.559,0,0,0,23.2,45.838c-.6,1.545-.679,2.715,1.54,2.913a7.608,7.608,0,0,1,4.346,1.574c3.3,2.745,3.361,8.813.09,12.58-2.563,2.953-7.417,2.729-11.187-.239-2.395-1.885-3.356-8.351.109-11.105A6.233,6.233,0,0,0,20.586,44.558ZM15.949,15.715a6.215,6.215,0,0,0,3.131,5.646c2.029,1.1,4.2,2.057,5.7-.848,4.015.544,4.021-2.732,4.45-5.094a6.419,6.419,0,0,0-2.939-6.586,5.085,5.085,0,0,0-5.6-.567A8.265,8.265,0,0,0,15.949,15.715ZM18.326,30.1a6.914,6.914,0,0,0-6.706-7.274,7.244,7.244,0,0,0-6.514,7.111c-.01,3.477,3.4,6.092,7.843,6.014a5.471,5.471,0,0,0,5.377-5.85Zm5.982,21.125A6.765,6.765,0,0,0,17.9,57.386c-.036,2.472,3.238,5.4,6.121,5.469,3.216.08,5.942-3.262,5.785-7.091C29.686,52.814,27.714,51.186,24.308,51.227ZM45.446,7.9a5.639,5.639,0,0,0-5.933-5.385,5.382,5.382,0,0,0-5.424,5.394c0,2.929,3.822,6.324,7.02,6.244,2.668-.067,4.43-2.607,4.337-6.253ZM52.43,26.963a6.265,6.265,0,0,0,6.264-5.757c.081-2.538-3.113-5.517-6.021-5.615s-5.226,2.821-5.266,6.593C47.369,25.567,48.854,26.979,52.43,26.963ZM7.917,51.994a5.848,5.848,0,0,0,5.374-6.422c-.11-2.725-2.357-4.525-5.618-4.5a5.048,5.048,0,0,0-5.417,5.2,5.813,5.813,0,0,0,5.661,5.722ZM19.839,24.67c-.585,5.57,1.477,9.368,6.279,11.762,1.161.579,1.942,1.01,2.96.033s2.51-1.818,1.836-3.471a23.03,23.03,0,0,0-5.044-7.8c-1.52-1.486-3.97-.665-6.031-.519Zm7.72,15.609c1.562,1.384,3.14,1.595,4.038,1.032a18.425,18.425,0,0,0,4.3-3.34A4.883,4.883,0,0,0,36,31.6a30.657,30.657,0,0,1-8.444,8.681Z" transform="translate(0)"/></g><g transform="matrix(0.978, 0.208, -0.208, 0.978, 1516.646, 2978.354)"><path class="a" d="M46.13,58.066c.812-1.116,1.7-2.186,2.423-3.355a55.936,55.936,0,0,0,6.72-16.549,51.022,51.022,0,0,0,.986-13.932c-.028-.815-.219-1.623-.318-2.437A2.717,2.717,0,0,0,53.4,19.119a11.715,11.715,0,0,1-8.961-7.968,7.222,7.222,0,0,1,1.381-7.386A10.416,10.416,0,0,1,57.593.7a10.3,10.3,0,0,1,6.919,6.432c1.377,3.976-1.12,8.985-4.557,10.7-1.944.967-2.174,1.957-2.13,4,.118,5.439.667,10.951-1.178,16.322a1.974,1.974,0,0,0,1.571-.942c2.953-3.668,6.867-6.32,10.15-9.635.382-.386.828-.642,1.276-.222.488.457.107.881-.226,1.251a20.68,20.68,0,0,0-2.7,4.111A25.463,25.463,0,0,1,60.2,40.325a27.535,27.535,0,0,0-7.775,10.012c-2.211,4.82-5.756,8.748-8.862,12.974-2.3,3.13-5.668,5.164-8.014,8.218-.388.505-1,.843-1.174,1.714A44.8,44.8,0,0,0,41.1,72.128c1.045-.192,2.1-.334,3.157-.44a.858.858,0,0,1,.975.584c.1.34-.156.609-.386.84a21.715,21.715,0,0,1-14.457,7.072c-1.791.1-3.561.559-5.344.833a6.055,6.055,0,0,0-3.275,2.061,113.736,113.736,0,0,0-11.5,13.112,55.259,55.259,0,0,0-4.286,7.165,9.173,9.173,0,0,0-1.139,3.715c3.553-3.467,8.321-4.241,12.563-6.106.435-.191.956-.436,1.319.094.218.318-.048.624-.275.859-2.787,2.893-5.491,5.877-9.191,7.692a28.183,28.183,0,0,1-4.544,1.88,3.673,3.673,0,0,0-2.905,3.217c-.244,1.5-.7,2.973-1.126,4.72a3.3,3.3,0,0,1-.436-3.25A57.254,57.254,0,0,1,7.9,97.343a7.127,7.127,0,0,0,1.216-4.593,89.25,89.25,0,0,1-.027-9.343c.057-3.443,2.119-5.756,3.935-8.264a.693.693,0,0,1,.834-.343c.482.194.466.644.435,1.042-.339,4.32.525,8.688-.512,12.981-.012.051.086.129.265.38a16.853,16.853,0,0,0,3.184-3.208A90.917,90.917,0,0,1,30.5,74.36a37.964,37.964,0,0,0,6.27-5.891,14.26,14.26,0,0,1,1.777-1.69,9.559,9.559,0,0,0,3.644-7.736,33.552,33.552,0,0,0-.17-3.683,24.313,24.313,0,0,1,1.067-8.491c.124-.493.257-1.023.887-.967.447.04.62.486.761.877a21.755,21.755,0,0,1,1.193,8.72c-.046.809-.168,1.614-.255,2.421ZM51.316,16.5a10.487,10.487,0,0,0,11.041-3.166,4.092,4.092,0,0,0,.594-1.063,7.6,7.6,0,0,0-1.116-7.225c-.428-.6-.907-1.2-1.807-.851a1.209,1.209,0,0,1-1.668-.6c-1.085-2.183-3.407-1.648-5.119-2.088-2.149-.553-6.03,2.516-6.969,4.656C44.3,10.667,47.951,15.191,51.316,16.5ZM42.293,73.246c-5.618.833-10.759,1.629-15.112,5.545C32.011,79.333,39.394,77.253,42.293,73.246Zm-29.675,5.36c-2.218,2.356-3.193,9.8-1.816,13.306A17.657,17.657,0,0,0,12.619,78.605Zm1.885,25.25c-4.65.729-8.866,3.5-9.717,6.186a21.507,21.507,0,0,0,9.717-6.186ZM64.3,33.245a13.971,13.971,0,0,0-5.33,5.979A11.487,11.487,0,0,0,64.3,33.245ZM44,57.955a12.484,12.484,0,0,0,.1-7.732,10.391,10.391,0,0,0-.1,7.732Z" transform="translate(0)"/><path class="a" d="M.234,1.463C.56.678.923-.041,1.964,0A3.522,3.522,0,0,1,4.61,1.05a.876.876,0,0,1,.1.689c-.33,1.323-3.032,2.436-4.13,1.69C-.173,2.916-.083,2.193.234,1.463Z" transform="translate(50.753 3.905)"/></g></g></svg>