<svg xmlns="http://www.w3.org/2000/svg" width="238.471" height="173.901" viewBox="0 0 238.471 173.901"><defs><style>.a{fill:#8c9a65;}</style></defs><g transform="translate(0 0)"><g transform="translate(62.921 13.419) rotate(-1)"><path class="a" d="M.419,155.768a5.107,5.107,0,0,1,.192-4.448A70.207,70.207,0,0,1,11.384,132.5c3.715-4.713,9.688-8.077,11.716-9.933a148.778,148.778,0,0,1,17.045-11.329c5.421-3.43,10.762-7.027,16.16-10.514s10.924-6.8,16.63-9.8c6.593-3.466,19.191-8.809,21.193-10.046,5.723-2.947,11.614-5.626,17.32-8.616a107.813,107.813,0,0,0,19.1-12.334,68.5,68.5,0,0,0,12.521-13.71c1.643-2.381,4.079-4.235,4.962-7.544a9.186,9.186,0,0,1-9.247-7.468,10.426,10.426,0,0,1,4.388-11.323c-5.118-7.934-1.408-16.781,7.6-19.214a15.768,15.768,0,0,1,9.633.18,10.044,10.044,0,0,1,6.812,11.784,2.388,2.388,0,0,0,1.426,3.077,8.244,8.244,0,0,1,4.2,7.6c.249,5.674-2.793,12.939-9.349,14.493a10.423,10.423,0,0,1-7.214-.359,5.084,5.084,0,0,0-6.556,2.033,93.658,93.658,0,0,1-12.838,16.133A43.931,43.931,0,0,1,125.7,65.092c-.285.155-.549.434-.323,1.237a47.98,47.98,0,0,1,7.354.427,1.7,1.7,0,0,0,1.82-.763c1.608-2.273,2.947-4.82,5.876-5.767.473-.153.525-.7.688-1.146a15.632,15.632,0,0,1,7.565-7.954c3.384-1.965,10.893-1.046,14.448,2.494a8.068,8.068,0,0,1,1.9,6.877c-.318,4.089-2.951,9.6-8.572,10.788-1.531.325-2.078,1.314-2.708,2.448a11.079,11.079,0,0,1-13.875,5.779,9.949,9.949,0,0,1-7.31-8.939c-.182-2.024-1.1-2.269-2.5-2.549a14.923,14.923,0,0,0-7.269.73,79.472,79.472,0,0,0-12.775,5.768c-7.228,3.612-14.506,7.125-21.752,10.7C77.65,90.46,67.544,96.633,57.162,102.3c-.945.387-8.224,5.064-14.153,8.881-6.9,4.453-13.094,9.856-19.909,14.393a54.215,54.215,0,0,0-12.429,11.23A45.559,45.559,0,0,0,3.1,150.981a8.768,8.768,0,0,1-2.678,4.787ZM150.965,25.677c-.21,6.362,2.981,9.26,7.868,10.68a9.415,9.415,0,0,0,10.577-4.987,17.516,17.516,0,0,0,1.854-8.138,6.714,6.714,0,0,0-5.915-6.769,14.294,14.294,0,0,0-11.085,3.11,10.086,10.086,0,0,0-3.3,6.1Zm4.582-24.11A16.756,16.756,0,0,0,148.1,3.349a11.366,11.366,0,0,0-5.721,11.174c.493,2.92,1.807,3.977,4.761,3.59a9.259,9.259,0,0,1,3.1.338,2.882,2.882,0,0,0,2.676-.275,18.925,18.925,0,0,1,10.364-3.865c1.906-.239,2.279-1.2,2.428-2.728.534-5.493-4.034-10.008-10.166-10.017ZM153.539,66.54a6.178,6.178,0,0,0-2.168-4.749,3.8,3.8,0,0,0-4.855-.457,1.658,1.658,0,0,1-1.025.114c-4.186-.55-6.762,2.174-9.262,4.764a6.837,6.837,0,0,0-.887,7.563,9.1,9.1,0,0,0,9.114,4.786,8.716,8.716,0,0,0,8.1-6.267A47.81,47.81,0,0,0,153.539,66.54Zm1.848,3.009a8.875,8.875,0,0,0,5.592-3.159,8.3,8.3,0,0,0-3.652-14.153,13.024,13.024,0,0,0-4.835-.6,10.2,10.2,0,0,0-8.787,7.536c2.918.437,6.137-.863,8.73,1.479s2.955,5.427,2.952,8.9ZM151.52,34.278a11.986,11.986,0,0,1-1.382-12.234c.664-1.453-.024-1.916-1.268-2.106a4.4,4.4,0,0,0-2.064.279,9.01,9.01,0,0,0-6.37,10.059,6.823,6.823,0,0,0,4.689,6C147.74,37.113,149.971,36.976,151.52,34.278Z"/></g><g transform="translate(20.329 20.695) rotate(-13)"><path class="a" d="M60.734,76.449c1.069-1.469,2.234-2.878,3.189-4.418a73.644,73.644,0,0,0,8.848-21.788A67.175,67.175,0,0,0,74.07,31.9c-.037-1.073-.289-2.137-.418-3.208A3.577,3.577,0,0,0,70.3,25.171,15.424,15.424,0,0,1,58.5,14.68a9.509,9.509,0,0,1,1.818-9.724A13.713,13.713,0,0,1,75.826.926,13.565,13.565,0,0,1,84.935,9.4c1.813,5.234-1.475,11.829-6,14.081-2.559,1.274-2.862,2.576-2.8,5.268.155,7.161.878,14.418-1.551,21.489a2.6,2.6,0,0,0,2.068-1.241c3.888-4.83,9.04-8.32,13.363-12.686.5-.509,1.09-.845,1.68-.292.642.6.142,1.16-.3,1.647a27.226,27.226,0,0,0-3.551,5.412,33.525,33.525,0,0,1-8.579,10.018A36.252,36.252,0,0,0,69.028,66.272c-2.911,6.347-7.578,11.517-11.667,17.082-3.029,4.121-7.462,6.8-10.551,10.819-.511.665-1.317,1.11-1.546,2.256a58.977,58.977,0,0,0,8.842-1.466c1.375-.253,2.766-.44,4.157-.579a1.13,1.13,0,0,1,1.284.769c.127.447-.205.8-.508,1.106A28.59,28.59,0,0,1,40,105.57c-2.358.136-4.689.736-7.036,1.1a7.972,7.972,0,0,0-4.312,2.713,149.743,149.743,0,0,0-15.144,17.263,72.756,72.756,0,0,0-5.643,9.433,12.077,12.077,0,0,0-1.5,4.892c4.678-4.565,10.955-5.584,16.541-8.039.573-.252,1.258-.574,1.737.123.287.419-.064.821-.362,1.131-3.669,3.809-7.229,7.738-12.1,10.127A37.1,37.1,0,0,1,6.2,146.786a4.836,4.836,0,0,0-3.825,4.235c-.322,1.98-.922,3.915-1.483,6.215a4.348,4.348,0,0,1-.574-4.279,75.379,75.379,0,0,1,10.087-24.8,9.384,9.384,0,0,0,1.6-6.047,117.5,117.5,0,0,1-.036-12.3c.075-4.532,2.789-7.579,5.181-10.88a.912.912,0,0,1,1.1-.451c.635.255.613.849.572,1.373-.446,5.688.692,11.439-.674,17.09-.016.067.114.17.35.5a22.189,22.189,0,0,0,4.192-4.224A119.7,119.7,0,0,1,40.151,97.9a49.984,49.984,0,0,0,8.256-7.756,18.775,18.775,0,0,1,2.34-2.225,12.585,12.585,0,0,0,4.8-10.185,44.173,44.173,0,0,0-.224-4.849,32.01,32.01,0,0,1,1.4-11.18c.163-.649.338-1.347,1.167-1.273.589.052.816.64,1,1.154a28.643,28.643,0,0,1,1.571,11.481c-.06,1.065-.221,2.125-.336,3.188Zm6.828-54.72A13.808,13.808,0,0,0,82.1,17.561a5.388,5.388,0,0,0,.782-1.4A10,10,0,0,0,81.411,6.65c-.564-.788-1.194-1.583-2.379-1.121a1.592,1.592,0,0,1-2.2-.789C75.408,1.865,72.351,2.57,70.1,1.99c-2.829-.728-7.939,3.313-9.175,6.13C58.322,14.044,63.132,20,67.562,21.729ZM55.683,96.434c-7.4,1.1-14.165,2.144-19.9,7.3C42.145,104.449,51.866,101.711,55.683,96.434Zm-39.07,7.057c-2.921,3.1-4.2,12.9-2.392,17.519A23.248,23.248,0,0,0,16.613,103.491ZM19.1,136.735c-6.123.96-11.673,4.609-12.793,8.144A28.315,28.315,0,0,0,19.1,136.735ZM84.66,43.77a18.394,18.394,0,0,0-7.018,7.871A15.123,15.123,0,0,0,84.66,43.77ZM57.925,76.3a16.437,16.437,0,0,0,.131-10.18,13.68,13.68,0,0,0-.131,10.18Z"/><path class="a" d="M.307,1.926C.738.892,1.216-.054,2.585,0A4.637,4.637,0,0,1,6.07,1.383a1.153,1.153,0,0,1,.133.908C5.769,4.033,2.21,5.5.766,4.515-.227,3.84-.109,2.888.307,1.926Z" transform="translate(66.821 5.142)"/></g><g transform="matrix(0.978, 0.208, -0.208, 0.978, 30.639, 17.469)"><path class="a" d="M19.716,42.675A7.256,7.256,0,0,0,13.7,47.7a6.748,6.748,0,0,1-8.644,4.091A8.011,8.011,0,0,1,.211,42.52,6.362,6.362,0,0,1,8.1,37.273c2.56.407,5.2.823,6.179,3.867.218.677.854,1.331,1.534,1,2.557-1.244,5.581-1.316,7.87-3.229,1.211-1.012,1.473-1.931.029-2.882-1.022-.673-2.108-1.248-3.134-1.915-1.217-.791-2.086-.533-3.225.412A10.045,10.045,0,0,1,5.3,34.739a6.3,6.3,0,0,1-2.066-2.988,8.914,8.914,0,0,1,8.4-11.812H13.17c.848-1.131.288-2.2.154-3.242A10.785,10.785,0,0,1,15.23,8.963c2.276-3.318,5.448-5.011,8.188-3.934,4.688,1.842,6.63,4.111,6.537,8.292A10.757,10.757,0,0,1,27.8,20.6a2.761,2.761,0,0,0-.067,3.984c1.039,1.431,2.02,2.909,2.951,4.414.677,1.095,1.33.625,1.94.045a3.953,3.953,0,0,0,.992-3.776,20.363,20.363,0,0,1,.281-7.716,5.019,5.019,0,0,0-1.4-5.185c-3.357-3.187-1.647-8.672,1.42-11.2C37.29-1.613,44.275.9,45.126,5.249a11.012,11.012,0,0,1-.5,6.444c-1.01,2.392-2.5,4.063-5.55,3.857-2.923-.2-2.963.012-3.46,3.068a7.875,7.875,0,0,0-.042,4.761A49.945,49.945,0,0,1,42.72,19.85c1.048-.3,1.174-1.414,1.5-2.3a6.144,6.144,0,0,1,6.1-4.582,8.555,8.555,0,0,1,7.239,4.636c1.857,3.328-1.351,9.287-5.208,10.057a13.1,13.1,0,0,1-5.657-.446c-2.067-.5-2.676-2.087-3.175-3.854-.175-.62-.421-1.271-1.272-1.4-2.63-.4-6.484,3.728-5.684,6.28a13.683,13.683,0,0,1,.279,8.816,4.051,4.051,0,0,0,.837,4.174C49.367,55.637,52.5,72.373,51.041,90.348c-.518,6.378-1.359,12.739-1.63,19.126a92.042,92.042,0,0,0,1.235,22.366,45.321,45.321,0,0,0,3.8,11.608c.581,1.144,1.465,2.33.441,3.916a6.852,6.852,0,0,1-2.748-3.942,65.392,65.392,0,0,1-4.368-19.013,170.782,170.782,0,0,1,1.249-30.977c.272-2.57.227-5.174.49-7.746.963-9.435-1.1-18.422-4-27.273a55.677,55.677,0,0,0-9.528-16.538c-.443-.573-1.024-1.109-1.706-.884-3.3,1.092-6.761.518-10.109,1.067A2.451,2.451,0,0,0,22.22,43.9c-.575,1.48-.651,2.6,1.475,2.79A7.286,7.286,0,0,1,27.857,48.2c3.156,2.629,3.219,8.44.087,12.049-2.455,2.828-7.1,2.613-10.715-.229-2.294-1.805-3.214-8,.1-10.636A5.97,5.97,0,0,0,19.716,42.675ZM15.275,15.051a5.952,5.952,0,0,0,3,5.407c1.944,1.055,4.019,1.97,5.46-.812,3.845.521,3.851-2.616,4.262-4.878A6.147,6.147,0,0,0,25.18,8.46a4.871,4.871,0,0,0-5.359-.543A7.916,7.916,0,0,0,15.275,15.051Zm2.276,13.778a6.621,6.621,0,0,0-6.422-6.967,6.938,6.938,0,0,0-6.239,6.81C4.882,32,8.148,34.507,12.4,34.432a5.24,5.24,0,0,0,5.149-5.6Zm5.729,20.233a6.479,6.479,0,0,0-6.137,5.9c-.034,2.368,3.1,5.169,5.862,5.238,3.08.076,5.691-3.124,5.541-6.791C28.432,50.582,26.542,49.023,23.281,49.062Zm20.245-41.5a5.4,5.4,0,0,0-5.682-5.157,5.154,5.154,0,0,0-5.195,5.166c0,2.805,3.66,6.057,6.723,5.98,2.555-.064,4.243-2.5,4.154-5.989Zm6.689,18.26a6,6,0,0,0,6-5.514c.078-2.431-2.982-5.284-5.767-5.378s-5,2.7-5.044,6.314C45.367,24.486,46.789,25.839,50.214,25.823ZM7.582,49.8a5.6,5.6,0,0,0,5.147-6.151c-.105-2.61-2.258-4.334-5.381-4.31a4.835,4.835,0,0,0-5.188,4.98A5.567,5.567,0,0,0,7.582,49.8ZM19,23.628c-.561,5.334,1.414,8.972,6.014,11.265,1.112.554,1.86.967,2.835.032s2.4-1.741,1.759-3.325a22.057,22.057,0,0,0-4.831-7.475c-1.456-1.423-3.8-.637-5.777-.5Zm7.393,14.949c1.5,1.326,3.008,1.527,3.867.988a17.647,17.647,0,0,0,4.116-3.2,4.677,4.677,0,0,0,.1-6.1,29.362,29.362,0,0,1-8.087,8.314Z"/></g><g transform="matrix(-0.996, 0.087, -0.087, -0.996, 198.639, 154.819)"><path class="a" d="M43.528,74.78c-3.721-7.418,1.732-10.619,8.685-11.03-.737-5.621,2.9-8.073,9.324-6.389a86.535,86.535,0,0,1,13.225,3.7c.852.373,1.35.229,1.743-.369,1.885-2.866,5.341-4.131,8.126-6.1,6.9-4.877,14.938-8.438,21.227-14.062a89.717,89.717,0,0,0,21.035-26.586,54.762,54.762,0,0,0,4.579-11.538,6.023,6.023,0,0,1,.384-1.156c.28-.592.312-1.631,1.49-1.117.874.381.439,1.126.341,1.71a39.3,39.3,0,0,1-3.578,9.661,86.641,86.641,0,0,1-29.618,35.524A29.464,29.464,0,0,1,96.674,49.3c-4.993,2.49-8.974,6.166-14.225,8.349a1.557,1.557,0,0,0-.555.312c-2.726,3.013-4.534,2.837.254,7.08a17.791,17.791,0,0,1,5,9.353,4.286,4.286,0,0,1-1.983,5.139,2.432,2.432,0,0,0-1.21,2.822c.638,5.1-1.57,6.878-7.772,6.3a26.57,26.57,0,0,1,.305,6.826c-.333,5.119-2.035,9.246-8.552,9.685-1.367.092-.82.9-.811,1.566a11.65,11.65,0,0,1-4.145,9.161,5.257,5.257,0,0,1-5.31,1.226,2.925,2.925,0,0,0-3.883,1.369,14.2,14.2,0,0,1-7.52,5.849,2.663,2.663,0,0,0-2.007,2.719c-.248,5.411-5.631,9.855-11.9,10.015-.834.021-1.587-.061-2.1.632-3.412,4.629-9.2,6.042-15.276,6.95a7.8,7.8,0,0,0-4.224,1.483,7.515,7.515,0,0,1-1.916,1.124,6.031,6.031,0,0,1-6.705-.763,5.939,5.939,0,0,1-1.763-6.633,11.37,11.37,0,0,1,1.363-2c.525-.646,1.124-1.35.9-2.2-1.042-3.905,1.343-6.357,3.352-8.829a2.773,2.773,0,0,0-.16-4.408,3.282,3.282,0,0,1-.217-4.68c2.145-3.017,5.8-4.332,9.2-5.936.769-.362,1.6-.635,2.577-1.016-.445-1.387-2.5-2.254-2.017-3.826a9.771,9.771,0,0,1,3.725-5.06,23.27,23.27,0,0,1,6.058-2.695c-.6-1.433-1.675-2.7-1.6-4.119a5.559,5.559,0,0,1,5.021-5.523,17.681,17.681,0,0,0,4.265-1.007c1.236-.617,1.924-1.1.444-2.611a6.109,6.109,0,0,1-1.686-6.694A5.041,5.041,0,0,1,35.42,75.92a54.72,54.72,0,0,1,8.108-1.14ZM58.99,98.594c.083-.183.268-.363.235-.55-.6-3.427,1.126-6.188,1.53-9.326a2.026,2.026,0,0,0-1.394-2.4,9.949,9.949,0,0,1-3.981-3.268c-.884-1.354-1.686-1.16-2.584-.537a31.211,31.211,0,0,0-7.366,6.091,9.11,9.11,0,0,0-.986,9.727,4.756,4.756,0,0,0,2.023,2.464C50.814,103.235,57.209,102.092,58.99,98.594Zm14.874,1.214a17.215,17.215,0,0,0,.709-9.543,5.975,5.975,0,0,0-2.619-4.048c-1.367-.923-2.457-1.837-3.395-.118a2.346,2.346,0,0,1-1.816,1.139c-3.57-.06-4.271,2.061-4.557,4.6a4.788,4.788,0,0,1-.4,1.145,6.863,6.863,0,0,0,.418,5.54,8.146,8.146,0,0,0,5.129,4.828c2.737.827,4.335-.731,5.79-2.213a8.107,8.107,0,0,0,.738-1.328ZM42.436,88.934c-2.168.455-4.71-.823-6.416-.1-2.628,1.105-5.518,1.659-8.191,2.615-2.933,1.048-3.123,4.042-.625,6.488.785.768,1.654,1.5,2.485,2.181a8.529,8.529,0,0,0,7.132,2.285c2.361-.534,3.472-2.6,5.506-3.595.468-.229.144-.778.018-1.165A15.762,15.762,0,0,1,42.436,88.934ZM69.7,69.762a11.077,11.077,0,0,0-9.105,1.858c-1.217.948-2.032,2.287-3.264,3.217A4.92,4.92,0,0,0,55.9,80.222c.547,2.828,5.067,6.113,7.966,6.091,2.581-.02,3.425-1.979,5-3.087,1.02-.718.27-2.175-.1-3.328a10.2,10.2,0,0,1,0-6.216C69.143,72.424,69.381,71.115,69.7,69.762ZM37.254,113.828a16.4,16.4,0,0,0-2.192,3.966A2.434,2.434,0,0,0,36.17,121a13.8,13.8,0,0,0,6.95,2.17,10.521,10.521,0,0,0,9.2-6.3c1.681-3.044-.189-5.132-4.24-5.183a13.6,13.6,0,0,1-4.988-.33c-1.138-.415-2.159-1.69-3.365-1.258-1.071.383-1.008,1.687-1.649,2.464a12.9,12.9,0,0,0-.828,1.268ZM33.676,79.173a5.224,5.224,0,0,0,1.985,6.656c3.174,1.219,6.553,2.069,9.226.479a82.73,82.73,0,0,0,8.4-5.944c1.272-.989.474-2.344-1.49-3.019a25.406,25.406,0,0,0-15.589.09,3.773,3.773,0,0,0-2.536,1.738ZM25.19,130.95c-2.069.412-4.145,1.4-6.23.332-2.4-1.231-3.261-.531-4.1.962-.339.6-1.06.994-1.406,1.6-.948,1.648-2.806,2.668-3.221,4.714-.577,2.844,1,4.706,4.367,4.523a19.249,19.249,0,0,0,12.372-4.715c1.777-1.639,1.685-2.08-.06-4.642C26.324,132.856,25.814,131.959,25.19,130.95Zm30.789-15.895a5.715,5.715,0,0,0,5.351-.165,8.592,8.592,0,0,0,3.783-6.675,9.578,9.578,0,0,0-4.995-7.094c-1.643-.712-2.1,1.081-3.282,1.483-.829.283-1.72.463-2.586.683-1.118.284-2.707-.035-2.771,1.565-.046,1.138-.961,2.586-.15,3.312,1.732,1.549,1.293,3.569,2.912,5.042a17.4,17.4,0,0,0,1.737,1.85Zm16.44-53.588c-3.365-.851-7.532-2-11.716-2.931-3.032-.674-6.513.769-6.882,2.575-.373,1.826,2.243,4.857,5.333,6.173a4.441,4.441,0,0,0,1.05.39c5.641.762,10.684.4,13.711-3.795C74.521,63.04,74.439,62.4,72.419,61.467ZM29.626,125.678a9.291,9.291,0,0,0-1.687,3.626,3.8,3.8,0,0,0,1.288,4.481,6.014,6.014,0,0,0,5.4,1.514,10.057,10.057,0,0,0,7.721-7.663c.485-1.55-.2-2.272-2.237-2.825a14.949,14.949,0,0,1-4.86-1.761c-2.432-1.667-2.634-1.656-4.025.192-.545.724-1,1.51-1.6,2.436Zm-5.071-15.632A4.4,4.4,0,0,0,26,116.328c2.067,1.283,3.942.355,5.94.747,1.089.214,1.345-1.1,1.793-1.862a25.244,25.244,0,0,1,3.269-5.391c1.432-1.425.934-2.89.451-4.566-.133-.46-.357-1.021-.82-.968-1.433.164-3.228-1.011-4.359.205a8.1,8.1,0,0,1-2.846,1.416,10.267,10.267,0,0,0-4.877,4.138ZM7.037,118.555c-1.085,2.157.779,3.653,2.018,5.181a4.3,4.3,0,0,0,4.532,1.649c.808-.187,1.4-.39,1.611-1.215a13.3,13.3,0,0,1,5.731-7.963,2.659,2.659,0,0,0,.906-3.327c-.438-1.412-1.186-1.613-2.32-1.184-2.129.806-4.3,1.556-6.322,2.517a17.042,17.042,0,0,0-6.156,4.341ZM60.592,69.443a14.578,14.578,0,0,1-5.367-2.867,5.084,5.084,0,0,0-3.777-1.294A11.307,11.307,0,0,0,45.372,67.6c-2.39,2.014-1.891,6.266,2.815,7.169.959.184,1.91.58,2.87.79a3.888,3.888,0,0,0,4.268-1.067A64.024,64.024,0,0,1,60.592,69.443ZM31.236,120.068c-1.856-.631-3.179-.994-4.443-1.526-4.349-1.83-4.319-1.835-7,.992a11.988,11.988,0,0,0-2.315,3.535,5.55,5.55,0,0,0,.559,4.974c1.034,1.886,1.823,2.205,3.8,1.653a13.353,13.353,0,0,0,1.8-.748C27.645,127.178,28.615,123.254,31.236,120.068Zm46.605-56.24a10.658,10.658,0,0,0-3.4,2.928,3.235,3.235,0,0,0-.408,3.839,22.134,22.134,0,0,0,5.429,7.061,3.237,3.237,0,0,0,4.725.14,3.713,3.713,0,0,0,1.088-4.247C83.8,69.863,82.4,66.1,77.841,63.828Zm-5.87,7.764a4.686,4.686,0,0,0-1.8,3.537,14.046,14.046,0,0,0,.886,6.326,7.477,7.477,0,0,0,6.932,5.67A3.38,3.38,0,0,0,82,84.733a3.648,3.648,0,0,0-2.116-4.727,11.784,11.784,0,0,1-3.777-3.439,25.438,25.438,0,0,0-4.139-4.975ZM5.31,130.8c-1.815,1.534-1.113,4.091.484,6.769.733,1.229,1.778,1.45,2.352.378a65.316,65.316,0,0,1,5.688-7.394c.613-.835,1.681-1.824.995-2.972-.768-1.285-2.185-.3-3.316-.627a5.6,5.6,0,0,1-.716-.118,2.484,2.484,0,0,0-3.606,1.141C6.706,128.742,6.191,129.485,5.31,130.8Zm34.411-27.422c-1.192,2.027-.226,4.193,2.56,5.739,2.112,1.172,6.278,1.235,6.906.1a10.71,10.71,0,0,0-.775-6.2C43.274,100.341,41.464,100.415,39.721,103.382Zm-9.33-.673c-1.746-.68-2.993-2.356-4.816-1.942-3.614.821-6.614,2.364-7.911,5.61-.531,1.329-.058,2.208,1.49,2.934a2.975,2.975,0,0,0,4.11-.788,9.292,9.292,0,0,1,4.762-3.823,3.493,3.493,0,0,0,2.365-1.99ZM5.777,139.915c-2.578-1.44-3.759-.983-3.736,1.486a7.567,7.567,0,0,0,.274,1.915,3.422,3.422,0,0,0,4.606,2.62c1.262-.36,3.136-.647,3.04-1.9-.091-1.182-1.595-2.428-2.866-3.391a10.15,10.15,0,0,0-1.317-.73Z"/></g></g></svg>