<?xml version="1.0" encoding="UTF-8"?> <svg xmlns="http://www.w3.org/2000/svg" width="42.727" height="40" viewBox="0 0 42.727 40"><defs><style>.a{fill:none;stroke:#000;stroke-linecap:round;stroke-width:2.6px;}</style></defs><g transform="translate(-1309.413 -5048.461)"><g transform="translate(1309.413 5048.461)"><g transform="translate(0 0)"><path d="M13.923,958.362a.909.909,0,0,0-.909.909v5.583a3.636,3.636,0,1,0,1.818,0v-5.583A.909.909,0,0,0,13.923,958.362Zm20.909,0a.909.909,0,0,0-.909.909v5.583a3.636,3.636,0,1,0,1.818,0v-5.583A.909.909,0,0,0,34.832,958.362ZM7.56,961.089A4.571,4.571,0,0,0,3,965.649V993.8a4.571,4.571,0,0,0,4.56,4.56H41.168a4.571,4.571,0,0,0,4.56-4.56V965.649a4.571,4.571,0,0,0-4.56-4.56H38.455a.909.909,0,1,0,0,1.818h2.713a2.719,2.719,0,0,1,2.742,2.742v8.168H4.818v-8.168a2.719,2.719,0,0,1,2.741-2.742h2.713a.909.909,0,1,0,0-1.818Zm9.986,0a.909.909,0,1,0,0,1.818H31.182a.909.909,0,1,0,0-1.818Zm-3.622,5.455a1.818,1.818,0,1,1-1.818,1.818A1.8,1.8,0,0,1,13.923,966.544Zm20.909,0a1.818,1.818,0,1,1-1.818,1.818A1.8,1.8,0,0,1,34.833,966.544ZM4.818,975.635H43.909V993.8a2.719,2.719,0,0,1-2.742,2.741H7.56A2.719,2.719,0,0,1,4.818,993.8Z" transform="translate(-3 -958.362)"></path></g></g><path class="a" d="M14.858-7.59H12.234" transform="translate(1308.483 5078.414)"></path><path class="a" d="M14.858-7.59H12.234" transform="translate(1308.483 5083.729)"></path><path class="a" d="M14.858-7.59H12.234" transform="translate(1308.483 5089.044)"></path><path class="a" d="M14.858-7.59H12.234" transform="translate(1317.596 5078.414)"></path><path class="a" d="M14.858-7.59H12.234" transform="translate(1317.596 5083.729)"></path><path class="a" d="M14.858-7.59H12.234" transform="translate(1317.596 5089.044)"></path><path class="a" d="M14.858-7.59H12.234" transform="translate(1325.949 5078.414)"></path><path class="a" d="M14.858-7.59H12.234" transform="translate(1325.949 5083.729)"></path><path class="a" d="M14.858-7.59H12.234" transform="translate(1325.949 5089.044)"></path></g></svg> 