<?xml version="1.0" encoding="UTF-8"?> <svg xmlns="http://www.w3.org/2000/svg" width="34.102" height="45" viewBox="0 0 34.102 45"><path d="M32.607,0H12.393A6.627,6.627,0,0,1,7.471-2.065,6.742,6.742,0,0,1,5.449-6.943v-31.2a6.6,6.6,0,0,1,2.021-4.834A6.7,6.7,0,0,1,12.393-45H32.607a6.7,6.7,0,0,1,4.922,2.021,6.6,6.6,0,0,1,2.021,4.834v31.2a6.742,6.742,0,0,1-2.021,4.878A6.627,6.627,0,0,1,32.607,0Zm5.361-38.145a5.015,5.015,0,0,0-1.582-3.735,5.232,5.232,0,0,0-3.779-1.538H12.393A5.232,5.232,0,0,0,8.613-41.88a5.015,5.015,0,0,0-1.582,3.735v31.2A5.158,5.158,0,0,0,8.613-3.164a5.158,5.158,0,0,0,3.779,1.582H32.607a5.158,5.158,0,0,0,3.779-1.582,5.158,5.158,0,0,0,1.582-3.779Zm-13.887-.791H20.918a.7.7,0,0,1-.791-.791q0-.7.791-.7h3.164q.791,0,.791.7A.7.7,0,0,1,24.082-38.936ZM21.357-6.812A1.472,1.472,0,0,1,22.5-7.295a1.472,1.472,0,0,1,1.143.483,1.589,1.589,0,0,1,.439,1.1,1.589,1.589,0,0,1-.439,1.1,1.472,1.472,0,0,1-1.143.483,1.472,1.472,0,0,1-1.143-.483,1.589,1.589,0,0,1-.439-1.1A1.589,1.589,0,0,1,21.357-6.812Z" transform="translate(-5.449 45)"></path></svg> 