<?xml version="1.0" encoding="UTF-8"?> <svg xmlns="http://www.w3.org/2000/svg" width="32.344" height="41.484" viewBox="0 0 32.344 41.484"><path d="M22.5-1.758q-.615-.352-1.714-1.011A37.9,37.9,0,0,1,16.875-5.8a33.557,33.557,0,0,1-4.922-5.1,29.824,29.824,0,0,1-3.867-7.075,23.833,23.833,0,0,1-1.758-9.009A15.678,15.678,0,0,1,11.074-38.5,15.575,15.575,0,0,1,22.5-43.242,15.575,15.575,0,0,1,33.926-38.5a15.678,15.678,0,0,1,4.746,11.514A24.584,24.584,0,0,1,37-18.018a25.615,25.615,0,0,1-4.043,7.163,49.234,49.234,0,0,1-4.746,5.01,25.245,25.245,0,0,1-4.043,3.12Zm10.2-35.42A13.89,13.89,0,0,0,22.5-41.4a13.89,13.89,0,0,0-10.2,4.219,13.89,13.89,0,0,0-4.219,10.2,22.308,22.308,0,0,0,1.23,7.339,25.823,25.823,0,0,0,2.856,5.977,30,30,0,0,0,3.911,4.658,38.342,38.342,0,0,0,3.647,3.252q1.362,1.011,2.769,1.89a28.955,28.955,0,0,0,3.691-2.681,53.424,53.424,0,0,0,4.614-4.526A23.381,23.381,0,0,0,35.2-18.149a23.031,23.031,0,0,0,1.714-8.833A13.89,13.89,0,0,0,32.7-37.178ZM28.213-21.27A7.788,7.788,0,0,1,22.5-18.9a7.788,7.788,0,0,1-5.713-2.373,7.788,7.788,0,0,1-2.373-5.713A7.788,7.788,0,0,1,16.787-32.7,7.788,7.788,0,0,1,22.5-35.068,7.788,7.788,0,0,1,28.213-32.7a7.788,7.788,0,0,1,2.373,5.713A7.788,7.788,0,0,1,28.213-21.27Zm-1.23-10.2A6.1,6.1,0,0,0,22.5-33.311a6.1,6.1,0,0,0-4.482,1.846,6.1,6.1,0,0,0-1.846,4.482,6,6,0,0,0,1.846,4.395A6.1,6.1,0,0,0,22.5-20.742a6.1,6.1,0,0,0,4.482-1.846,6,6,0,0,0,1.846-4.395A6.1,6.1,0,0,0,26.982-31.465Z" transform="translate(-6.328 43.242)"></path></svg> 