<?xml version="1.0" encoding="UTF-8"?> <svg xmlns="http://www.w3.org/2000/svg" width="45" height="35.684" viewBox="0 0 45 35.684"><path d="M40.518-4.658H4.482A4.315,4.315,0,0,1,1.318-5.977,4.315,4.315,0,0,1,0-9.141V-35.859a4.315,4.315,0,0,1,1.318-3.164,4.315,4.315,0,0,1,3.164-1.318H40.518a4.315,4.315,0,0,1,3.164,1.318A4.315,4.315,0,0,1,45-35.859V-9.141a4.315,4.315,0,0,1-1.318,3.164A4.315,4.315,0,0,1,40.518-4.658Zm2.637-31.2a2.455,2.455,0,0,0-.747-1.8,2.561,2.561,0,0,0-1.89-.747H4.482a2.561,2.561,0,0,0-1.89.747,2.455,2.455,0,0,0-.747,1.8V-9.141a2.455,2.455,0,0,0,.747,1.8,2.561,2.561,0,0,0,1.89.747H40.518a2.561,2.561,0,0,0,1.89-.747,2.455,2.455,0,0,0,.747-1.8ZM38.32-12.217a.95.95,0,0,1-.7.264A.843.843,0,0,1,37-12.217l-9.316-9.316L23.2-16.963a1.169,1.169,0,0,1-.7.264,1.5,1.5,0,0,1-.7-.264L17.578-21.27,8.525-12.217a.95.95,0,0,1-.7.264.843.843,0,0,1-.615-.264.793.793,0,0,1,0-1.318l9.053-9.053L7.031-31.816a.793.793,0,0,1,0-1.318.86.86,0,0,1,1.318,0L22.5-18.984,36.914-33.4a.793.793,0,0,1,1.318,0,.86.86,0,0,1,0,1.318L29-22.852l9.316,9.316A.793.793,0,0,1,38.32-12.217Z" transform="translate(0 40.342)"></path></svg> 