<?xml version="1.0" encoding="UTF-8"?> <svg xmlns="http://www.w3.org/2000/svg" width="41.957" height="41.882" viewBox="0 0 41.957 41.882"><path d="M36.094-6.029A19.054,19.054,0,0,1,22.066-.164,18.92,18.92,0,0,1,8.08-6.029,19.422,19.422,0,0,1,2.3-20.18,19.285,19.285,0,0,1,8.08-34.289a18.986,18.986,0,0,1,13.986-5.824,19.121,19.121,0,0,1,14.027,5.824A19.216,19.216,0,0,1,41.918-20.18,19.352,19.352,0,0,1,36.094-6.029ZM22.066-38.145A17.062,17.062,0,0,0,9.516-32.854,17.358,17.358,0,0,0,4.266-20.18,17.453,17.453,0,0,0,9.516-7.424,17.062,17.062,0,0,0,22.066-2.133,17.022,17.022,0,0,0,34.658-7.424,17.523,17.523,0,0,0,39.867-20.18a17.427,17.427,0,0,0-5.209-12.674A17.022,17.022,0,0,0,22.066-38.145Zm10.91,21H22.148a.87.87,0,0,1-.984-.984V-31.172a.87.87,0,0,1,.984-.984.87.87,0,0,1,.984.984V-19.2h9.844a.943.943,0,0,1,1.066,1.066.893.893,0,0,1-.328.7A1.092,1.092,0,0,1,32.977-17.145ZM12.633-40.113a21.208,21.208,0,0,0-10.746,12.3.825.825,0,0,1-.9.656.475.475,0,0,1-.328-.082.859.859,0,0,1-.574-1.312,23,23,0,0,1,11.73-13.371q.82-.41,1.313.492Q13.535-40.605,12.633-40.113Z" transform="translate(0.039 42.046)"></path></svg> 