<svg xmlns="http://www.w3.org/2000/svg" width="91.883" height="53.025" viewBox="0 0 91.883 53.025">
  <path id="Path_15" data-name="Path 15" d="M122.2,358.4c2.3-.533,4.25.177,6.375-1.063,1.594-.884,3.19-2.479,4.782-3.541,4.25-2.3,6.9-2.124,10.8.885,3.186,2.124,5.311,4.074,9.385,3.9,3.9-.177,5.841-2.834,9.207-4.072,6.02-2.3,10.979,4.956,17,5.134,3.719.176,5.845-2.479,8.853-4.073,3.541-1.77,6.728-.885,10.094,1.062,3.539,1.949,6.729,4.428,10.977,3.719a16.55,16.55,0,0,0,5.138-2.125c1.767-.885,3.717-3.187,5.486-3.01" transform="matrix(0.891, -0.454, 0.454, 0.891, -268.426, -213.355)" fill="none" stroke="#fff" stroke-miterlimit="10" stroke-width="1.417" opacity="0.2"/>
</svg>
