<svg xmlns="http://www.w3.org/2000/svg" width="28.763" height="28.733" viewBox="0 0 28.763 28.733"><g id="Group_35" data-name="Group 35" transform="translate(-163.12 -85.3)"><g id="shopping-basket" transform="translate(148.975 69.163)"><g id="Group_31" data-name="Group 31" transform="translate(11.025 11)"><path id="Path_140" data-name="Path 140" d="M38.375,21.8a3.011,3.011,0,0,0-2.368-1.2h-2.08c-.2-5.335-4.062-9.6-8.787-9.6s-8.591,4.27-8.787,9.6h-2.08a3.011,3.011,0,0,0-2.368,1.2,4.28,4.28,0,0,0-.766,3.613L13.634,36.41a3.38,3.38,0,0,0,3.134,2.823H33.507a3.374,3.374,0,0,0,3.134-2.823l2.5-10.994A4.28,4.28,0,0,0,38.375,21.8ZM25.14,13.351c3.434,0,6.246,3.215,6.43,7.254H18.71c.184-4.033,3-7.254,6.43-7.254ZM36.848,24.892l-2.495,11c-.127.565-.49.991-.841.991H16.768c-.351,0-.714-.426-.841-.991l-2.495-11c-.133-.582-.213-1.936.841-1.936H36.007c1.135,0,.974,1.354.841,1.936Z" transform="translate(-7.639 -5.613)" stroke="#fff" stroke-width="0.5"></path></g></g></g></svg>