<?xml version="1.0" encoding="UTF-8"?> <svg xmlns="http://www.w3.org/2000/svg" width="172.908" height="54" viewBox="0 0 172.908 54"><g id="Group_69" data-name="Group 69" transform="translate(18440 411)"><g id="Group_67" data-name="Group 67" transform="translate(-18760 -434)"><path id="Path_28" data-name="Path 28" d="M15-100.316a2.6,2.6,0,0,1,1.488.909,2.487,2.487,0,0,1,.55,1.6,2.574,2.574,0,0,1-.887,2.081,3.842,3.842,0,0,1-2.543.747H8.791v-10.362h4.7a3.841,3.841,0,0,1,2.447.689,2.365,2.365,0,0,1,.865,1.964,2.419,2.419,0,0,1-.5,1.561A2.3,2.3,0,0,1,15-100.316Zm-3.708-.791h1.641q1.3,0,1.3-1.114t-1.334-1.114H11.3Zm1.788,4.089q1.392,0,1.392-1.143a1.089,1.089,0,0,0-.366-.872,1.549,1.549,0,0,0-1.041-.315H11.3v2.33Zm7.782-6.331v2.169h3.5v1.891h-3.5v2.3H24.81v2.008H18.361v-10.362H24.81v1.993ZM32.65-96.872H28.767l-.645,1.891H25.484l3.8-10.288h2.887l3.8,10.288H33.3Zm-.645-1.905-1.29-3.81-1.3,3.81Zm7.357-6.566v5.979a2.356,2.356,0,0,0,.462,1.568,1.663,1.663,0,0,0,1.341.542,1.663,1.663,0,0,0,1.341-.542,2.356,2.356,0,0,0,.462-1.568v-5.979h2.506v5.979a4.924,4.924,0,0,1-.572,2.469,3.716,3.716,0,0,1-1.561,1.51,4.84,4.84,0,0,1-2.235.506,4.675,4.675,0,0,1-2.2-.5,3.539,3.539,0,0,1-1.495-1.51,5.185,5.185,0,0,1-.542-2.477v-5.979Zm15.227,0v1.993H51.776v8.368H49.255v-8.368H46.471v-1.993Zm10.01,0-3.591,6.917v3.444H58.488v-3.444L54.9-105.343H57.77l1.993,4.221,1.993-4.221Z" transform="translate(385.209 136.907)" fill="#fcfcfc"></path><path id="Path_29" data-name="Path 29" d="M21.766-91.182a5.934,5.934,0,0,1-.868,3.136,6.119,6.119,0,0,1-2.557,2.283,9.01,9.01,0,0,1-4.095.852A9.643,9.643,0,0,1,8.28-86.677a6.4,6.4,0,0,1-2.557-4.932h5.541a2.924,2.924,0,0,0,.868,1.918,2.669,2.669,0,0,0,1.9.7,2.208,2.208,0,0,0,1.583-.548A1.918,1.918,0,0,0,16.2-91a1.887,1.887,0,0,0-.533-1.37,4.177,4.177,0,0,0-1.324-.9q-.792-.35-2.192-.837A26.91,26.91,0,0,1,8.813-95.46,6.139,6.139,0,0,1,6.59-97.408a5.638,5.638,0,0,1-.928-3.364,5.664,5.664,0,0,1,.974-3.318,6.192,6.192,0,0,1,2.694-2.146,9.827,9.827,0,0,1,3.942-.746,8.838,8.838,0,0,1,5.708,1.7,6.5,6.5,0,0,1,2.39,4.688H15.738a2.888,2.888,0,0,0-.776-1.69,2.283,2.283,0,0,0-1.69-.624,2.177,2.177,0,0,0-1.476.487,1.789,1.789,0,0,0-.563,1.431,1.817,1.817,0,0,0,.5,1.294A3.828,3.828,0,0,0,13-98.823q.761.335,2.192.852a24.093,24.093,0,0,1,3.379,1.385,6.465,6.465,0,0,1,2.253,1.994A5.7,5.7,0,0,1,21.766-91.182Zm16.226,2.131H29.925l-1.339,3.927h-5.48l7.885-21.371h6l7.885,21.371H39.331Zm-1.339-3.958-2.679-7.915-2.709,7.915Zm15.434,3.9h6.941v3.988H46.881v-21.523h5.206Zm19.575-17.87a10.951,10.951,0,0,1,5.525,1.416,10.313,10.313,0,0,1,3.912,3.927,11.264,11.264,0,0,1,1.431,5.678,11.254,11.254,0,0,1-1.446,5.693,10.392,10.392,0,0,1-3.927,3.942,10.892,10.892,0,0,1-5.495,1.416,10.892,10.892,0,0,1-5.495-1.416,10.392,10.392,0,0,1-3.927-3.942,11.254,11.254,0,0,1-1.446-5.693,11.171,11.171,0,0,1,1.446-5.678,10.423,10.423,0,0,1,3.927-3.927A10.892,10.892,0,0,1,71.661-106.982Zm0,4.84a5.219,5.219,0,0,0-4.064,1.659,6.471,6.471,0,0,0-1.507,4.521A6.483,6.483,0,0,0,67.6-91.456a5.2,5.2,0,0,0,4.064,1.674,5.207,5.207,0,0,0,4.049-1.674,6.442,6.442,0,0,0,1.522-4.505,6.483,6.483,0,0,0-1.507-4.506A5.2,5.2,0,0,0,71.661-102.142ZM104.57-85.124H99.364L90.658-98.336v13.212H85.452v-21.523h5.206l8.707,13.334v-13.334h5.206Z" transform="translate(388.338 156.45)" fill="#fcfcfc"></path></g><g id="Group_68" data-name="Group 68" transform="translate(-8)"><rect id="Rectangle_195" data-name="Rectangle 195" width="54" height="54" rx="5" transform="translate(-18432 -411)" fill="#ff4f9a"></rect><g id="Group_70" data-name="Group 70" transform="translate(-5125.481 -13121.726) rotate(-45)"><path id="Path_32" data-name="Path 32" d="M-18411.686-426.369s7.875,12.693,0,19.516,0,19.564,0,19.564" transform="translate(-5090.244 -13114.431) rotate(-45)" fill="none" stroke="#fcfcfc" stroke-linecap="round" stroke-linejoin="round" stroke-width="3"></path></g></g></g></svg> 