<svg xmlns="http://www.w3.org/2000/svg" xmlns:xlink="http://www.w3.org/1999/xlink" width="1330" height="351" viewBox="0 0 1330 351"><defs><clipPath id="clip-path"><path id="Path_15" data-name="Path 15" d="M7.225,0h946.5a7.225,7.225,0,0,1,7.225,7.225V246.378a7.225,7.225,0,0,1-7.225,7.225H7.225A7.225,7.225,0,0,1,0,246.378V7.225A7.225,7.225,0,0,1,7.225,0Z" transform="translate(295 4439)" fill="#e4f5f2"></path></clipPath><clipPath id="clip-path-2"><path id="Path_22" data-name="Path 22" d="M7.493,0H989.059a7.493,7.493,0,0,1,7.493,7.493V255.507A7.493,7.493,0,0,1,989.059,263H7.493A7.493,7.493,0,0,1,0,255.507V7.493A7.493,7.493,0,0,1,7.493,0Z" transform="translate(295 4439)" fill="none"></path></clipPath></defs><g id="pattern_-_on_chane_your_life_section" data-name="pattern - on chane your life section" transform="translate(-295 -4543)"><g id="Mask_Group_3" data-name="Mask Group 3" transform="translate(0 104)" clip-path="url(#clip-path)"><g id="Group_53" data-name="Group 53" transform="translate(186.734 4238.51)"><path id="Path_8" data-name="Path 8" d="M0,36.551s44.588-28.8,94.306,1.973,97.463,54.453,145.6,17.756,71.815-76.945,144.814-44.194,142.052,8.681,142.052,8.681,35.908-13.416,77.734,29.2,63.923,36.3,96.28,19.335,34.953-17.847,34.953-17.847" transform="matrix(0.966, -0.259, 0.259, 0.966, 86.702, 340.707)" fill="none" stroke="#e7f0f5" stroke-width="3"></path><path id="Path_10" data-name="Path 10" d="M0,36.551s44.588-28.8,94.306,1.973,97.463,54.453,145.6,17.756,71.815-76.945,144.814-44.194,142.052,8.681,142.052,8.681,35.908-13.416,77.734,29.2,63.923,36.3,96.28,19.335,34.953-17.847,34.953-17.847" transform="matrix(0.966, -0.259, 0.259, 0.966, 75.142, 315.419)" fill="none" stroke="#dfecf3" stroke-width="3"></path><path id="Path_11" data-name="Path 11" d="M0,36.551s44.588-28.8,94.306,1.973,97.463,54.453,145.6,17.756,71.815-76.945,144.814-44.194,142.052,8.681,142.052,8.681,35.908-13.416,77.734,29.2,63.923,36.3,96.28,19.335,34.953-17.847,34.953-17.847" transform="matrix(0.966, -0.259, 0.259, 0.966, 55.634, 285.073)" fill="none" stroke="#d7ecf8" stroke-width="3"></path><path id="Path_12" data-name="Path 12" d="M0,36.551s44.588-28.8,94.306,1.973,97.463,54.453,145.6,17.756,71.815-76.945,144.814-44.194,142.052,8.681,142.052,8.681,35.908-13.416,77.734,29.2,63.923,36.3,96.28,19.335,34.953-17.847,34.953-17.847" transform="matrix(0.966, -0.259, 0.259, 0.966, 33.958, 254.005)" fill="none" stroke="#c3e3f5" stroke-width="3"></path><path id="Path_13" data-name="Path 13" d="M0,36.551s44.588-28.8,94.306,1.973,97.463,54.453,145.6,17.756,71.815-76.945,144.814-44.194,142.052,8.681,142.052,8.681,35.908-13.416,77.734,29.2,63.923,36.3,96.28,19.335,34.953-17.847,34.953-17.847" transform="matrix(0.966, -0.259, 0.259, 0.966, 19.508, 220.769)" fill="none" stroke="#b8e5ff" stroke-width="3"></path><path id="Path_14" data-name="Path 14" d="M0,36.551s44.588-28.8,94.306,1.973,97.463,54.453,145.6,17.756,71.815-76.945,144.814-44.194,142.052,8.681,142.052,8.681,35.908-13.416,77.734,29.2,63.923,36.3,96.28,19.335,34.953-17.847,34.953-17.847" transform="matrix(0.966, -0.259, 0.259, 0.966, 0, 190.424)" fill="none" stroke="#9fd6f5" stroke-width="3"></path></g></g><g id="Mask_Group_4" data-name="Mask Group 4" transform="translate(1920 9333) rotate(180)" clip-path="url(#clip-path-2)"><g id="Group_54" data-name="Group 54" transform="translate(182.723 4231.082)"><path id="Path_18" data-name="Path 18" d="M0,37.906S46.24,8.034,97.8,39.952s101.074,56.471,151,18.414,74.476-79.8,150.179-45.831,147.315,9,147.315,9S583.53,7.624,626.906,51.819,693.2,89.466,726.753,71.87,763,53.361,763,53.361" transform="matrix(0.966, -0.259, 0.259, 0.966, 57.695, 295.636)" fill="none" stroke="#e7f0f5" stroke-width="3"></path><path id="Path_19" data-name="Path 19" d="M0,37.906S46.24,8.034,97.8,39.952s101.074,56.471,151,18.414,74.476-79.8,150.179-45.831,147.315,9,147.315,9S583.53,7.624,626.906,51.819,693.2,89.466,726.753,71.87,763,53.361,763,53.361" transform="matrix(0.966, -0.259, 0.259, 0.966, 35.216, 263.417)" fill="none" stroke="#d7ecf8" stroke-width="3"></path><path id="Path_20" data-name="Path 20" d="M0,37.906S46.24,8.034,97.8,39.952s101.074,56.471,151,18.414,74.476-79.8,150.179-45.831,147.315,9,147.315,9S583.53,7.624,626.906,51.819,693.2,89.466,726.753,71.87,763,53.361,763,53.361" transform="matrix(0.966, -0.259, 0.259, 0.966, 20.231, 228.949)" fill="none" stroke="#c3e3f5" stroke-width="3"></path><path id="Path_21" data-name="Path 21" d="M0,37.906S46.24,8.034,97.8,39.952s101.074,56.471,151,18.414,74.476-79.8,150.179-45.831,147.315,9,147.315,9S583.53,7.624,626.906,51.819,693.2,89.466,726.753,71.87,763,53.361,763,53.361" transform="matrix(0.966, -0.259, 0.259, 0.966, 0, 197.479)" fill="none" stroke="#c0e5f4" stroke-width="3"></path></g></g></g></svg>