<svg xmlns="http://www.w3.org/2000/svg" width="433" height="78" viewBox="0 0 433 78"><g id="Group_80" data-name="Group 80" transform="translate(-923 -1094)"><g id="Group_78" data-name="Group 78"><rect id="Rectangle_128" data-name="Rectangle 128" width="6" height="42" rx="3" transform="translate(1019 1112)" fill="#020303"></rect><rect id="Rectangle_129" data-name="Rectangle 129" width="6" height="66" rx="3" transform="translate(1035 1100)" fill="#020303"></rect><rect id="Rectangle_130" data-name="Rectangle 130" width="6" height="32" rx="3" transform="translate(1051 1117)" fill="#020303"></rect><rect id="Rectangle_131" data-name="Rectangle 131" width="6" height="48" rx="3" transform="translate(1067 1109)" fill="#020303"></rect><rect id="Rectangle_132" data-name="Rectangle 132" width="6" height="78" rx="3" transform="translate(1003 1094)" fill="#020303"></rect><rect id="Rectangle_133" data-name="Rectangle 133" width="6" height="32" rx="3" transform="translate(987 1117)" fill="#020303"></rect><rect id="Rectangle_134" data-name="Rectangle 134" width="6" height="52" rx="3" transform="translate(1083 1107)" fill="#020303"></rect><rect id="Rectangle_135" data-name="Rectangle 135" width="6" height="10" rx="3" transform="translate(971 1128)" fill="#020303"></rect><rect id="Rectangle_136" data-name="Rectangle 136" width="6" height="28" rx="3" transform="translate(955 1119)" fill="#020303"></rect><rect id="Rectangle_137" data-name="Rectangle 137" width="6" height="16" rx="3" transform="translate(939 1125)" fill="#020303"></rect><rect id="Rectangle_138" data-name="Rectangle 138" width="6" height="66" rx="3" transform="translate(923 1100)" fill="#020303"></rect></g><g id="Group_79" data-name="Group 79"><rect id="Rectangle_128-2" data-name="Rectangle 128" width="6" height="42" rx="3" transform="translate(1260 1154) rotate(180)" fill="#afb2b6"></rect><rect id="Rectangle_129-2" data-name="Rectangle 129" width="6" height="66" rx="3" transform="translate(1244 1166) rotate(180)" fill="#afb2b6"></rect><rect id="Rectangle_130-2" data-name="Rectangle 130" width="6" height="32" rx="3" transform="translate(1228 1149) rotate(180)" fill="#afb2b6"></rect><rect id="Rectangle_131-2" data-name="Rectangle 131" width="6" height="48" rx="3" transform="translate(1212 1157) rotate(180)" fill="#afb2b6"></rect><rect id="Rectangle_132-2" data-name="Rectangle 132" width="6" height="78" rx="3" transform="translate(1276 1172) rotate(180)" fill="#afb2b6"></rect><rect id="Rectangle_133-2" data-name="Rectangle 133" width="6" height="32" rx="3" transform="translate(1292 1149) rotate(180)" fill="#afb2b6"></rect><rect id="Rectangle_134-2" data-name="Rectangle 134" width="6" height="52" rx="3" transform="translate(1196 1159) rotate(180)" fill="#afb2b6"></rect><rect id="Rectangle_135-2" data-name="Rectangle 135" width="6" height="10" rx="3" transform="translate(1308 1138) rotate(180)" fill="#afb2b6"></rect><rect id="Rectangle_136-2" data-name="Rectangle 136" width="6" height="28" rx="3" transform="translate(1324 1147) rotate(180)" fill="#afb2b6"></rect><rect id="Rectangle_137-2" data-name="Rectangle 137" width="6" height="16" rx="3" transform="translate(1340 1141) rotate(180)" fill="#afb2b6"></rect><rect id="Rectangle_138-2" data-name="Rectangle 138" width="6" height="66" rx="3" transform="translate(1356 1166) rotate(180)" fill="#afb2b6"></rect></g></g></svg>