<svg xmlns="http://www.w3.org/2000/svg" width="100" height="14" viewBox="0 0 100 14">
  <g id="Group_6" data-name="Group 6" transform="translate(-127 -1332)">
    <path id="Path" d="M14.677,1.3a4.587,4.587,0,0,0-6.4,0q-.147.144-.281.3c-.089-.106-.183-.207-.281-.3a4.587,4.587,0,0,0-6.4,0,4.393,4.393,0,0,0,0,6.283L7.754,13.9a.352.352,0,0,0,.492,0l6.431-6.317A4.392,4.392,0,0,0,14.677,1.3Z" transform="translate(127 1332)" fill="#ff523d"/>
    <path id="Path-2" data-name="Path" d="M14.677,1.3a4.587,4.587,0,0,0-6.4,0q-.147.144-.281.3c-.089-.106-.183-.207-.281-.3a4.587,4.587,0,0,0-6.4,0,4.393,4.393,0,0,0,0,6.283L7.754,13.9a.352.352,0,0,0,.492,0l6.431-6.317A4.392,4.392,0,0,0,14.677,1.3Z" transform="translate(148 1332)" fill="#ff523d"/>
    <path id="Path-3" data-name="Path" d="M14.677,1.3a4.587,4.587,0,0,0-6.4,0q-.147.144-.281.3c-.089-.106-.183-.207-.281-.3a4.587,4.587,0,0,0-6.4,0,4.393,4.393,0,0,0,0,6.283L7.754,13.9a.352.352,0,0,0,.492,0l6.431-6.317A4.392,4.392,0,0,0,14.677,1.3Z" transform="translate(169 1332)" fill="#ff523d"/>
    <path id="Path-4" data-name="Path" d="M14.677,1.3a4.587,4.587,0,0,0-6.4,0q-.147.144-.281.3c-.089-.106-.183-.207-.281-.3a4.587,4.587,0,0,0-6.4,0,4.393,4.393,0,0,0,0,6.283L7.754,13.9a.352.352,0,0,0,.492,0l6.431-6.317A4.392,4.392,0,0,0,14.677,1.3Z" transform="translate(190 1332)" fill="#ff523d"/>
    <path id="Path-5" data-name="Path" d="M14.677,1.3a4.587,4.587,0,0,0-6.4,0q-.147.144-.281.3c-.089-.106-.183-.207-.281-.3a4.587,4.587,0,0,0-6.4,0,4.393,4.393,0,0,0,0,6.283L7.754,13.9a.352.352,0,0,0,.492,0l6.431-6.317A4.392,4.392,0,0,0,14.677,1.3Z" transform="translate(211 1332)" fill="#ff523d"/>
  </g>
</svg>
