<svg xmlns="http://www.w3.org/2000/svg" width="107.275" height="15.895" viewBox="0 0 107.275 15.895">
  <g id="Group" transform="translate(-1.362 -88.044)">
    <g id="shape-star">
      <path id="Path" d="M16.383,5.788l-5.328-.774L8.674.186a.377.377,0,0,0-.651,0L5.64,5.013.311,5.788a.363.363,0,0,0-.2.619l3.856,3.758-.91,5.306a.363.363,0,0,0,.526.383l4.766-2.505,4.766,2.5a.363.363,0,0,0,.526-.382l-.91-5.305,3.856-3.758a.363.363,0,0,0-.2-.619Z" transform="translate(1.362 88.044)" fill="#f5a623"/>
    </g>
    <g id="shape-star_copy" data-name="shape-star copy">
      <path id="Path-2" data-name="Path" d="M16.383,5.788l-5.328-.774L8.674.186a.377.377,0,0,0-.651,0L5.64,5.013.311,5.788a.363.363,0,0,0-.2.619l3.856,3.758-.91,5.306a.363.363,0,0,0,.526.383l4.766-2.505,4.766,2.5a.363.363,0,0,0,.526-.382l-.91-5.305,3.856-3.758a.363.363,0,0,0-.2-.619Z" transform="translate(24.008 88.044)" fill="#f5a623"/>
    </g>
    <g id="shape-star_copy_2" data-name="shape-star copy 2">
      <path id="Path-3" data-name="Path" d="M16.383,5.788l-5.328-.774L8.674.186a.377.377,0,0,0-.651,0L5.64,5.013.311,5.788a.363.363,0,0,0-.2.619l3.856,3.758-.91,5.306a.363.363,0,0,0,.526.383l4.766-2.505,4.766,2.5a.363.363,0,0,0,.526-.382l-.91-5.305,3.856-3.758a.363.363,0,0,0-.2-.619Z" transform="translate(46.653 88.044)" fill="#f5a623"/>
    </g>
    <g id="shape-star_copy_3" data-name="shape-star copy 3">
      <path id="Path-4" data-name="Path" d="M16.383,5.788l-5.328-.774L8.674.186a.377.377,0,0,0-.651,0L5.64,5.013.311,5.788a.363.363,0,0,0-.2.619l3.856,3.758-.91,5.306a.363.363,0,0,0,.526.383l4.766-2.505,4.766,2.5a.363.363,0,0,0,.526-.382l-.91-5.305,3.856-3.758a.363.363,0,0,0-.2-.619Z" transform="translate(69.298 88.044)" fill="#f5a623"/>
    </g>
    <g id="shape-star_copy_4" data-name="shape-star copy 4">
      <path id="Path-5" data-name="Path" d="M16.383,5.788l-5.328-.774L8.674.186a.377.377,0,0,0-.651,0L5.64,5.013.311,5.788a.363.363,0,0,0-.2.619l3.856,3.758-.91,5.306a.363.363,0,0,0,.526.383l4.766-2.505,4.766,2.5a.363.363,0,0,0,.526-.382l-.91-5.305,3.856-3.758a.363.363,0,0,0-.2-.619Z" transform="translate(91.943 88.044)" fill="#f5a623"/>
    </g>
  </g>
</svg>
