<svg xmlns="http://www.w3.org/2000/svg" width="64" height="64" viewBox="0 0 64 64"><defs><style>.a{fill:#fff;}.b{fill:none;}</style></defs><g transform="translate(-1337 -2758)"><g transform="translate(-923.75 2140)"><g transform="translate(2274.505 622.953)"><path class="a" d="M2278.108,626.758v-6.8a.963.963,0,0,0-.962-.962h-.641a.963.963,0,0,0-.962.962v6.8Z" transform="translate(-2275.542 -619)"></path><path class="a" d="M2320.123,669.657H2279.07a.963.963,0,0,1-.962-.962V641.313h-2.566V671.26a.963.963,0,0,0,.962.962h43.619a.962.962,0,0,0,.962-.962v-.641A.962.962,0,0,0,2320.123,669.657Z" transform="translate(-2275.542 -627)"></path></g><g transform="translate(2265.658 632.735)"><path class="a" d="M2304.728,637.778v27.055h2.566v-29.62a.963.963,0,0,0-.962-.962h-43.3a1.283,1.283,0,1,0,0,2.566h40.732A.963.963,0,0,1,2304.728,637.778Z" transform="translate(-2261.75 -634.25)"></path><path class="a" d="M2328.75,692.146v6.8a1.283,1.283,0,0,0,2.566,0v-6.8Z" transform="translate(-2285.772 -655.008)"></path></g></g><rect class="b" width="64" height="64" transform="translate(1337 2758)"></rect></g></svg>