<svg xmlns="http://www.w3.org/2000/svg" width="64" height="64" viewBox="0 0 64 64"><defs><style>.a{fill:#fff;}.b{fill:none;}</style></defs><g transform="translate(-245 -2759)"><g transform="translate(-2003.181 2319.125)"><g transform="translate(2251.18 449.875)"><path class="a" d="M2302.749,494.37h-45.938a5.555,5.555,0,0,1-5.543-5.516c-.028-5.6-.092-19.367-.087-26.373a5.55,5.55,0,0,1,5.543-5.538h17.3a3.172,3.172,0,0,0,2.869-1.833l.936-2.022a5.562,5.562,0,0,1,5.031-3.214h5.6a5.54,5.54,0,0,1,5.086,3.339l.791,1.825a3.159,3.159,0,0,0,2.9,1.9h5.516a5.55,5.55,0,0,1,5.543,5.544v26.34A5.55,5.55,0,0,1,2302.749,494.37Zm-46.025-35.046a3.165,3.165,0,0,0-3.162,3.158c-.005,7,.059,20.766.087,26.36a3.169,3.169,0,0,0,3.162,3.146h45.938a3.166,3.166,0,0,0,3.162-3.162v-26.34a3.166,3.166,0,0,0-3.162-3.163h-5.516a5.539,5.539,0,0,1-5.086-3.339l-.791-1.824a3.161,3.161,0,0,0-2.9-1.9h-5.6a3.171,3.171,0,0,0-2.869,1.833l-.936,2.022a5.561,5.561,0,0,1-5.031,3.214Z" transform="translate(-2251.18 -449.875)"></path></g><g transform="translate(2259.779 453.447)"><rect class="a" width="9.115" height="1.897" rx="0.949" transform="translate(0)"></rect></g><g transform="translate(2269.426 465.079)"><path class="a" d="M2292.349,496.449a10.516,10.516,0,1,1,10.516-10.516A10.528,10.528,0,0,1,2292.349,496.449Zm0-18.651a8.135,8.135,0,1,0,8.135,8.135A8.144,8.144,0,0,0,2292.349,477.8Z" transform="translate(-2281.833 -475.417)"></path></g></g><rect class="b" width="64" height="64" transform="translate(245 2759)"></rect></g></svg>