<svg xmlns="http://www.w3.org/2000/svg" width="64" height="64" viewBox="0 0 64 64"><defs><style>.a{fill:none;}.b{fill:#fff;}</style></defs><g transform="translate(-788 -2765)"><rect class="a" width="64" height="64" transform="translate(788 2765)"></rect><g transform="translate(-1461.047 2231.163)"><g transform="translate(2251.047 549.837)"><path class="b" d="M2280.9,582.034a136.471,136.471,0,0,1-20.382-1.349c-8.316-1.324-9.427-3.052-9.464-4.409l0-20.6c0-1.394,1.072-3.143,9.423-4.479a154.6,154.6,0,0,1,40.854,0c8.351,1.336,9.423,3.085,9.423,4.458l-.013,20.773c-.119,1.333-1.439,2.984-9.456,4.261A136.459,136.459,0,0,1,2280.9,582.034Zm-27.372-5.948c1.193,1.441,11.439,3.473,27.372,3.473s26.195-2.035,27.374-3.477l0-20.3c-1.209-1.441-11.453-3.469-27.371-3.469-15.943,0-26.192,2.034-27.377,3.476Z" transform="translate(-2251.047 -549.837)"></path></g><g transform="translate(2275.001 559.49)"><path class="b" d="M2292.135,578.331a2.368,2.368,0,0,1-1.184-.32,2.343,2.343,0,0,1-1.183-2.051v-8.148a2.367,2.367,0,0,1,3.551-2.05l7.056,4.074a2.369,2.369,0,0,1,0,4.1l-7.056,4.074A2.366,2.366,0,0,1,2292.135,578.331Zm.107-10.334v7.778l6.735-3.889Zm6.895,3.981h0Z" transform="translate(-2289.768 -565.441)"></path></g></g></g></svg>