<svg xmlns="http://www.w3.org/2000/svg" xmlns:xlink="http://www.w3.org/1999/xlink" width="80" height="67" viewBox="0 0 80 67"><defs><clipPath id="clip-path"><rect width="80" height="67" fill="none"></rect></clipPath></defs><g id="pattern_left" data-name="pattern left" clip-path="url(#clip-path)"><g transform="translate(-1144 -1225)"><circle id="Ellipse_21" data-name="Ellipse 21" cx="4" cy="4" r="4" transform="translate(1146 1227)" fill="#ee4158"></circle></g><g transform="translate(-1122 -1225)"><circle id="Ellipse_21-2" data-name="Ellipse 21" cx="4" cy="4" r="4" transform="translate(1146 1227)" fill="#ee4158"></circle></g><g transform="translate(-1100 -1225)"><circle id="Ellipse_21-3" data-name="Ellipse 21" cx="4" cy="4" r="4" transform="translate(1146 1227)" fill="#ee4158"></circle></g><g transform="translate(-1078 -1225)"><circle id="Ellipse_21-4" data-name="Ellipse 21" cx="4" cy="4" r="4" transform="translate(1146 1227)" fill="#ee4158"></circle></g><g transform="translate(-1144 -1207)"><circle id="Ellipse_21-5" data-name="Ellipse 21" cx="4" cy="4" r="4" transform="translate(1146 1227)" fill="#ee4158"></circle></g><g transform="translate(-1122 -1207)"><circle id="Ellipse_21-6" data-name="Ellipse 21" cx="4" cy="4" r="4" transform="translate(1146 1227)" fill="#ee4158"></circle></g><g transform="translate(-1100 -1207)"><circle id="Ellipse_21-7" data-name="Ellipse 21" cx="4" cy="4" r="4" transform="translate(1146 1227)" fill="#ee4158"></circle></g><g transform="translate(-1078 -1207)"><circle id="Ellipse_21-8" data-name="Ellipse 21" cx="4" cy="4" r="4" transform="translate(1146 1227)" fill="#ee4158"></circle></g><g transform="translate(-1144 -1189)"><circle id="Ellipse_21-9" data-name="Ellipse 21" cx="4" cy="4" r="4" transform="translate(1146 1227)" fill="#ee4158"></circle></g><g transform="translate(-1122 -1189)"><circle id="Ellipse_21-10" data-name="Ellipse 21" cx="4" cy="4" r="4" transform="translate(1146 1227)" fill="#ee4158"></circle></g><g transform="translate(-1100 -1189)"><circle id="Ellipse_21-11" data-name="Ellipse 21" cx="4" cy="4" r="4" transform="translate(1146 1227)" fill="#ee4158"></circle></g><g transform="translate(-1078 -1189)"><circle id="Ellipse_21-12" data-name="Ellipse 21" cx="4" cy="4" r="4" transform="translate(1146 1227)" fill="#ee4158"></circle></g><g transform="translate(-1144 -1171)"><circle id="Ellipse_21-13" data-name="Ellipse 21" cx="4" cy="4" r="4" transform="translate(1146 1227)" fill="#ee4158"></circle></g><g transform="translate(-1122 -1171)"><circle id="Ellipse_21-14" data-name="Ellipse 21" cx="4" cy="4" r="4" transform="translate(1146 1227)" fill="#ee4158"></circle></g><g transform="translate(-1100 -1171)"><circle id="Ellipse_21-15" data-name="Ellipse 21" cx="4" cy="4" r="4" transform="translate(1146 1227)" fill="#ee4158"></circle></g><g transform="translate(-1078 -1171)"><circle id="Ellipse_21-16" data-name="Ellipse 21" cx="4" cy="4" r="4" transform="translate(1146 1227)" fill="#ee4158"></circle></g></g></svg>