<svg xmlns="http://www.w3.org/2000/svg" width="122.108" height="125.926" viewBox="0 0 122.108 125.926"><g id="Polygon_-_shape_-_border" data-name="Polygon - shape - border" transform="matrix(0.53, -0.848, 0.848, 0.53, 0, 81.413)" fill="none"><path d="M40.186,13.675a9,9,0,0,1,15.628,0l32.491,56.86A9,9,0,0,1,80.491,84H15.509A9,9,0,0,1,7.694,70.535Z" stroke="none"></path><path d="M 48 16.14006805419922 C 47.47052764892578 16.14006805419922 46.73945617675781 16.31488037109375 46.26352691650391 17.14781188964844 L 13.77212524414063 74.00772094726563 C 13.29983520507813 74.83421325683594 13.51507568359375 75.54940795898438 13.77880096435547 76.00384521484375 C 14.04251098632813 76.45828247070313 14.55669403076172 76.99999237060547 15.50862121582031 76.99999237060547 L 80.49137878417969 76.99999237060547 C 81.44330596923828 76.99999237060547 81.95748901367188 76.45828247070313 82.22119903564453 76.00384521484375 C 82.48492431640625 75.54940795898438 82.70014953613281 74.834228515625 82.22785186767578 74.00772094726563 L 49.73647308349609 17.14778900146484 C 49.26052856445313 16.31490325927734 48.52947235107422 16.14006805419922 48 16.14006805419922 M 48 9.140068054199219 C 51.04333114624023 9.140068054199219 54.08666229248047 10.65165710449219 55.81418228149414 13.67482757568359 L 88.30556488037109 70.53475952148438 C 91.73409271240234 76.53466796875 87.40177917480469 83.99999237060547 80.49137878417969 83.99999237060547 L 15.50862121582031 83.99999237060547 C 8.598220825195313 83.99999237060547 4.265907287597656 76.53466796875 7.694419860839844 70.53475952148438 L 40.18581771850586 13.67482757568359 C 41.91333770751953 10.65165710449219 44.95666885375977 9.140068054199219 48 9.140068054199219 Z" stroke="none" fill="#ffd100"></path></g></svg>