<svg xmlns="http://www.w3.org/2000/svg" width="54.4" height="47.6" viewBox="0 0 54.4 47.6"><path id="quote_-_icon" data-name="quote - icon" d="M49.3,26.05H40.8v-6.8a6.806,6.806,0,0,1,6.8-6.8h.85A2.544,2.544,0,0,0,51,9.9V4.8a2.544,2.544,0,0,0-2.55-2.55H47.6a17,17,0,0,0-17,17v25.5a5.1,5.1,0,0,0,5.1,5.1H49.3a5.1,5.1,0,0,0,5.1-5.1V31.15A5.1,5.1,0,0,0,49.3,26.05Zm-30.6,0H10.2v-6.8a6.806,6.806,0,0,1,6.8-6.8h.85A2.544,2.544,0,0,0,20.4,9.9V4.8a2.544,2.544,0,0,0-2.55-2.55H17a17,17,0,0,0-17,17v25.5a5.1,5.1,0,0,0,5.1,5.1H18.7a5.1,5.1,0,0,0,5.1-5.1V31.15A5.1,5.1,0,0,0,18.7,26.05Z" transform="translate(0 -2.25)" fill="#fff"></path></svg>