<?xml version="1.0" encoding="UTF-8"?> <svg xmlns="http://www.w3.org/2000/svg" width="500.964" height="485.912" viewBox="0 0 500.964 485.912"><g id="Group_9" data-name="Group 9" transform="translate(176.176 3421.47) rotate(180)"><path id="Path_91" data-name="Path 91" d="M795.4,355.637c0,9.079-4.1,16.792-12.869,16.483-10.445-.4-13.662-10.754-14.324-19.348A12.913,12.913,0,0,1,782.572,338.1C794.427,338.36,794.56,347.351,795.4,355.637Z" transform="translate(-820.898 2918.056)" fill="#6e8196"></path><path id="Path_92" data-name="Path 92" d="M832.5,338.674c0,12.957-8.33,16.439-18.378,16.968-5.289.264-11.327-.529-12.252-7.625-.794-5.95,15.029-26.8,19.744-25.694C830.211,324.174,831.621,331.8,832.5,338.674Z" transform="translate(-705.821 2864.503)" fill="#6e8196"></path><path id="Path_93" data-name="Path 93" d="M789.174,303.76c-1.234,8.065-.573,17.629-12.958,17.056-8.594-.309-16.968-3.79-16.4-12.693a21.6,21.6,0,0,1,19.039-19.392C787.146,287.718,788.513,296.62,789.174,303.76Z" transform="translate(-849.095 2749.922)" fill="#6e8196"></path><path id="Path_94" data-name="Path 94" d="M823.934,308.156c1.411,15.514-12.34,15.47-21.023,19.436-4.407,2.116-8.814-2.865-9.123-8.815-.617-10.445,10.71-23.976,19.789-23.755S823.141,302.03,823.934,308.156Z" transform="translate(-733.348 2771.618)" fill="#6e8196"></path><path id="Path_95" data-name="Path 95" d="M799.476,367.234c0,8.33-2.38,15.954-11.811,15.469-7.845-.4-15.381-3.746-15.381-14.236a16.571,16.571,0,0,1,14.544-17.629C796.391,349.913,798.418,359.345,799.476,367.234Z" transform="translate(-806.686 2961.594)" fill="#6e8196"></path><path id="Path_96" data-name="Path 96" d="M818.342,315.481c-8.418-.925-16.13-4.407-15.646-13.839.4-8.2,4.407-19.083,13.222-18.29s13.222,11.856,14.412,21.155C831.168,311.955,826.76,316.539,818.342,315.481Z" transform="translate(-702.987 2731.723)" fill="#6e8196"></path><path id="Path_97" data-name="Path 97" d="M810.464,358.709c5.333-.22,7.889,2.6,8.374,7.757.881,9.74-11.415,28.295-18.731,27.942a9.344,9.344,0,0,1-10.049-8.506C788.912,375.28,801.076,359.194,810.464,358.709Z" transform="translate(-746.232 2988.585)" fill="#6e8196"></path><path id="Path_98" data-name="Path 98" d="M784.8,363.856c.7-13.574,7.1-20.273,16.175-21.111s10.136,7.536,10,14.764c0,9.52-5.2,16.7-14.5,17.056a11.018,11.018,0,0,1-11.679-10.71Z" transform="translate(-763.892 2934.033)" fill="#6e8196"></path><path id="Path_99" data-name="Path 99" d="M777.015,362.709c-6.567,4.716-2.556,18.2-15.293,16.263-7.36-1.1-17.629-1.455-16.439-12.12A17.1,17.1,0,0,1,762.913,350.9C769.964,351.074,773.886,356.142,777.015,362.709Z" transform="translate(-898.859 2961.976)" fill="#6e8196"></path><path id="Path_100" data-name="Path 100" d="M816.933,379.532c-7.184-2.027-17.056-1.19-15.6-11.767a18.952,18.952,0,0,1,19-17.144c8.418,0,11.106,8.109,9.387,15.205C828.216,372.128,826.805,380.634,816.933,379.532Z" transform="translate(-708.056 2961.064)" fill="#6e8196"></path><path id="Path_101" data-name="Path 101" d="M827.078,311.27c10.886,11.062,12.384,23.226,5.156,33.76-3.7,5.377-14.5,2.38-17.629-4.1C808.347,327.709,818.087,319.732,827.078,311.27Z" transform="translate(-669.104 2826.988)" fill="#6e8196"></path><path id="Path_102" data-name="Path 102" d="M763.968,291.819c-6.964-1.058-16.395-1.278-15.557-10.886s9.607-13.971,18.863-14.808a11.326,11.326,0,0,1,12.164,11.856C780.01,287.456,773.223,291.158,763.968,291.819Z" transform="translate(-888.06 2673.057)" fill="#6e8196"></path><path id="Path_103" data-name="Path 103" d="M787.377,289.1c1.719,9.388,0,17.629-11.371,17.188-5.95,0-15.734-1.058-14.941-10.137,1.014-11.283,10.754-18.07,20.406-19.921C790.462,274.6,787.685,283.678,787.377,289.1Z" transform="translate(-844.918 2706.937)" fill="#6e8196"></path><path id="Path_104" data-name="Path 104" d="M808.352,307.7c-.308,7.933,8.066,14.324,3.834,23.006-13.618,3.261-28.515,2.336-29.176-13.222C782.481,304.657,797.819,307.83,808.352,307.7Z" transform="translate(-770.036 2813.944)" fill="#6e8196"></path><path id="Path_105" data-name="Path 105" d="M764.4,305.4c0,8.021-3,14.236-11.459,14.059s-16.7-4.76-17.276-12.869c-.661-9.608,8.814-14.368,16.968-14.985S763.7,297.868,764.4,305.4Z" transform="translate(-931.419 2759.869)" fill="#6e8196"></path><path id="Path_106" data-name="Path 106" d="M821.063,322.514c-3.217,6.963-.749,18.907-11.856,20.273-8.815,1.014-13.971-9.387-14.852-15.161-1.234-8.154,6.126-15.425,15.293-16.307C815.906,310.7,820.666,314.537,821.063,322.514Z" transform="translate(-731.798 2826.938)" fill="#6e8196"></path><path id="Path_107" data-name="Path 107" d="M781.836,323.5a13.222,13.222,0,0,1,8.815,13.222,17.629,17.629,0,0,1-17.629,16.395,8.418,8.418,0,0,1-9.476-10.313C765.749,333.9,770.773,325.7,781.836,323.5Z" transform="translate(-837.13 2868.659)" fill="#6e8196"></path><path id="Path_108" data-name="Path 108" d="M789.352,292.36c7.228.309,11.856,4.98,11.371,10.93a17.629,17.629,0,0,1-16.4,16.175,9.74,9.74,0,0,1-11.723-11.459,18.113,18.113,0,0,1,16.747-15.646Z" transform="translate(-806.127 2762.556)" fill="#6e8196"></path><path id="Path_109" data-name="Path 109" d="M719.236,359.172c-6.478-3.614-12.208-7.448-11.062-14.544s3.746-15.69,12.781-14.147c5.729.97,15.91.925,14.5,12.208C734.353,352.6,724.392,353.4,719.236,359.172Z" transform="translate(-1025.48 2891.824)" fill="#6e8196"></path><path id="Path_110" data-name="Path 110" d="M766.178,275.576c-2.2,9.74-3.261,19.921-15.822,19.656-6.435,0-14.015-2.292-13.222-10.225,1.19-11.679,11.723-14.236,21.2-16.263a5.906,5.906,0,0,1,7.845,6.831Z" transform="translate(-926.497 2680.794)" fill="#6e8196"></path><path id="Path_111" data-name="Path 111" d="M783.344,286.09c-7.58-1.763-18.467,1.234-17.629-8.021s12.384-12.076,20.979-12.737c6.787-.573,15.029,3.438,14.1,11.547C799.651,287.765,789.162,284.768,783.344,286.09Z" transform="translate(-829.074 2670.28)" fill="#6e8196"></path><path id="Path_112" data-name="Path 112" d="M751.175,346.933c-5.994-2.556-14.059-3.878-13.707-11.238a18.511,18.511,0,0,1,17.012-17.409c6.7-.838,10.137,5.773,10.269,11.855C764.926,339.044,758.932,343.716,751.175,346.933Z" transform="translate(-925.201 2850.647)" fill="#6e8196"></path><path id="Path_113" data-name="Path 113" d="M769.857,326.733c1.807-5.685,3.085-14.764,13.751-15.293a9.211,9.211,0,0,1,10.225,11.327c-1.146,8.594-4.672,16.615-14.544,17.629C771.972,341.188,769.019,336.252,769.857,326.733Z" transform="translate(-815.278 2827.259)" fill="#6e8196"></path><path id="Path_114" data-name="Path 114" d="M800.751,291.88c8.815.793,12.12,4.407,12.032,11.591,0,9.872-7.1,13.663-14.941,14.588a9.476,9.476,0,0,1-11.5-10.093A19.171,19.171,0,0,1,800.751,291.88Z" transform="translate(-758.777 2760.921)" fill="#6e8196"></path><path id="Path_115" data-name="Path 115" d="M802.588,374.217c-1.675,11.767-3.878,21.6-13.618,21.2-7.492-.264-12.032-10.093-10.754-16.7A17.63,17.63,0,0,1,795.36,365.49a7.581,7.581,0,0,1,7.228,8.727Z" transform="translate(-787.057 3011.73)" fill="#6e8196"></path><path id="Path_116" data-name="Path 116" d="M728.19,374.46a19.348,19.348,0,0,1,17.629-15.822c6.611-.661,12.428,1.851,11.9,9.476a15.734,15.734,0,0,1-14.9,15.425A14.5,14.5,0,0,1,728.19,374.46Z" transform="translate(-956.778 2988.039)" fill="#6e8196"></path><path id="Path_117" data-name="Path 117" d="M729.682,350.792c-11.591-6.258-15.425-14.412-6.875-25.077,4.407-5.773,12.693-7.272,16.615-1.586C747.046,335.19,741.1,344.005,729.682,350.792Z" transform="translate(-990.927 2858.599)" fill="#6e8196"></path><path id="Path_118" data-name="Path 118" d="M753.176,346.5c-2.292,8.374-6.346,16.351-17.32,17.365-6.082.573-7.492-4.407-6.787-8.815,1.41-9.255,3.878-18.643,15.161-20.141C751.369,333.983,752.912,339.492,753.176,346.5Z" transform="translate(-954.351 2907.184)" fill="#6e8196"></path><path id="Path_119" data-name="Path 119" d="M713.92,342.347c10.093,8.418,22.036-11.459,27.061,6.567a14.059,14.059,0,0,1-11.812,18.511C714.493,368.571,718.68,354.555,713.92,342.347Z" transform="translate(-1005.399 2928.525)" fill="#6e8196"></path><path id="Path_120" data-name="Path 120" d="M754.195,290.719c-1.366,6.875-4.407,12.34-11.547,11.5s-15.558-4.143-15.293-12.825c0-7.14,5.641-11.9,14.191-11.723C750.845,277.894,752.256,284.814,754.195,290.719Z" transform="translate(-959.645 2712.5)" fill="#6e8196"></path><path id="Path_121" data-name="Path 121" d="M790.82,327.737a13.927,13.927,0,0,1,19.083,8.815,11.767,11.767,0,0,1-4.407,14.236,8.815,8.815,0,0,1-12.076.441C784.032,344.4,789.189,335.89,790.82,327.737Z" transform="translate(-753.208 2878.922)" fill="#6e8196"></path><path id="Path_122" data-name="Path 122" d="M785.382,368.176c-.4,8.154-3.041,14.676-12.6,14.324-5.818-.264-11.988-1.278-11.856-9.564a13.971,13.971,0,0,1,13.222-14.588,8.814,8.814,0,0,1,11.239,9.828Z" transform="translate(-845.303 2986.126)" fill="#6e8196"></path><path id="Path_123" data-name="Path 123" d="M767.43,371.952c-1.014,8.462-5.641,14.1-14.059,13.971-5.333,0-12.869-.926-12.34-9.255.573-9.476,7.448-13.222,15.91-14.059C763.64,361.727,766.24,366.046,767.43,371.952Z" transform="translate(-913.117 3001.522)" fill="#6e8196"></path><path id="Path_124" data-name="Path 124" d="M834.541,342.812c-2.909,5.641-2.336,16.043-12.825,15.381-8.153-.529-8.506-8.286-7.845-14.676.705-7.228,4.1-13.883,12.032-13.927C832.822,329.59,835.819,334.835,834.541,342.812Z" transform="translate(-665.592 2889.409)" fill="#6e8196"></path><path id="Path_125" data-name="Path 125" d="M799.288,321.07c7.4,15.073-.793,22.962-9.432,29.881-3.438,2.733-10.269,1.675-11.018-3.173C776.547,333.322,787.389,327.857,799.288,321.07Z" transform="translate(-785.256 2860.379)" fill="#6e8196"></path><path id="Path_126" data-name="Path 126" d="M765.385,323c4.407,12.34,11.106,23.006-2.6,32a6.655,6.655,0,0,1-10.71-3.261C745.553,337.676,755.733,331.418,765.385,323Z" transform="translate(-882.425 2866.955)" fill="#6e8196"></path><path id="Path_127" data-name="Path 127" d="M792.1,298.017l17.938-21.067c5.994,3.79,17.012,5.024,11.5,14.368S806.952,309.7,792.1,298.017Z" transform="translate(-739.019 2710.05)" fill="#6e8196"></path><path id="Path_128" data-name="Path 128" d="M807.868,281.514a11.68,11.68,0,0,1-12.561,13.222c-6.391.264-12.649-1.454-12.3-8.815a16.835,16.835,0,0,1,15.558-16.439C804.43,268.865,808,275.343,807.868,281.514Z" transform="translate(-770.036 2684.464)" fill="#6e8196"></path><path id="Path_129" data-name="Path 129" d="M827.423,300.49c6.92.529,11.944,3.878,11.371,10.754-.529,5.729-.484,13.442-9.916,13.222-7.493,0-14.368-1.9-14.368-10.577C814.554,306.44,820.284,302.209,827.423,300.49Z" transform="translate(-662.662 2790.257)" fill="#6e8196"></path><path id="Path_130" data-name="Path 130" d="M815.55,328.86c-7.272-.573-10.181-4.628-9.52-10.8.793-7.448,2.776-14.941,12.12-15.293,7.007-.264,10.489,4.143,10.181,11.238C827.979,322.557,822.514,326.612,815.55,328.86Z" transform="translate(-691.865 2797.983)" fill="#6e8196"></path><path id="Path_131" data-name="Path 131" d="M833.424,348.673c-4.672,6.391-1.014,19.172-14.015,20.317-7.052.573-9.388-5.2-8.815-10.666.7-9.387,7.713-14.324,15.954-16.836C830.779,340.167,833.644,342.987,833.424,348.673Z" transform="translate(-676.287 2928.855)" fill="#6e8196"></path><path id="Path_132" data-name="Path 132" d="M757.743,372.267c-2.6-10.666,2.556-17.982,6.831-25.474a7.361,7.361,0,0,1,11.018-3c4.143,2.116,8.021,4.407,7.492,9.608s-4.848,11.988-7.977,10.489C765.279,359.222,765.058,370.681,757.743,372.267Z" transform="translate(-858.475 2933.114)" fill="#6e8196"></path><path id="Path_133" data-name="Path 133" d="M776.365,368.76a15.689,15.689,0,0,1,11.062,15.249,10.93,10.93,0,0,1-12.472,11.327c-9.7-.308-8.815-9.52-10.093-15.2C763.54,373.255,770.812,371.272,776.365,368.76Z" transform="translate(-832.364 3022.872)" fill="#6e8196"></path><path id="Path_134" data-name="Path 134" d="M818.6,344.922c-3.923,7.977-3.438,19.7-15.426,22.036a5.245,5.245,0,0,1-5.95-7.492c4.055-7.889,1.058-20.89,14.941-22.036C817.585,336.725,818.774,340.25,818.6,344.922Z" transform="translate(-723.56 2915.814)" fill="#6e8196"></path><path id="Path_135" data-name="Path 135" d="M747.94,388.056l19.833-18.466c9.211,4.98,14.147,12.737,8.814,20.494C767.949,403.041,759.223,390.084,747.94,388.056Z" transform="translate(-889.484 3025.7)" fill="#6e8196"></path><path id="Path_136" data-name="Path 136" d="M745.62,349.687c-.4-4.407,2.6-10.489,13.222-10.093,7.007.264,8.065,5.068,7.14,10.137-1.322,7.008-2.336,15.293-12.164,15.558C746.413,365.465,745.091,360.264,745.62,349.687Z" transform="translate(-897.742 2923.433)" fill="#6e8196"></path><path id="Path_137" data-name="Path 137" d="M766.87,310.854a18.951,18.951,0,0,1-13.75,16.7c-4.892,1.322-9.652-1.719-8.506-7.1,1.719-7.933,3.922-16.615,14.236-18.2C765.019,301.29,766.033,305.962,766.87,310.854Z" transform="translate(-901.407 2795.848)" fill="#6e8196"></path><path id="Path_138" data-name="Path 138" d="M736.479,299.845c-.661,10.577-6.391,13.222-13.971,12.913-5.685-.352-11.415-3.834-10.621-9.74a14.191,14.191,0,0,1,15.69-12.3,8.462,8.462,0,0,1,8.9,9.123Z" transform="translate(-1012.578 2756.658)" fill="#6e8196"></path><path id="Path_139" data-name="Path 139" d="M768.978,290.369c-1.939,8.33-5.6,13.751-13.883,13.751-4.407,0-9.784-1.587-8.418-7.448,1.543-6.875,2.776-15.6,12.12-16.175C765.188,280.056,766.73,286.4,768.978,290.369Z" transform="translate(-894.524 2722.061)" fill="#6e8196"></path><path id="Path_140" data-name="Path 140" d="M722.69,314.744c5.421-8.286-2.336-20.141,11.018-25.474,5.95,6.346,13.222,13.222,9.432,22.036C740.187,318.182,731.328,316.375,722.69,314.744Z" transform="translate(-975.518 2752.028)" fill="#6e8196"></path><path id="Path_141" data-name="Path 141" d="M731.655,320.5c.441,6.038,2.16,13.574-6.479,13.442a11.459,11.459,0,0,1-11.635-12.252c.617-7.316,4.407-14.941,13.222-14.412S732.228,315.39,731.655,320.5Z" transform="translate(-1006.784 2813.305)" fill="#6e8196"></path><path id="Path_142" data-name="Path 142" d="M749.6,321.573A11.326,11.326,0,0,1,738.4,332.5a10.577,10.577,0,0,1-11.327-10.974A13.222,13.222,0,0,1,739.9,307.954C749.818,307.073,746.777,316.548,749.6,321.573Z" transform="translate(-960.6 2815.495)" fill="#6e8196"></path><path id="Path_143" data-name="Path 143" d="M715.342,343.37c-7.8-8.109-14.191-15.117-2.776-23.358,4.76-3.394,11.282-7.933,14.808-.573C732.663,330.677,724.509,337.288,715.342,343.37Z" transform="translate(-1031.15 2841.341)" fill="#6e8196"></path><path id="Path_144" data-name="Path 144" d="M756.126,355.891c-1.719,6.655-2.468,13.751-10,13.222-6.435-.309-13.222-3.967-12.913-11.283a12.119,12.119,0,0,1,13.222-11.018,8.815,8.815,0,0,1,9.7,9.079Z" transform="translate(-939.715 2947.904)" fill="#6e8196"></path><path id="Path_145" data-name="Path 145" d="M791.867,307.7c-1.058-11.679-22.036-4.936-14.324-20.935a9.652,9.652,0,0,1,15.117-2.556C800.77,290.6,802.048,297.259,791.867,307.7Z" transform="translate(-794.407 2725.969)" fill="#6e8196"></path><path id="Path_146" data-name="Path 146" d="M769.107,308.63c9.7,8.815,7.536,16.175,1.058,21.463-4.76,3.834-11.812-.529-13.575-4.407C750.949,313.258,765.977,315.99,769.107,308.63Z" transform="translate(-864.286 2817.993)" fill="#6e8196"></path></g></svg> 