<?xml version="1.0" encoding="UTF-8"?> <svg xmlns="http://www.w3.org/2000/svg" id="_24-hours-phone-service" data-name="24-hours-phone-service" width="46.191" height="43.237" viewBox="0 0 46.191 43.237"><path id="Path_7051" data-name="Path 7051" d="M25.609,19.573A20.569,20.569,0,0,0,8.765,28.347a10.068,10.068,0,0,1,2.251,2.081,17.563,17.563,0,0,1,12.479-7.7L25.608,26.3l2.113-3.576A17.591,17.591,0,0,1,43.039,38.042l-3.576,2.113,3.576,2.113a17.571,17.571,0,0,1-8.05,12.708,5.344,5.344,0,0,1,.46,1.941,5.142,5.142,0,0,1-.131,1.381,20.579,20.579,0,0,0-9.71-38.725Zm5.252,33.9c-4.745-3.813-6.072-1.939-8.224.214-1.5,1.5-5.307-1.636-8.591-4.92s-6.424-7.088-4.921-8.591c2.153-2.153,4.027-3.48.213-8.224s-6.355-1.1-8.44.983C-1.51,35.339.77,44.309,9.635,53.175S27.47,64.319,29.876,61.913C31.962,59.827,35.606,57.286,30.861,53.47ZM16.41,43.377c0-4.218,4.938-4.969,4.938-6.615a1.128,1.128,0,0,0-1.231-1.134c-1.087,0-1.693,1.214-1.693,1.214l-2.077-1.39a4.406,4.406,0,0,1,4.026-2.461c1.869,0,3.9,1.071,3.9,3.5,0,3.563-4.6,4.25-4.682,5.72h4.858v2.4H16.538A6.98,6.98,0,0,1,16.41,43.377Zm9.205-3.227,4.41-6.967h3.419v6.344H34.8v2.316H33.445v2.765H30.681V41.843H25.616V40.15Zm5.065-.623V36.97a10.2,10.2,0,0,1,.1-1.279h-.032a6.064,6.064,0,0,1-.559,1.183L28.46,39.494v.032Z" transform="translate(0 -19.573)" fill="#00d746"></path></svg> 