<?xml version="1.0" encoding="UTF-8"?> <svg xmlns="http://www.w3.org/2000/svg" width="43.001" height="43" viewBox="0 0 43.001 43"><g id="email" transform="translate(0 -0.008)"><g id="Group_648" data-name="Group 648" transform="translate(0 0.008)"><g id="Group_647" data-name="Group 647" transform="translate(0 0)"><path id="Path_7055" data-name="Path 7055" d="M232.174.168a.736.736,0,0,0-.916,0l-1.772,1.375h4.454Z" transform="translate(-210.212 -0.008)" fill="#2be6ff"></path><path id="Path_7056" data-name="Path 7056" d="M31.492,324.5,11.41,340.1H52.492L32.413,324.5A.739.739,0,0,0,31.492,324.5Z" transform="translate(-10.452 -297.103)" fill="#2be6ff"></path><path id="Path_7057" data-name="Path 7057" d="M30.4,60.575a.768.768,0,1,1-.942-1.213l12.807-9.945-5.4-4.2v5.933a.768.768,0,1,1-1.536,0V37.331a.768.768,0,0,0-.768-.768H8.447a.768.768,0,0,0-.768.768V51.153a.768.768,0,0,1-1.536,0V45.219l-5.4,4.2,12.784,9.927a.768.768,0,0,1-.941,1.214L0,50.786V75.293L20.1,59.682a2.278,2.278,0,0,1,2.8,0L43,75.293V50.786ZM13.822,40.4H29.18a.768.768,0,1,1,0,1.536H13.822a.768.768,0,1,1,0-1.536Zm0,6.143a.768.768,0,1,1,0-1.536H29.18a.768.768,0,1,1,0,1.536Zm8.447,4.607a.768.768,0,0,1,0-1.536H29.18a.768.768,0,1,1,0,1.536Z" transform="translate(0 -33.493)" fill="#2be6ff"></path></g></g></g></svg> 