<?xml version="1.0" encoding="UTF-8"?> <svg xmlns="http://www.w3.org/2000/svg" viewBox="0 0 29.37 23.076"><g transform="translate(0 0)"><path d="M2.819,61.933q.557.393,3.36,2.336t4.294,2.991q.164.115.7.5t.885.623q.352.237.852.533a4.945,4.945,0,0,0,.942.442,2.6,2.6,0,0,0,.819.147H14.7a2.6,2.6,0,0,0,.82-.147,4.949,4.949,0,0,0,.942-.442q.5-.3.852-.533t.885-.623q.532-.386.7-.5,1.508-1.049,7.67-5.327a7.786,7.786,0,0,0,2-2.016,4.328,4.328,0,0,0,.8-2.474,2.645,2.645,0,0,0-2.622-2.622H2.622a2.341,2.341,0,0,0-1.942.852A3.308,3.308,0,0,0,0,57.8,3.828,3.828,0,0,0,.9,60.04,8.135,8.135,0,0,0,2.819,61.933Z" transform="translate(0 -54.82)"></path><path d="M27.731,185.863q-5.375,3.638-8.162,5.655-.934.688-1.516,1.073a9.354,9.354,0,0,1-1.549.787,4.715,4.715,0,0,1-1.8.4h-.033a4.717,4.717,0,0,1-1.8-.4,9.359,9.359,0,0,1-1.549-.787q-.582-.385-1.516-1.073-2.213-1.622-8.146-5.655A8.681,8.681,0,0,1,0,184.437V197.45A2.525,2.525,0,0,0,.77,199.3a2.525,2.525,0,0,0,1.852.77H26.748a2.63,2.63,0,0,0,2.622-2.623V184.437A9.038,9.038,0,0,1,27.731,185.863Z" transform="translate(0 -176.996)"></path></g></svg> 