<?xml version="1.0" encoding="UTF-8"?> <svg xmlns="http://www.w3.org/2000/svg" width="37.197" height="37.197" viewBox="0 0 37.197 37.197"><defs><style>.a{fill:#fff;}</style></defs><g transform="translate(0)"><path class="a" d="M18.6,0A18.6,18.6,0,1,0,37.2,18.6,18.619,18.619,0,0,0,18.6,0Zm0,35.957A17.358,17.358,0,1,1,35.957,18.6,17.378,17.378,0,0,1,18.6,35.957Z"></path><path class="a" d="M26.059,21.786V15.5a.62.62,0,1,0-1.24,0v6.287a2.477,2.477,0,0,0-1.772,1.772H18.62a.62.62,0,1,0,0,1.24h4.428a2.475,2.475,0,1,0,3.012-3.012Zm-.62,3.632a1.24,1.24,0,1,1,1.24-1.24A1.241,1.241,0,0,1,25.439,25.418Z" transform="translate(-6.841 -5.655)"></path><path class="a" d="M29.62,8.739a.62.62,0,0,0,.62-.62V7.5A.62.62,0,0,0,29,7.5v.62A.62.62,0,0,0,29.62,8.739Z" transform="translate(-11.022 -2.614)"></path><path class="a" d="M29.62,49.879a.62.62,0,0,0-.62.62v.62a.62.62,0,0,0,1.24,0V50.5A.62.62,0,0,0,29.62,49.879Z" transform="translate(-11.022 -18.957)"></path><path class="a" d="M51.24,28.879h-.62a.62.62,0,0,0,0,1.24h.62a.62.62,0,1,0,0-1.24Z" transform="translate(-19.003 -10.976)"></path><path class="a" d="M8.24,28.879H7.62a.62.62,0,1,0,0,1.24h.62a.62.62,0,1,0,0-1.24Z" transform="translate(-2.66 -10.976)"></path><path class="a" d="M44.469,13.5l-.438.438a.62.62,0,1,0,.877.877l.438-.438a.62.62,0,1,0-.877-.877Z" transform="translate(-16.665 -5.063)"></path><path class="a" d="M14.064,43.91l-.438.438a.62.62,0,1,0,.877.877l.438-.438a.62.62,0,0,0-.877-.877Z" transform="translate(-5.109 -16.619)"></path><path class="a" d="M44.907,43.91a.62.62,0,0,0-.877.877l.438.438a.62.62,0,0,0,.877-.877Z" transform="translate(-16.665 -16.619)"></path><path class="a" d="M14.5,13.5a.62.62,0,1,0-.877.877l.438.438a.62.62,0,1,0,.877-.877Z" transform="translate(-5.109 -5.063)"></path></g></svg> 