<?xml version="1.0" encoding="UTF-8"?> <svg xmlns="http://www.w3.org/2000/svg" xmlns:xlink="http://www.w3.org/1999/xlink" width="1920" height="498" viewBox="0 0 1920 498"><defs><style>.a{fill:#fff;}.b{fill:#edf4ff;}.c{clip-path:url(#a);}</style><clipPath id="a"><rect class="b" width="1920" height="309"></rect></clipPath></defs><path class="a" d="M0,482.6V0H1920V403.263q-2.725-1.078-5.472-2.153c-33.628-13.152-70.072-25.9-108.321-37.89-44.387-13.913-91.93-27.03-141.307-38.984l-.081-.018c-57.142-12.065-121.91-25.741-195.889-36.213-24.48-3.465-49.863-6.65-75.444-9.463-26.406-2.9-53.831-5.5-81.515-7.728-28.491-2.288-58.129-4.249-88.09-5.825-30.781-1.618-62.8-2.882-95.172-3.752-21.019-.565-42.376-.853-63.478-.853-36.92,0-74.528.877-111.776,2.607-35.4,1.643-71.472,4.1-107.213,7.312-33.788,3.034-68.232,6.823-102.376,11.261-32.069,4.171-64.794,9.032-97.265,14.452C340.01,345.657,114.6,440.6,0,497.387Z" transform="translate(1920 498) rotate(180)"></path><g class="c"><path class="b" d="M2046.455,900.608h0l-24.751-.431,27.615-174.352ZM440.425,872.574,0,864.887l1.081-61.9,439.344,69.585ZM9.374,327.772v0h0l.471-27.007.015-.009c.745-.435,18.594-10.818,48.3-26.693,17.85-9.538,36.535-19.224,55.538-28.792,23.741-11.951,48.012-23.73,72.139-35.008,61.432-28.718,122.371-54.436,181.124-76.44,34.882-13.063,69.37-24.945,102.507-35.316,36.45-11.408,72.164-21.267,106.151-29.3,34.178-8.083,69.18-15.59,104.034-22.314,32.127-6.2,64.909-11.88,97.436-16.889C833.426,21.321,890.56,14.412,946.906,9.46c43.135-3.791,86.075-6.46,127.627-7.934C1110.263.26,1136.724.173,1149.441.132c4.931-.016,9.74-.036,13.984-.054l.35,0c9.7-.039,18.857-.077,28.151-.077,43.626,0,86.905.9,167.744,5.357,64.174,3.541,127.656,9.1,169.61,13.137,48.563,4.675,95.589,9.949,125.8,14.109,55.324,7.62,92.856,13.44,129.547,20.09,36.661,6.644,71.576,13.944,123.18,25.09,51.727,11.173,90.172,20.478,113.316,26.316,25,6.305,38.083,10.056,38.212,10.093l-2.116,129.29c-26.039-12.437-54.775-24.818-85.409-36.8-33.627-13.152-70.072-25.9-108.321-37.89-44.387-13.914-91.93-27.03-141.307-38.984l-.079-.017c-57.143-12.066-121.911-25.742-195.89-36.214-24.48-3.465-49.863-6.648-75.444-9.462-26.405-2.9-53.831-5.5-81.514-7.728-28.491-2.288-58.129-4.248-88.09-5.825-30.78-1.619-62.8-2.882-95.172-3.753-21.019-.565-42.376-.852-63.478-.852-36.921,0-74.528.877-111.777,2.606-35.4,1.643-71.473,4.1-107.214,7.312C869.73,78.91,835.286,82.7,801.142,87.137c-32.069,4.169-64.794,9.031-97.266,14.451C346.228,159.5,99.048,279.055,9.376,327.771Z" transform="translate(1977.276 303.571) rotate(180)"></path></g></svg> 