<?xml version="1.0" encoding="UTF-8"?> <svg xmlns="http://www.w3.org/2000/svg" width="34.325" height="24.402" viewBox="0 0 34.325 24.402"><defs><style>.a{fill:#fff;}</style></defs><g transform="translate(0 -4.482)"><g transform="translate(5.979 16.247)"><path class="a" d="M25.777,22.194a.548.548,0,0,1-.379-.151L19.03,16.068a.553.553,0,1,1,.758-.806l6.369,5.975a.553.553,0,0,1-.38.956Z" transform="translate(-3.964 -15.111)"></path><path class="a" d="M5.955,22.193a.553.553,0,0,1-.38-.956l6.371-5.975a.553.553,0,1,1,.758.806L6.334,22.043A.548.548,0,0,1,5.955,22.193Z" transform="translate(-5.402 -15.111)"></path></g><path class="a" d="M31.558,28.884H2.767A2.77,2.77,0,0,1,0,26.117V7.249A2.77,2.77,0,0,1,2.767,4.482H31.558a2.77,2.77,0,0,1,2.767,2.767V26.117A2.77,2.77,0,0,1,31.558,28.884ZM2.767,5.589a1.662,1.662,0,0,0-1.66,1.66V26.117a1.662,1.662,0,0,0,1.66,1.66H31.558a1.662,1.662,0,0,0,1.66-1.66V7.249a1.662,1.662,0,0,0-1.66-1.66Z" transform="translate(0 0)"></path><path class="a" d="M17.092,19.379a3.1,3.1,0,0,1-2.032-.733L.848,6.249a.553.553,0,1,1,.727-.835l14.212,12.4a2.071,2.071,0,0,0,2.609,0L32.59,5.434a.554.554,0,0,1,.728.835L19.124,18.645A3.092,3.092,0,0,1,17.092,19.379Z" transform="translate(0.07 0.085)"></path></g></svg> 