<?xml version="1.0" encoding="UTF-8"?> <svg xmlns="http://www.w3.org/2000/svg" width="28" height="28" viewBox="0 0 28 28"><defs><style>.a{fill:#fff;}</style></defs><path class="a" d="M26.578,0H20.07a.532.532,0,0,1-.6-.6V-2.461H8.531V-.6a.532.532,0,0,1-.6.6h-5.3A2.531,2.531,0,0,1,.766-.766,2.531,2.531,0,0,1,0-2.625V-25.867A2.074,2.074,0,0,1,.6-27.4,2.074,2.074,0,0,1,2.133-28H25.867a2.074,2.074,0,0,1,1.531.6,2.074,2.074,0,0,1,.6,1.531V-1.422a1.36,1.36,0,0,1-.437.984A1.36,1.36,0,0,1,26.578,0ZM8.531-3.664H19.469V-6.07H8.531ZM26.8-25.867a.9.9,0,0,0-.273-.656.9.9,0,0,0-.656-.273H2.133a.9.9,0,0,0-.656.273.9.9,0,0,0-.273.656V-2.625a1.36,1.36,0,0,0,.438.984,1.36,1.36,0,0,0,.984.438h4.7V-6.672q0-.656.6-.656H20.07q.6,0,.6.656V-1.2h5.906a.193.193,0,0,0,.219-.219ZM19.469-12.2H8.531a.532.532,0,0,1-.6-.6.532.532,0,0,1,.6-.6H19.469a.532.532,0,0,1,.6.6A.532.532,0,0,1,19.469-12.2Zm0-3.609H8.531q-.6,0-.6-.656a.532.532,0,0,1,.6-.6H19.469a.532.532,0,0,1,.6.6Q20.07-15.8,19.469-15.8Zm0-3.664H8.531a.532.532,0,0,1-.6-.6.532.532,0,0,1,.6-.6H19.469a.532.532,0,0,1,.6.6A.532.532,0,0,1,19.469-19.469Z" transform="translate(0 28)"></path></svg> 