<?xml version="1.0" encoding="UTF-8"?> <svg xmlns="http://www.w3.org/2000/svg" width="29" height="27.867" viewBox="0 0 29 27.867"><defs><style>.a{fill:#fff;}</style></defs><path class="a" d="M28.434-15.633H16.256a.551.551,0,0,1-.623-.623V-27.867q0-.566.623-.566,6,0,9.374,3.229T29-16.256Q29-15.633,28.434-15.633ZM16.822-27.3v10.479H27.811a10.507,10.507,0,0,0-3.03-7.59Q21.92-27.131,16.822-27.3ZM11.356-11.7a2.509,2.509,0,0,0,1.841.765,2.509,2.509,0,0,0,1.841-.765,2.509,2.509,0,0,0,.765-1.841v-.227a.439.439,0,0,1,.113-.51.653.653,0,0,1,.453-.227h8.666a.5.5,0,0,1,.566.566,13.388,13.388,0,0,1-3.54,9.686A12.265,12.265,0,0,1,12.8-.566,12.461,12.461,0,0,1,3.71-4.22,12.043,12.043,0,0,1,0-13.141a12.5,12.5,0,0,1,3.682-9.4,13.327,13.327,0,0,1,9.686-3.568q.566,0,.566.623v8.779a.543.543,0,0,1-.17.4q-.227.227-.4.17H13.2a2.509,2.509,0,0,0-1.841.765,2.509,2.509,0,0,0-.765,1.841A2.509,2.509,0,0,0,11.356-11.7ZM12.8-17.275v-7.646a11.967,11.967,0,0,0-8.468,3.4,11.4,11.4,0,0,0-3.2,8.383A10.978,10.978,0,0,0,4.475-4.984,11.4,11.4,0,0,0,12.8-1.7a11.163,11.163,0,0,0,8.3-3.172,12.048,12.048,0,0,0,3.313-8.439H16.936a3.455,3.455,0,0,1-1.161,2.492A3.68,3.68,0,0,1,13.2-9.8a3.711,3.711,0,0,1-2.69-1.076,3.569,3.569,0,0,1-1.1-2.662,3.636,3.636,0,0,1,.991-2.549A3.56,3.56,0,0,1,12.8-17.275Z" transform="translate(0 28.434)"></path></svg> 