<?xml version="1.0" encoding="UTF-8"?> <svg xmlns="http://www.w3.org/2000/svg" width="28.225" height="21.28" viewBox="0 0 28.225 21.28"><defs><style>.a{fill:#fff;}</style></defs><path class="a" d="M10.528,0a20.175,20.175,0,0,1,2.24,9.408,13.076,13.076,0,0,1-2.725,8.512q-2.725,3.36-8.475,3.36v-4.7a4.14,4.14,0,0,0,2.949-.9q.933-.9.933-3.435V11.5H0V0ZM25.985,0a20.175,20.175,0,0,1,2.24,9.408A13.076,13.076,0,0,1,25.5,17.92q-2.725,3.36-8.475,3.36v-4.7a4.14,4.14,0,0,0,2.949-.9q.933-.9.933-3.435V11.5H15.456V0Z" transform="translate(28.225 21.28) rotate(180)"></path></svg> 