<?xml version="1.0" encoding="UTF-8"?> <svg xmlns="http://www.w3.org/2000/svg" width="30" height="27.598" viewBox="0 0 30 27.598"><defs><style>.a{fill:#fff;}</style></defs><path class="a" d="M25.605-13.623A20.427,20.427,0,0,1,15-11.016,20.427,20.427,0,0,1,4.395-13.623Q0-16.23,0-19.922q0-3.633,4.395-6.24A20.427,20.427,0,0,1,15-28.77a20.427,20.427,0,0,1,10.605,2.607Q30-23.555,30-19.922,30-16.23,25.605-13.623Zm-.85-11.719A19.843,19.843,0,0,0,15-27.6a19.843,19.843,0,0,0-9.756,2.256q-4.072,2.256-4.072,5.42T5.244-14.5A19.843,19.843,0,0,0,15-12.246,19.843,19.843,0,0,0,24.756-14.5q4.072-2.256,4.072-5.42T24.756-25.342ZM1.992-12.656a9.983,9.983,0,0,0,5.039,3.75A21.6,21.6,0,0,0,15-7.5a21.6,21.6,0,0,0,7.969-1.406,9.983,9.983,0,0,0,5.039-3.75q.352-.527.82-.176a.533.533,0,0,1,.234.82A11.549,11.549,0,0,1,23.5-7.881,22.6,22.6,0,0,1,15-6.328,22.6,22.6,0,0,1,6.5-7.881,11.549,11.549,0,0,1,.938-12.012a.533.533,0,0,1,.234-.82Q1.641-13.184,1.992-12.656Zm0,5.156A9.983,9.983,0,0,0,7.031-3.75,21.6,21.6,0,0,0,15-2.344,21.6,21.6,0,0,0,22.969-3.75,9.983,9.983,0,0,0,28.008-7.5q.352-.527.82-.176a.533.533,0,0,1,.234.82A11.549,11.549,0,0,1,23.5-2.725,22.6,22.6,0,0,1,15-1.172,22.6,22.6,0,0,1,6.5-2.725,11.549,11.549,0,0,1,.938-6.855a.533.533,0,0,1,.234-.82Q1.641-8.027,1.992-7.5Z" transform="translate(0 28.77)"></path></svg> 