<?xml version="1.0" encoding="UTF-8"?> <svg xmlns="http://www.w3.org/2000/svg" width="29.736" height="29.73" viewBox="0 0 29.736 29.73"><defs><style>.a{fill:#fff;}</style></defs><g transform="translate(0 -0.003)"><path class="a" d="M23.9,29.733a12.779,12.779,0,0,1-4.373-.929A32.824,32.824,0,0,1,8.487,21.247,32.821,32.821,0,0,1,.93,10.21C-.307,6.935-.31,4.247.92,3.017c.178-.178.359-.368.545-.563C2.588,1.274,3.887-.067,5.538.006,6.7.054,7.821.774,8.973,2.2c3.4,4.225,1.865,5.731.093,7.477l-.314.31c-.29.29-.839,1.632,4.26,6.73a28.377,28.377,0,0,0,4.217,3.62c.715.464,1.991,1.164,2.514.641l.315-.318c1.744-1.77,3.25-3.3,7.474.1,1.431,1.15,2.15,2.273,2.2,3.434.069,1.682-1.271,2.954-2.453,4.076-.194.185-.384.364-.56.54A3.9,3.9,0,0,1,23.9,29.733ZM5.419,1C4.225,1,3.145,2.138,2.19,3.142c-.193.2-.38.4-.563.582-.916.915-.822,3.323.238,6.134A31.825,31.825,0,0,0,9.194,20.541a31.824,31.824,0,0,0,10.681,7.328c2.811,1.061,5.219,1.153,6.135.236.183-.182.378-.368.578-.558,1.028-.977,2.193-2.083,2.143-3.311A4.042,4.042,0,0,0,26.9,21.541c-3.52-2.828-4.5-1.828-6.135-.176l-.32.323c-.777.781-2.044.61-3.766-.51A29.32,29.32,0,0,1,12.3,17.427h0C8.074,13.2,6.72,10.608,8.045,9.282l.319-.316c1.658-1.632,2.658-2.617-.171-6.137A4.054,4.054,0,0,0,5.5,1Z"></path><path class="a" d="M24.07,12.29a.5.5,0,0,1-.463-.687,4.2,4.2,0,0,0-5.627-5.41.5.5,0,1,1-.412-.91,5.2,5.2,0,0,1,6.965,6.7A.5.5,0,0,1,24.07,12.29Z"></path><path class="a" d="M28.534,14.1a.5.5,0,0,1-.463-.687A9.022,9.022,0,0,0,15.995,1.8.5.5,0,0,1,15.583.89,10.022,10.022,0,0,1,29,13.79.5.5,0,0,1,28.534,14.1Z"></path></g></svg> 