<?xml version="1.0" encoding="UTF-8"?> <svg xmlns="http://www.w3.org/2000/svg" width="35.327" height="41.532" viewBox="0 0 35.327 41.532"><defs><style>.a{fill:#fff;}</style></defs><g transform="translate(0)"><g transform="translate(0)"><path class="a" d="M145.907,22.378h.275a7.936,7.936,0,0,0,6.063-2.623c3.311-3.733,2.761-10.131,2.7-10.742-.215-4.584-2.382-6.777-4.171-7.8A9.562,9.562,0,0,0,146.148,0H146a9.577,9.577,0,0,0-4.627,1.178c-1.806,1.023-4.008,3.217-4.223,7.835-.06.611-.611,7.009,2.7,10.742A7.9,7.9,0,0,0,145.907,22.378Zm-6.459-13.15c0-.026.009-.052.009-.069.284-6.167,4.661-6.829,6.536-6.829h.1c2.322.052,6.27,1,6.536,6.829a.168.168,0,0,0,.009.069c.009.06.611,5.909-2.124,8.987a5.637,5.637,0,0,1-4.429,1.841H146a5.618,5.618,0,0,1-4.421-1.841C138.855,15.154,139.44,9.28,139.448,9.228Z" transform="translate(-128.394)"></path><path class="a" d="M71.4,269.939v-.026c0-.069-.009-.138-.009-.215-.052-1.7-.163-5.685-3.9-6.958l-.086-.026a24.817,24.817,0,0,1-7.138-3.251,1.161,1.161,0,0,0-1.333,1.9,26.786,26.786,0,0,0,7.852,3.586c2,.714,2.228,2.855,2.288,4.816a1.727,1.727,0,0,0,.009.215,15.611,15.611,0,0,1-.181,2.658,31.652,31.652,0,0,1-15.163,3.526,31.833,31.833,0,0,1-15.171-3.535,14.78,14.78,0,0,1-.181-2.658c0-.069.009-.138.009-.215.06-1.961.284-4.1,2.288-4.816a27.038,27.038,0,0,0,7.852-3.586,1.161,1.161,0,0,0-1.333-1.9,24.545,24.545,0,0,1-7.138,3.251c-.034.009-.06.017-.086.026-3.733,1.281-3.844,5.263-3.9,6.958a1.727,1.727,0,0,1-.009.215v.026a13.189,13.189,0,0,0,.439,3.9,1.1,1.1,0,0,0,.447.542c.258.172,6.442,4.111,16.788,4.111s16.53-3.948,16.788-4.111a1.151,1.151,0,0,0,.447-.542A13.837,13.837,0,0,0,71.4,269.939Z" transform="translate(-36.073 -236.948)"></path></g></g></svg> 