<svg xmlns="http://www.w3.org/2000/svg" xmlns:xlink="http://www.w3.org/1999/xlink" width="1168" height="737" viewBox="0 0 1168 737"><defs><filter id="a" x="6" y="698" width="36" height="36" filterUnits="userSpaceOnUse"><feOffset dy="3" input="SourceAlpha"/><feGaussianBlur stdDeviation="3" result="b"/><feFlood flood-opacity="0.161"/><feComposite operator="in" in2="b"/><feComposite in="SourceGraphic"/></filter><filter id="c" x="1136" y="5" width="30" height="30" filterUnits="userSpaceOnUse"><feOffset dy="3" input="SourceAlpha"/><feGaussianBlur stdDeviation="3" result="d"/><feFlood flood-opacity="0.161"/><feComposite operator="in" in2="d"/><feComposite in="SourceGraphic"/></filter></defs><g transform="translate(-867.095 -128.671)"><path d="M1939.6,129.915S1776.544,432.181,1556.665,450.2s-126.16,299.179-234.3,277.551-158.6-313.6-320.806-234.3S813.451,826.441,813.451,826.441" transform="translate(78 15.386)" fill="none" stroke="#ffa700" stroke-width="5"/><g transform="translate(126.937 597.512)"><circle cx="24" cy="24" r="24" transform="translate(740.158 220.158)" fill="#ffa700"/><g transform="matrix(1, 0, 0, 1, 740.16, -468.84)" filter="url(#a)"><circle cx="9" cy="9" r="9" transform="translate(15 704)" fill="#fff"/></g></g><g transform="translate(1260.961 -91.463)"><circle cx="17" cy="17" r="17" transform="translate(740.134 220.134)" fill="#ffa700"/><g transform="matrix(1, 0, 0, 1, -393.87, 220.13)" filter="url(#c)"><circle cx="6" cy="6" r="6" transform="translate(1145 11)" fill="#fff"/></g></g></g></svg>