<svg xmlns="http://www.w3.org/2000/svg" width="590.854" height="471.506" viewBox="0 0 590.854 471.506">
  <g id="g98" transform="matrix(-0.438, -0.899, 0.899, -0.438, 117.785, 470.169)" opacity="0.15">
    <path id="path100" d="M250.782,219.935l.139-.223a62.44,62.44,0,0,0-8.412-76.549,375.4,375.4,0,0,1-44.243-55.539c-53.247-81.2-79.742-182.233-78.752-300.312A62.391,62.391,0,0,0,57.646-275.6c-.175,0-.357,0-.532,0a62.389,62.389,0,0,0-62.381,61.87c-2,237.779,93.1,376.729,158.454,444C181.413,259.321,229.355,254.308,250.782,219.935Z" transform="translate(5.298 275.606)" fill="none" stroke="#018d50" stroke-miterlimit="10" stroke-width="2"/>
  </g>
</svg>
