<?xml version="1.0" encoding="UTF-8"?> <svg xmlns="http://www.w3.org/2000/svg" width="1963" height="771.733" viewBox="0 0 1963 771.733"><path id="bg-wave" d="M-1144.909,687.85c-19.085-65.024-37.216-182.259-55.892-203.661-19.084-22.22-37.351,51.392-55.89,65.433-19.085,14.586-37.625-29.036-55.892-65.433-19.084-35.852-37.76-65.842-55.891-43.622-19.085,21.4-38.033,95.014-57.254,109.055-9.459,7.785-19.307-1.012-29.335-9.81-8.761-7.685-17.659-15.369-26.556-12-17.722,7.77-36.943,65.024-55.891,80.019-19.085,15-37.216-14.995-55.892-36.4-19.084-22.22-37.351-35.852-55.891-36.261-19.085.409-37.624,14.041-55.891,14.449-19.084-.409-37.76-14.041-55.891,14.586-19.084,28.627-38.033,102.24-57.254,138.092-17.722,36.4-36.806,36.4-55.892,36.4-17.721,0-36.942,0-55.891-58.208-19.084-57.663-37.215-174.9-46.484-232.561L-1986,389.72V187.238l9.68-43.622c9.542-43.622,28.49-130.866,47.575-145.453,19.767-14.041,39.532,43.213,58.617,87.244,18.813,43.214,38.17,73.2,57.254,50.983,19.357-21.4,38.17-95.015,57.254-65.433,19.767,29.036,39.532,159.9,58.617,203.524,18.949,43.622,38.17,0,57.254,0,19.357,0,38.169,43.622,57.254,50.847,19.9,7.771,39.533-22.22,58.617-50.847,18.949-28.627,38.17-58.617,57.254-50.847,19.493,7.225,38.169,50.847,58.617,36.261,18.54-14.041,38.17-87.653,57.254-123.505q28.627-54.6,57.254,0c19.63,35.852,38.169,109.464,58.617,138.091,18.676,28.627,38.169,14.995,57.254,14.586,19.22.409,38.169,14.041,57.254-29.173,19.631-44.031,39.533-144.907,58.618-145.316,18.812.409,38.169,101.285,57.254,152.678,19.22,50.846,38.169,50.846,57.254,7.224,19.767-43.622,39.532-130.866,58.618-174.488,18.812-43.622,38.169-43.622,57.254-36.4,19.358,7.771,38.17,21.4,57.254,58.208,19.767,36.806,39.532,94.061,58.617,80.02,18.949-14.586,38.17-101.831,57.254-116.417,19.357-14.041,38.17,43.214,57.254,87.244,19.9,43.214,39.532,73.2,58.617,101.83,18.949,28.627,38.17,58.618,57.254,21.812,19.494-36.806,38.169-137.683,58.617-196.3,18.54-58.618,38.17-72.249,57.254-29.036,19.085,44.031,38.17,144.907,57.254,174.488,11.548,17.081,22.719,9.016,34.123.951,7.98-5.644,16.076-11.288,24.494-8.312,18.676,7.77,38.17,65.024,57.254,36.4,19.221-28.627,38.169-145.861,57.254-152.678,19.63-6.816,39.533,94.061,58.617,101.831,18.812,7.225,38.17-80.019,47.712-123.641L-23,56.372V476.964l-9.543-14.586c-9.542-14.041-27.809-44.031-46.348-7.225-19.084,36.806-37.624,137.683-55.891,196.3-19.085,58.618-37.76,72.249-55.891,58.208-19.085-14.586-38.033-58.208-57.254-109.055-17.722-51.393-36.806-108.647-55.891-123.642-10.576-8.949-21.685-1.877-32.952,5.194-7.613,4.778-15.3,9.557-22.939,9.392-6.448.138-12.788-3.2-19.076-6.527-12.323-6.529-24.449-13.06-36.815,6.527-19.085,29.036-37.352,116.28-55.891,138.092-19.085,21.811-37.624-21.812-55.891-29.036-19.085-7.771-37.76,22.22-55.892,29.036-19.085,6.816-38.032-6.816-57.254-29.036-17.722-21.4-36.806-51.393-55.891-50.984-17.722-.409-36.942,29.581-55.891,50.984-19.085,22.22-37.215,35.852-55.891,29.036-19.085-6.816-37.352-36.806-55.891-36.4-6.448-.139-12.835,3.194-19.169,6.526-12.414,6.53-24.628,13.061-36.722-6.526-19.085-29.036-37.761-116.28-55.892-101.694-19.085,14.041-38.033,131.276-57.253,196.3-17.722,65.842-36.806,79.474-55.891,79.883C-1106.74,767.324-1125.961,753.692-1144.909,687.85Z" transform="translate(1986 4)" fill="#fff"></path></svg> 