<svg xmlns="http://www.w3.org/2000/svg" width="1034.929" height="1034.954" viewBox="0 0 1034.929 1034.954"><path d="M1085.919,679.943a527.663,527.663,0,0,0,4.224-67.091c0-8.2-.15-16.411-.613-24.435l-.025-.3-.013-.163C1076.47,311.715,849.55,95.381,572.673,95.381,303,95.381,81.474,297.63,57.4,565.82c-1.462,16-2.187,31.821-2.187,47.031,0,13.711.55,27.5,1.712,42.12a502.984,502.984,0,0,0,16.46,94.138,508.779,508.779,0,0,0,57.768,133.233,519.087,519.087,0,0,0,35.3,50.344q6.356,8.005,13.011,15.76c93.188,108.461,229.845,177.427,377.989,181.739h.525c4.862.137,9.861.15,14.7.15q26.135,0,51.844-2.55c13.2-1.3,26.272-3.275,39.258-5.574,12.323-2.187,24.584-4.662,36.7-7.737a514.679,514.679,0,0,0,73.253-24.609,520.762,520.762,0,0,0,47.044-22.7,513.691,513.691,0,0,0,65.254-42.32,520.18,520.18,0,0,0,58.455-51.955l.025-.037a519.291,519.291,0,0,0,118.222-192.9l.175-.575.025-.062A532.821,532.821,0,0,0,1085.919,679.943ZM934.839,933.072a857.846,857.846,0,0,0-62.1-86.1,472.916,472.916,0,0,1,147.781-51.493A486.6,486.6,0,0,1,934.839,933.072Zm-28.446,29.522q-3.881,3.731-7.861,7.349-4.781,4.368-9.674,8.611c-2.687,2.324-5.374,4.625-8.111,6.886-3.337,2.775-6.737,5.487-10.161,8.161-2.75,2.162-5.487,4.312-8.287,6.4-3.537,2.662-7.137,5.224-10.749,7.774-2.762,1.962-5.524,3.937-8.336,5.836-3.787,2.562-7.649,5.012-11.5,7.462-2.75,1.737-5.462,3.524-8.249,5.212-4.124,2.5-8.324,4.874-12.536,7.261-2.612,1.474-5.187,3.012-7.837,4.449-4.724,2.55-9.536,4.962-14.361,7.374-2.212,1.113-4.4,2.287-6.636,3.362-1.975.95-4.012,1.8-6,2.725A675.636,675.636,0,0,0,628.991,831.336C486.2,688.529,290.485,617.763,89.823,635.236c-.35-7.574-.587-15.023-.587-22.384,0-8.949.387-18.2.925-27.522.075-1.137.162-2.287.237-3.425,177.865-28.6,361.516,2.912,518.683,89.264a796.893,796.893,0,0,1,124.284,84.177,13.621,13.621,0,0,0,1.387,1.025c20.41,16.9,39.882,34.6,57.918,52.631,14.3,14.3,28.146,29.2,41.157,44.282A819.455,819.455,0,0,1,910.7,958.369C909.267,959.769,907.855,961.207,906.393,962.594ZM741.276,1066.043c-3.112,1.162-6.237,2.238-9.374,3.337-4.162,1.45-8.324,2.862-12.511,4.2-3.2,1.025-6.412,1.988-9.636,2.937q-6.261,1.857-12.586,3.537c-3.237.863-6.487,1.7-9.749,2.487-4.25,1.037-8.524,1.987-12.8,2.912-3.25.7-6.5,1.387-9.761,2.012-4.362.85-8.749,1.587-13.148,2.312-3.2.525-6.4,1.075-9.624,1.537-4.587.65-9.2,1.188-13.811,1.712-3.05.35-6.087.737-9.136,1.037-5.137.488-10.3.812-15.461,1.137-2.562.163-5.112.4-7.674.525q-11.624.544-23.335.563c-.637,0-1.337-.012-1.987-.012A508.418,508.418,0,0,0,441.39,877.73,510.975,510.975,0,0,0,103.446,728.237c-1.625-6.587-3.287-13.174-4.637-19.835-.425-2.125-.875-4.25-1.275-6.386-1.937-10.387-3.562-20.835-4.8-31.3-.075-.6-.125-1.213-.187-1.825,190.763-16.623,376.676,50.818,512.371,186.513a641.8,641.8,0,0,1,140.019,209.2C743.714,1065.068,742.5,1065.581,741.276,1066.043Zm-208.835,28.546c-11.111-.937-22.147-2.187-33.083-3.887-.387-.063-.775-.138-1.175-.2q-16.536-2.625-32.746-6.4c-.75-.162-1.5-.312-2.25-.488-10.548-2.487-20.972-5.386-31.283-8.573-1.3-.4-2.612-.775-3.912-1.187q-14.961-4.763-29.546-10.511c-1.487-.575-2.974-1.15-4.462-1.75q-14.379-5.794-28.321-12.474c-1.462-.7-2.925-1.412-4.375-2.125q-13.967-6.862-27.471-14.561c-1.212-.7-2.412-1.425-3.625-2.137-9.174-5.349-18.2-10.961-27-16.9-.75-.5-1.462-1.024-2.2-1.537a493.224,493.224,0,0,1-52.318-41.157c-.713-.65-1.45-1.262-2.162-1.912-7.786-7.112-15.3-14.523-22.622-22.135-1.025-1.062-2.062-2.113-3.087-3.187q-10.592-11.211-20.448-23.109c-1.087-1.312-2.174-2.613-3.25-3.937q-9.673-11.887-18.622-24.4c-.988-1.375-1.95-2.775-2.925-4.163-5.924-8.486-11.611-17.147-16.985-26.022-.762-1.237-1.475-2.512-2.225-3.762-5.462-9.2-10.686-18.573-15.548-28.159-.375-.75-.725-1.512-1.1-2.262q-7.349-14.7-13.723-29.959c-.188-.462-.413-.925-.6-1.387-4.2-10.174-7.986-20.572-11.486-31.108-.275-.813-.562-1.625-.825-2.437,114.81,8.162,222.109,57.018,304.273,139.057a475.273,475.273,0,0,1,117.635,192.987C534.128,1094.752,533.291,1094.664,532.441,1094.589ZM124.194,431.2l192.438,27.884a185.435,185.435,0,0,0,11.1,85.576,848.246,848.246,0,0,0-233.957,2.449A485.975,485.975,0,0,1,124.194,431.2ZM480.285,291.768a189.559,189.559,0,0,0-84.976,32.658l-95.15-111.911A481.033,481.033,0,0,1,486.3,137.088Zm-76.5,69.016a154.176,154.176,0,0,1,242.318,58.2l.012.038.013.038h0a155.208,155.208,0,0,1,11.761,59.13c0,3.312-.15,6.624-.45,10.149a153.15,153.15,0,0,1-83.6,127.121A842.617,842.617,0,0,0,368.087,550.9a153.609,153.609,0,0,1,35.7-190.113ZM1055.9,604.39c.05,2.824.225,5.649.225,8.461,0,16.035-1.012,31.884-2.512,47.519a679.4,679.4,0,0,0-306.885,62.155,832.683,832.683,0,0,0-91.6-64.042A810.121,810.121,0,0,1,1055.9,604.39Zm-22.36,154.78a507.724,507.724,0,0,0-183.3,61.43c-10.8-12.123-21.935-24.11-33.508-35.671-12.936-12.948-26.784-25.6-40.982-38.032A646.122,646.122,0,0,1,1049.224,694.3,498.8,498.8,0,0,1,1033.539,759.17Zm-106.411-475.4L889.507,299.4a17.019,17.019,0,1,0,13.061,31.433l47.994-19.96A481,481,0,0,1,1054.1,569.907a843.683,843.683,0,0,0-436.181,67.479c-2.562-1.362-5.149-2.674-7.724-4.024a186.73,186.73,0,0,0,79.49-126.921H932.252a17.023,17.023,0,0,0,0-34.045H691.633a188.138,188.138,0,0,0-8.349-50.332l115.06-47.806a17.019,17.019,0,0,0-13.061-31.433l-115.06,47.794a191.125,191.125,0,0,0-50.706-60.593L771.223,171.871A482.913,482.913,0,0,1,927.127,283.769ZM737.264,158.1,590.434,311.178a188.936,188.936,0,0,0-76.04-20.71l6.149-158.217a495.116,495.116,0,0,1,52.131-2.825A484.322,484.322,0,0,1,737.264,158.1ZM272.65,232.713l96.8,113.86a188.476,188.476,0,0,0-46.119,79.089L138.517,398.879A478.838,478.838,0,0,1,272.65,232.713Z" transform="translate(-55.215 -95.381)" fill="#fff" opacity="0.08"></path></svg>