<?xml version="1.0" encoding="UTF-8"?> <svg xmlns="http://www.w3.org/2000/svg" width="100" height="23.209" viewBox="0 0 100 23.209"><g id="logo" transform="translate(-140.02 -64.43)"><path id="Path_1" data-name="Path 1" d="M19.469,4.071H16.012a1.634,1.634,0,0,1-.957-.262,1.359,1.359,0,0,1-.521-.672L13.4-.112H6.09L4.955,3.137a1.447,1.447,0,0,1-.515.646,1.514,1.514,0,0,1-.937.288H.02L7.462-14.57h4.565ZM7.119-3.055H12.37L10.6-8.16q-.172-.486-.4-1.145t-.455-1.427q-.211.78-.435,1.446T8.887-8.134ZM25.856-9.427A7.787,7.787,0,0,1,27.5-9.26a6.752,6.752,0,0,1,1.432.473h4.13v1.446a.71.71,0,0,1-.191.525,1.328,1.328,0,0,1-.653.294l-1,.218a3.871,3.871,0,0,1,.185,1.19,3.705,3.705,0,0,1-.429,1.791,4.108,4.108,0,0,1-1.174,1.35,5.544,5.544,0,0,1-1.762.857,7.638,7.638,0,0,1-2.177.3,9.066,9.066,0,0,1-1.214-.077q-.449.258-.449.594a.5.5,0,0,0,.363.484,3.472,3.472,0,0,0,.957.207q.594.058,1.359.058t1.557.071a12.523,12.523,0,0,1,1.557.237,4.233,4.233,0,0,1,1.359.539,2.844,2.844,0,0,1,.957.995,3.114,3.114,0,0,1,.363,1.585,3.76,3.76,0,0,1-.449,1.758A4.625,4.625,0,0,1,30.9,7.163a6.964,6.964,0,0,1-2.138,1.072,9.545,9.545,0,0,1-2.9.4,11.47,11.47,0,0,1-2.778-.295,6.837,6.837,0,0,1-1.94-.775A3.315,3.315,0,0,1,20,6.461a2.54,2.54,0,0,1-.369-1.307,2.135,2.135,0,0,1,.554-1.492A3.7,3.7,0,0,1,21.7,2.709a2.276,2.276,0,0,1-.739-.754A2.222,2.222,0,0,1,20.683.792a2.01,2.01,0,0,1,.106-.619,2.242,2.242,0,0,1,.33-.632,3.241,3.241,0,0,1,.567-.588,3.73,3.73,0,0,1,.818-.5A4.426,4.426,0,0,1,20.822-3a3.681,3.681,0,0,1-.614-2.111,3.7,3.7,0,0,1,.435-1.8,4.1,4.1,0,0,1,1.194-1.356,5.691,5.691,0,0,1,1.788-.857A7.923,7.923,0,0,1,25.856-9.427ZM28.89,4.528a.69.69,0,0,0-.2-.523,1.462,1.462,0,0,0-.554-.314,3.956,3.956,0,0,0-.818-.17A9.124,9.124,0,0,0,26.3,3.47H25.183a6.084,6.084,0,0,1-1.148-.109,2.655,2.655,0,0,0-.627.571,1.13,1.13,0,0,0-.244.712,1.057,1.057,0,0,0,.125.513,1.022,1.022,0,0,0,.442.4,2.994,2.994,0,0,0,.851.263,7.855,7.855,0,0,0,1.352.1,8.257,8.257,0,0,0,1.451-.1,3.094,3.094,0,0,0,.9-.287,1.087,1.087,0,0,0,.468-.438A1.19,1.19,0,0,0,28.89,4.528ZM25.856-3.26a1.921,1.921,0,0,0,1.471-.493,1.8,1.8,0,0,0,.455-1.273,1.723,1.723,0,0,0-.455-1.267,2,2,0,0,0-1.471-.461,2,2,0,0,0-1.471.461,1.723,1.723,0,0,0-.455,1.267,2.114,2.114,0,0,0,.112.7,1.455,1.455,0,0,0,.35.557,1.645,1.645,0,0,0,.6.371A2.492,2.492,0,0,0,25.856-3.26ZM40.687-9.4a7.244,7.244,0,0,1,2.487.409,5.432,5.432,0,0,1,1.94,1.19A5.415,5.415,0,0,1,46.38-5.889a6.829,6.829,0,0,1,.455,2.565,5.431,5.431,0,0,1-.04.729,1.13,1.13,0,0,1-.145.448.549.549,0,0,1-.284.23,1.367,1.367,0,0,1-.455.064H38.021A3.687,3.687,0,0,0,39.064.559a3.16,3.16,0,0,0,2.177.748,4.01,4.01,0,0,0,1.227-.166A6.3,6.3,0,0,0,43.385.77q.4-.2.739-.371A1.573,1.573,0,0,1,44.83.233a.855.855,0,0,1,.739.345L46.756,2A6.032,6.032,0,0,1,45.39,3.144a7.2,7.2,0,0,1-1.5.691,8.37,8.37,0,0,1-1.544.345,11.942,11.942,0,0,1-1.471.1,7.9,7.9,0,0,1-2.7-.454,6.23,6.23,0,0,1-2.2-1.35A6.354,6.354,0,0,1,34.478.246a8.093,8.093,0,0,1-.548-3.1,6.818,6.818,0,0,1,.468-2.52,6.183,6.183,0,0,1,1.346-2.085,6.416,6.416,0,0,1,2.124-1.42A7.2,7.2,0,0,1,40.687-9.4Zm.079,2.738a2.509,2.509,0,0,0-1.834.646,3.323,3.323,0,0,0-.871,1.862h5.106a3.4,3.4,0,0,0-.125-.921,2.207,2.207,0,0,0-.409-.8,2.072,2.072,0,0,0-.746-.569A2.618,2.618,0,0,0,40.766-6.663ZM49.184,4.071V-9.2h2.533a1.156,1.156,0,0,1,.64.166.889.889,0,0,1,.363.5l.238.768a9.872,9.872,0,0,1,.818-.665,4.826,4.826,0,0,1,.9-.518,5.483,5.483,0,0,1,1.042-.333A5.762,5.762,0,0,1,56.943-9.4a4.92,4.92,0,0,1,1.986.377,4.114,4.114,0,0,1,1.458,1.049,4.489,4.489,0,0,1,.9,1.6,6.446,6.446,0,0,1,.3,2.015V4.071H57.5V-4.36a2.272,2.272,0,0,0-.462-1.516,1.684,1.684,0,0,0-1.359-.544,2.92,2.92,0,0,0-1.267.281,4.935,4.935,0,0,0-1.135.755V4.071ZM74.36-6.049A2.23,2.23,0,0,1,74-5.7a.8.8,0,0,1-.488.128,1.076,1.076,0,0,1-.548-.141L72.42-6.03a4.217,4.217,0,0,0-.713-.313,3.156,3.156,0,0,0-1.016-.141,2.922,2.922,0,0,0-1.3.269,2.386,2.386,0,0,0-.9.768,3.452,3.452,0,0,0-.528,1.222,7.086,7.086,0,0,0-.172,1.631,4.856,4.856,0,0,0,.759,2.93,2.46,2.46,0,0,0,2.091,1.024,3.006,3.006,0,0,0,1.128-.173A3.45,3.45,0,0,0,72.473.8l.534-.39a1.01,1.01,0,0,1,.614-.179.855.855,0,0,1,.739.345L75.547,2a6.4,6.4,0,0,1-1.333,1.145,6.771,6.771,0,0,1-1.432.691,7.582,7.582,0,0,1-1.471.345,11.166,11.166,0,0,1-1.438.1,6.34,6.34,0,0,1-2.395-.461,5.876,5.876,0,0,1-2.006-1.337A6.376,6.376,0,0,1,64.1.323a7.856,7.856,0,0,1-.508-2.917,7.968,7.968,0,0,1,.442-2.68,6.048,6.048,0,0,1,1.306-2.162,6.079,6.079,0,0,1,2.138-1.439A7.7,7.7,0,0,1,70.428-9.4a7.388,7.388,0,0,1,2.824.5,6.787,6.787,0,0,1,2.19,1.459ZM82.91,7.513a1.425,1.425,0,0,1-.449.582,1.5,1.5,0,0,1-.844.186H78.556l2.639-5.374L75.732-9.2h3.615a1.18,1.18,0,0,1,.739.2,1.1,1.1,0,0,1,.369.486L82.7-2.786A12.326,12.326,0,0,1,83.214-1.2q.132-.409.29-.806t.3-.806l2.032-5.693A.977.977,0,0,1,86.255-9a1.214,1.214,0,0,1,.666-.2h3.3Z" transform="translate(140 79)"></path><path id="Path_2" data-name="Path 2" d="M.9-2.355A2.489,2.489,0,0,1,1.1-3.36a2.54,2.54,0,0,1,.555-.81,2.648,2.648,0,0,1,.833-.547,2.674,2.674,0,0,1,1.05-.2,2.635,2.635,0,0,1,1.035.2,2.741,2.741,0,0,1,.84.547,2.483,2.483,0,0,1,.563.81,2.489,2.489,0,0,1,.2,1.005,2.543,2.543,0,0,1-.2,1.012,2.462,2.462,0,0,1-.562.818,2.633,2.633,0,0,1-.84.54A2.724,2.724,0,0,1,3.54.21a2.764,2.764,0,0,1-1.05-.2,2.546,2.546,0,0,1-.833-.54A2.518,2.518,0,0,1,1.1-1.343,2.543,2.543,0,0,1,.9-2.355Z" transform="translate(233.84 79.981)" fill="#006fff"></path></g></svg> 