<svg xmlns="http://www.w3.org/2000/svg" xmlns:xlink="http://www.w3.org/1999/xlink" width="52.301" height="42.496" viewBox="0 0 52.301 42.496">
  <defs>
    <linearGradient id="linear-gradient" x1="0.5" x2="0.5" y2="1" gradientUnits="objectBoundingBox">
      <stop offset="0" stop-color="#1e1e1e"/>
      <stop offset="1" stop-color="#535353"/>
    </linearGradient>
  </defs>
  <path id="Significon-Mail" d="M8.371,98.115a1.634,1.634,0,0,1,0-2.31l4.623-4.623a1.634,1.634,0,0,1,2.311,2.31l-4.623,4.623a1.634,1.634,0,0,1-2.311,0Zm33.249,0L37,93.492a1.634,1.634,0,1,1,2.311-2.31L43.931,95.8a1.634,1.634,0,0,1-2.311,2.31Zm8.8-24.6L30.773,91.531a6.538,6.538,0,0,1-9.246,0L10,80l-.737-.737L6.115,76.118l-.012,0a1.626,1.626,0,0,0-1.2-.69,1.634,1.634,0,0,0-1.635,1.634V99.948a3.268,3.268,0,0,0,3.269,3.269H45.763a3.268,3.268,0,0,0,3.269-3.269V80.336a1.635,1.635,0,0,1,3.27,0V99.948a6.539,6.539,0,0,1-6.538,6.539H6.538A6.539,6.539,0,0,1,0,99.948V77.066a4.9,4.9,0,0,1,4.9-4.9,4.748,4.748,0,0,1,3.269,1.414v-.028L23.84,89.218a3.265,3.265,0,0,0,4.622,0L48.107,71.205a3.218,3.218,0,0,0,.943-2.31h-.019c0-1.806-1.463-1.634-3.269-1.634H11.441a1.635,1.635,0,0,1,0-3.27H45.763c3,0,5.521.9,6.29,3.27h0a6.489,6.489,0,0,1-1.633,6.257ZM4.9,67.261a1.635,1.635,0,1,1,1.634-1.635A1.635,1.635,0,0,1,4.9,67.261Z" transform="translate(0 -63.991)" fill-rule="evenodd" fill="url(#linear-gradient)"/>
</svg>
