<svg xmlns="http://www.w3.org/2000/svg" xmlns:xlink="http://www.w3.org/1999/xlink" width="39.447" height="52.626" viewBox="0 0 39.447 52.626">
  <defs>
    <linearGradient id="linear-gradient" x1="0.5" x2="0.5" y2="1" gradientUnits="objectBoundingBox">
      <stop offset="0" stop-color="#1e1e1e"/>
      <stop offset="1" stop-color="#535353"/>
    </linearGradient>
  </defs>
  <path id="Significon-Place" d="M83.789,23.041a1.644,1.644,0,1,1,0,3.288,6.577,6.577,0,1,1,6.576-6.577,1.644,1.644,0,0,1-3.288,0,3.288,3.288,0,1,0-3.288,3.288Zm16.09,8.089q-5.4,8.538-10.695,17.13-5.384,8.734-10.763,0Q73.262,39.887,68,31.57a19.7,19.7,0,0,1-3.936-11.784c0-.013,0-.021,0-.034a1.644,1.644,0,0,1,3.288,0h.021a16.455,16.455,0,0,0,1.391,6.638c.038.087.078.171.118.259a16.445,16.445,0,0,0,1.512,2.6q4.415,7,8.753,14.049c1.548,2.518,3.1,6.045,4.644,6.043s3.1-3.526,4.643-6.043q4.329-7.039,8.741-14.03a16.425,16.425,0,0,0,1.553-2.681c.025-.057.053-.112.078-.167a16.434,16.434,0,0,0-26.64-18.3l-.006-.006A1.644,1.644,0,0,1,69.832,5.8l-.012-.013A19.729,19.729,0,0,1,99.879,31.13ZM66.525,15.643A1.645,1.645,0,1,1,68.17,14a1.644,1.644,0,0,1-1.645,1.646Z" transform="translate(-64.06 -0.001)" fill-rule="evenodd" fill="url(#linear-gradient)"/>
</svg>
