<svg xmlns="http://www.w3.org/2000/svg" xmlns:xlink="http://www.w3.org/1999/xlink" width="52.581" height="52.581" viewBox="0 0 52.581 52.581">
  <defs>
    <linearGradient id="linear-gradient" x1="0.5" x2="0.5" y2="1" gradientUnits="objectBoundingBox">
      <stop offset="0" stop-color="#1e1e1e"/>
      <stop offset="1" stop-color="#535353"/>
    </linearGradient>
  </defs>
  <path id="Significon-Phone" d="M15.738,30.866a1.646,1.646,0,1,1,2.329,0,1.646,1.646,0,0,1-2.329,0ZM50.656,14.572,46,19.227a6.681,6.681,0,0,1-.884.723c-.125.086-.254.169-.383.245a5.859,5.859,0,0,1-.526.276,6.84,6.84,0,0,1-1.314.479,6.556,6.556,0,0,1-6.2-1.723,4.981,4.981,0,0,0-.624-.352,6.578,6.578,0,0,0-8.1.934l-6.4,6.4,0,0v0a1.645,1.645,0,1,1-2.326-2.328l6.4-6.4A9.87,9.87,0,0,1,39.1,17.026h0a3.332,3.332,0,0,0,4.575-.127l4.656-4.655a3.293,3.293,0,0,0,0-4.657L46,5.26a.991.991,0,0,0-.306-.207C40.464.844,28.42,5.381,16.9,16.9,5.425,28.377.882,40.374,5.011,45.636A1.228,1.228,0,0,0,5.263,46l.2.2,0,0,2.124,2.123a3.289,3.289,0,0,0,4.654,0L16.9,43.671A3.289,3.289,0,0,0,17,39.13l.027-.035c-.039-.033-.087-.044-.124-.081a1.646,1.646,0,1,1,2.329-2.327,6.557,6.557,0,0,1,1.722,6.2,6.735,6.735,0,0,1-.481,1.319c-.083.173-.171.347-.27.515-.079.135-.162.269-.253.4a6.539,6.539,0,0,1-.718.877l-4.657,4.655a6.586,6.586,0,0,1-9.311,0l-2.91-2.91c-5.785-5.784-.58-20.37,12.222-33.171S41.96-3.435,47.746,2.35l2.91,2.91a6.586,6.586,0,0,1,0,9.312Z" transform="translate(-0.003)" fill-rule="evenodd" fill="url(#linear-gradient)"/>
</svg>
