<?xml version="1.0" encoding="UTF-8"?> <svg xmlns="http://www.w3.org/2000/svg" width="46.468" height="41.662" viewBox="0 0 46.468 41.662"><g id="heart" transform="translate(0)"><path id="Path_7082" data-name="Path 7082" d="M52.689,23.627c-1.323-6.656-6.055-10.947-12.15-10.947-3.408,0-7.1,1.4-10.706,4.05C26.184,14,22.495,12.6,19.047,12.6,12.952,12.6,8.18,16.931,6.9,23.667c-1.925,9.985,4.25,23.257,22.335,30.475a1.564,1.564,0,0,0,1.2,0C48.479,46.764,54.614,33.531,52.689,23.627ZM29.833,50.854C13.954,44.278,8.461,32.81,10.1,24.269c.962-5.093,4.491-8.421,8.942-8.421,3.007,0,6.376,1.444,9.744,4.21a1.629,1.629,0,0,0,2.045,0c3.368-2.687,6.7-4.09,9.7-4.09,4.451,0,7.939,3.248,8.942,8.3,1.644,8.461-3.809,19.889-19.648,26.585Z" transform="translate(-6.56 -12.6)" fill="#fff"></path></g></svg> 