<?xml version="1.0" encoding="UTF-8"?> <svg xmlns="http://www.w3.org/2000/svg" width="41.565" height="41.565" viewBox="0 0 41.565 41.565"><g id="reliability" transform="translate(0 0.001)"><path id="Path_7072" data-name="Path 7072" d="M40.872,24.938H36.829l-3.746-1.247-1.216-3.043V18.357a3.11,3.11,0,0,0-2.776-3.083c0-.1,0-.19,0-.285V4.849a.693.693,0,0,0-.494-.664L14.747.029a.693.693,0,0,0-.4,0L.494,4.185A.693.693,0,0,0,0,4.849V14.99c0,.321.022.639.033.958.018.468.044.933.085,1.395.007.079.017.153.024.231a25.588,25.588,0,0,0,14.1,20.458.693.693,0,0,0,.619,0,25.925,25.925,0,0,0,2.994-1.764,2.792,2.792,0,0,0,.808.746,2.771,2.771,0,0,0,2.123,4.551H32.559a.694.694,0,0,0,.385-.116l3.98-2.655h3.949a.693.693,0,0,0,.693-.693V25.631a.693.693,0,0,0-.693-.693Zm-14.993-3.4.808,2.018H22.662a17.962,17.962,0,0,0,2.272-8.628l2.776-.832v.9c0,.148,0,.3-.007.444a3.112,3.112,0,0,0-2.071,2.923v1.891a3.458,3.458,0,0,0,.247,1.287Zm-9.946,4.789a2.758,2.758,0,0,0,.762,1.9c-.257.187-.509.381-.775.554l-1.373.878-1.37-.88a16.563,16.563,0,0,1-6.644-8.33l17-5.1a16.574,16.574,0,0,1-2.487,8.207H18.7a2.771,2.771,0,0,0-2.771,2.771ZM1.762,19.214c-.005-.035-.012-.069-.017-.1L4.5,18.288c.082.416.181.831.292,1.237L2,20.364c-.091-.4-.167-.777-.235-1.149Zm-.319-2.783,2.74-.822c.019.434.051.866.1,1.294l-2.734.82c-.007-.062-.012-.124-.019-.186-.035-.357-.067-.72-.088-1.105Zm22.111-8.08-18.012,5.4V8.8l9.029-3.225,8.982,2.566Zm0,1.446v1.325L5.636,16.5q-.065-.645-.082-1.3Zm4.157,1.524v1.324l-2.771.831V12.153Zm0-1.447-2.771.831V9.382l2.771-.831ZM5.83,17.885,17.1,14.5l6.451-1.936v1.325L6.116,19.125c-.11-.409-.207-.821-.285-1.239ZM1.386,5.364,14.548,1.415,27.71,5.364V7.1l-2.771.831V7.62a.692.692,0,0,0-.5-.666l-9.7-2.771a.685.685,0,0,0-.423.013L4.617,7.66a.693.693,0,0,0-.46.652V14.17L1.386,15ZM14.548,36.631A24.219,24.219,0,0,1,2.318,21.71L5.2,20.844a17.937,17.937,0,0,0,7.223,9.1l1.745,1.122a.693.693,0,0,0,.75,0l1.745-1.122.018-.012a2.739,2.739,0,0,0,1.284,2.925,2.674,2.674,0,0,0-.631,2.07,24.383,24.383,0,0,1-2.79,1.705Zm17.8,3.548H20.783a1.38,1.38,0,0,1-.115-2.756.707.707,0,0,0,.634-.734.693.693,0,0,0-.693-.666H20.09a1.386,1.386,0,0,1,0-2.771.693.693,0,1,0,0-1.386H19.4a1.386,1.386,0,1,1,0-2.771.693.693,0,0,0,0-1.386H18.7a1.386,1.386,0,0,1,0-2.771H27.71a.693.693,0,0,0,.644-.951L27.166,21.02a2.063,2.063,0,0,1-.149-.773V18.357a1.732,1.732,0,1,1,3.464,0v2.425a.708.708,0,0,0,.049.258L31.916,24.5a.7.7,0,0,0,.425.4l3.683,1.228v11.6Zm7.828-2.771H37.409V26.324H40.18Zm0,0" fill="#fff"></path><path id="Path_7073" data-name="Path 7073" d="M410.971,102.719l-.947,1.012a10.356,10.356,0,0,1,.89.945l1.065-.886A11.779,11.779,0,0,0,410.971,102.719Zm0,0" transform="translate(-374.518 -93.825)" fill="#fff"></path><path id="Path_7074" data-name="Path 7074" d="M449.129,193.479q0-.407-.028-.807l-1.382.094q.024.353.024.713,0,.294-.017.585l1.386.079Q449.129,193.813,449.129,193.479Zm0,0" transform="translate(-408.949 -175.988)" fill="#fff"></path><path id="Path_7075" data-name="Path 7075" d="M387.727,83.583a11.765,11.765,0,0,0-1.242-.79l-.668,1.213a10.446,10.446,0,0,1,1.1.693Zm0,0" transform="translate(-352.407 -75.624)" fill="#fff"></path><path id="Path_7076" data-name="Path 7076" d="M444.124,223.9l-1.364-.248a10.242,10.242,0,0,1-.312,1.259l1.32.416A11.676,11.676,0,0,0,444.124,223.9Zm0,0" transform="translate(-404.136 -204.283)" fill="#fff"></path><path id="Path_7077" data-name="Path 7077" d="M359.738,70.729a11.62,11.62,0,0,0-1.4-.456l-.346,1.342a10.409,10.409,0,0,1,1.235.4Zm0,0" transform="translate(-326.992 -64.189)" fill="#fff"></path><path id="Path_7078" data-name="Path 7078" d="M433,252.857l1.212.672c.139-.254.277-.514.4-.781l-1.258-.579Q433.19,252.519,433,252.857Zm0,0" transform="translate(-395.505 -230.332)" fill="#fff"></path><path id="Path_7079" data-name="Path 7079" d="M429.16,129.532a10.536,10.536,0,0,1,.629,1.133l1.251-.594a11.7,11.7,0,0,0-.713-1.286Zm0,0" transform="translate(-391.997 -117.634)" fill="#fff"></path><path id="Path_7080" data-name="Path 7080" d="M442,159.817a10.421,10.421,0,0,1,.327,1.255l1.36-.264a11.621,11.621,0,0,0-.371-1.424Zm0,0" transform="translate(-403.725 -145.582)" fill="#fff"></path><path id="Path_7081" data-name="Path 7081" d="M357.272,137.964a4.4,4.4,0,0,1,2.781,4.106h1.385a5.78,5.78,0,0,0-3.652-5.393l-.247-.1-.516,1.286Zm0,0" transform="translate(-326.108 -124.752)" fill="#fff"></path></g></svg> 