<?xml version="1.0" encoding="UTF-8"?> <svg xmlns="http://www.w3.org/2000/svg" width="41.564" height="41.564" viewBox="0 0 41.564 41.564"><g id="responsibility" transform="translate(-1 -1)"><path id="Path_7061" data-name="Path 7061" d="M37.123,31H15.67a.67.67,0,0,0-.67.67v1.341a2.014,2.014,0,0,0,2.011,2.011H21.7V48.554a2.008,2.008,0,0,0-1.341,1.888v1.341a.67.67,0,0,0,.67.67h4.022a.67.67,0,0,0,.67-.67V43.067h1.341v8.715a.67.67,0,0,0,.67.67H31.76a.67.67,0,0,0,.67-.67V50.441a2.008,2.008,0,0,0-1.341-1.888V35.022h4.693a2.014,2.014,0,0,0,2.011-2.011V31.67A.67.67,0,0,0,37.123,31ZM24.386,51.112H21.7v-.67a.671.671,0,0,1,.67-.67h2.011Zm.67-9.386a.67.67,0,0,0-.67.67V48.43H23.045V40.386h6.7V48.43H28.408V42.4a.67.67,0,0,0-.67-.67Zm6.034,9.386H28.408V49.771h2.011a.671.671,0,0,1,.67.67Zm5.363-18.1a.671.671,0,0,1-.67.67H30.419a.67.67,0,0,0-.67.67v4.693h-6.7V34.352a.67.67,0,0,0-.67-.67H17.011a.671.671,0,0,1-.67-.67v-.67H36.453Z" transform="translate(-4.614 -9.888)" fill="#fff"></path><path id="Path_7062" data-name="Path 7062" d="M33.363,25.022V23.682a2.682,2.682,0,0,0-5.363,0v1.341a2.682,2.682,0,0,0,5.363,0Zm-1.341,0a1.341,1.341,0,0,1-2.682,0V23.682a1.341,1.341,0,0,1,2.682,0Z" transform="translate(-8.899 -6.592)" fill="#fff"></path><path id="Path_7063" data-name="Path 7063" d="M31,8h1.341v3.352H31Z" transform="translate(-9.888 -2.307)" fill="#fff"></path><path id="Path_7064" data-name="Path 7064" d="M31,15h1.341v1.341H31Z" transform="translate(-9.888 -4.614)" fill="#fff"></path><path id="Path_7065" data-name="Path 7065" d="M34.726,9.045a5.369,5.369,0,0,0-3.65-5.078l-1.1-2.56a.67.67,0,0,0-1.232,0l-1.1,2.561a5.361,5.361,0,1,0,7.077,5.078Zm-5.363,4.022a4.02,4.02,0,0,1-1.046-7.9.669.669,0,0,0,.442-.383l.6-1.41.6,1.409a.67.67,0,0,0,.442.383,4.02,4.02,0,0,1-1.046,7.9Z" transform="translate(-7.581)" fill="#fff"></path><path id="Path_7066" data-name="Path 7066" d="M56,14.747l-2.561-1.1a5.363,5.363,0,1,0,0,3.428L56,15.979a.67.67,0,0,0,0-1.232Zm-3.376,1.22a.671.671,0,0,0-.383.442,4.021,4.021,0,1,1,0-2.092.671.671,0,0,0,.383.442l1.409.6Z" transform="translate(-13.843 -2.966)" fill="#fff"></path><path id="Path_7067" data-name="Path 7067" d="M50,13h1.341v3.352H50Z" transform="translate(-16.151 -3.955)" fill="#fff"></path><path id="Path_7068" data-name="Path 7068" d="M50,20h1.341v1.341H50Z" transform="translate(-16.151 -6.263)" fill="#fff"></path><path id="Path_7069" data-name="Path 7069" d="M14.408,15.363A5.361,5.361,0,0,0,3.967,13.649l-2.561,1.1a.67.67,0,0,0,0,1.232l2.561,1.1a5.361,5.361,0,0,0,10.441-1.714ZM9.045,19.386a4.025,4.025,0,0,1-3.88-2.976.671.671,0,0,0-.383-.442l-1.409-.6,1.41-.6a.671.671,0,0,0,.383-.442,4.02,4.02,0,1,1,3.879,5.068Z" transform="translate(0 -2.966)" fill="#fff"></path><path id="Path_7070" data-name="Path 7070" d="M12,13h1.341v3.352H12Z" transform="translate(-3.626 -3.955)" fill="#fff"></path><path id="Path_7071" data-name="Path 7071" d="M12,20h1.341v1.341H12Z" transform="translate(-3.626 -6.263)" fill="#fff"></path></g></svg> 