<?xml version="1.0" encoding="UTF-8"?> <svg xmlns="http://www.w3.org/2000/svg" width="44.523" height="41.603" viewBox="0 0 44.523 41.603"><g id="value_1_" data-name="value (1)" transform="translate(0 -16.793)"><g id="Group_264" data-name="Group 264" transform="translate(4.697 29.415)"><g id="Group_263" data-name="Group 263"><path id="Path_7054" data-name="Path 7054" d="M88.818,170.348l-4.844-7.48a2.021,2.021,0,0,0-1.7-.926H60.9a2.021,2.021,0,0,0-1.7.924l-4.859,7.481a2.033,2.033,0,0,0,.187,2.454l15.536,17.442a2.03,2.03,0,0,0,1.515.679h0a2.031,2.031,0,0,0,1.515-.679L88.63,172.8A2.033,2.033,0,0,0,88.818,170.348Zm-7.528-6.667-4.074,6.3-4.076-6.3Zm-5.672,7.031H67.536l4.041-6.245Zm-5.6-7.031-4.065,6.282-4.063-6.282Zm-9.736.716,4.084,6.314H56.177Zm-3.734,8.054H65.3l4.628,15.021Zm15.034,14.482-4.462-14.482h8.924Zm1.654.539,4.628-15.021h8.753Zm5.584-16.761L82.9,164.4l4.086,6.31Z" transform="translate(-54.014 -161.942)" fill="#fff"></path></g></g><g id="Group_266" data-name="Group 266" transform="translate(0 38.185)"><g id="Group_265" data-name="Group 265"><path id="Path_7055" data-name="Path 7055" d="M2.638,262.793H.87a.87.87,0,1,0,0,1.739H2.638a.87.87,0,1,0,0-1.739Z" transform="translate(0 -262.793)" fill="#fff"></path></g></g><g id="Group_268" data-name="Group 268" transform="translate(41.016 38.185)"><g id="Group_267" data-name="Group 267"><path id="Path_7056" data-name="Path 7056" d="M474.3,262.793h-1.768a.87.87,0,1,0,0,1.739H474.3a.87.87,0,1,0,0-1.739Z" transform="translate(-471.667 -262.793)" fill="#fff"></path></g></g><g id="Group_270" data-name="Group 270" transform="translate(33.641 23.063)"><g id="Group_269" data-name="Group 269"><path id="Path_7057" data-name="Path 7057" d="M391.23,89.152a.87.87,0,0,0-1.23,0l-2.888,2.889a.87.87,0,0,0,1.23,1.23l2.888-2.889A.87.87,0,0,0,391.23,89.152Z" transform="translate(-386.857 -88.897)" fill="#fff"></path></g></g><g id="Group_272" data-name="Group 272" transform="translate(6.292 23.048)"><g id="Group_271" data-name="Group 271"><path id="Path_7058" data-name="Path 7058" d="M76.731,91.862l-2.888-2.889a.87.87,0,0,0-1.23,1.23L75.5,93.091a.87.87,0,0,0,1.23-1.23Z" transform="translate(-72.358 -88.718)" fill="#fff"></path></g></g><g id="Group_274" data-name="Group 274" transform="translate(21.414 16.793)"><g id="Group_273" data-name="Group 273"><path id="Path_7059" data-name="Path 7059" d="M247.124,16.793a.87.87,0,0,0-.87.87V23.33a.87.87,0,1,0,1.739,0V17.663A.87.87,0,0,0,247.124,16.793Z" transform="translate(-246.254 -16.793)" fill="#fff"></path></g></g><g id="Group_276" data-name="Group 276" transform="translate(21.414 25.402)"><g id="Group_275" data-name="Group 275"><path id="Path_7060" data-name="Path 7060" d="M247.734,116.045a.869.869,0,1,0,.255.615A.876.876,0,0,0,247.734,116.045Z" transform="translate(-246.25 -115.79)" fill="#fff"></path></g></g></g></svg> 