<svg xmlns="http://www.w3.org/2000/svg" width="63.044" height="18.979" viewBox="0 0 63.044 18.979"><g transform="translate(-163.5 -263.1)"><path d="M233.875,320.6a23.951,23.951,0,0,1-13.538,4.137,24.546,24.546,0,0,1-16.546-6.3c-.332-.31-.044-.73.376-.487a32.865,32.865,0,0,0,29.177,1.792C233.964,319.493,234.472,320.156,233.875,320.6Z" transform="translate(-31.266 -42.656)" fill="#f90" fill-rule="evenodd"/><path d="M331.1,316.545c-.465-.6-3.1-.288-4.269-.133-.354.044-.42-.265-.089-.487,2.1-1.482,5.53-1.04,5.928-.553s-.111,3.938-2.079,5.574c-.31.243-.6.111-.465-.221C330.566,319.619,331.561,317.164,331.1,316.545Z" transform="translate(-126.961 -40.349)" fill="#f90" fill-rule="evenodd"/><path d="M199.933,265.179v-1.438a.337.337,0,0,1,.354-.354H206.7a.369.369,0,0,1,.376.354v1.217c0,.2-.177.465-.487.907l-3.318,4.734a7.206,7.206,0,0,1,3.65.774.659.659,0,0,1,.332.553v1.526c0,.221-.221.465-.465.332a7.318,7.318,0,0,0-6.769.022.347.347,0,0,1-.465-.332v-1.46a1.653,1.653,0,0,1,.243-.973l3.849-5.508h-3.34a.369.369,0,0,1-.376-.354Zm-23.382,8.915H174.6a.4.4,0,0,1-.354-.332v-10a.369.369,0,0,1,.376-.354h1.814a.361.361,0,0,1,.354.332v1.305h.044a2.67,2.67,0,0,1,5.088,0,2.772,2.772,0,0,1,2.7-1.858,2.742,2.742,0,0,1,2.256,1.106c.619.841.487,2.057.487,3.141v6.327a.369.369,0,0,1-.376.354h-1.924a.38.38,0,0,1-.354-.354v-5.309a13.267,13.267,0,0,0-.044-1.88,1.026,1.026,0,0,0-1.15-.863,1.3,1.3,0,0,0-1.172.818,6.13,6.13,0,0,0-.177,1.924v5.309a.369.369,0,0,1-.376.354h-1.947a.38.38,0,0,1-.354-.354v-5.309c0-1.106.177-2.765-1.195-2.765-1.394,0-1.349,1.593-1.349,2.765v5.309a.389.389,0,0,1-.4.332Zm36.057-10.906c2.9,0,4.468,2.478,4.468,5.641,0,3.053-1.725,5.486-4.468,5.486-2.831,0-4.38-2.478-4.38-5.574C208.206,265.622,209.777,263.188,212.608,263.188Zm0,2.057c-1.438,0-1.526,1.969-1.526,3.185s-.022,3.827,1.5,3.827c1.5,0,1.593-2.1,1.593-3.384a9.679,9.679,0,0,0-.288-2.654,1.223,1.223,0,0,0-1.283-.973Zm8.207,8.848h-1.947a.38.38,0,0,1-.354-.354V263.719a.382.382,0,0,1,.376-.332H220.7a.378.378,0,0,1,.354.288V265.2h.044a2.642,2.642,0,0,1,2.654-2.013,2.576,2.576,0,0,1,2.278,1.172,6.37,6.37,0,0,1,.509,3.119v6.3a.364.364,0,0,1-.376.31h-1.947a.4.4,0,0,1-.354-.31v-5.442c0-1.106.133-2.7-1.217-2.7a1.281,1.281,0,0,0-1.128.8,4.592,4.592,0,0,0-.31,1.9v5.4a.405.405,0,0,1-.4.354Zm-25.992-4.778a3.955,3.955,0,0,1-.354,2.079,1.565,1.565,0,0,1-1.349.885c-.752,0-1.195-.575-1.195-1.416,0-1.659,1.482-1.969,2.9-1.969Zm1.969,4.756a.4.4,0,0,1-.465.044,4.884,4.884,0,0,1-1.128-1.305,3.875,3.875,0,0,1-3.208,1.416,2.77,2.77,0,0,1-2.92-3.031,3.311,3.311,0,0,1,2.079-3.185,13.81,13.81,0,0,1,3.672-.686v-.243a2.389,2.389,0,0,0-.243-1.416,1.31,1.31,0,0,0-1.084-.509,1.473,1.473,0,0,0-1.571,1.172c-.044.177-.155.354-.332.354l-1.88-.2a.34.34,0,0,1-.288-.4c.442-2.3,2.5-2.986,4.358-2.986a4.378,4.378,0,0,1,2.942.973c.951.885.863,2.079.863,3.362v3.031a2.74,2.74,0,0,0,.73,1.814c.133.177.155.4,0,.509C197.9,273.121,197.19,273.74,196.792,274.072Zm-27.518-4.756a3.955,3.955,0,0,1-.354,2.079,1.565,1.565,0,0,1-1.349.885c-.752,0-1.195-.575-1.195-1.416,0-1.659,1.482-1.969,2.9-1.969Zm1.947,4.756a.4.4,0,0,1-.465.044,4.885,4.885,0,0,1-1.128-1.305,3.875,3.875,0,0,1-3.208,1.416,2.77,2.77,0,0,1-2.92-3.031,3.311,3.311,0,0,1,2.079-3.185,13.81,13.81,0,0,1,3.672-.686v-.243a2.39,2.39,0,0,0-.243-1.416,1.31,1.31,0,0,0-1.084-.509,1.473,1.473,0,0,0-1.571,1.172c-.044.177-.155.354-.332.354l-1.88-.2a.34.34,0,0,1-.288-.4c.442-2.3,2.5-2.986,4.358-2.986a4.378,4.378,0,0,1,2.942.973c.951.885.863,2.079.863,3.362v3.031a2.74,2.74,0,0,0,.73,1.814c.133.177.155.4,0,.509C172.326,273.121,171.618,273.74,171.22,274.072Z" fill="#fff" fill-rule="evenodd"/></g></svg>