<svg xmlns="http://www.w3.org/2000/svg" width="63.827" height="70.853" viewBox="0 0 63.827 70.853"><g transform="translate(0)"><path d="M84.613,709.52a.424.424,0,0,0-.424.424v.868a.424.424,0,0,0,.424.424h19.371V709.52Z" transform="translate(-84.189 -644.506)" fill="#ffefef"></path><path d="M222.074,709.52H202.7v1.716h19.371a.424.424,0,0,0,.424-.424v-.868A.424.424,0,0,0,222.074,709.52Z" transform="translate(-158.67 -644.506)" fill="#ffefef"></path><path d="M225.925,572.17H209.266l-.435,1.716h17.094a.424.424,0,0,0,.424-.424v-.868A.424.424,0,0,0,225.925,572.17Z" transform="translate(-162.521 -558.207)" fill="#ffefef"></path><path d="M84.613,572.17a.424.424,0,0,0-.424.424v.868a.424.424,0,0,0,.424.424h17.094l-.435-1.716Z" transform="translate(-84.189 -558.207)" fill="#ffefef"></path><path d="M159.61,541.312l.454-2.125-4.739,3.767-1.254,1-.937-3.246-.316-1.1-2.435,3.036-.467.582-4.344-8.624-4.344,8.624-.467-.582-2.435-3.036-.316,1.1-.937,3.246-1.254-1-4.739-3.767.454,2.125,1.916,8.972h24.242Z" transform="translate(-113.659 -534.604)" fill="#ffefef"></path><g transform="translate(21.511 65.596)"><text transform="translate(6 3)" fill="#ffefef" font-size="3" font-family="BebasNeue-Regular, Bebas Neue"><tspan x="-5.878" y="0">guaranteed</tspan></text><g transform="translate(0.169 1.431)"><path d="M142.765,718.519a.986.986,0,0,1-.223-.693V715.87a.987.987,0,0,1,.223-.694.99.99,0,0,1,1.3,0,.987.987,0,0,1,.223.694v.319h-.552v-.356q0-.367-.3-.367t-.3.367v2.035q0,.362.3.361t.3-.361v-.728h-.292v-.532h.845v1.217a.986.986,0,0,1-.223.693.989.989,0,0,1-1.3,0Z" transform="translate(-142.542 -714.935)" fill="#ffefef"></path><path d="M148.413,718.608a.985.985,0,0,1-.223-.693v-2.838h.584v2.881a.406.406,0,0,0,.077.276.328.328,0,0,0,.441,0,.406.406,0,0,0,.077-.276v-2.881h.563v2.838a.985.985,0,0,1-.223.693.989.989,0,0,1-1.3,0Z" transform="translate(-146.092 -715.024)" fill="#ffefef"></path><path d="M154.157,715.077h.792l.605,3.72h-.584l-.106-.739v.01H154.2l-.106.728h-.542Zm.638,2.487-.26-1.839h-.01l-.255,1.839Z" transform="translate(-149.461 -715.024)" fill="#ffefef"></path><path d="M159.7,715.077h.866a.748.748,0,0,1,.866.856v.228q0,.579-.382.734v.01a.457.457,0,0,1,.3.26,1.316,1.316,0,0,1,.088.526v.654a2.508,2.508,0,0,0,.01.258.651.651,0,0,0,.053.194h-.595a.858.858,0,0,1-.042-.17,2.544,2.544,0,0,1-.011-.287v-.68a.579.579,0,0,0-.082-.356.35.35,0,0,0-.285-.1h-.2V718.8H159.7Zm.8,1.595a.35.35,0,0,0,.263-.09.428.428,0,0,0,.088-.3v-.287a.473.473,0,0,0-.072-.292.272.272,0,0,0-.226-.09h-.266v1.063Z" transform="translate(-153.325 -715.024)" fill="#ffefef"></path><path d="M165.652,715.077h.792l.606,3.72h-.584l-.106-.739v.01h-.664l-.106.728h-.542Zm.638,2.487-.26-1.839h-.01l-.255,1.839Z" transform="translate(-156.685 -715.024)" fill="#ffefef"></path><path d="M171.194,715.077h.733l.568,2.227h.011v-2.227h.521v3.72h-.6l-.7-2.716h-.011V718.8h-.521Z" transform="translate(-160.549 -715.024)" fill="#ffefef"></path><path d="M177.5,715.609h-.611v-.532h1.806v.532h-.611V718.8H177.5Z" transform="translate(-164.125 -715.024)" fill="#ffefef"></path><path d="M182.5,715.077H184.1v.532h-1.009v.983h.8v.532h-.8v1.143H184.1v.531H182.5Z" transform="translate(-167.656 -715.024)" fill="#ffefef"></path><path d="M187.694,715.077h1.594v.532h-1.009v.983h.8v.532h-.8v1.143h1.009v.531h-1.594Z" transform="translate(-170.918 -715.024)" fill="#ffefef"></path><path d="M192.883,715.077h.892a.849.849,0,0,1,.653.234.969.969,0,0,1,.218.685v1.881a.97.97,0,0,1-.218.686.851.851,0,0,1-.653.234h-.892Zm.882,3.189a.284.284,0,0,0,.221-.085.407.407,0,0,0,.077-.276V715.97a.407.407,0,0,0-.077-.276.283.283,0,0,0-.221-.085h-.3v2.657Z" transform="translate(-174.179 -715.024)" fill="#ffefef"></path></g></g><g transform="translate(20.768 60.669)"><text transform="translate(6 3)" fill="#ffefef" font-size="3" font-family="BebasNeue-Regular, Bebas Neue"><tspan x="-6.194" y="0">satisfaction</tspan></text><g transform="translate(0.296 1.43)"><path d="M141.1,705.263a1,1,0,0,1-.218-.693v-.213h.552v.255q0,.362.3.361a.284.284,0,0,0,.226-.087.427.427,0,0,0,.077-.285.786.786,0,0,0-.106-.411,1.96,1.96,0,0,0-.393-.428,2.348,2.348,0,0,1-.5-.576,1.177,1.177,0,0,1-.143-.582.97.97,0,0,1,.223-.683.839.839,0,0,1,.648-.241.806.806,0,0,1,.635.241,1.009,1.009,0,0,1,.215.694v.154h-.552v-.191a.426.426,0,0,0-.075-.279.27.27,0,0,0-.218-.088q-.292,0-.292.356a.7.7,0,0,0,.109.378,2.087,2.087,0,0,0,.4.425,2.187,2.187,0,0,1,.5.579,1.285,1.285,0,0,1,.138.611,1,1,0,0,1-.226.7.848.848,0,0,1-.656.245A.818.818,0,0,1,141.1,705.263Z" transform="translate(-140.884 -701.679)" fill="#ffefef"></path><path d="M146.623,701.821h.791l.606,3.72h-.584l-.106-.739v.01h-.664l-.106.728h-.542Zm.638,2.487L147,702.47h-.01l-.255,1.839Z" transform="translate(-144.11 -701.768)" fill="#ffefef"></path><path d="M151.7,702.353h-.611v-.532H152.9v.532h-.611v3.188H151.7Z" transform="translate(-147.3 -701.768)" fill="#ffefef"></path><path d="M156.712,701.821h.584v3.72h-.584Z" transform="translate(-150.831 -701.768)" fill="#ffefef"></path><path d="M159.4,705.263a1,1,0,0,1-.218-.693v-.213h.553v.255q0,.362.3.361a.284.284,0,0,0,.226-.087.427.427,0,0,0,.077-.285.786.786,0,0,0-.106-.411,1.96,1.96,0,0,0-.393-.428,2.347,2.347,0,0,1-.5-.576,1.172,1.172,0,0,1-.143-.582.972.972,0,0,1,.223-.683.839.839,0,0,1,.648-.241.806.806,0,0,1,.635.241,1.011,1.011,0,0,1,.215.694v.154h-.552v-.191a.428.428,0,0,0-.074-.279.271.271,0,0,0-.218-.088c-.2,0-.292.119-.292.356a.7.7,0,0,0,.109.378,2.088,2.088,0,0,0,.4.425,2.186,2.186,0,0,1,.5.579,1.285,1.285,0,0,1,.138.611,1,1,0,0,1-.226.7.848.848,0,0,1-.656.245A.819.819,0,0,1,159.4,705.263Z" transform="translate(-152.385 -701.679)" fill="#ffefef"></path><path d="M164.775,701.821h1.546v.532h-.962v1.036h.754v.531h-.754v1.621h-.584Z" transform="translate(-155.899 -701.768)" fill="#ffefef"></path><path d="M169.427,701.821h.792l.605,3.72h-.584l-.106-.739v.01h-.664l-.106.728h-.542Zm.638,2.487-.26-1.839h-.01l-.255,1.839Z" transform="translate(-158.441 -701.768)" fill="#ffefef"></path><path d="M175.061,705.266a.959.959,0,0,1-.22-.675v-2a.958.958,0,0,1,.22-.675.977.977,0,0,1,1.28,0,.96.96,0,0,1,.22.675v.393h-.552v-.43q0-.346-.292-.346t-.292.346v2.078q0,.34.292.34t.292-.34v-.568h.552v.526a.961.961,0,0,1-.22.675.977.977,0,0,1-1.28,0Z" transform="translate(-162.225 -701.679)" fill="#ffefef"></path><path d="M180.613,702.353H180v-.532h1.806v.532H181.2v3.188h-.584Z" transform="translate(-165.468 -701.768)" fill="#ffefef"></path><path d="M185.621,701.821h.584v3.72h-.584Z" transform="translate(-168.999 -701.768)" fill="#ffefef"></path><path d="M188.479,705.261a.974.974,0,0,1-.228-.691v-1.956a.975.975,0,0,1,.228-.691,1.01,1.01,0,0,1,1.317,0,.973.973,0,0,1,.229.691v1.956a.973.973,0,0,1-.229.691,1.01,1.01,0,0,1-1.317,0Zm.962-.654v-2.03c0-.244-.1-.367-.3-.367s-.3.123-.3.367v2.03q0,.367.3.367T189.441,704.607Z" transform="translate(-170.652 -701.679)" fill="#ffefef"></path><path d="M194.085,701.821h.733l.568,2.227h.011v-2.227h.521v3.72h-.6l-.7-2.716h-.011v2.716h-.521Z" transform="translate(-174.319 -701.768)" fill="#ffefef"></path></g></g><g transform="translate(0.823 39.968)"><g transform="translate(0 0)"><path d="M87.442,659.22a4.775,4.775,0,0,1-1.038-3.305V654.9h2.633v1.216q0,1.723,1.443,1.722a1.356,1.356,0,0,0,1.076-.418,2.034,2.034,0,0,0,.367-1.355,3.759,3.759,0,0,0-.506-1.963,9.363,9.363,0,0,0-1.874-2.039,11.212,11.212,0,0,1-2.4-2.748,5.6,5.6,0,0,1-.684-2.773,4.626,4.626,0,0,1,1.063-3.255,4,4,0,0,1,3.089-1.152,3.841,3.841,0,0,1,3.026,1.152,4.817,4.817,0,0,1,1.025,3.306v.734H92.025v-.912a2.039,2.039,0,0,0-.354-1.329,1.285,1.285,0,0,0-1.038-.418q-1.393,0-1.393,1.7a3.345,3.345,0,0,0,.519,1.8,9.9,9.9,0,0,0,1.886,2.026,10.434,10.434,0,0,1,2.405,2.76,6.133,6.133,0,0,1,.658,2.913,4.753,4.753,0,0,1-1.076,3.343,4.046,4.046,0,0,1-3.127,1.165A3.913,3.913,0,0,1,87.442,659.22Z" transform="translate(-86.404 -642.136)" fill="#ffefef"></path><path d="M113.048,642.817h7.6v2.533h-4.811v4.686h3.823v2.533h-3.823v5.445h4.811v2.533h-7.6Z" transform="translate(-103.149 -642.564)" fill="#ffefef"></path><path d="M137.663,659.22a4.775,4.775,0,0,1-1.038-3.305V654.9h2.633v1.216q0,1.723,1.443,1.722a1.356,1.356,0,0,0,1.076-.418,2.034,2.034,0,0,0,.367-1.355,3.759,3.759,0,0,0-.506-1.963,9.37,9.37,0,0,0-1.873-2.039,11.214,11.214,0,0,1-2.405-2.748,5.6,5.6,0,0,1-.684-2.773,4.626,4.626,0,0,1,1.063-3.255,4,4,0,0,1,3.089-1.152,3.841,3.841,0,0,1,3.026,1.152,4.817,4.817,0,0,1,1.025,3.306v.734h-2.633v-.912a2.036,2.036,0,0,0-.354-1.329,1.286,1.286,0,0,0-1.038-.418q-1.393,0-1.393,1.7a3.345,3.345,0,0,0,.519,1.8,9.9,9.9,0,0,0,1.886,2.026,10.435,10.435,0,0,1,2.405,2.76,6.133,6.133,0,0,1,.658,2.913,4.753,4.753,0,0,1-1.076,3.343,4.046,4.046,0,0,1-3.127,1.165A3.913,3.913,0,0,1,137.663,659.22Z" transform="translate(-117.966 -642.136)" fill="#ffefef"></path><path d="M163.013,659.22a4.775,4.775,0,0,1-1.038-3.305V654.9h2.633v1.216q0,1.723,1.443,1.722a1.356,1.356,0,0,0,1.076-.418,2.036,2.036,0,0,0,.367-1.355,3.759,3.759,0,0,0-.506-1.963,9.372,9.372,0,0,0-1.874-2.039,11.2,11.2,0,0,1-2.4-2.748,5.6,5.6,0,0,1-.684-2.773,4.624,4.624,0,0,1,1.064-3.255,4,4,0,0,1,3.089-1.152,3.841,3.841,0,0,1,3.026,1.152,4.817,4.817,0,0,1,1.025,3.306v.734H167.6v-.912a2.036,2.036,0,0,0-.355-1.329,1.284,1.284,0,0,0-1.038-.418q-1.393,0-1.393,1.7a3.348,3.348,0,0,0,.519,1.8,9.916,9.916,0,0,0,1.886,2.026,10.434,10.434,0,0,1,2.405,2.76,6.133,6.133,0,0,1,.658,2.913,4.752,4.752,0,0,1-1.076,3.343,4.047,4.047,0,0,1-3.127,1.165A3.912,3.912,0,0,1,163.013,659.22Z" transform="translate(-133.897 -642.136)" fill="#ffefef"></path><path d="M188.619,642.817H191.4v17.73h-2.785Z" transform="translate(-150.642 -642.564)" fill="#ffefef"></path><path d="M202.246,659.207a4.638,4.638,0,0,1-1.089-3.292v-9.321a4.639,4.639,0,0,1,1.089-3.293,4.812,4.812,0,0,1,6.279,0,4.641,4.641,0,0,1,1.089,3.293v9.321a4.64,4.64,0,0,1-1.089,3.292,4.812,4.812,0,0,1-6.279,0Zm4.583-3.115v-9.676q0-1.747-1.443-1.748t-1.443,1.748v9.676q0,1.747,1.443,1.748T206.828,656.092Z" transform="translate(-158.522 -642.136)" fill="#ffefef"></path><path d="M228.959,642.817h3.494l2.709,10.613h.051V642.817h2.481v17.73h-2.861L231.491,647.6h-.051v12.943h-2.482Z" transform="translate(-175.994 -642.564)" fill="#ffefef"></path></g></g><g transform="translate(1.607 21.673)"><g transform="translate(0 0)"><path d="M88.514,592.915H92.1a3.544,3.544,0,0,1,2.721.974,4.047,4.047,0,0,1,.907,2.855v1.527a4.046,4.046,0,0,1-.907,2.855,3.543,3.543,0,0,1-2.721.974H90.947v6.308H88.514Zm3.584,6.972a1.144,1.144,0,0,0,.9-.332,1.682,1.682,0,0,0,.3-1.128v-1.837a1.682,1.682,0,0,0-.3-1.129,1.143,1.143,0,0,0-.9-.332H90.947v4.758Z" transform="translate(-88.514 -592.915)" fill="#ffefef"></path><path d="M111.5,592.915H115.1a3.113,3.113,0,0,1,3.606,3.563v.952q0,2.412-1.593,3.054v.044a1.9,1.9,0,0,1,1.25,1.085,5.463,5.463,0,0,1,.365,2.191v2.722a10.357,10.357,0,0,0,.044,1.074,2.677,2.677,0,0,0,.221.808h-2.478a3.519,3.519,0,0,1-.177-.708,10.574,10.574,0,0,1-.045-1.2v-2.833a2.409,2.409,0,0,0-.343-1.483,1.452,1.452,0,0,0-1.184-.421h-.841v6.64H111.5Zm3.318,6.639a1.461,1.461,0,0,0,1.095-.376,1.779,1.779,0,0,0,.365-1.262v-1.2a1.967,1.967,0,0,0-.3-1.217,1.128,1.128,0,0,0-.94-.376H113.93v4.426Z" transform="translate(-102.958 -592.915)" fill="#ffefef"></path><path d="M135.493,592.915h6.636v2.213h-4.2v4.094h3.341v2.213h-3.341v4.758h4.2v2.213h-6.636Z" transform="translate(-118.038 -592.915)" fill="#ffefef"></path><path d="M157.106,592.915h3.473L162.128,604h.044l1.549-11.088h3.473v15.492h-2.3v-11.73h-.044l-1.77,11.73h-2.035l-1.77-11.73h-.044v11.73h-2.124Z" transform="translate(-131.621 -592.915)" fill="#ffefef"></path><path d="M189.14,592.915h2.434v15.492H189.14Z" transform="translate(-151.753 -592.915)" fill="#ffefef"></path><path d="M201.262,607.621a4.106,4.106,0,0,1-.929-2.888V592.915h2.434v12a1.688,1.688,0,0,0,.321,1.151,1.368,1.368,0,0,0,1.836,0,1.69,1.69,0,0,0,.321-1.151v-12h2.345v11.818a4.1,4.1,0,0,1-.929,2.888,4.119,4.119,0,0,1-5.4,0Z" transform="translate(-158.788 -592.915)" fill="#ffefef"></path><path d="M224.507,592.915h3.473L229.529,604h.045l1.549-11.088H234.6v15.492h-2.3v-11.73h-.044l-1.77,11.73h-2.035l-1.77-11.73h-.044v11.73h-2.124Z" transform="translate(-173.98 -592.915)" fill="#ffefef"></path></g></g></g></svg>