<svg xmlns="http://www.w3.org/2000/svg" width="70.919" height="72.101" viewBox="0 0 70.919 72.101"><path d="M625.063,540.043l-1.639,5.047h-5.3l4.292,3.12-1.639,5.047,4.292-3.119,4.292,3.119-1.639-5.047,4.292-3.12h-5.3Z" transform="translate(-589.878 -540.043)" fill="#ffefef"></path><path d="M596.553,550.416l-1.083,3.335h-3.506l2.836,2.061-1.083,3.335,2.836-2.061,2.836,2.061-1.083-3.335,2.836-2.061h-3.506Z" transform="translate(-574.727 -546.05)" fill="#ffefef"></path><path d="M578.417,571.215l-.777,2.393h-2.516l2.035,1.479-.777,2.393L578.417,576l2.035,1.479-.777-2.393,2.035-1.479h-2.516Z" transform="translate(-564.973 -558.095)" fill="#ffefef"></path><path d="M683.484,573.609l-.777-2.393-.777,2.393h-2.516l2.035,1.479-.777,2.393L682.706,576l2.035,1.479-.777-2.393L686,573.609Z" transform="translate(-625.383 -558.095)" fill="#ffefef"></path><path d="M660.984,550.416l-1.083,3.335H656.4l2.836,2.061-1.083,3.335,2.836-2.061,2.836,2.061-1.083-3.335,2.836-2.061h-3.506Z" transform="translate(-612.05 -546.05)" fill="#ffefef"></path><path d="M565.26,631.315s4.624-2.977,3.861-7.625C569.121,623.69,564.222,626.03,565.26,631.315Z" transform="translate(-559.175 -588.483)" fill="#ffefef"></path><path d="M596.828,678.848s.218,5.426,5.482,6.556C602.31,685.4,601.4,679.979,596.828,678.848Z" transform="translate(-577.545 -620.425)" fill="#ffefef"></path><path d="M660.692,685.4c5.265-1.13,5.482-6.556,5.482-6.556C661.6,679.979,660.692,685.4,660.692,685.4Z" transform="translate(-614.539 -620.425)" fill="#ffefef"></path><path d="M708.437,602.417c3.728-3.887.867-8.5.867-8.5C706.152,597.413,708.437,602.417,708.437,602.417Z" transform="translate(-641.732 -571.24)" fill="#ffefef"></path><path d="M588.814,674.517s1.916-5.156-1.481-8.418C587.333,666.1,584.815,670.91,588.814,674.517Z" transform="translate(-571.591 -613.042)" fill="#ffefef"></path><path d="M642.62,694.173c5.369-.4,6.324-5.747,6.324-5.747C644.262,688.922,642.62,694.173,642.62,694.173Z" transform="translate(-604.07 -625.971)" fill="#ffefef"></path><path d="M578.593,664.948s3-4.612.4-8.538C578.989,656.41,575.479,660.554,578.593,664.948Z" transform="translate(-566.236 -607.431)" fill="#ffefef"></path><path d="M566.37,598.163s5.1-2.069,5.2-6.779C571.574,591.384,566.327,592.776,566.37,598.163Z" transform="translate(-559.901 -569.775)" fill="#ffefef"></path><path d="M565.631,613.895s4.9-2.493,4.612-7.195C570.243,606.7,565.132,608.532,565.631,613.895Z" transform="translate(-559.453 -578.644)" fill="#ffefef"></path><path d="M571.125,647.457s3.349-4.363,1.061-8.481C572.186,638.976,568.364,642.833,571.125,647.457Z" transform="translate(-562.076 -597.335)" fill="#ffefef"></path><path d="M619.223,694.173s-1.641-5.25-6.324-5.747C612.9,688.425,613.854,693.771,619.223,694.173Z" transform="translate(-586.854 -625.971)" fill="#ffefef"></path><path d="M658.48,699.547c3.687,3.926,8.443,1.309,8.443,1.309C663.594,697.525,658.48,699.547,658.48,699.547Z" transform="translate(-613.257 -632.06)" fill="#ffefef"></path><path d="M674.476,692.255c3.986,3.62,8.52.633,8.52.633C679.413,689.832,674.476,692.255,674.476,692.255Z" transform="translate(-622.523 -627.661)" fill="#ffefef"></path><path d="M641.521,705.369c3.687,3.926,8.443,1.309,8.443,1.309C646.635,703.347,641.521,705.369,641.521,705.369Z" transform="translate(-603.434 -635.431)" fill="#ffefef"></path><path d="M696.318,668.117c5.09,1.756,8.08-2.778,8.08-2.778C699.9,663.945,696.318,668.117,696.318,668.117Z" transform="translate(-635.175 -612.437)" fill="#ffefef"></path><path d="M701.809,654.644c5.319.832,7.466-4.156,7.466-4.156C704.6,649.906,701.809,654.644,701.809,654.644Z" transform="translate(-638.356 -603.973)" fill="#ffefef"></path><path d="M684.707,682.041c4.83,2.38,8.365-1.742,8.365-1.742C688.784,678.35,684.707,682.041,684.707,682.041Z" transform="translate(-628.449 -620.936)" fill="#ffefef"></path><path d="M563.108,668.117s-3.583-4.173-8.08-2.778C555.028,665.339,558.018,669.873,563.108,668.117Z" transform="translate(-553.332 -612.437)" fill="#ffefef"></path><path d="M633.058,698.5l-.018,0-.018,0a1.606,1.606,0,0,0,0,3.212l.018,0,.018,0a1.606,1.606,0,0,0,0-3.212Z" transform="translate(-597.58 -631.808)" fill="#ffefef"></path><path d="M574.327,682.041s-4.077-3.69-8.365-1.742C565.962,680.3,569.5,684.421,574.327,682.041Z" transform="translate(-559.665 -620.936)" fill="#ffefef"></path><path d="M713.263,614.2c-3.921,2.608-2.948,8.022-2.948,8.022C714.889,619.379,713.263,614.2,713.263,614.2Z" transform="translate(-643.221 -582.986)" fill="#ffefef"></path><path d="M712.194,633.549c-4.489,1.423-5.049,6.9-5.049,6.9C712.326,638.978,712.194,633.549,712.194,633.549Z" transform="translate(-641.447 -594.192)" fill="#ffefef"></path><path d="M608.961,706.678s4.757,2.617,8.443-1.309C617.4,705.369,612.291,703.347,608.961,706.678Z" transform="translate(-584.573 -635.431)" fill="#ffefef"></path><path d="M575.823,692.888s4.534,2.987,8.521-.633C584.344,692.255,579.407,689.832,575.823,692.888Z" transform="translate(-565.377 -627.661)" fill="#ffefef"></path><path d="M600.445,699.547s-5.113-2.022-8.443,1.309C592,700.856,596.759,703.473,600.445,699.547Z" transform="translate(-574.749 -632.06)" fill="#ffefef"></path><path d="M552.693,614.2s-1.626,5.182,2.949,8.022C555.642,622.219,556.615,616.805,552.693,614.2Z" transform="translate(-551.817 -582.986)" fill="#ffefef"></path><path d="M699.658,631.315c1.038-5.285-3.861-7.625-3.861-7.625C695.034,628.339,699.658,631.315,699.658,631.315Z" transform="translate(-634.825 -588.483)" fill="#ffefef"></path><path d="M556.453,640.444s-.56-5.473-5.05-6.9C551.4,633.549,551.272,638.978,556.453,640.444Z" transform="translate(-551.232 -594.192)" fill="#ffefef"></path><path d="M557.507,593.914s-2.86,4.616.868,8.5C558.374,602.417,560.659,597.413,557.507,593.914Z" transform="translate(-554.16 -571.24)" fill="#ffefef"></path><path d="M558.462,654.644s-2.794-4.738-7.466-4.156C551,650.489,553.143,655.477,558.462,654.644Z" transform="translate(-550.996 -603.973)" fill="#ffefef"></path><path d="M677.879,674.517c4-3.607,1.481-8.418,1.481-8.418C675.962,669.361,677.879,674.517,677.879,674.517Z" transform="translate(-624.182 -613.042)" fill="#ffefef"></path><path d="M695.485,647.457c2.761-4.624-1.061-8.481-1.061-8.481C692.137,643.094,695.485,647.457,695.485,647.457Z" transform="translate(-633.615 -597.335)" fill="#ffefef"></path><path d="M688.177,664.948c3.114-4.395-.4-8.538-.4-8.538C685.179,660.337,688.177,664.948,688.177,664.948Z" transform="translate(-629.615 -607.431)" fill="#ffefef"></path><path d="M693.893,606.7c-.29,4.7,4.612,7.195,4.612,7.195C699,608.532,693.893,606.7,693.893,606.7Z" transform="translate(-633.764 -578.644)" fill="#ffefef"></path><path d="M691.81,591.384c.109,4.709,5.2,6.779,5.2,6.779C697.057,592.776,691.81,591.384,691.81,591.384Z" transform="translate(-632.564 -569.775)" fill="#ffefef"></path><g transform="translate(26.08 54.291)"><g transform="translate(0 0)"><path d="M613.169,672.023a.824.824,0,0,1-.187-.579v-1.633a.821.821,0,0,1,.187-.579.825.825,0,0,1,1.082,0,.822.822,0,0,1,.186.579v.266h-.461v-.3q0-.307-.253-.306t-.252.306v1.7q0,.3.252.3t.253-.3v-.608h-.244v-.443h.7v1.016a.825.825,0,0,1-.186.579.827.827,0,0,1-1.082,0Z" transform="translate(-612.982 -669.03)" fill="#ffefef"></path><path d="M617.333,672.084a.826.826,0,0,1-.187-.579v-2.369h.488v2.4a.338.338,0,0,0,.064.231.275.275,0,0,0,.368,0,.336.336,0,0,0,.064-.231v-2.4h.47v2.369a.825.825,0,0,1-.186.579.827.827,0,0,1-1.082,0Z" transform="translate(-615.394 -669.091)" fill="#ffefef"></path><path d="M621.606,669.136h.661l.505,3.106h-.488l-.089-.617v.009h-.554l-.089.608H621.1Zm.532,2.076-.217-1.535h-.009l-.213,1.535Z" transform="translate(-617.685 -669.091)" fill="#ffefef"></path><path d="M625.633,669.136h.723a.624.624,0,0,1,.723.714v.191q0,.483-.319.612v.009a.38.38,0,0,1,.25.217,1.1,1.1,0,0,1,.074.439v.546a2.108,2.108,0,0,0,.009.215.52.52,0,0,0,.044.162h-.5a.712.712,0,0,1-.035-.142,2.145,2.145,0,0,1-.009-.24v-.568a.484.484,0,0,0-.069-.3.291.291,0,0,0-.238-.084h-.168v1.331h-.488Zm.665,1.331a.291.291,0,0,0,.219-.076.353.353,0,0,0,.073-.253v-.24a.4.4,0,0,0-.059-.244.228.228,0,0,0-.189-.076h-.222v.888Z" transform="translate(-620.31 -669.091)" fill="#ffefef"></path><path d="M630.081,669.136h.661l.505,3.106h-.488l-.089-.617v.009h-.555l-.089.608h-.452Zm.533,2.076-.218-1.535h-.009l-.213,1.535Z" transform="translate(-622.594 -669.091)" fill="#ffefef"></path><path d="M634.108,669.136h.612l.475,1.859h.009v-1.859h.435v3.106h-.5l-.586-2.267h-.008v2.267h-.435Z" transform="translate(-625.219 -669.091)" fill="#ffefef"></path><path d="M638.815,669.579h-.51v-.443h1.508v.443h-.51v2.663h-.488Z" transform="translate(-627.651 -669.091)" fill="#ffefef"></path><path d="M642.447,669.136h1.33v.443h-.843v.821h.67v.444h-.67v.954h.843v.444h-1.33Z" transform="translate(-630.05 -669.091)" fill="#ffefef"></path><path d="M646.273,669.136H647.6v.443h-.843v.821h.669v.444h-.669v.954h.843v.444h-1.331Z" transform="translate(-632.266 -669.091)" fill="#ffefef"></path><path d="M650.1,669.136h.745a.711.711,0,0,1,.546.2.81.81,0,0,1,.182.572v1.57a.813.813,0,0,1-.182.573.712.712,0,0,1-.546.2H650.1Zm.736,2.662a.236.236,0,0,0,.184-.071.339.339,0,0,0,.064-.231v-1.615a.339.339,0,0,0-.064-.231.237.237,0,0,0-.184-.071h-.249V671.8Z" transform="translate(-634.484 -669.091)" fill="#ffefef"></path></g><g transform="translate(0 0)"><path d="M613.169,672.023a.824.824,0,0,1-.187-.579v-1.633a.821.821,0,0,1,.187-.579.825.825,0,0,1,1.082,0,.822.822,0,0,1,.186.579v.266h-.461v-.3q0-.307-.253-.306t-.252.306v1.7q0,.3.252.3t.253-.3v-.608h-.244v-.443h.7v1.016a.825.825,0,0,1-.186.579.827.827,0,0,1-1.082,0Z" transform="translate(-612.982 -669.03)" fill="#ffefef"></path><path d="M617.333,672.084a.826.826,0,0,1-.187-.579v-2.369h.488v2.4a.338.338,0,0,0,.064.231.275.275,0,0,0,.368,0,.336.336,0,0,0,.064-.231v-2.4h.47v2.369a.825.825,0,0,1-.186.579.827.827,0,0,1-1.082,0Z" transform="translate(-615.394 -669.091)" fill="#ffefef"></path><path d="M621.606,669.136h.661l.505,3.106h-.488l-.089-.617v.009h-.554l-.089.608H621.1Zm.532,2.076-.217-1.535h-.009l-.213,1.535Z" transform="translate(-617.685 -669.091)" fill="#ffefef"></path><path d="M625.633,669.136h.723a.624.624,0,0,1,.723.714v.191q0,.483-.319.612v.009a.38.38,0,0,1,.25.217,1.1,1.1,0,0,1,.074.439v.546a2.108,2.108,0,0,0,.009.215.52.52,0,0,0,.044.162h-.5a.712.712,0,0,1-.035-.142,2.145,2.145,0,0,1-.009-.24v-.568a.484.484,0,0,0-.069-.3.291.291,0,0,0-.238-.084h-.168v1.331h-.488Zm.665,1.331a.291.291,0,0,0,.219-.076.353.353,0,0,0,.073-.253v-.24a.4.4,0,0,0-.059-.244.228.228,0,0,0-.189-.076h-.222v.888Z" transform="translate(-620.31 -669.091)" fill="#ffefef"></path><path d="M630.081,669.136h.661l.505,3.106h-.488l-.089-.617v.009h-.555l-.089.608h-.452Zm.533,2.076-.218-1.535h-.009l-.213,1.535Z" transform="translate(-622.594 -669.091)" fill="#ffefef"></path><path d="M634.108,669.136h.612l.475,1.859h.009v-1.859h.435v3.106h-.5l-.586-2.267h-.008v2.267h-.435Z" transform="translate(-625.219 -669.091)" fill="#ffefef"></path><path d="M638.815,669.579h-.51v-.443h1.508v.443h-.51v2.663h-.488Z" transform="translate(-627.651 -669.091)" fill="#ffefef"></path><path d="M642.447,669.136h1.33v.443h-.843v.821h.67v.444h-.67v.954h.843v.444h-1.33Z" transform="translate(-630.05 -669.091)" fill="#ffefef"></path><path d="M646.273,669.136H647.6v.443h-.843v.821h.669v.444h-.669v.954h.843v.444h-1.331Z" transform="translate(-632.266 -669.091)" fill="#ffefef"></path><path d="M650.1,669.136h.745a.711.711,0,0,1,.546.2.81.81,0,0,1,.182.572v1.57a.813.813,0,0,1-.182.573.712.712,0,0,1-.546.2H650.1Zm.736,2.662a.236.236,0,0,0,.184-.071.339.339,0,0,0,.064-.231v-1.615a.339.339,0,0,0-.064-.231.237.237,0,0,0-.184-.071h-.249V671.8Z" transform="translate(-634.484 -669.091)" fill="#ffefef"></path></g></g><g transform="translate(27.5 16.896)"><path d="M617.363,581.846h-1.006v-.682a2.54,2.54,0,0,0,.661-.07.831.831,0,0,0,.4-.232,1.429,1.429,0,0,0,.263-.468h.647v6.125h-.962Z" transform="translate(-616.357 -580.306)" fill="#ffefef"></path><path d="M624.073,586.084a1.6,1.6,0,0,1-.376-1.138v-3.22a1.6,1.6,0,0,1,.376-1.137,1.663,1.663,0,0,1,2.169,0,1.6,1.6,0,0,1,.376,1.137v3.22a1.6,1.6,0,0,1-.376,1.138,1.663,1.663,0,0,1-2.169,0Zm1.583-1.076v-3.343q0-.6-.5-.6t-.5.6v3.343q0,.6.5.6T625.656,585.007Z" transform="translate(-620.609 -580.186)" fill="#ffefef"></path><path d="M632.389,586.084a1.6,1.6,0,0,1-.376-1.138v-3.22a1.6,1.6,0,0,1,.376-1.137,1.663,1.663,0,0,1,2.169,0,1.6,1.6,0,0,1,.376,1.137v3.22a1.6,1.6,0,0,1-.376,1.138,1.663,1.663,0,0,1-2.169,0Zm1.583-1.076v-3.343q0-.6-.5-.6t-.5.6v3.343q0,.6.5.6T633.972,585.007Z" transform="translate(-625.426 -580.186)" fill="#ffefef"></path><path d="M640.607,583.424a1.029,1.029,0,0,1-.236-.727v-1.531a1.029,1.029,0,0,1,.236-.726,1.069,1.069,0,0,1,1.382,0,1.028,1.028,0,0,1,.236.726V582.7a1.028,1.028,0,0,1-.236.727,1.069,1.069,0,0,1-1.382,0Zm1.006-.683v-1.619q0-.385-.315-.385t-.315.385v1.619q0,.385.315.385T641.612,582.741Zm1.907-2.468h.613l-2.371,6.125h-.612Zm-.227,5.959a1.03,1.03,0,0,1-.236-.727v-1.531a1.028,1.028,0,0,1,.236-.727,1.067,1.067,0,0,1,1.382,0,1.025,1.025,0,0,1,.236.727v1.531a1.028,1.028,0,0,1-.236.727,1.069,1.069,0,0,1-1.382,0Zm1.006-.683v-1.619q0-.384-.315-.385t-.315.385v1.619q0,.385.315.385T644.3,585.55Z" transform="translate(-630.267 -580.186)" fill="#ffefef"></path><path d="M617.363,581.846h-1.006v-.682a2.54,2.54,0,0,0,.661-.07.831.831,0,0,0,.4-.232,1.429,1.429,0,0,0,.263-.468h.647v6.125h-.962Z" transform="translate(-616.357 -580.306)" fill="#ffefef"></path><path d="M624.073,586.084a1.6,1.6,0,0,1-.376-1.138v-3.22a1.6,1.6,0,0,1,.376-1.137,1.663,1.663,0,0,1,2.169,0,1.6,1.6,0,0,1,.376,1.137v3.22a1.6,1.6,0,0,1-.376,1.138,1.663,1.663,0,0,1-2.169,0Zm1.583-1.076v-3.343q0-.6-.5-.6t-.5.6v3.343q0,.6.5.6T625.656,585.007Z" transform="translate(-620.609 -580.186)" fill="#ffefef"></path><path d="M632.389,586.084a1.6,1.6,0,0,1-.376-1.138v-3.22a1.6,1.6,0,0,1,.376-1.137,1.663,1.663,0,0,1,2.169,0,1.6,1.6,0,0,1,.376,1.137v3.22a1.6,1.6,0,0,1-.376,1.138,1.663,1.663,0,0,1-2.169,0Zm1.583-1.076v-3.343q0-.6-.5-.6t-.5.6v3.343q0,.6.5.6T633.972,585.007Z" transform="translate(-625.426 -580.186)" fill="#ffefef"></path><path d="M640.607,583.424a1.029,1.029,0,0,1-.236-.727v-1.531a1.029,1.029,0,0,1,.236-.726,1.069,1.069,0,0,1,1.382,0,1.028,1.028,0,0,1,.236.726V582.7a1.028,1.028,0,0,1-.236.727,1.069,1.069,0,0,1-1.382,0Zm1.006-.683v-1.619q0-.385-.315-.385t-.315.385v1.619q0,.385.315.385T641.612,582.741Zm1.907-2.468h.613l-2.371,6.125h-.612Zm-.227,5.959a1.03,1.03,0,0,1-.236-.727v-1.531a1.028,1.028,0,0,1,.236-.727,1.067,1.067,0,0,1,1.382,0,1.025,1.025,0,0,1,.236.727v1.531a1.028,1.028,0,0,1-.236.727,1.069,1.069,0,0,1-1.382,0Zm1.006-.683v-1.619q0-.384-.315-.385t-.315.385v1.619q0,.385.315.385T644.3,585.55Z" transform="translate(-630.267 -580.186)" fill="#ffefef"></path></g><g transform="translate(15.471 38.783)"><g transform="translate(0 0)"><path d="M591.546,643.337a3.181,3.181,0,0,1-1.149.189,2.541,2.541,0,0,1-1.953-.725,2.885,2.885,0,0,1-.677-2.047v-5.8a2.888,2.888,0,0,1,.677-2.048,2.994,2.994,0,0,1,3.9,0,2.886,2.886,0,0,1,.677,2.048v5.8a3.125,3.125,0,0,1-.488,1.812.442.442,0,0,0,.236.2,1.375,1.375,0,0,0,.409.047h.268v1.575h-.457A1.327,1.327,0,0,1,591.546,643.337Zm-.252-2.473v-6.017q0-1.087-.9-1.087t-.9,1.087v6.017q0,1.087.9,1.087T591.294,640.864Z" transform="translate(-587.767 -632.185)" fill="#ffefef"></path><path d="M603.546,643.026a2.924,2.924,0,0,1-.661-2.056v-8.411h1.732V641.1a1.2,1.2,0,0,0,.229.819.973.973,0,0,0,1.307,0,1.2,1.2,0,0,0,.228-.819v-8.537h1.669v8.411a2.925,2.925,0,0,1-.661,2.056,2.934,2.934,0,0,1-3.842,0Z" transform="translate(-596.524 -632.402)" fill="#ffefef"></path><path d="M618.714,632.559h2.346l1.795,11.026h-1.732l-.315-2.19v.032H618.84l-.315,2.158h-1.606Zm1.89,7.371-.772-5.45H619.8l-.756,5.45Z" transform="translate(-604.654 -632.402)" fill="#ffefef"></path><path d="M633.01,632.559h1.732v9.451h2.85v1.575H633.01Z" transform="translate(-613.975 -632.402)" fill="#ffefef"></path><path d="M645.883,632.559h1.732v11.026h-1.732Z" transform="translate(-621.431 -632.402)" fill="#ffefef"></path><path d="M653.793,634.134h-1.811v-1.575h5.354v1.575h-1.811v9.451h-1.732Z" transform="translate(-624.964 -632.402)" fill="#ffefef"></path><path d="M667.736,638.891l-2.094-6.332h1.842l1.181,4.048h.031l1.181-4.048h1.685l-2.094,6.332v4.694h-1.732Z" transform="translate(-632.877 -632.402)" fill="#ffefef"></path></g><g transform="translate(0 0)"><path d="M591.546,643.337a3.181,3.181,0,0,1-1.149.189,2.541,2.541,0,0,1-1.953-.725,2.885,2.885,0,0,1-.677-2.047v-5.8a2.888,2.888,0,0,1,.677-2.048,2.994,2.994,0,0,1,3.9,0,2.886,2.886,0,0,1,.677,2.048v5.8a3.125,3.125,0,0,1-.488,1.812.442.442,0,0,0,.236.2,1.375,1.375,0,0,0,.409.047h.268v1.575h-.457A1.327,1.327,0,0,1,591.546,643.337Zm-.252-2.473v-6.017q0-1.087-.9-1.087t-.9,1.087v6.017q0,1.087.9,1.087T591.294,640.864Z" transform="translate(-587.767 -632.185)" fill="#ffefef"></path><path d="M603.546,643.026a2.924,2.924,0,0,1-.661-2.056v-8.411h1.732V641.1a1.2,1.2,0,0,0,.229.819.973.973,0,0,0,1.307,0,1.2,1.2,0,0,0,.228-.819v-8.537h1.669v8.411a2.925,2.925,0,0,1-.661,2.056,2.934,2.934,0,0,1-3.842,0Z" transform="translate(-596.524 -632.402)" fill="#ffefef"></path><path d="M618.714,632.559h2.346l1.795,11.026h-1.732l-.315-2.19v.032H618.84l-.315,2.158h-1.606Zm1.89,7.371-.772-5.45H619.8l-.756,5.45Z" transform="translate(-604.654 -632.402)" fill="#ffefef"></path><path d="M633.01,632.559h1.732v9.451h2.85v1.575H633.01Z" transform="translate(-613.975 -632.402)" fill="#ffefef"></path><path d="M645.883,632.559h1.732v11.026h-1.732Z" transform="translate(-621.431 -632.402)" fill="#ffefef"></path><path d="M653.793,634.134h-1.811v-1.575h5.354v1.575h-1.811v9.451h-1.732Z" transform="translate(-624.964 -632.402)" fill="#ffefef"></path><path d="M667.736,638.891l-2.094-6.332h1.842l1.181,4.048h.031l1.181-4.048h1.685l-2.094,6.332v4.694h-1.732Z" transform="translate(-632.877 -632.402)" fill="#ffefef"></path></g></g><g transform="translate(15.777 27.405)"><path d="M588.494,605.154h2.229a2.2,2.2,0,0,1,1.692.606,2.517,2.517,0,0,1,.564,1.776v.949a2.515,2.515,0,0,1-.564,1.776,2.2,2.2,0,0,1-1.692.606h-.715v3.922h-1.513Zm2.229,4.336a.711.711,0,0,0,.557-.207,1.044,1.044,0,0,0,.186-.7v-1.143a1.045,1.045,0,0,0-.186-.7.711.711,0,0,0-.557-.207h-.715v2.959Z" transform="translate(-588.494 -605.154)" fill="#ffefef"></path><path d="M601.115,605.154h2.243a1.935,1.935,0,0,1,2.243,2.216v.592q0,1.5-.99,1.9v.027a1.183,1.183,0,0,1,.778.674,3.4,3.4,0,0,1,.227,1.362v1.693a6.429,6.429,0,0,0,.027.668,1.677,1.677,0,0,0,.138.5h-1.541a2.185,2.185,0,0,1-.11-.44,6.593,6.593,0,0,1-.027-.744v-1.761a1.5,1.5,0,0,0-.213-.922.9.9,0,0,0-.736-.261h-.523v4.129h-1.513Zm2.064,4.129a.909.909,0,0,0,.681-.234,1.107,1.107,0,0,0,.227-.785v-.743a1.221,1.221,0,0,0-.186-.757.7.7,0,0,0-.584-.234h-.688v2.753Z" transform="translate(-595.805 -605.154)" fill="#ffefef"></path><path d="M614.294,605.154h4.128v1.376h-2.614v2.546h2.077v1.376h-2.077v2.959h2.614v1.376h-4.128Z" transform="translate(-603.439 -605.154)" fill="#ffefef"></path><path d="M626.163,605.154h2.16l.963,6.9h.027l.963-6.9h2.16v9.634h-1.431v-7.295h-.028l-1.1,7.295h-1.266l-1.1-7.295h-.027v7.295h-1.321Z" transform="translate(-610.314 -605.154)" fill="#ffefef"></path><path d="M643.755,605.154h1.513v9.634h-1.513Z" transform="translate(-620.505 -605.154)" fill="#ffefef"></path><path d="M650.48,614.3a2.555,2.555,0,0,1-.578-1.8v-7.35h1.513v7.46a1.05,1.05,0,0,0,.2.716.85.85,0,0,0,1.141,0,1.051,1.051,0,0,0,.2-.716v-7.46h1.459v7.35a2.553,2.553,0,0,1-.578,1.8,2.563,2.563,0,0,1-3.357,0Z" transform="translate(-624.065 -605.154)" fill="#ffefef"></path><path d="M663.178,605.154h2.16l.963,6.9h.027l.963-6.9h2.16v9.634H668.02v-7.295h-.027l-1.1,7.295h-1.266l-1.1-7.295H664.5v7.295h-1.32Z" transform="translate(-631.755 -605.154)" fill="#ffefef"></path><path d="M588.494,605.154h2.229a2.2,2.2,0,0,1,1.692.606,2.517,2.517,0,0,1,.564,1.776v.949a2.515,2.515,0,0,1-.564,1.776,2.2,2.2,0,0,1-1.692.606h-.715v3.922h-1.513Zm2.229,4.336a.711.711,0,0,0,.557-.207,1.044,1.044,0,0,0,.186-.7v-1.143a1.045,1.045,0,0,0-.186-.7.711.711,0,0,0-.557-.207h-.715v2.959Z" transform="translate(-588.494 -605.154)" fill="#ffefef"></path><path d="M601.115,605.154h2.243a1.935,1.935,0,0,1,2.243,2.216v.592q0,1.5-.99,1.9v.027a1.183,1.183,0,0,1,.778.674,3.4,3.4,0,0,1,.227,1.362v1.693a6.429,6.429,0,0,0,.027.668,1.677,1.677,0,0,0,.138.5h-1.541a2.185,2.185,0,0,1-.11-.44,6.593,6.593,0,0,1-.027-.744v-1.761a1.5,1.5,0,0,0-.213-.922.9.9,0,0,0-.736-.261h-.523v4.129h-1.513Zm2.064,4.129a.909.909,0,0,0,.681-.234,1.107,1.107,0,0,0,.227-.785v-.743a1.221,1.221,0,0,0-.186-.757.7.7,0,0,0-.584-.234h-.688v2.753Z" transform="translate(-595.805 -605.154)" fill="#ffefef"></path><path d="M614.294,605.154h4.128v1.376h-2.614v2.546h2.077v1.376h-2.077v2.959h2.614v1.376h-4.128Z" transform="translate(-603.439 -605.154)" fill="#ffefef"></path><path d="M626.163,605.154h2.16l.963,6.9h.027l.963-6.9h2.16v9.634h-1.431v-7.295h-.028l-1.1,7.295h-1.266l-1.1-7.295h-.027v7.295h-1.321Z" transform="translate(-610.314 -605.154)" fill="#ffefef"></path><path d="M643.755,605.154h1.513v9.634h-1.513Z" transform="translate(-620.505 -605.154)" fill="#ffefef"></path><path d="M650.48,614.3a2.555,2.555,0,0,1-.578-1.8v-7.35h1.513v7.46a1.05,1.05,0,0,0,.2.716.85.85,0,0,0,1.141,0,1.051,1.051,0,0,0,.2-.716v-7.46h1.459v7.35a2.553,2.553,0,0,1-.578,1.8,2.563,2.563,0,0,1-3.357,0Z" transform="translate(-624.065 -605.154)" fill="#ffefef"></path><path d="M663.178,605.154h2.16l.963,6.9h.027l.963-6.9h2.16v9.634H668.02v-7.295h-.027l-1.1,7.295h-1.266l-1.1-7.295H664.5v7.295h-1.32Z" transform="translate(-631.755 -605.154)" fill="#ffefef"></path></g></svg>