<svg xmlns="http://www.w3.org/2000/svg" width="65.009" height="72.101" viewBox="0 0 65.009 72.101"><g transform="translate(0)"><path d="M563.525,146.426v-3.294a29.724,29.724,0,0,1,0-47.605V92.234a32.421,32.421,0,0,0,0,54.192Z" transform="translate(-548.906 -83.352)" fill="#ffefef"></path><path d="M694.719,119.33a29.691,29.691,0,0,1-11.92,23.8v3.294a32.421,32.421,0,0,0,0-54.192v3.294A29.69,29.69,0,0,1,694.719,119.33Z" transform="translate(-632.409 -83.352)" fill="#ffefef"></path><path d="M627.353,236.4l3.839-2.784h-4.745l-1.466-4.505-1.466,4.505h-4.745l3.839,2.784-1.463,4.494,0,.012.016-.012,3.823-2.773L628.8,240.9l.016.012,0-.012Z" transform="translate(-592.476 -168.806)" fill="#ffefef"></path><path d="M600.824,232.089h-3.136l-.969-2.977-.969,2.977h-3.136l2.537,1.84-.969,2.977,2.537-1.84,2.537,1.84-.969-2.977Z" transform="translate(-576.165 -168.806)" fill="#ffefef"></path><path d="M660.181,232.089h-3.136l2.537,1.84-.969,2.977,2.537-1.84,2.537,1.84-.969-2.977,2.537-1.84h-3.136l-.969-2.977Z" transform="translate(-616.347 -168.806)" fill="#ffefef"></path><path d="M623.514,73.1h-4.745l3.839,2.784-1.466,4.505L624.98,77.6l3.839,2.784-1.466-4.505,3.839-2.784h-4.745l-1.466-4.505Z" transform="translate(-592.476 -68.594)" fill="#ffefef"></path><path d="M594.182,86.761l2.537-1.84,2.537,1.84-.969-2.977,2.537-1.84h-3.136l-.969-2.977-.969,2.977h-3.136l2.537,1.84Z" transform="translate(-576.165 -75.07)" fill="#ffefef"></path><path d="M660.181,81.944h-3.136l2.537,1.84-.969,2.977,2.537-1.84,2.537,1.84-.969-2.977,2.537-1.84h-3.136l-.969-2.977Z" transform="translate(-616.347 -75.07)" fill="#ffefef"></path><g transform="translate(12.436 18.782)"><path d="M581.949,119.336h4.682a4.755,4.755,0,0,1,3.5,1.112,4.693,4.693,0,0,1,1.1,3.421v.788a5.4,5.4,0,0,1-.493,2.478,2.893,2.893,0,0,1-1.509,1.38v.056q2.313.789,2.313,4.111v1.689a4.707,4.707,0,0,1-1.2,3.478,4.766,4.766,0,0,1-3.512,1.2h-4.88Zm4.316,8.025a1.861,1.861,0,0,0,1.4-.479,2.256,2.256,0,0,0,.466-1.6v-1.1a2.5,2.5,0,0,0-.381-1.549,1.441,1.441,0,0,0-1.2-.479h-1.5v5.209Zm.564,8.87a1.558,1.558,0,0,0,1.213-.436,2.247,2.247,0,0,0,.394-1.507v-1.718a2.85,2.85,0,0,0-.465-1.872,1.973,1.973,0,0,0-1.537-.521h-1.382v6.054Z" transform="translate(-581.949 -119.054)" fill="#ffefef"></path><path d="M612.229,119.336h8.462v2.816h-5.36v5.209h4.259v2.816h-4.259v6.054h5.36v2.816h-8.462Z" transform="translate(-600.833 -119.054)" fill="#ffefef"></path><path d="M639.316,137.579a5.3,5.3,0,0,1-1.156-3.675v-1.126h2.934v1.352q0,1.915,1.608,1.915a1.512,1.512,0,0,0,1.2-.465,2.257,2.257,0,0,0,.409-1.507,4.173,4.173,0,0,0-.564-2.182,10.44,10.44,0,0,0-2.088-2.267,12.481,12.481,0,0,1-2.68-3.055,6.222,6.222,0,0,1-.761-3.083,5.132,5.132,0,0,1,1.184-3.618,4.457,4.457,0,0,1,3.442-1.282,4.283,4.283,0,0,1,3.371,1.282,5.345,5.345,0,0,1,1.143,3.675v.816h-2.934v-1.014a2.263,2.263,0,0,0-.4-1.478,1.434,1.434,0,0,0-1.156-.464q-1.552,0-1.552,1.886a3.711,3.711,0,0,0,.578,2,11.017,11.017,0,0,0,2.1,2.252,11.615,11.615,0,0,1,2.68,3.069,6.8,6.8,0,0,1,.733,3.238,5.276,5.276,0,0,1-1.2,3.717,4.512,4.512,0,0,1-3.484,1.3A4.364,4.364,0,0,1,639.316,137.579Z" transform="translate(-617.005 -118.586)" fill="#ffefef"></path><path d="M668.536,122.152h-3.244v-2.816h9.59v2.816h-3.244v16.9h-3.1Z" transform="translate(-633.926 -119.054)" fill="#ffefef"></path><path d="M581.949,119.336h4.682a4.755,4.755,0,0,1,3.5,1.112,4.693,4.693,0,0,1,1.1,3.421v.788a5.4,5.4,0,0,1-.493,2.478,2.893,2.893,0,0,1-1.509,1.38v.056q2.313.789,2.313,4.111v1.689a4.707,4.707,0,0,1-1.2,3.478,4.766,4.766,0,0,1-3.512,1.2h-4.88Zm4.316,8.025a1.861,1.861,0,0,0,1.4-.479,2.256,2.256,0,0,0,.466-1.6v-1.1a2.5,2.5,0,0,0-.381-1.549,1.441,1.441,0,0,0-1.2-.479h-1.5v5.209Zm.564,8.87a1.558,1.558,0,0,0,1.213-.436,2.247,2.247,0,0,0,.394-1.507v-1.718a2.85,2.85,0,0,0-.465-1.872,1.973,1.973,0,0,0-1.537-.521h-1.382v6.054Z" transform="translate(-581.949 -119.054)" fill="#ffefef"></path><path d="M612.229,119.336h8.462v2.816h-5.36v5.209h4.259v2.816h-4.259v6.054h5.36v2.816h-8.462Z" transform="translate(-600.833 -119.054)" fill="#ffefef"></path><path d="M639.316,137.579a5.3,5.3,0,0,1-1.156-3.675v-1.126h2.934v1.352q0,1.915,1.608,1.915a1.512,1.512,0,0,0,1.2-.465,2.257,2.257,0,0,0,.409-1.507,4.173,4.173,0,0,0-.564-2.182,10.44,10.44,0,0,0-2.088-2.267,12.481,12.481,0,0,1-2.68-3.055,6.222,6.222,0,0,1-.761-3.083,5.132,5.132,0,0,1,1.184-3.618,4.457,4.457,0,0,1,3.442-1.282,4.283,4.283,0,0,1,3.371,1.282,5.345,5.345,0,0,1,1.143,3.675v.816h-2.934v-1.014a2.263,2.263,0,0,0-.4-1.478,1.434,1.434,0,0,0-1.156-.464q-1.552,0-1.552,1.886a3.711,3.711,0,0,0,.578,2,11.017,11.017,0,0,0,2.1,2.252,11.615,11.615,0,0,1,2.68,3.069,6.8,6.8,0,0,1,.733,3.238,5.276,5.276,0,0,1-1.2,3.717,4.512,4.512,0,0,1-3.484,1.3A4.364,4.364,0,0,1,639.316,137.579Z" transform="translate(-617.005 -118.586)" fill="#ffefef"></path><path d="M668.536,122.152h-3.244v-2.816h9.59v2.816h-3.244v16.9h-3.1Z" transform="translate(-633.926 -119.054)" fill="#ffefef"></path></g><g transform="translate(12.38 43.078)"><path d="M583.229,184.824H581.8v-1.24h4.223v1.24H584.6v7.439h-1.366Z" transform="translate(-581.801 -183.46)" fill="#ffefef" opacity="0.99"></path><path d="M594.769,183.584h1.366v3.534H597.6v-3.534h1.366v8.679H597.6v-3.905h-1.465v3.905h-1.366Z" transform="translate(-589.889 -183.46)" fill="#ffefef" opacity="0.99"></path><path d="M608.629,183.584h3.726v1.24H610v2.294h1.875v1.24H610v2.666h2.359v1.24h-3.726Z" transform="translate(-598.532 -183.46)" fill="#ffefef" opacity="0.99"></path><path d="M620.607,183.584h2.025a2.093,2.093,0,0,1,1.54.49,2.066,2.066,0,0,1,.484,1.506v.533q0,1.352-.894,1.711v.025a1.066,1.066,0,0,1,.7.607,3.047,3.047,0,0,1,.2,1.227v1.525a5.809,5.809,0,0,0,.025.6,1.5,1.5,0,0,0,.124.453h-1.391a1.986,1.986,0,0,1-.1-.4,5.949,5.949,0,0,1-.025-.669V189.61a1.345,1.345,0,0,0-.192-.831.816.816,0,0,0-.665-.236h-.472v3.719h-1.367Zm1.863,3.719a.819.819,0,0,0,.615-.211.992.992,0,0,0,.205-.707v-.669a1.1,1.1,0,0,0-.168-.682.634.634,0,0,0-.528-.211h-.621V187.3Z" transform="translate(-606.002 -183.46)" fill="#ffefef" opacity="0.99"></path><path d="M634.366,183.584h1.851l1.416,8.679h-1.366l-.248-1.723v.025h-1.552l-.249,1.7H632.95Zm1.49,5.8-.609-4.29h-.025l-.6,4.29Z" transform="translate(-613.7 -183.46)" fill="#ffefef" opacity="0.99"></path><path d="M647.139,183.584h2.012a1.992,1.992,0,0,1,1.528.546,2.263,2.263,0,0,1,.509,1.6v.856a2.263,2.263,0,0,1-.509,1.6,1.991,1.991,0,0,1-1.528.546h-.645v3.533h-1.367Zm2.012,3.905a.643.643,0,0,0,.5-.186.939.939,0,0,0,.168-.632v-1.029a.943.943,0,0,0-.168-.633.644.644,0,0,0-.5-.186h-.645v2.665Z" transform="translate(-622.549 -183.46)" fill="#ffefef" opacity="0.99"></path><path d="M659.877,183.584h1.367v8.679h-1.367Z" transform="translate(-630.493 -183.46)" fill="#ffefef" opacity="0.99"></path><path d="M666.094,191.617a2.334,2.334,0,0,1-.509-1.618v-.5h1.292v.6q0,.843.708.843a.667.667,0,0,0,.528-.2,1,1,0,0,0,.18-.663,1.834,1.834,0,0,0-.248-.961,4.6,4.6,0,0,0-.919-1,5.5,5.5,0,0,1-1.18-1.345,2.739,2.739,0,0,1-.335-1.357,2.26,2.26,0,0,1,.522-1.593,1.962,1.962,0,0,1,1.515-.564,1.886,1.886,0,0,1,1.484.564,2.356,2.356,0,0,1,.5,1.618v.36h-1.292v-.446a1,1,0,0,0-.174-.651.631.631,0,0,0-.509-.2q-.684,0-.683.831a1.634,1.634,0,0,0,.255.88,4.856,4.856,0,0,0,.925.992,5.1,5.1,0,0,1,1.18,1.351,3,3,0,0,1,.323,1.426,2.325,2.325,0,0,1-.528,1.637,1.988,1.988,0,0,1-1.534.57A1.921,1.921,0,0,1,666.094,191.617Z" transform="translate(-634.053 -183.254)" fill="#ffefef" opacity="0.99"></path><path d="M678.96,184.824h-1.428v-1.24h4.223v1.24h-1.428v7.439H678.96Z" transform="translate(-641.504 -183.46)" fill="#ffefef" opacity="0.99"></path><path d="M583.229,184.824H581.8v-1.24h4.223v1.24H584.6v7.439h-1.366Z" transform="translate(-581.801 -183.46)" fill="#ffefef"></path><path d="M594.769,183.584h1.366v3.534H597.6v-3.534h1.366v8.679H597.6v-3.905h-1.465v3.905h-1.366Z" transform="translate(-589.889 -183.46)" fill="#ffefef"></path><path d="M608.629,183.584h3.726v1.24H610v2.294h1.875v1.24H610v2.666h2.359v1.24h-3.726Z" transform="translate(-598.532 -183.46)" fill="#ffefef"></path><path d="M620.607,183.584h2.025a2.093,2.093,0,0,1,1.54.49,2.066,2.066,0,0,1,.484,1.506v.533q0,1.352-.894,1.711v.025a1.066,1.066,0,0,1,.7.607,3.047,3.047,0,0,1,.2,1.227v1.525a5.809,5.809,0,0,0,.025.6,1.5,1.5,0,0,0,.124.453h-1.391a1.986,1.986,0,0,1-.1-.4,5.949,5.949,0,0,1-.025-.669V189.61a1.345,1.345,0,0,0-.192-.831.816.816,0,0,0-.665-.236h-.472v3.719h-1.367Zm1.863,3.719a.819.819,0,0,0,.615-.211.992.992,0,0,0,.205-.707v-.669a1.1,1.1,0,0,0-.168-.682.634.634,0,0,0-.528-.211h-.621V187.3Z" transform="translate(-606.002 -183.46)" fill="#ffefef"></path><path d="M634.366,183.584h1.851l1.416,8.679h-1.366l-.248-1.723v.025h-1.552l-.249,1.7H632.95Zm1.49,5.8-.609-4.29h-.025l-.6,4.29Z" transform="translate(-613.7 -183.46)" fill="#ffefef"></path><path d="M647.139,183.584h2.012a1.992,1.992,0,0,1,1.528.546,2.263,2.263,0,0,1,.509,1.6v.856a2.263,2.263,0,0,1-.509,1.6,1.991,1.991,0,0,1-1.528.546h-.645v3.533h-1.367Zm2.012,3.905a.643.643,0,0,0,.5-.186.939.939,0,0,0,.168-.632v-1.029a.943.943,0,0,0-.168-.633.644.644,0,0,0-.5-.186h-.645v2.665Z" transform="translate(-622.549 -183.46)" fill="#ffefef"></path><path d="M659.877,183.584h1.367v8.679h-1.367Z" transform="translate(-630.493 -183.46)" fill="#ffefef"></path><path d="M666.094,191.617a2.334,2.334,0,0,1-.509-1.618v-.5h1.292v.6q0,.843.708.843a.667.667,0,0,0,.528-.2,1,1,0,0,0,.18-.663,1.834,1.834,0,0,0-.248-.961,4.6,4.6,0,0,0-.919-1,5.5,5.5,0,0,1-1.18-1.345,2.739,2.739,0,0,1-.335-1.357,2.26,2.26,0,0,1,.522-1.593,1.962,1.962,0,0,1,1.515-.564,1.886,1.886,0,0,1,1.484.564,2.356,2.356,0,0,1,.5,1.618v.36h-1.292v-.446a1,1,0,0,0-.174-.651.631.631,0,0,0-.509-.2q-.684,0-.683.831a1.634,1.634,0,0,0,.255.88,4.856,4.856,0,0,0,.925.992,5.1,5.1,0,0,1,1.18,1.351,3,3,0,0,1,.323,1.426,2.325,2.325,0,0,1-.528,1.637,1.988,1.988,0,0,1-1.534.57A1.921,1.921,0,0,1,666.094,191.617Z" transform="translate(-634.053 -183.254)" fill="#ffefef"></path><path d="M678.96,184.824h-1.428v-1.24h4.223v1.24h-1.428v7.439H678.96Z" transform="translate(-641.504 -183.46)" fill="#ffefef"></path></g></g></svg>