<svg xmlns="http://www.w3.org/2000/svg" width="41.961" height="72.101" viewBox="0 0 41.961 72.101"><path d="M393.286,470.583l-1.5-4.643-1.5,4.643h-4.867l3.938,2.87-1.5,4.643,3.938-2.87,3.938,2.87-1.5-4.643,3.938-2.87Z" transform="translate(-370.981 -405.995)" fill="#ffefef"></path><path d="M362.377,469.008l-.994-3.068-.994,3.068h-3.216l2.6,1.9-.994,3.068,2.6-1.9,2.6,1.9-.994-3.068,2.6-1.9Z" transform="translate(-352.839 -405.995)" fill="#ffefef"></path><path d="M431.941,469.008l-.994-3.068-.994,3.068h-3.216l2.6,1.9-.994,3.068,2.6-1.9,2.6,1.9-.994-3.068,2.6-1.9Z" transform="translate(-397.532 -405.995)" fill="#ffefef"></path><path d="M353.177,317.557l-.782-2.414-.782,2.414h-2.53l2.047,1.492-.782,2.414,2.047-1.492,2.047,1.492-.782-2.414,2.047-1.492Z" transform="translate(-347.641 -309.281)" fill="#ffefef"></path><path d="M444.96,317.557l-.782-2.414-.782,2.414h-2.53l2.047,1.492-.782,2.414,2.047-1.492,2.047,1.492-.782-2.414,2.047-1.492Z" transform="translate(-406.609 -309.281)" fill="#ffefef"></path><path d="M394.5,310.98l1.836-8.621-4.643,3.7-.971-3.374-2.248,2.811-3.366-6.7-3.366,6.7-2.248-2.811-.971,3.374-4.643-3.7,1.836,8.621H394.5Z" transform="translate(-363.574 -298.798)" fill="#ffefef"></path><rect width="41.961" height="1.334" rx="0.667" transform="translate(0 13.924)" fill="#ffefef"></rect><rect width="41.961" height="1.334" rx="0.667" transform="translate(0 56.531)" fill="#ffefef"></rect><g transform="translate(1.972 17.647)"><g transform="translate(0 0)"><path d="M353.976,351.808h-3.41v-2.975h10.082v2.975h-3.41v17.848h-3.262Z" transform="translate(-350.566 -348.535)" fill="#ffefef"></path><path d="M390.078,368.052a5.457,5.457,0,0,1-1.275-3.867V353.239a5.459,5.459,0,0,1,1.275-3.867,5.624,5.624,0,0,1,7.354,0,5.462,5.462,0,0,1,1.275,3.867v10.947a5.46,5.46,0,0,1-1.275,3.867,5.624,5.624,0,0,1-7.354,0Zm5.367-3.658V353.03q0-2.053-1.69-2.053t-1.69,2.053v11.363q0,2.052,1.69,2.052T395.445,364.394Z" transform="translate(-375.132 -348.003)" fill="#ffefef"></path><path d="M429.276,348.833h4.8a4.745,4.745,0,0,1,3.647,1.309,5.448,5.448,0,0,1,1.216,3.838v2.053a5.446,5.446,0,0,1-1.216,3.837,4.742,4.742,0,0,1-3.647,1.309h-1.542v8.478h-3.262Zm4.8,9.37a1.53,1.53,0,0,0,1.2-.446,2.267,2.267,0,0,0,.4-1.517v-2.469a2.267,2.267,0,0,0-.4-1.517,1.531,1.531,0,0,0-1.2-.446h-1.542v6.4Z" transform="translate(-401.135 -348.535)" fill="#ffefef"></path></g></g><g transform="translate(2.755 41.478)"><g transform="translate(0 0)"><path d="M353.452,425.948a3.218,3.218,0,0,1-.7-2.225v-.682h1.767v.818q0,1.159.969,1.159a.91.91,0,0,0,.722-.282,1.372,1.372,0,0,0,.246-.912,2.538,2.538,0,0,0-.34-1.321,6.328,6.328,0,0,0-1.258-1.372,7.527,7.527,0,0,1-1.614-1.85,3.779,3.779,0,0,1-.459-1.866,3.118,3.118,0,0,1,.714-2.191,2.677,2.677,0,0,1,2.073-.775,2.573,2.573,0,0,1,2.03.775,3.247,3.247,0,0,1,.688,2.225v.495h-1.767v-.614a1.376,1.376,0,0,0-.238-.895.863.863,0,0,0-.7-.281q-.935,0-.935,1.142a2.256,2.256,0,0,0,.348,1.21,6.661,6.661,0,0,0,1.266,1.364,7,7,0,0,1,1.614,1.858,4.135,4.135,0,0,1,.442,1.96,3.2,3.2,0,0,1-.722,2.25,2.711,2.711,0,0,1-2.1.784A2.622,2.622,0,0,1,353.452,425.948Z" transform="translate(-352.755 -414.45)" fill="#ffefef"></path><path d="M371.339,414.926h5.1v1.7h-3.229v3.154h2.566v1.7h-2.566v3.665h3.229v1.7h-5.1Z" transform="translate(-364.695 -414.755)" fill="#ffefef"></path><path d="M388.593,414.926h1.869v10.228h3.076v1.7h-4.945Z" transform="translate(-375.78 -414.755)" fill="#ffefef"></path><path d="M404.943,414.926h1.87v10.228h3.075v1.7h-4.945Z" transform="translate(-386.284 -414.755)" fill="#ffefef"></path><path d="M421.294,414.926h5.1v1.7h-3.229v3.154h2.566v1.7h-2.566v3.665h3.229v1.7h-5.1Z" transform="translate(-396.789 -414.755)" fill="#ffefef"></path><path d="M438.547,414.926h2.77a2.394,2.394,0,0,1,2.77,2.744v.733q0,1.858-1.224,2.352v.034a1.461,1.461,0,0,1,.96.835,4.219,4.219,0,0,1,.28,1.688v2.1a7.861,7.861,0,0,0,.034.827,2.057,2.057,0,0,0,.169.622h-1.9a2.731,2.731,0,0,1-.136-.546,8.146,8.146,0,0,1-.034-.921V423.21a1.857,1.857,0,0,0-.263-1.142,1.113,1.113,0,0,0-.909-.324h-.646v5.114h-1.869Zm2.549,5.114a1.12,1.12,0,0,0,.841-.29,1.372,1.372,0,0,0,.28-.972v-.921a1.518,1.518,0,0,0-.229-.938.866.866,0,0,0-.723-.289h-.85v3.409Z" transform="translate(-407.874 -414.755)" fill="#ffefef"></path></g></g></svg>