<svg xmlns="http://www.w3.org/2000/svg" width="109" height="17" viewBox="0 0 109 17"><g transform="translate(-211.835 -377.562)"><path d="M314.25,385.938c.121,2.079.141,2.686.141,4.5V394.4h-2.553V378.89h2.532s1.207,4.544,1.469,5.513c.261.989.462,1.8.583,2.463-.081-1.514-.1-3.392-.1-4.948V378.89h2.472V394.4h-2.271s-1.387-4.785-1.668-5.734a22.912,22.912,0,0,1-.6-2.726Z" transform="translate(-32.294 -0.425)" fill="#fff" fill-rule="evenodd"/><path d="M332.435,386.551c0,6.684-1.086,8.057-3.618,8.057-2.352,0-3.618-1.03-3.618-8.057,0-6.805.984-8.017,3.618-8.017s3.618,1.211,3.618,8.017Zm-2.855,0c0-2.444,0-3.937-.1-5.048-.081-1.131-.262-1.353-.664-1.353-.443,0-.624.222-.724,1.353-.08,1.09-.06,2.624-.06,5.048,0,2.827-.02,3.917.06,5.007.1,1.192.261,1.314.724,1.314.422,0,.563-.1.664-1.314.08-1.11.1-2.181.1-5.007Z" transform="translate(-36.609 -0.311)" fill="#fff" fill-rule="evenodd"/><path d="M346.264,390.016c0,3.212-1.427,4.381-3.84,4.381h-3.458V378.89h3.477c2.674,0,3.377,1.615,3.377,4.26,0,1.9-.684,2.929-1.909,2.989,1.326,0,2.352,1.353,2.352,3.877Zm-4.624-2.907v5.472h.7c.825,0,1.045-.506,1.045-2.868,0-1.717-.2-2.6-1.086-2.6h-.663v-1.94h.683c.724,0,.865-.646.865-1.978,0-1.817-.181-2.483-1.065-2.483h-.483v6.4Z" transform="translate(-41.055 -0.425)" fill="#fff" fill-rule="evenodd"/><path d="M355.464,392.076h3.277V394.4h-6.091V378.89h2.815v13.186Z" transform="translate(-45.473 -0.425)" fill="#fff" fill-rule="evenodd"/><path d="M366.571,392.076h3.357V394.4h-6.071V378.89h5.648v2.322h-2.934v4.2h2.592v2.161h-2.592v4.5Z" transform="translate(-49.093 -0.425)" fill="#fff" fill-rule="evenodd"/><path d="M219.132,390.016c0,3.212-1.427,4.381-3.839,4.381h-3.458V378.89h3.478c2.673,0,3.377,1.615,3.377,4.26,0,1.9-.683,2.929-1.909,2.989,1.326,0,2.351,1.353,2.351,3.877Zm-4.623-2.907v5.472h.7c.824,0,1.045-.506,1.045-2.868,0-1.717-.2-2.6-1.085-2.6h-.664v-1.94h.684c.723,0,.864-.646.864-1.978,0-1.817-.181-2.483-1.065-2.483h-.483v6.4Z" transform="translate(0 -0.425)" fill="#fff" fill-rule="evenodd"/><path d="M242.795,386.442c1.727.524,1.929,2.572,1.929,4.45a16.876,16.876,0,0,0,.241,3.505h-2.814a10.873,10.873,0,0,1-.2-2.3v-1.992c0-1.233-.416-2.159-1.3-2.393h-.19V394.4h-2.774V378.89h4.121c1.93,0,3.236,1.131,3.236,3.938,0,2.442-1.056,3.493-2.251,3.614Zm-2.332-5.634v4.544h.844c.724,0,.945-.464.945-1.918,0-2.262-.422-2.626-1.267-2.626Z" transform="translate(-8.349 -0.425)" fill="#fff" fill-rule="evenodd"/><path d="M254.382,385.938c.121,2.079.141,2.686.141,4.5V394.4H251.97V378.89H254.5s1.206,4.544,1.467,5.513c.261.989.462,1.8.584,2.463-.081-1.514-.1-3.392-.1-4.948V378.89h2.473V394.4h-2.272s-1.387-4.785-1.668-5.734a23.206,23.206,0,0,1-.6-2.726Z" transform="translate(-12.961 -0.425)" fill="#fff" fill-rule="evenodd"/><path d="M268.608,392.076h3.357V394.4h-6.071V378.89h5.649v2.322h-2.935v4.2H271.2v2.161h-2.593v4.5Z" transform="translate(-17.458 -0.425)" fill="#fff" fill-rule="evenodd"/><path d="M279.632,390.709c0,1.738.364,2,.987,2,.483,0,.857-.284.857-2,0-1.538-1.024-2.64-2.18-4.039-1.045-1.262-2.217-2.993-2.217-4.461,0-2.312,1.047-3.675,3.239-3.675,2.15,0,3.276,1.192,3.276,3.473a3.98,3.98,0,0,1-.2,1.254H281.1a7.351,7.351,0,0,0,.062-1.092c0-1.475-.16-1.918-.8-1.918-.6,0-.7.585-.7,1.7,0,1.4,1.117,2.51,2.008,3.661,1.311,1.692,2.368,3.038,2.368,4.617,0,2.523-1.059,4.382-3.431,4.382-2.111,0-3.493-1.157-3.493-3.843a5.683,5.683,0,0,1,.182-1.683l2.471-.014a10.637,10.637,0,0,0-.127,1.641Z" transform="translate(-21.069 -0.311)" fill="#fff" fill-rule="evenodd"/><path d="M224.142,394.366l2.25-15.62h2.653l2.651,15.62h-2.872l-.281-2.5h-1.729l-.282,2.5Zm2.847-4.221H228.4s-.213-1.8-.334-2.968c-.08-.726-.364-2.991-.444-4.485-.04,1.534-.282,3.778-.343,4.485-.1,1.171-.286,2.968-.286,2.968Z" transform="translate(-3.974 -0.379)" fill="#fff" fill-rule="evenodd"/><path d="M301.379,385.875a2.67,2.67,0,0,0-2.347,1.715c-.481,1.1-1.016,2.36-1.362,3.057a36.907,36.907,0,0,1-2.647-5.124,20.034,20.034,0,0,0,3.45-2.149,4.366,4.366,0,0,0,1.519-2.54,2.663,2.663,0,0,0-2.882-3.272,4.718,4.718,0,0,0-4.458,3.861,9.013,9.013,0,0,0,.509,4.123c-1.655,1.126-3.1,2.366-3.471,4.324-.534,3.217,1.468,4.692,3.736,4.692a4.708,4.708,0,0,0,3.665-1.766c.712.82,1.62,1.766,2.741,1.766a3.534,3.534,0,0,0,2.617-1.555l-.321-.455a2.649,2.649,0,0,1-1.628.938c-.72,0-1.467-.643-2.108-1.662-.08-.162-.187-.322-.267-.483.428-.831.747-1.742,1.122-2.547.694-1.554,1.121-2.065,1.762-2.065,1.066,0,.213,1.8,1.36,1.8a.95.95,0,0,0,.882-.886,1.647,1.647,0,0,0-1.869-1.769Zm-6.913-4.88a2.676,2.676,0,0,1,2.563-2.28,1.657,1.657,0,0,1,1.628,2.172,3.08,3.08,0,0,1-.724,1.595,14.445,14.445,0,0,1-3.192,2.227,7.717,7.717,0,0,1-.274-3.714Zm-.373,12.522a2.654,2.654,0,0,1-2.7-3.219,6.069,6.069,0,0,1,2.113-3.686,27.921,27.921,0,0,0,3.1,5.68,3,3,0,0,1-2.515,1.226Z" transform="translate(-25.113)" fill="#d15400" fill-rule="evenodd"/><path d="M295.732,381.735l.167.081c-.008.024-.784,2.446.856,6.416a33.934,33.934,0,0,0,3.4,6.112l-.143.12a22.8,22.8,0,0,1-3.707-5.855,10.184,10.184,0,0,1-1.067-5.143A4.079,4.079,0,0,1,295.732,381.735Zm3.128,10.972a32.2,32.2,0,0,1-2.278-4.4,11.921,11.921,0,0,1-1.04-5.527,5.483,5.483,0,0,0-.116.722,10.02,10.02,0,0,0,1.053,5.033A25.14,25.14,0,0,0,298.86,392.707Z" transform="translate(-26.954 -1.351)" fill="#fff"/></g></svg>