<svg xmlns="http://www.w3.org/2000/svg" width="266.418" height="239.641" viewBox="0 0 266.418 239.641"><g opacity="0.5"><path d="M554.121,1711.468a5.123,5.123,0,0,0,.893-3.191,2.4,2.4,0,0,0-2.378-1.94,8.816,8.816,0,0,0-6.162,2.533,12.882,12.882,0,0,0-2.5,2.945,4.653,4.653,0,0,0-.882,2.817c.26,2.173,2.909,2.289,4.557,1.851a9.1,9.1,0,0,0,3.4-1.972c.589-.5,1.142-1.029,1.7-1.564A5.862,5.862,0,0,0,554.121,1711.468Zm-6.225-1.787a8.436,8.436,0,0,1,2.8-1.556c.672-.208,2.127-.6,2.644.107.553.753-.29,2.088-.744,2.688a14.817,14.817,0,0,1-2.658,2.442,8.53,8.53,0,0,1-2.788,1.684c-.667.2-2.181.375-2.479-.491-.264-.77.5-1.8.914-2.38A12.749,12.749,0,0,1,547.9,1709.682Z" transform="translate(-446.965 -1629.469)" fill="#f8b5ac" fill-rule="evenodd"></path><path d="M531.186,1711.073a5.467,5.467,0,0,0-1.225,7.038c1.251,2.125,3.76,3.825,6.3,3.258,4.115-.92,6.463-6.961,3.369-10.123C537.482,1709.055,533.471,1709.149,531.186,1711.073Zm.9,1.259a5.219,5.219,0,0,1,5.243-.8c1.892.725,2.414,2.907,1.969,4.723a4.605,4.605,0,0,1-3.742,3.644,4.893,4.893,0,0,1-4.217-2.514A3.973,3.973,0,0,1,532.086,1712.332Z" transform="translate(-424.4 -1630.731)" fill="#f8b5ac" fill-rule="evenodd"></path><path d="M545.128,1722.155a3.671,3.671,0,0,1,3.093-.735,4.47,4.47,0,0,1,2.5,1.677c1.086,1.394,1.727,3.321.643,4.9-1.651,2.406-6.454,3.057-7.876.069A5.086,5.086,0,0,1,545.128,1722.155Zm-1-1.18a6.767,6.767,0,0,0-2.378,6.508,5.272,5.272,0,0,0,5.142,4.1,6.366,6.366,0,0,0,6.159-3.45c.977-2.1.158-4.469-1.253-6.159a6.088,6.088,0,0,0-3.745-2.133A5.254,5.254,0,0,0,544.131,1720.975Z" transform="translate(-444.519 -1634.632)" fill="#f8b5ac" fill-rule="evenodd"></path><path d="M471.64,1722.852c-.2.827.407,1.249.958,1.736a31.514,31.514,0,0,0,2.426,2.078c1.728,1.239,3.638,2.2,5.349,3.469,3.634,2.689,5.8,6.74,8.177,10.481a111.114,111.114,0,0,0,7.765,11.183c2.865,3.485,6.051,6.748,8.311,10.684a17.506,17.506,0,0,1,2.207,5.765,17.773,17.773,0,0,1,.281,2.98c0,.629-.129,1.84.583,2.182,1.587.761.9-3.41.848-3.933a18.55,18.55,0,0,0-1.552-5.755c-1.849-4.058-4.837-7.426-7.7-10.786a99.573,99.573,0,0,1-8.037-10.95c-1.242-1.938-2.456-3.894-3.694-5.833a30.46,30.46,0,0,0-4.045-5.359,28.88,28.88,0,0,0-5.23-3.906c-.906-.562-1.849-1.084-2.7-1.726-.8-.6-1.487-1.335-2.244-1.988C472.82,1722.73,472.274,1722.436,471.64,1722.852Z" transform="translate(-356.588 -1635.73)" fill="#f8b5ac" fill-rule="evenodd"></path><path d="M481.865,1737.863a5.617,5.617,0,0,0,1.218,2.609,17.757,17.757,0,0,1,1.47,2.8,52.973,52.973,0,0,0,2.8,6.08c2.287,3.89,5.805,6.86,9,9.974a119.745,119.745,0,0,1,9.521,10.1c2.869,3.531,5.557,7.244,8.975,10.281a20.707,20.707,0,0,0,5.317,3.559c.9.4,1.843.682,2.763,1.035.654.251,1.48.747,2.2.516.959-.3.524-1.232-.144-1.556-.856-.415-1.862-.5-2.755-.835a19.238,19.238,0,0,1-5.255-2.945c-3.507-2.771-6.191-6.382-8.959-9.849a114.115,114.115,0,0,0-9.376-10.222c-1.631-1.6-3.283-3.178-4.913-4.78a31.27,31.27,0,0,1-4.572-5.266,36.218,36.218,0,0,1-2.84-5.839,24.911,24.911,0,0,0-1.39-3.069c-.266-.458-.567-.894-.854-1.339a14.078,14.078,0,0,0-.772-1.251A.845.845,0,0,0,481.865,1737.863Z" transform="translate(-379.873 -1641.408)" fill="#f8b5ac" fill-rule="evenodd"></path><path d="M352.477,1803.516a5.914,5.914,0,0,0,1.348,2.115c.66.8,1.284,1.62,1.925,2.431q1.855,2.349,3.732,4.681,3.851,4.79,7.757,9.537c5.184,6.313,10.416,12.586,15.59,18.907,10.282,12.563,20.37,25.284,30.667,37.836,5.69,6.936,11.206,14.132,15.5,22.043a92.518,92.518,0,0,1-8.529-7.431c-.33-.339-.792-.814-1.313-.76-.607.063-.776.643-.618,1.146a6.186,6.186,0,0,0,.924,1.557c.575.825,1.2,1.615,1.845,2.385a29.988,29.988,0,0,1,4.084,5.5c-1.6-1.362-2.988-2.956-4.453-4.461-1.5-1.544-3-3.093-4.472-4.669q-4.434-4.752-8.618-9.727c-5.607-6.66-10.963-13.524-16.355-20.357q-8.124-10.3-16.412-20.461c-5.559-6.8-11.054-13.65-16.4-20.622-2.645-3.451-5.277-6.913-7.948-10.343-.645-.828-1.292-1.654-1.927-2.49a6.787,6.787,0,0,0-1.48-1.77.673.673,0,0,0-1.075.62c-.006.625.6,1.141.959,1.584,2.736,3.362,5.3,6.881,7.925,10.327,2.645,3.466,5.3,6.927,8,10.351,5.439,6.9,11.076,13.635,16.591,20.472,5.484,6.8,10.858,13.687,16.288,20.53s10.9,13.694,16.782,20.164c2.911,3.2,5.95,6.274,8.914,9.423a17.851,17.851,0,0,0,4.316,3.814c.551.289,1.5.556,1.96-.058.367-.494-.057-1.121-.358-1.529a24.075,24.075,0,0,1-1.346-2.376,20.115,20.115,0,0,0-1.861-2.606c1.5,1.256,2.835,2.808,4.623,3.674.589.286,1.555.642,2.041-.011.411-.552.014-1.25-.263-1.763a115.849,115.849,0,0,0-7.028-11.322c-5.312-7.606-11.428-14.594-17.264-21.79-5.862-7.229-11.664-14.506-17.523-21.736s-11.825-14.417-17.756-21.61q-4.443-5.389-8.844-10.812c-1.443-1.784-2.886-3.569-4.306-5.371-.7-.885-1.377-1.784-2.063-2.677a19.755,19.755,0,0,0-2.085-2.6A.859.859,0,0,0,352.477,1803.516Z" transform="translate(-201.821 -1666.521)" fill="#f8b5ac" fill-rule="evenodd"></path><path d="M425.208,1586.6a79.908,79.908,0,0,0-10.4,10.8c-3.173,3.84-6.178,7.816-9.082,11.863-5.774,8.048-11.183,16.364-17.312,24.153a100.11,100.11,0,0,1-9.969,11.029c-3.671,3.458-7.541,6.694-11.28,10.075-6.912,6.249-13.728,13.242-16.574,22.338a12.474,12.474,0,0,1-1.257,3.04c-.231.363-.591.8-.431,1.261a.7.7,0,0,0,.934.372c.922-.284,1.353-1.705,1.644-2.511.388-1.077.737-2.168,1.139-3.241a40.11,40.11,0,0,1,7.49-12.073c6.378-7.36,14.364-13.036,21.21-19.917,6.909-6.945,12.6-14.958,18.188-22.967,5.655-8.1,11.251-16.266,17.636-23.818a65.928,65.928,0,0,1,10.495-10.374c3.053-2.291,7.476-4.926,11.07-2.239a21.518,21.518,0,0,1,4.244,4.573,16.058,16.058,0,0,1,2.844,6.2c.9,4.466-.822,8.726-2.422,12.82a151.236,151.236,0,0,1-12.928,25.328c-2.609,4.147-5.515,8.1-8.493,11.988-3.03,3.955-6.164,7.831-9.455,11.571a141.533,141.533,0,0,1-10.457,10.738,59.2,59.2,0,0,1-11.933,8.633c-4.4,2.379-8.911,4.54-13.323,6.895s-8.808,4.734-13.156,7.2c-1.085.615-2.155,1.256-3.244,1.864a8.131,8.131,0,0,0-2.519,1.5.751.751,0,0,0,.634,1.3,3.016,3.016,0,0,0,1.308-.662c.534-.351,1.1-.658,1.649-.978,4.349-2.517,8.752-4.937,13.171-7.329,4.336-2.346,8.687-4.66,13.1-6.863,2.169-1.083,4.333-2.183,6.4-3.448a50.776,50.776,0,0,0,5.982-4.356c7.619-6.341,14.195-13.931,20.374-21.649a164.633,164.633,0,0,0,16.186-24.065c2.325-4.262,4.6-8.584,6.5-13.053.933-2.19,1.785-4.415,2.585-6.657a29.365,29.365,0,0,0,1.754-6.411,16.769,16.769,0,0,0-4-12.365,20.208,20.208,0,0,0-4.537-4.432,7.094,7.094,0,0,0-5.163-.939C430.542,1582.384,427.7,1584.522,425.208,1586.6Z" transform="translate(-219.784 -1581.669)" fill="#f8b5ac" fill-rule="evenodd"></path><path d="M309.393,1711.867c.417.663,1.085.588,1.756.445.97-.208,1.948-.384,2.922-.578a49.734,49.734,0,0,0,6.208-1.6,54.44,54.44,0,0,0,11.541-5.775c3.789-2.395,7.421-5.023,11.129-7.538q5.661-3.84,11.583-7.271A109.444,109.444,0,0,1,366.2,1683.5a62.356,62.356,0,0,1,12.077-3.763,61.252,61.252,0,0,1,12.307-1.356c3.168,0,7.162.456,9.068,3.352,1.7,2.585.6,5.532-.995,7.858-.978,1.432-2.138,2.741-3.249,4.069q-2.168,2.591-4.388,5.138c-2.944,3.356-6.013,6.6-9.162,9.765-3.175,3.19-6.5,6.222-9.667,9.424-3.193,3.233-6.082,6.752-9.189,10.066-3.073,3.276-6.325,6.395-9.648,9.415a135.011,135.011,0,0,1-21.2,16.145,86.213,86.213,0,0,1-11.839,5.813,67.274,67.274,0,0,1-11.614,4.064,18.875,18.875,0,0,1-10.918-.928,19.445,19.445,0,0,1-5.046-3.063c-1.712-1.408-3.144-3.065-4.709-4.624-.407-.406-1.408-1.295-1.723-.284-.286.917.823,1.7,1.386,2.231,1.468,1.387,2.812,2.862,4.414,4.106a20.739,20.739,0,0,0,10.4,4.341,25.04,25.04,0,0,0,11.016-1.57,123.465,123.465,0,0,0,12.183-4.858,107.143,107.143,0,0,0,21.889-14.357,167.232,167.232,0,0,0,19.615-18.7c2.973-3.368,5.929-6.693,9.171-9.808,3.264-3.137,6.544-6.245,9.679-9.513q4.656-4.854,9-9.988c1.416-1.669,2.871-3.322,4.2-5.064a13.719,13.719,0,0,0,2.415-4.421,7.159,7.159,0,0,0-3-8.294c-2.953-1.876-6.722-1.888-10.1-1.76a65.163,65.163,0,0,0-23.4,5.3,111.816,111.816,0,0,0-11.683,6.134q-5.806,3.384-11.377,7.15c-6.913,4.693-13.61,9.989-21.546,12.875a43.481,43.481,0,0,1-6.022,1.661c-.977.2-1.956.387-2.935.576C310.76,1710.806,309.6,1710.823,309.393,1711.867Z" transform="translate(-135.588 -1618.185)" fill="#f8b5ac" fill-rule="evenodd"></path><path d="M530.892,1812.1a52.705,52.705,0,0,0-9.942,10.595c-1.929,2.769-3.984,5.956-4.057,9.444a7.148,7.148,0,0,0,2.115,5.281,10.123,10.123,0,0,0,5.861,2.5,57.931,57.931,0,0,0,13.851.047,141.091,141.091,0,0,0,28.229-6.3,145.335,145.335,0,0,0,26.931-11.413,126.12,126.12,0,0,0,24.261-17.692,83.3,83.3,0,0,0,10.3-10.962c2.987-3.992,5.519-8.3,8.477-12.312.726-.985,1.48-1.951,2.27-2.885a8.643,8.643,0,0,0,1.871-2.329c.287-.838-.542-1.151-1.192-.765a7.069,7.069,0,0,0-1.63,1.814c-1.549,1.949-3.07,3.911-4.476,5.968-1.432,2.095-2.795,4.237-4.242,6.321-5.7,8.21-13.073,15.154-20.942,21.264a124.662,124.662,0,0,1-25.656,15.341,170.365,170.365,0,0,1-27.521,9.3c-8.994,2.287-18.3,4.007-27.613,3.344-3.649-.26-8.614-.92-9.262-5.368-.452-3.1,1.415-6.2,3.017-8.691a49.424,49.424,0,0,1,9.806-10.874,62.5,62.5,0,0,1,12.309-8.379c8.524-4.266,17.977-6.292,26.473-10.61,8.778-4.461,15.819-11.618,24.511-16.205a84.678,84.678,0,0,1,13.552-5.332c2.334-.757,4.67-1.515,6.961-2.4s4.463-1.984,6.693-3c2.019-.916,4.337-1.962,6.6-1.984.633-.006,1.785.179,1.926-.7.072-.445-.228-.7-.621-.816a7.522,7.522,0,0,0-3.593.314,26.666,26.666,0,0,0-4.74,1.7c-2.22,1-4.383,2.11-6.643,3.019-2.332.937-4.745,1.662-7.136,2.43a83.78,83.78,0,0,0-13.622,5.356c-8.746,4.619-15.8,11.856-24.664,16.295-8.513,4.266-17.94,6.318-26.453,10.592A64.983,64.983,0,0,0,530.892,1812.1Z" transform="translate(-516.89 -1651.654)" fill="#f8b5ac" fill-rule="evenodd"></path><path d="M525.836,1827.224c-3.3,2.723-5.879,6.177-8.437,9.575-2.622,3.483-5.289,6.934-8.05,10.309s-5.6,6.7-8.567,9.9-6.11,6.271-9.113,9.457a68.545,68.545,0,0,0-7.95,9.883,72,72,0,0,0-5.816,11.163,40.683,40.683,0,0,0-3.059,11.044c-.2,1.754-.168,3.738.975,5.191s3.1,2.049,4.84,2.387a21.452,21.452,0,0,0,10.8-1.142,58.516,58.516,0,0,0,11.2-5.361c3.8-2.252,7.424-4.773,11.14-7.156s7.5-4.586,11.345-6.715c7.613-4.215,15.4-8.151,22.724-12.864a104.706,104.706,0,0,0,20.076-16.765c5.494-5.9,11.057-12.156,13.237-20.1a30.224,30.224,0,0,0-1.46-20.166c-.4-.911-.847-1.807-1.285-2.7-.251-.512-.738-1.542-1.47-1.31-.695.22-.553,1.052-.284,1.533.461.825.941,1.617,1.345,2.476a28.6,28.6,0,0,1,2.728,11.13,31.05,31.05,0,0,1-6.411,19.293,101.276,101.276,0,0,1-8.228,9.62,102.729,102.729,0,0,1-9.4,8.741c-6.727,5.489-14.238,9.889-21.834,14.049-7.693,4.214-15.478,8.287-22.834,13.082-6.725,4.384-13.343,9.209-21.043,11.752-3.329,1.1-6.956,1.81-10.435,1.017-1.78-.406-3.742-1.108-4.157-3.1a14.4,14.4,0,0,1,.455-5.774,51.109,51.109,0,0,1,4.275-11.537,62.568,62.568,0,0,1,6.418-10.64,109.265,109.265,0,0,1,8.7-9.563c3.068-3.135,6.118-6.291,9.011-9.589q4.267-4.865,8.256-9.968c2.707-3.461,5.276-7.029,8.039-10.445a42.973,42.973,0,0,1,4.1-4.5c.461-.428,1.659-1.11,1.576-1.854A.815.815,0,0,0,525.836,1827.224Z" transform="translate(-432.056 -1669.921)" fill="#f8b5ac" fill-rule="evenodd"></path><path d="M546.767,1731.648a1.314,1.314,0,0,0,.276,2.031,4.054,4.054,0,0,0,3.012.489,4.309,4.309,0,0,1,2.958.289,11.681,11.681,0,0,1,2.493,2.872c.912,1.19,1.817,2.385,2.7,3.6.859,1.177,1.641,2.413,2.524,3.572,1.218,1.6,2.9,2.847,5.015,2.569,2.566-.337,4.6-2.495,6.7-3.821.539-.341,1.105-.606,1.665-.907.422-.227.975-.582.912-1.141-.155-1.366-2.151-.016-2.657.283-1.261.749-2.438,1.622-3.646,2.45a8.63,8.63,0,0,1-3.138,1.63c-2.594.469-4.173-2.731-5.382-4.483-.945-1.369-1.941-2.7-2.96-4.019a24.338,24.338,0,0,0-3.048-3.668,9.887,9.887,0,0,0-3.834-2.014C549.27,1731.087,547.7,1730.83,546.767,1731.648Z" transform="translate(-468.989 -1638.968)" fill="#f8b5ac" fill-rule="evenodd"></path><path d="M511.328,1709.939c.644.79,1.568.379,2.285-.061,1.1-.672,2.221-1.315,3.284-2.038a9.688,9.688,0,0,0,4.291-5.637c.54-2.5-.555-4.982-1.89-7.043-1.524-2.352-3.575-4.367-4.98-6.792a4.658,4.658,0,0,1-.658-1.69c-.091-.684-.01-1.39-.046-2.079a14.6,14.6,0,0,0-.377-3.671c-.3-.927-1.274-1.851-2.25-1.157-.943.67-.809,2.093-.557,3.068a25.983,25.983,0,0,0,3.409,7.5c1.6,2.438,3.744,4.5,5.029,7.144a6.362,6.362,0,0,1-.445,6.913,12.885,12.885,0,0,1-3.622,3.01c-.736.449-1.482.9-2.256,1.274C511.944,1708.976,511.383,1709.182,511.328,1709.939Zm.465-28.507c.045.237.053.484.076.724A2.38,2.38,0,0,1,511.793,1681.432Z" transform="translate(-393.008 -1619.194)" fill="#f8b5ac" fill-rule="evenodd"></path><path d="M552.3,1707.323c-.4.432-.068.908.218,1.289a7.623,7.623,0,0,1,1.11,1.846c-.805-.58-3.091-3.25-4.26-1.934-.448.5-.124,1.251.174,1.742a10.2,10.2,0,0,1,1.538,2.5c-.839-.569-1.4-1.466-2.237-2.041-.578-.4-1.771-.765-2.183.069-.3.614.155,1.467.435,2,.329.628.776,1.195,1.088,1.83-.724-.369-1.209-1.121-2-1.406-.347-.125-.658-.115-.842.243-.3.6.163,1.138.591,1.506.77.663,2.278,1.8,3.333,1.231,1.268-.685.367-2.2-.152-3.061.741.694,2.161,2.014,3.216,1.121.874-.739.152-2.353-.314-3.128.7.612,1.69,1.417,2.65.839.844-.509.65-1.627.311-2.386C554.678,1708.909,553.318,1706.224,552.3,1707.323Z" transform="translate(-448.529 -1629.752)" fill="#f8b5ac" fill-rule="evenodd"></path><path d="M534.921,1714.784c-1.188,1-1.928,2.957-.8,4.274a3.653,3.653,0,0,0,4.67.49,3.008,3.008,0,0,0,.621-4.286A3.131,3.131,0,0,0,534.921,1714.784Zm1.032,1.146c1.173-.962,3.155.443,2.427,1.852a2.056,2.056,0,0,1-2.694.617C534.634,1717.774,535.2,1716.545,535.952,1715.931Z" transform="translate(-426.094 -1632.431)" fill="#f8b5ac" fill-rule="evenodd"></path><path d="M547.662,1725.56c-1.195,1.008-1.847,2.9-.676,4.175a3.2,3.2,0,0,0,4.4.124c1.148-1,1.757-2.745.636-3.993A3.138,3.138,0,0,0,547.662,1725.56Zm1.066,1.118a1.584,1.584,0,0,1,2.219.278c.488.653-.077,1.408-.617,1.821a1.634,1.634,0,0,1-2.3-.19C547.6,1727.925,548.192,1727.078,548.728,1726.678Z" transform="translate(-446.562 -1636.562)" fill="#f8b5ac" fill-rule="evenodd"></path><path d="M537.18,1728.194c-.445.478-.253,1.263-.273,1.849a4.769,4.769,0,0,1-.665,2.279,16.344,16.344,0,0,1-3.31,3.487c-1.848,1.683-4.161,3.656-6.825,3.551a7.135,7.135,0,0,0-1.775-.2.722.722,0,0,0-.287,1.312c.943.786,2.649.479,3.726.224,3.179-.752,5.666-3.109,7.908-5.349a8.565,8.565,0,0,0,2.664-4.309,5.183,5.183,0,0,0,.147-2.428C538.294,1728.03,537.657,1727.69,537.18,1728.194Z" transform="translate(-418.584 -1637.761)" fill="#f8b5ac" fill-rule="evenodd"></path><path d="M478.954,1740.025c-.741.846.79,1.821,1.326,2.273a49,49,0,0,1,3.794,3.839c1.388,1.467,2.767,2.944,4.221,4.347,1.38,1.332,2.823,2.6,4.188,3.946,2.813,2.775,5.342,5.823,7.868,8.857a99.788,99.788,0,0,0,7.647,8.861,26.316,26.316,0,0,0,4.517,3.26c1.318.8,2.726,1.754,4.349,1.538a4.124,4.124,0,0,0,3.344-2.935,8.232,8.232,0,0,0-.307-4.384c-.959-3.477-3.072-6.451-5.223-9.287-2.374-3.129-4.7-6.29-6.925-9.527-2.252-3.276-4.592-6.489-6.91-9.717-1.114-1.552-2.163-3.146-3.227-4.731-1.106-1.648-2.379-3.176-3.494-4.816a7.005,7.005,0,0,1-.625-1.118,2.657,2.657,0,0,0-.52-.949.773.773,0,0,0-1.318.361,2.931,2.931,0,0,0,.717,1.867c.521.8,1.089,1.556,1.677,2.306,2.358,3.009,4.294,6.329,6.575,9.4,2.345,3.157,4.577,6.389,6.8,9.634,2.247,3.287,4.676,6.436,7.043,9.636,2.045,2.765,3.961,5.85,4.292,9.356.131,1.391-.242,2.88-1.749,3.3-1.31.365-2.531-.547-3.586-1.193a25.325,25.325,0,0,1-4.451-3.192,55.785,55.785,0,0,1-3.9-4.411c-2.5-2.967-4.924-5.992-7.486-8.9-2.6-2.954-5.489-5.626-8.316-8.358-2.782-2.689-5.419-5.546-8.125-8.312C480.667,1740.483,479.685,1739.23,478.954,1740.025Z" transform="translate(-372.659 -1638.259)" fill="#f8b5ac" fill-rule="evenodd"></path><path d="M486.853,1741.686c-.827.953,1.1,2.227,1.686,2.734,1.705,1.475,3.341,3.048,5.019,4.557a91.091,91.091,0,0,1,10,10.868,140.807,140.807,0,0,0,9.751,11.007,21.01,21.01,0,0,0,2.641,2.293,3.387,3.387,0,0,0,2.431.847c1.482-.251.932-2.183.607-3.139a22.219,22.219,0,0,0-2.88-5.358c-1.366-1.985-2.773-3.943-4.149-5.921-2.822-4.057-5.672-8.1-8.744-11.971a64.689,64.689,0,0,1-4.451-5.952c-.62-1-1.16-2.042-1.729-3.07a17.58,17.58,0,0,0-1.327-2.368,1.175,1.175,0,0,0-.814-.537.763.763,0,0,0-.811.848,3.367,3.367,0,0,0,.678,1.249c.324.513.631,1.037.929,1.567a54.946,54.946,0,0,0,3.914,6.17c2.962,3.937,6.042,7.781,8.89,11.8,1.437,2.029,2.847,4.076,4.272,6.113a52.606,52.606,0,0,1,3.913,5.941,12.438,12.438,0,0,1,1.158,3.056,7.974,7.974,0,0,1-2.9-2.117c-1.031-1.025-2.009-2.1-2.995-3.168-2.081-2.257-4.16-4.512-6.093-6.9s-3.793-4.816-5.847-7.092a84.8,84.8,0,0,0-6.538-6.318c-1.248-1.115-2.512-2.218-3.709-3.388C489.244,1742.94,487.772,1740.7,486.853,1741.686Z" transform="translate(-376.494 -1640.724)" fill="#f8b5ac" fill-rule="evenodd"></path><path d="M498.524,1741.283c-.869.882.962,2.307,1.494,2.859,1.64,1.7,3.051,3.689,4.512,5.543,3.147,3.991,6.218,8.05,9.547,11.893.836.965,1.721,1.9,2.493,2.914.355.468.684.955,1.054,1.411.28.345.657.876,1.13.966a.76.76,0,0,0,.877-.612c.1-.528-.369-.908-.691-1.254-.806-.864-1.463-1.88-2.225-2.786-1.618-1.922-3.3-3.782-4.876-5.741s-3.113-3.936-4.66-5.912c-1.766-2.256-3.563-4.486-5.36-6.717-.549-.681-1.054-1.428-1.648-2.072C499.773,1741.344,499.082,1740.738,498.524,1741.283Z" transform="translate(-383.953 -1642.791)" fill="#f8b5ac" fill-rule="evenodd"></path><path d="M468.876,1721.8c-.512.576-.363,1.528-.351,2.233a6.419,6.419,0,0,0,.449,2.624c.716,1.551,2.318,1.908,3.878,1.613a11.229,11.229,0,0,0,2.671-.938c.38-.179,1.449-.987,1.917-.749.6.3.16,1.649.009,2.093-.328.966-.789,1.883-1.207,2.811-.587,1.306-1.306,2.888-.962,4.352a2.379,2.379,0,0,0,3.107,1.649,13.624,13.624,0,0,0,3.971-2.014,12.27,12.27,0,0,1,2.364-1.259c.71-.257,1.821-.575,1.5.6a7.66,7.66,0,0,1-1.435,2.483c-.641.844-1.324,1.654-1.983,2.483-.307.387-.6.782-.922,1.162a1.878,1.878,0,0,0-.583.956c-.08.917.99.948,1.485.448a27.736,27.736,0,0,0,1.82-2.366c.589-.745,1.217-1.46,1.774-2.231.856-1.185,2.19-3.418.957-4.788s-3.687.035-4.9.709a42.171,42.171,0,0,1-3.749,2.12,2.092,2.092,0,0,1-1.471.234c-.567-.225-.555-.97-.472-1.476.293-1.775,1.461-3.382,2.073-5.055.458-1.252.887-3.229-.4-4.159-1.144-.827-2.754.239-3.812.749-1.155.557-3.357,1.559-4.205.019a3.993,3.993,0,0,1-.31-2.1,5.092,5.092,0,0,0,.059-1.848C469.937,1721.585,469.328,1721.313,468.876,1721.8Z" transform="translate(-333.772 -1635.307)" fill="#f8b5ac" fill-rule="evenodd"></path><path d="M440.484,1703.463c-1.326,1.1-2.712,2.489-4.373,3.073-.788.277-.7-.394-.511-.974.245-.742.583-1.479.9-2.192a74.441,74.441,0,0,1,5.209-8.938c.784-1.253,1.9-2.8,1.745-4.36-.157-1.616-1.639-2.064-3.023-1.652a16.911,16.911,0,0,0-4.057,2.3,46.58,46.58,0,0,0-4.353,3.136,43.606,43.606,0,0,1-4.086,3.135,13.659,13.659,0,0,1-2.3,1.2,3.051,3.051,0,0,1-2.112.352c-1.407-.593-.707-3.521-.5-4.6a22.881,22.881,0,0,1,1.533-4.879c.347-.792.7-1.586,1.085-2.361.278-.559.97-1.378.789-2.063-.2-.769-1.086-.53-1.439-.048a11.716,11.716,0,0,0-1,1.981,28.161,28.161,0,0,0-2.673,8.524c-.262,2.165-.036,5.127,2.818,5.056a8.488,8.488,0,0,0,3.972-1.516,42.763,42.763,0,0,0,4.6-3.38c1.4-1.118,2.849-2.157,4.34-3.152.752-.5,1.492-1.025,2.279-1.473a5.123,5.123,0,0,1,2.061-.863c1.583-.032-.454,2.943-.724,3.377-.959,1.544-1.922,3.086-2.86,4.643-.9,1.5-1.771,3.01-2.524,4.585-.581,1.217-1.477,2.746-1.37,4.148.279,3.649,5.107.174,6.279-.745,2.289-1.8,4.384-4.036,7.065-5.264.509-.233,1.72-.748,1.7.239-.027,1.467-1.031,3.036-1.692,4.288a48.922,48.922,0,0,1-6.157,8.691c-.332.392-.663.9-.208,1.344.414.4.9.167,1.263-.167a13.122,13.122,0,0,0,1.216-1.464c.647-.8,1.3-1.6,1.919-2.419a36.213,36.213,0,0,0,2.888-4.434,21.434,21.434,0,0,0,2.091-4.722c.368-1.411.088-3.161-1.681-3.239a6.808,6.808,0,0,0-3.826,1.523A50.319,50.319,0,0,0,440.484,1703.463Z" transform="translate(-267.224 -1620.966)" fill="#f8b5ac" fill-rule="evenodd"></path><path d="M411.685,1660.7a22.268,22.268,0,0,0-3.393,4.217c-.432.611-1.78,2.443-2.8,2.008-.492-.21-.522-1.032-.541-1.471a8.84,8.84,0,0,1,.216-2.263,36.477,36.477,0,0,1,1.663-4.921c.518-1.384,3.478-8.1-.046-7.809-1.367.112-2.417,1.25-3.265,2.219-1.171,1.338-2.184,2.8-3.228,4.236a17.2,17.2,0,0,1-3.543,3.873c-.5.367-1.78,1.3-2.342.58-.335-.427-.184-1.2-.092-1.683a9.61,9.61,0,0,1,.753-2.156c.708-1.55,1.509-3.052,2.323-4.548.84-1.543,1.667-3.09,2.361-4.7a20.984,20.984,0,0,0,1.577-4.538c.2-1.116.152-3.047-1.331-3.245-1.3-.175-2.383,1.11-3.128,2-1.062,1.265-2.15,2.506-3.213,3.77-1.183,1.407-2.276,2.884-3.438,4.307a21,21,0,0,1-3.688,3.813c-.353.256-.967.72-1.417.42-.512-.342-.358-1.42-.32-1.927a20.889,20.889,0,0,1,1.218-4.758c.546-1.695,1.1-3.392,1.7-5.067a12.777,12.777,0,0,0,.764-1.944c.117-.661-.438-1.4-1.126-.941-.546.365-.729,1.33-.937,1.9q-.48,1.318-.938,2.644c-.584,1.695-1.133,3.4-1.623,5.127a10.056,10.056,0,0,0-.543,4.521,2.151,2.151,0,0,0,2.564,1.985c1.608-.359,2.931-1.853,3.993-3.011,2.426-2.644,4.5-5.6,6.836-8.324.52-.6,1.06-1.184,1.6-1.765a4.218,4.218,0,0,1,1.111-1.069c.848-.379.419,1.242.332,1.6a31.352,31.352,0,0,1-3.209,7.547c-1.482,2.694-3.409,5.568-3.811,8.684-.168,1.305.213,2.919,1.715,3.207a4.291,4.291,0,0,0,3.136-1.139c2.7-2.021,4.389-5.079,6.493-7.655.733-.9,1.6-2.279,2.865-2.428a7.363,7.363,0,0,1-.485,2.609c-.3,1.012-.611,2.021-.985,3.01a34.182,34.182,0,0,0-1.864,5.552c-.292,1.506-.531,3.563.62,4.787,1.023,1.089,2.64.429,3.662-.317a10.606,10.606,0,0,0,2.228-2.614,23.24,23.24,0,0,1,2.274-2.857c-.306,1.937-1.576,3.589-2.666,5.158-.293.421-.85,1.111-.565,1.657.43.827,1.277.16,1.628-.318a18.632,18.632,0,0,0,2.878-5.158c.257-.807.6-2,.123-2.784C413.274,1659.873,412.3,1660.171,411.685,1660.7Z" transform="translate(-207.375 -1604.044)" fill="#f8b5ac" fill-rule="evenodd"></path><path d="M368.862,1601.97c-2.808,2.411-3.807,6.226-6.474,8.762a5.535,5.535,0,0,1-2.636,1.736c-1.713.247-1.687-2.562-1.694-3.656a30.4,30.4,0,0,1,.7-5.887c.189-.983.375-1.966.626-2.935.139-.538.38-1.343-.206-1.7-.764-.469-1.159.409-1.279,1.006-.208,1.027-.406,2.059-.6,3.088a38.94,38.94,0,0,0-.753,5.527c-.088,1.884-.025,5.669,2.451,6.066,1.622.26,3.267-.972,4.361-2.021a21.586,21.586,0,0,0,3.437-4.695,28.142,28.142,0,0,1,1.66-2.558,5.679,5.679,0,0,1,1.987-1.92c1.49-.633,2.266.892,2.371,2.137a11.484,11.484,0,0,1-.991,4.814c-.61,1.613-1.376,3.162-2,4.768a13.944,13.944,0,0,0-1.181,4.821c-.012,1.353.469,3.133,2.1,3.193,1.715.063,3.114-1.7,4-2.954,1.147-1.624,2.1-3.376,3.254-5a7.628,7.628,0,0,1,1.992-2.2,9.569,9.569,0,0,1-.036,3.148c-.092,1.158-.178,2.317-.2,3.479-.009.552-.1,1.53.38,1.929a.7.7,0,0,0,.86-.024c.467-.368.34-1.191.334-1.706-.016-1.252.089-2.5.189-3.747a10.233,10.233,0,0,0,0-3.331c-.16-.629-.516-1.317-1.242-1.36a2.641,2.641,0,0,0-1.666.724c-1.649,1.322-2.724,3.43-3.828,5.189a20.961,20.961,0,0,1-2.128,3.045c-.415.455-1.037,1.216-1.682,1.32-1.629.263-.319-4.328-.118-4.92.8-2.341,1.951-4.542,2.75-6.882.674-1.975,1.312-4.432.243-6.391A3.234,3.234,0,0,0,368.862,1601.97Z" transform="translate(-158.56 -1587.99)" fill="#f8b5ac" fill-rule="evenodd"></path><path d="M361.935,1587.921a5.235,5.235,0,0,0-1.534,4.97c.459,1.921,2.607,2.75,4.409,2.662a4.563,4.563,0,0,0,4.206-3.216,4.171,4.171,0,0,0-1.748-4.527A4.5,4.5,0,0,0,361.935,1587.921Zm1.047,1.133a3.035,3.035,0,0,1,4.147.713,2.676,2.676,0,0,1-.888,3.822c-1.139.651-3.152.709-4.043-.4C361.27,1592.031,361.923,1589.915,362.982,1589.054Z" transform="translate(-148.37 -1583.71)" fill="#f8b5ac" fill-rule="evenodd"></path><path d="M378.419,1593.343a2.848,2.848,0,0,0-.134,4,2.555,2.555,0,0,0,3.784.12,2.792,2.792,0,0,0,.176-3.81A2.7,2.7,0,0,0,378.419,1593.343Zm1.031,1.146a1.206,1.206,0,0,1,1.914.692,1.334,1.334,0,0,1-.957,1.535A1.313,1.313,0,0,1,379.45,1594.489Z" transform="translate(-172.765 -1585.896)" fill="#f8b5ac" fill-rule="evenodd"></path><path d="M354.36,1601.054a2.986,2.986,0,0,0,3.712,4.678,3.17,3.17,0,0,0,.7-4.061A3.03,3.03,0,0,0,354.36,1601.054Zm.982,1.2c.8-.352,1.8-.619,2.215.393a1.507,1.507,0,0,1-1.039,2.135C355.162,1604.974,354.13,1603.133,355.341,1602.259Z" transform="translate(-134.122 -1588.841)" fill="#f8b5ac" fill-rule="evenodd"></path><path d="M315.023,1710.7a3.006,3.006,0,0,0,.3,4.492,3.769,3.769,0,0,0,4.846-.355,3.125,3.125,0,0,0-.377-4.4A3.669,3.669,0,0,0,315.023,1710.7Zm1.044,1.136a2.14,2.14,0,0,1,2.619-.326,1.584,1.584,0,0,1,.347,2.276,2.292,2.292,0,0,1-2.639.327C315.7,1713.637,315.314,1712.431,316.067,1711.835Zm.515-1.958-.013.005" transform="translate(-71.691 -1630.75)" fill="#f8b5ac" fill-rule="evenodd"></path><path d="M347.686,1745.083a3.006,3.006,0,0,0,.308,4.5,3.771,3.771,0,0,0,4.829-.351,3.122,3.122,0,0,0-.351-4.4A3.667,3.667,0,0,0,347.686,1745.083Zm1.042,1.137a2.142,2.142,0,0,1,2.624-.326,1.583,1.583,0,0,1,.342,2.277,2.291,2.291,0,0,1-2.636.324C348.363,1748.021,347.98,1746.819,348.728,1746.22Zm.51-1.956,0,0" transform="translate(-124.491 -1643.934)" fill="#f8b5ac" fill-rule="evenodd"></path><path d="M375.564,1772.529a3.005,3.005,0,0,0,.313,4.5,3.776,3.776,0,0,0,4.837-.364,3.133,3.133,0,0,0-.387-4.413A3.67,3.67,0,0,0,375.564,1772.529Zm1.042,1.136a2.139,2.139,0,0,1,2.623-.326,1.582,1.582,0,0,1,.342,2.277,2.291,2.291,0,0,1-2.636.324C376.24,1775.466,375.857,1774.264,376.605,1773.665Zm.51-1.956,0,0" transform="translate(-169.557 -1654.458)" fill="#f8b5ac" fill-rule="evenodd"></path><path d="M406.155,1795.064a3,3,0,0,0,.322,4.509,3.773,3.773,0,0,0,4.848-.4,3.127,3.127,0,0,0-.391-4.372A3.66,3.66,0,0,0,406.155,1795.064Zm1.042,1.136a2.166,2.166,0,0,1,2.567-.371,1.616,1.616,0,0,1,.452,2.273,2.265,2.265,0,0,1-2.731.342C406.821,1797.958,406.461,1796.786,407.2,1796.2Zm.51-1.956,0,0" transform="translate(-219.009 -1663.1)" fill="#f8b5ac" fill-rule="evenodd"></path><path d="M392.62,1708.472c-1.668,1.44-2.014,4.117.277,5.111,2.009.872,4.339.3,6.407-.014a15.721,15.721,0,0,1,3.795-.218c.711.065,2.284.158,1.454,1.184a7.253,7.253,0,0,1-2.924,1.831c-1.4.572-2.869,1.015-4.319,1.451-2.857.861-5.773,1.511-8.637,2.347a29.2,29.2,0,0,0-8.207,3.366c-1.4.942-3.395,2.652-3.132,4.573.33,2.416,4.135,2.723,5.98,3.024a22.032,22.032,0,0,1,3.759.716c1.405.5-.555,1.846-1.123,2.195-2.387,1.467-5.384,2-8.117,2.379-2.8.386-5.632.54-8.4,1.136-2.44.525-5.442,1.356-7.068,3.4-1.224,1.54.049,2.915,1.364,3.814.634.433,1.306.816,1.976,1.191s1.845.9,1.924,1.77c.092,1-1.274,1.651-2.016,1.977a12.568,12.568,0,0,1-3.585.922c-2.681.319-5.406.127-8.1.211a26.479,26.479,0,0,0-6.9.975c-1.4.425-3.726,1.193-4.009,2.887-.406,2.421,3.378,3.52,4.852,4.621,1.119.836-.847,1.507-1.537,1.715a22.671,22.671,0,0,1-4.072.8c-5.844.639-11.6-.426-17.323-1.5-1.472-.276-2.947-.535-4.427-.768-.621-.1-1.24-.2-1.86-.308-.473-.08-1.15-.2-1.548.152a.75.75,0,0,0,.21,1.213,5.929,5.929,0,0,0,1.827.289c1.464.2,2.921.456,4.374.721,5.733,1.047,11.429,2.205,17.29,1.875a17.519,17.519,0,0,0,7.4-1.681,3.114,3.114,0,0,0,1.689-1.686c.284-1.114-.884-2.03-1.7-2.539-.741-.461-4.832-2.007-3.138-3.233a10.848,10.848,0,0,1,3.72-1.417,24.025,24.025,0,0,1,4.242-.553c2.8-.146,5.61.029,8.407-.191,2.446-.192,5.493-.715,7.1-2.789,1.95-2.52-1.213-4.313-3.077-5.4-.633-.37-2.67-1.284-1.818-2.239a6.2,6.2,0,0,1,1.477-1.01,13.4,13.4,0,0,1,1.914-.917,32.68,32.68,0,0,1,8.216-1.612,44.342,44.342,0,0,0,8.471-1.557,12.421,12.421,0,0,0,3.828-1.872,3.544,3.544,0,0,0,1.656-2.687c-.066-1.385-1.77-1.8-2.865-2.044-1.332-.3-2.694-.451-4.038-.685s-4.389-.78-3.044-2.717a10.718,10.718,0,0,1,4.313-3.1,50.073,50.073,0,0,1,8.437-2.739c2.794-.733,5.593-1.446,8.347-2.324a14.959,14.959,0,0,0,3.859-1.719c.941-.634,2.15-1.657,2.224-2.887.148-2.47-3.971-2.3-5.5-2.115-2.3.281-5,1.162-7.288.4-1.482-.494-.8-1.882.043-2.631a22.082,22.082,0,0,1,3.644-2.239c2.617-1.543,5.249-3,7.976-4.347a79.6,79.6,0,0,0,8.061-4.346c1.261-.813,2.514-1.622,3.809-2.38a13.513,13.513,0,0,0,3.393-2.453,2.3,2.3,0,0,0,.471-2.771,4.037,4.037,0,0,0-2.406-1.4,17.147,17.147,0,0,0-7.124.02,52.762,52.762,0,0,0-8.38,1.926,74.753,74.753,0,0,0-15.935,7.988c-5.235,3.292-10.335,6.8-15.578,10.076a145.3,145.3,0,0,1-16.107,8.821c-5.58,2.577-11.345,4.734-17.142,6.767-5.768,2.022-11.574,3.937-17.427,5.7-2.921.878-5.851,1.727-8.8,2.491-1.446.375-2.9.707-4.361,1.006-.629.128-3.52.373-2.81,1.631.269.477.9.407,1.354.328.694-.121,1.384-.316,2.072-.47,1.5-.338,3-.71,4.489-1.1,2.988-.781,5.955-1.638,8.91-2.535q8.876-2.695,17.626-5.787c5.73-2.024,11.423-4.174,16.943-6.723a144.8,144.8,0,0,0,16.176-8.885c5.3-3.324,10.454-6.878,15.758-10.2a70.933,70.933,0,0,1,15.661-7.76,53.506,53.506,0,0,1,8.551-1.8c2.126-.317,4.576-.737,6.578.3.916.473.728,1.083.035,1.687a21.42,21.42,0,0,1-3.271,2.154c-2.628,1.548-5.123,3.27-7.845,4.661-2.66,1.359-5.378,2.606-7.991,4.056-1.22.677-2.4,1.421-3.6,2.133A25.749,25.749,0,0,0,392.62,1708.472Z" transform="translate(-166.361 -1622.927)" fill="#f8b5ac" fill-rule="evenodd"></path><path d="M438.523,1724.857a4.113,4.113,0,0,0-1.339.661c-.676.368-1.4.67-2.093,1q-2.062.969-4.131,1.924-4.185,1.931-8.387,3.822c-5.477,2.467-11.007,4.833-16.672,6.84-5.647,2-11.417,3.622-17.205,5.154-2.9.767-5.777,1.6-8.7,2.249-2.9.646-5.836,1.152-8.775,1.607q-5.012.775-10.043,1.413c-1.689.215-3.378.427-5.065.655-.781.105-1.56.194-2.346.25-.222.015-.988.2-1.136.019m37.479,18.02a2.169,2.169,0,0,0-.445-.007,9.573,9.573,0,0,1-1.009-.176q-1.07-.2-2.135-.43c-1.43-.3-2.858-.612-4.277-.956a60.178,60.178,0,0,1-7.9-2.456,76.052,76.052,0,0,1-14.415-7.821c-2.686-1.806-5.339-3.667-7.838-5.727m56.431,4.93a6.212,6.212,0,0,0-2.159.169c-1.033.1-2.067.175-3.1.263q-2.872.245-5.744.483c-3.855.32-7.709.678-11.572.889a78.481,78.481,0,0,1-10.936-.3,61,61,0,0,1-10.582-1.75,80.167,80.167,0,0,1-11.855-4.365m71.724-10.571c-.047.367-.539.553-.813.713-.509.3-1.022.581-1.551.841-1.147.564-2.318,1.078-3.5,1.563-2.312.949-4.665,1.8-7.035,2.6a89,89,0,0,1-14.021,3.379,182.2,182.2,0,0,1-29.1,2.825c-2.761,0-5.521-.072-8.273-.3a22.387,22.387,0,0,1-7.305-1.438" transform="translate(-212.689 -1636.576)" fill="#f8b5ac"></path><path d="M600.1,1938.591a3.638,3.638,0,0,0-1.1,4.563,3.1,3.1,0,0,0,4.31,1.153,3.763,3.763,0,0,0,1.2-4.686A2.99,2.99,0,0,0,600.1,1938.591Zm1.033,1.145c.722-.576,1.742.031,2.088.751a2.229,2.229,0,0,1-.863,2.611,1.622,1.622,0,0,1-2.139-.93A2.21,2.21,0,0,1,601.131,1939.735Zm-2.038.112" transform="translate(-531.033 -1718.303)" fill="#f8b5ac" fill-rule="evenodd"></path><path d="M559.718,1913.7a3.593,3.593,0,0,0-.972,4.681,3.084,3.084,0,0,0,4.228,1,3.754,3.754,0,0,0,1.166-4.7A2.976,2.976,0,0,0,559.718,1913.7Zm1.048,1.131c.742-.611,1.808.033,2.133.8a2.24,2.24,0,0,1-.879,2.54,1.605,1.605,0,0,1-2.112-.838A2.171,2.171,0,0,1,560.766,1914.834Zm-2.017.1" transform="translate(-465.812 -1708.748)" fill="#f8b5ac" fill-rule="evenodd"></path><path d="M527.171,1892.01a3.611,3.611,0,0,0-1.041,4.665,3.076,3.076,0,0,0,4.361.971,3.763,3.763,0,0,0,1.072-4.626A2.983,2.983,0,0,0,527.171,1892.01Zm1.03,1.147c.725-.585,1.756.038,2.094.768a2.234,2.234,0,0,1-.819,2.563,1.6,1.6,0,0,1-2.137-.784A2.158,2.158,0,0,1,528.2,1893.157Zm-2.036.11" transform="translate(-413.142 -1700.44)" fill="#f8b5ac" fill-rule="evenodd"></path><path d="M498.852,1866.688a3.642,3.642,0,0,0-1.12,4.537,3.092,3.092,0,0,0,4.415,1.112,3.734,3.734,0,0,0,1.042-4.726A2.969,2.969,0,0,0,498.852,1866.688Zm1.03,1.147c.726-.585,1.758.039,2.095.77a2.238,2.238,0,0,1-.813,2.556,1.588,1.588,0,0,1-2.131-.758A2.149,2.149,0,0,1,499.882,1867.835Zm-2.036.11" transform="translate(-367.358 -1690.73)" fill="#f8b5ac" fill-rule="evenodd"></path><path d="M572.577,1800.729c-.588,5.645-.2,11.344-.834,16.986a35.414,35.414,0,0,1-1.774,8.1,15.076,15.076,0,0,1-1.851,3.8,4.023,4.023,0,0,1-.9,1.049c-.538.324-.769-.412-.9-.82-.5-1.586-.782-4.091-2.361-5.016-2.05-1.2-3.808,1.607-4.6,3.077a29.176,29.176,0,0,0-2.612,7.391,50.97,50.97,0,0,1-2.026,7.974c-.506,1.242-2.874,5.778-4.364,3.09-.874-1.577-.937-3.512-2.014-5-1.586-2.184-3.795-.137-5.021,1.32a23.016,23.016,0,0,0-3.79,7.449,75.82,75.82,0,0,1-2.952,7.957,25.035,25.035,0,0,1-2.079,3.6,6.073,6.073,0,0,1-1.225,1.375c-.311.239-1.052.741-1.443.4-.321-.282-.248-1.1-.257-1.463-.018-.752.017-1.506.05-2.257a28.952,28.952,0,0,0,0-4.085,3.523,3.523,0,0,0-1.491-2.926,2.807,2.807,0,0,0-2.393.02c-2.059.822-3.666,2.712-4.926,4.456a57.112,57.112,0,0,0-4.419,7.71c-1.352,2.667-2.668,5.353-4.186,7.931a11.391,11.391,0,0,1-2.57,3.293c-.279.22-.785.639-1.176.549-.546-.125-.331-1.005-.3-1.412.194-2.388,1.393-4.485,2.041-6.754.541-1.895.858-5.057-1.618-5.729-2.686-.729-4.874,2.652-6.37,4.321-2.039,2.277-4.021,4.589-5.921,6.985s-3.8,4.706-5.911,6.9c-1.033,1.075-2.064,2.149-3.061,3.258-.774.86-1.718,2.125-2.85,2.528-1.193.425-1.129-1.61-1.122-2.32a12.045,12.045,0,0,1,.639-3.5,52.56,52.56,0,0,1,2.922-7.313,60.34,60.34,0,0,1,10.223-14.061c4.158-4.486,8.6-8.7,12.889-13.062a162.73,162.73,0,0,0,12.126-13.59,164.967,164.967,0,0,0,10.322-15.02q4.809-7.762,9.262-15.74c2.951-5.281,5.848-10.616,8.31-16.146.28-.628,1.468-2.454.139-2.706-.549-.1-.866.364-1.044.808-.259.641-.495,1.284-.786,1.914-1.284,2.784-2.657,5.525-4.083,8.239-2.84,5.4-5.857,10.719-8.964,15.973-3.069,5.187-6.216,10.336-9.641,15.3a134.257,134.257,0,0,1-11.3,14.172c-4.087,4.482-8.437,8.707-12.72,13A114.354,114.354,0,0,0,491.8,1865.99a48.862,48.862,0,0,0-7.448,15.089c-.573,1.966-1.136,4.631.129,6.464.975,1.413,2.7.62,3.814-.173,1.891-1.352,3.3-3.35,4.923-4.993a79.108,79.108,0,0,0,5.934-6.892c1.89-2.413,3.9-4.715,5.935-7,.965-1.082,1.87-2.261,2.911-3.27.686-.664,2.1-1.546,2.826-.437.621.945.08,2.446-.207,3.42-.416,1.412-.977,2.774-1.418,4.178-.482,1.533-1.576,5.956,1.291,5.855,2.538-.09,4.151-3.08,5.275-4.969,1.438-2.417,2.65-4.959,3.9-7.474a55.484,55.484,0,0,1,4.26-7.462,16.261,16.261,0,0,1,2.81-3.219c.647-.529,2.224-1.624,2.964-.7a3.258,3.258,0,0,1,.424,1.723,18.475,18.475,0,0,1,.022,2.131c-.047,1.369-.208,2.749-.127,4.119.061,1.03.28,2.421,1.477,2.695a3.616,3.616,0,0,0,2.959-1.024,16.723,16.723,0,0,0,3.884-6.035c1.148-2.6,1.916-5.323,2.86-7.994a18.528,18.528,0,0,1,4.116-7.231c.289-.285.724-.817,1.16-.866.541-.06.785.514.959.927.475,1.125.665,2.348,1.116,3.482a3.687,3.687,0,0,0,2.229,2.4,2.882,2.882,0,0,0,2.421-.652,10.866,10.866,0,0,0,3.438-5.64c.814-2.629,1.213-5.369,1.9-8.032.678-2.637,1.6-5.558,3.458-7.627.231-.258.558-.6.938-.574.538.033.823.745,1,1.16.51,1.166.659,2.455,1.22,3.6.474.97,1.321,1.83,2.458,1.285a5.926,5.926,0,0,0,2.128-2.327,24.153,24.153,0,0,0,2.816-7.7,51.372,51.372,0,0,0,1.02-8.429c.141-2.853.147-5.712.246-8.567.046-1.332.145-2.656.25-3.984.038-.482-.021-1.107-.619-1.2A.869.869,0,0,0,572.577,1800.729Z" transform="translate(-429.418 -1658.99)" fill="#f8b5ac" fill-rule="evenodd"></path><path d="M501.578,1864.51a4.157,4.157,0,0,1,.922-1.174c.5-.586.941-1.229,1.405-1.844q1.372-1.819,2.73-3.649,2.748-3.7,5.46-7.426c3.538-4.855,6.987-9.783,10.113-14.915,3.116-5.117,5.885-10.431,8.572-15.783,1.345-2.678,2.747-5.327,3.985-8.057,1.228-2.709,2.325-5.476,3.372-8.259q1.785-4.746,3.441-9.54c.557-1.609,1.11-3.219,1.68-4.823.263-.742.51-1.488.725-2.245.061-.214.4-.927.252-1.108m9.953,40.378a2.152,2.152,0,0,1,.085-.437,9.988,9.988,0,0,0,.035-1.024c.012-.726.017-1.452.017-2.178,0-1.46-.013-2.922-.059-4.382a60.086,60.086,0,0,0-.784-8.239,76.077,76.077,0,0,0-4.7-15.711c-1.216-3-2.495-5.979-4-8.846m-6.743,56.243a6.246,6.246,0,0,1,.607-2.078c.307-.991.6-1.988.893-2.981q.829-2.76,1.65-5.523c1.1-3.707,2.244-7.406,3.242-11.144A78.531,78.531,0,0,0,546.378,1809a61.055,61.055,0,0,0,.457-10.717,80.188,80.188,0,0,0-1.842-12.5m-25.049,68.033c.368.029.652-.414.865-.65.4-.437.777-.881,1.141-1.345.788-1.006,1.53-2.048,2.248-3.105,1.4-2.069,2.721-4.2,3.982-6.354a88.947,88.947,0,0,0,6.181-13.031,182.216,182.216,0,0,0,8.731-27.9c.565-2.7,1.062-5.419,1.4-8.16a22.376,22.376,0,0,0,.089-7.445" transform="translate(-420.658 -1659.733)" fill="#f8b5ac"></path><path d="M527.618,1771.246c-.48.485-.142,1.095.436,1.275a4.983,4.983,0,0,0,1.141.083,6.829,6.829,0,0,1,1.42.219,1.786,1.786,0,0,1,1.438,1.213,2.911,2.911,0,0,1-.385,1.82c-.776,1.588-4.282,4.732-1.179,5.97,1.418.565,3.119.051,4.508-.356.871-.255,4.641-1.681,4.966-.179.163.759-.692,1.662-1.119,2.193-.629.782-1.324,1.51-1.977,2.271-.851.993-1.914,2.163-2.043,3.527-.152,1.607,1.289,2.124,2.641,1.956a13.428,13.428,0,0,0,4.832-2.131c.724-.422,1.457-.8,2.2-1.182.492-.25,1.454-.831.978-1.5s-1.413-.146-1.943.138c-.883.474-1.732,1.019-2.608,1.51a18.925,18.925,0,0,1-2.776,1.43c-.491.176-1.975.652-1.7-.349a7.66,7.66,0,0,1,1.659-2.424c.62-.744,1.273-1.461,1.871-2.223.752-.958,1.689-2.2,1.486-3.5-.242-1.549-1.839-1.938-3.176-1.836a38.127,38.127,0,0,0-5.146,1.206c-.546.12-1.75.391-2.22-.054-.438-.414.809-1.679,1.056-2.027.881-1.238,1.918-2.846,1.69-4.444-.271-1.9-2.189-2.452-3.81-2.728C529.193,1771,528.176,1770.715,527.618,1771.246Z" transform="translate(-427.854 -1654.245)" fill="#f8b5ac" fill-rule="evenodd"></path><path d="M553.17,1789.043a.78.78,0,0,0,.5,1.26,2.719,2.719,0,0,0,1.089-.268c.468-.144.947-.255,1.424-.371a29.62,29.62,0,0,1,5.407-.9,15.043,15.043,0,0,1,4.965.385,1.837,1.837,0,0,1,1.133,3.122,15.4,15.4,0,0,1-3.2,3.772c-1.4,1.325-2.893,2.54-4.25,3.908-1.25,1.26-2.46,2.586-3.6,3.95-.857,1.028-1.878,2.545-1.22,3.924.682,1.431,2.424,1.382,3.737,1.042a45.8,45.8,0,0,0,4.633-1.66c3.215-1.213,6.627-2.689,10.1-2.888.629-.036,1.346-.023,1,.789a5.687,5.687,0,0,1-1.487,1.766c-1.221,1.132-2.487,2.2-3.755,3.278a19.025,19.025,0,0,0-3.58,3.742c-.679,1.008-1.5,2.547-.753,3.732s2.424,1.057,3.621.862a30.827,30.827,0,0,0,4.844-1.193,39.064,39.064,0,0,0,4.982-2.093c.761-.38,1.512-.781,2.258-1.191a6.49,6.49,0,0,0,1.859-1.167.758.758,0,0,0-.21-1.23c-.564-.227-1.281.39-1.723.651a40.146,40.146,0,0,1-4.826,2.449,36.145,36.145,0,0,1-5.046,1.707,14.215,14.215,0,0,1-3.454.659c-.369,0-.88-.043-1.033-.447-.2-.533.316-1.289.591-1.7a19.248,19.248,0,0,1,3.437-3.561c1.359-1.192,2.817-2.3,4.081-3.6.9-.925,2.265-2.452,1.664-3.865-.584-1.377-2.477-1.226-3.688-1.056a28.447,28.447,0,0,0-4.821,1.209c-3.046.995-5.977,2.505-9.093,3.267-.658.161-2.138.463-1.952-.667.244-1.477,1.8-2.7,2.784-3.717,1.311-1.358,2.586-2.74,3.99-4.006a39.983,39.983,0,0,0,3.968-3.888,8.286,8.286,0,0,0,2.123-3.8,3.146,3.146,0,0,0-2.243-3.45,13.938,13.938,0,0,0-4.781-.572,24.215,24.215,0,0,0-5.069.552c-.847.172-1.684.384-2.528.573A3.435,3.435,0,0,0,553.17,1789.043Z" transform="translate(-481.14 -1660.494)" fill="#f8b5ac" fill-rule="evenodd"></path><path d="M608.27,1827.97c-.912.782-1.607,2.093-.432,2.991,1.046.8,2.544.574,3.755.414a57.535,57.535,0,0,0,10.311-2.867,21.062,21.062,0,0,1,4.877-1.224c.588-.046,1.636-.139,2.031.429.382.549-.3,1.316-.636,1.705a14.143,14.143,0,0,1-4.461,3.082c-1.619.819-3.264,1.572-4.836,2.483-1.223.709-3,1.828-3.07,3.425-.084,1.824,2.393,1.738,3.62,1.646,3.414-.255,6.771-1.663,10.208-1.51a5.709,5.709,0,0,1,2.023.426c.754.327.8.761.321,1.4-1.078,1.446-2.993,2.03-4.549,2.792a7.017,7.017,0,0,0-2.784,2.02c-.7,1.012.123,1.663,1.14,1.844,1.486.266,3.009-.3,4.484-.438,1.074-.1,2.149-.2,3.225-.284.718-.053,1.867-.017,2.437-.551.67-.626,0-1.334-.726-1.319-.868.018-1.772.242-2.639.336-1.083.116-2.17.215-3.249.366a19.717,19.717,0,0,1-2.852.361,20.344,20.344,0,0,1,2.8-1.572,15.7,15.7,0,0,0,2.822-1.5c1.011-.776,2.208-2.151,1.714-3.525-.554-1.538-2.665-1.822-4.066-1.89a22.616,22.616,0,0,0-5.758.728c-1.152.245-2.3.491-3.473.647a8.654,8.654,0,0,1-3.159.04c.341-1.151,1.758-1.74,2.7-2.308,1.32-.8,2.729-1.427,4.107-2.117a22.081,22.081,0,0,0,3.85-2.375,6.235,6.235,0,0,0,2.385-2.924,2.226,2.226,0,0,0-1.468-2.724,6.979,6.979,0,0,0-3.737.022c-2.9.584-5.623,1.762-8.442,2.618-1.514.459-3.056.765-4.6,1.112-1.017.229-2.487.674-3.415-.028.872-1.251,2.466-1.9,3.723-2.68,1.454-.9,2.941-1.743,4.449-2.554,2.578-1.384,5.542-2.772,7.523-4.993a2.757,2.757,0,0,0,.9-2.454,3,3,0,0,0-2.506-1.82,11.312,11.312,0,0,0-3.538.084c-1.467.206-2.923.469-4.368.8-1.666.38-3.315.828-4.962,1.28-.823.226-1.641.479-2.472.667-.538.121-1.534.359-1.237,1.134.232.606.94.56,1.445.435.737-.182,1.471-.383,2.2-.586,1.62-.448,3.23-.935,4.861-1.343a33.189,33.189,0,0,1,4.869-.889c1.065-.1,2.925-.4,3.85.3,1.054.8-1.136,2.288-1.67,2.678a39.837,39.837,0,0,1-4.443,2.718c-1.4.765-2.8,1.532-4.181,2.329A32.145,32.145,0,0,0,608.27,1827.97Z" transform="translate(-567.041 -1671.177)" fill="#f8b5ac" fill-rule="evenodd"></path><path d="M661.707,1842.833a.784.784,0,0,0,.253,1.276,4.324,4.324,0,0,0,1.953,0,52.472,52.472,0,0,1,5.257-.048,19.032,19.032,0,0,1,4.677.689,2.6,2.6,0,0,1,1.449.841,1.51,1.51,0,0,1-.29,1.71c-1.881,2.615-5.433,3.455-8.225,4.652-2.258.969-6.062,3.173-4.01,6.156,1.564,2.274,5.279,1.931,7.615,1.522,3.1-.543,6.2-1.751,9.387-1.675.623.015,2.593.194,2.136,1.241a4.21,4.21,0,0,1-1.84,1.519c-2.76,1.561-6.015,2.208-8.578,4.132-1,.754-1.744,2.171-.369,2.985a6.425,6.425,0,0,0,2.516.615c.868.11,1.749.2,2.607.369.57.113,1.456.373,1.813-.289.285-.53-.219-.971-.692-1.116-1.733-.53-3.778-.127-5.446-.873a9.775,9.775,0,0,1,3.506-2.069c1.269-.565,2.567-1.061,3.834-1.633,1.589-.718,3.948-1.673,4.291-3.627.4-2.3-2.665-2.755-4.307-2.768-2.618-.02-5.171.793-7.7,1.389-2.031.48-4.743,1.168-6.687.044a1.665,1.665,0,0,1-.863-2.3,6.006,6.006,0,0,1,2.747-1.9c2.38-1.141,4.984-1.788,7.173-3.31,1.332-.927,3.021-2.324,3.1-4.086.135-3-4.383-3.522-6.529-3.705a40.62,40.62,0,0,0-4.729-.061c-.777.024-1.559.078-2.336.077C662.9,1842.582,662.137,1842.436,661.707,1842.833Z" transform="translate(-648.505 -1681.674)" fill="#f8b5ac" fill-rule="evenodd"></path><path d="M700.427,1866.478a4.6,4.6,0,0,0,.955,7.324,4.247,4.247,0,0,0,4.969-1.041c1.38-1.507,1.924-4.4.464-6.036C705.3,1865.029,702.1,1865.054,700.427,1866.478Zm1.049,1.131c1.1-.894,3.453-.944,4.331.306.772,1.1.221,2.951-.62,3.861a2.7,2.7,0,0,1-3.937.054A3.072,3.072,0,0,1,701.476,1867.609Z" transform="translate(-695.744 -1690.479)" fill="#f8b5ac" fill-rule="evenodd"></path><path d="M697.552,1853.749a2.694,2.694,0,0,0-.323,3.778,2.8,2.8,0,0,0,3.8.5,2.562,2.562,0,0,0,.515-3.773A2.84,2.84,0,0,0,697.552,1853.749Zm1.022,1.153c.832-.669,2.509.362,2,1.413C699.736,1858.066,697.068,1856.124,698.574,1854.9Z" transform="translate(-688.721 -1685.767)" fill="#f8b5ac" fill-rule="evenodd"></path><path d="M690.61,1876.468a3.071,3.071,0,0,0-.346,4.212,3.2,3.2,0,0,0,4.291.277,2.988,2.988,0,1,0-3.945-4.49Zm1.087,1.106c1.113-.784,2.833.391,2.224,1.717a1.576,1.576,0,0,1-2.155.639C690.788,1879.388,691.11,1878.289,691.7,1877.574Z" transform="translate(-677.79 -1694.438)" fill="#f8b5ac" fill-rule="evenodd"></path></g></svg>