<svg xmlns="http://www.w3.org/2000/svg" width="228.774" height="220.962" viewBox="0 0 228.774 220.962"><g opacity="0.4"><path d="M491.161,1250.752c-9.85-4.8-18.659-11.845-27.054-18.8-8.276-6.862-16.562-14.023-22.715-22.929-6.037-8.736-9.653-19.321-8.766-30.027.362-4.369,1.513-8.946,4.977-11.91,3.649-3.122,8.9-3.717,13.5-4.095,2.619-.216,5.239-.385,7.854-.649,2.682-.271,5.19-.389,7.391-2.115,3.874-3.039,6.492-7.393,9.9-10.893a24.942,24.942,0,0,1,12.13-7.005c5.409-1.265,11.024-.5,16.272,1.108,2.581.792,5.121,1.694,7.722,2.421a25.447,25.447,0,0,1,6.912,2.858,35.466,35.466,0,0,1,10.091,10.391c2.965,4.4,4.7,9.225,3.632,14.559-1.056,5.261-4.091,9.809-5.7,14.885-1.677,5.274-2.743,10.725-4.474,15.985-1.67,5.075-4.639,9.789-7.418,14.32a305.278,305.278,0,0,1-19.548,27.467q-1.22,1.569-2.444,3.136c-.536.687-1.206,1.8-2.233,1.313l.526-1.084A4.131,4.131,0,0,1,491.161,1250.752ZM494,1144.084a21.688,21.688,0,0,0-13.482,4.634c-3.529,2.806-6.2,6.471-9.11,9.873a20.757,20.757,0,0,1-4.706,4.342,15.241,15.241,0,0,1-6.725,1.8c-5.031.485-10.18.491-15.125,1.635a13.723,13.723,0,0,0-5.719,2.561,10.842,10.842,0,0,0-3.3,5.35c-1.312,4.351-1.079,9.343-.444,13.792,1.436,10.06,6.718,18.907,13.393,26.391,7,7.854,15.343,14.478,23.571,20.99a142.644,142.644,0,0,0,12.855,9.118q1.54.964,3.108,1.88c.687.4,2.625,1.956,3.363,1.4a5.581,5.581,0,0,0,.8-1.094c.356-.468.723-.928,1.085-1.392q1.242-1.6,2.478-3.2a270.635,270.635,0,0,0,18.47-26.46c2.738-4.6,5.3-9.138,6.857-14.285,1.466-4.835,2.308-9.878,4.033-14.632,1.645-4.531,4.281-8.748,5.255-13.511,1.073-5.246-1.093-10.007-4.145-14.164-2.721-3.707-6-7.186-10.138-9.309a38.708,38.708,0,0,0-7.16-2.41c-2.595-.746-5.118-1.7-7.743-2.351A30.07,30.07,0,0,0,494,1144.084Z" transform="translate(-368.876 -1141.691)" fill="#ffefef" fill-rule="evenodd"></path><path d="M481.356,1331.691a1.265,1.265,0,0,1,1.1.618l-.826.461.826-.461a112.355,112.355,0,0,1,7.378,15.285c2.006,5.413,3.864,10.9,5.532,16.426,3.243,10.74,5.539,21.959,5.032,33.232-.241,5.358-1.036,10.967-3.235,15.9-1.039,2.332-2.33,4.541-3.409,6.853a59.878,59.878,0,0,0-2.442,6.873c-1.4,4.274-3.48,9.194-8.082,10.793a9.1,9.1,0,0,1-6.637-.357c-2.036-.868-3.868-2.183-5.985-2.865-2.606-.84-5.151-.113-7.687.633a73.808,73.808,0,0,0-7.835,2.847c-4.869,2.054-9.84,3.628-15.192,3.295-10.525-.655-19.307-7.125-25.19-15.552a27.973,27.973,0,0,1-5.423-14.119,17.362,17.362,0,0,1,1.083-7.489,35.5,35.5,0,0,1,3.482-5.962,18.308,18.308,0,0,0,2.861-6.189,48.683,48.683,0,0,0,.708-8.294c.17-5.332.609-10.486,3.482-15.125,2.8-4.521,6.939-8.045,10.787-11.638a103.349,103.349,0,0,1,12.351-10.368,69.391,69.391,0,0,1,13.588-6.967c5.177-2.043,10.282-4.284,15.573-6.024C475.8,1332.64,478.584,1331.659,481.356,1331.691Zm-.693,2.435a31.3,31.3,0,0,0-7.777,2.039c-2.612.919-5.182,1.95-7.745,2.994-4.784,1.946-9.686,3.666-14.3,6.009a60.788,60.788,0,0,0-12.492,8.808c-3.738,3.289-7.432,6.707-10.933,10.249-3.478,3.517-6.189,7.405-7.047,12.363-.889,5.131-.261,10.4-1.242,15.52a19.492,19.492,0,0,1-3.047,6.916,30.585,30.585,0,0,0-3.687,6.487c-1.663,4.9-.385,10.338,1.875,14.819,4.312,8.55,12.3,15.863,21.8,17.933a26.446,26.446,0,0,0,15.23-1.331c4.731-1.792,9.347-4.194,14.378-5.06a11.709,11.709,0,0,1,7.242.945,35.393,35.393,0,0,0,5.577,2.638c4.27,1.191,7.289-1.808,8.982-5.394a49.917,49.917,0,0,0,2.331-6.5,40.741,40.741,0,0,1,2.936-7.072,45.438,45.438,0,0,0,3.187-6.812,38.724,38.724,0,0,0,1.634-7.377c1.374-10.636-.155-21.48-2.86-31.786-1.362-5.193-3.035-10.3-4.715-15.4a103.789,103.789,0,0,0-5.9-14.615q-.916-1.805-1.872-3.59A11.839,11.839,0,0,0,480.663,1334.126Z" transform="translate(-359.255 -1220.308)" fill="#ffefef" fill-rule="evenodd"></path><path d="M372.738,1243.755a44.851,44.851,0,0,1,19.915,5.2,49.425,49.425,0,0,1,8.4,5.4,35.21,35.21,0,0,1,5.673,5.334c.491.621,1.172,1.621.511,2.355-.735.814-1.721.049-2.305-.532-.728-.725-1.31-1.575-2.039-2.3a41.16,41.16,0,0,0-3.734-3.282,47.5,47.5,0,0,0-18-8.7c-6.414-1.538-13.854-1.719-20.042.854a13.677,13.677,0,0,0-6.752,6.059c-1.627,2.832-2.672,5.948-4.217,8.822a20.8,20.8,0,0,1-6.163,6.882,22.279,22.279,0,0,1-8.585,4.23c-2.912.616-5.967.928-7.6,3.756-1.611,2.786-1.63,6.219-1.085,9.3,1.145,6.474,4.529,12.587,8.513,17.736a65.653,65.653,0,0,0,14.541,13.647,69.585,69.585,0,0,0,18.446,9.026,49.9,49.9,0,0,0,10.363,2.254,30.084,30.084,0,0,0,5.128.128c.867-.066,1.72-.276,2.594-.27.786.006,1.851.222,1.777,1.233-.064.876-1.078,1.147-1.8,1.274a29.883,29.883,0,0,1-7.724.051,61.1,61.1,0,0,1-19.729-5.752c-11.931-5.5-22.865-14.6-29.5-26.032-3.248-5.6-6.14-12.589-5.167-19.19.43-2.918,1.759-5.983,4.357-7.586,2.717-1.676,6.116-1.535,9.019-2.752a25.017,25.017,0,0,0,7.737-5.284c2.248-2.242,3.511-5.185,4.77-8.048a27.822,27.822,0,0,1,4.707-8.052,17.175,17.175,0,0,1,8.092-4.567A36.475,36.475,0,0,1,372.738,1243.755Z" transform="translate(-323.974 -1183.922)" fill="#ffefef" fill-rule="evenodd"></path><path d="M551.4,1399.276c6.248,5.76,12.45,11.631,19.346,16.622a70.357,70.357,0,0,0,10.693,6.427c3.649,1.761,7.367,3.771,11.432,4.334a9.933,9.933,0,0,0,9.437-3.405c2.411-2.8,3.959-6.223,6.4-9,2.581-2.929,5.841-5.124,8.912-7.492a25.612,25.612,0,0,0,7.547-8.487c1.83-3.538,3.934-7.369,4.266-11.407a9.9,9.9,0,0,0-1.131-5.557,21.177,21.177,0,0,1-2.064-5.444c-.9-4.172-1.07-8.464-1.948-12.641a25.147,25.147,0,0,0-4.69-10.55,13.955,13.955,0,0,0-9.73-5.2c-2.014-.238-4.049-.265-6.053-.588a54.063,54.063,0,0,1-5.943-1.8c-8.394-2.356-17.308-1.309-25.889-1.063a63.136,63.136,0,0,1-25.122-4.209,53.574,53.574,0,0,1-10.785-5.645,38.4,38.4,0,0,1-4.633-3.72c-.563-.532-1.428-1.152-1.648-1.926a1.188,1.188,0,0,1,.952-1.558c.69-.066,1.258.551,1.69,1.006a24.19,24.19,0,0,0,1.824,1.771,40.057,40.057,0,0,0,4.865,3.541,54.121,54.121,0,0,0,10.968,5.152,57.676,57.676,0,0,0,12.236,2.844,85.971,85.971,0,0,0,13.238.181c8.688-.346,17.465-.747,25.776,2.24,3.762,1.353,7.843.9,11.679,1.891a16.181,16.181,0,0,1,9.054,6.333,28.186,28.186,0,0,1,4.548,10.727c.879,4.068,1.055,8.243,1.878,12.315a23.6,23.6,0,0,0,2.216,5.686,12.193,12.193,0,0,1,1.146,5.406c-.042,4.053-1.83,7.672-3.528,11.254a27.792,27.792,0,0,1-6.811,9.333c-2.844,2.5-6.052,4.556-8.867,7.093-2.84,2.558-4.651,5.706-6.8,8.812-2.072,2.994-4.645,5.636-8.345,6.375-3.9.779-7.967-.307-11.551-1.826a90.6,90.6,0,0,1-11.1-5.58c-7.167-4.282-13.5-9.853-19.651-15.459-1.484-1.354-3.018-2.666-4.469-4.054-.522-.5-1.4-1.19-1.313-2.01C549.546,1398.886,550.638,1398.989,551.4,1399.276Z" transform="translate(-409.118 -1218.349)" fill="#ffefef" fill-rule="evenodd"></path><path d="M616.35,1196.726a11.4,11.4,0,0,1,7.7,2.619,19.729,19.729,0,0,1,4.733,6.971c1.212,2.7,2.113,5.526,3.114,8.311a21.617,21.617,0,0,0,4.067,7.624c3.966,4.266,9.983,5.578,14.8,8.582a19.607,19.607,0,0,1,9,14.241,29.666,29.666,0,0,1-2.939,18.234,67.87,67.87,0,0,1-4.844,7.517c-1.712,2.439-3.36,4.93-5.23,7.253a28.921,28.921,0,0,1-14.305,9.833,69.6,69.6,0,0,1-9.4,2.048,18.931,18.931,0,0,1-3.6.554c-.878-.037-1.861-.954-1.141-1.823.691-.834,2.377-.794,3.336-.946,1.555-.247,3.109-.5,4.655-.806a41.756,41.756,0,0,0,8.922-2.625c5.62-2.489,9.362-7.117,12.875-11.985,3.616-5.01,7.442-10.2,8.907-16.3,1.379-5.75,1.049-12.8-2.142-17.934-3.166-5.094-8.881-6.934-13.969-9.485a22.076,22.076,0,0,1-6.959-5.011,23.963,23.963,0,0,1-4.006-7.416c-1.126-2.979-2.063-6.033-3.376-8.939-1.125-2.488-2.543-5.124-4.87-6.683-2.367-1.585-5.451-1.672-8.171-1.174a17.408,17.408,0,0,0-7.869,3.9c-4.732,3.917-8.108,9.273-11.75,14.146a67.239,67.239,0,0,1-5.893,7.049,11.027,11.027,0,0,1-2.812,2.514,1.172,1.172,0,0,1-1.482-1.746c.716-1.1,2.1-1.947,3.01-2.9,1.1-1.155,2.141-2.373,3.139-3.619,1.944-2.428,3.741-4.967,5.59-7.468,3.478-4.7,7.251-9.645,12.522-12.44A17.724,17.724,0,0,1,616.35,1196.726Z" transform="translate(-431.347 -1164.463)" fill="#ffefef" fill-rule="evenodd"></path><path d="M502.749,1266.616a52.185,52.185,0,0,1,10.893,14.213,74.052,74.052,0,0,1,4.077,9.079,96.692,96.692,0,0,1,2.851,9.792c.192.742.392,1.482.629,2.21a13.954,13.954,0,0,1,.739,2.083,1.169,1.169,0,0,1-1.94,1.143c-.839-.768-1.135-2.568-1.428-3.6-.443-1.559-.8-3.143-1.228-4.706a69.651,69.651,0,0,0-7.475-17.756,43.35,43.35,0,0,0-6.46-8.474,11,11,0,0,1-2.362-2.382,1.252,1.252,0,0,1,.056-1.46C501.548,1266.241,502.182,1266.418,502.749,1266.616Z" transform="translate(-397.156 -1193.3)" fill="#ffefef" fill-rule="evenodd"></path><path d="M498.712,1263.636a2.67,2.67,0,0,0-2.923-3.167,2.406,2.406,0,0,0-1.691,3.5c1.235,1.974,5.168.987,3.648-1.548" transform="translate(-394.24 -1190.829)" fill="#ffefef" fill-rule="evenodd"></path><path d="M495.275,1258.4c1.991.031,4.047,1.748,3.892,3.861a3.747,3.747,0,0,1-3.925,3.143,3.531,3.531,0,0,1-3.459-3.315A3.584,3.584,0,0,1,495.275,1258.4Zm-.086,2.409c-1.437.015-1.239,2.15.172,2.239,1.555.1-.145-1.444.6-2.052A1.636,1.636,0,0,0,495.189,1260.805Z" transform="translate(-393.409 -1189.98)" fill="#ffefef" fill-rule="evenodd"></path><path d="M505.715,1289.381c1.738,4.141,4.856,7.469,7.916,10.672,1.606,1.681,3.21,3.36,4.7,5.146a14.881,14.881,0,0,1,1.722,2.264c.43.785.339,2.025-.795,2.1-.773.051-1.265-.724-1.641-1.284a24.859,24.859,0,0,0-1.785-2.31c-1.437-1.673-2.982-3.249-4.5-4.847a54.129,54.129,0,0,1-6-7.232,10.2,10.2,0,0,1-1.756-3.583,1.5,1.5,0,0,1,.219-1.3C504.429,1288.3,505.191,1288.865,505.715,1289.381Z" transform="translate(-398.265 -1202.509)" fill="#ffefef" fill-rule="evenodd"></path><path d="M501.444,1281.452a3.8,3.8,0,0,1,3.47,3.258c.237,1.912-1.446,3.069-3.207,2.969a3.559,3.559,0,0,1-3.441-3.038A3.192,3.192,0,0,1,501.444,1281.452Z" transform="translate(-396.09 -1199.52)" fill="#ffefef" fill-rule="evenodd"></path><path d="M527.692,1279.6c1.015,1.5,1.055,3.585,1.319,5.323.321,2.108.572,4.225.768,6.348.339,3.661.466,7.335.681,11,.047.8.179,2.212-.634,2.71-1.358.832-1.789-.979-1.819-1.9-.138-4.278-.308-8.552-.745-12.813-.242-2.357-.518-4.734-.971-7.061C526,1281.709,525.187,1279.1,527.692,1279.6Z" transform="translate(-407.538 -1198.729)" fill="#ffefef" fill-rule="evenodd"></path><path d="M526.85,1277.983c.534-.841,1.4-1.925,1.12-3a1.633,1.633,0,0,0-2.35-.886C523.429,1275.116,525.735,1277.2,526.85,1277.983Z" transform="translate(-407.033 -1196.402)" fill="#ffefef" fill-rule="evenodd"></path><path d="M525.756,1271.831a2.7,2.7,0,0,1,2.591,3.335,6.748,6.748,0,0,1-1.028,2.254c-.434.618-.723.039-1.256-.3l1.016.645c-1.006,1.552-2.97-.556-3.62-1.424A2.727,2.727,0,0,1,525.756,1271.831Zm-.064,2.408c-.892.03-.351.654.049,1.048C525.866,1275.033,526.3,1274.2,525.692,1274.239Z" transform="translate(-406.246 -1195.539)" fill="#ffefef" fill-rule="evenodd"></path><path d="M542.764,1269.152c.957.588,1.036,1.186.9,2.277-.159,1.285-.333,2.561-.456,3.851a54.993,54.993,0,0,1-1.086,7.68c-1.2,4.992-3.672,9.566-5.818,14.193-.444.956-.881,1.9-1.234,2.9-.246.69-.528,1.747-1.208,2.157a1.227,1.227,0,0,1-1.825-.837c-.135-.986.811-2.418,1.192-3.275,2.074-4.658,4.567-9.166,6.092-14.049a42.188,42.188,0,0,0,1.458-8.642c.133-1.4.152-2.838.4-4.227C541.37,1270.062,541.609,1269.4,542.764,1269.152Z" transform="translate(-410.06 -1194.431)" fill="#ffefef" fill-rule="evenodd"></path><path d="M550.081,1266.41c1.467-.075,2.608-1.162,2.021-2.672a2.362,2.362,0,0,0-3.492-1.257,2.483,2.483,0,0,0-.43,3.508c1.209,1.6,2.522-.029,3.426-.967" transform="translate(-416.525 -1191.51)" fill="#ffefef" fill-rule="evenodd"></path><path d="M549.072,1260.024a3.8,3.8,0,0,1,3.37,2.786,3,3,0,0,1-2.146,3.815,3.523,3.523,0,0,1-3.259-.071,3.822,3.822,0,0,1-1.49-2.708A3.506,3.506,0,0,1,549.072,1260.024Zm-.068,2.409a1.153,1.153,0,0,0-.771,1.923c.7.76,1.2-.912,1.832-1.115A1.3,1.3,0,0,0,549,1262.433Z" transform="translate(-415.646 -1190.654)" fill="#ffefef" fill-rule="evenodd"></path><path d="M559.079,1294.21c.81,1.1.267,1.9-.446,2.894-.813,1.137-1.634,2.264-2.517,3.348a58.882,58.882,0,0,1-5.865,6.191,69.255,69.255,0,0,1-13.382,9.568c-1.169.644-2.365,1.235-3.538,1.873-.872.475-2.267,1.37-3.291.921-1.161-.509-.672-1.761.2-2.223,1.082-.574,2.251-1.005,3.347-1.561a67.56,67.56,0,0,0,13.77-9.225,55.552,55.552,0,0,0,6.373-6.544q1.4-1.69,2.688-3.463C557.193,1294.932,557.63,1293.952,559.079,1294.21Z" transform="translate(-408.956 -1204.782)" fill="#ffefef" fill-rule="evenodd"></path><path d="M578.136,1288.833a3.387,3.387,0,0,0-1.085,3.876,2.153,2.153,0,0,0,2.863.8C583.016,1292.3,581.248,1287.8,578.136,1288.833Z" transform="translate(-428.591 -1202.511)" fill="#ffefef" fill-rule="evenodd"></path><path d="M578.5,1286.567a3.766,3.766,0,0,1,3.486,3.943,3.961,3.961,0,0,1-4.151,3.586C573.31,1293.99,574.243,1286.5,578.5,1286.567Zm-.089,2.408c-1.33.039-1.79,2.878-.217,2.763C579.741,1291.625,580.067,1288.867,578.415,1288.975Z" transform="translate(-427.779 -1201.637)" fill="#ffefef" fill-rule="evenodd"></path><path d="M587.1,1309.315a2.951,2.951,0,0,0-1.122,3.7c.616,1.049,2.024,1.011,3.038.661a2.255,2.255,0,0,0,1.618-2.948A2.785,2.785,0,0,0,587.1,1309.315Z" transform="translate(-432.262 -1210.987)" fill="#ffefef" fill-rule="evenodd"></path><path d="M587.572,1307.068a3.731,3.731,0,0,1,3.647,3.778c-.1,2.181-2.351,3.472-4.358,3.419C582.16,1314.141,583.212,1307.021,587.572,1307.068Zm-.1,2.408c-1.534.034-1.943,2.657-.128,2.4a1.685,1.685,0,0,0,1.4-.967A1.222,1.222,0,0,0,587.476,1309.476Z" transform="translate(-431.478 -1210.12)" fill="#ffefef" fill-rule="evenodd"></path><path d="M593.868,1328.458a3.1,3.1,0,0,0-1.023,3.656,2.168,2.168,0,0,0,2.887.638C598.6,1331.484,596.711,1327.546,593.868,1328.458Z" transform="translate(-435.121 -1218.914)" fill="#ffefef" fill-rule="evenodd"></path><path d="M594.207,1326.2a3.625,3.625,0,0,1,3.405,3.707,3.8,3.8,0,0,1-3.808,3.464C589.219,1333.561,589.919,1326.166,594.207,1326.2Zm-.085,2.409c-.931.027-1.728,1.968-.681,2.352a1.627,1.627,0,0,0,1.636-.681A1.178,1.178,0,0,0,594.122,1328.609Z" transform="translate(-434.324 -1218.036)" fill="#ffefef" fill-rule="evenodd"></path><path d="M536.185,1326.9c.746-2.067,3.1-3.038,4.955-3.853,2.826-1.243,5.637-2.526,8.5-3.691,5.831-2.377,11.811-4.356,17.754-6.43" transform="translate(-411.781 -1212.545)" fill="#ffefef" fill-rule="evenodd"></path><path d="M567.11,1311.076c.875.975.675,1.834-.52,2.377-1.212.552-2.592.879-3.852,1.313-2.574.889-5.147,1.782-7.7,2.721-5.055,1.856-10.129,3.877-14.975,6.232a9.213,9.213,0,0,0-2.909,1.887c-.47.527-.8,1.511-1.561,1.691a1.115,1.115,0,0,1-1.349-1.181,3.786,3.786,0,0,1,1.334-2.347c1.78-1.723,4.244-2.562,6.465-3.543,2.579-1.138,5.149-2.289,7.771-3.326,2.863-1.132,5.757-2.18,8.661-3.2q2.223-.781,4.451-1.545A11.346,11.346,0,0,1,567.11,1311.076Z" transform="translate(-410.976 -1211.775)" fill="#ffefef" fill-rule="evenodd"></path><path d="M571.407,1328.977c.964,0,2.369-.179,3.246.325a1.186,1.186,0,0,1-.236,2.139,10.678,10.678,0,0,1-3.024-.055c-1.448-.006-2.9.054-4.343.13-4.316.226-8.616.695-12.933.9-2.463.115-5.665.45-7.963-.641-.858-.407-1.473-1.673-.195-2.123a5.07,5.07,0,0,1,2.245.138,30.31,30.31,0,0,0,4.119.242C558.7,1330.016,565.027,1328.961,571.407,1328.977Z" transform="translate(-415.523 -1219.173)" fill="#ffefef" fill-rule="evenodd"></path><path d="M484.368,1305.715c2.09,1.539,4.009,3.3,6.124,4.805a23.7,23.7,0,0,0,7.2,3.4,73.368,73.368,0,0,1,8.016,2.618,21.872,21.872,0,0,0,3.467,1.269,12.062,12.062,0,0,0,3.988.081c.813-.071,2,.2,1.815,1.28-.135.8-.964,1.106-1.661,1.244a11.759,11.759,0,0,1-5.193-.392c-2.437-.685-4.689-1.912-7.113-2.653a65.983,65.983,0,0,1-7.712-2.452,34.663,34.663,0,0,1-7.626-5.109,17.1,17.1,0,0,1-2.911-2.367,1.1,1.1,0,0,1-.077-1.384C483.136,1305.461,483.74,1305.559,484.368,1305.715Z" transform="translate(-389.556 -1209.511)" fill="#ffefef" fill-rule="evenodd"></path><path d="M480.867,1304.393c.653-1.81-2.739-4.63-3.976-2.641-.946,1.521,1.574,3.875,2.979,2.606" transform="translate(-387.161 -1207.638)" fill="#ffefef" fill-rule="evenodd"></path><path d="M477.3,1299.129a4.508,4.508,0,0,1,3.846,2.879,2.347,2.347,0,0,1-.211,2.324,1.2,1.2,0,0,1-.974.374,4.025,4.025,0,0,0-1.095.321c-1.722.55-3.518-.881-4.014-2.475A2.578,2.578,0,0,1,477.3,1299.129Zm-.08,2.408c-.315,0,.164.731.23.8.457.5.66.325,1.233.165A2.086,2.086,0,0,0,477.217,1301.537Z" transform="translate(-386.35 -1206.835)" fill="#ffefef" fill-rule="evenodd"></path><path d="M464.632,1317.8a88.179,88.179,0,0,0,16.573,4.187c2.87.425,5.764.648,8.642,1.012a42.255,42.255,0,0,0,8.47.624c.926-.07,2.527-.633,3.176.344s-.312,1.71-1.181,1.889a23.91,23.91,0,0,1-7.374-.024c-5.8-.674-11.686-1.2-17.406-2.425a90.549,90.549,0,0,1-9.193-2.482c-.87-.284-2.482-.521-3.039-1.343C462.56,1318.494,463.694,1317.837,464.632,1317.8Z" transform="translate(-381.525 -1214.561)" fill="#ffefef" fill-rule="evenodd"></path><path d="M457.312,1315.715c-.827,2.521,3.87,2.946,3.729.136-.129-2.553-4.555-1.935-3.229.574" transform="translate(-379.105 -1213.076)" fill="#ffefef" fill-rule="evenodd"></path><path d="M458.288,1311.987c3.793.055,4.166,5.93.232,6.157a3.117,3.117,0,0,1-3.385-2.567A3.347,3.347,0,0,1,458.288,1311.987Zm-.078,2.408c-.577-.068-.25,1.25.034,1.359C458.961,1316.029,459.432,1314.364,458.21,1314.4Z" transform="translate(-378.241 -1212.155)" fill="#ffefef" fill-rule="evenodd"></path><path d="M497.447,1329.923c1.8,2.606-3.115,2.718-4.672,2.994-2.889.512-5.783,1-8.674,1.5-5.548.956-11.113,1.892-16.581,3.244-1.248.308-2.494.631-3.725,1.006a19.085,19.085,0,0,0-1.954.685,3.925,3.925,0,0,1-1.607.492,1.124,1.124,0,0,1-.814-1.97c.793-.834,2.388-1.109,3.442-1.444a126.469,126.469,0,0,1,16.153-3.564c3.139-.561,6.286-1.077,9.429-1.617q2.4-.413,4.8-.853A11.531,11.531,0,0,1,497.447,1329.923Z" transform="translate(-379.861 -1219.544)" fill="#ffefef" fill-rule="evenodd"></path><path d="M458.423,1342.906a2.536,2.536,0,0,0-2.476,1.341c-.312.984.732,1.971,1.675,2,1.8.053,1.75-3.373.263-2.411" transform="translate(-378.558 -1224.947)" fill="#ffefef" fill-rule="evenodd"></path><path d="M457.522,1340.848c.792.047,1.036.783,1.425,1.351a2.7,2.7,0,0,1,.289,2.563,2.569,2.569,0,0,1-3.506,1.594,2.837,2.837,0,0,1-1.826-3.118A3.6,3.6,0,0,1,457.522,1340.848Zm-1.257,2.956c.145.171.413.43.606.336C456.645,1344.143,456.439,1343.923,456.264,1343.8Z" transform="translate(-377.709 -1224.097)" fill="#ffefef" fill-rule="evenodd"></path><path d="M501.805,1334.031c.606.8.749,1.693-.3,2.2-.579.28-1.274.381-1.877.625a19.907,19.907,0,0,0-1.849.869,31.809,31.809,0,0,0-6.429,4.677,38.89,38.89,0,0,0-8.876,11.8c-.594,1.229-1.115,2.493-1.735,3.71-.521,1.023-1.139,2.538-2.1,3.229a1.145,1.145,0,0,1-1.859-1.24,6.792,6.792,0,0,1,.92-1.513,21.553,21.553,0,0,0,1.157-2.1,65.149,65.149,0,0,1,3.728-7.372,43.2,43.2,0,0,1,5.033-6.228,40.7,40.7,0,0,1,6.559-5.639,25.1,25.1,0,0,1,3.621-2.037A7.337,7.337,0,0,1,501.805,1334.031Z" transform="translate(-387.174 -1221.26)" fill="#ffefef" fill-rule="evenodd"></path><path d="M474.516,1379.891c.663,1.027,1.913,2.672,3.341,2.186a3.029,3.029,0,0,0,1.657-2.994,2.308,2.308,0,0,0-2.725-1.669A2.67,2.67,0,0,0,474.516,1379.891Z" transform="translate(-386.264 -1239.216)" fill="#ffefef" fill-rule="evenodd"></path><path d="M476.5,1375.33a3.288,3.288,0,0,1,3.417,3.5c-.185,1.805-1.573,3.9-3.592,3.685-1.719-.182-3.84-2.1-3.742-3.922A3.779,3.779,0,0,1,476.5,1375.33Zm-.135,2.408c-2.071.028-1.114,2.505.247,2.31.522-.074.871-.78.927-1.244C477.626,1378.062,477.053,1377.726,476.36,1377.738Z" transform="translate(-385.461 -1238.365)" fill="#ffefef" fill-rule="evenodd"></path><path d="M523.49,1333.042c1.7,1.739-.594,2.389-1.969,3.11a19.731,19.731,0,0,0-4.641,3.383,23.507,23.507,0,0,0-5.9,9.849c-.278.915-.453,1.856-.692,2.781-.193.746-.453,1.923-1.429,1.965-1.905.081-.907-2.887-.672-3.783a28.075,28.075,0,0,1,5.12-10.445,22.82,22.82,0,0,1,4.7-4.422C519.554,1334.4,521.537,1333.006,523.49,1333.042Z" transform="translate(-400.001 -1220.867)" fill="#ffefef" fill-rule="evenodd"></path><path d="M505.647,1368.42c-1.986,1.257-.935,4.668,1.446,4.479a2.629,2.629,0,0,0,2.319-2.845,1.758,1.758,0,0,0-3.113-1.009" transform="translate(-398.714 -1235.497)" fill="#ffefef" fill-rule="evenodd"></path><path d="M506.843,1366.207c2.209.056,3.363,2.62,2.648,4.509a3.653,3.653,0,0,1-7.085-1.546,3.359,3.359,0,0,1,1.5-2.547,2.218,2.218,0,0,1,1.28-.151C505.758,1366.47,506.278,1366.195,506.843,1366.207Zm-.063,2.408c-.763.138-1.052.83-1.923.518a1.272,1.272,0,0,0,1.479,1.619C507.037,1370.538,507.943,1368.837,506.781,1368.615Z" transform="translate(-397.798 -1234.59)" fill="#ffefef" fill-rule="evenodd"></path><path d="M528.813,1334.43c.774.841.57,1.365.261,2.391a10.318,10.318,0,0,0-.269,3.6c.141,2.3.517,4.567.614,6.87a61.329,61.329,0,0,1-1.141,14.429c-.2,1-.444,3.614-2.127,3.036-1.182-.406-.465-2.424-.287-3.259a57.588,57.588,0,0,0,1.118-14.448c-.117-2.672-.651-5.331-.618-8.006C526.386,1337.3,526.45,1334.283,528.813,1334.43Z" transform="translate(-407.354 -1221.439)" fill="#ffefef" fill-rule="evenodd"></path><path d="M524.542,1385.85c-2.487.226-.985,3.637.945,3.513a1.955,1.955,0,0,0,1.637-2.779,1.893,1.893,0,0,0-3.307-.19" transform="translate(-406.425 -1242.575)" fill="#ffefef" fill-rule="evenodd"></path><path d="M524.454,1383.358a3.325,3.325,0,0,1,3.175,3.4,3.132,3.132,0,0,1-3.326,2.82,3.449,3.449,0,0,1-3.2-2.666C520.71,1384.954,522.555,1383.313,524.454,1383.358Zm-.451,2.668c-.239.36-.536.351-.287.817a.871.871,0,0,0,1.141.3C525.754,1386.61,524.875,1385.559,524,1386.027Z" transform="translate(-405.518 -1241.686)" fill="#ffefef" fill-rule="evenodd"></path><path d="M534.317,1338.652c6.344,11.3,12.958,22.763,22.619,31.6.783.715,2.549,1.653,2.63,2.827.089,1.3-1.342,1.337-2.159.821a20.716,20.716,0,0,1-2.833-2.555q-1.808-1.7-3.492-3.534a105.44,105.44,0,0,1-11.565-15.468c-2.011-3.2-3.809-6.511-5.759-9.741a8.481,8.481,0,0,1-1.579-3.051C532,1338.03,533.36,1337.9,534.317,1338.652Z" transform="translate(-410.117 -1223.003)" fill="#ffefef" fill-rule="evenodd"></path><path d="M578.594,1397.748c-1.652-.75-2.6,1.917-2.391,3.133.351,1.991,2.895,1.767,4.008.616a2,2,0,0,0-.809-3.46c-1.37-.345-2.877.508-2.577,2.058" transform="translate(-428.328 -1247.587)" fill="#ffefef" fill-rule="evenodd"></path><path d="M577.38,1395.632c2.3.1,4.352,1.925,3.753,4.316a3.746,3.746,0,0,1-4.029,2.745,3.152,3.152,0,0,1-3.065-3.077C574.026,1397.826,575.385,1395.561,577.38,1395.632Zm.461,2.678c-1.24,0-.236,1.47-1.173,1.816a1.738,1.738,0,0,0,1.977-.376C579.246,1399.07,578.664,1398.3,577.841,1398.31Z" transform="translate(-427.444 -1246.765)" fill="#ffefef" fill-rule="evenodd"></path><path d="M536.758,1340.272a9.6,9.6,0,0,0,2.822,2.5c1.188.788,2.317,1.622,3.448,2.492a43.32,43.32,0,0,0,7.845,5.093c2.914,1.372,5.862,2.635,8.755,4.059a89.017,89.017,0,0,0,8.582,3.7,9.743,9.743,0,0,1,3.46,1.745c.7.669,1.034,1.883-.257,2.158a2.322,2.322,0,0,1-1.592-.554,13.387,13.387,0,0,0-2.066-.948c-1.452-.558-2.919-1.068-4.35-1.681-2.94-1.258-5.774-2.744-8.644-4.149-2.77-1.357-5.665-2.349-8.283-4.01-2.938-1.863-5.59-4.131-8.447-6.106a10.368,10.368,0,0,1-3.161-2.754,1.293,1.293,0,0,1,.059-1.644C535.547,1339.536,536.148,1339.871,536.758,1340.272Z" transform="translate(-411.126 -1223.671)" fill="#ffefef" fill-rule="evenodd"></path><path d="M597.594,1374.262c-1.386.651-1.842,1.9-.607,3.037a2.126,2.126,0,0,0,3.1.112c1.558-1.882-.9-5.12-3-3.547-2.046,1.533.808,5.084,2.776,3.875,1.631-1-.152-3.623-1.631-3.629" transform="translate(-436.642 -1237.585)" fill="#ffefef" fill-rule="evenodd"></path><path d="M597.434,1371.4c4.077.065,4.829,6.923.442,6.957a3.855,3.855,0,0,1-3.692-2.767A3.482,3.482,0,0,1,597.434,1371.4Zm-.213,3.1c-.93.426.491,1.581.97,1.354C598.868,1375.535,597.816,1374.281,597.221,1374.5Z" transform="translate(-435.746 -1236.74)" fill="#ffefef" fill-rule="evenodd"></path></g></svg>