<svg xmlns="http://www.w3.org/2000/svg" width="271.113" height="363.842" viewBox="0 0 271.113 363.842"><path d="M2.708,339.858a514.175,514.175,0,0,1-2.021-79.23Q1.715,240.8,4.228,221.076q1.3-10.036,3-20.009c1.048-6.121,1.969-12.374,3.507-18.4a12.467,12.467,0,0,1,3.915-6.944c2.085-1.658,4.722-2.338,7.272-2.925,6.8-1.572,13.658-2.9,20.522-4.152A57.751,57.751,0,0,0,25.607,158.2a1.237,1.237,0,0,1-.68-1.566A251.783,251.783,0,0,1,40.71,112.157c6.4-13.693,13.756-27.328,23.061-39.287,8.775-11.292,19.716-20.464,32.855-26.245a89.238,89.238,0,0,1,41-7.313,98.46,98.46,0,0,1,41.394,12.121c14.274-16.813,30.039-32.475,47.671-45.747Q230.368,2.922,234.139.3c1.687-1.169,3.685,1.353,1.981,2.522C215.708,16.891,197.737,34.13,181.6,52.89c1.226.72,2.442,1.451,3.645,2.211a.823.823,0,0,1,.2.2c7.606,4.221,12.662,12.219,14.453,20.735a70.221,70.221,0,0,1,.95,18.253c-.328,6.172-.944,12.333-1.825,18.449a170.819,170.819,0,0,1-8.775,35.13,135.246,135.246,0,0,1-7.376,16.445c-2.568,4.825-5.286,10.22-9.161,14.142-7.888,7.98-19.416,4.911-28.807,1.22,2.234,7.2,4.186,14.528,5.908,21.858.916,3.9.829,7.151-1.491,10.531-2.044,2.983-4.434,5.781-6.674,8.62-9.316,11.792-18.967,23.332-29.061,34.468-20.021,22.082-41.832,42.7-66.114,60.062A286.76,286.76,0,0,1,4.458,340.854,1.277,1.277,0,0,1,2.708,339.858ZM2.16,269.385c-.058,1.918-.1,3.841-.138,5.758,12.322-6.927,26.6-12.743,40.945-10.877l.236-.443c1.307-2.436,2.649-4.848,3.967-7.272-8.171-.363-16.146,1.6-23.982,3.823q-5.787,1.641-11.452,3.7C8.368,265.3,4.688,266.725,2.16,269.385ZM27.49,156.413a70.106,70.106,0,0,1,18.2,12.023,1.211,1.211,0,0,1-.547,2.142q-9.57,2.107-19.209,3.9c-2.729.512-5.683.749-8.263,1.837-2.8,1.186-4.175,3.691-4.975,6.489-1.727,5.988-2.608,12.339-3.668,18.478Q7.406,210.7,6.145,220.172q-3.127,23.536-3.933,47.285a19.1,19.1,0,0,1,7.318-4.589c4.324-1.7,8.764-3.156,13.232-4.451,4.272-1.244,8.6-2.355,12.967-3.219,4.042-.794,8.338-1.307,12.4-.42q17.516-32.1,36.31-63.5,21.541-36.016,44.653-71.042c1.538-2.343,3.092-4.676,4.641-7.008-11.66-3.42-23.925-3.409-35.976-2.816q-19.106.941-38.078,3.639c-6.236.892-12.478,1.745-18.42,3.858A283.239,283.239,0,0,0,27.49,156.413ZM45.035,109.67c-1.054,2.205-2.073,4.422-3.075,6.65a82.389,82.389,0,0,1,14.228-3.386c6.57-1.082,13.192-1.877,19.814-2.568,12.852-1.336,25.934-2.453,38.867-1.911a82.964,82.964,0,0,1,19.957,3.121q4.906-7.367,9.9-14.677c-6.046-.835-12.052-1.854-18.15-2.4-6.766-.6-13.56-.829-20.349-.789-12.84.08-25.854.6-38.5,2.982A130.462,130.462,0,0,0,48.8,102.1Q46.865,105.872,45.035,109.67Zm56.014-62.319A81.024,81.024,0,0,0,67.762,72.07a167,167,0,0,0-17.8,27.759,75.289,75.289,0,0,1,14.159-4.3,146.039,146.039,0,0,1,19.03-2.649,306.391,306.391,0,0,1,40.675-.72c7.382.4,14.965,1.03,22.139,2.954,8.695-12.581,17.711-24.944,27.356-36.822,1.44-1.773,2.913-3.524,4.382-5.275C154.1,41.069,126.056,37.5,101.049,47.351Zm33.742,178.711q3.843-4.742,7.606-9.553c2.355-3.006,6.334-6.622,6.207-10.693a32.874,32.874,0,0,0-1.4-6.8q-.864-3.454-1.791-6.892c-1.3-4.825-2.758-9.6-4.152-14.4-.311-1.071.634-2.54,1.877-1.924,7.935,3.916,19.514,8.747,27.333,2.021,3.991-3.432,6.668-8.792,9.15-13.353a133.657,133.657,0,0,0,7.134-15.426,161.964,161.964,0,0,0,8.62-31.922c1.866-11.1,3.328-22.83,2.522-34.1-.708-9.863-4.3-21.126-13.151-26.366a.913.913,0,0,1-.559-.115q-.967-.578-1.952-1.128c-.386-.161-.76-.334-1.163-.478a.646.646,0,0,1-.42-.4c-.1-.058-.213-.1-.317-.161-15.95,18.708-30.264,38.694-43.991,59.072q-23.2,34.444-44.682,70.006-5.8,9.544-11.476,19.162c7.244,7.664,12.052,17.908,15.979,27.552,2.107,5.177,4.036,10.445,5.833,15.737,1.543,4.555,3.063,9.414,3.207,14.28C115.49,249.192,125.325,237.768,134.791,226.062Zm-31.272,35.89c-.536-10.906-4.779-21.483-8.954-31.479a140.552,140.552,0,0,0-6.743-14.055,140.635,140.635,0,0,0-8.3-12.679q-3.248,5.5-6.449,11.033a.77.77,0,0,1,.224.213,170.469,170.469,0,0,1,15.357,26.953c2.171,4.79,4.14,9.685,5.821,14.666,1.2,3.541,2.672,7.768,2.879,11.741Q100.467,265.173,103.519,261.952ZM74.971,289.734c7.082-6.276,13.917-12.818,20.567-19.548-.288-2.137-.391-4.29-.858-6.426a67.752,67.752,0,0,0-2.3-7.779c-1.618-4.635-3.461-9.2-5.487-13.675a167.752,167.752,0,0,0-14.735-25.963q-11.392,19.641-22.312,39.54-20.081,36.655-38.78,74.036c-1.019,2.044-2,4.106-2.971,6.173A329.622,329.622,0,0,0,74.971,289.734ZM5.805,337.3C17.7,313.463,29.431,289.6,41.989,266.1,27.68,264.543,14.915,271,2,276.272q-.164,10.14.086,20.292c.352,13.744,1.4,27.471,2.948,41.135C5.293,337.566,5.546,337.422,5.805,337.3Z" transform="translate(235.473 363.842) rotate(-174)" fill="#f38576" opacity="0.1"/></svg>