<svg xmlns="http://www.w3.org/2000/svg" width="95.146" height="156.771" viewBox="0 0 95.146 156.771"><g id="Group_596" data-name="Group 596" transform="matrix(0.259, 0.966, -0.966, 0.259, 76.272, -10.049)" opacity="0.1"><g id="Group_596-2" data-name="Group 596" transform="translate(0 0)"><path id="Path_1298" data-name="Path 1298" d="M50.414,41.7c-.078-.022-.159-.038-.236-.055l-.193-.035c-.576-.1-1.154-.2-1.73-.322-1.266-.258-2.52-.56-3.775-.863-4.959-1.193-9.988-2.189-14.885-3.612-4.506-1.311-9.038-3.068-12.755-6-3.929-3.1-6.636-7.387-9.447-11.454-.949-1.367-1.844-2.772-2.669-4.217-.272-.476-.531-.956-.783-1.439-.131-.251-.257-.5-.385-.75A63.765,63.765,0,0,1,.5,5.845,4.894,4.894,0,0,1,.131,2.814C.51,1.807,2.158,1.539,3.074,1.375,4.283,1.153,5.516,1.1,6.735.933,7.925.771,9.1.522,10.289.36,11.536.2,12.788.083,14.043.031A32.635,32.635,0,0,1,27.9,2.3c6.231,2.625,10.289,7.938,13.128,13.887.715,1.5,1.352,3.036,1.929,4.581.592,1.589,1.119,3.192,1.6,4.762,1.358,4.466,2.494,9.217,5.547,12.85q.342.411.716.8c.146.153.3.3.448.45.052.557.1,1.109.155,1.666.018.193.033.386.055.578A5.978,5.978,0,0,1,50.414,41.7ZM50.262,40.1a19.467,19.467,0,0,1-4.023-6.138A86.744,86.744,0,0,1,43.5,25.618c-2.83-9.1-7.232-19-16.757-22.656A33.069,33.069,0,0,0,12.635,1.144c-2.459.175-4.869.694-7.32.955a15.436,15.436,0,0,0-3.593.715c-.5.177-.671.308-.637.862a6.715,6.715,0,0,0,.363,1.7c.4,1.165.923,2.287,1.4,3.422.466,1.111.937,2.225,1.46,3.307a46.48,46.48,0,0,0,3.626,6.206c2.391,3.457,4.67,7.085,7.69,10.036a29.037,29.037,0,0,0,10.355,6.182,94.98,94.98,0,0,0,12.287,3.348c4,.9,7.988,2.084,12.049,2.728.192.03.387.06.578.086C50.677,40.5,50.465,40.3,50.262,40.1Z" transform="translate(33.658 14.272)" fill="#fff" fill-rule="evenodd"></path><path id="Path_1299" data-name="Path 1299" d="M67.747,34.9c4-1.6,7.959-3.617,12.158-4.7.34-.092.683-.171,1.024-.246-.014-.168-.029-.339-.043-.507-.022-.191-.037-.385-.055-.578-.241.071-.458.146-.592.179s-.288.074-.433.115c-.074.017-.146.038-.222.06a53.316,53.316,0,0,0-6.019,2.116c-2.171.888-4.31,1.844-6.49,2.708a63.322,63.322,0,0,1-6.862,2.285,62.519,62.519,0,0,1-13.774,2.191,46.264,46.264,0,0,1-25.667-6.241,35.768,35.768,0,0,1-9.935-8.636C7.99,19.979,6.013,15.768,3.643,11.8a15.789,15.789,0,0,1-2.554-6A3.007,3.007,0,0,1,1.434,3.7,3.508,3.508,0,0,1,4.1,2.7a30.608,30.608,0,0,1,3.215.053,20.224,20.224,0,0,0,3.377-.127c2.328-.27,4.652-.619,6.977-.937,4.43-.608,9.055-1.1,13.455-.006.552.139,1.1.3,1.635.493.448.158.883.4,1.338.542a.069.069,0,0,0,.033.006.513.513,0,0,0,.7-.5c-.021-.453-.581-.589-.925-.726-.184-.073-.369-.146-.554-.209a21.31,21.31,0,0,0-5.9-1.214c-4.561-.315-9.1.478-13.6,1.1A34.3,34.3,0,0,1,7.054,1.7c-1.9-.112-4.573-.425-6.108,1-1.424,1.322-.964,3.646-.4,5.26a38.953,38.953,0,0,0,3.246,6.13c1.188,2.067,2.264,4.195,3.51,6.228a37.169,37.169,0,0,0,8.634,9.9,45.031,45.031,0,0,0,24.506,9.258A61.932,61.932,0,0,0,67.747,34.9Z" transform="translate(4.253 26.691)" fill="#fff" fill-rule="evenodd"></path><path id="Path_1300" data-name="Path 1300" d="M13.327,13.56a5.466,5.466,0,0,0-1.29-.9c-.542-.338-1.059-.72-1.572-1.1-.982-.726-1.942-1.48-2.891-2.247a37.082,37.082,0,0,1-5.153-4.6,12.274,12.274,0,0,1-.967-1.294,2.26,2.26,0,0,1-.4-.77c-.032-.248.125-.235.343-.288,1.128-.277,2.267-.494,3.409-.71a35.717,35.717,0,0,1,7.43-.6,56.225,56.225,0,0,1,7.377.737,48.547,48.547,0,0,1,7.17,1.639,31.938,31.938,0,0,1,12.028,6.758,32.739,32.739,0,0,1,4.819,5.437c.722,1.04,1.325,2.144,1.945,3.245a5.048,5.048,0,0,1,.348.7,1.582,1.582,0,0,0,.291.628.5.5,0,0,0,.833-.327,2.417,2.417,0,0,0-.53-1.445c-.336-.553-.632-1.125-.953-1.687a25.136,25.136,0,0,0-2.043-2.987A34.48,34.48,0,0,0,38.5,8.53,33.883,33.883,0,0,0,26.012,2.109,54.122,54.122,0,0,0,18.821.617,52.412,52.412,0,0,0,11.523,0,36.89,36.89,0,0,0,4.273.692,16.385,16.385,0,0,0,.7,1.512c-.913.415-.8,1.26-.391,2.042,1.113,2.121,3.15,3.711,4.948,5.22a71.845,71.845,0,0,0,5.915,4.572C11.713,13.712,13.257,14.915,13.327,13.56Z" transform="translate(19.525 0)" fill="#fff" fill-rule="evenodd"></path><path id="Path_1301" data-name="Path 1301" d="M.1,8.633a13.6,13.6,0,0,0,1.223,2.084A14.073,14.073,0,0,0,2.78,12.693c.531.621,1.095,1.212,1.676,1.786a11.251,11.251,0,0,0,1.376,1.289c.378.262,1.1.139.9-.457a1.641,1.641,0,0,0-.51-.6q-.449-.407-.884-.829a18.984,18.984,0,0,1-3.173-3.786c-.209-.354-.406-.708-.638-1.048a1.933,1.933,0,0,1-.464-.907c0-.449.779-.653,1.082-.861a22.687,22.687,0,0,1,4.41-2.4,32.914,32.914,0,0,1,4.953-1.47c1.71-.391,3.424-.777,5.144-1.12a57.886,57.886,0,0,1,10.3-1.239,33.9,33.9,0,0,1,4.919.255c.823.106,1.641.247,2.451.427q.611.136,1.215.3a4.42,4.42,0,0,0,.886.216c.653.035.743-.7.207-.976A8.421,8.421,0,0,0,34.713.751,30.143,30.143,0,0,0,29.925.072,46.522,46.522,0,0,0,19.83.66C16.4,1.2,13,1.953,9.634,2.811A27.764,27.764,0,0,0,4.829,4.488,20.03,20.03,0,0,0,2.572,5.7c-.339.213-.653.456-.982.683-.3.208-.637.357-.941.561A1.372,1.372,0,0,0,.1,8.633Z" transform="translate(8.331 13.299)" fill="#fff" fill-rule="evenodd"></path><path id="Path_1302" data-name="Path 1302" d="M.156,1.964a6.222,6.222,0,0,0,2.438-.211c1.032-.168,2.079-.273,3.118-.378,2.058-.207,4.124-.33,6.193-.331a34.374,34.374,0,0,1,11.8,1.81,20.583,20.583,0,0,1,2.5,1.1c.28.146.6.291.883.075a.418.418,0,0,0,.158-.538c-.2-.427-.871-.664-1.27-.836-.706-.3-1.414-.6-2.138-.859A35.466,35.466,0,0,0,12.14,0,63.6,63.6,0,0,0,5.31.367C4.174.486,3.041.632,1.91.792,1.236.888-.531.856.156,1.964Z" transform="translate(9.011 19.496)" fill="#fff" fill-rule="evenodd"></path><path id="Path_1303" data-name="Path 1303" d="M.116,1.55A4.632,4.632,0,0,0,1.309,3.189c.5.491,1.007.977,1.542,1.428a27.694,27.694,0,0,0,3.5,2.44c2.541,1.541,5.137,3.011,7.77,4.386a61.728,61.728,0,0,0,7.976,3.549,49.426,49.426,0,0,0,8.5,2.071,38.853,38.853,0,0,0,4.378.542,17.762,17.762,0,0,0,4.282-.371c.389-.075,1.043-.2.863-.767-.2-.614-1.2-.238-1.624-.156a15.181,15.181,0,0,1-4.3.189A49.584,49.584,0,0,1,17.49,11.955c-2.685-1.263-5.277-2.708-7.852-4.178A34.6,34.6,0,0,1,2.424,2.831,4.988,4.988,0,0,1,1.091,1.177a18.844,18.844,0,0,1,2.865-.12c1-.013,2,0,3,.08A24.343,24.343,0,0,1,12.5,2.226c.322.1.749.255.947-.132a.585.585,0,0,0-.3-.763,3.564,3.564,0,0,0-1-.314c-.466-.113-.926-.249-1.394-.357A27.768,27.768,0,0,0,4.87.02C3.787.006,2.681-.03,1.6.053A2.344,2.344,0,0,0,.23.422,1.008,1.008,0,0,0,.116,1.55Z" transform="translate(1.607 48.737)" fill="#fff" fill-rule="evenodd"></path><path id="Path_1304" data-name="Path 1304" d="M26.806,50.237q-.2-2.2-.4-4.4c-.1-.38-.193-.759-.278-1.141-.111-.523-.213-1.045-.307-1.569-.469-2.644-.709-5.319-.988-7.989a72.371,72.371,0,0,0-1.468-9.383,35.271,35.271,0,0,0-3.381-9,37.4,37.4,0,0,0-5.625-7.544A44.4,44.4,0,0,0,7.379,3.184,25.456,25.456,0,0,0,3.419.875C2.866.62,2.3.357,1.73.149A2.325,2.325,0,0,0,1.063,0S1.054,0,1.05,0A.9.9,0,0,0,.324.289C.311.3.3.314.289.328-.418,1.17.36,2.756.636,3.615c.484,1.507,1.023,2.991,1.5,4.5.118.379.622,1.432,1.147.794.325-.4-.111-1.071-.255-1.472-.509-1.45-1.038-2.9-1.5-4.365a5.648,5.648,0,0,1-.46-1.9c0-.041.007-.082.014-.124a11.194,11.194,0,0,1,2.36.988A22.1,22.1,0,0,1,5.76,3.349q.759.485,1.494,1.015c.966.694,1.9,1.434,2.8,2.2a41.955,41.955,0,0,1,7.4,8.1,32.538,32.538,0,0,1,4.6,10.16A70.638,70.638,0,0,1,23.867,35.99a68.47,68.47,0,0,0,1.5,10.06q.322,1.288.766,2.545C26.338,49.158,26.563,49.7,26.806,50.237Z" transform="translate(58.079 3.206)" fill="#fff" fill-rule="evenodd"></path><path id="Path_1305" data-name="Path 1305" d="M.269.954a26.2,26.2,0,0,1,10.89,10.514A36.559,36.559,0,0,1,14.435,19a73.386,73.386,0,0,1,1.857,8.181q.387,2.051.77,4.1c.075.4.206,1.584.869,1.229.374-.2.336-.65.268-1.007-.089-.469-.208-.932-.3-1.4q-.393-2.1-.789-4.194a61.079,61.079,0,0,0-1.954-8.061A37.052,37.052,0,0,0,11.7,10.33,29.213,29.213,0,0,0,6.765,4.215,25.6,25.6,0,0,0,3.727,1.776C3.179,1.4,2.612,1.057,2.042.715A4.118,4.118,0,0,0,.605.007.5.5,0,0,0,.028.3C-.069.568.1.764.269.954Z" transform="translate(58.38 3.171)" fill="#fff" fill-rule="evenodd"></path><path id="Path_1306" data-name="Path 1306" d="M71.072,16.285c3.017-1.43,6.014-2.918,8.876-4.643.979-.592,1.944-1.211,2.884-1.865.33-.234.662-.473.985-.714-.038-.4-.078-.808-.117-1.215l-.557.419-.424.307c-.534.384-1.073.753-1.624,1.113-1.383.905-2.815,1.744-4.268,2.537-2.932,1.6-5.958,3.04-9,4.418a85.654,85.654,0,0,1-9.544,3.752,48.484,48.484,0,0,1-9.827,1.932,52.771,52.771,0,0,1-10.046.134c-3.345-.313-6.676-.866-9.983-1.427a55.58,55.58,0,0,1-9.582-2.18,36.707,36.707,0,0,1-8.45-4.276A23.945,23.945,0,0,1,3.775,7.9,21.106,21.106,0,0,1,1.611,3.493,8.726,8.726,0,0,1,1.1,1.256C1.073.855,1.087-.312.33.079-.164.335.028,1.267.083,1.695A11.124,11.124,0,0,0,.66,3.926C2.855,10.072,7.7,14.624,13.39,17.6a37.227,37.227,0,0,0,8.977,3.337c3.253.734,6.556,1.27,9.849,1.765a67.708,67.708,0,0,0,9.826.963,64.4,64.4,0,0,0,7.151-.361q1.428-.145,2.845-.362c.017,0,.029-.005.046-.007C58.744,21.907,65.028,19.156,71.072,16.285Z" transform="translate(1.518 49.18)" fill="#fff" fill-rule="evenodd"></path><path id="Path_1307" data-name="Path 1307" d="M13.542,25.615a60.178,60.178,0,0,0,13.777-8.1A107.745,107.745,0,0,0,39.253,6.982c1.383-1.414,2.68-2.908,3.984-4.4.316-.362.633-.724.95-1.082-.024-.5-.066-1-.112-1.5,0,0,0,.005-.006.007-.312.374-.63.745-.948,1.112-.523.606-1.057,1.207-1.58,1.814-1.759,2.022-3.614,3.936-5.562,5.78A102.724,102.724,0,0,1,23.7,18.841,61.012,61.012,0,0,1,16.753,23a28.021,28.021,0,0,1-7.461,2.812,19.779,19.779,0,0,1-3.941.274,13.61,13.61,0,0,1-3.548-.3c-.176-.049-.647-.155-.741-.326-.088-.151.066-.47.131-.6a7.219,7.219,0,0,1,.879-1.287c.774-1,1.4-2.078,2.092-3.137a23.49,23.49,0,0,1,5.054-5.705,12.5,12.5,0,0,1,1.52-1.033c.265-.154.538-.3.82-.426.214-.1.49-.153.7-.276a.69.69,0,0,0,.136-.092.526.526,0,0,0,0-.866c-.4-.234-.968.1-1.318.29A17.689,17.689,0,0,0,9.37,13.365a20.1,20.1,0,0,0-3.992,3.687c-1.6,1.913-2.786,4.1-4.3,6.08-.525.691-1.336,1.751-1,2.686.3.812,1.418,1.027,2.164,1.139a23.378,23.378,0,0,0,3.559.2A20.964,20.964,0,0,0,13.542,25.615Z" transform="translate(41.342 59.116)" fill="#fff" fill-rule="evenodd"></path><path id="Path_1308" data-name="Path 1308" d="M.16,17.929a2.856,2.856,0,0,0,1.291-.052c.55-.113,1.1-.237,1.637-.388a22.835,22.835,0,0,0,3.08-1.108,32.228,32.228,0,0,0,5.595-3.245c1.807-1.28,3.507-2.7,5.2-4.121,1.671-1.406,3.355-2.8,4.932-4.314.805-.773,1.588-1.57,2.39-2.347.324-.313.644-.629.992-.916.252-.208.605-.455.693-.789A.528.528,0,0,0,25.511,0c-.419-.022-.861.57-1.135.826-.8.754-1.585,1.533-2.37,2.307-1.549,1.529-3.19,2.945-4.852,4.349s-3.327,2.833-5.081,4.139a33.023,33.023,0,0,1-6.236,3.765A21.735,21.735,0,0,1,2.359,16.6c-.584.149-1.173.248-1.764.362S-.154,17.409.16,17.929Z" transform="translate(42.093 66.7)" fill="#fff" fill-rule="evenodd"></path><path id="Path_1309" data-name="Path 1309" d="M4.794,9.942A5.684,5.684,0,0,0,3.837,8.1C3.477,7.5,3.129,6.9,2.8,6.281A21.308,21.308,0,0,1,1.141,2.468c-.129-.429-.246-.955.2-1.237A2.226,2.226,0,0,1,2.7,1.078c.589.056,1.174.157,1.76.238.673.093,1.351.13,2.017.27.508.106,1.26.564,1.78.4.563-.178.392-.782-.039-1A6.786,6.786,0,0,0,6.294.515C5.642.416,4.985.351,4.334.248,3.218.073,1.8-.268.774.378c-1.1.691-.821,2-.414,3.025A37.263,37.263,0,0,0,2.324,7.588c.362.659.726,1.318,1.139,1.947C3.823,10.082,4.275,10.674,4.794,9.942Z" transform="translate(0 38.828)" fill="#fff" fill-rule="evenodd"></path><path id="Path_1310" data-name="Path 1310" d="M.112,2.682A4.676,4.676,0,0,0,1.521,4.5c.628.561,1.27,1.106,1.921,1.64C4.711,7.177,6.006,8.2,7.358,9.127a34.031,34.031,0,0,0,8.652,4.189,62.7,62.7,0,0,0,9.759,2.367,28.585,28.585,0,0,0,9.836.024c.418-.079,1.772-.323,1.28-1.066-.313-.473-1.171-.048-1.588.031a24.359,24.359,0,0,1-4.879.389,43.6,43.6,0,0,1-9.885-1.527,43.13,43.13,0,0,1-9.309-3.3A46.1,46.1,0,0,1,3.233,4.567C2.649,4.089.316,2.558,1.254,1.612A2.91,2.91,0,0,1,3.1,1.055c.755-.038,1.507.059,2.261.082.316.009.759.071.982-.211A.505.505,0,0,0,6.183.169,4.293,4.293,0,0,0,4.469.027C3.2-.029,1.454-.092.477.889A1.684,1.684,0,0,0,.112,2.682Z" transform="translate(8.046 64.995)" fill="#fff" fill-rule="evenodd"></path><path id="Path_1311" data-name="Path 1311" d="M5.426,17.01a8.256,8.256,0,0,1-2.3-.442c-.341-.116-.673-.257-1.009-.4-.248-.1-.574-.216-.7-.478a1.319,1.319,0,0,1-.078-.3,10.157,10.157,0,0,1-.074-1.013c-.012-.15-.026-.3-.043-.453-.028-.348-.061-.7-.093-1.042-.009-.076-.015-.158-.02-.236-.038-.4-.075-.8-.113-1.2-.029-.286-.054-.574-.078-.861C.9,10.358.874,10.127.853,9.9c-.005-.078-.015-.158-.02-.236L.819,9.549Q.775,9.061.731,8.572C.716,8.4.7,8.229.681,8.059.631,7.484.579,6.914.525,6.34.455,5.591.386,4.846.316,4.1.28,3.716.249,3.333.212,2.948c-.045-.5-.091-1-.141-1.5A2.689,2.689,0,0,1,.064.3.451.451,0,0,1,.657.021a3.27,3.27,0,0,1,.6.234A20.036,20.036,0,0,1,3.269,1.39a25.015,25.015,0,0,1,7.2,6.315A5.96,5.96,0,0,1,11.9,11.884a6.566,6.566,0,0,1-2.217,3.706A6.106,6.106,0,0,1,5.426,17.01Zm5.352-4.925a4.026,4.026,0,0,0-.8-3.245A15.972,15.972,0,0,0,7.463,5.913,27.056,27.056,0,0,0,1.115,1.374c.043.454.085.9.127,1.357q.2,2.2.4,4.4c.013.151.026.3.043.454.052.557.1,1.109.155,1.666.018.193.033.386.055.578.014.167.029.339.043.507.012.124.023.244.035.368a.014.014,0,0,1,0,.013c.04.406.079.813.117,1.215.03.29.056.582.083.873.046.5.088,1,.112,1.5.008.112.016.225.02.338.01.3.043.48.323.613a6.355,6.355,0,0,0,.735.284,7.3,7.3,0,0,0,1.775.4A5.366,5.366,0,0,0,10.777,12.085Z" transform="translate(83.239 46.308)" fill="#fff" fill-rule="evenodd"></path><path id="Path_1312" data-name="Path 1312" d="M.426,1.017A37.9,37.9,0,0,1,6.087,2.751c2,.708,4,1.409,5.952,2.231a62.76,62.76,0,0,1,10.721,5.739c3.569,2.4,6.948,5.081,10.439,7.592,1.678,1.208,3.375,2.4,5.127,3.5a59.093,59.093,0,0,0,5.393,2.88q2.884,1.417,5.814,2.737c.934.422,1.872.837,2.816,1.235q.679.286,1.356.574c.328.14.816.356,1.127.063.761-.717-.981-1.149-1.362-1.3-.968-.392-1.924-.813-2.878-1.238q-2.917-1.3-5.789-2.7c-1.877-.909-3.757-1.828-5.549-2.9-1.776-1.061-3.461-2.273-5.142-3.476-3.471-2.483-6.824-5.133-10.349-7.539A64.115,64.115,0,0,0,12.887,4.208C10.992,3.395,9.059,2.694,7.119,2S3.234.613,1.225.107C.9.025.463-.1.172.143-.212.467.124.82.426,1.017Z" transform="translate(94.099 58.567)" fill="#fff" fill-rule="evenodd"></path><path id="Path_1313" data-name="Path 1313" d="M50.414,41.7c-.078-.022-.159-.038-.236-.055l-.193-.035c-.576-.1-1.154-.2-1.73-.322-1.266-.258-2.52-.56-3.775-.863-4.959-1.193-9.988-2.189-14.885-3.612-4.506-1.311-9.038-3.068-12.755-6-3.929-3.1-6.636-7.387-9.447-11.454-.949-1.367-1.844-2.772-2.669-4.217-.272-.476-.531-.956-.783-1.439-.131-.251-.257-.5-.385-.75A63.765,63.765,0,0,1,.5,5.845,4.894,4.894,0,0,1,.131,2.814C.51,1.807,2.158,1.539,3.074,1.375,4.283,1.153,5.516,1.1,6.735.933,7.925.771,9.1.522,10.289.36,11.536.2,12.788.083,14.043.031A32.635,32.635,0,0,1,27.9,2.3c6.231,2.625,10.289,7.938,13.128,13.887.715,1.5,1.352,3.036,1.929,4.581.592,1.589,1.119,3.192,1.6,4.762,1.358,4.466,2.494,9.217,5.547,12.85q.342.411.716.8c.146.153.3.3.448.45.052.557.1,1.109.155,1.666.018.193.033.386.055.578A5.978,5.978,0,0,1,50.414,41.7ZM50.262,40.1a19.467,19.467,0,0,1-4.023-6.138A86.744,86.744,0,0,1,43.5,25.618c-2.83-9.1-7.232-19-16.757-22.656A33.069,33.069,0,0,0,12.635,1.144c-2.459.175-4.869.694-7.32.955a15.436,15.436,0,0,0-3.593.715c-.5.177-.671.308-.637.862a6.715,6.715,0,0,0,.363,1.7c.4,1.165.923,2.287,1.4,3.422.466,1.111.937,2.225,1.46,3.307a46.48,46.48,0,0,0,3.626,6.206c2.391,3.457,4.67,7.085,7.69,10.036a29.037,29.037,0,0,0,10.355,6.182,94.98,94.98,0,0,0,12.287,3.348c4,.9,7.988,2.084,12.049,2.728.192.03.387.06.578.086C50.677,40.5,50.465,40.3,50.262,40.1Z" transform="translate(33.658 14.272)" fill="#fff" fill-rule="evenodd"></path><path id="Path_1314" data-name="Path 1314" d="M67.747,34.9c4-1.6,7.959-3.617,12.158-4.7.34-.092.683-.171,1.024-.246-.014-.168-.029-.339-.043-.507-.022-.191-.037-.385-.055-.578-.241.071-.458.146-.592.179s-.288.074-.433.115c-.074.017-.146.038-.222.06a53.316,53.316,0,0,0-6.019,2.116c-2.171.888-4.31,1.844-6.49,2.708a63.322,63.322,0,0,1-6.862,2.285,62.519,62.519,0,0,1-13.774,2.191,46.264,46.264,0,0,1-25.667-6.241,35.768,35.768,0,0,1-9.935-8.636C7.99,19.979,6.013,15.768,3.643,11.8a15.789,15.789,0,0,1-2.554-6A3.007,3.007,0,0,1,1.434,3.7,3.508,3.508,0,0,1,4.1,2.7a30.608,30.608,0,0,1,3.215.053,20.224,20.224,0,0,0,3.377-.127c2.328-.27,4.652-.619,6.977-.937,4.43-.608,9.055-1.1,13.455-.006.552.139,1.1.3,1.635.493.448.158.883.4,1.338.542a.069.069,0,0,0,.033.006.513.513,0,0,0,.7-.5c-.021-.453-.581-.589-.925-.726-.184-.073-.369-.146-.554-.209a21.31,21.31,0,0,0-5.9-1.214c-4.561-.315-9.1.478-13.6,1.1A34.3,34.3,0,0,1,7.054,1.7c-1.9-.112-4.573-.425-6.108,1-1.424,1.322-.964,3.646-.4,5.26a38.953,38.953,0,0,0,3.246,6.13c1.188,2.067,2.264,4.195,3.51,6.228a37.169,37.169,0,0,0,8.634,9.9,45.031,45.031,0,0,0,24.506,9.258A61.932,61.932,0,0,0,67.747,34.9Z" transform="translate(4.253 26.691)" fill="#fff" fill-rule="evenodd"></path><path id="Path_1315" data-name="Path 1315" d="M13.327,13.56a5.466,5.466,0,0,0-1.29-.9c-.542-.338-1.059-.72-1.572-1.1-.982-.726-1.942-1.48-2.891-2.247a37.082,37.082,0,0,1-5.153-4.6,12.274,12.274,0,0,1-.967-1.294,2.26,2.26,0,0,1-.4-.77c-.032-.248.125-.235.343-.288,1.128-.277,2.267-.494,3.409-.71a35.717,35.717,0,0,1,7.43-.6,56.225,56.225,0,0,1,7.377.737,48.547,48.547,0,0,1,7.17,1.639,31.938,31.938,0,0,1,12.028,6.758,32.739,32.739,0,0,1,4.819,5.437c.722,1.04,1.325,2.144,1.945,3.245a5.048,5.048,0,0,1,.348.7,1.582,1.582,0,0,0,.291.628.5.5,0,0,0,.833-.327,2.417,2.417,0,0,0-.53-1.445c-.336-.553-.632-1.125-.953-1.687a25.136,25.136,0,0,0-2.043-2.987A34.48,34.48,0,0,0,38.5,8.53,33.883,33.883,0,0,0,26.012,2.109,54.122,54.122,0,0,0,18.821.617,52.412,52.412,0,0,0,11.523,0,36.89,36.89,0,0,0,4.273.692,16.385,16.385,0,0,0,.7,1.512c-.913.415-.8,1.26-.391,2.042,1.113,2.121,3.15,3.711,4.948,5.22a71.845,71.845,0,0,0,5.915,4.572C11.713,13.712,13.257,14.915,13.327,13.56Z" transform="translate(19.525 0)" fill="#fff" fill-rule="evenodd"></path><path id="Path_1316" data-name="Path 1316" d="M.1,8.633a13.6,13.6,0,0,0,1.223,2.084A14.073,14.073,0,0,0,2.78,12.693c.531.621,1.095,1.212,1.676,1.786a11.251,11.251,0,0,0,1.376,1.289c.378.262,1.1.139.9-.457a1.641,1.641,0,0,0-.51-.6q-.449-.407-.884-.829a18.984,18.984,0,0,1-3.173-3.786c-.209-.354-.406-.708-.638-1.048a1.933,1.933,0,0,1-.464-.907c0-.449.779-.653,1.082-.861a22.687,22.687,0,0,1,4.41-2.4,32.914,32.914,0,0,1,4.953-1.47c1.71-.391,3.424-.777,5.144-1.12a57.886,57.886,0,0,1,10.3-1.239,33.9,33.9,0,0,1,4.919.255c.823.106,1.641.247,2.451.427q.611.136,1.215.3a4.42,4.42,0,0,0,.886.216c.653.035.743-.7.207-.976A8.421,8.421,0,0,0,34.713.751,30.143,30.143,0,0,0,29.925.072,46.522,46.522,0,0,0,19.83.66C16.4,1.2,13,1.953,9.634,2.811A27.764,27.764,0,0,0,4.829,4.488,20.03,20.03,0,0,0,2.572,5.7c-.339.213-.653.456-.982.683-.3.208-.637.357-.941.561A1.372,1.372,0,0,0,.1,8.633Z" transform="translate(8.331 13.299)" fill="#fff" fill-rule="evenodd"></path><path id="Path_1317" data-name="Path 1317" d="M.156,1.964a6.222,6.222,0,0,0,2.438-.211c1.032-.168,2.079-.273,3.118-.378,2.058-.207,4.124-.33,6.193-.331a34.374,34.374,0,0,1,11.8,1.81,20.583,20.583,0,0,1,2.5,1.1c.28.146.6.291.883.075a.418.418,0,0,0,.158-.538c-.2-.427-.871-.664-1.27-.836-.706-.3-1.414-.6-2.138-.859A35.466,35.466,0,0,0,12.14,0,63.6,63.6,0,0,0,5.31.367C4.174.486,3.041.632,1.91.792,1.236.888-.531.856.156,1.964Z" transform="translate(9.011 19.496)" fill="#fff" fill-rule="evenodd"></path><path id="Path_1318" data-name="Path 1318" d="M.116,1.55A4.632,4.632,0,0,0,1.309,3.189c.5.491,1.007.977,1.542,1.428a27.694,27.694,0,0,0,3.5,2.44c2.541,1.541,5.137,3.011,7.77,4.386a61.728,61.728,0,0,0,7.976,3.549,49.426,49.426,0,0,0,8.5,2.071,38.853,38.853,0,0,0,4.378.542,17.762,17.762,0,0,0,4.282-.371c.389-.075,1.043-.2.863-.767-.2-.614-1.2-.238-1.624-.156a15.181,15.181,0,0,1-4.3.189A49.584,49.584,0,0,1,17.49,11.955c-2.685-1.263-5.277-2.708-7.852-4.178A34.6,34.6,0,0,1,2.424,2.831,4.988,4.988,0,0,1,1.091,1.177a18.844,18.844,0,0,1,2.865-.12c1-.013,2,0,3,.08A24.343,24.343,0,0,1,12.5,2.226c.322.1.749.255.947-.132a.585.585,0,0,0-.3-.763,3.564,3.564,0,0,0-1-.314c-.466-.113-.926-.249-1.394-.357A27.768,27.768,0,0,0,4.87.02C3.787.006,2.681-.03,1.6.053A2.344,2.344,0,0,0,.23.422,1.008,1.008,0,0,0,.116,1.55Z" transform="translate(1.607 48.737)" fill="#fff" fill-rule="evenodd"></path><path id="Path_1319" data-name="Path 1319" d="M26.806,50.237q-.2-2.2-.4-4.4c-.1-.38-.193-.759-.278-1.141-.111-.523-.213-1.045-.307-1.569-.469-2.644-.709-5.319-.988-7.989a72.371,72.371,0,0,0-1.468-9.383,35.271,35.271,0,0,0-3.381-9,37.4,37.4,0,0,0-5.625-7.544A44.4,44.4,0,0,0,7.379,3.184,25.456,25.456,0,0,0,3.419.875C2.866.62,2.3.357,1.73.149A2.325,2.325,0,0,0,1.063,0S1.054,0,1.05,0A.9.9,0,0,0,.324.289C.311.3.3.314.289.328-.418,1.17.36,2.756.636,3.615c.484,1.507,1.023,2.991,1.5,4.5.118.379.622,1.432,1.147.794.325-.4-.111-1.071-.255-1.472-.509-1.45-1.038-2.9-1.5-4.365a5.648,5.648,0,0,1-.46-1.9c0-.041.007-.082.014-.124a11.194,11.194,0,0,1,2.36.988A22.1,22.1,0,0,1,5.76,3.349q.759.485,1.494,1.015c.966.694,1.9,1.434,2.8,2.2a41.955,41.955,0,0,1,7.4,8.1,32.538,32.538,0,0,1,4.6,10.16A70.638,70.638,0,0,1,23.867,35.99a68.47,68.47,0,0,0,1.5,10.06q.322,1.288.766,2.545C26.338,49.158,26.563,49.7,26.806,50.237Z" transform="translate(58.079 3.206)" fill="#fff" fill-rule="evenodd"></path><path id="Path_1320" data-name="Path 1320" d="M.269.954a26.2,26.2,0,0,1,10.89,10.514A36.559,36.559,0,0,1,14.435,19a73.386,73.386,0,0,1,1.857,8.181q.387,2.051.77,4.1c.075.4.206,1.584.869,1.229.374-.2.336-.65.268-1.007-.089-.469-.208-.932-.3-1.4q-.393-2.1-.789-4.194a61.079,61.079,0,0,0-1.954-8.061A37.052,37.052,0,0,0,11.7,10.33,29.213,29.213,0,0,0,6.765,4.215,25.6,25.6,0,0,0,3.727,1.776C3.179,1.4,2.612,1.057,2.042.715A4.118,4.118,0,0,0,.605.007.5.5,0,0,0,.028.3C-.069.568.1.764.269.954Z" transform="translate(58.38 3.171)" fill="#fff" fill-rule="evenodd"></path><path id="Path_1321" data-name="Path 1321" d="M71.072,16.285c3.017-1.43,6.014-2.918,8.876-4.643.979-.592,1.944-1.211,2.884-1.865.33-.234.662-.473.985-.714-.038-.4-.078-.808-.117-1.215l-.557.419-.424.307c-.534.384-1.073.753-1.624,1.113-1.383.905-2.815,1.744-4.268,2.537-2.932,1.6-5.958,3.04-9,4.418a85.654,85.654,0,0,1-9.544,3.752,48.484,48.484,0,0,1-9.827,1.932,52.771,52.771,0,0,1-10.046.134c-3.345-.313-6.676-.866-9.983-1.427a55.58,55.58,0,0,1-9.582-2.18,36.707,36.707,0,0,1-8.45-4.276A23.945,23.945,0,0,1,3.775,7.9,21.106,21.106,0,0,1,1.611,3.493,8.726,8.726,0,0,1,1.1,1.256C1.073.855,1.087-.312.33.079-.164.335.028,1.267.083,1.695A11.124,11.124,0,0,0,.66,3.926C2.855,10.072,7.7,14.624,13.39,17.6a37.227,37.227,0,0,0,8.977,3.337c3.253.734,6.556,1.27,9.849,1.765a67.708,67.708,0,0,0,9.826.963,64.4,64.4,0,0,0,7.151-.361q1.428-.145,2.845-.362c.017,0,.029-.005.046-.007C58.744,21.907,65.028,19.156,71.072,16.285Z" transform="translate(1.518 49.18)" fill="#fff" fill-rule="evenodd"></path><path id="Path_1322" data-name="Path 1322" d="M13.542,25.615a60.178,60.178,0,0,0,13.777-8.1A107.745,107.745,0,0,0,39.253,6.982c1.383-1.414,2.68-2.908,3.984-4.4.316-.362.633-.724.95-1.082-.024-.5-.066-1-.112-1.5,0,0,0,.005-.006.007-.312.374-.63.745-.948,1.112-.523.606-1.057,1.207-1.58,1.814-1.759,2.022-3.614,3.936-5.562,5.78A102.724,102.724,0,0,1,23.7,18.841,61.012,61.012,0,0,1,16.753,23a28.021,28.021,0,0,1-7.461,2.812,19.779,19.779,0,0,1-3.941.274,13.61,13.61,0,0,1-3.548-.3c-.176-.049-.647-.155-.741-.326-.088-.151.066-.47.131-.6a7.219,7.219,0,0,1,.879-1.287c.774-1,1.4-2.078,2.092-3.137a23.49,23.49,0,0,1,5.054-5.705,12.5,12.5,0,0,1,1.52-1.033c.265-.154.538-.3.82-.426.214-.1.49-.153.7-.276a.69.69,0,0,0,.136-.092.526.526,0,0,0,0-.866c-.4-.234-.968.1-1.318.29A17.689,17.689,0,0,0,9.37,13.365a20.1,20.1,0,0,0-3.992,3.687c-1.6,1.913-2.786,4.1-4.3,6.08-.525.691-1.336,1.751-1,2.686.3.812,1.418,1.027,2.164,1.139a23.378,23.378,0,0,0,3.559.2A20.964,20.964,0,0,0,13.542,25.615Z" transform="translate(41.342 59.116)" fill="#fff" fill-rule="evenodd"></path><path id="Path_1323" data-name="Path 1323" d="M.16,17.929a2.856,2.856,0,0,0,1.291-.052c.55-.113,1.1-.237,1.637-.388a22.835,22.835,0,0,0,3.08-1.108,32.228,32.228,0,0,0,5.595-3.245c1.807-1.28,3.507-2.7,5.2-4.121,1.671-1.406,3.355-2.8,4.932-4.314.805-.773,1.588-1.57,2.39-2.347.324-.313.644-.629.992-.916.252-.208.605-.455.693-.789A.528.528,0,0,0,25.511,0c-.419-.022-.861.57-1.135.826-.8.754-1.585,1.533-2.37,2.307-1.549,1.529-3.19,2.945-4.852,4.349s-3.327,2.833-5.081,4.139a33.023,33.023,0,0,1-6.236,3.765A21.735,21.735,0,0,1,2.359,16.6c-.584.149-1.173.248-1.764.362S-.154,17.409.16,17.929Z" transform="translate(42.093 66.7)" fill="#fff" fill-rule="evenodd"></path><path id="Path_1324" data-name="Path 1324" d="M4.794,9.942A5.684,5.684,0,0,0,3.837,8.1C3.477,7.5,3.129,6.9,2.8,6.281A21.308,21.308,0,0,1,1.141,2.468c-.129-.429-.246-.955.2-1.237A2.226,2.226,0,0,1,2.7,1.078c.589.056,1.174.157,1.76.238.673.093,1.351.13,2.017.27.508.106,1.26.564,1.78.4.563-.178.392-.782-.039-1A6.786,6.786,0,0,0,6.294.515C5.642.416,4.985.351,4.334.248,3.218.073,1.8-.268.774.378c-1.1.691-.821,2-.414,3.025A37.263,37.263,0,0,0,2.324,7.588c.362.659.726,1.318,1.139,1.947C3.823,10.082,4.275,10.674,4.794,9.942Z" transform="translate(0 38.828)" fill="#fff" fill-rule="evenodd"></path><path id="Path_1325" data-name="Path 1325" d="M.112,2.682A4.676,4.676,0,0,0,1.521,4.5c.628.561,1.27,1.106,1.921,1.64C4.711,7.177,6.006,8.2,7.358,9.127a34.031,34.031,0,0,0,8.652,4.189,62.7,62.7,0,0,0,9.759,2.367,28.585,28.585,0,0,0,9.836.024c.418-.079,1.772-.323,1.28-1.066-.313-.473-1.171-.048-1.588.031a24.359,24.359,0,0,1-4.879.389,43.6,43.6,0,0,1-9.885-1.527,43.13,43.13,0,0,1-9.309-3.3A46.1,46.1,0,0,1,3.233,4.567C2.649,4.089.316,2.558,1.254,1.612A2.91,2.91,0,0,1,3.1,1.055c.755-.038,1.507.059,2.261.082.316.009.759.071.982-.211A.505.505,0,0,0,6.183.169,4.293,4.293,0,0,0,4.469.027C3.2-.029,1.454-.092.477.889A1.684,1.684,0,0,0,.112,2.682Z" transform="translate(8.046 64.995)" fill="#fff" fill-rule="evenodd"></path><path id="Path_1326" data-name="Path 1326" d="M.426,1.017A37.9,37.9,0,0,1,6.087,2.751c2,.708,4,1.409,5.952,2.231a62.76,62.76,0,0,1,10.721,5.739c3.569,2.4,6.948,5.081,10.439,7.592,1.678,1.208,3.375,2.4,5.127,3.5a59.093,59.093,0,0,0,5.393,2.88q2.884,1.417,5.814,2.737c.934.422,1.872.837,2.816,1.235q.679.286,1.356.574c.328.14.816.356,1.127.063.761-.717-.981-1.149-1.362-1.3-.968-.392-1.924-.813-2.878-1.238q-2.917-1.3-5.789-2.7c-1.877-.909-3.757-1.828-5.549-2.9-1.776-1.061-3.461-2.273-5.142-3.476-3.471-2.483-6.824-5.133-10.349-7.539A64.115,64.115,0,0,0,12.887,4.208C10.992,3.395,9.059,2.694,7.119,2S3.234.613,1.225.107C.9.025.463-.1.172.143-.212.467.124.82.426,1.017Z" transform="translate(94.099 58.567)" fill="#fff" fill-rule="evenodd"></path><path id="Path_1327" data-name="Path 1327" d="M50.414,41.7c-.078-.022-.159-.038-.236-.055l-.193-.035c-.576-.1-1.154-.2-1.73-.322-1.266-.258-2.52-.56-3.775-.863-4.959-1.193-9.988-2.189-14.885-3.612-4.506-1.311-9.038-3.068-12.755-6-3.929-3.1-6.636-7.387-9.447-11.454-.949-1.367-1.844-2.772-2.669-4.217-.272-.476-.531-.956-.783-1.439-.131-.251-.257-.5-.385-.75A63.765,63.765,0,0,1,.5,5.845,4.894,4.894,0,0,1,.131,2.814C.51,1.807,2.158,1.539,3.074,1.375,4.283,1.153,5.516,1.1,6.735.933,7.925.771,9.1.522,10.289.36,11.536.2,12.788.083,14.043.031A32.635,32.635,0,0,1,27.9,2.3c6.231,2.625,10.289,7.938,13.128,13.887.715,1.5,1.352,3.036,1.929,4.581.592,1.589,1.119,3.192,1.6,4.762,1.358,4.466,2.494,9.217,5.547,12.85q.342.411.716.8c.146.153.3.3.448.45.052.557.1,1.109.155,1.666.018.193.033.386.055.578A5.978,5.978,0,0,1,50.414,41.7ZM50.262,40.1a19.467,19.467,0,0,1-4.023-6.138A86.744,86.744,0,0,1,43.5,25.618c-2.83-9.1-7.232-19-16.757-22.656A33.069,33.069,0,0,0,12.635,1.144c-2.459.175-4.869.694-7.32.955a15.436,15.436,0,0,0-3.593.715c-.5.177-.671.308-.637.862a6.715,6.715,0,0,0,.363,1.7c.4,1.165.923,2.287,1.4,3.422.466,1.111.937,2.225,1.46,3.307a46.48,46.48,0,0,0,3.626,6.206c2.391,3.457,4.67,7.085,7.69,10.036a29.037,29.037,0,0,0,10.355,6.182,94.98,94.98,0,0,0,12.287,3.348c4,.9,7.988,2.084,12.049,2.728.192.03.387.06.578.086C50.677,40.5,50.465,40.3,50.262,40.1Z" transform="translate(33.658 14.272)" fill="#fff" fill-rule="evenodd"></path><path id="Path_1328" data-name="Path 1328" d="M67.747,34.9c4-1.6,7.959-3.617,12.158-4.7.34-.092.683-.171,1.024-.246-.014-.168-.029-.339-.043-.507-.022-.191-.037-.385-.055-.578-.241.071-.458.146-.592.179s-.288.074-.433.115c-.074.017-.146.038-.222.06a53.316,53.316,0,0,0-6.019,2.116c-2.171.888-4.31,1.844-6.49,2.708a63.322,63.322,0,0,1-6.862,2.285,62.519,62.519,0,0,1-13.774,2.191,46.264,46.264,0,0,1-25.667-6.241,35.768,35.768,0,0,1-9.935-8.636C7.99,19.979,6.013,15.768,3.643,11.8a15.789,15.789,0,0,1-2.554-6A3.007,3.007,0,0,1,1.434,3.7,3.508,3.508,0,0,1,4.1,2.7a30.608,30.608,0,0,1,3.215.053,20.224,20.224,0,0,0,3.377-.127c2.328-.27,4.652-.619,6.977-.937,4.43-.608,9.055-1.1,13.455-.006.552.139,1.1.3,1.635.493.448.158.883.4,1.338.542a.069.069,0,0,0,.033.006.513.513,0,0,0,.7-.5c-.021-.453-.581-.589-.925-.726-.184-.073-.369-.146-.554-.209a21.31,21.31,0,0,0-5.9-1.214c-4.561-.315-9.1.478-13.6,1.1A34.3,34.3,0,0,1,7.054,1.7c-1.9-.112-4.573-.425-6.108,1-1.424,1.322-.964,3.646-.4,5.26a38.953,38.953,0,0,0,3.246,6.13c1.188,2.067,2.264,4.195,3.51,6.228a37.169,37.169,0,0,0,8.634,9.9,45.031,45.031,0,0,0,24.506,9.258A61.932,61.932,0,0,0,67.747,34.9Z" transform="translate(4.253 26.691)" fill="#fff" fill-rule="evenodd"></path><path id="Path_1329" data-name="Path 1329" d="M13.327,13.56a5.466,5.466,0,0,0-1.29-.9c-.542-.338-1.059-.72-1.572-1.1-.982-.726-1.942-1.48-2.891-2.247a37.082,37.082,0,0,1-5.153-4.6,12.274,12.274,0,0,1-.967-1.294,2.26,2.26,0,0,1-.4-.77c-.032-.248.125-.235.343-.288,1.128-.277,2.267-.494,3.409-.71a35.717,35.717,0,0,1,7.43-.6,56.225,56.225,0,0,1,7.377.737,48.547,48.547,0,0,1,7.17,1.639,31.938,31.938,0,0,1,12.028,6.758,32.739,32.739,0,0,1,4.819,5.437c.722,1.04,1.325,2.144,1.945,3.245a5.048,5.048,0,0,1,.348.7,1.582,1.582,0,0,0,.291.628.5.5,0,0,0,.833-.327,2.417,2.417,0,0,0-.53-1.445c-.336-.553-.632-1.125-.953-1.687a25.136,25.136,0,0,0-2.043-2.987A34.48,34.48,0,0,0,38.5,8.53,33.883,33.883,0,0,0,26.012,2.109,54.122,54.122,0,0,0,18.821.617,52.412,52.412,0,0,0,11.523,0,36.89,36.89,0,0,0,4.273.692,16.385,16.385,0,0,0,.7,1.512c-.913.415-.8,1.26-.391,2.042,1.113,2.121,3.15,3.711,4.948,5.22a71.845,71.845,0,0,0,5.915,4.572C11.713,13.712,13.257,14.915,13.327,13.56Z" transform="translate(19.525 0)" fill="#fff" fill-rule="evenodd"></path><path id="Path_1330" data-name="Path 1330" d="M.1,8.633a13.6,13.6,0,0,0,1.223,2.084A14.073,14.073,0,0,0,2.78,12.693c.531.621,1.095,1.212,1.676,1.786a11.251,11.251,0,0,0,1.376,1.289c.378.262,1.1.139.9-.457a1.641,1.641,0,0,0-.51-.6q-.449-.407-.884-.829a18.984,18.984,0,0,1-3.173-3.786c-.209-.354-.406-.708-.638-1.048a1.933,1.933,0,0,1-.464-.907c0-.449.779-.653,1.082-.861a22.687,22.687,0,0,1,4.41-2.4,32.914,32.914,0,0,1,4.953-1.47c1.71-.391,3.424-.777,5.144-1.12a57.886,57.886,0,0,1,10.3-1.239,33.9,33.9,0,0,1,4.919.255c.823.106,1.641.247,2.451.427q.611.136,1.215.3a4.42,4.42,0,0,0,.886.216c.653.035.743-.7.207-.976A8.421,8.421,0,0,0,34.713.751,30.143,30.143,0,0,0,29.925.072,46.522,46.522,0,0,0,19.83.66C16.4,1.2,13,1.953,9.634,2.811A27.764,27.764,0,0,0,4.829,4.488,20.03,20.03,0,0,0,2.572,5.7c-.339.213-.653.456-.982.683-.3.208-.637.357-.941.561A1.372,1.372,0,0,0,.1,8.633Z" transform="translate(8.331 13.299)" fill="#fff" fill-rule="evenodd"></path><path id="Path_1331" data-name="Path 1331" d="M.156,1.964a6.222,6.222,0,0,0,2.438-.211c1.032-.168,2.079-.273,3.118-.378,2.058-.207,4.124-.33,6.193-.331a34.374,34.374,0,0,1,11.8,1.81,20.583,20.583,0,0,1,2.5,1.1c.28.146.6.291.883.075a.418.418,0,0,0,.158-.538c-.2-.427-.871-.664-1.27-.836-.706-.3-1.414-.6-2.138-.859A35.466,35.466,0,0,0,12.14,0,63.6,63.6,0,0,0,5.31.367C4.174.486,3.041.632,1.91.792,1.236.888-.531.856.156,1.964Z" transform="translate(9.011 19.496)" fill="#fff" fill-rule="evenodd"></path><path id="Path_1332" data-name="Path 1332" d="M.116,1.55A4.632,4.632,0,0,0,1.309,3.189c.5.491,1.007.977,1.542,1.428a27.694,27.694,0,0,0,3.5,2.44c2.541,1.541,5.137,3.011,7.77,4.386a61.728,61.728,0,0,0,7.976,3.549,49.426,49.426,0,0,0,8.5,2.071,38.853,38.853,0,0,0,4.378.542,17.762,17.762,0,0,0,4.282-.371c.389-.075,1.043-.2.863-.767-.2-.614-1.2-.238-1.624-.156a15.181,15.181,0,0,1-4.3.189A49.584,49.584,0,0,1,17.49,11.955c-2.685-1.263-5.277-2.708-7.852-4.178A34.6,34.6,0,0,1,2.424,2.831,4.988,4.988,0,0,1,1.091,1.177a18.844,18.844,0,0,1,2.865-.12c1-.013,2,0,3,.08A24.343,24.343,0,0,1,12.5,2.226c.322.1.749.255.947-.132a.585.585,0,0,0-.3-.763,3.564,3.564,0,0,0-1-.314c-.466-.113-.926-.249-1.394-.357A27.768,27.768,0,0,0,4.87.02C3.787.006,2.681-.03,1.6.053A2.344,2.344,0,0,0,.23.422,1.008,1.008,0,0,0,.116,1.55Z" transform="translate(1.607 48.737)" fill="#fff" fill-rule="evenodd"></path><path id="Path_1333" data-name="Path 1333" d="M26.806,50.237q-.2-2.2-.4-4.4c-.1-.38-.193-.759-.278-1.141-.111-.523-.213-1.045-.307-1.569-.469-2.644-.709-5.319-.988-7.989a72.371,72.371,0,0,0-1.468-9.383,35.271,35.271,0,0,0-3.381-9,37.4,37.4,0,0,0-5.625-7.544A44.4,44.4,0,0,0,7.379,3.184,25.456,25.456,0,0,0,3.419.875C2.866.62,2.3.357,1.73.149A2.325,2.325,0,0,0,1.063,0S1.054,0,1.05,0A.9.9,0,0,0,.324.289C.311.3.3.314.289.328-.418,1.17.36,2.756.636,3.615c.484,1.507,1.023,2.991,1.5,4.5.118.379.622,1.432,1.147.794.325-.4-.111-1.071-.255-1.472-.509-1.45-1.038-2.9-1.5-4.365a5.648,5.648,0,0,1-.46-1.9c0-.041.007-.082.014-.124a11.194,11.194,0,0,1,2.36.988A22.1,22.1,0,0,1,5.76,3.349q.759.485,1.494,1.015c.966.694,1.9,1.434,2.8,2.2a41.955,41.955,0,0,1,7.4,8.1,32.538,32.538,0,0,1,4.6,10.16A70.638,70.638,0,0,1,23.867,35.99a68.47,68.47,0,0,0,1.5,10.06q.322,1.288.766,2.545C26.338,49.158,26.563,49.7,26.806,50.237Z" transform="translate(58.079 3.206)" fill="#fff" fill-rule="evenodd"></path><path id="Path_1334" data-name="Path 1334" d="M.269.954a26.2,26.2,0,0,1,10.89,10.514A36.559,36.559,0,0,1,14.435,19a73.386,73.386,0,0,1,1.857,8.181q.387,2.051.77,4.1c.075.4.206,1.584.869,1.229.374-.2.336-.65.268-1.007-.089-.469-.208-.932-.3-1.4q-.393-2.1-.789-4.194a61.079,61.079,0,0,0-1.954-8.061A37.052,37.052,0,0,0,11.7,10.33,29.213,29.213,0,0,0,6.765,4.215,25.6,25.6,0,0,0,3.727,1.776C3.179,1.4,2.612,1.057,2.042.715A4.118,4.118,0,0,0,.605.007.5.5,0,0,0,.028.3C-.069.568.1.764.269.954Z" transform="translate(58.38 3.171)" fill="#fff" fill-rule="evenodd"></path><path id="Path_1335" data-name="Path 1335" d="M71.072,16.285c3.017-1.43,6.014-2.918,8.876-4.643.979-.592,1.944-1.211,2.884-1.865.33-.234.662-.473.985-.714-.038-.4-.078-.808-.117-1.215l-.557.419-.424.307c-.534.384-1.073.753-1.624,1.113-1.383.905-2.815,1.744-4.268,2.537-2.932,1.6-5.958,3.04-9,4.418a85.654,85.654,0,0,1-9.544,3.752,48.484,48.484,0,0,1-9.827,1.932,52.771,52.771,0,0,1-10.046.134c-3.345-.313-6.676-.866-9.983-1.427a55.58,55.58,0,0,1-9.582-2.18,36.707,36.707,0,0,1-8.45-4.276A23.945,23.945,0,0,1,3.775,7.9,21.106,21.106,0,0,1,1.611,3.493,8.726,8.726,0,0,1,1.1,1.256C1.073.855,1.087-.312.33.079-.164.335.028,1.267.083,1.695A11.124,11.124,0,0,0,.66,3.926C2.855,10.072,7.7,14.624,13.39,17.6a37.227,37.227,0,0,0,8.977,3.337c3.253.734,6.556,1.27,9.849,1.765a67.708,67.708,0,0,0,9.826.963,64.4,64.4,0,0,0,7.151-.361q1.428-.145,2.845-.362c.017,0,.029-.005.046-.007C58.744,21.907,65.028,19.156,71.072,16.285Z" transform="translate(1.518 49.18)" fill="#fff" fill-rule="evenodd"></path><path id="Path_1336" data-name="Path 1336" d="M13.542,25.615a60.178,60.178,0,0,0,13.777-8.1A107.745,107.745,0,0,0,39.253,6.982c1.383-1.414,2.68-2.908,3.984-4.4.316-.362.633-.724.95-1.082-.024-.5-.066-1-.112-1.5,0,0,0,.005-.006.007-.312.374-.63.745-.948,1.112-.523.606-1.057,1.207-1.58,1.814-1.759,2.022-3.614,3.936-5.562,5.78A102.724,102.724,0,0,1,23.7,18.841,61.012,61.012,0,0,1,16.753,23a28.021,28.021,0,0,1-7.461,2.812,19.779,19.779,0,0,1-3.941.274,13.61,13.61,0,0,1-3.548-.3c-.176-.049-.647-.155-.741-.326-.088-.151.066-.47.131-.6a7.219,7.219,0,0,1,.879-1.287c.774-1,1.4-2.078,2.092-3.137a23.49,23.49,0,0,1,5.054-5.705,12.5,12.5,0,0,1,1.52-1.033c.265-.154.538-.3.82-.426.214-.1.49-.153.7-.276a.69.69,0,0,0,.136-.092.526.526,0,0,0,0-.866c-.4-.234-.968.1-1.318.29A17.689,17.689,0,0,0,9.37,13.365a20.1,20.1,0,0,0-3.992,3.687c-1.6,1.913-2.786,4.1-4.3,6.08-.525.691-1.336,1.751-1,2.686.3.812,1.418,1.027,2.164,1.139a23.378,23.378,0,0,0,3.559.2A20.964,20.964,0,0,0,13.542,25.615Z" transform="translate(41.342 59.116)" fill="#fff" fill-rule="evenodd"></path><path id="Path_1337" data-name="Path 1337" d="M.16,17.929a2.856,2.856,0,0,0,1.291-.052c.55-.113,1.1-.237,1.637-.388a22.835,22.835,0,0,0,3.08-1.108,32.228,32.228,0,0,0,5.595-3.245c1.807-1.28,3.507-2.7,5.2-4.121,1.671-1.406,3.355-2.8,4.932-4.314.805-.773,1.588-1.57,2.39-2.347.324-.313.644-.629.992-.916.252-.208.605-.455.693-.789A.528.528,0,0,0,25.511,0c-.419-.022-.861.57-1.135.826-.8.754-1.585,1.533-2.37,2.307-1.549,1.529-3.19,2.945-4.852,4.349s-3.327,2.833-5.081,4.139a33.023,33.023,0,0,1-6.236,3.765A21.735,21.735,0,0,1,2.359,16.6c-.584.149-1.173.248-1.764.362S-.154,17.409.16,17.929Z" transform="translate(42.093 66.7)" fill="#fff" fill-rule="evenodd"></path><path id="Path_1338" data-name="Path 1338" d="M4.794,9.942A5.684,5.684,0,0,0,3.837,8.1C3.477,7.5,3.129,6.9,2.8,6.281A21.308,21.308,0,0,1,1.141,2.468c-.129-.429-.246-.955.2-1.237A2.226,2.226,0,0,1,2.7,1.078c.589.056,1.174.157,1.76.238.673.093,1.351.13,2.017.27.508.106,1.26.564,1.78.4.563-.178.392-.782-.039-1A6.786,6.786,0,0,0,6.294.515C5.642.416,4.985.351,4.334.248,3.218.073,1.8-.268.774.378c-1.1.691-.821,2-.414,3.025A37.263,37.263,0,0,0,2.324,7.588c.362.659.726,1.318,1.139,1.947C3.823,10.082,4.275,10.674,4.794,9.942Z" transform="translate(0 38.828)" fill="#fff" fill-rule="evenodd"></path><path id="Path_1339" data-name="Path 1339" d="M.112,2.682A4.676,4.676,0,0,0,1.521,4.5c.628.561,1.27,1.106,1.921,1.64C4.711,7.177,6.006,8.2,7.358,9.127a34.031,34.031,0,0,0,8.652,4.189,62.7,62.7,0,0,0,9.759,2.367,28.585,28.585,0,0,0,9.836.024c.418-.079,1.772-.323,1.28-1.066-.313-.473-1.171-.048-1.588.031a24.359,24.359,0,0,1-4.879.389,43.6,43.6,0,0,1-9.885-1.527,43.13,43.13,0,0,1-9.309-3.3A46.1,46.1,0,0,1,3.233,4.567C2.649,4.089.316,2.558,1.254,1.612A2.91,2.91,0,0,1,3.1,1.055c.755-.038,1.507.059,2.261.082.316.009.759.071.982-.211A.505.505,0,0,0,6.183.169,4.293,4.293,0,0,0,4.469.027C3.2-.029,1.454-.092.477.889A1.684,1.684,0,0,0,.112,2.682Z" transform="translate(8.046 64.995)" fill="#fff" fill-rule="evenodd"></path><path id="Path_1340" data-name="Path 1340" d="M.426,1.017A37.9,37.9,0,0,1,6.087,2.751c2,.708,4,1.409,5.952,2.231a62.76,62.76,0,0,1,10.721,5.739c3.569,2.4,6.948,5.081,10.439,7.592,1.678,1.208,3.375,2.4,5.127,3.5a59.093,59.093,0,0,0,5.393,2.88q2.884,1.417,5.814,2.737c.934.422,1.872.837,2.816,1.235q.679.286,1.356.574c.328.14.816.356,1.127.063.761-.717-.981-1.149-1.362-1.3-.968-.392-1.924-.813-2.878-1.238q-2.917-1.3-5.789-2.7c-1.877-.909-3.757-1.828-5.549-2.9-1.776-1.061-3.461-2.273-5.142-3.476-3.471-2.483-6.824-5.133-10.349-7.539A64.115,64.115,0,0,0,12.887,4.208C10.992,3.395,9.059,2.694,7.119,2S3.234.613,1.225.107C.9.025.463-.1.172.143-.212.467.124.82.426,1.017Z" transform="translate(94.099 58.567)" fill="#fff" fill-rule="evenodd"></path><path id="Path_1341" data-name="Path 1341" d="M50.414,41.7c-.078-.022-.159-.038-.236-.055l-.193-.035c-.576-.1-1.154-.2-1.73-.322-1.266-.258-2.52-.56-3.775-.863-4.959-1.193-9.988-2.189-14.885-3.612-4.506-1.311-9.038-3.068-12.755-6-3.929-3.1-6.636-7.387-9.447-11.454-.949-1.367-1.844-2.772-2.669-4.217-.272-.476-.531-.956-.783-1.439-.131-.251-.257-.5-.385-.75A63.765,63.765,0,0,1,.5,5.845,4.894,4.894,0,0,1,.131,2.814C.51,1.807,2.158,1.539,3.074,1.375,4.283,1.153,5.516,1.1,6.735.933,7.925.771,9.1.522,10.289.36,11.536.2,12.788.083,14.043.031A32.635,32.635,0,0,1,27.9,2.3c6.231,2.625,10.289,7.938,13.128,13.887.715,1.5,1.352,3.036,1.929,4.581.592,1.589,1.119,3.192,1.6,4.762,1.358,4.466,2.494,9.217,5.547,12.85q.342.411.716.8c.146.153.3.3.448.45.052.557.1,1.109.155,1.666.018.193.033.386.055.578A5.978,5.978,0,0,1,50.414,41.7ZM50.262,40.1a19.467,19.467,0,0,1-4.023-6.138A86.744,86.744,0,0,1,43.5,25.618c-2.83-9.1-7.232-19-16.757-22.656A33.069,33.069,0,0,0,12.635,1.144c-2.459.175-4.869.694-7.32.955a15.436,15.436,0,0,0-3.593.715c-.5.177-.671.308-.637.862a6.715,6.715,0,0,0,.363,1.7c.4,1.165.923,2.287,1.4,3.422.466,1.111.937,2.225,1.46,3.307a46.48,46.48,0,0,0,3.626,6.206c2.391,3.457,4.67,7.085,7.69,10.036a29.037,29.037,0,0,0,10.355,6.182,94.98,94.98,0,0,0,12.287,3.348c4,.9,7.988,2.084,12.049,2.728.192.03.387.06.578.086C50.677,40.5,50.465,40.3,50.262,40.1Z" transform="translate(33.658 14.272)" fill="#fff" fill-rule="evenodd"></path><path id="Path_1342" data-name="Path 1342" d="M67.747,34.9c4-1.6,7.959-3.617,12.158-4.7.34-.092.683-.171,1.024-.246-.014-.168-.029-.339-.043-.507-.022-.191-.037-.385-.055-.578-.241.071-.458.146-.592.179s-.288.074-.433.115c-.074.017-.146.038-.222.06a53.316,53.316,0,0,0-6.019,2.116c-2.171.888-4.31,1.844-6.49,2.708a63.322,63.322,0,0,1-6.862,2.285,62.519,62.519,0,0,1-13.774,2.191,46.264,46.264,0,0,1-25.667-6.241,35.768,35.768,0,0,1-9.935-8.636C7.99,19.979,6.013,15.768,3.643,11.8a15.789,15.789,0,0,1-2.554-6A3.007,3.007,0,0,1,1.434,3.7,3.508,3.508,0,0,1,4.1,2.7a30.608,30.608,0,0,1,3.215.053,20.224,20.224,0,0,0,3.377-.127c2.328-.27,4.652-.619,6.977-.937,4.43-.608,9.055-1.1,13.455-.006.552.139,1.1.3,1.635.493.448.158.883.4,1.338.542a.069.069,0,0,0,.033.006.513.513,0,0,0,.7-.5c-.021-.453-.581-.589-.925-.726-.184-.073-.369-.146-.554-.209a21.31,21.31,0,0,0-5.9-1.214c-4.561-.315-9.1.478-13.6,1.1A34.3,34.3,0,0,1,7.054,1.7c-1.9-.112-4.573-.425-6.108,1-1.424,1.322-.964,3.646-.4,5.26a38.953,38.953,0,0,0,3.246,6.13c1.188,2.067,2.264,4.195,3.51,6.228a37.169,37.169,0,0,0,8.634,9.9,45.031,45.031,0,0,0,24.506,9.258A61.932,61.932,0,0,0,67.747,34.9Z" transform="translate(4.253 26.691)" fill="#fff" fill-rule="evenodd"></path><path id="Path_1343" data-name="Path 1343" d="M13.327,13.56a5.466,5.466,0,0,0-1.29-.9c-.542-.338-1.059-.72-1.572-1.1-.982-.726-1.942-1.48-2.891-2.247a37.082,37.082,0,0,1-5.153-4.6,12.274,12.274,0,0,1-.967-1.294,2.26,2.26,0,0,1-.4-.77c-.032-.248.125-.235.343-.288,1.128-.277,2.267-.494,3.409-.71a35.717,35.717,0,0,1,7.43-.6,56.225,56.225,0,0,1,7.377.737,48.547,48.547,0,0,1,7.17,1.639,31.938,31.938,0,0,1,12.028,6.758,32.739,32.739,0,0,1,4.819,5.437c.722,1.04,1.325,2.144,1.945,3.245a5.048,5.048,0,0,1,.348.7,1.582,1.582,0,0,0,.291.628.5.5,0,0,0,.833-.327,2.417,2.417,0,0,0-.53-1.445c-.336-.553-.632-1.125-.953-1.687a25.136,25.136,0,0,0-2.043-2.987A34.48,34.48,0,0,0,38.5,8.53,33.883,33.883,0,0,0,26.012,2.109,54.122,54.122,0,0,0,18.821.617,52.412,52.412,0,0,0,11.523,0,36.89,36.89,0,0,0,4.273.692,16.385,16.385,0,0,0,.7,1.512c-.913.415-.8,1.26-.391,2.042,1.113,2.121,3.15,3.711,4.948,5.22a71.845,71.845,0,0,0,5.915,4.572C11.713,13.712,13.257,14.915,13.327,13.56Z" transform="translate(19.525 0)" fill="#fff" fill-rule="evenodd"></path><path id="Path_1344" data-name="Path 1344" d="M.1,8.633a13.6,13.6,0,0,0,1.223,2.084A14.073,14.073,0,0,0,2.78,12.693c.531.621,1.095,1.212,1.676,1.786a11.251,11.251,0,0,0,1.376,1.289c.378.262,1.1.139.9-.457a1.641,1.641,0,0,0-.51-.6q-.449-.407-.884-.829a18.984,18.984,0,0,1-3.173-3.786c-.209-.354-.406-.708-.638-1.048a1.933,1.933,0,0,1-.464-.907c0-.449.779-.653,1.082-.861a22.687,22.687,0,0,1,4.41-2.4,32.914,32.914,0,0,1,4.953-1.47c1.71-.391,3.424-.777,5.144-1.12a57.886,57.886,0,0,1,10.3-1.239,33.9,33.9,0,0,1,4.919.255c.823.106,1.641.247,2.451.427q.611.136,1.215.3a4.42,4.42,0,0,0,.886.216c.653.035.743-.7.207-.976A8.421,8.421,0,0,0,34.713.751,30.143,30.143,0,0,0,29.925.072,46.522,46.522,0,0,0,19.83.66C16.4,1.2,13,1.953,9.634,2.811A27.764,27.764,0,0,0,4.829,4.488,20.03,20.03,0,0,0,2.572,5.7c-.339.213-.653.456-.982.683-.3.208-.637.357-.941.561A1.372,1.372,0,0,0,.1,8.633Z" transform="translate(8.331 13.299)" fill="#fff" fill-rule="evenodd"></path><path id="Path_1345" data-name="Path 1345" d="M.156,1.964a6.222,6.222,0,0,0,2.438-.211c1.032-.168,2.079-.273,3.118-.378,2.058-.207,4.124-.33,6.193-.331a34.374,34.374,0,0,1,11.8,1.81,20.583,20.583,0,0,1,2.5,1.1c.28.146.6.291.883.075a.418.418,0,0,0,.158-.538c-.2-.427-.871-.664-1.27-.836-.706-.3-1.414-.6-2.138-.859A35.466,35.466,0,0,0,12.14,0,63.6,63.6,0,0,0,5.31.367C4.174.486,3.041.632,1.91.792,1.236.888-.531.856.156,1.964Z" transform="translate(9.011 19.496)" fill="#fff" fill-rule="evenodd"></path><path id="Path_1346" data-name="Path 1346" d="M.116,1.55A4.632,4.632,0,0,0,1.309,3.189c.5.491,1.007.977,1.542,1.428a27.694,27.694,0,0,0,3.5,2.44c2.541,1.541,5.137,3.011,7.77,4.386a61.728,61.728,0,0,0,7.976,3.549,49.426,49.426,0,0,0,8.5,2.071,38.853,38.853,0,0,0,4.378.542,17.762,17.762,0,0,0,4.282-.371c.389-.075,1.043-.2.863-.767-.2-.614-1.2-.238-1.624-.156a15.181,15.181,0,0,1-4.3.189A49.584,49.584,0,0,1,17.49,11.955c-2.685-1.263-5.277-2.708-7.852-4.178A34.6,34.6,0,0,1,2.424,2.831,4.988,4.988,0,0,1,1.091,1.177a18.844,18.844,0,0,1,2.865-.12c1-.013,2,0,3,.08A24.343,24.343,0,0,1,12.5,2.226c.322.1.749.255.947-.132a.585.585,0,0,0-.3-.763,3.564,3.564,0,0,0-1-.314c-.466-.113-.926-.249-1.394-.357A27.768,27.768,0,0,0,4.87.02C3.787.006,2.681-.03,1.6.053A2.344,2.344,0,0,0,.23.422,1.008,1.008,0,0,0,.116,1.55Z" transform="translate(1.607 48.737)" fill="#fff" fill-rule="evenodd"></path><path id="Path_1347" data-name="Path 1347" d="M26.806,50.237q-.2-2.2-.4-4.4c-.1-.38-.193-.759-.278-1.141-.111-.523-.213-1.045-.307-1.569-.469-2.644-.709-5.319-.988-7.989a72.371,72.371,0,0,0-1.468-9.383,35.271,35.271,0,0,0-3.381-9,37.4,37.4,0,0,0-5.625-7.544A44.4,44.4,0,0,0,7.379,3.184,25.456,25.456,0,0,0,3.419.875C2.866.62,2.3.357,1.73.149A2.325,2.325,0,0,0,1.063,0S1.054,0,1.05,0A.9.9,0,0,0,.324.289C.311.3.3.314.289.328-.418,1.17.36,2.756.636,3.615c.484,1.507,1.023,2.991,1.5,4.5.118.379.622,1.432,1.147.794.325-.4-.111-1.071-.255-1.472-.509-1.45-1.038-2.9-1.5-4.365a5.648,5.648,0,0,1-.46-1.9c0-.041.007-.082.014-.124a11.194,11.194,0,0,1,2.36.988A22.1,22.1,0,0,1,5.76,3.349q.759.485,1.494,1.015c.966.694,1.9,1.434,2.8,2.2a41.955,41.955,0,0,1,7.4,8.1,32.538,32.538,0,0,1,4.6,10.16A70.638,70.638,0,0,1,23.867,35.99a68.47,68.47,0,0,0,1.5,10.06q.322,1.288.766,2.545C26.338,49.158,26.563,49.7,26.806,50.237Z" transform="translate(58.079 3.206)" fill="#fff" fill-rule="evenodd"></path><path id="Path_1348" data-name="Path 1348" d="M.269.954a26.2,26.2,0,0,1,10.89,10.514A36.559,36.559,0,0,1,14.435,19a73.386,73.386,0,0,1,1.857,8.181q.387,2.051.77,4.1c.075.4.206,1.584.869,1.229.374-.2.336-.65.268-1.007-.089-.469-.208-.932-.3-1.4q-.393-2.1-.789-4.194a61.079,61.079,0,0,0-1.954-8.061A37.052,37.052,0,0,0,11.7,10.33,29.213,29.213,0,0,0,6.765,4.215,25.6,25.6,0,0,0,3.727,1.776C3.179,1.4,2.612,1.057,2.042.715A4.118,4.118,0,0,0,.605.007.5.5,0,0,0,.028.3C-.069.568.1.764.269.954Z" transform="translate(58.38 3.171)" fill="#fff" fill-rule="evenodd"></path><path id="Path_1349" data-name="Path 1349" d="M71.072,16.285c3.017-1.43,6.014-2.918,8.876-4.643.979-.592,1.944-1.211,2.884-1.865.33-.234.662-.473.985-.714-.038-.4-.078-.808-.117-1.215l-.557.419-.424.307c-.534.384-1.073.753-1.624,1.113-1.383.905-2.815,1.744-4.268,2.537-2.932,1.6-5.958,3.04-9,4.418a85.654,85.654,0,0,1-9.544,3.752,48.484,48.484,0,0,1-9.827,1.932,52.771,52.771,0,0,1-10.046.134c-3.345-.313-6.676-.866-9.983-1.427a55.58,55.58,0,0,1-9.582-2.18,36.707,36.707,0,0,1-8.45-4.276A23.945,23.945,0,0,1,3.775,7.9,21.106,21.106,0,0,1,1.611,3.493,8.726,8.726,0,0,1,1.1,1.256C1.073.855,1.087-.312.33.079-.164.335.028,1.267.083,1.695A11.124,11.124,0,0,0,.66,3.926C2.855,10.072,7.7,14.624,13.39,17.6a37.227,37.227,0,0,0,8.977,3.337c3.253.734,6.556,1.27,9.849,1.765a67.708,67.708,0,0,0,9.826.963,64.4,64.4,0,0,0,7.151-.361q1.428-.145,2.845-.362c.017,0,.029-.005.046-.007C58.744,21.907,65.028,19.156,71.072,16.285Z" transform="translate(1.518 49.18)" fill="#fff" fill-rule="evenodd"></path><path id="Path_1350" data-name="Path 1350" d="M13.542,25.615a60.178,60.178,0,0,0,13.777-8.1A107.745,107.745,0,0,0,39.253,6.982c1.383-1.414,2.68-2.908,3.984-4.4.316-.362.633-.724.95-1.082-.024-.5-.066-1-.112-1.5,0,0,0,.005-.006.007-.312.374-.63.745-.948,1.112-.523.606-1.057,1.207-1.58,1.814-1.759,2.022-3.614,3.936-5.562,5.78A102.724,102.724,0,0,1,23.7,18.841,61.012,61.012,0,0,1,16.753,23a28.021,28.021,0,0,1-7.461,2.812,19.779,19.779,0,0,1-3.941.274,13.61,13.61,0,0,1-3.548-.3c-.176-.049-.647-.155-.741-.326-.088-.151.066-.47.131-.6a7.219,7.219,0,0,1,.879-1.287c.774-1,1.4-2.078,2.092-3.137a23.49,23.49,0,0,1,5.054-5.705,12.5,12.5,0,0,1,1.52-1.033c.265-.154.538-.3.82-.426.214-.1.49-.153.7-.276a.69.69,0,0,0,.136-.092.526.526,0,0,0,0-.866c-.4-.234-.968.1-1.318.29A17.689,17.689,0,0,0,9.37,13.365a20.1,20.1,0,0,0-3.992,3.687c-1.6,1.913-2.786,4.1-4.3,6.08-.525.691-1.336,1.751-1,2.686.3.812,1.418,1.027,2.164,1.139a23.378,23.378,0,0,0,3.559.2A20.964,20.964,0,0,0,13.542,25.615Z" transform="translate(41.342 59.116)" fill="#fff" fill-rule="evenodd"></path><path id="Path_1351" data-name="Path 1351" d="M.16,17.929a2.856,2.856,0,0,0,1.291-.052c.55-.113,1.1-.237,1.637-.388a22.835,22.835,0,0,0,3.08-1.108,32.228,32.228,0,0,0,5.595-3.245c1.807-1.28,3.507-2.7,5.2-4.121,1.671-1.406,3.355-2.8,4.932-4.314.805-.773,1.588-1.57,2.39-2.347.324-.313.644-.629.992-.916.252-.208.605-.455.693-.789A.528.528,0,0,0,25.511,0c-.419-.022-.861.57-1.135.826-.8.754-1.585,1.533-2.37,2.307-1.549,1.529-3.19,2.945-4.852,4.349s-3.327,2.833-5.081,4.139a33.023,33.023,0,0,1-6.236,3.765A21.735,21.735,0,0,1,2.359,16.6c-.584.149-1.173.248-1.764.362S-.154,17.409.16,17.929Z" transform="translate(42.093 66.7)" fill="#fff" fill-rule="evenodd"></path><path id="Path_1352" data-name="Path 1352" d="M4.794,9.942A5.684,5.684,0,0,0,3.837,8.1C3.477,7.5,3.129,6.9,2.8,6.281A21.308,21.308,0,0,1,1.141,2.468c-.129-.429-.246-.955.2-1.237A2.226,2.226,0,0,1,2.7,1.078c.589.056,1.174.157,1.76.238.673.093,1.351.13,2.017.27.508.106,1.26.564,1.78.4.563-.178.392-.782-.039-1A6.786,6.786,0,0,0,6.294.515C5.642.416,4.985.351,4.334.248,3.218.073,1.8-.268.774.378c-1.1.691-.821,2-.414,3.025A37.263,37.263,0,0,0,2.324,7.588c.362.659.726,1.318,1.139,1.947C3.823,10.082,4.275,10.674,4.794,9.942Z" transform="translate(0 38.828)" fill="#fff" fill-rule="evenodd"></path><path id="Path_1353" data-name="Path 1353" d="M.112,2.682A4.676,4.676,0,0,0,1.521,4.5c.628.561,1.27,1.106,1.921,1.64C4.711,7.177,6.006,8.2,7.358,9.127a34.031,34.031,0,0,0,8.652,4.189,62.7,62.7,0,0,0,9.759,2.367,28.585,28.585,0,0,0,9.836.024c.418-.079,1.772-.323,1.28-1.066-.313-.473-1.171-.048-1.588.031a24.359,24.359,0,0,1-4.879.389,43.6,43.6,0,0,1-9.885-1.527,43.13,43.13,0,0,1-9.309-3.3A46.1,46.1,0,0,1,3.233,4.567C2.649,4.089.316,2.558,1.254,1.612A2.91,2.91,0,0,1,3.1,1.055c.755-.038,1.507.059,2.261.082.316.009.759.071.982-.211A.505.505,0,0,0,6.183.169,4.293,4.293,0,0,0,4.469.027C3.2-.029,1.454-.092.477.889A1.684,1.684,0,0,0,.112,2.682Z" transform="translate(8.046 64.995)" fill="#fff" fill-rule="evenodd"></path><path id="Path_1354" data-name="Path 1354" d="M.426,1.017A37.9,37.9,0,0,1,6.087,2.751c2,.708,4,1.409,5.952,2.231a62.76,62.76,0,0,1,10.721,5.739c3.569,2.4,6.948,5.081,10.439,7.592,1.678,1.208,3.375,2.4,5.127,3.5a59.093,59.093,0,0,0,5.393,2.88q2.884,1.417,5.814,2.737c.934.422,1.872.837,2.816,1.235q.679.286,1.356.574c.328.14.816.356,1.127.063.761-.717-.981-1.149-1.362-1.3-.968-.392-1.924-.813-2.878-1.238q-2.917-1.3-5.789-2.7c-1.877-.909-3.757-1.828-5.549-2.9-1.776-1.061-3.461-2.273-5.142-3.476-3.471-2.483-6.824-5.133-10.349-7.539A64.115,64.115,0,0,0,12.887,4.208C10.992,3.395,9.059,2.694,7.119,2S3.234.613,1.225.107C.9.025.463-.1.172.143-.212.467.124.82.426,1.017Z" transform="translate(94.099 58.567)" fill="#fff" fill-rule="evenodd"></path></g></g></svg>