<svg xmlns="http://www.w3.org/2000/svg" width="70.979" height="17.133" viewBox="0 0 70.979 17.133"><g transform="translate(-1486 -5443)"><path d="M5.923-34.783v2.2H1.547v-2.2Zm0,3.045V-17.65H1.547V-31.738Zm5.849,0L11.7-30.463a3.172,3.172,0,0,1,1.131-1.144,3.054,3.054,0,0,1,1.541-.381,2.941,2.941,0,0,1,1.788.511,2.272,2.272,0,0,1,.894,1.288,11.674,11.674,0,0,1,.2,2.591v9.948H13v-9.833a8.837,8.837,0,0,0-.095-1.741q-.095-.313-.526-.313a.526.526,0,0,0-.568.36,8.967,8.967,0,0,0-.116,1.924v9.6H7.449V-31.738Zm12.361-3.045v2.138a5.308,5.308,0,0,0-1.552.12q-.237.12-.237.683v.438h1.788v2.19h-1.01V-17.65h-4.25V-29.215H18V-31.4h.873a11.1,11.1,0,0,1,.095-1.825,1.562,1.562,0,0,1,.468-.819,2.416,2.416,0,0,1,1.047-.547,8.482,8.482,0,0,1,2.094-.188Zm10.426,7.9v3.389a14.178,14.178,0,0,1-.189,2.737,3.829,3.829,0,0,1-.81,1.627,3.658,3.658,0,0,1-1.594,1.116,6.425,6.425,0,0,1-2.236.36,8.041,8.041,0,0,1-2.388-.308,3.259,3.259,0,0,1-1.52-.928,3.656,3.656,0,0,1-.773-1.5,11.194,11.194,0,0,1-.231-2.643v-3.545a8.6,8.6,0,0,1,.421-3.014,3.474,3.474,0,0,1,1.515-1.741,5.37,5.37,0,0,1,2.8-.657,6.44,6.44,0,0,1,2.457.422,3.942,3.942,0,0,1,1.583,1.1,3.882,3.882,0,0,1,.763,1.4A8.613,8.613,0,0,1,34.56-26.879Zm-4.25-1.043a4.559,4.559,0,0,0-.116-1.34.478.478,0,0,0-.494-.276.5.5,0,0,0-.5.276,4.2,4.2,0,0,0-.126,1.34v6.246a4.012,4.012,0,0,0,.126,1.277.485.485,0,0,0,.494.3.49.49,0,0,0,.5-.271,3.5,3.5,0,0,0,.121-1.168Zm9.9-3.817-.168,1.82a3.156,3.156,0,0,1,2.683-2.07v4.87a3.588,3.588,0,0,0-1.715.313,1.314,1.314,0,0,0-.673.871,15.475,15.475,0,0,0-.126,2.57l0,5.714h-4.25l0-14.088Zm7.659,0-.074,1.317A3.414,3.414,0,0,1,48.973-31.6a3.076,3.076,0,0,1,1.557-.392,3.021,3.021,0,0,1,2.683,1.567,3.817,3.817,0,0,1,1.21-1.175,2.917,2.917,0,0,1,1.494-.392,2.951,2.951,0,0,1,1.794.521,2.3,2.3,0,0,1,.91,1.277,10.656,10.656,0,0,1,.2,2.456l0,10.084H54.7l0-9.27a11.261,11.261,0,0,0-.121-2.2.533.533,0,0,0-.563-.422.555.555,0,0,0-.584.417,10.37,10.37,0,0,0-.132,2.2l0,9.27H49.175l0-9.041a15.969,15.969,0,0,0-.1-2.44.505.505,0,0,0-.552-.407.638.638,0,0,0-.484.214.822.822,0,0,0-.221.521q-.021.308-.021,1.309l0,9.844H43.673l0-14.088Z" transform="translate(1484.453 5477.783)" fill="#fff"/><path d="M125.007-28.459v13.706h-3.583V-28.459Zm8.655,0v2.743h-2.128v10.963h-3.583V-25.716h-2.119v-2.743Z" transform="translate(1423.318 5474.886)" fill="#c72527"/></g></svg>