<svg xmlns="http://www.w3.org/2000/svg" width="352.161" height="355.402" viewBox="0 0 352.161 355.402"><path d="M768.748,474.667q2.009-3.762,4.013-7.525c2.476-4.639,4.952-9.283,7.6-13.82,21.653-37.135,54.136-66.645,87.493-93.756-.115.4-.235.8-.35,1.192-10.677,35.7-32.257,68.4-62.263,90.489-9.3,6.839-19.371,12.688-27.853,20.512-19.564,18.064-28.8,44.858-46.841,64.44,18.671-12.518,41.5-17.268,63.9-19.109s45-1.04,67.312-3.714c-.672.078-1.928,1.422-2.5,1.832-.994.713-1.993,1.413-3,2.108q-2.906,1.988-5.891,3.861-5.965,3.741-12.223,6.991a180.072,180.072,0,0,1-81.321,20.162,171.523,171.523,0,0,1-21.225-1.459q-2.672-.318-5.338-.649c-.856-.1-1.708-.207-2.563-.308a9.057,9.057,0,0,0-2.651-.226,4.38,4.38,0,0,0-1.537.695c-2.044,1.344-3.387,3.309-4.883,5.2-1.739,2.2-3.484,4.4-5.242,6.591s-3.534,4.363-5.334,6.516q-1.9,2.258-3.834,4.483-4.791,5.661-9.715,11.216c-3.2,3.608-7.2,7.06-9.969,10.99q-11.5,12.377-23.664,24.125a291.5,291.5,0,0,1,54.182-16.361c20.342-4.17,41-6.669,61.661-8.592,11.745-1.1,23.512-1.836,35.253-2.909a.74.74,0,0,1,.386,1.408c-18.054,10.447-37.95,18.17-58.052,23.61a259.545,259.545,0,0,1-62.673,9.108,204,204,0,0,1-35.106-1.993.911.911,0,0,1-1.036.87,558.565,558.565,0,0,1-44.379,37.83q-8.477,6.475-17.235,12.573a.125.125,0,0,1-.055.12c-.341.248-.681.488-1.022.727.166,0,.331,0,.493,0a390.612,390.612,0,0,1,64.7-20.406c24.7-5.6,49.773-9.37,74.892-12.481,14.124-1.749,28.281-3.249,42.414-4.948.709-.083,1.289.962.589,1.394a336.624,336.624,0,0,1-67.1,32.211c-23.876,8.164-48.719,12.5-73.98,11.768a374.294,374.294,0,0,1-45.608-4.455c-.249.106-.5.216-.746.318l-.074.078a.389.389,0,0,1-.364.11c-.2.083-.4.166-.621.258-7.253,5.1-14.612,10.065-22.109,14.8a319.825,319.825,0,0,1-29.988,16.356c-5.84,2.862-11.754,5.716-17.838,8.022a.713.713,0,0,1-.957-.442c-.2.087-.391.179-.589.262a.157.157,0,0,1-.12-.29c.226-.106.446-.216.677-.322a.7.7,0,0,1,.414-.58c6.508-3.2,13.079-6.241,19.6-9.407a514.04,514.04,0,0,0,48.852-29.344,1.158,1.158,0,0,1,.014-.216c5.909-21.75,9.421-44.029,13.922-66.092,2.227-10.912,4.708-21.787,7.869-32.473a266.978,266.978,0,0,1,11.625-31.148c5.021-11.478,10.231-22.984,13.015-35.258a.932.932,0,0,1,1.841-.014,182.782,182.782,0,0,1,2.251,72.844,177.774,177.774,0,0,1-24.208,63.391,168.631,168.631,0,0,1-16.306,22.031q2.762-1.953,5.5-3.949a552.559,552.559,0,0,0,53.625-44.9c.962-12.422,2.752-24.806,4.317-37.163,1.556-12.27,3.212-24.53,5.127-36.753,3.806-24.332,8.68-48.544,15.836-72.131,4.114-13.568,9.572-26.688,13.562-40.288a1.04,1.04,0,0,1,1.91-.023c7.308,23.508,7.8,48.783,4.317,73-3.613,25.16-11.809,49.418-21.934,72.655-5.076,11.662-10.631,23.108-16.554,34.365q7.214-7.049,14.207-14.308,11.37-11.867,22.128-24.3,5.377-6.213,10.613-12.546c3.461-4.193,6.632-8.809,10.323-12.794,4.16-4.5,4.478-10.075,4.547-16.034.336-28,1.662-56.041,5.937-83.705,3.562-23.039,9.186-46.091,7.589-69.346,3.972.35,6.3,4.547,7.736,8.261,9.1,23.425,11.358,49.225,8.27,74.165s-11.395,49.055-22.7,71.5a346.73,346.73,0,0,0,36.744-54.61Q767.607,476.819,768.748,474.667Zm5.675-4.331a53.672,53.672,0,0,1,10.806-7.654,188.96,188.96,0,0,0,20.577-13.77,175.436,175.436,0,0,0,56.828-77.451c1.072-2.913,2.043-5.859,2.959-8.822-6.678,5.7-13.424,11.3-19.955,17.18-7.152,6.429-14.046,13.135-20.825,19.955-13.309,13.388-25.828,27.747-36.137,43.592a185.2,185.2,0,0,0-11.363,20.024c1.629-2.255,3.323-4.464,5.039-6.65,4.183-5.339,8.62-10.47,13.176-15.5,9.352-10.309,19.1-20.259,28.87-30.172,5.891-5.978,11.791-11.961,17.806-17.815.2-.193.548.138.359.345-9.738,10.788-19.748,21.354-29.832,31.811-9.356,9.706-18.653,19.472-27.2,29.91-4.031,4.915-7.713,10.079-11.473,15.192-.055.129-.115.258-.17.391C774.069,470.719,774.234,470.521,774.423,470.337ZM668.452,675.623c24.387-3.461,47.9-11.487,70.147-21.925,11.4-5.348,22.417-11.4,33.3-17.728-23.812,2.389-47.619,5.242-71.251,8.979-24.852,3.93-49.57,9-73.645,16.375-10.249,3.139-20.36,6.618-30.306,10.571,2.623.023,5.251.06,7.87.028q7.511-.09,15.013-.4,15.146-.656,30.218-2.4a364.72,364.72,0,0,0,59.065-11.846c10.76-3.12,21.294-6.908,31.815-10.751a.26.26,0,0,1,.2.479c-18.312,8.33-38.083,13.88-57.721,18.087a426.868,426.868,0,0,1-59.939,8.256q-8.546.594-17.111.865c-2.126.064-4.271.138-6.42.2,9.679,1.109,19.352,2.237,29.09,2.757A204.607,204.607,0,0,0,668.452,675.623Zm-44.871-56.3a175.483,175.483,0,0,0,13.383-69.286,177.412,177.412,0,0,0-4.3-36.367c-2.49,9.31-6.2,18.229-10.061,27.066-4.478,10.258-8.891,20.494-12.246,31.189-6.807,21.681-10.429,44.154-14.732,66.419-2.053,10.617-4.266,21.207-7,31.668,7.884-12.316,13.1-26.191,18.045-39.9,5.546-15.376,9.573-31.313,13.194-47.242,2.043-8.993,3.65-18.091,5.753-27.07.051-.216.387-.189.354.041-1.219,8.261-3.037,16.476-4.754,24.645-1.689,8.022-3.507,16.02-5.56,23.955-4.146,16.016-8.869,32.11-15.385,47.334-3.033,7.083-6.24,14.575-11.5,20.342a.973.973,0,0,1,.488-.156l.212,0c.575-.4,1.151-.8,1.721-1.2A184.532,184.532,0,0,0,623.581,619.324ZM668.337,617c3.926.295,7.865.437,11.8.451a193.134,193.134,0,0,0,23.964-1.487,309.147,309.147,0,0,0,46.064-9.642c8.638-2.421,17.245-4.971,25.772-7.769.087-.032.147.1.055.133-14.874,5.454-29.795,10.659-45.212,14.391a226,226,0,0,1-43.173,6.434l.23,0a261.532,261.532,0,0,0,31.24-1.836,252.023,252.023,0,0,0,60.7-15.026,269.593,269.593,0,0,0,28.953-13.351c-19.49,1.2-39.036,2.945-58.388,5.472-20.429,2.66-40.78,6.37-60.556,12.21a262.369,262.369,0,0,0-26.578,9.444C664.927,616.646,666.644,616.881,668.337,617Zm19.486-69.489c7.819-23.6,12.674-48.36,12-73.3a156.938,156.938,0,0,0-5.606-37.591c-3.5,10.792-7.86,21.3-11.321,32.114-3.8,11.865-6.959,23.922-9.655,36.086-5.33,24.028-8.878,48.406-12,72.807-1.417,11.1-3.083,22.252-4.077,33.426,1.869-6.558,4.11-13.047,6-19.578,2.559-8.868,4.957-17.774,7.276-26.707,4.7-18.119,8.781-36.394,12.352-54.771,1.988-10.235,3.571-20.535,5.408-30.8a.28.28,0,0,1,.557.064c-1.1,9.264-2.734,18.469-4.331,27.659s-3.373,18.354-5.3,27.484q-5.688,27.027-13.273,53.6-2.154,7.518-4.441,14.985c-1.335,4.358-2.628,8.772-4.28,13.034.161,0,.322,0,.488,0,.345-.336.69-.667,1.035-1C669.4,592.958,680.091,570.868,687.823,547.516Zm39.114-6.591c13.82-3.148,27.9-4.823,41.931-6.751q21.345-2.927,42.414-7.391,11.86-2.52,23.637-5.421c.157-.041.235.235.078.281q-20.565,6.034-41.632,10.047c-14.009,2.688-28.129,4.648-42.2,6.977-8.1,1.335-16.172,2.858-24.148,4.782a1.073,1.073,0,0,1-.649-.046l-.41.2a211.1,211.1,0,0,0,25.146,2.531,178.6,178.6,0,0,0,28.009-1.362,175.6,175.6,0,0,0,53.206-15.546,173.484,173.484,0,0,0,24.263-14.06c-17.507,2.522-35.271,2.02-52.912,2.711-18.133.709-35.939,3.277-52.866,10.079a132.666,132.666,0,0,0-23.31,12.233C727.31,540.438,727.121,540.682,726.937,540.925Zm11.2-30.029a222.66,222.66,0,0,0,9.748-32.211c4.648-21.285,5.7-43.45,1.823-64.947a135.844,135.844,0,0,0-4.427-17.728c-.925-2.853-1.914-5.7-3.088-8.459a12.983,12.983,0,0,0-3.806-5.536c.778,10.07-.258,20.411-1.569,30.37-1.4,10.631-3.4,21.17-5.187,31.741-3.649,21.561-5.186,43.238-5.978,65.075q-.47,13.054-.884,26.113c.34-1.381.69-2.757,1.022-4.133.98-4.031,1.988-8.058,2.955-12.1,1.928-8.077,3.718-16.19,5.462-24.309s3.364-16.283,4.915-24.452a171.024,171.024,0,0,0,3.088-24.566,136.4,136.4,0,0,0-.1-13.922c-.276-4.7-1.072-9.32-1.487-14a.47.47,0,0,1,.93-.129,79.751,79.751,0,0,1,1.574,12.375q.462,5.978.4,11.979a175.642,175.642,0,0,1-2.269,24.548c-2.49,16.637-5.886,33.159-9.784,49.52-1.086,4.542-2.172,9.094-3.383,13.6-.865,3.249-1.675,6.554-2.743,9.757l.023-.019C729.814,530.018,734.388,520.667,738.139,510.9Z" transform="translate(-515.696 -359.566)" fill="#f8b5ac" opacity="0.4"></path></svg>