<svg xmlns="http://www.w3.org/2000/svg" width="135" height="131" viewBox="0 0 135 131"><path d="M513.759,831.2a2.174,2.174,0,0,1-2.559.671c-.437-.141-.855-.379-1.286-.543a26.013,26.013,0,0,0-2.7-.848c-3.571-.932-7.271-1.334-10.83-2.316-1.113-.306-2.9-.611-3.269-1.815-.408-1.328.749-2.206,2-2.091a7.534,7.534,0,0,1,1.457.41c3.354,1.029,6.874,1.437,10.292,2.221a34.359,34.359,0,0,1,3.854,1.095c.567.2,1.127.424,1.675.67a2.662,2.662,0,0,1,.886.6C513.978,829.928,513.832,830.248,513.759,831.2Z" transform="translate(-415.475 -742.59)" fill="#5e4141" fill-rule="evenodd"/><path d="M507.414,867.968c-.783.752-1.243,1.1-2.375.816a10.891,10.891,0,0,1-1.281-.546c-1.274-.514-2.577-.96-3.892-1.367-3.778-1.17-7.653-2.038-11.4-3.314-1.209-.412-3.071-.789-3.291-2.189-.323-2.057,1.918-1.942,3.258-1.444,3.53,1.312,7.219,2.168,10.839,3.213,1.805.521,3.6,1.089,5.347,1.769.518.2,1.062.39,1.557.642a2.438,2.438,0,0,1,1.019.832C507.55,866.9,507.447,867.294,507.414,867.968Z" transform="translate(-410.934 -763.02)" fill="#5e4141" fill-rule="evenodd"/><path d="M528.16,913.136c-.66.657-.9.99-1.86.908a5.4,5.4,0,0,1-1.739-.565c-1.334-.577-2.658-1.176-3.984-1.77-2.219-.994-4.449-1.975-6.742-2.8-1.106-.4-2.511-.645-2.694-1.944-.248-1.753,1.562-2.052,2.9-1.6,2.253.763,4.445,1.682,6.616,2.64,1.5.662,2.99,1.341,4.49,2a14.079,14.079,0,0,1,2.136.919C528.229,911.559,528.182,912.118,528.16,913.136Z" transform="translate(-425.888 -789.346)" fill="#5e4141" fill-rule="evenodd"/><path d="M493.606,929.673a2.178,2.178,0,0,1-2.661.454c-.387-.165-.752-.405-1.132-.589a26.883,26.883,0,0,0-3.88-1.481c-1.069-.325-2.255-.671-2.194-1.992.056-1.23,1.166-1.7,2.339-1.516a19.669,19.669,0,0,1,4.86,1.736q.755.345,1.483.742a2.927,2.927,0,0,1,.724.5C493.9,928.276,493.754,928.689,493.606,929.673Z" transform="translate(-410.131 -800.487)" fill="#5e4141" fill-rule="evenodd"/><path d="M467.4,890.992c-.319.394-.609.861-1.067,1.023a2.818,2.818,0,0,1-1.8-.106q-1.644-.5-3.293-.973c-2.422-.706-4.85-1.391-7.277-2.081-1.168-.332-2.479-.55-2.643-1.9-.17-1.391,1.134-1.925,2.375-1.723a66.33,66.33,0,0,1,7.367,2.1q1.966.567,3.926,1.151a5.287,5.287,0,0,1,1.629.658C467.391,889.69,467.321,890.067,467.4,890.992Z" transform="translate(-391.454 -777.833)" fill="#5e4141" fill-rule="evenodd"/><path d="M444.266,844.994c-.648.8-1.008,1.216-2.12,1.119a8.287,8.287,0,0,1-1.736-.531c-1.539-.514-3.058-1.079-4.581-1.634a63.724,63.724,0,0,0-7.822-2.469c-1.011-.227-2.138-.323-2.534-1.375-.612-1.626,1.088-2.377,2.476-2.115a50.59,50.59,0,0,1,7.534,2.2c1.8.64,3.578,1.319,5.381,1.94.668.23,1.421.384,2.06.677C444.061,843.328,444.172,843.844,444.266,844.994Z" transform="translate(-376.512 -750.498)" fill="#5e4141" fill-rule="evenodd"/><path d="M569.974,865.293c-.663.765-.984,1.165-2.074,1.055a6.778,6.778,0,0,1-1.6-.511c-1.2-.451-2.385-.951-3.562-1.462-2.425-1.053-4.827-2.179-7.351-3-1.083-.353-2.478-.5-2.821-1.7-.517-1.806,1.441-2.262,2.819-1.865a59.342,59.342,0,0,1,7.436,2.87c1.363.6,2.724,1.2,4.112,1.745.59.231,1.274.384,1.834.671C569.854,863.653,569.916,864.174,569.974,865.293Z" transform="translate(-449.679 -761.897)" fill="#5e4141" fill-rule="evenodd"/><path d="M556.48,894.587a2.2,2.2,0,0,1-2.675.447c-.481-.2-.934-.463-1.418-.659-1.247-.505-2.714-.672-3.915-1.233a1.626,1.626,0,0,1-.768-2.589c.759-.9,1.764-.68,2.805-.388a28.557,28.557,0,0,1,3.75,1.289,10.219,10.219,0,0,1,1.2.582,2.5,2.5,0,0,1,.683.57C556.8,893.339,556.625,893.636,556.48,894.587Z" transform="translate(-446.729 -780.551)" fill="#5e4141" fill-rule="evenodd"/><path d="M550.676,810.956c-.55.629-.732.954-1.556,1.013a3.177,3.177,0,0,1-1.49-.25c-1.147-.4-2.284-.832-3.417-1.27-2.547-.986-5.067-2.036-7.615-3.017-1.129-.435-2.628-.744-2.759-2.093-.16-1.642,1.469-1.994,2.773-1.555,2.631.885,5.18,2.039,7.757,3.057,1.292.51,2.589,1.01,3.9,1.481a8.252,8.252,0,0,1,1.428.525C550.666,809.433,550.628,809.936,550.676,810.956Z" transform="translate(-438.96 -730.676)" fill="#5e4141" fill-rule="evenodd"/><path d="M487.239,776.849c-.477.595-.669.934-1.392,1.061a3.737,3.737,0,0,1-1.916-.266q-1.882-.574-3.747-1.2c-2.506-.836-4.99-1.728-7.465-2.645-1.138-.422-2.64-.738-2.769-2.092-.161-1.7,1.57-2,2.88-1.51,2.393.894,4.794,1.772,7.213,2.6q2.084.713,4.189,1.372a10.312,10.312,0,0,1,1.994.657C487.176,775.37,487.151,775.853,487.239,776.849Z" transform="translate(-402.184 -711.259)" fill="#5e4141" fill-rule="evenodd"/><path d="M423.979,760.821c-.758.666-1.073,1-2.12.785a7.913,7.913,0,0,1-1.711-.74q-1.487-.7-3-1.341c-1.841-.773-3.716-1.468-5.628-2.058-1.087-.336-2.465-.513-2.795-1.707-.518-1.873,1.545-2.213,2.918-1.815a61.961,61.961,0,0,1,6,2.086q1.666.673,3.3,1.426a14.961,14.961,0,0,1,2.122,1.008C424.067,759.155,424.072,759.692,423.979,760.821Z" transform="translate(-366.899 -701.91)" fill="#5e4141" fill-rule="evenodd"/><path d="M459.1,804.458c-.665.716-.913,1.055-1.932.977A4.882,4.882,0,0,1,455.7,805c-1.23-.491-2.442-1.021-3.654-1.55-2.075-.906-4.149-1.827-6.306-2.543-1.1-.367-2.483-.554-2.719-1.829-.323-1.745,1.486-2.118,2.845-1.709a57.971,57.971,0,0,1,6.356,2.426c1.411.612,2.814,1.242,4.238,1.826a12.03,12.03,0,0,1,1.627.642C459.08,802.862,459.08,803.406,459.1,804.458Z" transform="translate(-386.668 -726.983)" fill="#5e4141" fill-rule="evenodd"/><path d="M536.74,774.187c-.926.483-1.406.7-2.386.191-.269-.14-.5-.385-.761-.556a9.8,9.8,0,0,0-1.957-.961c-1.96-.74-4.206-.9-6.094-1.772a1.888,1.888,0,0,1-1.265-1.485,1.523,1.523,0,0,1,1.178-1.751c.978-.284,2.175.32,3.107.568a29.828,29.828,0,0,1,5.836,1.916,11.133,11.133,0,0,1,1.444.861,3.907,3.907,0,0,1,.682.531C537.3,772.61,537.1,773.184,536.74,774.187Z" transform="translate(-433.454 -709.983)" fill="#5e4141" fill-rule="evenodd"/><path d="M450.422,732.233c-.726.844-1.194,1.237-2.367,1.014a8.79,8.79,0,0,1-1.478-.544c-1.751-.692-3.439-1.52-5.156-2.286-.922-.411-1.815-.921-1.665-2.044a1.734,1.734,0,0,1,2.3-1.409c1.724.386,3.443,1.587,5.072,2.272.607.256,1.248.453,1.849.719a2.906,2.906,0,0,1,.889.565C450.48,731.071,450.378,731.4,450.422,732.233Z" transform="translate(-384.803 -686.377)" fill="#5e4141" fill-rule="evenodd"/><path d="M502.072,737.823c-.767.657-1.088.981-2.131.755a9.237,9.237,0,0,1-2-.924c-1.246-.621-2.5-1.23-3.769-1.807a53.522,53.522,0,0,0-5.664-2.255c-1.04-.337-2.307-.516-2.621-1.662-.492-1.8,1.449-2.249,2.821-1.845a49.944,49.944,0,0,1,5.959,2.237c1.364.6,2.709,1.237,4.045,1.893a16.555,16.555,0,0,1,2.539,1.274C502.21,736.2,502.179,736.724,502.072,737.823Z" transform="translate(-411.317 -688.139)" fill="#5e4141" fill-rule="evenodd"/><path d="M602.4,777.338a1.771,1.771,0,0,1-2.084,2.02,9.472,9.472,0,0,1-2.494-1.062,31.739,31.739,0,0,0-5.437-2.282c-.93-.284-1.848-.412-2.217-1.38-.533-1.4.816-2.29,2.139-2.157a17.483,17.483,0,0,1,4.619,1.607q1.785.748,3.535,1.574C601.275,776.041,602.193,776.373,602.4,777.338Z" transform="translate(-471.327 -712.688)" fill="#5e4141" fill-rule="evenodd"/><path d="M562.5,741.314c-.695.723-1,1.075-2.054.943a5.918,5.918,0,0,1-1.546-.552c-1.143-.492-2.266-1.024-3.385-1.565-2.307-1.117-4.594-2.283-6.988-3.219-1.164-.455-2.7-.705-2.8-2.137-.124-1.762,1.724-1.889,3.04-1.42a68.463,68.463,0,0,1,7.026,3.1c1.3.636,2.6,1.273,3.926,1.863a16.408,16.408,0,0,1,1.763.746C562.493,739.689,562.5,740.229,562.5,741.314Z" transform="translate(-445.781 -689.978)" fill="#5e4141" fill-rule="evenodd"/><path d="M486.307,695.01c-.724.827-1.139,1.2-2.306,1.02a17.656,17.656,0,0,1-2.842-.988c-1.763-.618-3.526-1.236-5.306-1.808-.93-.3-1.775-.761-1.745-1.82a1.669,1.669,0,0,1,2.015-1.619c1.7.132,3.636,1.142,5.245,1.7,1.024.357,2.045.719,3.07,1.073a2.942,2.942,0,0,1,1.5.878C486.343,693.941,486.277,694.338,486.307,695.01Z" transform="translate(-404.587 -664.946)" fill="#5e4141" fill-rule="evenodd"/><path d="M420.839,931.353c-.724.827-1.139,1.2-2.306,1.02a17.616,17.616,0,0,1-2.841-.988c-1.763-.618-3.527-1.236-5.307-1.808-.93-.3-1.775-.761-1.745-1.819a1.669,1.669,0,0,1,2.015-1.62c1.7.132,3.636,1.143,5.245,1.7,1.024.357,2.046.719,3.07,1.073a2.94,2.94,0,0,1,1.5.879C420.875,930.284,420.809,930.681,420.839,931.353Z" transform="translate(-366.9 -801.418)" fill="#5e4141" fill-rule="evenodd"/><path d="M545.019,704.771c-.777.667-1.222,1.031-2.286.722a8.052,8.052,0,0,1-1.242-.613c-.835-.417-1.682-.813-2.542-1.18a31.6,31.6,0,0,0-5.193-1.73c-1.128-.263-2.492-.3-2.861-1.54-.523-1.75,1.333-2.247,2.743-1.966a33.366,33.366,0,0,1,5.85,1.762c1.035.413,2.051.869,3.052,1.355a12.619,12.619,0,0,1,1.545.778C545.128,703.063,545.145,703.615,545.019,704.771Z" transform="translate(-437.223 -669.915)" fill="#5e4141" fill-rule="evenodd"/><path d="M386.983,657.633c-103.871-36.262-101.67-35.092,3.07,1.073" transform="translate(-310.276 -631.003)" fill="#5e4141" fill-rule="evenodd"/><path d="M375.806,902.785c-.777.667-1.222,1.031-2.286.722a8.1,8.1,0,0,1-1.242-.613c-.835-.417-1.682-.813-2.542-1.18a31.6,31.6,0,0,0-5.193-1.73c-1.128-.263-2.492-.3-2.861-1.54-.523-1.751,1.333-2.247,2.743-1.966a33.325,33.325,0,0,1,5.85,1.762c1.035.413,2.051.869,3.052,1.355a12.625,12.625,0,0,1,1.545.778C375.915,901.077,375.932,901.628,375.806,902.785Z" transform="translate(-339.816 -784.294)" fill="#5e4141" fill-rule="evenodd"/><path d="M408.586,812.094c-.77.679-1.2,1.045-2.275.754a7.131,7.131,0,0,1-1.072-.5q-1.136-.535-2.308-1a40.948,40.948,0,0,0-4.929-1.6c-1.052-.27-2.3-.383-2.672-1.5-.6-1.791,1.348-2.311,2.742-1.985a44.051,44.051,0,0,1,5.372,1.631q1.448.541,2.853,1.18a9.2,9.2,0,0,1,1.417.677C408.706,810.437,408.689,810.992,408.586,812.094Z" transform="translate(-359.173 -732.149)" fill="#5e4141" fill-rule="evenodd"/><path d="M586.478,801.767c-.622.708-.832,1.044-1.8,1.027a4.381,4.381,0,0,1-1.544-.378c-.974-.364-1.934-.762-2.882-1.184-2.371-1.057-4.671-2.253-7.013-3.368-1.067-.508-2.464-.915-2.5-2.242-.045-1.721,1.729-1.891,3-1.3,2.38,1.1,4.7,2.315,7.081,3.416,1,.465,2.02.908,3.054,1.311a12,12,0,0,1,1.526.558C586.422,800.18,586.43,800.71,586.478,801.767Z" transform="translate(-460.2 -725.134)" fill="#5e4141" fill-rule="evenodd"/><path d="M590.3,847.072a2.128,2.128,0,0,1-2.443.8,17.587,17.587,0,0,1-2.752-1.269c-1.822-.866-3.631-1.757-5.488-2.551-.907-.387-1.736-.909-1.608-1.983a1.675,1.675,0,0,1,2.152-1.442c1.828.3,3.823,1.648,5.485,2.442.987.472,1.975.944,2.972,1.4a3.047,3.047,0,0,1,1.456,1.022C590.432,846.008,590.333,846.4,590.3,847.072Z" transform="translate(-464.382 -752.027)" fill="#5e4141" fill-rule="evenodd"/><path d="M616.871,833.387c-.551.863-.894,1.373-2.031,1.367a6.282,6.282,0,0,1-1.419-.315,24.711,24.711,0,0,1-3.683-1.137c-.777-.342-1.289-.713-1.372-1.56a1.517,1.517,0,0,1,1.58-1.724c1.305-.064,2.6.63,3.844.989.468.135.967.209,1.428.357C616.425,831.752,616.633,832.223,616.871,833.387Z" transform="translate(-481.871 -745.915)" fill="#5e4141" fill-rule="evenodd"/><path d="M429.584,692.75c-.759.809-1.225,1.174-2.385.918-.848-.187-1.7-.626-2.528-.894a43.5,43.5,0,0,0-5.073-1.307c-.969-.187-1.885-.517-2-1.582-.12-1.129.678-1.832,1.859-1.878,1.695-.067,3.809.78,5.412,1.259q1.491.446,2.95.985a2.839,2.839,0,0,1,1.459.925C429.66,691.683,429.579,692.08,429.584,692.75Z" transform="translate(-372.051 -663.917)" fill="#5e4141" fill-rule="evenodd"/><path d="M398.488,726.05c-.751.806-1.178,1.185-2.344.95a16,16,0,0,1-1.949-.713c-1.126-.392-2.271-.673-3.415-1-.908-.262-1.672-.657-1.7-1.687a1.652,1.652,0,0,1,1.778-1.69,11.584,11.584,0,0,1,3.842.948c.727.242,1.448.5,2.166.769a2.6,2.6,0,0,1,1.305.856C398.554,724.982,398.477,725.378,398.488,726.05Z" transform="translate(-355.64 -683.489)" fill="#5e4141" fill-rule="evenodd"/><path d="M387.194,780.279c-.768.677-1.208,1.044-2.278.75a9.272,9.272,0,0,1-1.456-.7q-1.551-.755-3.131-1.452-3.239-1.429-6.585-2.615c-1.144-.4-2.781-.658-3.064-1.96-.446-2.049,1.831-2.072,3.193-1.608q3.48,1.184,6.857,2.629,1.86.795,3.684,1.666a14.193,14.193,0,0,1,1.862.914C387.3,778.595,387.3,779.147,387.194,780.279Z" transform="translate(-345.014 -712.681)" fill="#5e4141" fill-rule="evenodd"/><path d="M372.461,829.065c-.661.906-1.122,1.327-2.314,1.178a7.969,7.969,0,0,1-1.306-.373c-1.805-.562-16.054-5.587-17.818-6.254-.941-.356-1.848-.818-1.763-1.939a1.732,1.732,0,0,1,2.219-1.534c1.731.289,15.992,5.666,17.656,6.234.55.188,1.117.329,1.666.515C372.04,827.312,372.3,827.83,372.461,829.065Z" transform="translate(-332.732 -740.204)" fill="#5e4141" fill-rule="evenodd"/><path d="M414.871,870.078c-.639.806-1,1.226-2.108,1.141a9.5,9.5,0,0,1-1.877-.54c-1.506-.459-3.007-.932-4.513-1.391a88.617,88.617,0,0,0-8.621-2.272c-1.278-.253-3.293-.184-3.85-1.5-.9-2.112,1.7-2.332,3.137-2.091a75.228,75.228,0,0,1,9,2.2c1.69.5,3.372,1.032,5.056,1.551a23.591,23.591,0,0,1,2.383.721C414.637,868.4,414.766,868.915,414.871,870.078Z" transform="translate(-358.307 -765.171)" fill="#5e4141" fill-rule="evenodd"/><path d="M352.2,867.98c-.639.806-.995,1.226-2.108,1.141a9.528,9.528,0,0,1-1.877-.541c-1.506-.458-3.007-.932-4.513-1.391a88.592,88.592,0,0,0-8.621-2.273c-1.278-.253-3.293-.184-3.85-1.5-.9-2.112,1.7-2.332,3.137-2.091a75.36,75.36,0,0,1,9,2.2c1.69.5,3.372,1.032,5.056,1.551a23.556,23.556,0,0,1,2.383.721C351.966,866.3,352.1,866.817,352.2,867.98Z" transform="translate(-322.243 -763.96)" fill="#5e4141" fill-rule="evenodd"/><path d="M452.014,914.6c-.517.675-.671,1-1.489,1.107a3,3,0,0,1-1.466-.149c-.846-.245-1.685-.516-2.519-.8-2.244-.761-4.448-1.627-6.675-2.432-1.091-.395-2.424-.666-2.581-1.95-.2-1.664,1.5-2.05,2.82-1.588,2.2.771,4.363,1.625,6.559,2.4.974.344,1.954.675,2.944.974a7.777,7.777,0,0,1,1.29.392C451.889,913.068,451.9,913.59,452.014,914.6Z" transform="translate(-383.378 -791.322)" fill="#5e4141" fill-rule="evenodd"/><path d="M410.258,890.761c-.592.806-.9,1.245-1.983,1.216a4.108,4.108,0,0,1-1.017-.22,19.609,19.609,0,0,1-3.064-.957A1.7,1.7,0,0,1,403,889.085a1.525,1.525,0,0,1,1.342-1.48c1.219-.227,2.454.452,3.595.8a9.132,9.132,0,0,1,.984.278C410.018,889.158,410.112,889.68,410.258,890.761Z" transform="translate(-363.653 -779.198)" fill="#5e4141" fill-rule="evenodd"/></svg>