<svg xmlns="http://www.w3.org/2000/svg" width="234.856" height="31.756" viewBox="0 0 234.856 31.756"><path d="M10.778-23.8v.442H9.248a2.088,2.088,0,0,0-1.326.425,2.217,2.217,0,0,0-.544,1.785V-2.584A2.159,2.159,0,0,0,7.922-.816a2.147,2.147,0,0,0,1.326.408H17.17A2.321,2.321,0,0,0,18.564-.85a3.178,3.178,0,0,0,.986-1.734,18.237,18.237,0,0,0,.408-3.026,3.353,3.353,0,0,0-.408-1.819A2.137,2.137,0,0,0,18.224-8.3l.238-.918a2.207,2.207,0,0,1,1.513,1.292,5.446,5.446,0,0,1,.391,2.312,16.8,16.8,0,0,1-.323,2.771Q19.754-1.36,19.38,0H.68V-.408h1.5A2.074,2.074,0,0,0,3.485-.816a2.2,2.2,0,0,0,.527-1.768V-21.148a3.887,3.887,0,0,0-.136-1.122,1.519,1.519,0,0,0-.391-.68,1.331,1.331,0,0,0-.6-.323,2.934,2.934,0,0,0-.714-.085H.68V-23.8ZM26.214-8.534a3.135,3.135,0,0,1-1.734-.612,3.57,3.57,0,0,1-1.088-1.343,3.869,3.869,0,0,1-.357-1.734,3.978,3.978,0,0,1,.459-1.785,4.2,4.2,0,0,1,1.326-1.479,4.848,4.848,0,0,1,2.244-.8,10.6,10.6,0,0,1,2.992.085,4.4,4.4,0,0,1,2.38,1.1,4.249,4.249,0,0,1,1.326,3.434v8.4q0,1.19.476,1.462T35.8-2.108l.578-.34.2.34L32.912,0a.885.885,0,0,1-.782.153,1.4,1.4,0,0,1-.663-.476,2.714,2.714,0,0,1-.459-.884,3.577,3.577,0,0,1-.17-1.105q-.442.408-1.02.85a12.512,12.512,0,0,1-1.207.816,8.013,8.013,0,0,1-1.258.612A3.407,3.407,0,0,1,26.146.2a4.754,4.754,0,0,1-3.094-1.02,3.626,3.626,0,0,1-1.258-2.992,3.568,3.568,0,0,1,.374-1.649,4.414,4.414,0,0,1,1-1.292A7.245,7.245,0,0,1,24.6-7.735Q25.4-8.16,26.214-8.534Zm1.394-.1A4.187,4.187,0,0,0,25.3-6.8a4.973,4.973,0,0,0-.51,2.958,4.546,4.546,0,0,0,.782,2.227,2.029,2.029,0,0,0,2.006.765,5.315,5.315,0,0,0,.731-.187,2.766,2.766,0,0,0,.663-.323,9.783,9.783,0,0,0,1.054-.782,9.165,9.165,0,0,0,.816-.782V-11.39A4.07,4.07,0,0,1,29.6-9.809,8.369,8.369,0,0,1,27.608-8.636Zm3.026-4.658a3.809,3.809,0,0,0-1.173-1.989,2.776,2.776,0,0,0-2.329-.561,4.433,4.433,0,0,0-2.584,1.139,3.361,3.361,0,0,0-1.054,2.6,3.291,3.291,0,0,0,.374,1.581,2.954,2.954,0,0,0,1,1.105,2.875,2.875,0,0,0,1.479.442,3.7,3.7,0,0,0,1.8-.442,5.31,5.31,0,0,0,1.989-1.615A2.938,2.938,0,0,0,30.634-13.294Zm9.044-.2a3.2,3.2,0,0,0-.221-1.343,1.359,1.359,0,0,0-.578-.646,1.922,1.922,0,0,0-.833-.2q-.476-.017-.952-.017v-.442H42.6V-5.44a6.978,6.978,0,0,0,.374,2.346A2.779,2.779,0,0,0,44.1-1.581a2.16,2.16,0,0,0,1.819.136,6.588,6.588,0,0,0,2.5-1.751l.816-.816V-13.5a3.2,3.2,0,0,0-.221-1.343,1.359,1.359,0,0,0-.578-.646,1.922,1.922,0,0,0-.833-.2q-.476-.017-.952-.017v-.442h5.508V-2.992q0,1.156.476,1.445T54.2-1.87l.578-.34.2.374L51.306.272a.87.87,0,0,1-.8.136,1.371,1.371,0,0,1-.663-.51A3.145,3.145,0,0,1,49.4-1.02a3.854,3.854,0,0,1-.17-1.156V-3.434l-2.006,2.04a5.861,5.861,0,0,1-1.309.969,5.567,5.567,0,0,1-1.6.6,4.338,4.338,0,0,1-1.666.017,2.856,2.856,0,0,1-1.5-.8,4.6,4.6,0,0,1-1.071-1.836,9.738,9.738,0,0,1-.408-3.094ZM63.512-4.522a.606.606,0,0,0,.476.408,5.855,5.855,0,0,0,.646.034V-3.3a1.484,1.484,0,0,1-.867-.272,1.952,1.952,0,0,1-.629-.748,3.075,3.075,0,0,1-.306-1.394A6.611,6.611,0,0,1,63.07-7.4a11.211,11.211,0,0,1,.68-1.853q.442-.952.986-1.9l.612-1.088a4.777,4.777,0,0,0-.34-1.717,1.268,1.268,0,0,0-.646-.7.974.974,0,0,0-.816.1,3.855,3.855,0,0,0-.884.68l-1.768,1.8v9.486a3.078,3.078,0,0,0,.221,1.326,1.368,1.368,0,0,0,.578.629,1.922,1.922,0,0,0,.833.2q.476.017.952.017V0H55.352V-.408q.51,0,.969-.017a2.006,2.006,0,0,0,.833-.2,1.342,1.342,0,0,0,.595-.629,3.078,3.078,0,0,0,.221-1.326v-10.54q0-1.156-.476-1.428t-1.564.34l-.578.306-.2-.34,3.672-2.142a1.028,1.028,0,0,1,.816-.119,1.279,1.279,0,0,1,.646.493,3.117,3.117,0,0,1,.442.935,4.022,4.022,0,0,1,.17,1.173v1.19l2.04-2.006a3.454,3.454,0,0,1,2.686-1.36,1.8,1.8,0,0,1,1.6,1.462l-2.142,3.672q-.306.578-.731,1.394a10.947,10.947,0,0,0-.714,1.717,8.5,8.5,0,0,0-.374,1.785A2.675,2.675,0,0,0,63.512-4.522Zm8.636-4.012a3.135,3.135,0,0,1-1.734-.612,3.57,3.57,0,0,1-1.088-1.343,3.869,3.869,0,0,1-.357-1.734,3.979,3.979,0,0,1,.459-1.785,4.2,4.2,0,0,1,1.326-1.479,4.848,4.848,0,0,1,2.244-.8,10.6,10.6,0,0,1,2.992.085,4.4,4.4,0,0,1,2.38,1.1A4.249,4.249,0,0,1,79.7-11.662v8.4q0,1.19.476,1.462t1.564-.306l.578-.34.2.34L78.846,0a.885.885,0,0,1-.782.153A1.4,1.4,0,0,1,77.4-.323a2.714,2.714,0,0,1-.459-.884,3.577,3.577,0,0,1-.17-1.105q-.442.408-1.02.85a12.513,12.513,0,0,1-1.207.816,8.013,8.013,0,0,1-1.258.612A3.407,3.407,0,0,1,72.08.2a4.754,4.754,0,0,1-3.094-1.02,3.626,3.626,0,0,1-1.258-2.992A3.568,3.568,0,0,1,68.1-5.457a4.414,4.414,0,0,1,1-1.292,7.245,7.245,0,0,1,1.428-.986Q71.332-8.16,72.148-8.534Zm1.394-.1A4.187,4.187,0,0,0,71.23-6.8a4.973,4.973,0,0,0-.51,2.958A4.546,4.546,0,0,0,71.5-1.615a2.029,2.029,0,0,0,2.006.765,5.315,5.315,0,0,0,.731-.187A2.766,2.766,0,0,0,74.9-1.36a9.784,9.784,0,0,0,1.054-.782,9.165,9.165,0,0,0,.816-.782V-11.39a4.07,4.07,0,0,1-1.241,1.581A8.37,8.37,0,0,1,73.542-8.636Zm3.026-4.658A3.809,3.809,0,0,0,75.4-15.283a2.776,2.776,0,0,0-2.329-.561,4.433,4.433,0,0,0-2.584,1.139,3.361,3.361,0,0,0-1.054,2.6,3.291,3.291,0,0,0,.374,1.581,2.954,2.954,0,0,0,1,1.105,2.875,2.875,0,0,0,1.479.442,3.7,3.7,0,0,0,1.8-.442,5.31,5.31,0,0,0,1.989-1.615A2.938,2.938,0,0,0,76.568-13.294ZM94.044-23.8h14.382v5.236h-.408v-2.618a2.159,2.159,0,0,0-.544-1.768,2.147,2.147,0,0,0-1.326-.408H99.28a2.088,2.088,0,0,0-1.326.425,2.217,2.217,0,0,0-.544,1.785V-12.1h5.3a3.083,3.083,0,0,0,.748-.085,1.331,1.331,0,0,0,.6-.323,1.649,1.649,0,0,0,.408-.68,3.481,3.481,0,0,0,.153-1.122v-2.244h.374v9.316h-.374V-9.486a3.324,3.324,0,0,0-.153-1.105,1.655,1.655,0,0,0-.408-.663,1.331,1.331,0,0,0-.6-.323,3.083,3.083,0,0,0-.748-.085h-5.3v9.078a2.159,2.159,0,0,0,.544,1.768,2.147,2.147,0,0,0,1.326.408h1.53V0H90.678V-.408h1.53a2.074,2.074,0,0,0,1.309-.408,2.2,2.2,0,0,0,.527-1.768V-21.148a3.887,3.887,0,0,0-.136-1.122,1.519,1.519,0,0,0-.391-.68,1.331,1.331,0,0,0-.595-.323,2.934,2.934,0,0,0-.714-.085h-1.53V-23.8Zm22.44,19.278a.606.606,0,0,0,.476.408,5.855,5.855,0,0,0,.646.034V-3.3a1.484,1.484,0,0,1-.867-.272,1.952,1.952,0,0,1-.629-.748,3.075,3.075,0,0,1-.306-1.394,6.611,6.611,0,0,1,.238-1.683,11.212,11.212,0,0,1,.68-1.853q.442-.952.986-1.9l.612-1.088a4.777,4.777,0,0,0-.34-1.717,1.268,1.268,0,0,0-.646-.7.974.974,0,0,0-.816.1,3.855,3.855,0,0,0-.884.68l-1.768,1.8v9.486a3.078,3.078,0,0,0,.221,1.326,1.368,1.368,0,0,0,.578.629,1.922,1.922,0,0,0,.833.2q.476.017.952.017V0h-8.126V-.408q.51,0,.969-.017a2.006,2.006,0,0,0,.833-.2,1.342,1.342,0,0,0,.6-.629,3.078,3.078,0,0,0,.221-1.326v-10.54q0-1.156-.476-1.428t-1.564.34l-.578.306-.2-.34,3.672-2.142a1.028,1.028,0,0,1,.816-.119,1.279,1.279,0,0,1,.646.493,3.117,3.117,0,0,1,.442.935,4.022,4.022,0,0,1,.17,1.173v1.19l2.04-2.006a3.454,3.454,0,0,1,2.686-1.36,1.8,1.8,0,0,1,1.6,1.462l-2.142,3.672q-.306.578-.731,1.394a10.947,10.947,0,0,0-.714,1.717,8.5,8.5,0,0,0-.374,1.785A2.675,2.675,0,0,0,116.484-4.522Zm8.636-4.012a3.135,3.135,0,0,1-1.734-.612,3.57,3.57,0,0,1-1.088-1.343,3.869,3.869,0,0,1-.357-1.734,3.979,3.979,0,0,1,.459-1.785,4.2,4.2,0,0,1,1.326-1.479,4.848,4.848,0,0,1,2.244-.8,10.6,10.6,0,0,1,2.992.085,4.4,4.4,0,0,1,2.38,1.1,4.249,4.249,0,0,1,1.326,3.434v8.4q0,1.19.476,1.462t1.564-.306l.578-.34.2.34L131.818,0a.885.885,0,0,1-.782.153,1.4,1.4,0,0,1-.663-.476,2.713,2.713,0,0,1-.459-.884,3.577,3.577,0,0,1-.17-1.105q-.442.408-1.02.85a12.512,12.512,0,0,1-1.207.816,8.013,8.013,0,0,1-1.258.612A3.407,3.407,0,0,1,125.052.2a4.754,4.754,0,0,1-3.094-1.02A3.626,3.626,0,0,1,120.7-3.808a3.568,3.568,0,0,1,.374-1.649,4.414,4.414,0,0,1,1-1.292,7.245,7.245,0,0,1,1.428-.986Q124.3-8.16,125.12-8.534Zm1.394-.1A4.187,4.187,0,0,0,124.2-6.8a4.973,4.973,0,0,0-.51,2.958,4.546,4.546,0,0,0,.782,2.227,2.029,2.029,0,0,0,2.006.765,5.315,5.315,0,0,0,.731-.187,2.766,2.766,0,0,0,.663-.323,9.784,9.784,0,0,0,1.054-.782,9.165,9.165,0,0,0,.816-.782V-11.39A4.071,4.071,0,0,1,128.5-9.809,8.369,8.369,0,0,1,126.514-8.636Zm3.026-4.658a3.809,3.809,0,0,0-1.173-1.989,2.776,2.776,0,0,0-2.329-.561,4.433,4.433,0,0,0-2.584,1.139,3.361,3.361,0,0,0-1.054,2.6,3.291,3.291,0,0,0,.374,1.581,2.954,2.954,0,0,0,1,1.105,2.875,2.875,0,0,0,1.479.442,3.7,3.7,0,0,0,1.8-.442,5.31,5.31,0,0,0,1.989-1.615A2.938,2.938,0,0,0,129.54-13.294ZM139.2,1.428a4.173,4.173,0,0,0-1.377,2.38,2.45,2.45,0,0,0,.612,1.955,4.834,4.834,0,0,0,2.125,1.309,9.874,9.874,0,0,0,3.2.476,8.965,8.965,0,0,0,3.213-.527A6.129,6.129,0,0,0,149.141,5.7a3.509,3.509,0,0,0,1-1.717,2.118,2.118,0,0,0-.34-1.717,3.941,3.941,0,0,0-1.87-1.326A9.77,9.77,0,0,0,144.4.408q-.68,0-1.462-.017t-1.53-.068a11.146,11.146,0,0,1-1.428-.187,6.824,6.824,0,0,1-1.19-.34q-1.122-.476-1.275-1.258a3.755,3.755,0,0,1,.357-2.04q.238-.544.6-1.224t.765-1.428a4.726,4.726,0,0,1-2.057-2.414,4.876,4.876,0,0,1-.153-2.924,6,6,0,0,1,1.581-2.7,6.63,6.63,0,0,1,3.145-1.751,6.861,6.861,0,0,1,2.431-.238,6.2,6.2,0,0,1,2.193.578,7.421,7.421,0,0,1,2.686-1.241,9.547,9.547,0,0,1,2.448-.187l-.034,2.074a4.307,4.307,0,0,0-2.193-.459,7.323,7.323,0,0,0-1.887.391,4.675,4.675,0,0,1,1.819,2.448,4.943,4.943,0,0,1,.017,2.839,5.984,5.984,0,0,1-1.615,2.6,6.853,6.853,0,0,1-3.043,1.7,6.741,6.741,0,0,1-2.618.221A6.672,6.672,0,0,1,139.6-5.95q-.782,1.394-1.139,2.21a2.618,2.618,0,0,0-.306,1.224.551.551,0,0,0,.51.493A5.888,5.888,0,0,0,140-1.989q.867-.051,2.108-.17t2.839-.119A10.212,10.212,0,0,1,147.9-1.9a4.091,4.091,0,0,1,1.938,1.19q1.428,1.6.748,4.726a3.833,3.833,0,0,1-.816,1.615,5.368,5.368,0,0,1-1.53,1.241,8.493,8.493,0,0,1-2.074.8,9.918,9.918,0,0,1-2.414.289,13.963,13.963,0,0,1-2.074-.153,9.014,9.014,0,0,1-1.9-.493,5.367,5.367,0,0,1-1.564-.918,3.556,3.556,0,0,1-1.02-1.462A3.735,3.735,0,0,1,137,2.567,4.255,4.255,0,0,1,138.142.476q0,.034.153.17t.357.306Zm6.12-15.368a10.061,10.061,0,0,0-2.448,2.618q-1.054,1.6-2.176,3.5a5.419,5.419,0,0,0,1.751,1.666,2.519,2.519,0,0,0,1.989.306,2.547,2.547,0,0,0,1.173-.748,4.063,4.063,0,0,0,.782-1.309,5.089,5.089,0,0,0,.306-1.717,7.144,7.144,0,0,0-.255-1.972,6.54,6.54,0,0,0-.459-1.275A5.894,5.894,0,0,0,145.316-13.94Zm-4.862,5.712.306-.544a33.2,33.2,0,0,1,2.159-3.315,17.608,17.608,0,0,1,2.023-2.295,4.379,4.379,0,0,0-1.513-1.071,2.311,2.311,0,0,0-1.581-.085,2.723,2.723,0,0,0-1.19.731,3.508,3.508,0,0,0-.782,1.309,5.5,5.5,0,0,0-.289,1.717,7.08,7.08,0,0,0,.255,1.955,7.514,7.514,0,0,0,.255.816A6.114,6.114,0,0,0,140.454-8.228Zm37.264,5.644a3.078,3.078,0,0,0,.221,1.326,1.342,1.342,0,0,0,.6.629,2.006,2.006,0,0,0,.833.2q.459.017.935.017V0H172.21V-.408q.476,0,.952-.017a1.922,1.922,0,0,0,.833-.2,1.368,1.368,0,0,0,.578-.629,3.078,3.078,0,0,0,.221-1.326v-8.058a6.94,6.94,0,0,0-.374-2.363,2.81,2.81,0,0,0-1.105-1.5,2.19,2.19,0,0,0-1.819-.153,6.209,6.209,0,0,0-2.482,1.7L168.1-12q.034.34.051.7t.017.731v7.99a3.078,3.078,0,0,0,.221,1.326,1.342,1.342,0,0,0,.6.629,2.006,2.006,0,0,0,.833.2q.459.017.935.017V0h-8.092V-.408q.476,0,.952-.017a1.922,1.922,0,0,0,.833-.2,1.368,1.368,0,0,0,.578-.629,3.078,3.078,0,0,0,.221-1.326v-8.058a6.94,6.94,0,0,0-.374-2.363,2.81,2.81,0,0,0-1.105-1.5,2.19,2.19,0,0,0-1.819-.153,6.436,6.436,0,0,0-2.516,1.7l-.816.884v9.486a3.078,3.078,0,0,0,.221,1.326,1.342,1.342,0,0,0,.6.629,2.006,2.006,0,0,0,.833.2q.459.017.935.017V0h-8.126V-.408q.51,0,.969-.017a2.006,2.006,0,0,0,.833-.2,1.342,1.342,0,0,0,.6-.629,3.078,3.078,0,0,0,.221-1.326v-10.54q0-1.156-.459-1.428t-1.547.34l-.612.306-.2-.34,3.706-2.142a.94.94,0,0,1,.782-.119,1.365,1.365,0,0,1,.663.493,2.654,2.654,0,0,1,.442.935,4.438,4.438,0,0,1,.153,1.173v1.19l2.04-2.006a6.18,6.18,0,0,1,1.836-1.224,4.393,4.393,0,0,1,2.244-.408,3.409,3.409,0,0,1,2.04.952,4.9,4.9,0,0,1,1.258,2.822l2.176-2.142a5.861,5.861,0,0,1,1.309-.969,5.566,5.566,0,0,1,1.6-.6,4.041,4.041,0,0,1,1.649,0,2.967,2.967,0,0,1,1.479.816,4.6,4.6,0,0,1,1.071,1.836,9.606,9.606,0,0,1,.408,3.06Zm8.364-5.95a3.135,3.135,0,0,1-1.734-.612,3.57,3.57,0,0,1-1.088-1.343,3.869,3.869,0,0,1-.357-1.734,3.979,3.979,0,0,1,.459-1.785,4.194,4.194,0,0,1,1.326-1.479,4.848,4.848,0,0,1,2.244-.8,10.6,10.6,0,0,1,2.992.085,4.4,4.4,0,0,1,2.38,1.1,4.249,4.249,0,0,1,1.326,3.434v8.4q0,1.19.476,1.462t1.564-.306l.578-.34.2.34L192.78,0A.885.885,0,0,1,192,.153a1.4,1.4,0,0,1-.663-.476,2.713,2.713,0,0,1-.459-.884,3.577,3.577,0,0,1-.17-1.105q-.442.408-1.02.85a12.511,12.511,0,0,1-1.207.816,8.013,8.013,0,0,1-1.258.612A3.407,3.407,0,0,1,186.014.2a4.754,4.754,0,0,1-3.094-1.02,3.626,3.626,0,0,1-1.258-2.992,3.568,3.568,0,0,1,.374-1.649,4.414,4.414,0,0,1,1-1.292,7.245,7.245,0,0,1,1.428-.986Q185.266-8.16,186.082-8.534Zm1.394-.1A4.187,4.187,0,0,0,185.164-6.8a4.973,4.973,0,0,0-.51,2.958,4.546,4.546,0,0,0,.782,2.227,2.029,2.029,0,0,0,2.006.765,5.315,5.315,0,0,0,.731-.187,2.766,2.766,0,0,0,.663-.323,9.784,9.784,0,0,0,1.054-.782,9.165,9.165,0,0,0,.816-.782V-11.39a4.07,4.07,0,0,1-1.241,1.581A8.369,8.369,0,0,1,187.476-8.636Zm3.026-4.658a3.809,3.809,0,0,0-1.173-1.989A2.776,2.776,0,0,0,187-15.844a4.433,4.433,0,0,0-2.584,1.139,3.361,3.361,0,0,0-1.054,2.6,3.291,3.291,0,0,0,.374,1.581,2.954,2.954,0,0,0,1,1.105,2.875,2.875,0,0,0,1.479.442,3.7,3.7,0,0,0,1.8-.442,5.31,5.31,0,0,0,1.989-1.615A2.938,2.938,0,0,0,190.5-13.294Zm22.576,10.71a3.078,3.078,0,0,0,.221,1.326,1.342,1.342,0,0,0,.6.629,2.006,2.006,0,0,0,.833.2q.459.017.935.017V0H207.57V-.408q.476,0,.935-.017a2.006,2.006,0,0,0,.833-.2,1.342,1.342,0,0,0,.6-.629,3.078,3.078,0,0,0,.221-1.326v-8.058a6.971,6.971,0,0,0-.372-2.363,2.776,2.776,0,0,0-1.116-1.5,2.179,2.179,0,0,0-1.81-.153,6.444,6.444,0,0,0-2.486,1.7l-.812.884v9.486a3.078,3.078,0,0,0,.221,1.326,1.342,1.342,0,0,0,.6.629,2.006,2.006,0,0,0,.833.2q.459.017.935.017V0h-8.126V-.408q.476,0,.935-.017a2.006,2.006,0,0,0,.833-.2,1.43,1.43,0,0,0,.612-.629,2.884,2.884,0,0,0,.238-1.326v-10.54q0-2.278-2.04-1.088l-.578.306-.2-.34,3.682-2.142a.961.961,0,0,1,.791-.119,1.381,1.381,0,0,1,.671.493,2.641,2.641,0,0,1,.447.935,4.389,4.389,0,0,1,.155,1.173l-.034,1.19,2.006-2.006a6.13,6.13,0,0,1,2.091-1.326,4.167,4.167,0,0,1,2.5-.238,3.413,3.413,0,0,1,2.091,1.581,7.653,7.653,0,0,1,.867,4.131Z" transform="translate(19.194 23.8)" fill="#3e2424"/><g transform="translate(0 0.151)"><path d="M80.012,78.8s7.448-13.329-5.489-23.13C74.523,55.667,68.251,68.211,80.012,78.8Z" transform="translate(-64.951 -55.667)" fill="#f8b5ac"/><path d="M89.171,76.617s-1.656-8.982-11.355-8.56A11.786,11.786,0,0,0,89.171,76.617Z" transform="translate(-77.816 -53.487)" fill="#f8b5ac"/></g></svg>