<svg xmlns="http://www.w3.org/2000/svg" width="379.676" height="379.677" viewBox="0 0 379.676 379.677"><g transform="translate(0 -4256.476)"><path d="M-12.233,109.5a.927.927,0,0,0-.05,1.852c31.6.563,64.283,9.145,88.925,29.717A104.962,104.962,0,0,1,102.914,173.7c5.456,10.692,9.172,22.816,9.66,34.941a32.824,32.824,0,0,0-13.7-3.995,26.965,26.965,0,0,0-19.1,5.846,20.9,20.9,0,0,0-7.107,15.7c-.09,5.616,1.967,11.394,6.46,14.952,5.221,4.137,12.431,4.158,18.388,1.72,12.769-5.223,16.636-18.726,16.67-31.519.525.331,1.042.672,1.537,1.028,11.647,8.36,18.917,22.56,22.823,36.047,7.367,25.435,3.579,57.011-17.825,74.831a45.909,45.909,0,0,1-7.288,4.947c-.5-.748-1.008-1.49-1.539-2.219A43.88,43.88,0,0,0,96.513,312.4c-5.435-2.746-13.342-5.276-19.041-1.84-5.78,3.485-4.542,10.918-1.1,15.607,4.009,5.449,10.978,7.983,17.551,8.31a37.318,37.318,0,0,0,19.03-4.4,73.081,73.081,0,0,1,6.907,14.7c5.149,14.892,7.162,31.988,3.677,47.457-3.158,14.021-11.822,27.038-25.12,33.218a32.56,32.56,0,0,1-10.665,2.877,61.3,61.3,0,0,0-5.409-15.408c-3.188-6.194-7.907-13.144-14.251-16.442-4.7-2.442-12.153-3.16-13.821,3.324-1.585,6.168,1.663,13.446,5.439,18.174a32.787,32.787,0,0,0,16.21,10.759,30.448,30.448,0,0,0,10.481,1.193,66.944,66.944,0,0,1,1.079,10.1c.441,15.262-4.855,30.775-17.843,39.681-13.029,8.933-29.626,10.1-44.773,7.27a141.813,141.813,0,0,1-24.51-7.325c-.426-.163-.617.513-.2.679,16.651,6.589,34.964,11.888,52.912,7.893a49.027,49.027,0,0,0,20.364-9.561,41.328,41.328,0,0,0,12.919-19.191A60.267,60.267,0,0,0,88.063,429.8c9.651-1.07,18.729-6.445,25.251-13.814,11.426-12.907,14.471-30.592,13.027-47.324-1.177-13.639-4.761-27.574-12.135-39.244a53.13,53.13,0,0,0,16.546-14.752c8.664-11.72,12.673-26.358,12.909-40.813a88.056,88.056,0,0,0-10.474-42.942c-4.529-8.4-10.9-16.417-19.025-21.35-.055-2.174-.209-4.317-.449-6.38a93.32,93.32,0,0,0-16.626-42.411C77.637,133,46.165,117.108,13.241,111.74A177.839,177.839,0,0,0-12.233,109.5ZM62.623,419.281c-4.395-4.5-7.725-10.971-7.291-17.417.6-8.912,10.954-5.674,15.355-1.835,8.208,7.16,13.2,17.643,15.432,28.432A30.76,30.76,0,0,1,62.623,419.281Zm19.066-89.765c-5.134-3.2-10.616-12.111-4.892-17.268,5.242-4.72,14.393-1.24,19.711,1.637a44.207,44.207,0,0,1,15.67,14.97C102.6,333.721,91.046,335.335,81.689,329.515Zm30.821-114.045c-.5,7.663-2.78,15.789-8.454,21.268-4.8,4.637-12.072,7.459-18.713,5.752-12.4-3.19-14.327-19.83-6.989-28.733,8.374-10.156,23.59-9.3,34.276-3.346C112.653,212.1,112.619,213.788,112.509,215.471Z" transform="translate(355.511 4188.351) rotate(45)" fill="#3e2424" opacity="0.1"></path><g transform="translate(216.983 4129.13) rotate(30)" opacity="0.3"><path d="M46.14,232.663a15.534,15.534,0,0,0-4.572-6.773c-4.068-3.734-9.674-6.047-15.138-5.252a10.511,10.511,0,0,0-6.108,2.876c-2.71,2.822-2.883,7.3-1.432,10.762a25.659,25.659,0,0,0,6.05,8.424,11.561,11.561,0,0,0,6.712,3.217,17.22,17.22,0,0,0,8.577-1.875,10.875,10.875,0,0,0,5.209-4.03,8.967,8.967,0,0,0,1.024-5.938A10.372,10.372,0,0,0,46.14,232.663Z" transform="translate(30.665 52.396)" fill="#f8b5ac"></path><path d="M39.252,255.37a7.032,7.032,0,0,0,2.978-3.495,12.527,12.527,0,0,0-.183-10.276,9.474,9.474,0,0,0-2.993-3.767,5.764,5.764,0,0,0-6.6-.122,11.579,11.579,0,0,0-3.62,4.585,7.031,7.031,0,0,0-.441,4.621,15.19,15.19,0,0,0,2.937,5.456,9.569,9.569,0,0,0,3.474,3.095,5.216,5.216,0,0,0,3.691.219A4.574,4.574,0,0,0,39.252,255.37Z" transform="translate(46.455 77.541)" fill="#f8b5ac"></path><path d="M47.293,195.694A6.994,6.994,0,0,0,43.9,192.6a12.525,12.525,0,0,0-10.276-.163,9.473,9.473,0,0,0-3.867,2.866,5.769,5.769,0,0,0-.341,6.59,11.6,11.6,0,0,0,4.46,3.772,7.059,7.059,0,0,0,4.605.593,15.118,15.118,0,0,0,5.548-2.753,9.561,9.561,0,0,0,3.212-3.367,5.223,5.223,0,0,0,.341-3.681A4.48,4.48,0,0,0,47.293,195.694Z" transform="translate(46.999 7.431)" fill="#f8b5ac"></path><path d="M32.178,247.57a10.085,10.085,0,0,0-2.621-4.012c-2.28-2.247-5.354-3.711-8.281-3.378a5.013,5.013,0,0,0-3.227,1.518c-1.4,1.564-1.386,4.142-.525,6.174a16.567,16.567,0,0,0,3.457,5,6.694,6.694,0,0,0,3.691,2.012,8.36,8.36,0,0,0,4.58-.884,5.275,5.275,0,0,0,2.718-2.206,5.31,5.31,0,0,0,.415-3.4A6.588,6.588,0,0,0,32.178,247.57Z" transform="translate(29.027 82.802)" fill="#f8b5ac"></path><path d="M39.446,218.572a8.469,8.469,0,0,0,.318-6.073,12.555,12.555,0,0,0-16.455-8.329,5.994,5.994,0,0,0-3.892,3.742A13.137,13.137,0,0,0,19.025,213a9.614,9.614,0,0,0,3.057,6.684,13.616,13.616,0,0,0,7.6,2.746c3.3.336,6.911-.013,9.109-2.833A6.283,6.283,0,0,0,39.446,218.572Z" transform="translate(32.155 25.961)" fill="#f8b5ac"></path><path d="M21.033,226.5a10.624,10.624,0,0,0,.42-6.755,15.548,15.548,0,0,0-3.319-6.513,15.393,15.393,0,0,0-4.147-3.429c-3.765-2.117-10.574-3.334-14.17-.148-1.982,1.758-1.89,4.6-1.215,6.944a21.8,21.8,0,0,0,5.01,8.416,19.018,19.018,0,0,0,8.006,5.538,7.418,7.418,0,0,0,8.008-1.928A8.151,8.151,0,0,0,21.033,226.5Z" transform="translate(0 32.625)" fill="#f8b5ac"></path><path d="M20.863,241.683a7.832,7.832,0,0,0,.509-5.151,10.754,10.754,0,0,0-2.5-4.87,11.134,11.134,0,0,0-3.24-2.5c-2.968-1.513-8.4-2.267-11.366.247-1.633,1.388-1.63,3.546-1.149,5.313A15.071,15.071,0,0,0,6.925,241,14,14,0,0,0,13.206,245a6.428,6.428,0,0,0,6.475-1.671A6.8,6.8,0,0,0,20.863,241.683Z" transform="translate(7.229 63.67)" fill="#f8b5ac"></path><path d="M7.279,211.17a8.452,8.452,0,0,0,4.812,2.42,12.459,12.459,0,0,0,9.608-2.356c2.726-2.094,5.744-6.7,4.537-10.324-.667-2-2.774-2.82-4.7-3.057a17.324,17.324,0,0,0-7.723,1.037,15.109,15.109,0,0,0-6.554,4.126,5.909,5.909,0,0,0-1.093,6.462A6.476,6.476,0,0,0,7.279,211.17Z" transform="translate(11.554 17.234)" fill="#f8b5ac"></path><path d="M14,190.366a6.536,6.536,0,0,0-.894,4.61,7.326,7.326,0,0,0,2.193,4.078,8.876,8.876,0,0,0,3.12,1.91c2.914,1.062,8.4,1.218,11.6-1.291a4.486,4.486,0,0,0,1.559-4.812,10.359,10.359,0,0,0-3.423-5.2,11.867,11.867,0,0,0-6.113-2.96,8.159,8.159,0,0,0-6.72,2.091A7.879,7.879,0,0,0,14,190.366Z" transform="translate(22.963)" fill="#f8b5ac"></path><path d="M13.111,220.4a3.734,3.734,0,0,0,2.16,1.727,3.593,3.593,0,0,0,2.573-.219,4.9,4.9,0,0,0,1.668-1.325,9.46,9.46,0,0,0,1.913-7.125,2.682,2.682,0,0,0-2.117-2.168,5.085,5.085,0,0,0-3.418.644,6.8,6.8,0,0,0-2.868,2.8,5.893,5.893,0,0,0-.423,4.478A5.486,5.486,0,0,0,13.111,220.4Z" transform="translate(21.93 38.041)" fill="#f8b5ac"></path><path d="M38.98,211.56a3.734,3.734,0,0,0,2.16,1.727,3.59,3.59,0,0,0,2.573-.216,4.941,4.941,0,0,0,1.668-1.327,9.457,9.457,0,0,0,1.913-7.122,2.683,2.683,0,0,0-2.114-2.17,5.082,5.082,0,0,0-3.418.645,6.833,6.833,0,0,0-2.871,2.8,5.881,5.881,0,0,0-.42,4.478A5.358,5.358,0,0,0,38.98,211.56Z" transform="translate(61.957 24.368)" fill="#f8b5ac"></path><path d="M40.043,240.394a3.734,3.734,0,0,0,2.16,1.727,3.59,3.59,0,0,0,2.573-.217,4.941,4.941,0,0,0,1.668-1.327,9.457,9.457,0,0,0,1.913-7.122,2.679,2.679,0,0,0-2.117-2.17,5.088,5.088,0,0,0-3.418.645,6.843,6.843,0,0,0-2.868,2.8,5.893,5.893,0,0,0-.423,4.478A5.485,5.485,0,0,0,40.043,240.394Z" transform="translate(63.6 68.981)" fill="#f8b5ac"></path><path d="M36.376,220.13a6.114,6.114,0,0,0-.785,4.175,7.592,7.592,0,0,0,1.872,3.915,8.509,8.509,0,0,0,2.675,1.989c2.5,1.192,7.209,1.742,9.972-.326a4.055,4.055,0,0,0,1.355-4.312,10.679,10.679,0,0,0-2.924-5.036,11.006,11.006,0,0,0-5.242-3.179,6.314,6.314,0,0,0-5.782,1.424A6.4,6.4,0,0,0,36.376,220.13Z" transform="translate(57.781 47.269)" fill="#f8b5ac"></path></g></g></svg>