<?xml version="1.0" encoding="UTF-8"?> <svg xmlns="http://www.w3.org/2000/svg" width="38.41" height="33.671" viewBox="0 0 38.41 33.671"><defs><style>.a{fill:#fff;stroke:#fff;stroke-width:0.5px;}</style></defs><g transform="translate(-0.778 -2.65)"><g transform="translate(1.028 2.9)"><g transform="translate(11.847)"><path class="a" d="M17.494,17.116A7.108,7.108,0,1,1,24.6,10.008,7.116,7.116,0,0,1,17.494,17.116Zm0-12.439a5.331,5.331,0,1,0,5.331,5.331A5.337,5.337,0,0,0,17.494,4.677Z" transform="translate(-10.386 -2.9)"></path></g><g transform="translate(0 19.091)"><path class="a" d="M19.983,32.059c-9.189,0-18.955-2.491-18.955-7.108,0-3.334,5.44-6.027,13.86-6.862a.889.889,0,1,1,.175,1.769C7.1,20.646,2.805,23.07,2.805,24.951c0,2.521,7.055,5.331,17.178,5.331s17.178-2.81,17.178-5.331c0-2.07-5.037-4.58-13.465-5.2a.889.889,0,0,1-.821-.951.9.9,0,0,1,.951-.821c7.522.551,15.113,2.92,15.113,6.97C38.938,29.567,29.172,32.059,19.983,32.059Z" transform="translate(-1.028 -17.979)"></path></g><g transform="translate(18.066 12.439)"><path class="a" d="M16.187,27.237a.889.889,0,0,1-.889-.889V13.613a.889.889,0,0,1,1.777,0V26.349A.889.889,0,0,1,16.187,27.237Z" transform="translate(-15.298 -12.725)"></path></g></g></g></svg> 