<?xml version="1.0" encoding="UTF-8"?> <svg xmlns="http://www.w3.org/2000/svg" width="36.778" height="36.743" viewBox="0 0 36.778 36.743"><defs><style>.a{fill:#fff;}</style></defs><g transform="translate(-15.041 -15.073)"><path class="a" d="M42.258,51.816a16.967,16.967,0,0,1-5.085-.889,32.513,32.513,0,0,1-12.826-8.351c-6.458-6.458-9.241-11.43-9.307-16.626a1.028,1.028,0,0,1,1.015-1.041h.013A1.028,1.028,0,0,1,17.1,25.924c.058,4.609,2.662,9.155,8.7,15.2,9.259,9.259,16.589,8.657,16.975,8.618a7.693,7.693,0,0,0,1.891-.477,7.4,7.4,0,0,0,1.844-1.044,1.082,1.082,0,0,1,.153-.1l1.261-1.235a1.664,1.664,0,0,0,.065-2.339l-5.157-5.157a1.66,1.66,0,0,0-2.338.072l-2.6,2.6a1.029,1.029,0,0,1-1.223.174c-.166-.092-.339-.187-.52-.289a26.72,26.72,0,0,1-6.475-4.691,26.893,26.893,0,0,1-4.7-6.48l-.052-.094c-.077-.14-.153-.276-.227-.406a1.028,1.028,0,0,1,.166-1.238l2.6-2.6a1.659,1.659,0,0,0,.069-2.339l-5.157-5.159a1.545,1.545,0,0,0-1.135-.447A1.743,1.743,0,0,0,20.055,19l-1.369,1.454A7.179,7.179,0,0,0,18,21.523a1.028,1.028,0,0,1-1.824-.95,9.211,9.211,0,0,1,.914-1.423c.019-.024.039-.048.06-.07l1.414-1.5.022-.022a3.789,3.789,0,0,1,2.619-1.12,3.578,3.578,0,0,1,2.627,1.049l5.158,5.159a3.716,3.716,0,0,1-.069,5.246l-2.052,2.051a24.71,24.71,0,0,0,4.26,5.857,24.552,24.552,0,0,0,5.858,4.257l2.05-2.05a3.718,3.718,0,0,1,5.244-.073l5.16,5.16a3.723,3.723,0,0,1-.068,5.247l-.008.008L47.9,49.791a1.026,1.026,0,0,1-.357.228,9.4,9.4,0,0,1-2.126,1.16,9.747,9.747,0,0,1-2.4.6l-.014,0A7.323,7.323,0,0,1,42.258,51.816Zm9.561-17.692A19.073,19.073,0,0,0,32.767,15.073a1.028,1.028,0,1,0,0,2.057,17.014,17.014,0,0,1,17,17,1.028,1.028,0,1,0,2.056,0Zm-6.688-.791A11.586,11.586,0,0,0,33.558,21.761a1.028,1.028,0,1,0,0,2.057,9.528,9.528,0,0,1,9.517,9.517,1.028,1.028,0,1,0,2.056,0Z" transform="translate(0)"></path></g></svg> 