<?xml version="1.0" encoding="UTF-8"?> <svg xmlns="http://www.w3.org/2000/svg" width="38.216" height="38.216" viewBox="0 0 38.216 38.216"><defs><style>.a{fill:#fff;}</style></defs><path class="a" d="M19.108,38.216A19.108,19.108,0,0,1,19.108,0a1.592,1.592,0,0,1,0,3.185A15.923,15.923,0,1,0,35.031,19.108a1.592,1.592,0,1,1,3.185,0A19.129,19.129,0,0,1,19.108,38.216Zm0-35.031a1.674,1.674,0,0,1-1.131-.462,1.674,1.674,0,0,1-.462-1.131A1.674,1.674,0,0,1,17.977.462a1.667,1.667,0,0,1,2.261,0A1.674,1.674,0,0,1,20.7,1.592a1.674,1.674,0,0,1-.462,1.131A1.674,1.674,0,0,1,19.108,3.185Zm14.713,9.825a1.6,1.6,0,1,1,2.086.86A1.719,1.719,0,0,1,35.3,14,1.584,1.584,0,0,1,33.821,13.009ZM30.364,7.85a1.605,1.605,0,0,1,0-2.261,1.586,1.586,0,0,1,2.245,0A1.592,1.592,0,0,1,31.5,8.312,1.638,1.638,0,0,1,30.364,7.85ZM25.207,4.395a1.6,1.6,0,1,1,1.226-2.946,1.592,1.592,0,0,1-.621,3.057,1.57,1.57,0,0,1-.605-.111ZM36.624,20.7a1.577,1.577,0,1,1,1.131-.462,1.671,1.671,0,0,1-1.131.462ZM25.476,23.885a1.6,1.6,0,0,1-.71-.167L18.4,20.533a1.594,1.594,0,0,1-.881-1.425V7.962a1.592,1.592,0,1,1,3.185,0V18.124l5.489,2.745a1.592,1.592,0,0,1-.713,3.016Z"></path></svg> 