<svg xmlns="http://www.w3.org/2000/svg" xmlns:xlink="http://www.w3.org/1999/xlink" width="1308.945" height="806.273" viewBox="0 0 1308.945 806.273">
  <defs>
    <linearGradient id="linear-gradient" x1="0.5" x2="0.5" y2="1" gradientUnits="objectBoundingBox">
      <stop offset="0" stop-color="#6a58cf"/>
      <stop offset="1" stop-color="#031a9a"/>
    </linearGradient>
  </defs>
  <path id="about_us_-_bg" data-name="about us - bg" d="M-13727.9,811.348l-1213.561-109.466a30.32,30.32,0,0,1-12.743-4.194,37.454,37.454,0,0,1-10.334-9.2,44.254,44.254,0,0,1-6.93-12.849A46.761,46.761,0,0,1-14974,660.45V156.569a46.76,46.76,0,0,1,2.533-15.194,44.157,44.157,0,0,1,6.93-12.849,37.394,37.394,0,0,1,10.334-9.2,30.32,30.32,0,0,1,12.743-4.194L-13727.9,5.667a68.653,68.653,0,0,1,24.25,2.033,57.871,57.871,0,0,1,20,9.771,48.248,48.248,0,0,1,13.589,16.013,44.586,44.586,0,0,1,5,20.665V762.87a44.559,44.559,0,0,1-5,20.661,48.224,48.224,0,0,1-13.589,16.017,57.871,57.871,0,0,1-20,9.771,67.127,67.127,0,0,1-17.7,2.327Q-13724.582,811.645-13727.9,811.348Z" transform="translate(14973.999 -5.372)" fill="url(#linear-gradient)"/>
</svg>
