<svg xmlns="http://www.w3.org/2000/svg" width="1614.091" height="1976.93" viewBox="0 0 1614.091 1976.93">
  <path id="blog_-_bg" data-name="blog - bg" d="M-1313.337,1979.8l-1551.914-265.937a24.753,24.753,0,0,1-9.267-3.695,30.564,30.564,0,0,1-7.546-7.027,33.787,33.787,0,0,1-5.077-9.365,32.337,32.337,0,0,1-1.859-10.721V182.189a31.136,31.136,0,0,1,1.859-10.581,30.753,30.753,0,0,1,5.077-8.984,27.363,27.363,0,0,1,7.546-6.46,23.065,23.065,0,0,1,9.267-3L-1313.337,3.7a40.846,40.846,0,0,1,14.911,1.24,34.72,34.72,0,0,1,12.22,6.139,29.945,29.945,0,0,1,8.263,10.073,28.917,28.917,0,0,1,3.034,13.017V1952.212a27.52,27.52,0,0,1-3.034,12.789,26.845,26.845,0,0,1-8.263,9.452,31.858,31.858,0,0,1-12.22,5.222,38.086,38.086,0,0,1-7.623.754A43.146,43.146,0,0,1-1313.337,1979.8Z" transform="translate(2889 -3.499)" fill="#ebf8f9"/>
</svg>
