<?xml version="1.0" encoding="UTF-8"?> <svg xmlns="http://www.w3.org/2000/svg" width="109.68" height="35.643" viewBox="0 0 109.68 35.643"><defs><style>.a{fill:#1f3bb1;}.b{fill:#25dad9;}</style></defs><g transform="translate(-160 -22)"><path class="a" d="M4.6-4.96V0H1.18V-14.14H6.72a5.38,5.38,0,0,1,3.84,1.25,4.421,4.421,0,0,1,1.32,3.37,4.643,4.643,0,0,1-.59,2.35A4.091,4.091,0,0,1,9.54-5.55a6.165,6.165,0,0,1-2.82.59ZM6.34-7.7Q8.4-7.7,8.4-9.52q0-1.86-2.06-1.86H4.6V-7.7Zm13.9-3.58A3.863,3.863,0,0,1,23.29-10a5.134,5.134,0,0,1,1.13,3.52V0H21V-6.08a2.46,2.46,0,0,0-.59-1.75,2.049,2.049,0,0,0-1.57-.63,2.137,2.137,0,0,0-1.65.66,2.67,2.67,0,0,0-.61,1.88V0H13.16V-14.8h3.42v5.68a3.681,3.681,0,0,1,1.43-1.58A4.2,4.2,0,0,1,20.24-11.28ZM29.7-14.8V0H26.28V-14.8Zm7.18,3.5a6.276,6.276,0,0,1,2.97.69,5.059,5.059,0,0,1,2.06,1.99,5.976,5.976,0,0,1,.75,3.04,5.976,5.976,0,0,1-.75,3.04A5.059,5.059,0,0,1,39.85-.55a6.276,6.276,0,0,1-2.97.69A6.335,6.335,0,0,1,33.9-.55a5.043,5.043,0,0,1-2.07-1.99,5.976,5.976,0,0,1-.75-3.04,5.976,5.976,0,0,1,.75-3.04,5.043,5.043,0,0,1,2.07-1.99A6.335,6.335,0,0,1,36.88-11.3Zm0,2.96a2.179,2.179,0,0,0-1.65.71,2.876,2.876,0,0,0-.67,2.05,2.839,2.839,0,0,0,.67,2.04,2.194,2.194,0,0,0,1.65.7,2.162,2.162,0,0,0,1.64-.7,2.866,2.866,0,0,0,.66-2.04,2.9,2.9,0,0,0-.66-2.05A2.148,2.148,0,0,0,36.88-8.34ZM51.02,0,48.74-3.18,46.88,0H43.12l3.7-5.82-3.84-5.34h3.84l2.26,3.14,1.86-3.14H54.7L50.92-5.48,54.86,0Zm7.66-3.42V0H55.14V-3.42Z" transform="translate(211 47)"></path><g transform="translate(160 25.028)"><path class="a" d="M63.646.99A.991.991,0,0,0,62.484.014a15.391,15.391,0,0,0-6.563,2.86.99.99,0,0,0-.1,1.491l5.108,5.108a.99.99,0,0,0,1.18.166A6.368,6.368,0,0,1,63,9.228a.99.99,0,0,0,.648-.929Z" transform="translate(-49.743 1.909)"></path><path class="b" d="M163.493,10.333a1.232,1.232,0,0,0,.807,1.156,8,8,0,0,1,4.733,4.733,1.232,1.232,0,0,0,1.156.807h9.1A1.232,1.232,0,0,0,180.5,15.58,19.27,19.27,0,0,0,164.942.019a1.234,1.234,0,0,0-1.449,1.213v9.1Z" transform="translate(-146.509 -3.028)"></path><path class="a" d="M22.407,71.983a.989.989,0,0,0-.929.648A6.406,6.406,0,1,1,9.466,68.177a.99.99,0,0,0-.227-1.047L3.994,61.885a.991.991,0,0,0-1.532.163,15.467,15.467,0,1,0,28.23,11.1.991.991,0,0,0-.974-1.164H22.407Z" transform="translate(0 -53.271)"></path></g></g></svg> 