<svg xmlns="http://www.w3.org/2000/svg" width="54.112" height="30.765" viewBox="0 0 54.112 30.765">
  <g id="Group_5982" data-name="Group 5982" transform="translate(-161.428 -7171.749)">
    <path id="Path_7061" data-name="Path 7061" d="M1.428-29.736q1.05.042,2.835.084t3.549.042q2.016,0,3.906-.042t2.688-.042q5.838,0,8.736,2.31a7.282,7.282,0,0,1,2.9,5.964,9.487,9.487,0,0,1-.588,3.171,8.215,8.215,0,0,1-2,3.066,10.308,10.308,0,0,1-3.843,2.289,18.218,18.218,0,0,1-6.132.882H11.2v-.84h1.864a5.509,5.509,0,0,0,3.759-1.134,5.841,5.841,0,0,0,1.764-2.982,15.739,15.739,0,0,0,.483-3.99,11.921,11.921,0,0,0-1.176-5.964A4.309,4.309,0,0,0,13.86-28.9q-1.638,0-2.121.714a5.783,5.783,0,0,0-.483,2.9V-4.7a6.641,6.641,0,0,0,.336,2.436,1.8,1.8,0,0,0,1.3,1.05,13.288,13.288,0,0,0,2.856.294V0q-1.3-.042-3.36-.084T8.064-.126q-1.806,0-3.528.042T1.428,0V-.84a7.416,7.416,0,0,0,2.016-.336,1.46,1.46,0,0,0,.9-1.008,8.3,8.3,0,0,0,.231-2.268V-25.284a8.271,8.271,0,0,0-.231-2.289,1.514,1.514,0,0,0-.924-1.008,6.23,6.23,0,0,0-2-.315Z" transform="translate(189 7202)" fill="rgba(255,255,255,0)" stroke="#fff" stroke-width="1"/>
    <path id="Path_7060" data-name="Path 7060" d="M1.428-29.736q1.05.042,2.835.084t3.549.042q2.016,0,3.906-.042t2.688-.042q5.208,0,7.791,1.848A5.611,5.611,0,0,1,24.78-23.1a5.89,5.89,0,0,1-.882,2.982,8.089,8.089,0,0,1-2.73,2.688,13.487,13.487,0,0,1-4.788,1.722v.084A17.35,17.35,0,0,1,22.638-14.2a7.893,7.893,0,0,1,3.318,2.73,6.128,6.128,0,0,1,1.008,3.318A6.869,6.869,0,0,1,23.877-2.1Q20.79,0,15.372,0q-1.008,0-2.919-.063T7.9-.126q-1.848,0-3.633.021T1.428,0V-.84a7.416,7.416,0,0,0,2.016-.336,1.46,1.46,0,0,0,.9-1.008,8.3,8.3,0,0,0,.231-2.268V-25.284a8.271,8.271,0,0,0-.231-2.289,1.514,1.514,0,0,0-.924-1.008,6.23,6.23,0,0,0-2-.315Zm12.432.84q-1.638,0-2.121.714a5.783,5.783,0,0,0-.483,2.9V-4.452A4.864,4.864,0,0,0,11.8-1.617a3.082,3.082,0,0,0,2.352.651,5.136,5.136,0,0,0,4.431-1.911,9.052,9.052,0,0,0,1.407-5.439,7.131,7.131,0,0,0-1.617-5q-1.617-1.764-5.355-1.764H9.45v-.714h3.612a4.373,4.373,0,0,0,3.024-.945,5.04,5.04,0,0,0,1.47-2.52,13.081,13.081,0,0,0,.42-3.381,9.1,9.1,0,0,0-.966-4.683A3.411,3.411,0,0,0,13.86-28.9Z" transform="translate(160 7202)" fill="#fff"/>
  </g>
</svg>
